<svg xmlns="http://www.w3.org/2000/svg" xmlns:xlink="http://www.w3.org/1999/xlink" viewBox="0 0 349.14 273.16">
	<defs>
		<style>.cls-1{isolation:isolate;}.cls-2{fill:#e1e1fe;}.cls-15,.cls-3,.cls-44{fill:#b0affd;}.cls-4{opacity:0.7;}.cls-5{fill:#9797ef;}.cls-6{fill:#8888e9;}.cls-7{opacity:0.8;}.cls-52,.cls-8{fill:#827cdc;}.cls-9{fill:#cfcfff;}.cls-10{fill:#6969cc;}.cls-11{fill:#ffc064;}.cls-12{fill:#af835b;}.cls-13{fill:#ea8237;}.cls-14,.cls-15,.cls-22,.cls-36,.cls-41{opacity:0.5;}.cls-14,.cls-15,.cls-36,.cls-41,.cls-52{mix-blend-mode:multiply;}.cls-16{fill:#e9a056;}.cls-17{fill:#d38c4c;}.cls-18{fill:#3d38a0;}.cls-19{fill:#4444ad;}.cls-20{fill:#b9c9ef;}.cls-21{fill:#262691;}.cls-22{fill:#8eb9bf;}.cls-22,.cls-31{mix-blend-mode:screen;}.cls-23{fill:#a4a4f7;}.cls-24{fill:#0a0a0a;}.cls-25{fill:#fefefe;}.cls-26,.cls-27,.cls-30,.cls-46,.cls-47,.cls-48,.cls-51{fill:none;}.cls-26,.cls-27{stroke:#fefefe;}.cls-26,.cls-27,.cls-30,.cls-46,.cls-47{stroke-miterlimit:10;}.cls-26,.cls-30{stroke-width:0.25px;}.cls-27{stroke-width:0.13px;}.cls-28{fill:#173a2c;}.cls-29{fill:#81172b;}.cls-30{stroke:#0a0a0a;}.cls-30,.cls-48,.cls-51{stroke-linecap:round;}.cls-31{opacity:0.2;}.cls-32{fill:#989898;}.cls-33,.cls-35,.cls-36{fill:#020202;}.cls-33,.cls-34,.cls-44,.cls-52{opacity:0.3;}.cls-37{fill:#5858c4;}.cls-38{fill:#d8826a;}.cls-39{fill:#5146af;}.cls-40{fill:#ed9c80;}.cls-41{fill:#013651;}.cls-42{fill:#2c1e56;}.cls-43{fill:red;}.cls-45{fill:#ffbfae;}.cls-46,.cls-47{stroke:#827cdc;}.cls-47{stroke-width:0.47px;}.cls-48{stroke:#d3bbf9;stroke-width:1.09px;}.cls-48,.cls-51{stroke-linejoin:round;}.cls-49{opacity:0.9;}.cls-50{fill:#927ddb;}.cls-51{stroke:#3d38a0;stroke-width:1.36px;}</style>
	</defs>
	<title>Asset 1</title>
	<g class="cls-1">
		<g id="Layer_2" data-name="Layer 2">
			<g id="OBJECTS">
				<path class="cls-2" d="M335.45,232.18c0,2.41-57.56,4.36-128.57,4.36s-128.57-1.95-128.57-4.36,57.56-4.37,128.57-4.37S335.45,229.77,335.45,232.18Z"/>
				<path class="cls-2" d="M232.65,251.78c0,1.73-50.21,3.14-112.15,3.14S8.34,253.51,8.34,251.78s50.22-3.13,112.16-3.13S232.65,250.05,232.65,251.78Z"/>
				<path class="cls-3" d="M269.89,199.7a.65.65,0,0,1,0,.36,2.44,2.44,0,0,0,.11-.81,57.54,57.54,0,0,1,2.21-6.27c.17-.42.36-.83.54-1.24,1-.35,3.34-.57,4-.77a12.92,12.92,0,0,0,4-1.75c.44-.36,1.51-1.58,1-2.21s-2.87.72-3.41,1.09a39.9,39.9,0,0,1-3.6,2.44,13.39,13.39,0,0,0-1.76.93,49.38,49.38,0,0,1,2.83-5.27c.95-.37,3.38-.59,4-.8a12.92,12.92,0,0,0,4-1.75c.44-.36,1.51-1.58,1-2.2s-2.87.72-3.41,1.08a39.24,39.24,0,0,1-3.6,2.44,13.09,13.09,0,0,0-1.74.92,44.25,44.25,0,0,1,3.71-5.1,40.35,40.35,0,0,1,3-3.16c1.15.06,2.71.31,3.23.28a12.8,12.8,0,0,0,4.31-.63c.51-.23,1.87-1.12,1.49-1.87s-3-.06-3.59.14a40,40,0,0,1-4.12,1.41l-.77.14a40.15,40.15,0,0,1,4.56-3.66c.47.11,1,.13,1.46.2a34.94,34.94,0,0,1,3.62.93c.54.14,2.77.65,3.06-.1s-1-1.34-1.42-1.5a11,11,0,0,0-3.72-.27c-.41,0-1.6.29-2.55.43.76-.52,1.54-1,2.33-1.48a43.23,43.23,0,0,1,3.9-2,8.44,8.44,0,0,0,1.81.29,35,35,0,0,1,3.62.94c.54.14,2.77.65,3.06-.11s-1-1.33-1.42-1.49a11.07,11.07,0,0,0-3.72-.27c-.48,0-2,.38-3,.48a37.77,37.77,0,0,1,5.51-1.91c.51.11,1.05.13,1.57.19a32.43,32.43,0,0,1,3.63.86c.55.13,2.78.6,3.06-.16s-1-1.32-1.44-1.47a11.11,11.11,0,0,0-3.73-.2,6.7,6.7,0,0,0-.71.11c-1,.1-2,.24-3,.44a.25.25,0,0,1-.09,0s.06,0,.08,0a32.45,32.45,0,0,0-4,1c.37-.32.69-.72,1-1.07a32.74,32.74,0,0,1,2.9-2.32c.43-.35,2.17-1.82,1.75-2.52s-1.64-.05-2,.22a10.92,10.92,0,0,0-2.43,2.81c-.32.45-1.08,2.27-1.62,3a33.6,33.6,0,0,0-3.59,1.44,9.46,9.46,0,0,0,1.06-1.43,32.32,32.32,0,0,1,2.51-2.74c.37-.42,1.85-2.13,1.33-2.76s-1.62.2-2,.53a11,11,0,0,0-2,3.16c-.26.52-.77,2.66-1.21,3.36-.47.23-.94.46-1.41.71a37,37,0,0,0-5.47,3.57c.08-.35.13-.71.21-1.06A32.7,32.7,0,0,1,286,169.8c.18-.53.88-2.69.17-3.07s-1.41.81-1.61,1.25a11.2,11.2,0,0,0-.61,3.69c0,.47.19,2,.21,3a39.4,39.4,0,0,0-4.61,4.34c.12-.41.23-.81.36-1.18a29.28,29.28,0,0,1,1.14-2.71,16.61,16.61,0,0,1,2.51-3.84.8.8,0,0,0-.79-1.3l-.09,0c-1.21.39-1.84,1.69-2.33,2.86-.37.9-2.4,5.75-1.71,7.18a41.64,41.64,0,0,0-4.17,6c.28-1.17.83-2.25,1.22-3.39.18-.53.88-2.7.16-3.08s-1.4.82-1.61,1.26a11.13,11.13,0,0,0-.59,3.68c0,.43.14,1.68.2,2.66a42.57,42.57,0,0,0-2.43,5.27c0-.24,0-.49,0-.73a33.61,33.61,0,0,1,.34-3.72c0-.56.18-2.84-.6-3s-1.16,1.15-1.25,1.63a11.5,11.5,0,0,0,.34,3.73c.09.47.68,1.88.94,2.84q-.76,2.09-1.32,4.23c-.07-1.11.07-2.22.07-3.32,0-.57,0-2.85-.84-3s-1.06,1.23-1.11,1.72a11.4,11.4,0,0,0,.63,3.69c.1.38.57,1.33.93,2.18-.63,2.72-3.33,5.24-3.49,8C266.4,204.2,269.23,202,269.89,199.7Z"/>
				<path class="cls-3" d="M129.69,148.47a.79.79,0,0,0,.12.35,2.55,2.55,0,0,1-.4-.72A58,58,0,0,0,125.1,143c-.31-.32-.63-.64-.95-.95-1.05,0-3.32.66-4,.69a12.69,12.69,0,0,1-4.35-.21c-.54-.17-2-.93-1.67-1.71s2.93-.36,3.57-.22a39.31,39.31,0,0,0,4.23,1,11.77,11.77,0,0,1,2,.24,49.51,49.51,0,0,0-4.53-3.92c-1,0-3.36.66-4,.7a13.14,13.14,0,0,1-4.34-.21c-.54-.17-2-.93-1.68-1.71s2.94-.36,3.58-.22a38.71,38.71,0,0,0,4.23,1,12.8,12.8,0,0,1,2,.24,43.58,43.58,0,0,0-5.3-3.43,40.2,40.2,0,0,0-3.91-1.89c-1,.47-2.41,1.26-2.9,1.42a12.9,12.9,0,0,1-4.25.95c-.57,0-2.15-.37-2.07-1.21s2.75-1.12,3.4-1.15a42,42,0,0,0,4.35-.16l.77-.15a41.82,41.82,0,0,0-5.56-1.78c-.41.27-.87.47-1.3.71a32.29,32.29,0,0,0-3,2.17c-.46.32-2.36,1.6-2.9,1s.42-1.59.79-1.91a11.19,11.19,0,0,1,3.37-1.58c.4-.14,1.6-.31,2.54-.52-.9-.2-1.8-.39-2.7-.54a42.37,42.37,0,0,0-4.36-.45,8.48,8.48,0,0,1-1.58.92,35.11,35.11,0,0,0-3,2.17c-.46.32-2.35,1.6-2.9,1s.42-1.59.79-1.9a11.27,11.27,0,0,1,3.38-1.59c.45-.16,2-.36,3-.62a38,38,0,0,0-5.84.19,14.2,14.2,0,0,1-1.39.74,32.24,32.24,0,0,0-3.08,2.11c-.47.31-2.39,1.55-2.92.95s.45-1.59.82-1.89a10.8,10.8,0,0,1,3.41-1.52,4.85,4.85,0,0,1,.71-.15,26.63,26.63,0,0,1,2.94-.67l.07-.07a.34.34,0,0,1-.06.06,35.07,35.07,0,0,1,4.09-.47c-.46-.16-.9-.42-1.35-.62a32.38,32.38,0,0,0-3.54-1.12c-.53-.18-2.67-.93-2.53-1.73s1.51-.63,2-.52a10.94,10.94,0,0,1,3.28,1.75c.46.3,1.81,1.73,2.58,2.23a33.32,33.32,0,0,1,3.87.05,9.21,9.21,0,0,1-1.5-1,33.15,33.15,0,0,0-3.32-1.66c-.5-.26-2.5-1.33-2.24-2.1s1.58-.39,2-.21a11,11,0,0,1,3,2.24c.44.4,1.68,2.21,2.34,2.71.52,0,1.05.09,1.57.15a37.89,37.89,0,0,1,6.39,1.37c-.2-.3-.38-.61-.58-.91a32.54,32.54,0,0,0-2.43-2.82c-.36-.43-1.8-2.2-1.26-2.81s1.61.25,1.95.59a11.34,11.34,0,0,1,1.89,3.23c.19.43.53,1.91.87,2.85a39.19,39.19,0,0,1,5.86,2.4c-.25-.34-.5-.68-.76-1a29.31,29.31,0,0,0-2-2.13,16.49,16.49,0,0,0-3.71-2.67.81.81,0,0,1,.27-1.51h.09c1.27-.08,2.32.9,3.2,1.83.66.71,4.3,4.51,4.18,6.09a42.89,42.89,0,0,1,6,4.06c-.68-1-1.58-1.8-2.35-2.73-.36-.43-1.8-2.2-1.26-2.81s1.61.26,2,.6a11.16,11.16,0,0,1,1.88,3.22c.18.39.47,1.63.77,2.55a44.08,44.08,0,0,1,4.15,4.05c-.07-.23-.14-.46-.22-.69a35.85,35.85,0,0,0-1.65-3.35c-.24-.51-1.19-2.59-.52-3s1.49.65,1.74,1.07a11.37,11.37,0,0,1,1,3.6c.09.47,0,2,.14,3q1.45,1.67,2.75,3.47c-.33-1-.86-2-1.25-3.07-.2-.53-1-2.68-.29-3.08s1.44.77,1.65,1.2a11.17,11.17,0,0,1,.74,3.68c0,.38-.06,1.45-.09,2.37,1.56,2.3,5,3.69,6.13,6.22C134.57,151.42,131.15,150.42,129.69,148.47Z"/>
				<path class="cls-3" d="M151.15,165.1a.82.82,0,0,0,.2.31,2.9,2.9,0,0,1-.58-.58,57.86,57.86,0,0,0-5.57-3.64l-1.18-.64c-1,.32-3,1.58-3.61,1.79a13.13,13.13,0,0,1-4.23,1c-.57,0-2.16-.33-2.09-1.17s2.71-1.18,3.37-1.22a41.93,41.93,0,0,0,4.34-.25,12.16,12.16,0,0,1,2-.33,49.58,49.58,0,0,0-5.46-2.47c-1,.29-3,1.59-3.66,1.81a13.13,13.13,0,0,1-4.23,1c-.56,0-2.16-.33-2.09-1.17s2.71-1.18,3.37-1.23a39.32,39.32,0,0,0,4.34-.24,11.74,11.74,0,0,1,1.94-.33,43.2,43.2,0,0,0-6.05-1.79,41.66,41.66,0,0,0-4.29-.7c-.87.75-1.95,1.89-2.38,2.19a13.3,13.3,0,0,1-3.8,2.12c-.55.13-2.17.25-2.33-.58s2.32-1.85,2.94-2.07a39.89,39.89,0,0,0,4.12-1.39l.69-.36a42,42,0,0,0-5.83-.13c-.32.37-.7.7-1.05,1a35.24,35.24,0,0,0-2.3,3c-.35.43-1.8,2.19-2.49,1.78s0-1.65.21-2.06a11.36,11.36,0,0,1,2.79-2.47c.34-.25,1.44-.75,2.28-1.22-.91.06-1.83.13-2.74.25a42.22,42.22,0,0,0-4.3.8,9.36,9.36,0,0,1-1.26,1.34,33.11,33.11,0,0,0-2.3,2.94c-.35.44-1.8,2.2-2.49,1.78s0-1.64.21-2.05a11.4,11.4,0,0,1,2.79-2.48c.39-.28,1.82-.91,2.66-1.43a37.87,37.87,0,0,0-5.54,1.84,13.06,13.06,0,0,1-1.13,1.1,34.59,34.59,0,0,0-2.35,2.9c-.36.43-1.85,2.16-2.53,1.73s0-1.64.25-2a11.26,11.26,0,0,1,2.84-2.43,7.14,7.14,0,0,1,.63-.34,29.51,29.51,0,0,1,2.63-1.48.21.21,0,0,0,.06-.08l0,.08a32.6,32.6,0,0,1,3.8-1.62c-.49,0-1-.14-1.48-.21a32.77,32.77,0,0,0-3.71-.07c-.56,0-2.83-.13-2.92-.94s1.27-1,1.75-1.06a10.94,10.94,0,0,1,3.64.74c.53.17,2.24,1.15,3.11,1.41a34.4,34.4,0,0,1,3.73-1,8.75,8.75,0,0,1-1.71-.49,34.13,34.13,0,0,0-3.66-.64c-.55-.11-2.77-.57-2.74-1.38s1.41-.82,1.89-.78a11.27,11.27,0,0,1,3.48,1.3c.53.26,2.24,1.64,3,1.94.52-.11,1-.21,1.55-.3a37.35,37.35,0,0,1,6.51-.5l-.81-.71a32.78,32.78,0,0,0-3.13-2c-.47-.31-2.35-1.6-2-2.33s1.62-.22,2,0a11.39,11.39,0,0,1,2.72,2.56c.31.36,1,1.69,1.65,2.49a40.39,40.39,0,0,1,6.3.63c-.34-.24-.68-.5-1-.71-.83-.52-1.68-1-2.55-1.46a16.68,16.68,0,0,0-4.32-1.51.8.8,0,0,1-.17-1.52l.08,0c1.2-.43,2.49.21,3.59.85.84.49,5.41,3.1,5.73,4.65a42.35,42.35,0,0,1,6.94,2.19c-.94-.76-2-1.28-3-1.95-.47-.31-2.34-1.6-2-2.34s1.61-.21,2,0a11.39,11.39,0,0,1,2.72,2.56c.28.32.9,1.42,1.46,2.22a45.67,45.67,0,0,1,5.13,2.71c-.14-.2-.27-.41-.41-.6a34.62,34.62,0,0,0-2.53-2.75c-.38-.42-1.88-2.14-1.37-2.77s1.62.21,2,.53a11.38,11.38,0,0,1,2,3.17c.21.42.6,1.9,1,2.83a43.62,43.62,0,0,1,3.62,2.55c-.62-.92-1.4-1.72-2.07-2.6-.34-.45-1.71-2.28-1.15-2.87s1.6.33,1.93.69a11.54,11.54,0,0,1,1.75,3.31c.14.36.35,1.41.58,2.3,2.15,1.77,5.84,2.12,7.64,4.23C156.66,166.55,153.1,166.56,151.15,165.1Z"/>
				<path class="cls-3" d="M245.78,189.11c.05.06-.26-5.34,7.38-10.87,7.76-5.86,25-5.68,27-11.19,2.06-5.9-8.68-4.18-13.51-8.31s-6.52-6.18-.08-7.71,10.29-2.09,10.08-7.44,10.52-3.17,15.71-7.31c5.35-4.15,2.17-9.36-8.22-8.7-10.2.9-10.63-.77-7.73-2.45s11.69-4.67,7.8-7.32-9.58,0-6.68-3.56,9.92-6.38,6.31-10.07-12.55-3.07-17.3,7.12-6.2,13-11.09,14.25-9.49-3.74-15.33-1.39-4.48,8-.85,11.61,10,10.83,6.45,14.28-7.79-1.33-12.94-2c-5.71-.79-12,4.28-6.39,11.87,5.81,7.48,14.56,13.22,15.35,30.93C243.05,190.21,244.41,189.65,245.78,189.11Z"/>
				<g class="cls-4">
					<path class="cls-5" d="M243.48,190.34a.31.31,0,0,0,.33-.25C255.49,128.32,279,105,279.18,104.8a.3.3,0,1,0-.42-.44c-.24.23-23.84,23.66-35.55,85.62a.3.3,0,0,0,.24.35Z"/>
				</g>
				<g class="cls-4">
					<path class="cls-5" d="M265.26,124.85a.29.29,0,0,0,.2,0,33.75,33.75,0,0,1,16.7-5.45.31.31,0,0,0,.3-.31.3.3,0,0,0-.31-.3,34.34,34.34,0,0,0-17,5.56.3.3,0,0,0-.08.42A.27.27,0,0,0,265.26,124.85Z"/>
				</g>
				<g class="cls-4">
					<path class="cls-5" d="M256.91,142.87a.32.32,0,0,0,.23-.07.3.3,0,0,0,0-.43,120.17,120.17,0,0,0-17-15.55.31.31,0,0,0-.43.07.3.3,0,0,0,.07.42,119.1,119.1,0,0,1,16.93,15.46A.35.35,0,0,0,256.91,142.87Z"/>
				</g>
				<g class="cls-4">
					<path class="cls-5" d="M258.56,138.88l.14,0c14.18-5.57,30-5.71,30.16-5.71a.3.3,0,0,0,.3-.31.28.28,0,0,0-.3-.3c-.16,0-16.1.15-30.38,5.75a.3.3,0,0,0-.18.39A.31.31,0,0,0,258.56,138.88Z"/>
				</g>
				<g class="cls-4">
					<path class="cls-5" d="M247.83,170.85a.3.3,0,0,0,.16,0c9.71-4.48,26-5.08,26.21-5.08a.31.31,0,0,0,.29-.32.29.29,0,0,0-.31-.29c-.17,0-16.62.61-26.45,5.13a.31.31,0,0,0-.15.41A.32.32,0,0,0,247.83,170.85Z"/>
				</g>
				<g class="cls-4">
					<path class="cls-5" d="M246.75,175.15l.13,0a.3.3,0,0,0,.18-.39c-4.45-12.11-16.15-21.63-16.27-21.73a.31.31,0,0,0-.38.48c.12.09,11.69,9.51,16.08,21.46A.33.33,0,0,0,246.75,175.15Z"/>
				</g>
				<path class="cls-3" d="M152.87,169.42c-.05.06.27-5.34-7.37-10.87-7.76-5.86-25-5.68-27-11.19-2.06-5.9,8.68-4.18,13.51-8.3s6.53-6.19.09-7.71-10.29-2.1-10.09-7.45-10.51-3.17-15.7-7.31c-5.36-4.15-2.17-9.36,8.22-8.7,10.19.9,10.62-.77,7.73-2.45s-11.69-4.67-7.81-7.31,9.58,0,6.68-3.57-9.91-6.38-6.31-10.07,12.56-3.07,17.3,7.12,6.21,13,11.09,14.25,9.5-3.74,15.34-1.39,4.48,8,.84,11.61-10,10.83-6.45,14.28,7.8-1.33,12.95-2c5.71-.79,12,4.29,6.39,11.88-5.81,7.47-14.56,13.21-15.36,30.92C155.6,170.53,154.24,170,152.87,169.42Z"/>
				<g class="cls-4">
					<path class="cls-5" d="M155.18,170.65a.31.31,0,0,1-.33-.25c-11.68-61.77-35.14-85.06-35.38-85.29a.3.3,0,0,1,0-.43.31.31,0,0,1,.43,0c.23.23,23.83,23.66,35.55,85.62a.3.3,0,0,1-.24.35Z"/>
				</g>
				<g class="cls-4">
					<path class="cls-5" d="M133.39,105.17a.3.3,0,0,1-.2-.06,33.7,33.7,0,0,0-16.69-5.45.3.3,0,0,1-.3-.31.3.3,0,0,1,.31-.3,34.37,34.37,0,0,1,17,5.56.32.32,0,0,1,.08.43A.36.36,0,0,1,133.39,105.17Z"/>
				</g>
				<g class="cls-4">
					<path class="cls-5" d="M141.74,123.18a.29.29,0,0,1-.23-.07.3.3,0,0,1,0-.43,120.18,120.18,0,0,1,17-15.55.3.3,0,0,1,.42.07.3.3,0,0,1-.06.42,120.88,120.88,0,0,0-16.94,15.46A.26.26,0,0,1,141.74,123.18Z"/>
				</g>
				<g class="cls-4">
					<path class="cls-5" d="M140.1,119.19a.32.32,0,0,1-.14,0c-14.18-5.56-30-5.71-30.16-5.71a.31.31,0,0,1-.31-.31.3.3,0,0,1,.31-.3c.16,0,16.09.15,30.38,5.75a.31.31,0,0,1,.17.4A.29.29,0,0,1,140.1,119.19Z"/>
				</g>
				<g class="cls-4">
					<path class="cls-5" d="M150.82,151.16a.26.26,0,0,1-.15,0c-9.72-4.47-26-5.08-26.21-5.08a.3.3,0,0,1-.29-.32.3.3,0,0,1,.31-.29c.16,0,16.62.61,26.44,5.14a.3.3,0,0,1,.15.4A.29.29,0,0,1,150.82,151.16Z"/>
				</g>
				<g class="cls-4">
					<path class="cls-5" d="M151.9,155.46a.32.32,0,0,1-.13,0,.3.3,0,0,1-.18-.39c4.45-12.11,16.15-21.63,16.27-21.72a.3.3,0,0,1,.43,0,.3.3,0,0,1,0,.43c-.11.09-11.68,9.51-16.08,21.46A.3.3,0,0,1,151.9,155.46Z"/>
				</g>
				<path class="cls-6" d="M242,197.89s-.55-21.95,16.75-24,11.05,23,3.64,31.14c0,0,9.61-11.31,16-3.67s-11.57,16.39-11.57,16.39,14.39-4.87,18.37-1.57c5.14,4.26-4.61,10.46-4.61,10.46s15.56-6.2,12.3,4.84l-74-.21Z"/>
				<g class="cls-7">
					<path class="cls-3" d="M327,96.84l-.29.35-.2.2c-.4.42-.95,1-1.56,1.54l-.71.71c-.24.23-.48.48-.72.74a2.89,2.89,0,0,0-.29.32c-.29.31-.58.64-.85,1a12.83,12.83,0,0,0-1.09,1.71c-.09.17-.17.33-.24.5-.22.45-.39.86-.56,1.22-.07.13-.12.25-.19.37l0,0a4,4,0,0,1-.23.34,3.62,3.62,0,0,1-.71.7,3.69,3.69,0,0,1-.87.49,5.56,5.56,0,0,1-.76.27,11,11,0,0,1-2,.43l-.44,0a3.64,3.64,0,0,1-3-1.55,3.69,3.69,0,0,1-.48-.95c-.72-2.08-3.29-5-6.53-8.37-3.83-4-5-8.74-4.9-16a10.67,10.67,0,0,1,2.66-6.6,15.25,15.25,0,0,1,5.7-4.26,14.34,14.34,0,0,1,2-.72,17.53,17.53,0,0,1,4.63-.7h.06a21.59,21.59,0,0,1,2.71.13,13.59,13.59,0,0,1,7,2.66,12.79,12.79,0,0,1,2.17,2.12A22.85,22.85,0,0,1,330,78.57C334,87.64,328.33,95,327,96.84Z"/>
					<path class="cls-8" d="M327,96.84l-.29.35-.2.2c-.4.42-.95,1-1.56,1.54l-.71.71c-.24.23-.48.48-.72.74-.1.1-.2.21-.29.32-.29.31-.58.64-.85,1l-.22.29a8,8,0,0,0-.87,1.42c-.09.17-.17.33-.24.5-.22.45-.39.86-.56,1.22-.07.13-.12.25-.19.37l0,0a4,4,0,0,1-.23.34,3.62,3.62,0,0,1-.71.7,12.55,12.55,0,0,1,2.45-6.22c1-1.32,4.33-5.07,5.31-7.63a33.53,33.53,0,0,0,1.55-11.78,50.78,50.78,0,0,0-1.4-7.42A22.85,22.85,0,0,1,330,78.57C334,87.64,328.33,95,327,96.84Z"/>
					<path class="cls-8" d="M313.86,105.6l-.15,0a5.91,5.91,0,0,0-.82.24,5.68,5.68,0,0,0-.95.41c-.2-.29-.08-.68-.2-1-.71-2.08-3.29-5-6.52-8.36-3.83-4.05-8.7-15-2.24-22.64a15.51,15.51,0,0,1,2.17-2.12A15,15,0,0,1,308.68,70c-.77,1.51-2.73,5.65-2.9,8.81A19.37,19.37,0,0,0,307.4,88c1.14,2.83,3.33,6.62,3.82,7.67a40.94,40.94,0,0,1,2.2,6.64C313.73,104.11,313.86,105.6,313.86,105.6Z"/>
					<path class="cls-8" d="M327.1,83.15a45.1,45.1,0,0,1-1.54,5.64c-.29.79-2.33,5.72-2.55,6.3s-2.23,4.1-2.64,5.06-1,2.1-1.23,2.74a27.66,27.66,0,0,0-.57,3.15l-.81-.18-.84-.17.06-6.41s-.21-3.38-.24-4.93,0-5.79.16-12.43a63.49,63.49,0,0,0-1.54-13.34,18.72,18.72,0,0,1,5.26.61A12.92,12.92,0,0,1,325,71.37C327.27,75.1,327.2,82.23,327.1,83.15Z"/>
					<path class="cls-3" d="M327.1,83.15a45.1,45.1,0,0,1-1.54,5.64c-.29.79-2.33,5.72-2.55,6.3s-2.23,4.1-2.64,5.06-1,2.1-1.23,2.74a27.66,27.66,0,0,0-.57,3.15l-.81-.18c.17-2.12.91-6.46,1.46-7.46.65-1.17,2.22-4.88,4.15-12.19,2-7.48-.83-15.08-2.75-17A12.92,12.92,0,0,1,325,71.37C327.27,75.1,327.2,82.23,327.1,83.15Z"/>
					<path class="cls-9" d="M300.54,86.22c.85-.66,1.6-1.44,2.52-2a17.91,17.91,0,0,1,2.84-1.5A25.71,25.71,0,0,1,312.16,81,30.06,30.06,0,0,1,325,82.41a13.47,13.47,0,0,1,3.16,1.38,11.31,11.31,0,0,1,2.73,1.95c.07.08.23-.06.16-.14a9.74,9.74,0,0,0-2.27-1.66,14.65,14.65,0,0,0-2.64-1.36,35,35,0,0,0-6.61-1.66,25.56,25.56,0,0,0-13.1,1.4,18.13,18.13,0,0,0-3.12,1.55,32.42,32.42,0,0,0-2.87,2.23c-.1.08,0,.2.11.12Z"/>
					<path class="cls-9" d="M300.78,87.55a15.9,15.9,0,0,1,4.83-3.16,23.72,23.72,0,0,1,6.13-2.13,25.25,25.25,0,0,1,12.59,1.37A25.91,25.91,0,0,1,327.6,85c.56.28,1.1.61,1.64.92s1,.51,1.52.81c.09.06.24-.07.14-.13-.44-.27-.91-.47-1.35-.72L328.06,85a24.24,24.24,0,0,0-2.91-1.28,30,30,0,0,0-6.32-1.66,23.11,23.11,0,0,0-6.54-.06,21.26,21.26,0,0,0-6,1.85,18.19,18.19,0,0,0-5.7,3.58c-.09.1.07.19.15.11Z"/>
					<path class="cls-9" d="M310.19,102.6a13.72,13.72,0,0,1,5.84-1.41,10.54,10.54,0,0,1,5.83,1.09c.09,0,.23-.1.14-.15a10.82,10.82,0,0,0-5.93-1.12,14,14,0,0,0-5.93,1.43c-.11.06-.07.22.05.16Z"/>
					<path class="cls-9" d="M309.7,102a12.32,12.32,0,0,1,6.18-1.69,16.79,16.79,0,0,1,3.24.32c.62.12,1.23.3,1.84.44a7.48,7.48,0,0,1,1.48.46c.1,0,.22-.11.1-.16a8.59,8.59,0,0,0-1.66-.5c-.54-.13-1.07-.28-1.62-.39a15.6,15.6,0,0,0-3.55-.33,12.57,12.57,0,0,0-6.12,1.72c-.11.07,0,.19.11.13Z"/>
					<path class="cls-9" d="M311.84,106.37c0,1.83.52,3.64.53,5.47,0,.1.19,0,.19,0,0-1.83-.53-3.64-.53-5.47,0-.1-.19,0-.19.05Z"/>
					<path class="cls-9" d="M314,107.24c0,1.44.29,2.87.31,4.3,0,.12.2.09.2,0,0-1.44-.3-2.87-.31-4.3,0-.12-.2-.09-.2,0Z"/>
					<path class="cls-9" d="M316.45,107.46c0,1.34-.12,2.69-.15,4,0,.11.2.09.2,0,0-1.34.13-2.69.16-4,0-.11-.2-.09-.21,0Z"/>
					<path class="cls-9" d="M319.3,106.49a17.19,17.19,0,0,1-.34,2.85,17.74,17.74,0,0,0-.42,2.61c0,.12.17,0,.18-.06a19.45,19.45,0,0,1,.48-2.93,16.62,16.62,0,0,0,.29-2.53c0-.12-.18,0-.19.06Z"/>
					<path class="cls-9" d="M306,84.06c.12.57.2,1.14.35,1.71a13.68,13.68,0,0,0,.73,1.83c.63,1.47,1.13,3,1.89,4.39s1.59,2.63,2.27,4a22.33,22.33,0,0,1,.93,2.26c.27.76.38,1.58.69,2.32,0,.09.23,0,.19-.06-.28-.68-.38-1.43-.63-2.14a21.3,21.3,0,0,0-.92-2.28c-.66-1.39-1.51-2.67-2.25-4a47.08,47.08,0,0,1-1.9-4.38,14.86,14.86,0,0,1-.82-2c-.13-.54-.21-1.09-.33-1.64,0-.1-.22-.08-.2,0Z"/>
					<path class="cls-9" d="M316.8,81.78c-.06,3.21-.1,6.42-.2,9.63-.1,3,.31,5.89.29,8.84,0,.1.2.1.2,0,0-2.95-.38-5.89-.29-8.84.1-3.2.14-6.41.2-9.62,0-.11-.2-.1-.2,0Z"/>
					<path class="cls-9" d="M326.63,84.63a5,5,0,0,1-.31,1.06c-.13.35-.22.71-.32,1.06-.2.68-.38,1.37-.61,2-.46,1.39-1,2.77-1.53,4.14s-1.33,2.69-2,4a26.85,26.85,0,0,1-2,3.62c-.07.1.12.16.18.08a27.62,27.62,0,0,0,2-3.71c.65-1.33,1.43-2.61,2-4s1.09-2.8,1.56-4.22c.24-.74.45-1.49.66-2.24a11.56,11.56,0,0,0,.56-1.88c0-.11-.2-.1-.21,0Z"/>
					<path class="cls-9" d="M313.15,101.5a5.52,5.52,0,0,0,.21,1c.09.41.15.84.22,1.25a18.6,18.6,0,0,1,.17,2.24c0,.1.2.08.2,0,0-.66-.05-1.34-.13-2-.06-.4-.14-.79-.21-1.19a10.74,10.74,0,0,1-.26-1.28c0-.11-.21-.08-.2,0Z"/>
					<path class="cls-9" d="M316.84,101.21c0,1,0,1.9,0,2.86,0,.32,0,.64,0,1,0,.14.06.66-.05.76s.09.17.17.09.07-.37.07-.48c0-.38,0-.75,0-1.12,0-1,0-2,0-3.06,0-.12-.21-.12-.21,0Z"/>
					<path class="cls-9" d="M319.83,101.38c-1.12,1.31-1.07,3.18-1.37,4.77,0,.12.18.13.2,0,.29-1.56.24-3.41,1.33-4.68.08-.1-.09-.19-.16-.11Z"/>
					<path class="cls-10" d="M319.44,106.56s-.7,1.46-3.93,1.34-3.57-1.55-3.57-1.55.18-.92,3.42-.79C319.36,105.72,319.44,106.56,319.44,106.56Z"/>
					<rect class="cls-11" x="309.74" y="111.63" width="12.47" height="12.72" transform="translate(197.62 433.82) rotate(-89.93)"/>
					<rect class="cls-12" x="314.85" y="106.52" width="2.25" height="12.72" transform="matrix(0, -1, 1, 0, 202.73, 428.72)"/>
					<rect class="cls-11" x="309.51" y="111.5" width="13.14" height="2.25" transform="translate(632.03 225.61) rotate(-179.94)"/>
					<polygon class="cls-13" points="314.95 111.5 314.95 115.26 315.19 114.9 315.43 115.26 315.66 114.9 315.9 115.26 316.14 114.9 316.38 115.26 316.61 114.9 316.85 115.26 316.85 111.5 314.95 111.5"/>
				</g>
				<image width="394" height="755" transform="translate(141.98 27.91) scale(0.27 0.27)" xlink:href="Phone-frame.png"/>
				<g class="cls-14">
					<path class="cls-15" d="M239.68,252.41c0,.84,8.25,1.53,18.41,1.53s18.42-.69,18.42-1.53-8.25-1.54-18.42-1.54S239.68,251.56,239.68,252.41Z"/>
				</g>
				<g class="cls-14">
					<path class="cls-15" d="M69.14,271.62c0,.85,8.24,1.54,18.41,1.54s18.41-.69,18.41-1.54-8.24-1.54-18.41-1.54S69.14,270.77,69.14,271.62Z"/>
				</g>
				<rect class="cls-12" x="147.87" y="214.47" width="18.26" height="17.89" transform="translate(-0.25 0.18) rotate(-0.07)"/>
				<rect class="cls-12" x="147.87" y="214.47" width="18.26" height="3.24" transform="translate(-0.25 0.18) rotate(-0.07)"/>
				<rect class="cls-12" x="147.41" y="214.1" width="18.86" height="3.23" transform="translate(-0.25 0.18) rotate(-0.07)"/>
				<polygon class="cls-12" points="158.46 214.1 158.46 219.5 158.12 218.98 157.78 219.5 157.44 218.98 157.1 219.5 156.76 218.98 156.42 219.5 156.08 218.98 155.74 219.5 155.73 214.1 158.46 214.1"/>
				<rect class="cls-16" x="148.98" y="214.47" width="18.26" height="17.89" transform="translate(-0.25 0.18) rotate(-0.07)"/>
				<rect class="cls-12" x="148.97" y="214.47" width="18.26" height="3.24" transform="translate(-0.24 0.18) rotate(-0.06)"/>
				<rect class="cls-16" x="148.52" y="214.1" width="18.86" height="3.23" transform="translate(-0.24 0.18) rotate(-0.07)"/>
				<polygon class="cls-13" points="159.57 214.1 159.57 219.49 159.23 218.97 158.89 219.49 158.55 218.98 158.21 219.5 157.87 218.98 157.53 219.5 157.19 218.98 156.85 219.5 156.84 214.1 159.57 214.1"/>
				<rect class="cls-12" x="138.04" y="196.05" width="18.26" height="17.89" transform="translate(-0.23 0.17) rotate(-0.07)"/>
				<rect class="cls-12" x="138.03" y="196.05" width="18.26" height="3.24" transform="translate(-0.23 0.17) rotate(-0.07)"/>
				<rect class="cls-12" x="137.57" y="195.68" width="18.86" height="3.23" transform="translate(-0.22 0.17) rotate(-0.07)"/>
				<polygon class="cls-12" points="148.62 195.68 148.63 201.08 148.28 200.56 147.94 201.08 147.6 200.56 147.26 201.08 146.92 200.56 146.58 201.08 146.24 200.56 145.9 201.08 145.9 195.68 148.62 195.68"/>
				<rect class="cls-17" x="139.14" y="196.05" width="18.26" height="17.89" transform="translate(-0.23 0.17) rotate(-0.07)"/>
				<rect class="cls-12" x="139.14" y="196.05" width="18.26" height="3.24" transform="translate(-0.23 0.17) rotate(-0.07)"/>
				<rect class="cls-17" x="138.68" y="195.68" width="18.86" height="3.23" transform="translate(-0.22 0.17) rotate(-0.07)"/>
				<polygon class="cls-13" points="149.73 195.68 149.74 201.08 149.39 200.56 149.05 201.08 148.71 200.56 148.37 201.08 148.03 200.56 147.69 201.08 147.35 200.56 147.01 201.08 147 195.68 149.73 195.68"/>
				<polygon class="cls-18" points="211.19 251.78 139.19 234.09 131.11 228.8 222.72 251.6 211.19 251.78"/>
				<rect class="cls-8" x="75.91" y="161.11" width="82.81" height="71.77"/>
				<path class="cls-18" d="M11.46,215.9a5.61,5.61,0,1,1-7.55-2.44A5.61,5.61,0,0,1,11.46,215.9Z"/>
				<path class="cls-8" d="M71.1,171.33v2l-.24,26.14v.13l-31,.14-19.09.08.06-.08.1-.15.09-.12,18.83-26.37a2.94,2.94,0,0,1,2-1.21L68,168.79A2.82,2.82,0,0,1,71.1,171.33Z"/>
				<path class="cls-19" d="M71.09,172.14v1.15a3.1,3.1,0,0,0-.93-1.87,2.26,2.26,0,0,0-1.79-.56l-25.33,3a3.18,3.18,0,0,0-2.22,1.32L23.53,199.49l-.42-.06L40.51,175A3.55,3.55,0,0,1,43,173.51l25.31-3a2.6,2.6,0,0,1,2.1.66A2.54,2.54,0,0,1,71.09,172.14Z"/>
				<path class="cls-20" d="M67.41,175.37v24l-9.92,0H48.4l-5.88,0-10.66,0H30.08V196.4a4.26,4.26,0,0,1,.73-2.39l11.37-16.85A4,4,0,0,1,45,175.42l3.82-.45,11.64-1.39,4.33-.52a2.33,2.33,0,0,1,2.6,2.31Z"/>
				<path class="cls-8" d="M71.1,199.43V238.1H23.87c-4.6,0-18.09-.31-18.09-.31V218.24c0-9.22,6.15-16.91,14.29-18.54h0c.26-.06.51-.1.78-.14h0a17.45,17.45,0,0,1,2.41-.12Z"/>
				<path class="cls-18" d="M64.64,204.71H58.93a1.48,1.48,0,0,1-1.48-1.49h0a1.49,1.49,0,0,1,1.48-1.49h5.71a1.49,1.49,0,0,1,1.49,1.49h0A1.48,1.48,0,0,1,64.64,204.71Z"/>
				<path class="cls-21" d="M66.13,203.22a1.48,1.48,0,0,1-.43,1.06,1.54,1.54,0,0,1-1.06.43h-5.7a1.48,1.48,0,0,1-1.49-1.49,1.44,1.44,0,0,1,.09-.51,1.48,1.48,0,0,0,1.4,1h5.7a1.51,1.51,0,0,0,1.06-.44,1.46,1.46,0,0,0,.34-.54A1.44,1.44,0,0,1,66.13,203.22Z"/>
				<polygon class="cls-22" points="60.48 173.58 42.52 199.31 31.86 199.29 48.84 174.97 60.48 173.58"/>
				<path class="cls-22" d="M67.41,175.37v4.45L53.78,199.34H48.4l18-25.85A2.32,2.32,0,0,1,67.41,175.37Z"/>
				<polygon class="cls-22" points="67.41 185.15 67.41 199.38 57.49 199.35 67.41 185.15"/>
				<path class="cls-23" d="M7.19,236.54H4.37A4.38,4.38,0,0,1,0,232.16H0a4.37,4.37,0,0,1,4.37-4.37H7.19a4.38,4.38,0,0,1,4.38,4.37h0A4.38,4.38,0,0,1,7.19,236.54Z"/>
				<path class="cls-24" d="M118.47,232.16l2.44-3.37A13.88,13.88,0,0,1,132.17,223h0a13.87,13.87,0,0,1,11.17,5.64l2.59,3.49"/>
				<rect class="cls-18" x="3.99" y="232.16" width="158.21" height="5.95" rx="2.83"/>
				<path class="cls-18" d="M29.77,232.16l2.44-3.37A13.88,13.88,0,0,1,43.47,223h0a13.87,13.87,0,0,1,11.17,5.64l2.59,3.49"/>
				<circle class="cls-8" cx="43.5" cy="238.8" r="12.81"/>
				<circle class="cls-25" cx="43.5" cy="238.8" r="9.72" transform="translate(-156.12 100.7) rotate(-45)"/>
				<circle class="cls-8" cx="43.5" cy="238.8" r="7.06"/>
				<circle class="cls-26" cx="43.5" cy="238.8" r="6.47"/>
				<path class="cls-23" d="M47.52,238.8a4,4,0,1,1-4-4A4,4,0,0,1,47.52,238.8Z"/>
				<circle class="cls-8" cx="43.5" cy="238.8" r="1.31"/>
				<circle class="cls-27" cx="43.5" cy="238.8" r="1.65"/>
				<circle class="cls-28" cx="132.2" cy="238.8" r="12.81"/>
				<circle class="cls-25" cx="132.2" cy="238.8" r="9.72" transform="translate(-130.14 163.42) rotate(-45)"/>
				<circle class="cls-24" cx="132.2" cy="238.8" r="7.06"/>
				<circle class="cls-26" cx="132.2" cy="238.8" r="6.47"/>
				<path class="cls-29" d="M136.21,238.8a4,4,0,1,1-4-4A4,4,0,0,1,136.21,238.8Z"/>
				<path class="cls-30" d="M129.31,239.54a3,3,0,0,1-.09-.74,2.87,2.87,0,0,1,.21-1.1"/>
				<path class="cls-30" d="M131.61,241.72a3,3,0,0,1-1.78-1.1"/>
				<path class="cls-30" d="M134.16,241a2.86,2.86,0,0,1-1.37.68"/>
				<path class="cls-30" d="M135.18,238.8a3,3,0,0,1-.4,1.49"/>
				<path class="cls-24" d="M133.51,238.8a1.31,1.31,0,1,1-1.31-1.31A1.31,1.31,0,0,1,133.51,238.8Z"/>
				<circle class="cls-27" cx="132.2" cy="238.8" r="1.65"/>
				<rect class="cls-16" x="179.66" y="188.72" width="26.79" height="27.34" transform="translate(-49.71 341.3) rotate(-76.13)"/>
				<rect class="cls-12" x="193.27" y="178.07" width="4.84" height="27.34" transform="translate(-37.37 335.75) rotate(-76.13)"/>
				<rect class="cls-16" x="181.48" y="188.73" width="28.24" height="4.84" transform="translate(51.53 -41.32) rotate(13.87)"/>
				<polygon class="cls-13" points="198.53 189.38 196.59 197.22 196.28 196.34 195.6 196.97 195.29 196.1 194.61 196.73 194.3 195.85 193.62 196.49 193.31 195.61 192.63 196.24 194.57 188.4 198.53 189.38"/>
				<rect class="cls-16" x="171.63" y="214.81" width="26.79" height="27.34" transform="translate(-81.14 353.34) rotate(-76.13)"/>
				<rect class="cls-12" x="185.23" y="204.16" width="4.84" height="27.34" transform="translate(-68.8 347.79) rotate(-76.13)"/>
				<rect class="cls-16" x="173.45" y="214.82" width="28.24" height="4.84" transform="translate(57.55 -38.63) rotate(13.87)"/>
				<polygon class="cls-11" points="190.5 215.47 188.56 223.31 188.25 222.43 187.57 223.06 187.26 222.19 186.58 222.82 186.27 221.94 185.59 222.58 185.28 221.7 184.6 222.33 186.53 214.49 190.5 215.47"/>
				<rect class="cls-12" x="193.45" y="220.2" width="26.79" height="27.34" transform="translate(-69.78 378.62) rotate(-76.13)"/>
				<rect class="cls-12" x="207.05" y="209.55" width="4.84" height="27.34" transform="translate(-57.45 373.07) rotate(-76.13)"/>
				<rect class="cls-12" x="195.27" y="220.2" width="28.24" height="4.84" transform="translate(59.47 -43.7) rotate(13.87)"/>
				<polygon class="cls-12" points="212.32 220.85 210.38 228.7 210.07 227.82 209.39 228.45 209.08 227.58 208.4 228.21 208.09 227.33 207.41 227.96 207.1 227.09 206.42 227.72 208.36 219.88 212.32 220.85"/>
				<rect class="cls-11" x="195.06" y="220.59" width="26.79" height="27.34" transform="translate(-68.95 380.48) rotate(-76.13)"/>
				<rect class="cls-12" x="208.66" y="209.94" width="4.84" height="27.34" transform="translate(-56.61 374.94) rotate(-76.13)"/>
				<rect class="cls-11" x="196.88" y="220.6" width="28.24" height="4.84" transform="translate(59.61 -44.08) rotate(13.87)"/>
				<polygon class="cls-13" points="213.93 221.25 211.99 229.1 211.68 228.22 211 228.85 210.69 227.97 210.01 228.61 209.7 227.73 209.02 228.36 208.71 227.49 208.03 228.12 209.97 220.27 213.93 221.25"/>
				<g class="cls-31">
					<rect class="cls-32" x="87.55" y="170.78" width="6.84" height="52.43" rx="1.8"/>
					<rect class="cls-32" x="100.72" y="170.78" width="6.84" height="52.43" rx="1.8"/>
					<rect class="cls-32" x="113.9" y="170.78" width="6.84" height="52.43" rx="1.8"/>
					<rect class="cls-32" x="127.07" y="170.78" width="6.84" height="52.43" rx="1.8"/>
					<rect class="cls-32" x="140.24" y="170.78" width="6.84" height="52.43" rx="1.8"/>
				</g>
				<polygon class="cls-12" points="133.26 210.39 133.27 222.57 132.65 221.4 132.02 222.57 131.4 221.4 130.78 222.57 130.16 221.4 129.53 222.57 128.91 221.4 128.29 222.58 128.27 210.4 133.26 210.39"/>
				<rect class="cls-16" x="115.93" y="211.22" width="33.39" height="40.37" transform="translate(-0.26 0.15) rotate(-0.07)"/>
				<rect class="cls-12" x="115.91" y="211.22" width="33.39" height="7.3" transform="translate(-0.24 0.15) rotate(-0.07)"/>
				<rect class="cls-16" x="115.08" y="210.39" width="34.49" height="7.3" transform="translate(-0.24 0.15) rotate(-0.07)"/>
				<polygon class="cls-11" points="135.28 210.39 135.3 222.57 134.68 221.4 134.05 222.57 133.43 221.4 132.81 222.57 132.18 221.4 131.56 222.57 130.93 221.4 130.31 222.57 130.3 210.4 135.28 210.39"/>
				<rect class="cls-12" x="97.27" y="227.34" width="23.81" height="24.3" transform="translate(-130.45 348.4) rotate(-89.94)"/>
				<rect class="cls-12" x="107.03" y="217.59" width="4.31" height="24.3" transform="translate(-120.68 338.67) rotate(-89.93)"/>
				<rect class="cls-12" x="96.84" y="227.1" width="25.1" height="4.3" transform="translate(218.51 458.63) rotate(-179.93)"/>
				<polygon class="cls-12" points="107.24 227.1 107.23 234.28 107.68 233.59 108.14 234.28 108.59 233.59 109.04 234.28 109.5 233.59 109.95 234.28 110.41 233.59 110.86 234.28 110.86 227.1 107.24 227.1"/>
				<rect class="cls-11" x="95.79" y="227.34" width="23.81" height="24.3" transform="matrix(0, -1, 1, 0, -131.92, 346.92)"/>
				<rect class="cls-12" x="105.56" y="217.59" width="4.31" height="24.3" transform="translate(-122.15 337.19) rotate(-89.93)"/>
				<rect class="cls-11" x="95.36" y="227.1" width="25.1" height="4.3" transform="translate(215.56 458.63) rotate(-179.93)"/>
				<polygon class="cls-13" points="105.76 227.1 105.75 234.28 106.21 233.59 106.66 234.28 107.12 233.59 107.57 234.28 108.02 233.59 108.48 234.28 108.93 233.59 109.38 234.28 109.39 227.1 105.76 227.1"/>
				<path class="cls-19" d="M71.1,199.43v.27h-51c.26-.06.51-.1.78-.14h0l.09-.12Z"/>
				<g class="cls-14">
					<path class="cls-33" d="M34.52,194.82v6.07a.75.75,0,0,1-1.38.41l-1-1.65a3.73,3.73,0,0,1,.14-4.2l.81-1.11A.81.81,0,0,1,34.52,194.82Z"/>
					<g class="cls-34">
						<path class="cls-35" d="M29.22,202.46H26.69a1.55,1.55,0,0,1-1.54-1.55h0a1.54,1.54,0,0,1,1.54-1.55h2.53a1.55,1.55,0,0,1,1.55,1.55h0A1.56,1.56,0,0,1,29.22,202.46Z"/>
						<rect class="cls-35" x="28.97" y="197.88" width="5.22" height="1.49" transform="translate(-103.04 49.21) rotate(-32.98)"/>
						<path class="cls-36" d="M30.69,201.38a1.38,1.38,0,0,1-.38.62,1.53,1.53,0,0,1-1.09.46H26.7a1.55,1.55,0,0,1-1.55-1.55,1.51,1.51,0,0,1,.45-1.09,1.13,1.13,0,0,1,.27-.22,1.84,1.84,0,0,0-.07.47,1.54,1.54,0,0,0,1.55,1.55h2.52A1.54,1.54,0,0,0,30.69,201.38Z"/>
					</g>
				</g>
				<rect class="cls-37" x="29.44" y="197.88" width="5.22" height="1.49" transform="translate(-102.97 49.46) rotate(-32.98)"/>
				<path class="cls-37" d="M35,194.82v6.07a.75.75,0,0,1-1.38.41l-1-1.65a3.73,3.73,0,0,1,.15-4.2l.81-1.11A.82.82,0,0,1,35,194.82Z"/>
				<path class="cls-19" d="M35,201.06a.75.75,0,0,1-1.36.23l-1-1.64a3.73,3.73,0,0,1,.15-4.2l.81-1.11a.76.76,0,0,1,.53-.32l-.62.85a3.71,3.71,0,0,0-.14,4.2l1,1.64A.71.71,0,0,0,35,201.06Z"/>
				<path class="cls-37" d="M29.68,202.46H27.16a1.55,1.55,0,0,1-1.55-1.55h0a1.54,1.54,0,0,1,1.55-1.55h2.52a1.54,1.54,0,0,1,1.55,1.55h0A1.55,1.55,0,0,1,29.68,202.46Z"/>
				<path class="cls-19" d="M31.16,201.38a1.58,1.58,0,0,1-.38.62,1.56,1.56,0,0,1-1.1.46H27.16a1.56,1.56,0,0,1-1.55-1.55,1.52,1.52,0,0,1,.46-1.09,1.13,1.13,0,0,1,.27-.22,1.5,1.5,0,0,0-.08.47,1.55,1.55,0,0,0,1.55,1.55h2.52A1.55,1.55,0,0,0,31.16,201.38Z"/>
				<path class="cls-38" d="M257.73,184.64c-1.13,2.26-1.39,7-2.57,9.24a62.1,62.1,0,0,1-8.45,10.34c-.45-1.11-2.71.17-2-.81,2.12-3,6.18-6.56,6.73-11.35.36-3.16,2.7-10.52,2.7-10.52"/>
				<path class="cls-39" d="M268,253.31a27.83,27.83,0,0,0,3.61-1,23.62,23.62,0,0,0,2.39-.53c.4-.12-.33-2.55-1-2.63a1.84,1.84,0,0,1-.33.22,3.29,3.29,0,0,1-1.7.35,8.1,8.1,0,0,1-2,1.79,7.41,7.41,0,0,0-1.36,1.05C267.2,253,267.12,253.38,268,253.31Z"/>
				<path class="cls-40" d="M272.64,248.07a5,5,0,0,0,.43,1.22c-1.14,1.3-2.1.61-2.1.61v-.18l-.28-1.26Z"/>
				<path class="cls-39" d="M246.85,252.7a31,31,0,0,0,3.73.2,22.56,22.56,0,0,0,2.44.24c.42,0,.5-2.52-.08-2.79a1.59,1.59,0,0,1-.38.1,3.25,3.25,0,0,1-1.72-.2,8.24,8.24,0,0,1-2.44,1.07,6.71,6.71,0,0,0-1.62.56C246.22,252.18,246,252.5,246.85,252.7Z"/>
				<path class="cls-40" d="M252.94,249.21a4.78,4.78,0,0,0,0,1.29c-1.5.88-2.19-.09-2.19-.09l.06-.16L251,249Z"/>
				<path class="cls-39" d="M266.09,209.59s3.1-6.28-1.3-11.26a26.16,26.16,0,0,1-7.34,1.56,16.11,16.11,0,0,1-3.81-.33,82.9,82.9,0,0,0-1,12Z"/>
				<path class="cls-39" d="M256.36,231.11h0c0,6.32-2.19,14.41-3,19h-.24a14.17,14.17,0,0,1-2.61-.34l0-.49c.56-7.37.42-19.49.49-23.32a5.17,5.17,0,0,1,.07-.73c.47-2.77,3.33-2.23,4.38.42A9.41,9.41,0,0,1,256,227c.05.2.09.4.13.62h0a16.71,16.71,0,0,1,.24,2.08v.07c0,.21,0,.42,0,.62v.05C256.36,230.67,256.36,230.89,256.36,231.11Z"/>
				<path class="cls-39" d="M260.81,212.25c0,.07,0,.15-.07.23-.69,2.69-2.55,9.08-3.86,12.94v0h0c-.3.89-.57,1.65-.79,2.19h0a1.38,1.38,0,0,1-.76.67,2.38,2.38,0,0,1-.57.18c-1.48.31-3.61-.37-3.61-3.28a6.48,6.48,0,0,1,.08-1c.34-2.34,1.67-15.3,1.85-16.54s.52-3.07,1.2-3.26C257.65,203.44,262,207.59,260.81,212.25Z"/>
				<path class="cls-39" d="M256.22,226.54l.66-1.1h0a17.4,17.4,0,0,0-.55,4.27v.07c0,.2,0,.42,0,.62v.05a2.82,2.82,0,0,1,0,.65h0c-.13.54-.87-2.18-1-2.81l0-.13L256,227Z"/>
				<path class="cls-41" d="M260.74,212.48c-.69,2.69-2.55,9.08-3.86,12.94v0h0a17.4,17.4,0,0,0-.55,4.27v.07c0,.21,0,.42,0,.62v.05c0,.21,0,.43,0,.65h0c0,6.32-2.19,14.41-3,19h-.24s.89-7.51,1.89-12.7a20.81,20.81,0,0,0-.3-8.9c-.11-.41-.19-.64-.19-.64l1-2.22c1.09-2.91,1.54-9.81,1.54-9.81a35.38,35.38,0,0,1-1.81-11.15l1.87.38,3.12,4.27Z"/>
				<path class="cls-39" d="M266.54,226.13c-2.11-2.24-5.28-1.44-4,1.91,1.33,3.59,5.52,13.58,7.69,20.65l.15.46a13.86,13.86,0,0,0,2.79-.71c-1-4.56-1.38-12.34-3.61-17.89A14.61,14.61,0,0,0,266.54,226.13Z"/>
				<path class="cls-39" d="M255.24,204.68c-.1-5.22,6.15-1.37,9.15.54a4.44,4.44,0,0,1,1.73,3.65c.1,1.37.89,15.47,1.07,18,.39,5.8-4.43,2.34-4.81.71C261.44,223.52,255.3,207.52,255.24,204.68Z"/>
				<path class="cls-39" d="M267,223.31a13.94,13.94,0,0,0,2.13,6.31s-3.68-2-3.85-2.25a14.77,14.77,0,0,1-.57-3.26C264.78,223.83,267,223.31,267,223.31Z"/>
				<path class="cls-40" d="M251.89,164.31s-1,9.27,6,7.31c.35,0,2.49-.49,2.81-3.3a10.55,10.55,0,0,0-1.43-5.88c-.14-.09-4.55-.22-4.73-.22S251.89,164.31,251.89,164.31Z"/>
				<path class="cls-42" d="M257.77,166.67a1.7,1.7,0,0,1-.8-2c.27-1.47.09-1.56-1-.93s-6.46,3.56-5.53-3.3c.63.36,2.59.31,3-.54s5-3.16,6.73.23c1.2,0,2.59,1.42,2.45,4.14s-1.12,6.23-2.14,6.42-1.56-.62-1.51-1.92c0-.67,2-1.56.58-3.56A1.17,1.17,0,0,0,257.77,166.67Z"/>
				<path class="cls-40" d="M259.08,170.85s-.19,2,.44,2.79c-1.48,1.17-4.18.92-4.18.92s.81-.84,0-3.65S259.08,170.85,259.08,170.85Z"/>
				<path class="cls-43" d="M251.14,186a8.56,8.56,0,0,0,3.35,1.63l-.74-8.46L253,181.2Z"/>
				<path class="cls-44" d="M251.14,186a8.56,8.56,0,0,0,3.35,1.63l-.53-8.53-.21.07a17.64,17.64,0,0,0-.91,5.72c0,.2,0,1.13,0,1.52S251.78,186.15,251.14,186Z"/>
				<path class="cls-43" d="M252.63,199.31l.24.1a15,15,0,0,0,11.92-1.08l.74-.39s-1-2.2-1.17-8.63,0-7.15-1.1-10.33c-.95-2.78-4-6.2-4-6.2s-2.86,1.79-3.9,1.79c-1.3,3.18-2.67,7.29-2.18,10.27.32,2,0,7.77-.29,11.39C252.74,198,252.63,199.31,252.63,199.31Z"/>
				<path class="cls-44" d="M252.63,199.31l.24.1a49.23,49.23,0,0,0,6.81-6.09,12.1,12.1,0,0,0,1.61-5.15l.54,0a17.41,17.41,0,0,0-.55-8.38l-4.71,1.7-1.75,5.3a13.42,13.42,0,0,0,2.33.81,29.07,29.07,0,0,1-.79,4.76,38.39,38.39,0,0,1-3.49,3.89C252.74,198,252.63,199.31,252.63,199.31Z"/>
				<rect class="cls-11" x="235.28" y="189.14" width="16.1" height="16.43" transform="translate(45.7 440.46) rotate(-89.93)"/>
				<rect class="cls-12" x="241.88" y="182.55" width="2.91" height="16.43" transform="translate(52.3 433.88) rotate(-89.94)"/>
				<rect class="cls-11" x="234.99" y="188.98" width="16.97" height="2.91" transform="translate(486.73 381.14) rotate(-179.93)"/>
				<polygon class="cls-13" points="242.02 188.97 242.02 193.83 242.32 193.36 242.63 193.83 242.94 193.36 243.24 193.83 243.55 193.36 243.86 193.83 244.16 193.36 244.47 193.83 244.47 188.98 242.02 188.97"/>
				<path class="cls-40" d="M247.74,203.85a3.14,3.14,0,0,1-1.65,2,1.09,1.09,0,0,1-.69,0c-.32.14-1.34.24-1-.36a2.86,2.86,0,0,1-2.2.45c-.28,0-.26-.33.34-.49a3,3,0,0,0,1.89-1.55c-.13-.1-.23.07-.57.12s-.58-.11-.59-.28.45-.26.55-.32l1.13-.74a2.15,2.15,0,0,1,1.19-.42c.08,0,.89,0,.69.35"/>
				<path class="cls-40" d="M261.23,185.09c-1,2-3.64,8.68-4,9.45-1.6,3-9.71,9.54-9.71,9.54a1.64,1.64,0,0,1-1.35-1.6c2.32-1.57,6.71-8.39,7.62-9.2.58-.53,3.3-11.08,3.3-11.08"/>
				<path class="cls-43" d="M261.23,179.53a20.23,20.23,0,0,1,0,8,18.27,18.27,0,0,1-6.41-.78l1.15-5.9"/>
				<path class="cls-38" d="M88.19,207.79c1.43,1.68,2.63,5.67,4.09,7.32a53.91,53.91,0,0,0,9.34,7.06c.15-1,2.33-.42,1.55-1.1-2.43-2.15-6.62-4.32-8.07-8.28a75.61,75.61,0,0,0-4.47-8.39"/>
				<rect class="cls-16" x="96.9" y="208.77" width="14.38" height="14.09" transform="translate(-0.24 0.12) rotate(-0.07)"/>
				<rect class="cls-12" x="96.9" y="208.77" width="14.38" height="2.55" transform="translate(-0.24 0.12) rotate(-0.07)"/>
				<rect class="cls-16" x="96.54" y="208.48" width="14.86" height="2.55" transform="matrix(1, 0, 0, 1, -0.24, 0.12)"/>
				<polygon class="cls-11" points="105.24 208.48 105.25 212.73 104.98 212.32 104.71 212.73 104.44 212.32 104.17 212.73 103.91 212.32 103.64 212.73 103.37 212.32 103.1 212.73 103.09 208.48 105.24 208.48"/>
				<path class="cls-39" d="M82.1,264.16a16.44,16.44,0,0,0-.36,3.19,4.89,4.89,0,0,0,1.37,1.75c.63.39,2,.83,2.13,1a.43.43,0,0,1-.06.58,2.88,2.88,0,0,1-2,.55c-1.87-.27-2.08-1.09-3.17-1.19-.19,0-.53.27-1,0a1.23,1.23,0,0,1-.76-1.18,5.35,5.35,0,0,1,.78-2,16,16,0,0,0,.45-3.22"/>
				<path class="cls-39" d="M86.3,216.91l-7.43.18s-2.88,4.12-1.66,8a34.31,34.31,0,0,0,1.63,3.74c.3.85,2.52,12.84,2.4,13.72a61.12,61.12,0,0,0-1.44,6c-.4,3.13-.07,13.28-.38,16A4.37,4.37,0,0,0,82,265c1-7.81,3.55-18.29,3.88-22.19A250.44,250.44,0,0,0,86.3,216.91Z"/>
				<path class="cls-39" d="M85.61,229.76s-5.16-10.95-6.16-8.54a5,5,0,0,0,1.49,6.14c1.23,2,4,13.15,4.14,15.52.08,1.23,0,2.47.06,3.7,0,.09,0,.28.07.37.33-1.84.55-3.45.63-4.43a117.51,117.51,0,0,0-.09-12.77Z"/>
				<path class="cls-39" d="M85.32,270.81c.13-.24.16-.59,0-.68a13,13,0,0,0-1.17-.67c-.37-.15-1-.29-.74-.18s-.16.52-.5.51c-1.17-.05-2-.8-2.72-1a2.3,2.3,0,0,1-1.44-1.53,4.34,4.34,0,0,0-.65,1.33,2.2,2.2,0,0,0-.12,1,2.63,2.63,0,0,1,.13,1,1.8,1.8,0,0,0,.69.23,2.64,2.64,0,0,0,.75,0l.06-.6a2.65,2.65,0,0,1,.6,0,3.32,3.32,0,0,1,.92.4c.13.16.25.45.43.53a3.75,3.75,0,0,0,1.54.35C84.38,271.59,85.1,271.21,85.32,270.81Z"/>
				<path class="cls-39" d="M88.27,265.35c.81,0,1.52,0,2.34,0a8.39,8.39,0,0,0,.24,2.61,4,4,0,0,0,1.64,1.53c.7.29,2.18.51,2.32.66a.42.42,0,0,1,0,.59,3.14,3.14,0,0,1-1.95.83c-2,0-2.28-.76-3.42-.7-.2,0-.51.34-1.09.17a1.22,1.22,0,0,1-.93-1c0-.78.57-1.52.8-2.14C88.27,267.79,88.25,265.54,88.27,265.35Z"/>
				<path class="cls-39" d="M80.81,216l7.38,1.93c2.26,9,3.81,19,3.61,24.67-.11,3.24-1,16.79-1.08,22.34,0,.13,0,.3,0,.48l-2.44,0a1.55,1.55,0,0,1,0-.21c-.29-3.39-1.72-12.29-1.7-15.25a27.47,27.47,0,0,1,.94-6.63s-5-14.56-5.37-15.47-2.28-1.24-2.74-3.57C78.59,220.21,80.81,216,80.81,216Z"/>
				<path class="cls-39" d="M95,270.9c.1-.26.08-.61-.06-.67a10.42,10.42,0,0,0-1.3-.49c-.4-.1-1-.15-.78-.07s-.1.54-.45.57c-1.22.14-2.22-.48-2.93-.53A1.85,1.85,0,0,1,88,268.42a4.5,4.5,0,0,0-.71,1.42,2,2,0,0,0,0,1,2.28,2.28,0,0,1,.25.93,2,2,0,0,0,.75.13,3.47,3.47,0,0,0,.77-.12v-.61a2.85,2.85,0,0,1,.63-.05,2,2,0,0,1,1,.35c.17.12.35.33.54.38a4.26,4.26,0,0,0,1.6.1C94.11,271.82,94.81,271.33,95,270.9Z"/>
				<path class="cls-43" d="M87.6,197.23c.51.17.33,1.38.84,1.54s1.09-.05,1.43.13c1.79,1,1.36,3,1.6,5.5.77,1.9,1,3.63.4,4.7-.73,1.34-1.52,1.72-2.43,2.82-.68.83-.88,2.52-1,4.34,0,.31.25.86.17,1.16-.13.58-1,.77-2,.8-2.27.07-5.72-.72-6.73-.67s-1.86-.41-1.78-1c.07-.39.46-.56.61-1.32.32-1.68.54-5.87.8-7.3a39.7,39.7,0,0,1,2.57-9.72"/>
				<g class="cls-34">
					<path class="cls-3" d="M92.85,205.9a16.67,16.67,0,0,0-2.09-2.68l-1.93.9c.93,1.74,1.12,3.8,1.56,5.71a4.49,4.49,0,0,0,1.12-.12c.18-.31.11-.16.36-.61A7.75,7.75,0,0,0,92.85,205.9Z"/>
				</g>
				<path class="cls-45" d="M94,192.25a9.9,9.9,0,0,0,.31-2.51c-.08-1.44-.28-3.53-2.69-4.37s-5-.29-5.81,1.45-.56,4.35-.66,5.75a8.66,8.66,0,0,1-1.11,3.09l5.19,2.17a9.47,9.47,0,0,1,1.17-2.06c.34-.23.47.64,1.62.54.49-.05,1-.93,1.38-2a.42.42,0,0,0,0-.1,6,6,0,0,0,.61-.06c.36-.11.33-.27.25-.49A5.92,5.92,0,0,1,94,192.25Z"/>
				<path class="cls-45" d="M101.48,221.76a2.79,2.79,0,0,0,1.45,1.72.91.91,0,0,0,.61,0c.28.12,1.17.21.83-.31a2.55,2.55,0,0,0,1.93.4c.24,0,.23-.3-.29-.43a2.62,2.62,0,0,1-1.66-1.37c.11-.08.2.07.5.12s.5-.11.51-.25-.39-.23-.48-.29l-1-.64a1.93,1.93,0,0,0-1-.37c-.07,0-.78.05-.6.3"/>
				<path class="cls-45" d="M89.68,205.33c.87,1.76,3.18,7.6,3.53,8.28,1.4,2.64,8.5,8.35,8.5,8.35a1.42,1.42,0,0,0,1.18-1.4c-2-1.38-5.87-7.35-6.66-8.06-.52-.46-2.89-9.7-2.89-9.7"/>
				<path class="cls-43" d="M91.54,198.78c-2-.73-3.85-.71-5.37-2.2-1.51,1.19,1.93,7.94,2.76,8.11s2,3.91,2.21,4.42a4.56,4.56,0,0,0,3.7-1.59C93.69,204.12,93.45,199.49,91.54,198.78Z"/>
				<path class="cls-42" d="M90,199c-.14-.5-.53-.91-.63-1.43a2.4,2.4,0,0,1,.28-1.55,2.87,2.87,0,0,1,.66-.64c1.07-.86,1.44-1.57,1.07-2.84a3.45,3.45,0,0,1-.2-1.27c0-.39.11-.8.53-.85a.49.49,0,0,1,.59.27c.07.17-.06,1.41.34.71a2.83,2.83,0,0,0,.7-2.27c0-.19-.07-.93,0-1a2.93,2.93,0,0,1,1,2.06c.54-.23.68-1,.68-1.3a3.61,3.61,0,0,0-.3-1.55,4.56,4.56,0,0,0-2.8-2.71,6.42,6.42,0,0,0-2.55-.65c-.89,0-2,.31-2.23,1-1.22-.31-1.91.77-2.2,1.16a6.2,6.2,0,0,0-.93,1.83c-.3,1-.36,2-.6,3a4.32,4.32,0,0,1-1.14,2.2c-.59.55-1.43.61-2.07,1.11A3.23,3.23,0,0,0,79,196.91c0,1,.6,2.15,0,3.1-.2.31-.48.56-.68.88a2.36,2.36,0,0,0,.07,2.43,4.29,4.29,0,0,0,2.13,1.78,6.1,6.1,0,0,0,2.28.29c1.49-.09,2.74,0,4.3-1.38.89-.77.31-1.2,1.16-2,.48-.46,1.15-.7,1.5-1.3A2.3,2.3,0,0,0,90,199S90,199,90,199Z"/>
				<circle class="cls-46" cx="75.91" cy="97.39" r="2.62"/>
				<circle class="cls-46" cx="143.66" cy="3.13" r="2.62"/>
				<path class="cls-47" d="M285.8,9.59a1.24,1.24,0,1,1-1.23-1.24A1.23,1.23,0,0,1,285.8,9.59Z"/>
				<path class="cls-47" d="M33.1,113.09a1.24,1.24,0,1,1-1.24-1.24A1.23,1.23,0,0,1,33.1,113.09Z"/>
				<circle class="cls-46" cx="289.16" cy="63.97" r="2.62"/>
				<circle class="cls-46" cx="346.01" cy="152.79" r="2.62"/>
				<line class="cls-48" x1="223.33" y1="8.89" x2="223.33" y2="12.75"/>
				<line class="cls-48" x1="225.26" y1="10.82" x2="221.4" y2="10.82"/>
				<line class="cls-48" x1="333.33" y1="43.2" x2="333.33" y2="47.06"/>
				<line class="cls-48" x1="335.26" y1="45.13" x2="331.4" y2="45.13"/>
				<line class="cls-48" x1="346.01" y1="186.96" x2="346.01" y2="190.82"/>
				<line class="cls-48" x1="347.94" y1="188.89" x2="344.08" y2="188.89"/>
				<line class="cls-48" x1="47.1" y1="52.11" x2="47.1" y2="55.96"/>
				<line class="cls-48" x1="49.03" y1="54.04" x2="45.17" y2="54.04"/>
				<line class="cls-48" x1="66.13" y1="150.94" x2="66.13" y2="154.8"/>
				<line class="cls-48" x1="68.06" y1="152.87" x2="64.2" y2="152.87"/>
				<line class="cls-48" x1="134.78" y1="48.12" x2="134.78" y2="51.98"/>
				<line class="cls-48" x1="136.71" y1="50.05" x2="132.85" y2="50.05"/>
				<polygon class="cls-12" points="290.61 204.74 290.6 212.7 291.01 211.94 291.42 212.7 291.82 211.94 292.23 212.7 292.64 211.94 293.05 212.7 293.45 211.94 293.86 212.7 293.87 204.74 290.61 204.74"/>
				<rect class="cls-16" x="277.82" y="207.56" width="26.41" height="21.85" transform="translate(72.21 509.25) rotate(-89.93)"/>
				<rect class="cls-12" x="288.64" y="196.74" width="4.78" height="21.85" transform="translate(83.04 498.46) rotate(-89.94)"/>
				<rect class="cls-16" x="279.93" y="204.74" width="22.57" height="4.77" transform="translate(582.19 414.58) rotate(-179.93)"/>
				<polygon class="cls-11" points="289.28 204.73 289.27 212.7 289.68 211.93 290.09 212.7 290.5 211.93 290.9 212.7 291.31 211.94 291.72 212.7 292.13 211.94 292.53 212.7 292.54 204.74 289.28 204.73"/>
				<rect class="cls-12" x="298.41" y="216.14" width="15.9" height="15.58" transform="translate(-0.25 0.35) rotate(-0.07)"/>
				<rect class="cls-12" x="298.41" y="216.14" width="15.9" height="2.82" transform="matrix(1, 0, 0, 1, -0.25, 0.35)"/>
				<rect class="cls-12" x="298.01" y="215.83" width="16.42" height="2.82" transform="translate(-0.25 0.35) rotate(-0.07)"/>
				<polygon class="cls-12" points="307.63 215.82 307.64 220.52 307.34 220.07 307.04 220.52 306.75 220.07 306.45 220.52 306.15 220.07 305.86 220.52 305.56 220.07 305.26 220.53 305.26 215.83 307.63 215.82"/>
				<rect class="cls-11" x="299.38" y="216.14" width="15.9" height="15.58" transform="translate(-0.25 0.35) rotate(-0.07)"/>
				<rect class="cls-12" x="299.37" y="216.14" width="15.9" height="2.82" transform="matrix(1, 0, 0, 1, -0.25, 0.35)"/>
				<rect class="cls-11" x="298.98" y="215.82" width="16.42" height="2.82" transform="translate(-0.25 0.35) rotate(-0.07)"/>
				<polygon class="cls-13" points="308.6 215.82 308.6 220.52 308.3 220.07 308.01 220.52 307.71 220.07 307.41 220.52 307.12 220.07 306.82 220.52 306.52 220.07 306.23 220.52 306.22 215.82 308.6 215.82"/>
				<g class="cls-49">
					<rect class="cls-50" x="59.7" y="12.29" width="2.45" height="7.81"/>
					<rect class="cls-50" x="115.93" y="12.29" width="2.45" height="7.81"/>
					<rect class="cls-18" x="80.47" y="12.61" width="16.18" height="6.85" rx="3.42"/>
					<rect class="cls-18" x="62.79" y="19.46" width="52.5" height="1.58"/>
					<path class="cls-18" d="M60.92,30.66h0a3.84,3.84,0,0,1-3.84-3.84V21.94a3.84,3.84,0,0,1,3.84-3.84h0a3.84,3.84,0,0,1,3.84,3.84v4.88A3.84,3.84,0,0,1,60.92,30.66Z"/>
					<rect class="cls-8" x="45.66" y="10.44" width="30.51" height="0.59"/>
					<path class="cls-18" d="M117.16,30.66h0a3.84,3.84,0,0,1-3.84-3.84V21.94a3.84,3.84,0,0,1,3.84-3.84h0A3.84,3.84,0,0,1,121,21.94v4.88A3.84,3.84,0,0,1,117.16,30.66Z"/>
					<rect class="cls-8" x="101.9" y="10.44" width="30.51" height="0.59"/>
					<rect class="cls-18" x="86" y="34.62" width="5.21" height="2.79"/>
					<rect class="cls-16" x="74.84" y="40.24" width="27.03" height="27.59" transform="translate(34.22 142.33) rotate(-89.93)"/>
					<rect class="cls-12" x="85.92" y="29.17" width="4.89" height="27.59" transform="matrix(0, -1, 1, 0, 45.3, 131.28)"/>
					<rect class="cls-16" x="74.35" y="39.97" width="28.5" height="4.89" transform="translate(177.15 84.92) rotate(-179.93)"/>
					<polygon class="cls-11" points="86.16 39.96 86.15 48.12 86.66 47.33 87.18 48.12 87.69 47.33 88.21 48.12 88.72 47.34 89.24 48.12 89.75 47.34 90.27 48.12 90.28 39.97 86.16 39.96"/>
					<polyline class="cls-51" points="76.91 67.74 72.68 67.74 72.68 37.41 104.52 37.41 104.52 67.57 99.46 67.57"/>
					<rect class="cls-50" x="77.53" y="16.01" width="23.03" height="19.24" rx="4.55"/>
					<rect class="cls-52" x="80.09" y="18.15" width="17.89" height="14.95" rx="4.12"/>
					<rect class="cls-18" x="60.34" y="11.03" width="1.17" height="1.47"/>
					<path class="cls-8" d="M62.23,10.83c0,.72-2.61.72-2.61,0a1.31,1.31,0,1,1,2.61,0Z"/>
					<rect class="cls-18" x="116.58" y="11.03" width="1.17" height="1.47"/>
					<path class="cls-8" d="M118.47,10.83c0,.72-2.62.72-2.62,0a1.31,1.31,0,1,1,2.62,0Z"/>
				</g>
			</g>
		</g>
	</g>
</svg>