<?xml version="1.0" encoding="UTF-8"?> <svg xmlns="http://www.w3.org/2000/svg" xmlns:v="https://vecta.io/nano" width="64" height="64" fill="none"><path d="M63.136 21.02l-30-20.667c-.683-.47-1.584-.47-2.27 0l-30 20.667c-.544.373-.867.99-.867 1.648v38.667A2.67 2.67 0 0 0 2.667 64H8V32a2.67 2.67 0 0 1 2.667-2.667h42.667A2.67 2.67 0 0 1 56 32v32h5.333A2.67 2.67 0 0 0 64 61.333V22.667a2 2 0 0 0-.864-1.648z" fill="#2a8b00"></path><path d="M24.667 49.762v1.964c0 1.084-.896 1.964-2 1.964s-2-.88-2-1.964v-1.964H16c-.736 0-1.333.587-1.333 1.3v10.476c0 .723.597 1.3 1.333 1.3h13.333c.736 0 1.333-.587 1.333-1.31V51.072c0-.723-.597-1.31-1.333-1.31h-4.667z" fill="#ffc641"></path><path d="M19.782 49.76H24.7v5.342h-4.908V49.76z" fill="#e18400"></path><path d="M43.335 49.762v1.964c0 1.084-.896 1.964-2 1.964s-2-.88-2-1.964v-1.964h-4.667c-.736 0-1.333.587-1.333 1.3v10.476c0 .723.597 1.3 1.333 1.3H48c.736 0 1.333-.587 1.333-1.31V51.072c0-.723-.597-1.31-1.333-1.31h-4.667z" fill="#ffc641"></path><path d="M38.4 49.772h5.142v5.855H38.4v-5.855z" fill="#e18400"></path><path d="M34 34.048v1.964c0 1.084-.896 1.964-2 1.964s-2-.88-2-1.964v-1.964h-4.667c-.736 0-1.333.587-1.333 1.3v10.476c0 .723.597 1.3 1.333 1.3h13.333c.736 0 1.333-.587 1.333-1.31V35.357c0-.723-.597-1.31-1.333-1.31H34z" fill="#ffc641"></path><path d="M30 34.04h4.908v4.817H30V34.04z" fill="#e18400"></path></svg> 