<?xml version="1.0" encoding="UTF-8"?> <svg xmlns="http://www.w3.org/2000/svg" xmlns:v="https://vecta.io/nano" width="64" height="64" fill="none"><path d="M37.804 18.033H19.266l-2.98 6.4-.997-2.306c.636-.355 1.085-1.01 1.085-1.79a2.08 2.08 0 0 0-2.076-2.076h-.33a2.08 2.08 0 0 0-2.076 2.076c0 .78.45 1.438 1.085 1.79l-.995 2.3-1.416-3.03-1.568-3.363H3.544c-1.958 0-3.544 1.6-3.544 3.544v18.955c0 1.96 1.586 3.544 3.544 3.544a3.5 3.5 0 0 0 2.489-1.029l1.02 18.21c.076 1.412 1.294 2.56 2.702 2.56H18.5c1.408 0 2.627-1.15 2.703-2.56l2.022-36.136h14.57c1.956 0 3.544-1.6 3.544-3.544a3.55 3.55 0 0 0-3.544-3.546z" fill="#2a8b00"></path><path d="M14.132 16.328c3.9 0 7.044-5.096 7.044-9.605S18.023 0 14.132 0 7.088 2.216 7.088 6.723s3.157 9.605 7.044 9.605zm48.468 12H27.628c-.84 0-1.4.62-1.4 1.55v32.57c0 .93.56 1.55 1.4 1.55H62.6c.84 0 1.4-.62 1.4-1.55V29.88c0-.93-.56-1.55-1.4-1.55z" fill="#ffc641"></path><path d="M52.46 28.328H38.82v14.688h13.64V28.328zm-14.7 28.328h15.738v4.197H37.77z" fill="#e18400"></path></svg> 