<svg id="Layer_1" data-name="Layer 1" xmlns="http://www.w3.org/2000/svg" xmlns:xlink="http://www.w3.org/1999/xlink" viewBox="0 0 2199.87 1786.44"><defs><style>.cls-1{fill:#c2c2f2;}.cls-2{fill:#fff;}.cls-3{fill:url(#linear-gradient);}.cls-4{fill:#323657;}.cls-5{fill:#d10513;}.cls-6{fill:url(#linear-gradient-2);}.cls-7{fill:#3a7d8d;}.cls-8{fill:#deccc5;}.cls-9{fill:url(#linear-gradient-3);}.cls-10{fill:#8187e3;}.cls-11{fill:#c5d2de;}.cls-12{fill:url(#linear-gradient-4);}.cls-13{fill:#292929;}.cls-14{fill:#272a45;}.cls-15{fill:#51578f;}.cls-16{fill:#e2d2ca;}.cls-17{fill:#706865;}.cls-18{fill:#ccbdb7;}.cls-19{fill:url(#linear-gradient-5);}.cls-20{fill:#b59074;}.cls-21{fill:#ead8cf;}.cls-22{fill:#da9b5b;}.cls-23{fill:#424773;}.cls-24{fill:#292c47;}.cls-25{fill:#eea886;}.cls-26{fill:#3a3f47;}.cls-27{fill:#736a67;}.cls-28{fill:#5e5854;}.cls-29{fill:#bfb2ac;}.cls-30{fill:url(#linear-gradient-6);}.cls-31{fill:#f5f7ff;}.cls-32{fill:#918783;}.cls-33{fill:#dfe1e8;}.cls-34{fill:#36572b;}.cls-35{fill:#45613c;}.cls-36{fill:#925e2e;}.cls-37{fill:#48753a;}.cls-38{fill:#538742;}.cls-39{fill:#877670;}.cls-40{fill:#876455;}.cls-41{fill:#715346;}.cls-42{fill:#9e633a;}.cls-43{fill:#97a43c;}.cls-44{fill:#82522f;}.cls-45{fill:#c67b47;}.cls-46{fill:#8382e6;}.cls-47{fill:#434343;}.cls-48{fill:#a77860;}.cls-49{fill:#6e6760;}.cls-50{fill:#c98462;}.cls-51{fill:#cfbfb8;}.cls-52{fill:#25354d;}.cls-53{fill:#2f4563;}.cls-54{fill:#eddad3;}.cls-55{fill:#c4c4c4;}.cls-56{fill:#de9673;}.cls-57{fill:#1e2d40;}.cls-58{fill:#3c4145;}.cls-59{fill:#eea987;}.cls-60{fill:#23344a;}.cls-61{fill:#464240;}.cls-62{fill:#ffb755;}</style><linearGradient id="linear-gradient" x1="565.27" y1="695.67" x2="1677" y2="695.67" gradientUnits="userSpaceOnUse"><stop offset="0" stop-color="#404b61"/><stop offset="0.49" stop-color="#3c4860"/><stop offset="1" stop-color="#2f3e5c"/></linearGradient><linearGradient id="linear-gradient-2" x1="1748.22" y1="1484.07" x2="1748.22" y2="1199.78" gradientUnits="userSpaceOnUse"><stop offset="0" stop-color="#3076a1"/><stop offset="1" stop-color="#639c38"/></linearGradient><linearGradient id="linear-gradient-3" x1="-10410.59" y1="709.33" x2="-9794.37" y2="709.33" gradientTransform="matrix(1, 0, 0, -1, 11402.9, 1418.66)" gradientUnits="userSpaceOnUse"><stop offset="0" stop-color="#7f90de"/><stop offset="1" stop-color="#8f55ff"/></linearGradient><linearGradient id="linear-gradient-4" x1="1837.15" y1="1157.51" x2="1837.15" y2="990.51" xlink:href="#linear-gradient-2"/><linearGradient id="linear-gradient-5" x1="391.93" y1="1129.23" x2="391.93" y2="1188.03" gradientUnits="userSpaceOnUse"><stop offset="0.08" stop-color="#bcd7e8"/><stop offset="1" stop-color="#e6e7e8"/></linearGradient><linearGradient id="linear-gradient-6" x1="-3815.79" y1="503.63" x2="-3499.36" y2="503.63" gradientTransform="matrix(-1, 0, 0, 1, -3265.65, 508.92)" xlink:href="#linear-gradient-5"/></defs><title>online-service</title><polygon class="cls-1" points="1560.36 1536.65 1119.17 1536.65 677.99 1536.65 614.88 1772.52 1119.17 1772.52 1623.47 1772.52 1560.36 1536.65"/><path class="cls-2" d="M267.62,1090.38h57.73c2.42,0,4.24,1.88,3.79,3.9l-5.6,25.11a3.74,3.74,0,0,1-3.78,2.68H261c-2.46,0-4.29-2-3.76-4l6.58-25.11A3.77,3.77,0,0,1,267.62,1090.38Z" transform="translate(417.32 508.92)"/><polygon class="cls-2" points="769.15 1599.3 812.79 1599.3 806.98 1630.98 762.51 1630.98 769.15 1599.3"/><polygon class="cls-2" points="834.62 1599.3 878.26 1599.3 873.7 1630.98 829.21 1631.03 834.62 1599.3"/><polygon class="cls-2" points="900.09 1599.3 943.73 1599.3 940.41 1630.98 895.93 1630.98 900.09 1599.3"/><polygon class="cls-2" points="965.55 1599.3 1009.2 1599.3 1007.13 1630.98 962.65 1630.98 965.55 1599.3"/><polygon class="cls-2" points="1031.02 1599.3 1074.67 1599.3 1073.84 1630.98 1029.36 1631.03 1031.02 1599.3"/><polygon class="cls-2" points="1554.92 1599.3 1489.45 1599.3 1496.51 1630.98 1563.22 1630.98 1554.92 1599.3"/><polygon class="cls-2" points="1467.63 1599.3 1423.98 1599.3 1429.79 1630.98 1474.27 1630.98 1467.63 1599.3"/><polygon class="cls-2" points="1402.16 1599.3 1358.51 1599.3 1363.08 1630.98 1407.56 1631.03 1402.16 1599.3"/><polygon class="cls-2" points="1336.69 1599.3 1293.05 1599.3 1296.37 1630.98 1340.84 1630.98 1336.69 1599.3"/><polygon class="cls-2" points="1271.22 1599.3 1227.58 1599.3 1229.65 1630.98 1274.13 1630.98 1271.22 1599.3"/><polygon class="cls-2" points="1205.75 1599.3 1162.11 1599.3 1162.94 1630.98 1207.41 1631.03 1205.75 1599.3"/><polygon class="cls-2" points="1096.49 1599.3 1140.14 1599.3 1140.86 1630.98 1096.49 1630.98 1096.49 1599.3"/><polygon class="cls-2" points="665.74 1654.59 756.94 1654.59 751.74 1687.27 658.81 1687.27 665.74 1654.59"/><polygon class="cls-2" points="1569.16 1654.59 1456.43 1654.59 1462.85 1687.27 1577.72 1687.27 1569.16 1654.59"/><polygon class="cls-2" points="1433.88 1654.59 1388.78 1654.59 1393.92 1687.27 1439.87 1687.27 1433.88 1654.59"/><polygon class="cls-2" points="1366.24 1654.59 1321.14 1654.59 1324.99 1687.27 1370.95 1687.27 1366.24 1654.59"/><polygon class="cls-2" points="1298.6 1654.59 1253.5 1654.59 1256.07 1687.27 1302.02 1687.27 1298.6 1654.59"/><polygon class="cls-2" points="1230.95 1654.59 1185.86 1654.59 1187.14 1687.27 1233.09 1687.27 1230.95 1654.59"/><polygon class="cls-2" points="652.11 1712.85 745.35 1712.85 738.55 1745.31 643.61 1745.31 652.11 1712.85"/><polygon class="cls-2" points="768.66 1712.85 815.28 1712.85 809.75 1745.31 762.28 1745.31 768.66 1712.85"/><polygon class="cls-2" points="838.59 1712.85 885.21 1712.85 1188.22 1712.85 1189.52 1745.31 833.49 1745.31 838.59 1712.85"/><polygon class="cls-2" points="1211.56 1712.85 1258.18 1712.85 1260.73 1745.31 1213.26 1745.31 1211.56 1712.85"/><polygon class="cls-2" points="1281.49 1712.85 1328.11 1712.85 1331.93 1745.31 1284.46 1745.31 1281.49 1712.85"/><polygon class="cls-2" points="1351.42 1712.85 1398.04 1712.85 1403.14 1745.31 1355.67 1745.31 1351.42 1712.85"/><polygon class="cls-2" points="1421.35 1712.85 1467.97 1712.85 1474.35 1745.31 1426.88 1745.31 1421.35 1712.85"/><polygon class="cls-2" points="1491.28 1712.85 1584.52 1712.85 1593.02 1745.31 1498.08 1745.31 1491.28 1712.85"/><polygon class="cls-2" points="1163.41 1654.59 1118.68 1654.59 1118.68 1687.27 1164.27 1687.27 1163.41 1654.59"/><polygon class="cls-2" points="1095.77 1654.59 1050.67 1654.59 1049.39 1687.27 1095.34 1687.27 1095.77 1654.59"/><polygon class="cls-2" points="1028.13 1654.59 983.03 1654.59 980.46 1687.27 1026.41 1687.27 1028.13 1654.59"/><polygon class="cls-2" points="960.48 1654.59 915.39 1654.59 911.54 1687.27 957.49 1687.27 960.48 1654.59"/><polygon class="cls-2" points="892.84 1654.59 847.75 1654.59 842.61 1687.27 888.56 1687.27 892.84 1654.59"/><polygon class="cls-2" points="825.2 1654.59 780.11 1654.59 773.69 1687.27 819.64 1687.27 825.2 1654.59"/><polygon class="cls-2" points="687.07 1579.39 694.48 1551.1 715.67 1551.1 708.75 1579.39 687.07 1579.39"/><polygon class="cls-2" points="736.86 1551.1 779.25 1551.1 773.32 1579.39 730.19 1579.39 736.86 1551.1"/><polygon class="cls-2" points="800.44 1551.1 842.82 1551.1 838.01 1579.39 794.88 1579.39 800.44 1551.1"/><polygon class="cls-2" points="864.01 1551.1 906.4 1551.1 902.69 1579.39 859.57 1579.39 864.01 1551.1"/><polygon class="cls-2" points="927.59 1551.1 969.97 1551.1 967.38 1579.39 924.25 1579.39 927.59 1551.1"/><polygon class="cls-2" points="991.16 1551.1 1033.55 1551.1 1032.07 1579.39 988.94 1579.39 991.16 1551.1"/><polygon class="cls-2" points="1054.74 1551.1 1097.12 1551.1 1096.75 1579.39 1053.63 1579.39 1054.74 1551.1"/><polygon class="cls-2" points="1118.32 1551.1 1160.7 1551.1 1161.44 1579.39 1118.32 1579.39 1118.32 1551.1"/><polygon class="cls-2" points="1181.89 1551.1 1224.27 1551.1 1226.13 1579.39 1183 1579.39 1181.89 1551.1"/><polygon class="cls-2" points="1309.04 1551.1 1351.42 1551.1 1355.5 1579.39 1312.38 1579.39 1309.04 1551.1"/><polygon class="cls-2" points="1372.62 1551.1 1415 1551.1 1420.19 1579.39 1377.06 1579.39 1372.62 1551.1"/><polygon class="cls-2" points="1436.19 1551.1 1478.58 1551.1 1484.87 1579.39 1441.75 1579.39 1436.19 1551.1"/><polygon class="cls-2" points="1499.77 1551.1 1542.15 1551.1 1549.56 1579.39 1506.44 1579.39 1499.77 1551.1"/><rect class="cls-1" x="614.88" y="1772.52" width="1008.59" height="13.92"/><rect class="cls-1" x="635.47" y="474.07" width="138.81" height="421.6" transform="translate(1827.07 1878.66) rotate(180)"/><rect class="cls-1" x="105.58" y="-179.88" width="1198.6" height="845.55" rx="42.19" transform="translate(1827.07 994.71) rotate(180)"/><rect class="cls-3" x="565.27" y="370.44" width="1111.73" height="650.46"/><rect class="cls-1" x="809.96" y="1388.68" width="624.47" height="31.82"/><path class="cls-4" d="M196.06,442.48H196C196.24,442.58,196.27,442.59,196.06,442.48Z" transform="translate(417.32 508.92)"/><polygon class="cls-5" points="525.86 0 776.6 0 776.6 181.74 776.6 220.02 738.32 181.74 525.86 181.74 525.86 0"/><rect class="cls-2" x="585.04" y="50.81" width="132.39" height="13.75" rx="4.39"/><rect class="cls-2" x="585.04" y="77.94" width="119.59" height="13.74" rx="4.39"/><rect class="cls-2" x="585.04" y="105.79" width="91.88" height="13.75" rx="4.39"/><path class="cls-6" d="M1533.62,1283.58h461.19a0,0,0,0,1,0,0v170.56a0,0,0,0,1,0,0H1533.62a32,32,0,0,1-32-32V1315.58A32,32,0,0,1,1533.62,1283.58Z"/><path class="cls-7" d="M1656.43,792.22V927.68h8.06v17.56H1329.78a32,32,0,0,1-32-32V806.67a32,32,0,0,1,32-32h334.71v17.55Z" transform="translate(417.32 508.92)"/><path class="cls-2" d="M1771.3,1301.14h302.44a0,0,0,0,1,0,0v135.45a0,0,0,0,1,0,0H1771.3a31.6,31.6,0,0,1-31.6-31.6v-72.25A31.6,31.6,0,0,1,1771.3,1301.14Z"/><rect class="cls-8" x="1889.98" y="1368.18" width="130.16" height="3.35"/><rect class="cls-8" x="1828.96" y="1378.37" width="138.99" height="3.35"/><path class="cls-9" d="M1109,643.49h460a0,0,0,0,1,0,0V775.17a0,0,0,0,1,0,0H1109a33.23,33.23,0,0,1-33.23-33.23V676.72A33.23,33.23,0,0,1,1109,643.49Z" transform="translate(3062.08 1927.58) rotate(180)"/><path class="cls-10" d="M996.85,657.05V761.62h-8.07v13.56h333.48A33.23,33.23,0,0,0,1355.49,742V676.73a33.23,33.23,0,0,0-33.23-33.23H988.78v13.55Z" transform="translate(417.32 508.92)"/><path class="cls-2" d="M1030,657h307a0,0,0,0,1,0,0V761.62a0,0,0,0,1,0,0H1030a33.12,33.12,0,0,1-33.12-33.12V690.16A33.12,33.12,0,0,1,1030,657Z" transform="translate(2751.16 1927.58) rotate(180)"/><rect class="cls-11" x="1131.08" y="688.78" width="100.84" height="2.01" transform="translate(2780.31 1888.48) rotate(180)"/><rect class="cls-11" x="1171.51" y="694.87" width="107.68" height="2" transform="translate(2868.02 1900.67) rotate(180)"/><path class="cls-12" d="M1582.15,1061.19h530.72a0,0,0,0,1,0,0v91.22a0,0,0,0,1,0,0H1582.15a20.73,20.73,0,0,1-20.73-20.73v-49.77A20.73,20.73,0,0,1,1582.15,1061.19Z"/><path class="cls-7" d="M1774.49,561.66v72.45h8.06v9.39h-346.7a20,20,0,0,1-20-20V572.28a20,20,0,0,1,20-20h346.7v9.39Z" transform="translate(417.32 508.92)"/><path class="cls-2" d="M1869.28,1070.58H2191.8a0,0,0,0,1,0,0V1143a0,0,0,0,1,0,0H1869.28a20,20,0,0,1-20-20v-32.43A20,20,0,0,1,1869.28,1070.58Z"/><rect class="cls-8" x="2008.04" y="1086.04" width="130.16" height="2.59"/><rect class="cls-8" x="1947.02" y="1111.88" width="138.99" height="1.79"/><path class="cls-1" d="M1535.48,970h381.67a0,0,0,0,1,0,0v91.22a0,0,0,0,1,0,0H1535.48A19.48,19.48,0,0,1,1516,1041.7V989.44A19.48,19.48,0,0,1,1535.48,970Z"/><path class="cls-10" d="M1557.25,470.44v72.44h5.87v9.39H1316.39a20,20,0,0,1-20-20V481.08a20,20,0,0,1,20-20h246.73v9.39Z" transform="translate(417.32 508.92)"/><path class="cls-2" d="M1742.16,979.35h232.41a0,0,0,0,1,0,0v72.44a0,0,0,0,1,0,0H1742.15A16.76,16.76,0,0,1,1725.4,1035V996.11A16.76,16.76,0,0,1,1742.16,979.35Z"/><rect class="cls-11" x="1840.89" y="994.82" width="94.69" height="2.59"/><rect class="cls-11" x="1796.5" y="1020.66" width="101.11" height="1.79"/><rect class="cls-13" x="1300.48" y="-81.61" width="165.08" height="6.64" transform="matrix(0, -1, 1, 0, 1872.53, 1813.98)"/><path class="cls-13" d="M1382.56-1v0l.11,0,.1,0v0c15.65.8,13.48,81.33,13.48,81.33l-13.84-.06h-.21l-13.85-.07S1366.91-.31,1382.56-1Z" transform="translate(417.32 508.92)"/><polygon class="cls-14" points="1411.23 286.81 1259.18 196.7 1578.24 110.27 1930.67 365.6 1738.47 405.26 1411.23 286.81"/><path class="cls-15" d="M988.92-179.88s152-1.1,315.26,106.08L1336-129.71S1226.53-271.32,993.48-238.84Z" transform="translate(417.32 508.92)"/><rect class="cls-16" x="226.12" y="1173.58" width="139.22" height="8.26"/><rect class="cls-17" x="-172.55" y="694.43" width="12.2" height="375.84" transform="translate(84.43 2273.61) rotate(180)"/><rect class="cls-18" x="343.54" y="1171.24" width="96.77" height="11.8"/><rect class="cls-19" x="373.61" y="1070.54" width="36.64" height="111.3"/><rect class="cls-20" x="176.18" y="1181.98" width="536.16" height="21.37"/><path class="cls-5" d="M-344,543.72s-5.87,82.23,10.2,92.08c10.07,6.16,50.2,27,49,30.86s-22.66,34.7-22.66,34.7-77.09-50.77-79.58-66.77c-2.43-15.63,3.8-120.41,14.39-125.23,7.94-3.62,12.13-.63,22.13,6.8C-336.51,526.58-344,543.72-344,543.72Z" transform="translate(417.32 508.92)"/><path class="cls-21" d="M-203.55,567.2l6.8-2.51s-8.48-19.89-12.17-19.41a93.21,93.21,0,0,0-9.58,2Z" transform="translate(417.32 508.92)"/><path class="cls-22" d="M-202,570.63c-.87-.65-14.45-26.69-14.45-26.69l-29,3.94,15.67,30.85Z" transform="translate(417.32 508.92)"/><path class="cls-23" d="M-249.2,1019s-2.39,16.64-2.69,19.14-26.67-1.47-26.67-1.47l-2.14-19.81S-252.49,1016.6-249.2,1019Z" transform="translate(417.32 508.92)"/><path class="cls-24" d="M-251.61,1036s8.35,10,16.43,14.4,20.78,6.1,25.56,10.62c3.45,3.27,12.56,17.33-21,17s-49.74,2-53.33-3.4,5.2-39.78,5.2-39.78S-270.8,1037.71-251.61,1036Z" transform="translate(417.32 508.92)"/><path class="cls-23" d="M-80.26,1019.11s-2.4,16.64-2.7,19.14-26.67-1.48-26.67-1.48l-2.13-19.81S-83.56,1016.76-80.26,1019.11Z" transform="translate(417.32 508.92)"/><path class="cls-24" d="M-82.68,1036.13s8.35,10,16.43,14.4,37.82,8,42.6,12.48c3.45,3.27,9.18,16.41-38,15.18-33.54-.87-49.73,2-53.33-3.4s5.2-39.79,5.2-39.79S-102.33,1038.06-82.68,1036.13Z" transform="translate(417.32 508.92)"/><path class="cls-24" d="M-334.24,731.53s95.86,16.22,117.51,19.62,139,32.61,153.73,41.51c11.69,7.09-6.13,177.26-10.29,242.19h-46.24l-3.35-194.76c-55.49,1.39-95.09-13-135.49-6.84s-74.1,14.86-99.77-19.59C-358.14,813.66-359.1,739.05-334.24,731.53Z" transform="translate(417.32 508.92)"/><path class="cls-24" d="M-239.76,1035l-45.06-2.78-4.39-192.13c-23.89.59-32.08-.92-51.41-3.26L-377,752.26c31.89,6.37,134.05,32.14,147.67,40.4C-217.64,799.75-235.59,970.08-239.76,1035Z" transform="translate(417.32 508.92)"/><path class="cls-25" d="M-290.11,372.2s35.14-9.71,48.54,17.56,7.33,79-10.38,83.87-43.18-.74-50.53-17.72-13.22-41.1-11.46-56.73S-299.45,375.93-290.11,372.2Z" transform="translate(417.32 508.92)"/><path class="cls-25" d="M-261.13,468.18s-.39,20.75,1.9,25.17-48.93,3.32-48.93,3.32,8.07-24.92,3.49-46.14C-309.2,429.52-261.13,468.18-261.13,468.18Z" transform="translate(417.32 508.92)"/><path class="cls-26" d="M-307.43,442.67s2.74,5.57,16,4.67,30.74-16.89,36.37-18.32,6-4.64,6-4.64l3,5.3,5.77.88s-3.92-16,4.62-21.68-3.85-51.1-47.08-40.14c0,0-33,6-33.44,24.47S-313.83,432.91-307.43,442.67Z" transform="translate(417.32 508.92)"/><path class="cls-16" d="M-256.54,492.82s-.14-8.45-4-9.26-40.26-5.82-45-4l-2,11.15S-298.43,496.32-256.54,492.82Z" transform="translate(417.32 508.92)"/><path class="cls-25" d="M-246,420.61c-1-6.93-8.86-14.89-13.37-4.1s3,26.5,8.1,25.66S-244.66,430-246,420.61Z" transform="translate(417.32 508.92)"/><path class="cls-4" d="M-103.94,592.67H-104C-103.74,592.78-103.7,592.79-103.94,592.67Z" transform="translate(417.32 508.92)"/><path class="cls-26" d="M-300.36,377.14s-42.85-2-7.48,64.87Z" transform="translate(417.32 508.92)"/><polygon class="cls-27" points="21.49 1566.71 24.68 1575.68 159.35 1533.95 152.9 1515.79 21.49 1566.71"/><rect class="cls-27" x="148.66" y="1381.14" width="15.31" height="146.42"/><rect class="cls-28" x="111.17" y="1373.36" width="90.28" height="8.63"/><polygon class="cls-27" points="292.33 1566.71 289.14 1575.68 154.47 1533.95 160.38 1514.65 292.33 1566.71"/><polygon class="cls-27" points="197.44 1574.72 197.44 1585.15 154.47 1533.95 160.38 1514.65 197.44 1574.72"/><circle class="cls-29" cx="292.33" cy="1579.18" r="12.59"/><path class="cls-29" d="M-218.81,1070.27a12.59,12.59,0,0,1-12.59,12.58A12.58,12.58,0,0,1-244,1070.27a12.58,12.58,0,0,1,12.58-12.59A12.59,12.59,0,0,1-218.81,1070.27Z" transform="translate(417.32 508.92)"/><path class="cls-29" d="M-383.24,1070.27a12.59,12.59,0,0,1-12.59,12.58,12.59,12.59,0,0,1-12.59-12.58,12.59,12.59,0,0,1,12.59-12.59A12.59,12.59,0,0,1-383.24,1070.27Z" transform="translate(417.32 508.92)"/><rect class="cls-27" x="49.96" y="1340.68" width="213.89" height="32.68" rx="16.13"/><rect class="cls-17" x="631.54" y="1203.35" width="12.2" height="375.84"/><rect class="cls-30" x="233.72" y="900.94" width="316.42" height="223.22" rx="16.09"/><rect class="cls-31" x="246.11" y="913" width="291.64" height="176.17"/><path class="cls-5" d="M40.12,673.35v-4S34.53,644.67-5,644.67s-38.7,28.68-38.7,28.68Z" transform="translate(417.32 508.92)"/><path class="cls-25" d="M-44.15,648.34s8.58-.67,11.73-2.56,22-14.55,26.37-12.53,33.82,11,32.8,15.33-3.74,3.89-5.82,3.13-23.42-5.24-25.31-4.49c0,0,21,7.65,21.06,13.23s-4.39,6.95-6.38,9.06-4.38,7.35-9.78,7.75-31.78-8.77-37.2-9.19-15.48.34-16.16-.55S-44.15,648.34-44.15,648.34Z" transform="translate(417.32 508.92)"/><path class="cls-5" d="M-184.33,515.05c-27.36-4.81-56.16-11.71-56.16-11.71l-50.95-2.08s-46.77,10.29-65.19,18.61c-1.74.79-1.75,41.72-6.55,52.46l15.27,32.21s8.82,63.82,10.65,92.2c.85,13-2.37,125.92-2.37,125.92s4.58,2.25,39.35,6.09,121.67-1.39,122.22-5.5-16.83-153-17.6-160.65c-1.18-11.83,3.42-66.5,3.42-66.5,6.55,8.8,23.26,48.55,40.67,67.46,10.24,11.13,61,18,70.52,18.27,20.81.69,58.77,4.83,59.88,2.81.88-1.21,3.3-33.69.92-34.49-2.08-.69-72.57-4.75-90.63-14.33-6.61-3.51-26.36-46.57-26.36-46.57S-169.23,521.83-184.33,515.05Z" transform="translate(417.32 508.92)"/><rect class="cls-27" y="1113.51" width="147.5" height="204.29" rx="30.98"/><path class="cls-32" d="M-296,856.31c-21.74,0-39.38-7.3-52.42-21.71-29.49-32.55-24.19-89.77-23.95-92.19a8.21,8.21,0,0,1,9-7.36,8.2,8.2,0,0,1,7.36,9c-.06.65-4.76,52.52,19.81,79.6,9.94,11,23.1,16.28,40.23,16.28a8.2,8.2,0,0,1,8.21,8.21A8.2,8.2,0,0,1-296,856.31Z" transform="translate(417.32 508.92)"/><rect class="cls-33" x="266.79" y="927.03" width="85.43" height="9.31" rx="2.31"/><rect class="cls-33" x="266.79" y="947" width="85.43" height="9.31" rx="2.31"/><rect class="cls-33" x="266.79" y="969.89" width="85.43" height="105.25" rx="7.76"/><rect class="cls-33" x="369.46" y="927.03" width="152.13" height="148.11" rx="12.28"/><path class="cls-34" d="M229.21,554.24a34.52,34.52,0,1,1,29.54-16.64A34.53,34.53,0,0,1,229.21,554.24Z" transform="translate(417.32 508.92)"/><path class="cls-35" d="M194.15,551.14A24.15,24.15,0,0,1,170,527c0-.77,0-1.54.1-2.29a24.16,24.16,0,1,1,24.05,26.44Z" transform="translate(417.32 508.92)"/><path class="cls-36" d="M229.78,521.53s1.92,16,2.56,37.84-16.67,21.8-16.67,21.8V661h-12s.28-81.46-5.7-88-6-37.63-6-37.63l3.42-2s-5.13,36.77,18.24,42.18,14.54-52.44,14.54-52.44Z" transform="translate(417.32 508.92)"/><path class="cls-37" d="M237.77,525.28c-19.82-3.71-32.88-12.28-39.93-20a34.53,34.53,0,1,1,60.91,32.3C257.8,532.91,252.66,528.05,237.77,525.28Z" transform="translate(417.32 508.92)"/><path class="cls-38" d="M187.1,533.61c-8-2.31-13.43-5.47-17-8.91a24.16,24.16,0,1,1,37.28,22.5C204.93,542.57,199.39,537.15,187.1,533.61Z" transform="translate(417.32 508.92)"/><polygon class="cls-39" points="590.82 1132.83 672.05 1132.83 667.87 1147.91 595.85 1147.91 590.82 1132.83"/><polygon class="cls-40" points="600.97 1147.91 661.26 1147.91 652.88 1182.01 606.83 1182.01 600.97 1147.91"/><path class="cls-38" d="M192,505.86l-2.08.64s-3.28-8.91-3.49-10.12S192,505.86,192,505.86Z" transform="translate(417.32 508.92)"/><path class="cls-38" d="M172.28,506.5l10.33,3.14s-.07.92-1.42.92S172.28,506.5,172.28,506.5Z" transform="translate(417.32 508.92)"/><path class="cls-38" d="M175.84,528.16h2.64a14.08,14.08,0,0,1-2.64,6.42C173.7,537.07,175.84,528.16,175.84,528.16Z" transform="translate(417.32 508.92)"/><path class="cls-37" d="M239.26,478.71c1.07.79-3.77,12.61-3.77,12.61h-2.43S238.19,477.93,239.26,478.71Z" transform="translate(417.32 508.92)"/><path class="cls-37" d="M228,488.4c-.42-3.2,2.07-8.62,2.07-8.62v8.12S228.43,491.61,228,488.4Z" transform="translate(417.32 508.92)"/><path class="cls-37" d="M247.1,535c-1.5-1.23-1.57-12-1.57-12l2.35.86S248.6,536.24,247.1,535Z" transform="translate(417.32 508.92)"/><path class="cls-41" d="M203.62,639h40.32l-8.38,34.1h-13.2C229.82,645.65,203.62,639,203.62,639Z" transform="translate(417.32 508.92)"/><path class="cls-42" d="M233.45,673.09c-3.31-1.38-8.66-17-11.23-25.09-.91-2.87-1.47-4.79-1.47-4.79H251c-2.62,18.68-9,29.88-9,29.88Z" transform="translate(417.32 508.92)"/><path class="cls-43" d="M231,633.91c0-1.09-4.86-5.63-7.28-8.61s.93-8.6.93-8.6c10.83,4.48,9,17.21,9,17.21S231,635,231,633.91Z" transform="translate(417.32 508.92)"/><path class="cls-43" d="M237.18,634.39h-1.31s-.93-22,7.1-25,8-9,8-9,2.43,8.22-1.5,12.51-8.4,9.34-7.65,13.45S237.18,634.39,237.18,634.39Z" transform="translate(417.32 508.92)"/><path class="cls-44" d="M222.22,648c-.91-2.87-1.47-4.79-1.47-4.79H251c-2.62,18.68-9,29.88-9,29.88h-2C240.43,655.61,228.91,649.86,222.22,648Z" transform="translate(417.32 508.92)"/><polygon class="cls-45" points="638.07 1142.83 668.55 1142.83 670.28 1152.13 636.84 1152.13 638.07 1142.83"/><path class="cls-25" d="M866.39,292.41s10.72,24.45,21,21.38,25.51-2.16,30.29-1.63c6.4.7,27.21-4.18,26,3.59s-34,9.62-40.83,11.31,17.78,19.11,19.49,25.81-32.66,45.49-48,31.6-21.72-38.87-24.95-40.78S832,321.88,832,321.88Z" transform="translate(417.32 508.92)"/><path class="cls-25" d="M919.56,348.78s43.94,45.64,44.09,51.15-2.69,7.76-7,3.67-43.84-42.87-43.84-42.87,42.1,62.82,43.26,67.26c.68,2.6-4.56,7.26-7.09,5.28s-48.09-61.79-48.09-61.79,39.2,58.73,39,62.77c-.18,3.54-6,6.71-9.28,2.56s-42.93-56.54-42.93-56.54,25.64,44.59,23.36,48c-1.39,2.09-5.73,6.31-12-5.41s-24-37.75-24-37.75Z" transform="translate(417.32 508.92)"/><path class="cls-24" d="M650.91,512H515.3c-3-15.74-5.67-25.27-7.62-25s-5.81,9.71-10.66,25H347.48c6.89-58.6,15.69-124,22.54-175.89.45-3.22.86-6.35,1.27-9.35,2.36-17.73,4.13-30.79,5-37.05.36-2.73.54-4.18.54-4.18,3.27-1.49,6.67-2.85,10.21-4.12,84.72-30.44,248.1,1.77,248.1,1.77s.09.81.27,2.31c.23,1.81.54,4.72,1,8.43,1,8,2.36,20.05,3.94,33.93,0,.14,0,.23,0,.32,0,.41.09.86.13,1.27,5.72,49.53,8.53,76.7,13,129.54C653.77,462,652.68,482.59,650.91,512Z" transform="translate(417.32 508.92)"/><path class="cls-46" d="M558.93-183.36s138.74,29.46,150.3,68,34,129.11,65.27,227.59c18.69,58.92,113.65,193.1,113.65,193.1S833.81,345.39,833.81,340s-128-176.15-129.5-197S664,15.74,664,15.74s-18.37,204.7-18.37,236.32,2.08,95.63,2.08,95.63-51.4,19.7-151.23,14.49c0,0-158.88-5.46-131.76-53.88,20.5-36.62,7.93-282.95,4.85-284.49S311.1,91.64,316.49,105s148.75,61.26,148.75,61.26,4.19,15.43-18.08,50.41c0,0-214.11-62.57-214.89-75.68s89.06-267.69,118.4-281c42.23-19.19,152.68-49.35,152.68-49.35Z" transform="translate(417.32 508.92)"/><path class="cls-25" d="M556.68-231.61s-5.72,31.33,4.11,52.73c0,0,10,49.86-41,52.1s-52.22-43.51-52.22-43.51,12.21-16.39,4.06-61S556.68-231.61,556.68-231.61Z" transform="translate(417.32 508.92)"/><path class="cls-25" d="M525.64-412.79S591-402.25,581-297.59s-67.6,96.08-71.45,96-57.88,1.91-62.09-125.87C447.48-327.49,445.64-422,525.64-412.79Z" transform="translate(417.32 508.92)"/><path class="cls-25" d="M582-327.16s7.15-7.82,9.77.1-9.32,42-10.2,44.9c0,0-1.3,3.07-3,1.38S582-327.16,582-327.16Z" transform="translate(417.32 508.92)"/><path class="cls-25" d="M449.07-328.48s-7-8-9.78-.1,8.78,43.76,9.35,45.1c0,0,1.25,3.09,3,1.44S449.07-328.48,449.07-328.48Z" transform="translate(417.32 508.92)"/><path class="cls-47" d="M582-311.1l-9.36,12.8s.27-28.07-1.23-32.47,1.77-19.73.52-22.9S527.25-345,456-352.3c0,0,7.92,25.29,3.28,27.09S457-292.34,457-292.34l-7.69-8.89s-8.68-53.08-7.84-61.94c1.13-11.8-2.87-66.88,97.33-57.42a60.49,60.49,0,0,1,31.65,12.44c10.3,8,20.88,20.58,19.92,37.81C589-347.57,582-311.1,582-311.1Z" transform="translate(417.32 508.92)"/><path class="cls-48" d="M479.81-215.49s26.95,31.47,69.73,0c0,0-12,23.87-37.15,24.43S479.81-215.49,479.81-215.49Z" transform="translate(417.32 508.92)"/><rect class="cls-49" x="308.22" y="-37.67" width="210.18" height="316.5" transform="translate(467.33 398.47) rotate(16.19)"/><path class="cls-50" d="M502.84,164.09s13.17-.37,17.21-1,1.37,8-3.32,9.62S502.84,164.09,502.84,164.09Z" transform="translate(417.32 508.92)"/><path class="cls-25" d="M510.54,227s-5.76,1.4-8.57.78c0,0-5-1.51-8.67-2.37a23.85,23.85,0,0,0-2.84-.54c-2.8-.28-9-.06-15.54-2.61s-28.63-13.89-28.63-13.89l6.32-20.56,4.77-16.29s37.37-9.95,43.72-8.27a14.84,14.84,0,0,1,1.78.57c5.24,1.94,8.33,5.58,11,6.91,1,.5,10.22,6.06,10.7,9.25.67,4.42-.65,7.77-2.93,9.82,0,0,.94,8.73-2.3,13.67,0,0,1.13,8-4.65,13C514.66,216.51,514.89,224.77,510.54,227Z" transform="translate(417.32 508.92)"/><path class="cls-46" d="M465.24,166.26s1.87,26.24-18.08,50.41c0,0-157.23-49.06-176-56.43S339.25-77.71,339.25-77.71L403.09-56,368.79,8.89s-17,36.34-52.3,96.11C316.49,105,338.23,125.64,465.24,166.26Z" transform="translate(417.32 508.92)"/><path class="cls-46" d="M576-147l-14.52-45.73s-23.35,10.87-91,3.34l-15.37,43.74S513.12-95,576-147Z" transform="translate(417.32 508.92)"/><path class="cls-51" d="M1218.69,453.22s-4.69-7.12-5.46-11.3a13.47,13.47,0,0,0-3.12-6.56s-17.8-2.59-24.63-8.93-21.33-23.64-28.17-18.46,5,27,11.94,33.57,16.43,18.14,25,17.28S1214.54,453.89,1218.69,453.22Z" transform="translate(417.32 508.92)"/><path class="cls-52" d="M1218.69,452.13l-8.58-16.77s41.08-7.53,53.1-14.76c3-1.82,6-3.64,8.8-5.36,6.34-3.91,11.61-7.3,13.46-8.88,5.94-5.05,29.72-21.89,36.14-28.08s14-2.42,24-2.32,46.29,10.16,57.14,11.6,50,8.72,50,8.72C1445.92,415.13,1218.69,452.13,1218.69,452.13Z" transform="translate(417.32 508.92)"/><path class="cls-53" d="M1455.11,395.66s-22.11,3.19-27.79,3.62-38.75,3.1-54.63,4.62-47.06.62-53.25,3.34-42,14.83-53.65,18.62-87.77,17.7-87.77,17.7-1.3,10.3,5.43,18.21c0,0,33.53-3,51.22-.39s48.59-1.36,67.35-9.87,48.48-.74,65.09,5.09,80.14,10.53,88.07,8.75,23.73-9.41,35.19-21.86S1455.11,395.66,1455.11,395.66Z" transform="translate(417.32 508.92)"/><path class="cls-54" d="M1183.45,461.77s-2.83-8-2.56-12.28-1-6.27-1-6.27-17-7.67-22.15-15.48-15-28.09-22.87-24.72-1.71,27.38,3.47,35.46,8.38,29.59,16.92,30.83S1179.27,461.42,1183.45,461.77Z" transform="translate(417.32 508.92)"/><path class="cls-53" d="M1504.82,381.51s27.94,63.42-15.44,78.79c-34.59,12.27-98.38,1-98.38,1l39.24-61.84Z" transform="translate(417.32 508.92)"/><path class="cls-4" d="M1432.89,142.21c10.64,2.36,4.3,29.08,11.43,66.43S1474,251.83,1474,251.83s-10-16.56-8.9-33.88c.85-13.53,17.24-50.45,1-74.58-12.52-18.64-34.58-1.71-34.58-1.71Z" transform="translate(417.32 508.92)"/><path class="cls-25" d="M1448.9,220l-20.69,21.29c-.19-3.9-1.63-8.66-3.1-12.63-.72-1.94-1.46-3.69-2-5-.79-1.79-1.34-2.9-1.34-2.9l18.46-19.52Z" transform="translate(417.32 508.92)"/><path class="cls-5" d="M1424.27,239.17a51.24,51.24,0,0,1-6.38,19.69c-5.57,9.45-14.79,25.13-13.48,35.32s5.64,13.9,9.56,17.57,14.67,30.16,16,40.36,2.13,31.38-.35,46.95c0,0,72.55,8.42,79.85-4.25,0,0-9-40.76-13.25-51s-13.14-71.32-17-81.72-12.81-20.43-18.31-27.64c-4.91-6.44-13.86-18.41-13.86-18.41Z" transform="translate(417.32 508.92)"/><path class="cls-25" d="M1415.2,144.38c-9.57.64-30.14,7.87-30.48,33.48a79.32,79.32,0,0,0,3.82,11.87c2.26,5.15-.7,21.47.64,22.1s6.61,1,6.61,1,7.55,16.57,13.58,15.73,28.36-8.22,36.66-30.88S1453.87,141.8,1415.2,144.38Z" transform="translate(417.32 508.92)"/><path class="cls-4" d="M1384.72,177.86s16.68,8.75,32.26,9.11,28.37,25.34,28.37,25.34,18.87-42.34-2.75-63.82S1378,148.85,1384.72,177.86Z" transform="translate(417.32 508.92)"/><path class="cls-25" d="M1420.63,186.81c-.26-3,2.53-7.81,7.86-4.32s.42,18.38-3.72,17.45S1420.89,189.89,1420.63,186.81Z" transform="translate(417.32 508.92)"/><path class="cls-48" d="M1437.85,211.74c-.29.48-7.88,12.92-12.74,16.89-.72-1.94-1.46-3.69-2-5C1423.06,223.58,1433.9,217.12,1437.85,211.74Z" transform="translate(417.32 508.92)"/><rect class="cls-55" x="1281.6" y="401.34" width="103.18" height="8.98" transform="translate(3135.85 1066.2) rotate(169.31)"/><rect class="cls-55" x="1206.23" y="370.24" width="103.18" height="8.98" transform="translate(2077.41 2132.94) rotate(-124.44)"/><path class="cls-25" d="M1302.71,407c-.5-2.26,0-6,7.1-9.82s22.42-12.45,27.81-12.65,16,.64,18.18.63-3.41,12.82-3.41,12.82Z" transform="translate(417.32 508.92)"/><path class="cls-25" d="M1353.31,386.16s29.58-11.64,34.38-14,27.21-9.85,29.19-10.84,11.35-56.92,12.18-71,1.66-43.89,17.56-42.56,19.71,11.76,17.72,32.29-13.75,94.08-18.72,96.56-62,15.24-92.08,21.24C1324.76,403.63,1353.31,386.16,1353.31,386.16Z" transform="translate(417.32 508.92)"/><path class="cls-54" d="M1427.44,294.74s22.91,4.28,36.12,5.6c0,0,16.44-46.82-5.94-54.3C1431.09,237.17,1425.17,273.46,1427.44,294.74Z" transform="translate(417.32 508.92)"/><path class="cls-56" d="M1250.22,808.21s-16.47,1-21.09,3.56-35.76-7.25-36.34-9.51a5.08,5.08,0,0,1,0-3.38h61.15Z" transform="translate(417.32 508.92)"/><path class="cls-56" d="M1324.18,735.56s5.26,41.3,0,46.71c-20.07,20.68-94.48,19-94.48,19l0,8.4s113.1,14.11,123.61-7.83c12.63-26.36,7.73-69.34,7.73-69.34Z" transform="translate(417.32 508.92)"/><polygon class="cls-53" points="1778.83 1679.68 1772.11 1672.03 1784.24 1659.34 1794.48 1666.51 1778.83 1679.68"/><path class="cls-57" d="M1377.17,1157.6s-13.85,10.42-17.7,10.84-5.67,2.14-5.21,8-5.62,30.57-9.86,31-18.67.48-21.29,10,45.78,7.52,48.78-.28,23.84-45.63,21.37-48.67S1384.27,1158.57,1377.17,1157.6Z" transform="translate(417.32 508.92)"/><path class="cls-58" d="M1288.34,862s-90.44,157.54-53.73,190.13c14.4,12.79,28.26,24.35,48.18,41.45,10.59,9.09,23.37,19.63,38.53,35.41l.63.66c10.81,11.26,19.73,20.79,22.48,23.73.09.1.18.19.25.28l.31.32,10.07,9.61,14.77-13s-16.74-23.17-26.18-41c-13.25-25-35.52-54.32-45.81-62.51-17.65-14-22.5-16.78-22.5-30.2,0-14.38,82.9-94.74,82.9-94.74s12-50.3-16.71-63.46C1313.54,845.93,1288.34,862,1288.34,862Z" transform="translate(417.32 508.92)"/><path class="cls-59" d="M1357.31,1195.17s.57-7.26-.66-11.9,18.73-2,18.73-2,2.56,19.37,1.82,23.81S1357.31,1195.17,1357.31,1195.17Z" transform="translate(417.32 508.92)"/><path class="cls-58" d="M1353.58,1183.3l26.9,4.85s1.94-34.33,1.59-60.62c-.37-28.27,1-50.49-7.58-73-8.08-21-6.24-29.07-7-43.43s6.9-88.35,6.9-88.35,9.19-33.12-12.08-56.49c-20.73-22.77-74.34-.09-74.34-.09s11.17,101.07,38,163.58c7.59,17.69,3.49,28.44,13.17,55.78C1339.17,1085.54,1353.87,1145.16,1353.58,1183.3Z" transform="translate(417.32 508.92)"/><path class="cls-59" d="M1330.17,666.35a31.44,31.44,0,0,1,3.18,8.65,72.52,72.52,0,0,1,1.48,9.23,108.42,108.42,0,0,1,.54,11.75s35.88-7.81,30-16.18-2.42-33.73-2.42-33.73S1325.52,658.53,1330.17,666.35Z" transform="translate(417.32 508.92)"/><path class="cls-25" d="M1310,597.23s-9.19,8-5.08,31c0,0-2,18.31-4.84,21.5s7.53,4.37,8.62,6.67,3.14,13.06,10.33,19.54,42.84-13.06,44.58-24.11,26.43-58.38-12.66-60.55S1310,597.23,1310,597.23Z" transform="translate(417.32 508.92)"/><path class="cls-5" d="M1285.39,766.8c.72,2.3-2,37.66-1.77,40.71,1.37,16.73-2.95,42.14-4.65,51.24-.4,2.16-.63,3.26-.63,3.26,38.75,19,92.64,17.29,92.64,17.29-.19-1.47-7.72-19.68-7.91-21.07-3.19-22.75-7.9-33.13-6.62-48.51h0c.71-8.64,2.91-17.68,7.47-28.87,13.16-32.33,12.44-53.85,10.29-71.61s-7.46-27.89-7.46-27.89L1334,684.85c-6.94,7.7-13.13,11.8-32.88,29.33C1280.12,732.84,1276.45,738.5,1285.39,766.8Z" transform="translate(417.32 508.92)"/><path class="cls-60" d="M1378.41,1200.08s-18.94-5.38-19.5-5.91-.69-1.68-3.3-.63-3.69,5-6.25,6.25-18.19,5.83-26.75,10c-3.09,1.52-16.18,6.51-18.07,10.68s-1.3,10.43,21.19,9,47.09,1.69,52-.77S1379.7,1206.59,1378.41,1200.08Z" transform="translate(417.32 508.92)"/><path class="cls-61" d="M1303.92,619.93s-4.4-47.72,41.87-39.2,22.42,60.68,16.19,77.68c0,0,.76-26.41-21.52-27.27S1313.58,625.13,1303.92,619.93Z" transform="translate(417.32 508.92)"/><path class="cls-59" d="M1344.08,624.44c2.78-4.84,12.34-2.26,11.24,5.12s-8.74,14.75-11.28,11.18S1340,631.56,1344.08,624.44Z" transform="translate(417.32 508.92)"/><path class="cls-59" d="M1343,718.2s3.82,40.88-1.44,46.29c-20.07,20.68-99.29,21.07-99.29,21.07l-3.78,11.89s117.75,8,128.26-13.92c12.62-26.36,7.72-69.35,7.72-69.35Z" transform="translate(417.32 508.92)"/><path class="cls-61" d="M1360.46,592.47s17.82-17.09,30.48,2.27-15,46.38-26.28,30.34S1360.46,592.47,1360.46,592.47Z" transform="translate(417.32 508.92)"/><path class="cls-48" d="M1333.35,675a72.52,72.52,0,0,1,1.48,9.23c11.92-5.43,20.84-22,20.84-22-8.64,7.44-22.31,12.8-22.31,12.8Z" transform="translate(417.32 508.92)"/><rect class="cls-55" x="1163.03" y="797.45" width="112.3" height="6.27" transform="translate(2855.68 2110.08) rotate(180)"/><rect class="cls-55" x="1084.38" y="749.04" width="112.3" height="6.27" transform="translate(1400.13 2618.19) rotate(-116.78)"/><path class="cls-59" d="M1258.83,785.56s-16.48-1.26-21.09-4.53-35.77,9.23-36.34,12.11a8.16,8.16,0,0,0,0,4.31h61.14Z" transform="translate(417.32 508.92)"/><polygon class="cls-62" points="1784.07 1190.26 1781.76 1183.99 1750.32 1190.26 1750.32 1195.82 1784.07 1190.26"/><path class="cls-59" d="M1343.07,718.74S1339.7,695,1356.2,693s18.3,21.31,18.3,21.31Z" transform="translate(417.32 508.92)"/></svg>