<svg id="Layer_1" data-name="Layer 1" xmlns="http://www.w3.org/2000/svg" viewBox="0 0 1544.65 2132.5">
	<defs>
		<style>.cls-1{opacity:1;}.cls-2,.cls-3,.cls-7,.cls-9{fill:#268000;}.cls-10,.cls-11,.cls-2,.cls-3,.cls-5,.cls-6,.cls-7,.cls-8,.cls-9{stroke:#fff;}.cls-10,.cls-2,.cls-3{stroke-width:2px;}.cls-3{stroke-linecap:round;stroke-linejoin:round;}.cls-11,.cls-4{fill:none;}.cls-4{stroke:#000;}.cls-10,.cls-5,.cls-6{fill:#2c8a04;}.cls-5{stroke-width:0.75px;}.cls-6,.cls-8{stroke-width:0.5px;}.cls-7{stroke-miterlimit:10;}.cls-8{fill:#9d9d9d;}.cls-9{stroke-width:3px;}.cls-11{stroke-width:8px;}</style>
	</defs>
	<title>atc-map-green</title>
	<g id="atc-map">
		<g id="Group_9" data-name="Group 9">
			<g id="Rongpur" class="cls-1">
				<path id="path4167" class="cls-2" d="M248.18,119.88l6.36-6.26,6.35,1.25,6.35,5-5.08,13.77,7.63,2.5,6.35,7.51,7.62-1.25-1.27-8.76-6.35-3.76,7.62-8.76,14,1.25,6.36,8.76,5.08,6.26,3.81,6.26,2.55-3.76H327l2.55,2.5,7.62-3.75v8.76l1.27,15,8.9,6.25,8.9,5,2.54,6.26-1.27,7.5-2.54,18.77,3.81,12.52,2.54,13.76,10.17,8.76,11.44,7.51,8.9,7.51-3.82,10-3.82,8.76-3.81,5-7.63-8.76L360,282.56l1.27,13.77-10.17-10-6.35,12.51-20.34-5-14,3.75,5.08,12.52-6.35,7.5-3.81,6.26-11.44-1.25-10.17-8.76h-6.35V300.08l-10.17-2.5v-30l-5.08-6.26-5.08-8.76-14-3.75,1.27-6.26-3.82-2.5V230l-1.27-3.75,5.09-6.26-3.82,6.26L248.18,215l7.62-3.75V190l3.82-7.51v-5l-1.28-17.52,3.82-7.51-14-15V119.88Z" transform="translate(0 0)"/>
				<path id="path2169" class="cls-3" d="M109.65,66.07l-2.54-8.76-2.54-6.25,6.35-8.76L116,31l5.08-15L131.25,1l2.55,16.27L135.07,26l10.16,10,10.17-2.5,2.54,8.76,10.17,2.5,1.27,7.51,10.17,3.75,1.27,5L191,63.56l6.36-7.51,3.8,10,5.09,6.26,7.62,5,2.54,5,6.36-2.5,3.81,3.76-3.81,8.76,3.81,3.76,5.08,3.75v2.5l10.17-1.25v5l2.54,5v6.26l6.36,5-1.27,11.26,5.08,8.76,6.35,8.76-2.54,8.76v23.78l-3.81,10,2.54,12.52L250.72,215l-8.9,12.51L231.65,225l-14-1.25-5.08-10-6.35-5L213.86,195l-5.08-10-6.36-7.51-10.17-3.75-5.08-5-3.81-7.51-6.36,2.5a19.22,19.22,0,0,0-5.08-2.5c-3.49-1.25-8.9-2.5-8.9-2.5l-6.35-2.5-6.36,5-10.16-2.5-8.9-3.76-7.63,5-1.27,6.25a45.8,45.8,0,0,1-8.9-2.5,89.55,89.55,0,0,1-10.17-5l-2.54-3.75,8.9-5,5.08-6.26-3.81-7.5V118.65l14-1.26,5.08-5,5.09-7.5,11.44-3.76L149,92.37l6.35,10,6.36-3.75,5.08-8.76-5.08-6.28-5.08-7.51V67.32l-8.9-7.5-11.44,2.5-6.35-10-6.36,5L116,56.06Z" transform="translate(0 0)"/>
				<path id="path2192" class="cls-2" d="M42.29,305.09l-6.35-11.27-7.62-10,5.08-11.26-12.71-2.5,3.81-20,8.9-6.26-1.27-7.51,5.09-10,15.25-10,5.08-13.76-11.44-6.26L52.46,185,55,173.69l14-5V156.17L88,158.67l14-3.75,19.07,12.51,3.81-10,13-2.68,11.18,3.93,10.16-1.25,25.42,6.26,10.17,11.26,8.9,3.76,12.71,15-8.9,12.52,2.54,8.76-6.35,6.26-2.55,10h-8.9l-6.35-10-3.81,7.5h-7.63l-3.81,13.77,5.09,5-6.36,1.25-7.63,12.52-2.54,7.51-3.81,7.51,5.08,6.26-7.62,1.25h-5.09v-6.26l-16.52,1.25v10H124.9l-1.27,12.51,7.62,3.76-5.08,5v11.27l6.36,3.75,7.62,6.26-1.27,8.76-8.9,1.25-7.62-7.51L116,330.12v-5l-8.9-8.76H99.48l-2.54-8.76-14-7.5,1.27-6.26L83,290.07l-11.43,3.76-7.63,6.26-6.35-7.51Z" transform="translate(0 0)"/>
				<path id="path2175" class="cls-2" d="M334.6,123.64l-3.81-10-10.17,7.51-5.08-7.51,7.62-6.25-3.81-6.26L313,99.86l-3.81,3.75-12.71-6.25-2.54-11.27,12.71-18.77,11.44-3.75v7.51l3.81,2.5,11.44,3.75L341,84.84l16.52-1.25,3.82,8.76-7.63,1.25,6.36,7.51-6.36,7.51h15.25l5.08,8.76-1.27,3.75H365.1l-7.63-7.5v11.26l6.36,7.51L374,143.66l1.28,7.51-3.82,3.75,11.44,22.52,20.34,3.76,10.16,10,1.27,7.51-5.08,2.5,1.27,2.5,8.9,1.25,10.17,5,8.9,10,16.52,3.75L463,210l5.09,1.26,1.27,6.25,6.35,2.5,5.09,5,5.08-3.76L483.3,245l10.16,1.25,14,15L510,260v7.5h11.43l1.27,3.76-11.44,15-6.35,1.26,1.27,15-14,10-3.81-1.25-1.27-11.26-3.82,1.25-2.54,6.26-10.16-1.25-7.63-2.5-1.27,2.5-25.42-15s6.36-7.51,0-8.76a46.91,46.91,0,0,1-12.71-5v-8.76L415.94,270l-11.44-8.76-12.71-5-7.62-8.76-16.3-5.31L360,230l-6.36-28.78,3.82-18.77v-7.51l-20.34-12.51,1.27-25,10.17-3.75-6.35-8.76Z" transform="translate(0 0)"/>
				<path id="path2174" class="cls-2" d="M210.05,212.48l-6.35,6.26-2.55,10-8.9,2.5L184.64,220l-2.55,8.76h-8.9l-3.81,13.77,6.35,3.75V250l-7.62-1.26-11.44,25,3.81,6.26-2.54,3.75-10.17,1.25-1.27-7.5-3.81,2.5-14-2.5,2.54,12.51-6.35-2.5-1.27,11.26,6.35,3.76-3.81,8.76,1.27,8.76,12.71,10v10l5.09,3.75L144,355.14l-5.09,2.5v10l7.63,5H158v10l8.9,6.25,3.81,8.76,15.25,1.25,8.9-2.5,2.54,6.26L208.79,404v5l17.79,2.5,5.09-5L238,402.7S253.27,409,249.46,404s-3.82-13.77-3.82-13.77l7.63,7.51,7.62-7.51V402.7l6.36,2.5,5.08,11.27L267.25,429l-6.36,3.76,7.63,3.75,1.27,10,16.52,16.27,3.81-6.25,3.82,5v5l31.77,2.5,3.81,5-1.27,8.77,14,7.5,12.71-2.5,6.35,10,17.8-2.5,38.12,8.77,10.17-5v-8.76l-10.17-11.26-1.27-11.27-14-11.26,2.54-5-3.81-2.5h-6.35l-1.27-7.51H381.62L374,432.74l3.81-2.5-12.71-7.51-8.9-35-5.08-12.51-19.07-3.75-8.9-20-17.79-11.26-2.54-17.52-14-3.76-5.08-5-7.63-1.25L280,298.84H267.24l-1.27-30-10.16-17.52-11.44-2.5-3.82-10V227.51L219,223.75Z" transform="translate(0 0)"/>
				<path id="path2176" class="cls-2" d="M417.21,477.77v-10L400.69,456.5l3.81-6.26-10.17-2.5v-5l-12.7-1.26-10.17-8.76,6.35-1.25-16.52-8.76-10.17-46.3-20.33-5-8.9-20-15.25-8.76-5.08-20,12.71-12.51-3.82-12.52,14-3.75L346,297.56l3.81-10,12.71,10-1.27-15L374,270l5.08,10,15.25-22.53L413.39,270h8.9v8.76l14,5,5.08,11.26,20.34,12.52,2.54-5,15.25,7.51,3.81,3.76L482,317.59l11.44,2.5,3.81,5-11.43,5L496,333.86l3.82,5v8.76l-3.82,2.5v6.26l7.63,3.76,1.27,3.75-5.08,3.76-10.17,7.5,3.82,6.26-6.36,3.76-3.81-6.26-7.63-2.5-1.27,3.75-10.16-1.25-5.09,6.26,12.7,11.26-1.27,8.76,7.63,5-8.9,11.26-8.9,1.25-8.9,10L438.8,456.51V459l3.81,6.25-6.35,2.5,14,10h-33Z" transform="translate(0 0)"/>
				<path id="path3151" class="cls-2" d="M498.54,346.38v-8.76l-11.43-10,11.43-1.25-7.62-7.51H482l-3.81-11.27,8.9-7.5v8.76l6.35,5,11.44-10,1.27-16.27,16.52-13.77-1.27-5L510,267.54v-8.76l-5.08,3.75L492.19,245H482l3.82-22.52h17.79l2.54,5-1.27,6.26,7.62,7.51,2.55-5,6.35-2.5v-6.26l-6.35-1.25L513.8,215l14-10h11.44v-6.26l-3.81-2.5-1.27-10-3.81,1.25-2.55,5-2.54,3.75-5.08-2.5,5.08-8.76-2.54-5-2.54-5v-6.26h5.08l7.63-8.76,2.54-6.25-1.27-7.51,3.81-3.76h11.44l7.62,6.26-5.08,5-1.27,6.25-1.27,2.5,3.81,7.51,5.09-3.75h14l3.82,11.26,12.7,21.27-5.08,2.5v7.51l7.63,2.5L597.67,230h12.71l-12.71,11.26L610.38,245l8.9,3.75v3.76l-6.35,6.25-11.45,10,1.28,13.77-6.36,8.76,5.09,8.76,5.08,8.76-7.63,7.51v7.51l6.36,1.25-2.55,10,11.44,8.76v32.54l-6.35,12.51-1.27,20L604,420.22,600.21,424l-1.27,13.77L592.59,434l-8.9-5v7.5l5.08,3.76L577.33,449l-5.08-1.25v-5l-2.54,2.51L559.55,444v-6.26l5.08-2.5L559.55,434v-6.26l3.81-10L548.11,414l8.9-3.76-5.09-7.51v-5l-11.43-10h-8.9L529,393.93l-3.81-10L510,376.41l-5.08-13.77-6.36-6.25v-10Z" transform="translate(0 0)"/>
				<path id="path2177" class="cls-2" d="M394.33,497.79l21.6,7.51,10.17-5,2.54-8.76-10.16-13.77L447.71,479l-11.44-11.26,8.9-1.25-6.35-10L456.61,429l6.35-7.51,6.36,2.5,10.16-13.77-8.9-5,1.27-11.27-11.44-8.76,3.82-6.25,10.16-3.76,10.17,2.5,1.27,10,10.17-5-6.36-8.76,15.25-8.77,10.17,13.77,8.9,6.26,5.09,11.26,3.81-7.51h7.63l10.16,8.76v5l6.36,6.26L544.3,415.2,563.36,419l-3.81,3.76V434l2.54,2.5-3.81,1.25V444l10.16,1.25,5.09-5v6.26l3.81,2.5v20l6.36,13.77,1.27,8.76-8.9,12.52-6.36-1.26-8.9,7.51-1.26,11.28-8.9,12.51L543,542.85v6.26l3.81,6.26,5.08,1.25-6.35,3.75L543,567.88l-2.54-5-14-1.25-11.44,3.75-2.54,6.26h-6.36l-2.54-5-19.06-3.75-5.09-6.26-3.81-1.25-3.81,5-6.36-3.76-3.81-1.25-2.54,5L449,559.12l-3.81-12.51h-5.08l-3.82-3.76-14-1.25-5.08,6.26-7.63-6.26v-3.75l-10.16-13.77H395.6l-5.08-6.26L388,511.56Z" transform="translate(0 0)"/>
				<path id="path3149" class="cls-4" d="M497.28,355.14" transform="translate(0 0)"/>
			</g>
			<g id="Rajshahi" class="cls-1">
				<path id="path5240" class="cls-2" d="M327,898.24v-8.76l5.08-8.76,6.35,6.25,25.42-5,12.71-10,2.54-10,7.62,2.5,11.44-6.26,7.63-22.52,7.62,3.76,1.27-10,10.17-10,26.69,6.26,8.9,3.76v12.51l3.81,7.51,8.9-5,7.63,2.5-5.09,3.75v10l5.09,3.76H492.2l5.08-6.26,5.08,8.76-7.62,6.26h6.35v7.51l-7.62,3.75,2.54,8.76,11.44,1.26L524,908.25,535.4,907l16.53,13.77,8.9,12.52-12.71,2.5v7.51L543,944.55l1.28,11.26,6.35,7.51,10.17-2.5,5.08,15h-5.08l-10.17-11.26,3.81,15,15.25,2.5,11.44,7.51-11.44,3.75-6.35,3.76-15.25-1.25-15.25-6.26-17.8,5-11.43,5-30.5-18.77-5.09-12.52L452.8,952.06h-6.35l5.08,12.52-6.35,7.51-14-2.5-8.89-12.52-12.71-13.76-5.09-2.51H386.7l-7.62-5h-14l-7.63-1.25-10.16,8.76v-6.26l-10.17-3.76-5.09-10L334.6,907,327,898.24Z" transform="translate(0 0)"/>
				<path id="path2180" class="cls-2" d="M164.3,678l-7.62-6.25-8.9-2.51,1.27-5,17.8,3.75L163,660.47H151.59l-11.44-5,6.36-7.51-11.44-2.5-5.08,5-10.17-5,2.54-8.76,10.17,3.75,2.54-5,14,1.25,3.82-5L163,615.42l-12.71-12.51-3.81,11.26-7.62,1.25,2.54-12.51-7.63-8.77-7.62-1.25-3.82,8.76-15.25-1.25-2.54,10h-3.81l-1.27,5h8.9v6.26l-5.09,7.51-2.54-7.51h0l-6.35,6.25-2.54-6.25-7.63-5-3.81,7.51,3.81-12.51-12.71-8.76,1.27-7.51-8.9-1.25-1.27,3.75H52.46L42.3,604.16,41,610.42l6.35,6.25,2.54,17.52-22.87,15,2.54,10L22,658l-3.81,3.76-1.27,10-1.27,8.76-1.27,6.26L8,685.5l-6.36,3.76L5.45,693l6.35,5-1.27,5,14,8.76-1.28,7.5,7.63,7.51-3.81,11.26,5.08,10,6.35,7.51h8.9L55,763.1l5.08,6.25L69,768.1l31.76,10h12.71v-6.25h-1.27l-6.35-10V744.32l-6.35-7.51V725.55L114.74,718l10.16-1.25h0l14-8.76-1.27-10H164.3l2.54-2.5-5.08-3.76-5.08,2.5-8.9-5Z" transform="translate(0 0)"/>
				<path id="path2184" class="cls-2" d="M315.54,671.74l-1.27-26.28-5.09-3.75L319.35,633H327l3.81,8.76,1.27-8.76h3.81v7.51l8.9-11.27,6.36,6.26,15.25-12.52-12.71-12.51,6.35,2.5,1.27-18.77,7.63,3.76,1.27,7.5,14,1.26v5h10.16l-1.27-7.51-6.35-3.75V592.9l6.35,1.25,7.63-20,8.9,5-3.82-7.51h8.9l-6.35-8.76L421,555.35l1.27-8.76-5.08-1.25,5.08-5,14,2.5,8.9,5,2.54,11.26,11.44,2.51,2.54-6.26,11.44,6.26L477,554.1l10.17,10,15.25,2.5,6.35,6.26h5.09l3.81-8.76,21.6-2.5,3.81,6.26,3.82,1.25-3.82,10h5.09l2.54,8.76-5.09,7.51,5.09,3.76-2.54,6.25,5.08,7.51,1.27,8.76-6.35,1.25V634.2l10.16,11.27h8.9l3.82,6.25-2.55,3.76h-17.8l-2.54,3.75v7.51h-2.54v8.76L532.86,693l-8.9-8.76L517.61,688l-5.09-5v6.26l-5.08,5-1.27,10,5.08,2.5-2.54,6.26,1.27,2.5,7.63-1.25,7.62,6.26-5.08,6.25,8.9,5L524,738.08h-7.63l-1.27,5-7.62-2.5-5.1-7.51-1.27,6.26h-7.62l-3.82-5-10.16,5-8.9,1.25-10.17-6.26L435,735.57v-6.25l-6.35-8.76h-3.81l-7.62-7.51L407,711.79,402,715.55l2.54,10-1.27,3.75-14-11.26v-5l5.08-3.76L391.79,703l-7.63,6.26-3.81-3.75L374,719.3l-8.9-17.52,6.35-7.51-1.27-18.77-6.35,6.26-12.71-1.25,1.27-6.26L341,655.48l-8.9,10-3.81-5Z" transform="translate(0 0)"/>
				<path id="path3179" class="cls-2" d="M282.49,895.74v-6.26l12.71-1.25L292.66,882l-16.52-2.5,5.08-5-5.08-2.5,7.62-3.75-5.08-7.51L299,853.19l-6.35-10v-7.51L280,836.92l-5.08-12.52,16.52-11.26-2.54-40,12.71-8.76-8.9-8.76H285l11.44-7.51,12.71,2.5,5.08-10-1.27-5h8.9l-1.27,6.26,7.62,6.26,10.17,1.25,8.9,1.25,11.44-7.51L360,729.29h-5.09V718l10.17-12.52,8.9,15L379.08,708l5.09,2.5,7.62-7.51,3.82,5L388,716.77,403.23,728l1.27-5-5.08-6.26,6.35-6.26,11.44,2.5,7.62,6.26,7.63,6.26,3.81,8.76,3.81,3.75-21.6,28.78-12.71,15,7.63,3.76,2.54,7.51,6.35,3.75,1.27,23.78-10.17,10v6.26L407,835.65,395.6,858.18l-8.9,5h-7.63L375.26,872l-11.44,8.76-22.87,5-5.08-5-3.82-1.25L327,888.22V897l-15.25-1.25L299,892l-5.08,6.25Z" transform="translate(0 0)"/>
				<path id="path3168" class="cls-2" d="M109.65,779.36l3.82-8.76-8.9-11.27,1.27-16.27-7.63-8.76,1.27-10,25.42-7.51,15.25-7.51-1.27-10L163,700.51l3.81-3.75L163,690.5l-6.36,3.76-8.9-5,16.52-8.76,19.07,6.26,1.27,10,7.62,2.5,7.63-8.76,6.35,5L205,709.27l11.44,5,28-15-1.27-2.5,14,5,7.62,6.26,10.17-1.25,8.9,8.76,10.17-3.75v12.51l1.27,6.26,10.16,5h6.36v7.5l-2.54,6.26-14,1.26-7.63,6.25h5.08l7.63,7.51-11.44,8.76,1.27,6.26h0l1.27,33.79-12.71,8.76-2.54,3.75h0l6.36,12.52,10.16-2.5,1.27,7.51,2.54,6.25,3.82,3.76-16.52,6.26-5.09,5,6.36,5-7.63,3.75,5.08,3.76-5.08,3.75,14,2.5,2.54,5-10.16,2.5-1.28,5h-12.7L252,888.24l-11.44-10-5.08-2.5-8.9-2.5v-5l10.17-2.5L238,839.43l-8.9-18.77L219,819.4l-5.08,7.51-19.06-1.25-11.44-6.26-8.9,7.51L163,820.65l-11.44-11.26-5.08,1.26-1.27-6.26-11.44-2.5-12.71-6.26Z" transform="translate(0 0)"/>
				<path id="path4248" class="cls-2" d="M422.29,816.9V798.13l-6.35-5v-5l-8.9-7.51,34.31-41.3-2.54-5h22.88l8.9,7.5h8.9l11.43-6.25,10.17,5,2.54-8.76,5.09,10,8.9,2.5v-6.25H524l6.36-5-10.17-6.25,5.08-5-8.9-7.51-7.62,1.25-2.55-1.25,6.36-6.26-6.36-3.75L510,690.5v-8.76l6.35,6.26,7.63-2.5,7.62,7.51,16.52-17.52L545.57,668l2.54-12.52,15.25,1.25,5.09,6.26,3.81,3.76,2.54-5h3.82L585,668l3.81,1.25,1.27,7.51L582.43,678l-1.27,3.76,7.62,6.25v18.77l-2.55,10h-7.62L585,724.3l1.27,8.76-6.35,3.76-1.27,7.5-5.08-1.25-6.36,7.51,6.36,8.76v10l-8.9,6.25-3.82,6.26,17.8,18.77L571,808.15l1.27,5,8.9,6.26,6.35,10L585,865.72l3.82,5L585,874.48v5l3.82,1.26,5.08,5v3.75l3.81,3.76-1.27,15-8.9,17.52L571,932.05h-8.9l-10.17-12.52-15.25-11.26H525.23L508.71,894.5,496,892l-1.27-6.26,6.36-2.5,1.27-8.76-5.09-2.5,3.82-2.5v-5L496,858.21l-3.81,2.5-11.44,2.5-3.81-2.5v-8.77l5.08-2.5s0-7.51-5.08-7.51h-6.36l-3.81,6.26h-2.54l-2.54-7.51v-10l-11.44-7.51-10.16-2.5Z" transform="translate(0 0)"/>
				<path id="path2179" class="cls-2" d="M316.81,634.2v-8.76l12.7-1.26L327,601.66l5.08-1.25-1.27-26.28-7.62-12.51h-2.54l-5.09,6.26-6.35,1.25-6.36-11.27v-5h5.09l3.81-20h-14l7.63-2.5-7.63-10,5.08-6.26-10.16-1.25h-5.09l-16.52-10-3.81,8.76-8.9,6.26H255.8l-6.36-7.51-6.35,3.75-15.25-8.76-8.9-2.5-2.54,5-24.15-1.25-6.35,12.51h-6.35v-7.51l-3.81-3.75-3.81,5-5.09-6.26h-7.62l-6.36-5-2.54,5-8.9,3.76h0l-1.27,10,10.17,5v3.75l-8.9,3.76v17.52l2.54,3.75-6.35-1.25-1.27,11.26,6.35,5-5.08,6.26-6.36,3.75v7.51l-6.35,1.25v5h8.9l7.63,7.51,1.27,13.76h3.81v-5l1.27-5h5.08l8.9,8.76v5l-8.9,15-6.35,2.5-10.17,1.25-1.27,3.75L123.63,638l-3.81,7.51,8.9,5,5.08-2.5h15.25L144,655.49l6.35,2.5L163,659.24l3.82,7.51L160.49,668l-6.35-2.5h-5.09l-1.27,3.76,8.9,2.5,7.63,3.75,1.27,3.76,6.35,3.75,14,3.76v8.76l6.36,2.5,7.62-10,6.36,8.77L205,710.55l5.08,5,1.27-2.5h6.36l7.62-3.76,17.8-12.51h5.08l1.27,5,8.9-1.25h0l6.36,7.51,2.54-2.5h8.9l7.62,8.76,1.27-2.5,7.63-1.25,3.81,5v12.5l6.36,5,6.35,1.25,14,1.25v7.51l2.54,2.5h5.09l1.27-3.75v5h7.62l2.54,7.51,5.09-6.25,3.81,1.25,8.9-7.51V729.32l-3.81-2.5v-8.76l10.16-15,3.82-6.25-1.27-11.27,2.54-10-6.36,5-14,1.25,1.28-11.27-8.9-15H341l-10.16,10L327,664.24l-11.43,10-1.28-27.53-5.08-2.5Z" transform="translate(0 0)"/>
				<path id="path3152" class="cls-2" d="M329.52,624.19l-1.28-22.52,2.55-2.5,1.26-27.54-7.62-7.5h-6.36l-2.54,5h-5.08l-5.08-10v-6.26l3.81-1.25,1.27-18.77-7.62-1.25,3.81-2.5-5.08-10,6.35-6.26-1.27-8.75,2.54-17.52,15.25-5,5.09,1.25L341,491.54l14-2.5,6.35,8.76,17.79-2.5,14,5-5.08,10,6.35,10,6.36,5,8.9,12.51-1.28,3.74,11.44,7.51v5l-7.62,6.26-5.09,2.5,5.09,7.51-7.63,2.5,2.54,5-7.62-3.75-6.36,17.52H388v10l3.81,3.76-1.27,5-6.35-1.25v-3.75h-14l-1.27-8.76L360,592.9l-1.27,17.53h-3.81l1.27,5,7.63,5v3.75L352.4,631.7l-3.81,2.51-6.36-5-6.35,7.51v-5h-6.36v5L327,633h-8.9v-7.51Z" transform="translate(0 0)"/>
			</g>
			<g id="Khulna" class="cls-1">
				<path id="path7082" class="cls-2" d="M248.18,1158.53l15.25,3.75,7.62-5,5.09,6.25,10.16,1.25,1.28-13.76,8.9,1.25,16.52-10-1.27-6.26-10.17-6.26,5.08-2.5,2.54-17.52-3.81-6.26-6.35-3.75,7.62-3.76,15.25,6.26,1.27-6.26-5.08-6.26-1.27-3.75h7.62l10.17-17.53-1.27-20,8.9-3.75,3.81-8.76h6.36v-5l-6.36-7.51,1.27-5,7.63,3.76v6.26l7.62,2.5,1.27,7.51h5.09l5.08-7.51,8.9,3.76,6.36-8.77h11.43l3.82-7.51L419.76,1029l10.16,1.85,1.28,5,17.79,15,1.27,7.51-2.54,3.75h-3.83l-2.54,5,3.81,3.75,1.27,5-3.81,1.26v7.5l5.09,2.51-1.28,2.5h-6.35l-6.35,10,1.27,13.77-1.27,13.77-3.82,6.26-5.08,5-6.35-1.26-7.63,15-1.27,8.76,5.08,1.25-5.08,3.76v6.26l-6.36,6.26-5.08-5-2.54,3.76,3.81,10-8.9,3.75-21.6,3.76-6.35-15H352.39l-5.08-11.27,7.62-5-12.71-5-5.08-3.75-3.81,3.75,7.62,10H328.24l-10.16,5,7.62,7.51,7.63,3.76-10.17,1.25-16.52-5-3.81,1.25,7.62,5-3.81,8.77-3.82,6.25-1.27,6.26H280l-12.71-6.26v8.77l-12.71-1.26-2.54-6.25-10.17-1.25-6.35-3.75v-6.26l-7.63-5v-6.26l2.54-5,10.17-2.5-1.27-6.25,8.9-8.78Z" transform="translate(0 0)"/>
				<path id="path8053" class="cls-2" d="M415.94,1163.53l-6.36-3.75v-6.26l8.9-15,6.36,1.25L435,1127.23v-15l-1.27-12.52,3.82-10h8.9l2.54-3.75-6.36-1.25v-8.76h3.82v-5l-5.09-5,1.27-5,6.36,2.5,2.54-5-1.27-7.51,1.27-3.75,16.52,1.25,2.54,6.26,12.71,10,3.81,12.52,5.09,6.25v8.76l5.08,6.26,5.08,2.5v5H496l-5.08,3.76,1.27,3.75h19.05l10.17,6.26,2.54,8.76h3.81v13.77l8.91,13.77,2.54,7.51L527.78,1156l-5.08,5,6.35,2.5v16.27H513.8l-6.36,11.26-6.35,2.5-8.9-11.26-5.09,2.5-7.62,10-5.09,2.5h-2.54l-6.35-7.51-3.81,1.25-7.63-8.76h-1.27l-2.54,2.5H443.9l-6.36-5-1.27-7.51-7.62,1.25-12.71-10Z" transform="translate(0 0)"/>
				<path id="path2204" class="cls-2" d="M300.29,1206.08l10.16-17.52-10.16-8.76h7.62l12.71,6.26h14l-16.52-12.52,6.35-5,17.79,1.25-8.9-10,3.82-6.26,2.54,5,15.25,5-6.35,5,3.81,10,11.44,1.25,5.08,15,15.25-2.5,16.52-3.75-5.08-10,1.27-5,6.35,5,7.63-6.25-2.54-7.52,5.08-2.5,16.52,11.27,6.35-1.25,1.28,6.25,7.62,7.51,6.36,1.26,3.81-5,6.35,8.76,11.44,3.75-3.81,6.26,6.35,3.76-3.81,3.75,1.27,15-3.81,5,2.54,11.26-11.44,1.26v3.75l6.35,2.5,1.28,5-3.82,1.25,1.27,8.76,11.44-7.51h3.82l-1.27,12.52,7.63,2.5v2.5h11.44l2.54,3.75-2.54,8.76,7.62,12.52s6.36,8.76,1.27,8.76h-7.62l-8.9-2.5L487.1,1300l-6.35-15-3.81-3.75-8.9,6.26,2.54,8.76L463,1307.46,446.44,1315l-1.28,6.26,5.09,6.26L449,1343.76l-1.27,5-14-6.25v-6.26l-5.09-1.25-1.27,3.75-11.44,10-7.62-1.25-11.44,6.26h-7.62l-8.9-6.26-1.28,1.25L374,1345l-1.27-6.26,7.63-1.25-8.9-11.26,7.62,1.25,1.27-3.76-5.08-8.76-10.17-6.26-1.27,7.51h-19.7l-8.26-6.26-6.35-3.75h0l5.08,11.89-5.08,5-19.07-2.5-5.08-5.63-6.36,3.76h-5.08l3.81-7.51L282.48,1305l2.55-22.52,7.62-2.5-3.81-6.26v-6.26l-5.09-3.75,10.17-16.27,12.71-5-1.27-10,12.71-8.76,5.08,3.75,3.81-7.51-5.08-2.5-1.27-6.26-11.44,8.76-6.35-3.75-2.54-10Z" transform="translate(0 0)"/>
				<path id="path2205" class="cls-2" d="M473.13,1206.08l-6.36-8.76,10.17-1.25,10.17-10,3.81-3.75,7.63,11.26,8.9-3.75,6.35-8.76h14l3.81,10h10.16l1.27,2.5-8.9,10,3.82,7.51h14l6.35,7.51v5l-3.81,6.26,3.81,1.25,8.9-6.26,10.17,1.25-1.27,8.76-3.82,8.77-5.08,10h-6.35l-10.17-2.5,16.52,13.76,5.08,7.51,5.09,12.52,14,8.76V1300l-3.82,1.25-11.43,2.5-29.23-11.26-10.17,11.26-16.52-8.76-5.08,7.51h-3.82l-14-16.27,5.09-7.51-3.82-7.51-12.71-1.25-6.35-6.26,2.54-10-5.08-1.25-11.44,11.26,2.54-10-1.27-7.51-7.63-2.5,14-2.5-2.54-11.27,5.09-5-2.55-18.77Z" transform="translate(0 0)"/>
				<path id="path2206" class="cls-2" d="M327,1304.94l8.9,11.26-6.36,7.51-7.62-5L311.73,1320l-5.08-5-11.44,6.26,2.54,10,7.63,8.76,3.81-6.25,5.08,2.5-1.27,6.25,5.08,2.5-1.27,7.51-7.62,7.51,5.08,5-5.08,1.25-1.27,11.26-7.63-3.75,2.54,11.26L313,1398.8l-11.44,21.27,12.71,8.77-2.54,7.5-2.54,10,11.44,8.76-2.55,11.26,7.63,12.52,1.27,13.77,5.08,3.75-11.44,3.76,1.28,7.51,5.08,3.75-5.08,21.28,12.7,1.25,2.55,10-10.17-2.5v6.25l7.62,8.77,7.63,1.25V1569l8.9,7.51,1.27,16.27,11.44-2.5-8.9,12.52H343.49l-1.27,10,3.82,12.52,11.43,20-3.81,2.5-1.27,30,8.9,11.26,1.27,16.27,1.27,8.77,15.25,7.51,11.44-5,7.63,15L395.6,1738l7.63,7.51-5.08,11.26-11.44,12.52,15.25,6.26,15.25-3.76-2.54-6.26h8.9l1.27-7.51-6.36-3.75,5.09-7.51v-25l-5.09-2.5,10.8-8.77,8.27-23.77,7.63-7.51-3.82-11.27-10.16-18.77-10.17-20-3.81-8.76,8.9-8.76H404.5l12.71-17.52,6.36-13.77,5.08-31.28-12.71-20v-6.26l7.63-6.26-12.71-8.76,1.27-23.78,11.44-6.25-11.44-21.27,1.27-28.79,7.62-8.75,6.36,11.26,7.62-10-2.54-6.26-7.62-1.25-5.09-5,5.09-10,2.54,5,6.35,2.51,2.55-8.76,6.35-3.76-1.27-6.26-11.44-18.77-12.71-6.26L410.86,1350l-2.54-3.76-10.17,7.51-8.9,1.25-7.63-7.51-3.81,2.51-5.08-11.27,7.62-2.5L368.92,1325l10.16,2.5-5.08-15-7.62-5-1.27,8.76H344.77L327,1304.94Z" transform="translate(0 0)"/>
				<path id="path3186" class="cls-2" d="M440.72,1394.41l-4.45,1.88-1.9,9.39-6.35-3.13-2.54-6.89-7,11.27,5.08,5.63,8.27.62,3.17,7.51-7.62,10L421,1420.07l-8.27,7.51-.63,26.9,12.07,23.77-12.07,6.26-1.27,23.15,12.07,9.39-7,4.37-.64,6.89,13.35,21.27-5.72,30-17.79,31.91,21-.62-8.27,8.76,22.24,46.92,5.09,12.52,8.26,2.5.63,8.13-13.34,2.51-10.17,16.9,5.72,5,3.82,11.26h5.72l1.9,10,3.82,12.51,15.89,1.25L477,1734.8l5.09-3.13,5.08-9.39-2.54-5.63-3.18-7.51-12.07-7.51,9.53-5L496,1679.1l1.28-13.77.63-15.64H503l8.9-32.54.64-25.65-5.73-23.77,17.16-16.9,3.81-8.14,5.72-1.25,7.63-12.51v-15.65l-11.44-33.16-6.36-3.13v-15l-8.9-18.77-2.54-21.27L517,1410l10.16-10,6.36-21.9,5.08-4.38,4.45,3.13,9.53-9.4,4.44-8.76-1.9-10-3.82-3.75v-8.14l13.35-.62,8.26-6.89L578,1303l-29.23-10-12.7,11.26-14.62-8.76-6.35,8.14-6.36,3.75-14.61-1.87-5.72-3.76-10.17-19.4-9.53,3.76,3.18,10-9.53,11.26-15.89,7.51-1.9,5,5.09,5.63-1.27,24.4-14.62-6.88,1.27-6.26-5.71-2.5-.64,4.38-11.44,10-8.26-1.25,8.9,15,12.71,5.64,9.53,16.27.61,10Z" transform="translate(0 0)"/>
				<path id="path3188" class="cls-2" d="M222.76,874.46h14l12.71,11.27,17.79,10,14,1.25,14,2.5,5.08-8.76L310.45,897H327l7.63,13.77L332.05,922l3.82,11.26,5.08,1.26,6.35,1.25v7.5l11.44,5,3.81,10,5.09-6.25,6.35,3.75,7.63,8.76,17.79-1.25L386.7,952.06,402,948.3l14,10-10.17,3.76,1.27,7.51,11.44,8.76,7.63,5,7.62-1.25,5.08,2.5-1.27,11.26-1.27,17.53-8.9,10,2.54,6.25H421l-15.25-10-3.81-1.25-2.54,7.51H388l-6.35,8.76-7.63-2.5-10.16,8.76-1.28-11.26h-7.62l1.27-7.51-8.9-2.5-1.27,5,6.35,8.76-8.9,2.5-.74,8.47-9.42,4.05v-16.27l-1.27-11.27-5.08-6.26-5.08,3.76-6.36,8.76-6.35-15-10.17-2.5,6.36-7.51-11.44-2.5-8.9-6.26,5.08-5v-5l-7.62,1.25-5.09-3.75,8.9-5-3.81-10-5.08-6.26-8.9,5-3.82-12.51-3.81-5h-3.81v10l-14-15L238,935.79l-1.28-7.51,8.9-2.5-11.43-6.26,7.62-3.76-15.25-11.27Z" transform="translate(0 0)"/>
				<path id="path5134" class="cls-2" d="M241.83,943.29l15.25,16.27,1.27-12.51,7.62,7.51v7.5l3.82,5,7.62-7.51,8.9,13.77-11.44,7.51,7.63,6.26,7.62-2.5,2.54,5-8.9,3.76v2.5l-1.27,7.5-6.35-3.75-5.09,7.5,1.27,11.27-11.43,1.25.31,23.78-10.48,10.94-9.85,1.57-6.67,5-5.08-1.25-16.53,13.77-2.54,3.75-18.42.94,1.9-13.45-8.9-2.5-2.54-5,6.35-3.75,2.55-8.76-6.36-2.5,1.27-13.77,6.36-6.26-8.9-12.51,6.35,2.5,7.63-7.51v-2.5l-3.82-3.75,1.27-13.77-2.54-2.5,7.63-3.76,6.35,2.51v7.51l4.39-5.52,7.68-.43,13.35-14.09,8.26-.94,2.86-7.5-2.22-10.33Z" transform="translate(0 0)"/>
				<path id="path6105" class="cls-2" d="M207.51,1077.19l21.6-16.27,6.36,1.26,5.08-6.26,10.62-2.29,8.82-10.38.9-23.62,10.09-1.4-2.47-11.11,7.63-6.26,6.35,5,2.62-11.34,6.28,6.33,14.66,1.24-8.3,7.51,10.16,3.76,2.7,5.81,7.47,9.2,2.55-6.25,6.35-6.26,5.08,6.26,1.43,28.41-.16,16.64-3.81,13.76-3.28,4.36-8.16,1.9V1091l5.09,3.75L321.9,1101l-14-2.5-7.63,2.5,5.95,1.44,4.22,8.57-1.27,17.52-6.36,2.5,7.4,4.19L313,1141l-13.69,10.53-11.73.44-1.27,11.56h-8.9l-7.25-5.67-8,3.16H250.72l-3.81-3.75v-15l3.81-11.26,7.62,2.5-1-8.32,3-7.43-3.29-3.31-6.35-1,5.53,5.37-9.34,7.15-5.09-5,1.28-5-4.42-4-9.63-4.74-16.45-12.47,3.81-8.76Z" transform="translate(0 0)"/>
				<path id="path7070" class="cls-2" d="M576.85,1304.46l14.38-5.31-1.8,15.93,14.38,5.32-9,8.85,1.8,8.85,12.58,8.85,16.18-5.31L636.17,1354l1.8,24.77-12.58,5.31-7.19,3.54L616.4,1400h18l3.6,3.54v19.47l7.19,17.69-5.4,8.86,7.19,23-14.38-7.08-10.79-5.31-3.59,3.54L638,1477.91v5.31h-5.39l-9,10.62v23l-10.78,17.7-3.6,10.61-1.8,21.24,10.78,15.92,3.6,19.47-14.38,19.47,5.4,12.39-1.8,23,7.19,19.47v10.61H611v10.62l-25.17,15.93-9-7.08-21.56-1.77L542.71,1708l23.37,17.7-5.4,10.61H540.92l-14.38-3.53,9,17.7L522.94,1754l-14.38-5.31,5.4-12.39-10.79-15.93v-14.17l-1.8-14.15,3.6-28.32-3.6-15.92,9-24.78,1.8-30.09L505,1566.39l21.57-17.7,12.58-8.85,3.59-28.31-14.38-28.32-5.4-5.31v-12.39l-9-17.7-3.6-23,16.18-26.54,7.19-21.24H544.5l12.59-14.15v-12.39l-7.19-5.31v-10.62l19.77,1.77,5.39-14.15,1.79-17.71Z" transform="translate(0 0)"/>
				<path id="path4157" class="cls-5" d="M428.65,1724.15l-2.54,22.52,14,8.77,3.82-13.77Z" transform="translate(0 0)"/>
				<path id="path1921" class="cls-6" d="M364.32,1780.69c0-2.46-7.86-2.56-6-10C358.7,1769.19,368.57,1770.07,364.32,1780.69Z" transform="translate(0 0)"/>
			</g>
			<g id="Barisal" class="cls-1">
				<path id="path2242" class="cls-2" d="M625.63,1589l-2.54-18.77-7.62-10,1.27-18.77,10.16-17.52-2.54-11.27v-17.52l8.9-10h5.09l-6.36-6.26-15.25-23.77,17.79,10,11.44,10-1.27-11.26-5.08-13.77,6.35-8.76-6.35-17.52V1405l-5.09-5-17.79-2.51-1.27-13.76,20.34-7.51V1355l-1.28-5,2.55-3.76,1.27-8.76,19.06,2.5,6.36-8.76H665l8.9,11.26L672.67,1355H679l7.63,11.26h7.62l2.55,7.51,19.06,3.76,8.9,2.5-1.27,6.26-5.09,1.25v6.26l-8.9,6.26-2.54,10-14,8.76,7.63,7.51v10l-12.71,2.5v25l20.33,3.75,2.55,2.5-2.55,6.26-12.71,12.52-7.62-6.26-6.37,3.76-7.62-3.75,1.27,15-7.63,11.26,1.27,10,7.63-3.75,2.54,15-3.81,7.51-3.81,17.52-8.9,16.27-8.91,1.25L638.33,1589H625.64v0Z" transform="translate(0 0)"/>
				<path id="path3218" class="cls-2" d="M676.47,1515.17l-6.35,5-2.55-10,8.91-11.27-3.82-18.77,7.63,7.51,8.9-5,5.08,5,15.25-10,1.27-7.51-20.33-6.25-1.27-23.78,12.7-3.75v-8.77l-8.9-10,14-7.51,1.27-10,11.44-6.26-1.27-3.75,6.36-2.5,1.27-6.26-8.9-5,8.9-7.51,5.08-2.5,2.54,7.52h7.63l5.08-2.51,10.17,11.27-3.81,5-1.27,6.26,2.54,3.75h7.62l3.81,6.26,21.6,3.75,1.28,5-6.36,1.24-3.81,6.26,14,2.5,1.27,6.26-11.44,2.5s2.55,7.51-2.54,7.51-10.17-5-10.17-5l-3.81,5-7.63-1.25-3.81,7.51-2.54,7.51-8.9,3.75-14,8.76-8.9,6.26-1.27,8.76-2.55,15-10.16,6.26-5.09,11.26-6.35,7.52-17.79-5Z" transform="translate(0 0)"/>
				<path id="path4189" class="cls-2" d="M719.68,1468.87l16.52-8.77,16.52-7.51,5.09-13.76h7.62l2.54-3.76,15.25,3.76,2.55-8.77h8.9l-1.28-7.51-15.25-2.5,3.82-7.51,6.35,1.25-1.27-6.25L766.7,1405l-5.08-6.26-10.17-1.25,1.28-7.51,5.08-3.76-11.44-13.77h-8.9l-5.09-6.26-16.52,10-20.33-3.76-1.27-5h-5.08L681.55,1355h-8.9l1.27-12.52-7.62-10v-15l11.44-12.51,1.27-6.26,11.44-6.26,2.54-6.26,11.43-1.25v-15l15.26,1.25,5.08-7.51,6.35,2.51-1.27,30,17.79,7.51,10.17-2.51,6.35-3.75,7.63,5,3.82-8.76,15.25-7.51,17.79,3.76,17.79,10,12.71,11.26,15.25,6.26,15.25,6.26,11.44,10,7.63,17.52-7.63,8.77-12.71,6.25-21.6,15-11.44,11.27-1.27,8.76-15.25,2.51,8.9,13.76-3.81,10,1.27,11.27,5.08,7.51L815,1447.58l-14,7.51v8.76l-2.54,8.77-8.9-2.51-7.62-1.25-16.52-7.51-8.9,5-1.28,6.27L740,1478.87l-1.27-11.26-19.06,1.26Z" transform="translate(0 0)"/>
				<path id="path2245" class="cls-2" d="M722.44,1467.28l18,1.77-1.8,8.85,18-5.31v-3.54l10.78-7.08,12.58,5.31-3.6,14.16-12.58,1.77L751.2,1500.9l5.4,14.16-3.6,10.62-18,3.54-7.19,12.39-1.8,14.15,5.4,7.08,16.18-15.93,9-3.54,7.19,3.54,30.55,1.77,1.8,12.39-18,17.7-5.4,10.62,12.58,7.07v10.62l-12.58,21.24L762,1640.71v26.54l-18,21.24,1.8,19.47-16.17,5.31-14.38,8.85-16.18-3.54L686.49,1708l-23.36-5.31,5.39-8.85-7.19-8.85s-7.19-19.47,1.8-19.47,21.57-7.08,21.57-7.08l-12.58-5.31-12.58-1.77,1.8-17.7,9-10.61-5.4-8.85-5.39,12.39-9,1.77-1.8,12.39,5.4,5.31-9,10.62-14.37-23-3.6-17.69v-24.78h0l18-8.85,9-10.62,7.19,3.54,12.58-26.55,5.39-14.15-3.59-15.93,18,1.77,12.58-15.93,10.78-7.08,1.8-14.15,3.6-15.93Z" transform="translate(0 0)"/>
				<path id="path3216" class="cls-2" d="M780,1614.17l3.6-17.7L771,1589.39l19.77-21.23,5.4-5.31-3.6-14.16-27,1.77-9-5.31-25.16,14.15-3.6-8.84,1.8-17.7,23.37-5.32,3.59-10.61-7.19-15.93L763.8,1485l10.77-1.77L780,1469l16.18,1.77,5.4-15.93,25.16-7.08,1.8-12.39,12.58,12.39L851.87,1462l-1.8,17.7,14.38,5.31,9,28.31-12.58,7.08v15.93l-10.79,21.24L842.88,1577l-3.6,10.61,3.6,24.78L810.53,1623Z" transform="translate(0 0)"/>
				<path id="path4187" class="cls-2" d="M785.35,1623l18,8.84,9,8.86,1.8,14.16-5.4,15.92-9,12.39L780,1674.34l-5.4,12.39-5.4,17.7-12.58,5.31,3.6-19.47,7.19-14.16v-15.92l7.18-14.16,10.79-23Z" transform="translate(0 0)"/>
				<path id="path4190" class="cls-2" d="M821.29,1631.86l16.18-10.61,5.39,10.61-1.8,12.4-10.78,12.39-9,8.85v-33.64Z" transform="translate(0 0)"/>
				<path id="path4192" class="cls-2" d="M841.06,1662l-16.17,15.93-5.4,15.92,14.38,7.08,10.78-12.39-3.6-12.39V1662Z" transform="translate(0 0)"/>
				<path id="path5169" class="cls-2" d="M846.45,1600l16.18-17.7L877,1561.08l1.8-31.86-1.8-23-7.19-19.47-7.19-19.47v-19.47l-12.58-10.62L837.47,1423l1.8-15.93,10.78-17.69,16.18-8.86,7.19-8.85,25.16-1.77,5.39,19.47,10.79,38.94,18,21.23,12.58,15.93,7.19,10.62-1.8,19.47-5.4,5.31v23l-7.19,15.93-3.6,12.39-3.6,15.92v28.32l-12.58,8.86-7.18,14.15-21.57,7.08-1.79,10.62L877,1642.5l-14.38,8.85s-5.4-1.77-5.4-8.85-5.4-15.93-5.4-15.93l9-12.39L846.44,1600Z" transform="translate(0 0)"/>
				<path id="path5171" class="cls-2" d="M857.24,1674.34l9-12.39L877,1676.1l-7.19,7.08Z" transform="translate(0 0)"/>
				<path id="path5173" class="cls-2" d="M974.06,1516.83l-7.18,23-9,26.54v24.78l18,19.47v-46l9-23,1.8-12.39-12.59-12.38Z" transform="translate(0 0)"/>
				<path id="path5175" class="cls-2" d="M884.2,1647.79,878.8,1662h18Z" transform="translate(0 0)"/>
			</g>
			<g id="Chittagong" class="cls-1">
				<path id="path4177" class="cls-2" d="M920.48,1047.16l-15.25-6.26v-3.76l-12.71-10,3.81-10,11.44-13.77L909,985.83l8.9-5,3.82,5h11.43l3.82-3.76,21.6,2.5v-8.76l7.62-2.5L971.32,952l10.16-2.5-6.35-11.27L986.57,922l14-6.25-1.27-5,7.62-7.51-2.54-12.52-7.63-1.25-7.62-13.77,10.17-12.51,17.79,2.5,6.35-10,21.6-7.51,21.6,6.26,11.44,7.51,14-20,10.17,2.5v7.51l-16.52,11.26,10.17,6.26v6.26L1083.16,872l-1.27,15,7.62,5-8.9,2.5,6.36,20,6.35,8.76V927l-5.08,2.5v13.77l-14,6.26,5.08,12.52-10.17,2.5-7.62,15,7.62,8.76,1.27,6.26-6.35,5-2.54,10,5.08,10-7.62,10-5.09-3.75H1045l-6.35,5,1.27,15,6.35,2.5,3.82-5,3.81,2.5v16.28h-5.08l-8.9-7.51-2.55,3.76-10.16-10v-10h-5.08l-1.27-5-10.17-2.5,6.36-5-14-11.27-20.34-1.25-8.9,7.51H958.6l-6.35,1.26,2.54,10-11.44,2.5-14-10-7.63,5,1.27,3.76,3.81,3.75-6.35,10Z" transform="translate(0 0)"/>
				<path id="path3208" class="cls-6" d="M875.21,1062.46l-1.36,11.93,7.65,9.74,2.24,5.75,4.94-.89,6.74-10.18,7.64-12.83-3.6-9.29.45-10.62-7.27-8.54-7.56,14.3-12.14-3.1-.44,9.29Z" transform="translate(0 0)"/>
				<path id="path4179" class="cls-2" d="M894.08,1091.66l11.23-20.36,4.05-6.19-5.4-8.85,1.8-15,14.38,6.19,6.29-9.29-3.14-5.31-.9-4,5.84-3.54,14.83,9.73,11.23-3.1-1.36-9.29,6.74-1.78,14.83.44,8.09-7.52,19.32,1.33-3.15-.88,11.24,6.19,6.73,5.75-5.39,4.42,9.44,3.1,1.8,4.43h4.94l-.9,9.73,10.33,9.73,2.25,4.43-.45,11.5,3.15,7.52,10.33,10.62-.45,7.08,6.3,2.21-3.15,2.65.45,5.31,13,10.18,6.73,21.68,6.74,21.69,1.14,7.45-1.59,5.37.9,4.43,9,4.86-3.6,3.1-.45,4,3.15,6.64,2.7,3.54-.9,4.43,1.8,34.06,4.49,5.75,4.94,9.73-1.35,11.07-9.89,5.75-12.58-6.64-10.78.44-16.18-2.21-8.09-5.31-8.08-.45-9.44,5.32-3.15-2.22h-9l-11.69-5.75-5.84-10.17-.45.88-7.18-.44-4.94-7.08,8.53-2.21,5.4-7.52-.9-15.48,5.84-9.74-6.74-6.19-1.35-9.73-8.09-9.73-3.6-8-13.48-9.73-1.8-8.85-9.44-6.19-3.6-17.25-18-4.87-13,11.06-4.94-3.1-4.94,10.18h-5.4L897.19,1135v-8.4h-.44l-5.84-6.19-8.54-8.4,7.19-4-.45-8.4,5-8Z" transform="translate(0 0)"/>
				<path id="path5150" class="cls-2" d="M860.75,1287.42,848,1266.15,843,1253.63l6.36-17.52,8.9-15,11.44-12.51,3.81-12.52-5.08-10v-8.77l-8.9-5-8.91-2.5V1161l-7.62-3.76,6.35-12.51,2.55-12.52,1.27-10,12.7-3.76,8.91-3.75,7.62-1.25,14,12.51,1.27,8.76,14,6.26,6.35-8.76,5.09,5L935.73,1121l21.59,6.25,2.55,16.27L971.3,1151l1.28,11.26,12.7,11.26,11.44,15-1.27,8.76,10.17,8.77-7.63,7.51,1.27,16.27-3.81,8.76h-8.9l-5.08,2.5-7.63-5-14,1.25-6.35-10h-6.35l-7.63,3.76-3.81,12.52-2.54,8.76-17.8,6.25H909l-12.71,7.51h-2.54l-3.81-7.51h-3.81l-3.82,5-1.27,12.52v6.26l-7.62,8.76-12.71-3.77Z" transform="translate(0 0)"/>
				<path id="path6121" class="cls-2" d="M870.92,1289.92l3.81,12.52,16.52,6.25,2.55,10,5.08,10,16.52,13.77,6.35,23.77,11.44,26.28,5.08,20,22.88,22.52,7.63,13.77,17.79,6.26,20.33-15-3.81-17.53-14-22.52,1.27-7.51-20.33-30-1.27-20,12.71-6.26,3.81-15v-21.27l-12.71-8.76-15.25-6.26-1.27-5,10.16-3.76-5.08-8.76,6.36,1.25,12.71-28.78-7.63-3.75H959.88l-5.09-10-14,2.5-7.62,25-20.34,6.26-2.54-2.5-16.52,8.76-5.08-7.51h-3.82l-3.81,3.75v23.78l-10.16,3.76Z" transform="translate(0 0)"/>
				<path id="path6152" class="cls-2" d="M971.32,1340l10.17-12.52,5.08-20-10.17-12.51-17.79-12.52,2.54-12.52,15.25-27.52,20.34,7.51,20.33,17.52,20.34-7.51,12.71,2.5,28,7.51,2.54,10-2.54,12.52v10l-7.63,22.52,22.88-2.5H1106l-10.16,15V1350l5.08,17.52L1085.7,1360l-15.25,5-28-2.5-15.25-10-7.62,10s-7.63,7.51-17.8,2.5-28-22.53-30.5-25Z" transform="translate(0 0)"/>
				<path id="path6154" class="cls-2" d="M996.74,1395h28l12.71,15,10.17,17.52-7.62,15-17.8,7.51-12.71-2.5-2.54-22.52-10.17-30Z" transform="translate(0 0)"/>
				<path id="path6156" class="cls-2" d="M1040,1380l33,2.5,15.25,12.52-2.54,15-22.88-10L1040,1380Z" transform="translate(0 0)"/>
				<path id="path6158" class="cls-2" d="M1085.7,1455.1l-25.42-7.51v-32.53l20.33,10,7.63,12.52Z" transform="translate(0 0)"/>
				<path id="path6160" class="cls-2" d="M991.65,1467.62l33.05,2.5,10.16,22.52,2.55,20,10.16,12.52-2.54,27.53-5.08,27.52-17.8,12.52-15.25,17.52-7.62-2.5,2.54-25,2.54-27.53,2.54-25-2.54-25Z" transform="translate(0 0)"/>
				<path id="path7138" class="cls-2" d="M1101.67,1362.86l-7.19-10.61,1.8-10.62,10.78-19.47-12.58,1.77-16.18-3.53-5.39,5.31,3.6-14.16-1.8-12.39,3.59-10.62-5.39-21.23,19.77,5.31,10.78-8.85,10.79,3.54,7.19-7.08-5.39-15.93-3.59-10.61v-10.62l3.59-14.16,1.8-12.39,16.18,3.54,10.78,17.69L1155.6,1239l3.6,15.93v14.15l12.58,17.7-1.8,12.39,14.38,5.32-19.77,1.77,1.8,19.47H1152l-10.79,7.08-5.39,15.93-12.58,17.69v12.39l-7.19-3.54v-8.85l-14.38-3.55Z" transform="translate(0 0)"/>
				<path id="path2436" class="cls-2" d="M1089.09,1375.25l16.18,5.32,3.59,12.39-5.39,1.77Z" transform="translate(0 0)"/>
				<path id="path2438" class="cls-2" d="M1099.88,1410.65l10.78,19.47,7.19,10.61v7.08l-3.6,1.77-3.6,17.7,5.39,19.47,16.18,17.7,10.79,5.31v10.62l1.8,3.54h14.37l9-10.62,3.6-10.62v-10.61l-3.6-10.62-28.76-47.78-1.8-10.62Z" transform="translate(0 0)"/>
				<path id="path2440" class="cls-2" d="M1254.44,1568.15l-10.78-7.07-3.6-21.24-1.8-19.46v-7.09l-12.58-19.46-9-24.78-14.38-12.39-10.78-15.93-7.19-14.16v-5.31l-7.19-8.85-9-7.08-27-19.47,5.4-8.85L1134,1364.62l1.8-10.61,5.39-21.24,18-7.08h7.19l1.8-17.69h14.38l12.58,3.54,7.19-8.86,21.56-5.31,10.79,5.31,3.6,10.62-7.19,12.39,9,12.39,9,17.7,9,15.93,7.19,12.39v-14.16h14.38l7.18,5.32v15.92l12.59,1.77,3.59,17.7,1.8,19.47,5.39,14.16-1.8,12.39,12.59,8.85,3.6-8.85,1.8-8.85-5.4-7.08,1.8-15.93,14.38-5.31,14.38,15.93,12.58,30.08,3.6,21.24-12.59,23,19.78,14.15-3.6,14.16-1.8,8.85,5.39,21.23,1.8,8.86v8.85l5.4,8.85-3.6,10.61,3.6,17.7,10.78,21.24-5.4,10.62-5.39,7.07,5.39,12.4-12.58,3.53-10.78-3.53,3.6-10.62h-16.18l-10.78,10.62-19.77,3.53-10.78,10.62-18,10.62-3.59-14.16,9-12.39-14.38-12.39v-15.93l-10.78-14.16-3.6-24.77-9-8.85-5.4-28.31Z" transform="translate(0 0)"/>
				<path id="path4391" class="cls-2" d="M1301.75,1402.55l17.79-22.53V1362.5l7.63-25,35.59-25-10.17-47.56,25.42-12.52-5.09-22.52-12.71-32.53,5.09-20-17.8-17.52,25.42-30-30.5-67.57-15.25,2.5-17.79-30h-7.63l-10.16,10,10.16,42.55,5.09,27.53-7.63,10v15l-15.25-5-17.79,15-17.79,30-7.63,22.53,12.71,22.52,2.23,31.65-3.13,8.09-9.27.3v7.51l-20.34,25L1238.2,1310l-5.08,10,2.54,10,15.25,32.54,15.25,20,2.54-10,17.8,2.5,2.54,15,12.71,12.5Z" transform="translate(0 0)"/>
				<path id="path7308" class="cls-2" d="M1390.71,1700.37l-10.17,12.52-17.79-7.51-5.08-10-15.25-22.52,7.62-10h12.71l5.09,10,17.79,2.5v-10l7.62-20-7.62-12.51-5.09-25-2.54-12.52-5.08-25-5.08-17.52,5.08-25,15.25,5,15.25-7.51h25.42l15.25,10,22.88,12.51,12.7,27.53,12.71,35-5.08,10,15.25,32.54,15.25,42.54,2.54,12.52-2.54,27.53v17.52l-2.54,20,2.54,25,7.63,27.52L1528,1853l2.54,22.52,12.71,22.53-12.71,5-12.71,15-7.62-5-2.55-12.52-7.62-17.52,2.54-10-7.62-2.5-7.63,5-12.71,2.51-15.25-5-2.54-10-10.17-25-7.62-5-10.17,12.51-5.08,10-10.17-2.5-12.71,22.52-7.63,2.5-7.62,10,2.54,20-7.62,17.52-2.55-25-7.62-20-2.54-10,15.25-17.52,10.16,10,7.63-15-10.17-20-10.16-17.52,5.08-10L1372.92,1788l-5.08-15-7.63-20,12.71-12.51h20.33v-15H1406v-7.51l-15.25-17.5Z" transform="translate(0 0)"/>
				<path id="path8281" class="cls-2" d="M1304.29,1427.57l-5.08-25,12.71-15,10.16-17.52,2.55-30,38.12-27.53-2.54-15-5.08-27.53,22.87-17.52-5.08-20-7.63-32.53V1182.3l-17.79-25,22.88-30-10.17-25-17.79-45,5.08-7.51,20.34-20h12.7l7.63,12.52,5.08,20,5.09-17.52,5.08-10,12.71,5-7.63,17.53,5.09,17.52,5.08,12.51,5.08,45,12.71,17.52,7.63,15-5.08,10,7.62,7.51,2.54,10-17.79,12.52,2.54,20,2.54,17.52,2.55,12.52,10.16,12.51-7.62,40,10.16,20,20.34,10L1467,1350l7.63,30,15.25,15,2.54,20,5.08,25-7.62,5,7.62,25,5.08,30,5.09,25v15l5.08,20,5.08,20v22.52l-12.7-5,7.62,27.53,10.17,40,7.62,25-10.17,17.51-5.08-12.51-7.63-22.53-7.62-25-12.71-25,2.54-7.51-5.08-20-10.17-35-10.17-10L1439,1532.7l-33-7.51-22.87,10-15.25-12.52-10.17-15,7.62-20-2.54-20-12.71-25-15.25-22.52-7.62,2.51-10.17,15,7.63,20-5.09,10-10.17-12.52-5.08-27.55Z" transform="translate(0 0)"/>
				<g id="Cox">
					<path id="path5362" class="cls-2" d="M1253.45,1677.85l25.42-5,5.08,25-7.62,22.52-15.25,25,2.54-17.52,2.54-35Z" transform="translate(0 0)"/>
					<path id="path5364" class="cls-2" d="M1289,1700.37l28-15,12.71-10,12.71-2.5,17.79,30,20.33,10,7.63-2.5,5.08-12.52,12.71,17.52v7.51h-12.71l-2.54,17.52h-22.88l-10.16,12.52,10.16,25,20.34,20-7.63,12.52,12.71,20,10.17,12.52-5.08,17.52h-10.17l-2.54-10-17.79,20,5.08,22.52,16.23,18.53,2.54,12.47-12.15,14.53,11.14,20,18.81,23.54-11.1,14,12.64,20,5.23,15.9-4.9,9.9,7.32,16.25,10.17,25-2.54,12.51-7.63-7.51-10.17-27.53-12.7-15-10.17-17.52L1378,2010.7v-15l-43.21-50-5.09-40.05v-17.52l-7.62-17.52-15.25-20-2.54-10,12.7-15,2.55-17.52,5.08-15,5.08-22.52-2.54-27.53L1317,1765.43l-12.7-7.5,10.16,17.52,7.63,20-12.71,25,2.54,2.5-25.42-2.5L1289,1833h-15.25l-2.54-12.52,7.63-22.52,5.08-20-12.71-10,17.79-67.55Z" transform="translate(0 0)"/>
					<path id="path3682" class="cls-7" d="M1300.6,1748.94l25.42-5,5.08,25-7.62,22.52-15.25,25,2.54-17.53,2.54-35Z" transform="translate(0 0)"/>
					<path id="path1881" class="cls-8" d="M1412.32,2131.69c-1.31-5.25.65-7.35-4-12-6.26-6.25,1.07-7,6-7C1416.15,2112.69,1412.47,2131.33,1412.32,2131.69Z" transform="translate(0 0)"/>
				</g>
			</g>
			<g id="Sylhet" class="cls-1">
				<path id="path2228" class="cls-2" d="M1062.82,725.55v-10l17.79-15L1073,688l-16.52-5-8.9-5,2.54-11.27,7.62-3.75,3.82-8.76-5.09-8.77-3.81-2.5-8.9,12.52-5.08-8.76,1.27-10-7.63-11.26-21.6-2.5-8.9-11.27L984,609.15V592.88l-5.08-11.27V567.86l6.35-6.25-12.71-3.76,2.54-5,12.72-1.26-6.35-7.51L984,520.31l2.54-6.26,20.34-3.75h14l17.79,3.75,34.31-6.26,31.77,16.27,5.08-6.25,15.26,5,16.52,10h11.43l5.09-5,8.9,2.5,19.06-10v10l6.35,1.25,3.82,7.51,19.06-5,7.62,1.25-2.54,7.51,10.17,8.76,1.27,11.26-6.35,7.51v3.76l14,13.77-1.28,5-3.81,1.25v3.76l7.63,3.76v10l-7.63,15v3.75l7.63,10-12.71,2.5-6.36,7.5,7.63,16.28-7.63,2.5,7.63,11.26L1219.14,703l-19.06-2.5-1.27,6.26,3.81,3.76-5.08,3.75-5.09-6.26h-10.16l-16.52-3.75-5.09,5,5.09,5-8.9,7.51L1139.07,708l-1.27-7.51-10.17-1.25-11.43,10-11.44,6.26,1.27,10-2.54,6.26-7.63-5-11.44,10-10.16,2.5-11.44-13.79Z" transform="translate(0 0)"/>
				<path id="path2230" class="cls-2" d="M1217.87,703l14-23.78L1223,668l7.63-1.26-6.36-17.52,8.9-7.5h10.17l-10.17-12.52,8.9-15,1.28-12.52-10.17-6.26,6.35-6.26-12.71-15v-5l5.09-5V551.59l-10.17-8.76,1.27-6.26-7.62-6.25,3.81-6.26H1223l11.44,3.75,7.63-8.76,38.12,1.25,22.88-3.75,8.9,7.51,7.62-10h20.34l14,5,11.43,13.77,5.09-1.26,5.08,3.76,5.08-2.5,8.9,5v6.26l6.36,1.26,15.25,7.5,10.17,2.5,3.81-3.75h5.08v10l14,3.76,12.71,7.51-2.54,7.51,5.08,11.26,11.44,3.76-5.08,6.25,11.44,1.25,5.08,7.52L1481,629.19h-5.11l-5.08-2.5-7.62,7.5-15.25-1.25-21.6-3.75-12.71,3.75-10.16,6.26,8.9,10-1.27,8.77-11.44,21.27h-8.9l-19.06,2.5-5.09-10h-6.35l-1.27,8.76-5.09,16.28-12.71,10-6.35,2.5L1319.55,713l-6.35-5-7.63,5-8.9-1.25-3.81-6.26-8.9,5-6.36-6.26L1270,713l-10.17,13.77-20.33,1.25-3.82-8.76L1223,718l5.09-7.51L1217.87,703Z" transform="translate(0 0)"/>
				<path id="path3203" class="cls-2" d="M1050.11,846.93l7.63-2.5-5.09-7.51-5.08-2.5,2.54-7.5,15.25,1.25,8.9-3.76v-8.76l-5.08-6.26,8.9-2.5-1.27-7.51-8.9-10,5.08-6.26,1.27-8.76-2.54-5-6.35-3.75-7.63,3.75-8.9-3.75,17.79-6.26,6.36-17.52,12.71-8.76,8.9-8.76,8.9,10,3.81-7.51L1103.5,718l8.9-12.52,16.52-5h6.35l8.9,7.5,10.17,15,6.35-10v-3.75l6.36-5,5.08,2.5,20.33-2.5,5.09,11.26,6.35-2.5-5.08-6.25v-6.28l16.52,2.5,15.25,3.76L1223,718l12.71,1.25,2.54,6.26-8.9,10-8.9-6.26-7.62-1.25-3.81,2.5L1216.6,743l7.63,5h-7.63l-8.9,6.26-2.54,20-2.54,36.29,7.62,21.27-7.62,21.27-5.09,3.76v3.75l6.36,5v5l-5.09,2.51v26.27l-16.52,10-17.79,2.5-11.44-8.76h-14l-12.7-6.26h-11.44l-2.54,7.51,7.62,10-2.54,8.76-6.35,8.76-3.82,12.52-19.06-5v-8.76l3.81-2.5-2.54-10L1079.34,897l12.71-3.76-10.16-5v-15l14,3.76v-7.51l-11.44-5,17.79-12.51v-7.51l-11.44-2.5-11.44,20-10.16-7.51-19.06-7.49Z" transform="translate(0 0)"/>
				<path id="path4174" class="cls-2" d="M1201.35,855.69l8.9-23.77-8.9-20,6.36-57.56,7.62-5,14,1.25-10.17-5-12.71-15,6.36-3.76,8.9,1.25,8.9,8.76,7.62-10,19.07,1.25,20.33-25,6.36,6.26,7.62-3.76,3.81,6.26,12.71,1.25,5.09-5,5.08,5,17.79-3.75,17.78-10,6.36-26.27h6.35l3.81,10,17.8-3.76h12.71l-2.55,8.77-3.81,8.76-8.9,16.27-3.81,22.52-19.06,12.52-2.54,22.52,6.35,8.76v7.51l-8.9,17.52h-16.52l-25.41-3.75-10.17,2.5,10.17,8.76,2.54,10-6.36,2.5-2.54-6.25-1.27-5-7.62-1.25-8.9,8.76,5.08,5v27.53l-6.35,7.5-2.55,25h-8.9L1272.51,872l-10.17-8.76,5.09-5-10.17,2.5h-11.44l-3.81-7.5-7.63,1.25h1.27v23.77l5.09,7.51-6.36,5-6.35-2.5-3.81-6.26-11.44-7.51Z" transform="translate(0 0)"/>
			</g>
			<g id="Mymensingh" class="cls-1">
				<path id="path8041" class="cls-9" d="M543,542.85l17.79-18.77-1.27-11.27,8.9-10,8.9,1.25L585,494l-1.27-12.52-6.35-11.26V449l12.7-8.77-6.35-3.75v-8.76l14,10-3.81,20,7.62,7.51-1.27,10,8.9,6.26H618l6.35-8.76,11.44,2.5,7.63-1.25v18.77l-2.55,2.5-7.62-5-3.82,17.52-7.63,7.51,3.81,8.76,10.17-1.25-1.27,6.26-5.08,6.26-1.28,10,11.44,8.76-1.27,7.51-8.9,5,1.27,5h-6.35v6.26l6.35,12.52,1.27,7.51,7.63-1.25,6.35,7.51-2.54,7.51,8.9,3.75,29.23,7.51,2.54,8.76,16.52-13.76,24.15,11.26-1.27,15-11.44,12.52-8.9-1.25H682.82L671.38,658l-19.06,22.52L646,671.75,643.42,668l-8.9-3.76v7.51L624.36,678l-5.09-3.75-3.81,7.51,3.81,7.51,7.63,5-2.54,5L620.54,698l-5.08,11.25h-6.35v8.76l-7.63,2.5v13.77l-6.35,2.5L585,735.57V724.31l-7.62-6.25,10.16-1.26,3.82-26.27-10.17-11.27,7.63-1.25,1.27-8.76-11.44-7.51-5.08-1.25-2.55,5-7.62-8.76h3.81l2.54-6.26-1.27-6.26-8.9,1.26L549.37,634.2l-1.26-10,6.35-1.25-1.27-11.26-5.08-6.26,1.27-6.26-5.09-5,5.09-5V577.88h-8.9l7.62-8.76-6.35-3.75,3.81-8.77L543,542.85Z" transform="translate(0 0)"/>
				<path id="path3201" class="cls-9" d="M682.82,631.69l-1.27-8.76-20.33-5-17.79-6.26,2.54-7.51-6.36-7.51-6.35,1.25L632,590.39l-6.36-8.76-3.81-10,8.9,1.25v-6.26l7.63-5,1.27-6.26-8.9-7.5-2.54-8.77,6.35-7.51,1.27-10-10.17,1.25-3.81-7.51L632,507.78l2.54-17.52,5.08,6.26,5.08-5V472.75l8.91,7.51,12.7,7.51,6.36,3.76,16.52,6.25,14,3.76,19.07,2.5,14,6.26h8.91l3.81,6.26v11.27l1.27,13.76-2.55,8.76,15.25,7.51-5.08,8.77-12.71-2.5-8.9,12.51,7.63,6.26-5.08,7.51,3.81,10,8.9,5-5.08,2.5-7.63-2.5,1.28,6.26,6.35,5L740,629.21,723.49,628l-10.16-5-14-6.26Z" transform="translate(0 0)"/>
				<path id="path4172" class="cls-9" d="M759.08,838.17l-11.44-5-10.17-21.28,5.08-5V794.37l-12.7-18.77,2.54-8.76,8.91-2.5-19.08-10-7.62-7.51L704.43,729.3l1.27-7.51,7.63-8.76v-6.26l-11.44-16.28,1.27-21.27L691.72,668l-3.81-10,12.71-2.51L712.05,658l11.45-13.77V631.68l6.35-3.75,8.9,2.5,8.9-11.27-8.9-6.25v-7.52l7.63,2.5,7.62-1.25-10.17-5-5.08-11.26,5.08-7.51-6.35-6.26,8.9-12.51,12.71,5,5.07-10L754,555.34l-5.09-6.26V517.79l-1.27-5,6.36-1.25,6.35,5h11.44l3.81,7.51,26.69,5,12.71-5,15.25-6.26,16.52,2.5,6.36-3.75,10.17,5,8.9-7.51,6.35,3.76L876,524.05l-6.36,17.52-1.27,10-6.36,5,10.17,11.27-1.27,7.5-8.9,1.25-5.09,7.52-2.54,10-5.08,1.25-5.09-13.77-3.81,5-7.62-2.5-3.82,2.5,10.17,7.51,2.54,10-2.54,7.51h2.54L848,624.18h8.9L855.66,638l6.36,5-3.81,5h8.9l8.9,7.51,12.7,2.5,5.09-3.76L905.24,658l-2.55,7.51-6.35-1.25,2.54,8.76,5.09,2.5,2.54,2.5-6.36,7.51L898.88,698l10.17,8.76,8.9,5,2.54,16.27,7.63-5,1.27,5,10.17,6.26,2.54,5-7.63,12.51-8.9,8.76-8.9-3.75-5.09-8.75-7.63,15-5.08-10-7.62,13.77-10.16,1.26-8.9-7.53H860.75l-3.81,10,11.44,8.76,12.71,7.51-1.27,16.27-6.36,5-1.27,11.27,6.36,13.77,3.8,7.5-8.9-2.5-11.44,5h-12.7l-10.17-7.51,1.27-7.51-17.79-6.25-1.27-5-12.71-1.25-5.08,20-5.09-2.5-6.35,2.5-7.62-8.76-3.82,7.51-21.6,3.74Z" transform="translate(0 0)"/>
				<path id="path6116" class="cls-9" d="M940.82,735.56l-10.17-3.75L929.38,723l-8.9,3.76-2.54-12.52L906.5,708l-6.35-8.76-1.27-12.51,8.9-8.77-11.44-6.25v-7.51l5.08,1.25,5.09-7.51-14-5L890,658H877.27l-8.9-8.76H856.93l5.09-6.26-5.09-5v-12.5l-8.9-1.25L843,610.41h-3.81l1.27-5-1.27-11.27-11.44-7.51h14l2.54-6.26,5.09,15h6.35l2.54-11.26,3.82-6.26h6.35l5.08-10L862,556.59l7.62-3.75-2.54-7.51,5.09-8.76,6.35-15,10.17,1.25,3.81,3.75,21.6-13.76,7.62,11.26,33,1.25,3.81-3.75,10.17,5,16.52-13.76,1.27,6.25-3.81,1.25-1.27,23.77,5.09,5-2.55,2.5-7.62,1.25-2.55,6.27,10.17,2.5-5.08,6.26-1.27,12.52L984,591.63v17.52l15.25,3.76,10.17,10,24.15,1.26,6.35,10v11.26l5.08,10,5.09-10,6.35-1.25,5.09,8.76-3.82,10-8.9,2.5V678l6.36,3.76,7.62,1.25,10.17,3.76,5.08,6.25,3.82,5-7.63,8.76-10.17,7.51-14,1.25-21.6,13.77-3.81-6.26-15.25-3.75L998,726.81l-8.9-1.26-17.79,1.26H956.06l-15.25,8.75Z" transform="translate(0 0)"/>
			</g>
			<g id="Dhaka" class="cls-1">
				<path id="path4163" class="cls-2" d="M436.27,1000.85V984.59l-6.35-5,7.62-3.75,17.8,1.25,10.16,1.25,6.36,7.51v8.75l2.54,8.76,19.06,11.27-5.08-13.77,10.17-1.25,2.54,6.26,6.35,3.75,17.79-11.26,6.36,3.75-1.27,6.26,6.35,7.51v-10l28-1.25,14,2.5,8.9,11.26,1.27,13.76-11.44-8.76-8.9-11.26h-30.5l-1.27,5h25.42l12.71,8.76,16.52,12.51,6.35,5,5.09,2.5-6.36,2.5-1.27,6.26H582.42l-1.27,6.25-8.9-2.5v17.52l10.17,6.26-2.54,6.26H571l-2.54-6.26-2.55,6.26-12.7-1.25-2.54-15L535.4,1086h-6.35l-2.54-11.26h-5.09l-2.54,5-12.71-6.26-2.54,5,7.63,5-7.63,3.76-5.08-1.25v-6.26l-10.17-1.25-5.08-13.77-12.71-8.76-1.27-7.51-17.8-1.25-2.54,3.76-15.25-13.77-2.54-7.51-3.81-7.51,8.9-8.76v-12.52Z" transform="translate(0 0)"/>
				<path id="path5128" class="cls-2" d="M488.79,1077.94l8.09,1.77.9,6.19,5.4,2.66,8.08-4.43-9-5.31,3.6-4.43,13.48,5.32,1.8-5.32,4.49.89,2.7,10.62,7.19.88,14.38-14.15,2.7,15,12.58,1.77,2.7-7.08,3.59,6.19,8.09.89,3.6-6.19-10.79-5.31v-20.35l9,3.53,1.8-6.19h12.58l.9-6.19h2.69l7.19,1.77,2.7,7.08,26.06,5.31,9,10.62h7.18l4.5,10.62,27.85,4.42,16.18,11.5,8,14.16L709,1131h-7.19l-.9,13.27-7.18,6.19,9.88,6.19-4.49,11.5L693.68,1185l-6.29-2.65-9.89-6.19L673,1188.55l-4.5-.89-.9-6.19h-5.4l-6.29-9.73-8.08-.89,6.29,8-7.19.88-9.89,6.2-.9-9.73h-8.09l-5.4,4.42-4.49-7.08-8.09-.88-15.27,15-20.67.89-1.8,5.31,8.08,4.42-.9,4.43-2.7,4.43-11.68,9.72h-9l-4.49-5.31H538.21l-4.49-8,9-9.73L531,1191.21l-2.69-9.73v-16.81l-6.29-4.42,5.39-5.31,14.38,10.61-5.39-9.73-9.89-15,.9-12.39h-2.7l-4.49-8-7.19-6.18-21.56-.89-.9-3.54,5.39-4.42h6.29l.9-3.54-9.89-8.86-4.49-15Z" transform="translate(0 0)"/>
				<path id="path6099" class="cls-2" d="M591.24,1300l.9-5.31-12.59-7.08-6.29-15.93-18-17.7,12.58.89,7.19-17.7,1.8-9.73-9-3.54-10.78,8-1.8-1.77,2.68-8v-4.42h5.4l16.18-10.62,1.8-8-9-5.31,1.8-6.19,17.07.88,17.07-14.15,8.09.88,6.29,5.31,5.4-4.42,6.29.88,1.8,9.74,8.09-5.32,9.89-.88-5.4-9.73,5.4.88,7.18,10.62h4.5l2.69,7.08h3.6l3.59,13.27-4.49,15-11.68,6.19s3.59,8,0,8H647.85l-5.39,19.47,10.78,6.19,4.49-8,6.29-3.53,11.69,7.07,4.49,4.43,9.89-8.85,11.68,6.19-4.49,3.54-.9,8.85,11.68,3.54-4.49,1.77v11.5h-9.89l-3.59,8-10.78,4.43v8l-3.6.89v4.42l-7.19,5.31-3.59,14.16-3.6,5.31-.9,3.54-9,1.77H638.88l-1.8,9.73h-2.7l-9.88-6.19-14.38.89-12.58-7.08-1.8-6.19,8.09-7.08-13.48-8.85.89-15.06Z" transform="translate(0 0)"/>
				<path id="path3189" class="cls-2" d="M586.24,927l-20.34,6.26-12.71,1.26,1.28,12.51,11.43,13.77,15.25,13.77,1.27,7.5,5.09,6.26-1.27,12.52,14,18.77,15.25,10,15.25,3.76,6.35,7.51h-14l10.17,10,6.36-3.75,6.35,12.51,22.88,6.26,7.62-6.26v-13.76l16.52-2.51,11.44-5,29.23,5L726,1022.15l12.71-13.77-25.42-5-8.9-11.27-6.35-13.77-8.9-5-6.35-16.27-12.71-6.26,10.16-8.76-24.14-1.25-2.54-10-6.36-2.51-12.7,12.51-3.81-2.5-8.9,10L618,942.05l-5.09,11.26-7.62-2.5-6.36-5-3.81,5-5.08-7.51L586.24,927Z" transform="translate(0 0)"/>
				<path id="path4160" class="cls-2" d="M668.85,1065.93l6.35-7.51V1045.9l21.6-2.5,7.62-5,28,6.26L726,1022.13l12.71-11.26-21.6-6.26-6.35-1.25-12.71-23.78-10.17-5-3.81-16.27-14-8.77L680.28,942l-21.6-2.5,1.28-6.26v-7.51l10.16,7.51,11.44-8.76L696.81,932l11.44-5,7.62,12.52,10.17-5,10.17-2.5,3.81,6.26,6.36-18.77L757.81,937l-10.16,8.76,8.9,2.5,19.06,2.5,1.27,23.78,10.17-2.5,6.35,6.26h8.9l6.36-5H815l1.27,10v8.76l-2.54,7.51,11.44,32.54,5.08,5-5.08,2.5-21.6,10,8.9,15-3.81,13.76-11.44-10-3.82,6.26L789.6,1091l-8.9-2.5,5.09-15-11.44-6.26-6.36-7.51-19.06-3.75-7.63,11.26-1.27,6.26L738.76,1091l-6.35,7.51-8.9-5-1.27,10-3.82,6.26-12.7-6.26-1.28-11.26-3.81-12.51-10.18-6.27-21.6-7.5Z" transform="translate(0 0)"/>
				<path id="path5131" class="cls-2" d="M805.12,1281.46l-18,5.31-10.78,7.08-3.6,8.85-12.27-9.15-9.3-12.08,5.4-10.62,7.19-10.62L753,1249.62l-9-15.93-12.58-8.85-5.39-23,16.17-12.39,12.59-23,10.78-15.93,18,1.77,16.18,12.39,7.19,12.39h27l5.39,12.39,1.8,12.39,5.4,19.47-7.19,15.93-10.56,8,6.88,10.7-23.27,6-7.2,19.45Z" transform="translate(0 0)"/>
				<path id="path6102" class="cls-2" d="M701.89,1129.75l16.52,1.25,10.17,8.76,11.43,5,25.42,7.51-5.08,8.77-17.8,28.78L726,1201.08l3.82,22.52,15.25,11.26,7.62,17.53,12.71,8.76-14,18.77,10.17,8.76,3.81,7.51-6.35,5h-14l-15.25-3.76,1.27-16.27,1.27-15-6.35-2.5-3.82,6.26H705.7l-10.16-6.26v-5l6.35-2.5-11.44-7.51-10.16,8.76-12.71-10H660l-7.62,10-11.44-7.51,7.62-18.77,15.26,1.25-2.55-7.51,11.44-6.26,3.81-16.27-6.35-11.26,6.35-12.52,17.79,7.51,6.36-26.28-5.08-10,6.35-5v-15Z" transform="translate(0 0)"/>
				<path id="path2229" class="cls-2" d="M699.35,929.53,719.68,912l-2.54-10h5.08v-7.51l7.63,7.51,7.63-1.25-1.27-21.27L740,865.7l17.79-7.51-2.54-11.26,11.44-5-3.81-3.75,7.62-2.5,8.9-1.25,3.81-7.51,7.63,8.76,7.62-1.25,5.09,3.75,3.8-21.28,12.71-1.25,3.81,5,15.26,6.26v6.26l10.16,10h11.44l2.55-3.76h10.16l14,8.76,7.63,3.76-7.63,5,1.27,11.26,5.09,10L890,887l-1.27,7.51,7.63,7.5-14,2.5-5.09-5-3.81,3.75,5.09,2.5,2.54,23.78-6.36,15-6.35,1.25,3.81,6.26-7.62,12.51-10.17,7.52-6.36-5-12.71-15-1.27,6.26-7.62-1.26-10.17,21.28-6.35-5-5.09,3.75-10.16,2.5L787,972.08l-10.17,2.51v-25H759.08l-10.16-3.75,8.9-10-6.37-10-3.81-1.25L740,938.3l-3.82-7.51-10.16,5-8.9,5-17.8-11.28Z" transform="translate(0 0)"/>
				<path id="path2231" class="cls-2" d="M854.39,973.32l12.71-11.26,5.09-7.51-5.09-8.76h7.63L879.81,932V918.25l-2.54-12.52L870.92,902l5.08-3.76,6.35,7.51,11.44-2.5h3.81L890,894.47l3.81-16.28L890,869.43V856.92l5.08-5,7.63,1.25,8.9-7.52L923,864.42l8.9,3.76,6.35,10,12.71,5,1.27,3.75-7.63,3.76,6.36,7.51-8.9,2.5,14-1.25,7.62,8.76,11.44-3.76L977.67,917l7.63,3.75-2.54,3.76L975.13,937l3.81,11.27-6.35,2.5-7.63,20-5.08,3.76-2.54,6.26-1.27,2.5-16.52-1.25-8.9,3.75H923v-2.5l-8.9-1.25-3.81,2.5L909,1000.84l-7.63,12.52-11.44-10-1.27-6.26-2.54,8.76-10.17-2.5-3.8-3.76,7.62-3.75L876,987.08l-8.9,3.75-2.54,6.26-3.82-7.51,8.9-12.52-15.24-3.74Z" transform="translate(0 0)"/>
				<path id="path3206" class="cls-2" d="M811.19,1064.67l-11.44-17.52,29.23-10-15.25-36.29,3.81-8.76V980.82l8.9-23.77,7.62,2.5,1.28-6.26,15.25,18.77,17.79,7.51-8.9,8.77,2.54,7.51,14-8.77,5.08,6.26-8.9,8.76,12.71,3.76,15.25,5-1.27,5-3.81,11.27-8.9,7.51-2.54,11.26-8.9-2.5h-6.36l-2.54,8.76v12.52l-16.52,7.51-6.35,6.26-6.36,7.51-10.17-1.25v-7.51l-8.9,6.26-7.62-6.26,1.27-12.53Z" transform="translate(0 0)"/>
				<path id="path2235" class="cls-2" d="M717.05,1113.33l5.39-19.46,10.78,5.31,7.19-8.85v-15.94l9-19.46,18,5.31,18,12.39-5.4,17.7,10.78,1.77,5.4-19.47,21.57,14.16,18,3.53,3.6,8.85,7.19,5.32v12.39l-1.8,10.62-9,14.15-3.6,14.16-12.58-14.16H796.13l-18-5.31H763.77l-16.17-3.54Z" transform="translate(0 0)"/>
				<path id="path3207" class="cls-10" d="M787.14,1143.42l32.36,7.08-3.6,17.7Z" transform="translate(0 0)"/>
				<path id="path2237" class="cls-10" d="M842.41,1089.89l2.69,5.75,4.49,7.52,2.25,13.72,17.52-7.52,16.63-4.43-7.64-14.16-8.09-13.72-16.18.89-11.67,12Z" transform="translate(0 0)"/>
				<path id="path7073" class="cls-10" d="M826.44,1259.89l-10.17,1.47-6.36,11.75L815,1283.4l14-1.47,10.16,11.75,5.09-7.35-2.54-13.22-5.09-8.82-10.16-4.4Z" transform="translate(0 0)"/>
				<path id="path5143" class="cls-9" d="M893.79,853.19l-14-12.51L876,826.91l-2.54-7.51-1.27-10,8.9-5,1.27-16.27-25.42-17.52,3.81-5v-6.26l10.17,1.25,10.16,8.76,8.9-1.25,8.9-12.52,6.36,6.26,5.08-12.52,10.17,8.77,11.44-5,8.9-12.52,6.35-10,28-5L957.35,728l14-2.5h16.52l8.9,2.5,12.71-8.76,12.71,2.5,5.08,8.76,14-8.76,7.62-6.26h14l-2.54,10L1071.73,738v8.76l-3.81,6.26-1.27,3.76-17.8,10,10.17,2.5,2.54-3.75,8.9,2.5,5.09,10-1.28,6.26-8.9,5,12.71,8.76,2.54,7.51-8.9,1.25-3.81,5,6.36,5v7.51l-8.9,2.5-15.26,1.25-3.81,6.26,7.63,3.75,2.54,5-6.36,3.76-15.26,3.76-15.25,3.76-3.81,10-16.52-1.25-12.71,12.51v3.76l7.62,8.76,10.17,2.5,2.54,8.76-2.54,6.26-6.35,5s7.62,3.75-1.27,6.26-11.44,3.75-11.44,3.75l-6.36-6.26-3.81-8.76L963.68,907l-7.62-8.76H945.89l-1.27-10,7.63-6.26L937,878.22l-3.82-10-8.9-1.25-6.35-12.51-7.62-7.52-3.82,1.25L904,850.69l-10.16,2.5Z" transform="translate(0 0)"/>
				<path id="path2215" class="cls-9" d="M587.51,925.77l10.17-16.27-1.28-15-5.08-11.26-7.62-2.51v-5l3.81-3.76-3.81-5,2.54-15,1.27-22.52-17.8-18.77,8.9-11.26-17.79-16.28,11.43-12.51,2.55-15-8.91-7.51,8.91-6.26,3.81,2.5,6.35-10L596.4,738l1.27-6.25,5.08-8.77,3.82-6.25,2.54-6.26,5.08-3.76,6.36-8.76,6.35,1.25v-5l-8.9-7.51-1.27-6.26L618,674.2l3.81,5,12.71-7.51,1.27-7.51,7.63,3.75,10.17,13.77,15.25-22.52,12.71-5,7.63,3.76,1.27,11.27h11.44v21.28l10.16,15v6.26l-6.35,8.76-1.27,7.51,8.9,20L740,764.34l-6.36,2.5-3.81,8.76,11.44,20,1.27,8.76-3.81,6.26,8.9,22.52,8.9,3.76,6.35,2.5,2.54,3.75-10.17,5v11.27l-7.62,2.5-6.36,5-5.08,13.77,1.27,18.77-8.9,1.25-5.08-5L722.23,902h-3.82l1.27,8.76-14,13.77-10.17,6.26h-3.82l-11.43-7.51-7.64,7.52h-3.81l-7.63-5v8.77l-6.35,6.26-2.54-10-5.08-2.5L635.8,940.8l-7.63,2.5-6.35,6.26L618,942.05l-5.09,8.76H605.3l-7.63-6.25-2.54,3.75-5.08-7.51-2.54-15Z" transform="translate(0 0)"/>
			</g>
			<g id="Divisional_borders" data-name="Divisional borders">
				<path id="path5037" class="cls-11" d="M541.75,564.66l-4.2-3.36-21.83,2.94-2.52,8.4h-6.3l-4.19-5.88-16-2.52-9.65-10.49-4.2,7.13L462.82,555l-3.77,5.45-10.92-1.26-2.94-12.6-9.65-3.35-13-2.52-5.88,4.2-1.26.84-7.14-5,2.1-2.94-10.92-13.85-6-3.59-4.89-9.43,4.2-11.76-12.6-3.78-19.31,2.1-6.72-9.65-12.6,3.36L328.87,482h0" transform="translate(0 0)"/>
				<path id="path14412" class="cls-11" d="M842.12,1312.06l1.43-24.29-5.72-17.15L825,1259.19l10-2.85-7.15-11.43,10-7.15,10-14.28-5.71-17.15L835,1177.76l-2.85-21.43,4.28-15.71,15.72-24.29,30-11.42-7.15-30-1.43-27.15,10,1.43,8.57-10,1.43-14.28,15.72-21.44-1.43-12.85,11.43-10,14.28,7.14,22.86-4.28L965,970.62l8.57-22.85h8.57L975,936.34l11.43-15.72,14.29-2.85v-7.15l5.71-5.71V893.48l-8.56-2.86-10-12.85,15.71-15.71,14.29,2.85,7.14-11.43,27.15-4.28h1.42" transform="translate(0 0)"/>
				<path id="path14125" class="cls-11" d="M634.79,1349.26l3-12.12,20.2,2,8.08-10.1-1-11.11,12.12-12.12,2-11.11,12.12-3,1-7.07h11.11l-1-13.13,17.17-1,7.07-7.06,5.06,3-3,29.29,18.18,7.07,17.18-5,7.07,8.07,5.05-13.13,18.18-7.07,14.15,4.05,14.14,8.08,16.16,13.13L857,1318,874.2,1326l8.09,8.08,7.06,16.16,11.11,22.23,5,23.23,9.1,30.31,11.11,15.15,15.15,17.17L955,1477.55l-2,16.16,22.22,22.23,12.13,14.14v14.15l-10.1,16.16-1,16.16v37.38l3,21.21h0" transform="translate(0 0)"/>
				<path id="path13840" class="cls-11" d="M435.79,973.48l2,32.33,2,6.06L425.69,1022l4,10.1,21,20,15.71-5.72,5.72,7.15L485,1066.33l5.71,24.29,12.86,12.85-5.72,1.44-5.71,2.85v7.15h18.56L525,1126.33l1.43,14.29,11.43,18.57-10-5.71-5.71,5.71,7.14,7.15-2.85,15.71,4.28,12.86h12.86l-10,7.14,2.85,11.43,12.86-2.85,8.57,7.15-1.44,14.28,11.44-7.15,11.43,4.29-11.43,25.71H556.39l15.72,17.15,7.15,15.72,17.14,8.56-5.72,17.15,12.86,7.14-5.71,8.58,2.85,11.42,8.57,7.15,15.72-7.15,10,8.58,1.43,30-20,4.28v15.71h12.85l11.43,5.72-1.43,15.71,7.15,20-5.72,10,5.72,25.71-17.15-15.71-10-5.71,4.29,12.85,12.85,12.86,5.72,5.71H635l-10,11.43v17.15l-12.85,24.28-5.72,24.29,10,14.29,4.29,24.28-11.43,20,7.14,15.72-5.71,22.85,8.57,14.29-1.43,10,2.85,30v1.43" transform="translate(0 0)"/>
				<path id="path13557" class="cls-11" d="M597.83,439.19l-14.28-11.43-2.86,8.58,7.15,5.71L575,447.76v22.86l8.57,11.43,1.43,10-7.14,11.43-8.58-1.43-8.57,7.15-1.43,12.85-15.71,22.86,4.28,11.43-5.71,8.57,7.14,7.15-7.14,5.71,7.14,1.43v7.15l-5.71,7.14,5.71,5.72,1.43,7.14,5.72,14.29-5.72,1.43v14.28l7.15,10,12.85-1.43v8.57l-2.85,4.28,4.28,7.15,2.86-5.71,17.14,10-1.43,7.14-7.15,1.43,7.15,11.43-1.44,17.14-1.43,11.43-7.14-1.43,5.71,11.43-2.85,8.57-2.86,5.72H575l-7.14,4.28,5.71,11.43v12.86l-11.42,12.85,14.28,11.43,2.85,7.15-7.14,5.71,15.72,21.43v17.15L585,863.5l4.29,10-5.72,4.29L595,886.35l2.86,14.29v14.29l-8.58,12.85-25.71,5.72-11.43-1.43-4.29,11.43-4.28,14.28L555,964.93l5.71-2.86,7.15,12.86-5.72,1.43-10-8.57v10l18.57,5.72,11.43,7.14-18.57,7.14-14.28-1.43-18.58-7.14-25.71,10-31.43-17.15-5.71-14.28-17.15-20,2.86,17.14-7.14,5.72v1.43l-15.72-1.43-4.28-7.15-17.15-22.85-21.43,1.43-7.14-7.15-20,1.43-11.43,5.72v-1.43L345,933.5h-7.15l-5.71-10L335,907.79l-8.58-10H310.68l-10-8.57L295,897.79l-14.29-2.86L265,896.36l-27.14-21.43L225,873.5h0" transform="translate(0 0)"/>
				<path id="path13274" class="cls-11" d="M982.12,519.19v27.15l8.56,5.72H977.83l-4.28,5.71,12.85,4.29-5.72,5.71-2.85,14.29,7.14,10-1.43,15.71,20,4.29,5.72,11.43,20,2.85,10,10-1.43,8.57,4.28,10,10-11.43,8.57,8.57v8.57l-10,2.86-4.28,14.28,17.14,7.14,12.86,4.29,4.28,11.43L1065,713.47v17.15l10,10-7.15,17.15-17.14,8.57,4.28,4.28,11.43-4.28,7.15,5.71,1.43,8.57-5.72,5.72,10,17.14v4.29l-10,1.43,5.72,7.14v8.57l-8.57,4.29-14.28-2.86-4.29,7.15,8.57,4.28,1.43,5.72-8.57,7.14,14.29,1.43,14.28,7.15,11.43-12.85L1105,843.5l-1.42,10-14.29,8.57,10,10-1.43,5.72L1085,873.5l-2.85,12.86,11.43,7.14-11.43,2.86,2.85,11.43,2.86,8.57,8.57,5.71-5.72,10,1.44,7.15h0v1.43" transform="translate(0 0)"/>
			</g>
		</g>
	</g>
</svg>