<svg xmlns="http://www.w3.org/2000/svg" id="Layer_1" data-name="Layer 1" viewBox="0 0 1544.65 2132.5">
	<defs>
		<style>.cls-1{opacity:1;}.cls-2,.cls-3,.cls-7,.cls-9{fill:#268000;}.cls-10,.cls-11,.cls-2,.cls-3,.cls-5,.cls-6,.cls-7,.cls-8,.cls-9{stroke:#fff;}.cls-10,.cls-2,.cls-3{stroke-width:2px;}.cls-3{stroke-linecap:round;stroke-linejoin:round;}.cls-11,.cls-4{fill:none;}.cls-4{stroke:#000;}.cls-10,.cls-5,.cls-6{fill:#2c8a04;}.cls-5{stroke-width:0.75px;}.cls-6,.cls-8{stroke-width:0.5px;}.cls-7{stroke-miterlimit:10;}.cls-8{fill:#9d9d9d;}.cls-9{stroke-width:3px;}.cls-11{stroke-width:8px;}</style>
	</defs>
	<title>atc-map-green</title>
	<g id="atc-map">
		<g id="Group_9" data-name="Group 9">
			<g id="Barisal" class="cls-1">
				<path id="path2242" class="cls-2" d="M625.63,1589l-2.54-18.77-7.62-10,1.27-18.77,10.16-17.52-2.54-11.27v-17.52l8.9-10h5.09l-6.36-6.26-15.25-23.77,17.79,10,11.44,10-1.27-11.26-5.08-13.77,6.35-8.76-6.35-17.52V1405l-5.09-5-17.79-2.51-1.27-13.76,20.34-7.51V1355l-1.28-5,2.55-3.76,1.27-8.76,19.06,2.5,6.36-8.76H665l8.9,11.26L672.67,1355H679l7.63,11.26h7.62l2.55,7.51,19.06,3.76,8.9,2.5-1.27,6.26-5.09,1.25v6.26l-8.9,6.26-2.54,10-14,8.76,7.63,7.51v10l-12.71,2.5v25l20.33,3.75,2.55,2.5-2.55,6.26-12.71,12.52-7.62-6.26-6.37,3.76-7.62-3.75,1.27,15-7.63,11.26,1.27,10,7.63-3.75,2.54,15-3.81,7.51-3.81,17.52-8.9,16.27-8.91,1.25L638.33,1589H625.64v0Z" transform="translate(0 0)"/>
				<path id="path3218" class="cls-2" d="M676.47,1515.17l-6.35,5-2.55-10,8.91-11.27-3.82-18.77,7.63,7.51,8.9-5,5.08,5,15.25-10,1.27-7.51-20.33-6.25-1.27-23.78,12.7-3.75v-8.77l-8.9-10,14-7.51,1.27-10,11.44-6.26-1.27-3.75,6.36-2.5,1.27-6.26-8.9-5,8.9-7.51,5.08-2.5,2.54,7.52h7.63l5.08-2.51,10.17,11.27-3.81,5-1.27,6.26,2.54,3.75h7.62l3.81,6.26,21.6,3.75,1.28,5-6.36,1.24-3.81,6.26,14,2.5,1.27,6.26-11.44,2.5s2.55,7.51-2.54,7.51-10.17-5-10.17-5l-3.81,5-7.63-1.25-3.81,7.51-2.54,7.51-8.9,3.75-14,8.76-8.9,6.26-1.27,8.76-2.55,15-10.16,6.26-5.09,11.26-6.35,7.52-17.79-5Z" transform="translate(0 0)"/>
				<path id="path4189" class="cls-2" d="M719.68,1468.87l16.52-8.77,16.52-7.51,5.09-13.76h7.62l2.54-3.76,15.25,3.76,2.55-8.77h8.9l-1.28-7.51-15.25-2.5,3.82-7.51,6.35,1.25-1.27-6.25L766.7,1405l-5.08-6.26-10.17-1.25,1.28-7.51,5.08-3.76-11.44-13.77h-8.9l-5.09-6.26-16.52,10-20.33-3.76-1.27-5h-5.08L681.55,1355h-8.9l1.27-12.52-7.62-10v-15l11.44-12.51,1.27-6.26,11.44-6.26,2.54-6.26,11.43-1.25v-15l15.26,1.25,5.08-7.51,6.35,2.51-1.27,30,17.79,7.51,10.17-2.51,6.35-3.75,7.63,5,3.82-8.76,15.25-7.51,17.79,3.76,17.79,10,12.71,11.26,15.25,6.26,15.25,6.26,11.44,10,7.63,17.52-7.63,8.77-12.71,6.25-21.6,15-11.44,11.27-1.27,8.76-15.25,2.51,8.9,13.76-3.81,10,1.27,11.27,5.08,7.51L815,1447.58l-14,7.51v8.76l-2.54,8.77-8.9-2.51-7.62-1.25-16.52-7.51-8.9,5-1.28,6.27L740,1478.87l-1.27-11.26-19.06,1.26Z" transform="translate(0 0)"/>
				<path id="path2245" class="cls-2" d="M722.44,1467.28l18,1.77-1.8,8.85,18-5.31v-3.54l10.78-7.08,12.58,5.31-3.6,14.16-12.58,1.77L751.2,1500.9l5.4,14.16-3.6,10.62-18,3.54-7.19,12.39-1.8,14.15,5.4,7.08,16.18-15.93,9-3.54,7.19,3.54,30.55,1.77,1.8,12.39-18,17.7-5.4,10.62,12.58,7.07v10.62l-12.58,21.24L762,1640.71v26.54l-18,21.24,1.8,19.47-16.17,5.31-14.38,8.85-16.18-3.54L686.49,1708l-23.36-5.31,5.39-8.85-7.19-8.85s-7.19-19.47,1.8-19.47,21.57-7.08,21.57-7.08l-12.58-5.31-12.58-1.77,1.8-17.7,9-10.61-5.4-8.85-5.39,12.39-9,1.77-1.8,12.39,5.4,5.31-9,10.62-14.37-23-3.6-17.69v-24.78h0l18-8.85,9-10.62,7.19,3.54,12.58-26.55,5.39-14.15-3.59-15.93,18,1.77,12.58-15.93,10.78-7.08,1.8-14.15,3.6-15.93Z" transform="translate(0 0)"/>
				<path id="path3216" class="cls-2" d="M780,1614.17l3.6-17.7L771,1589.39l19.77-21.23,5.4-5.31-3.6-14.16-27,1.77-9-5.31-25.16,14.15-3.6-8.84,1.8-17.7,23.37-5.32,3.59-10.61-7.19-15.93L763.8,1485l10.77-1.77L780,1469l16.18,1.77,5.4-15.93,25.16-7.08,1.8-12.39,12.58,12.39L851.87,1462l-1.8,17.7,14.38,5.31,9,28.31-12.58,7.08v15.93l-10.79,21.24L842.88,1577l-3.6,10.61,3.6,24.78L810.53,1623Z" transform="translate(0 0)"/>
				<path id="path4187" class="cls-2" d="M785.35,1623l18,8.84,9,8.86,1.8,14.16-5.4,15.92-9,12.39L780,1674.34l-5.4,12.39-5.4,17.7-12.58,5.31,3.6-19.47,7.19-14.16v-15.92l7.18-14.16,10.79-23Z" transform="translate(0 0)"/>
				<path id="path4190" class="cls-2" d="M821.29,1631.86l16.18-10.61,5.39,10.61-1.8,12.4-10.78,12.39-9,8.85v-33.64Z" transform="translate(0 0)"/>
				<path id="path4192" class="cls-2" d="M841.06,1662l-16.17,15.93-5.4,15.92,14.38,7.08,10.78-12.39-3.6-12.39V1662Z" transform="translate(0 0)"/>
				<path id="path5169" class="cls-2" d="M846.45,1600l16.18-17.7L877,1561.08l1.8-31.86-1.8-23-7.19-19.47-7.19-19.47v-19.47l-12.58-10.62L837.47,1423l1.8-15.93,10.78-17.69,16.18-8.86,7.19-8.85,25.16-1.77,5.39,19.47,10.79,38.94,18,21.23,12.58,15.93,7.19,10.62-1.8,19.47-5.4,5.31v23l-7.19,15.93-3.6,12.39-3.6,15.92v28.32l-12.58,8.86-7.18,14.15-21.57,7.08-1.79,10.62L877,1642.5l-14.38,8.85s-5.4-1.77-5.4-8.85-5.4-15.93-5.4-15.93l9-12.39L846.44,1600Z" transform="translate(0 0)"/>
				<path id="path5171" class="cls-2" d="M857.24,1674.34l9-12.39L877,1676.1l-7.19,7.08Z" transform="translate(0 0)"/>
				<path id="path5173" class="cls-2" d="M974.06,1516.83l-7.18,23-9,26.54v24.78l18,19.47v-46l9-23,1.8-12.39-12.59-12.38Z" transform="translate(0 0)"/>
				<path id="path5175" class="cls-2" d="M884.2,1647.79,878.8,1662h18Z" transform="translate(0 0)"/>
			</g>
		</g>
	</g>
</svg>