<svg xmlns="http://www.w3.org/2000/svg" id="Layer_1" data-name="Layer 1" viewBox="0 0 1544.65 2132.5">
	<defs>
		<style>.cls-1{opacity:1;}.cls-2,.cls-3,.cls-7,.cls-9{fill:#268000;}.cls-10,.cls-11,.cls-2,.cls-3,.cls-5,.cls-6,.cls-7,.cls-8,.cls-9{stroke:#fff;}.cls-10,.cls-2,.cls-3{stroke-width:2px;}.cls-3{stroke-linecap:round;stroke-linejoin:round;}.cls-11,.cls-4{fill:none;}.cls-4{stroke:#000;}.cls-10,.cls-5,.cls-6{fill:#2c8a04;}.cls-5{stroke-width:0.75px;}.cls-6,.cls-8{stroke-width:0.5px;}.cls-7{stroke-miterlimit:10;}.cls-8{fill:#9d9d9d;}.cls-9{stroke-width:3px;}.cls-11{stroke-width:8px;}</style>
	</defs>
	<title>atc-map-green</title>
	<g id="atc-map">
		<g id="Group_9" data-name="Group 9">
			<g id="Chittagong" class="cls-1">
				<path id="path4177" class="cls-2" d="M920.48,1047.16l-15.25-6.26v-3.76l-12.71-10,3.81-10,11.44-13.77L909,985.83l8.9-5,3.82,5h11.43l3.82-3.76,21.6,2.5v-8.76l7.62-2.5L971.32,952l10.16-2.5-6.35-11.27L986.57,922l14-6.25-1.27-5,7.62-7.51-2.54-12.52-7.63-1.25-7.62-13.77,10.17-12.51,17.79,2.5,6.35-10,21.6-7.51,21.6,6.26,11.44,7.51,14-20,10.17,2.5v7.51l-16.52,11.26,10.17,6.26v6.26L1083.16,872l-1.27,15,7.62,5-8.9,2.5,6.36,20,6.35,8.76V927l-5.08,2.5v13.77l-14,6.26,5.08,12.52-10.17,2.5-7.62,15,7.62,8.76,1.27,6.26-6.35,5-2.54,10,5.08,10-7.62,10-5.09-3.75H1045l-6.35,5,1.27,15,6.35,2.5,3.82-5,3.81,2.5v16.28h-5.08l-8.9-7.51-2.55,3.76-10.16-10v-10h-5.08l-1.27-5-10.17-2.5,6.36-5-14-11.27-20.34-1.25-8.9,7.51H958.6l-6.35,1.26,2.54,10-11.44,2.5-14-10-7.63,5,1.27,3.76,3.81,3.75-6.35,10Z" transform="translate(0 0)"/>
				<path id="path3208" class="cls-6" d="M875.21,1062.46l-1.36,11.93,7.65,9.74,2.24,5.75,4.94-.89,6.74-10.18,7.64-12.83-3.6-9.29.45-10.62-7.27-8.54-7.56,14.3-12.14-3.1-.44,9.29Z" transform="translate(0 0)"/>
				<path id="path4179" class="cls-2" d="M894.08,1091.66l11.23-20.36,4.05-6.19-5.4-8.85,1.8-15,14.38,6.19,6.29-9.29-3.14-5.31-.9-4,5.84-3.54,14.83,9.73,11.23-3.1-1.36-9.29,6.74-1.78,14.83.44,8.09-7.52,19.32,1.33-3.15-.88,11.24,6.19,6.73,5.75-5.39,4.42,9.44,3.1,1.8,4.43h4.94l-.9,9.73,10.33,9.73,2.25,4.43-.45,11.5,3.15,7.52,10.33,10.62-.45,7.08,6.3,2.21-3.15,2.65.45,5.31,13,10.18,6.73,21.68,6.74,21.69,1.14,7.45-1.59,5.37.9,4.43,9,4.86-3.6,3.1-.45,4,3.15,6.64,2.7,3.54-.9,4.43,1.8,34.06,4.49,5.75,4.94,9.73-1.35,11.07-9.89,5.75-12.58-6.64-10.78.44-16.18-2.21-8.09-5.31-8.08-.45-9.44,5.32-3.15-2.22h-9l-11.69-5.75-5.84-10.17-.45.88-7.18-.44-4.94-7.08,8.53-2.21,5.4-7.52-.9-15.48,5.84-9.74-6.74-6.19-1.35-9.73-8.09-9.73-3.6-8-13.48-9.73-1.8-8.85-9.44-6.19-3.6-17.25-18-4.87-13,11.06-4.94-3.1-4.94,10.18h-5.4L897.19,1135v-8.4h-.44l-5.84-6.19-8.54-8.4,7.19-4-.45-8.4,5-8Z" transform="translate(0 0)"/>
				<path id="path5150" class="cls-2" d="M860.75,1287.42,848,1266.15,843,1253.63l6.36-17.52,8.9-15,11.44-12.51,3.81-12.52-5.08-10v-8.77l-8.9-5-8.91-2.5V1161l-7.62-3.76,6.35-12.51,2.55-12.52,1.27-10,12.7-3.76,8.91-3.75,7.62-1.25,14,12.51,1.27,8.76,14,6.26,6.35-8.76,5.09,5L935.73,1121l21.59,6.25,2.55,16.27L971.3,1151l1.28,11.26,12.7,11.26,11.44,15-1.27,8.76,10.17,8.77-7.63,7.51,1.27,16.27-3.81,8.76h-8.9l-5.08,2.5-7.63-5-14,1.25-6.35-10h-6.35l-7.63,3.76-3.81,12.52-2.54,8.76-17.8,6.25H909l-12.71,7.51h-2.54l-3.81-7.51h-3.81l-3.82,5-1.27,12.52v6.26l-7.62,8.76-12.71-3.77Z" transform="translate(0 0)"/>
				<path id="path6121" class="cls-2" d="M870.92,1289.92l3.81,12.52,16.52,6.25,2.55,10,5.08,10,16.52,13.77,6.35,23.77,11.44,26.28,5.08,20,22.88,22.52,7.63,13.77,17.79,6.26,20.33-15-3.81-17.53-14-22.52,1.27-7.51-20.33-30-1.27-20,12.71-6.26,3.81-15v-21.27l-12.71-8.76-15.25-6.26-1.27-5,10.16-3.76-5.08-8.76,6.36,1.25,12.71-28.78-7.63-3.75H959.88l-5.09-10-14,2.5-7.62,25-20.34,6.26-2.54-2.5-16.52,8.76-5.08-7.51h-3.82l-3.81,3.75v23.78l-10.16,3.76Z" transform="translate(0 0)"/>
				<path id="path6152" class="cls-2" d="M971.32,1340l10.17-12.52,5.08-20-10.17-12.51-17.79-12.52,2.54-12.52,15.25-27.52,20.34,7.51,20.33,17.52,20.34-7.51,12.71,2.5,28,7.51,2.54,10-2.54,12.52v10l-7.63,22.52,22.88-2.5H1106l-10.16,15V1350l5.08,17.52L1085.7,1360l-15.25,5-28-2.5-15.25-10-7.62,10s-7.63,7.51-17.8,2.5-28-22.53-30.5-25Z" transform="translate(0 0)"/>
				<path id="path6154" class="cls-2" d="M996.74,1395h28l12.71,15,10.17,17.52-7.62,15-17.8,7.51-12.71-2.5-2.54-22.52-10.17-30Z" transform="translate(0 0)"/>
				<path id="path6156" class="cls-2" d="M1040,1380l33,2.5,15.25,12.52-2.54,15-22.88-10L1040,1380Z" transform="translate(0 0)"/>
				<path id="path6158" class="cls-2" d="M1085.7,1455.1l-25.42-7.51v-32.53l20.33,10,7.63,12.52Z" transform="translate(0 0)"/>
				<path id="path6160" class="cls-2" d="M991.65,1467.62l33.05,2.5,10.16,22.52,2.55,20,10.16,12.52-2.54,27.53-5.08,27.52-17.8,12.52-15.25,17.52-7.62-2.5,2.54-25,2.54-27.53,2.54-25-2.54-25Z" transform="translate(0 0)"/>
				<path id="path7138" class="cls-2" d="M1101.67,1362.86l-7.19-10.61,1.8-10.62,10.78-19.47-12.58,1.77-16.18-3.53-5.39,5.31,3.6-14.16-1.8-12.39,3.59-10.62-5.39-21.23,19.77,5.31,10.78-8.85,10.79,3.54,7.19-7.08-5.39-15.93-3.59-10.61v-10.62l3.59-14.16,1.8-12.39,16.18,3.54,10.78,17.69L1155.6,1239l3.6,15.93v14.15l12.58,17.7-1.8,12.39,14.38,5.32-19.77,1.77,1.8,19.47H1152l-10.79,7.08-5.39,15.93-12.58,17.69v12.39l-7.19-3.54v-8.85l-14.38-3.55Z" transform="translate(0 0)"/>
				<path id="path2436" class="cls-2" d="M1089.09,1375.25l16.18,5.32,3.59,12.39-5.39,1.77Z" transform="translate(0 0)"/>
				<path id="path2438" class="cls-2" d="M1099.88,1410.65l10.78,19.47,7.19,10.61v7.08l-3.6,1.77-3.6,17.7,5.39,19.47,16.18,17.7,10.79,5.31v10.62l1.8,3.54h14.37l9-10.62,3.6-10.62v-10.61l-3.6-10.62-28.76-47.78-1.8-10.62Z" transform="translate(0 0)"/>
				<path id="path2440" class="cls-2" d="M1254.44,1568.15l-10.78-7.07-3.6-21.24-1.8-19.46v-7.09l-12.58-19.46-9-24.78-14.38-12.39-10.78-15.93-7.19-14.16v-5.31l-7.19-8.85-9-7.08-27-19.47,5.4-8.85L1134,1364.62l1.8-10.61,5.39-21.24,18-7.08h7.19l1.8-17.69h14.38l12.58,3.54,7.19-8.86,21.56-5.31,10.79,5.31,3.6,10.62-7.19,12.39,9,12.39,9,17.7,9,15.93,7.19,12.39v-14.16h14.38l7.18,5.32v15.92l12.59,1.77,3.59,17.7,1.8,19.47,5.39,14.16-1.8,12.39,12.59,8.85,3.6-8.85,1.8-8.85-5.4-7.08,1.8-15.93,14.38-5.31,14.38,15.93,12.58,30.08,3.6,21.24-12.59,23,19.78,14.15-3.6,14.16-1.8,8.85,5.39,21.23,1.8,8.86v8.85l5.4,8.85-3.6,10.61,3.6,17.7,10.78,21.24-5.4,10.62-5.39,7.07,5.39,12.4-12.58,3.53-10.78-3.53,3.6-10.62h-16.18l-10.78,10.62-19.77,3.53-10.78,10.62-18,10.62-3.59-14.16,9-12.39-14.38-12.39v-15.93l-10.78-14.16-3.6-24.77-9-8.85-5.4-28.31Z" transform="translate(0 0)"/>
				<path id="path4391" class="cls-2" d="M1301.75,1402.55l17.79-22.53V1362.5l7.63-25,35.59-25-10.17-47.56,25.42-12.52-5.09-22.52-12.71-32.53,5.09-20-17.8-17.52,25.42-30-30.5-67.57-15.25,2.5-17.79-30h-7.63l-10.16,10,10.16,42.55,5.09,27.53-7.63,10v15l-15.25-5-17.79,15-17.79,30-7.63,22.53,12.71,22.52,2.23,31.65-3.13,8.09-9.27.3v7.51l-20.34,25L1238.2,1310l-5.08,10,2.54,10,15.25,32.54,15.25,20,2.54-10,17.8,2.5,2.54,15,12.71,12.5Z" transform="translate(0 0)"/>
				<path id="path7308" class="cls-2" d="M1390.71,1700.37l-10.17,12.52-17.79-7.51-5.08-10-15.25-22.52,7.62-10h12.71l5.09,10,17.79,2.5v-10l7.62-20-7.62-12.51-5.09-25-2.54-12.52-5.08-25-5.08-17.52,5.08-25,15.25,5,15.25-7.51h25.42l15.25,10,22.88,12.51,12.7,27.53,12.71,35-5.08,10,15.25,32.54,15.25,42.54,2.54,12.52-2.54,27.53v17.52l-2.54,20,2.54,25,7.63,27.52L1528,1853l2.54,22.52,12.71,22.53-12.71,5-12.71,15-7.62-5-2.55-12.52-7.62-17.52,2.54-10-7.62-2.5-7.63,5-12.71,2.51-15.25-5-2.54-10-10.17-25-7.62-5-10.17,12.51-5.08,10-10.17-2.5-12.71,22.52-7.63,2.5-7.62,10,2.54,20-7.62,17.52-2.55-25-7.62-20-2.54-10,15.25-17.52,10.16,10,7.63-15-10.17-20-10.16-17.52,5.08-10L1372.92,1788l-5.08-15-7.63-20,12.71-12.51h20.33v-15H1406v-7.51l-15.25-17.5Z" transform="translate(0 0)"/>
				<path id="path8281" class="cls-2" d="M1304.29,1427.57l-5.08-25,12.71-15,10.16-17.52,2.55-30,38.12-27.53-2.54-15-5.08-27.53,22.87-17.52-5.08-20-7.63-32.53V1182.3l-17.79-25,22.88-30-10.17-25-17.79-45,5.08-7.51,20.34-20h12.7l7.63,12.52,5.08,20,5.09-17.52,5.08-10,12.71,5-7.63,17.53,5.09,17.52,5.08,12.51,5.08,45,12.71,17.52,7.63,15-5.08,10,7.62,7.51,2.54,10-17.79,12.52,2.54,20,2.54,17.52,2.55,12.52,10.16,12.51-7.62,40,10.16,20,20.34,10L1467,1350l7.63,30,15.25,15,2.54,20,5.08,25-7.62,5,7.62,25,5.08,30,5.09,25v15l5.08,20,5.08,20v22.52l-12.7-5,7.62,27.53,10.17,40,7.62,25-10.17,17.51-5.08-12.51-7.63-22.53-7.62-25-12.71-25,2.54-7.51-5.08-20-10.17-35-10.17-10L1439,1532.7l-33-7.51-22.87,10-15.25-12.52-10.17-15,7.62-20-2.54-20-12.71-25-15.25-22.52-7.62,2.51-10.17,15,7.63,20-5.09,10-10.17-12.52-5.08-27.55Z" transform="translate(0 0)"/>
				<g id="Cox">
					<path id="path5362" class="cls-2" d="M1253.45,1677.85l25.42-5,5.08,25-7.62,22.52-15.25,25,2.54-17.52,2.54-35Z" transform="translate(0 0)"/>
					<path id="path5364" class="cls-2" d="M1289,1700.37l28-15,12.71-10,12.71-2.5,17.79,30,20.33,10,7.63-2.5,5.08-12.52,12.71,17.52v7.51h-12.71l-2.54,17.52h-22.88l-10.16,12.52,10.16,25,20.34,20-7.63,12.52,12.71,20,10.17,12.52-5.08,17.52h-10.17l-2.54-10-17.79,20,5.08,22.52,16.23,18.53,2.54,12.47-12.15,14.53,11.14,20,18.81,23.54-11.1,14,12.64,20,5.23,15.9-4.9,9.9,7.32,16.25,10.17,25-2.54,12.51-7.63-7.51-10.17-27.53-12.7-15-10.17-17.52L1378,2010.7v-15l-43.21-50-5.09-40.05v-17.52l-7.62-17.52-15.25-20-2.54-10,12.7-15,2.55-17.52,5.08-15,5.08-22.52-2.54-27.53L1317,1765.43l-12.7-7.5,10.16,17.52,7.63,20-12.71,25,2.54,2.5-25.42-2.5L1289,1833h-15.25l-2.54-12.52,7.63-22.52,5.08-20-12.71-10,17.79-67.55Z" transform="translate(0 0)"/>
					<path id="path3682" class="cls-7" d="M1300.6,1748.94l25.42-5,5.08,25-7.62,22.52-15.25,25,2.54-17.53,2.54-35Z" transform="translate(0 0)"/>
					<path id="path1881" class="cls-8" d="M1412.32,2131.69c-1.31-5.25.65-7.35-4-12-6.26-6.25,1.07-7,6-7C1416.15,2112.69,1412.47,2131.33,1412.32,2131.69Z" transform="translate(0 0)"/>
				</g>
			</g>
		</g>
	</g>
</svg>