<svg xmlns="http://www.w3.org/2000/svg" id="Layer_1" data-name="Layer 1" viewBox="0 0 1544.65 2132.5">
	<defs>
		<style>.cls-1{opacity:1;}.cls-2,.cls-3,.cls-7,.cls-9{fill:#268000;}.cls-10,.cls-11,.cls-2,.cls-3,.cls-5,.cls-6,.cls-7,.cls-8,.cls-9{stroke:#fff;}.cls-10,.cls-2,.cls-3{stroke-width:2px;}.cls-3{stroke-linecap:round;stroke-linejoin:round;}.cls-11,.cls-4{fill:none;}.cls-4{stroke:#000;}.cls-10,.cls-5,.cls-6{fill:#2c8a04;}.cls-5{stroke-width:0.75px;}.cls-6,.cls-8{stroke-width:0.5px;}.cls-7{stroke-miterlimit:10;}.cls-8{fill:#9d9d9d;}.cls-9{stroke-width:3px;}.cls-11{stroke-width:8px;}</style>
	</defs>
	<title>atc-map-green</title>
	<g id="atc-map">
		<g id="Group_9" data-name="Group 9">
			<g id="Dhaka" class="cls-1">
				<path id="path4163" class="cls-2" d="M436.27,1000.85V984.59l-6.35-5,7.62-3.75,17.8,1.25,10.16,1.25,6.36,7.51v8.75l2.54,8.76,19.06,11.27-5.08-13.77,10.17-1.25,2.54,6.26,6.35,3.75,17.79-11.26,6.36,3.75-1.27,6.26,6.35,7.51v-10l28-1.25,14,2.5,8.9,11.26,1.27,13.76-11.44-8.76-8.9-11.26h-30.5l-1.27,5h25.42l12.71,8.76,16.52,12.51,6.35,5,5.09,2.5-6.36,2.5-1.27,6.26H582.42l-1.27,6.25-8.9-2.5v17.52l10.17,6.26-2.54,6.26H571l-2.54-6.26-2.55,6.26-12.7-1.25-2.54-15L535.4,1086h-6.35l-2.54-11.26h-5.09l-2.54,5-12.71-6.26-2.54,5,7.63,5-7.63,3.76-5.08-1.25v-6.26l-10.17-1.25-5.08-13.77-12.71-8.76-1.27-7.51-17.8-1.25-2.54,3.76-15.25-13.77-2.54-7.51-3.81-7.51,8.9-8.76v-12.52Z" transform="translate(0 0)"/>
				<path id="path5128" class="cls-2" d="M488.79,1077.94l8.09,1.77.9,6.19,5.4,2.66,8.08-4.43-9-5.31,3.6-4.43,13.48,5.32,1.8-5.32,4.49.89,2.7,10.62,7.19.88,14.38-14.15,2.7,15,12.58,1.77,2.7-7.08,3.59,6.19,8.09.89,3.6-6.19-10.79-5.31v-20.35l9,3.53,1.8-6.19h12.58l.9-6.19h2.69l7.19,1.77,2.7,7.08,26.06,5.31,9,10.62h7.18l4.5,10.62,27.85,4.42,16.18,11.5,8,14.16L709,1131h-7.19l-.9,13.27-7.18,6.19,9.88,6.19-4.49,11.5L693.68,1185l-6.29-2.65-9.89-6.19L673,1188.55l-4.5-.89-.9-6.19h-5.4l-6.29-9.73-8.08-.89,6.29,8-7.19.88-9.89,6.2-.9-9.73h-8.09l-5.4,4.42-4.49-7.08-8.09-.88-15.27,15-20.67.89-1.8,5.31,8.08,4.42-.9,4.43-2.7,4.43-11.68,9.72h-9l-4.49-5.31H538.21l-4.49-8,9-9.73L531,1191.21l-2.69-9.73v-16.81l-6.29-4.42,5.39-5.31,14.38,10.61-5.39-9.73-9.89-15,.9-12.39h-2.7l-4.49-8-7.19-6.18-21.56-.89-.9-3.54,5.39-4.42h6.29l.9-3.54-9.89-8.86-4.49-15Z" transform="translate(0 0)"/>
				<path id="path6099" class="cls-2" d="M591.24,1300l.9-5.31-12.59-7.08-6.29-15.93-18-17.7,12.58.89,7.19-17.7,1.8-9.73-9-3.54-10.78,8-1.8-1.77,2.68-8v-4.42h5.4l16.18-10.62,1.8-8-9-5.31,1.8-6.19,17.07.88,17.07-14.15,8.09.88,6.29,5.31,5.4-4.42,6.29.88,1.8,9.74,8.09-5.32,9.89-.88-5.4-9.73,5.4.88,7.18,10.62h4.5l2.69,7.08h3.6l3.59,13.27-4.49,15-11.68,6.19s3.59,8,0,8H647.85l-5.39,19.47,10.78,6.19,4.49-8,6.29-3.53,11.69,7.07,4.49,4.43,9.89-8.85,11.68,6.19-4.49,3.54-.9,8.85,11.68,3.54-4.49,1.77v11.5h-9.89l-3.59,8-10.78,4.43v8l-3.6.89v4.42l-7.19,5.31-3.59,14.16-3.6,5.31-.9,3.54-9,1.77H638.88l-1.8,9.73h-2.7l-9.88-6.19-14.38.89-12.58-7.08-1.8-6.19,8.09-7.08-13.48-8.85.89-15.06Z" transform="translate(0 0)"/>
				<path id="path3189" class="cls-2" d="M586.24,927l-20.34,6.26-12.71,1.26,1.28,12.51,11.43,13.77,15.25,13.77,1.27,7.5,5.09,6.26-1.27,12.52,14,18.77,15.25,10,15.25,3.76,6.35,7.51h-14l10.17,10,6.36-3.75,6.35,12.51,22.88,6.26,7.62-6.26v-13.76l16.52-2.51,11.44-5,29.23,5L726,1022.15l12.71-13.77-25.42-5-8.9-11.27-6.35-13.77-8.9-5-6.35-16.27-12.71-6.26,10.16-8.76-24.14-1.25-2.54-10-6.36-2.51-12.7,12.51-3.81-2.5-8.9,10L618,942.05l-5.09,11.26-7.62-2.5-6.36-5-3.81,5-5.08-7.51L586.24,927Z" transform="translate(0 0)"/>
				<path id="path4160" class="cls-2" d="M668.85,1065.93l6.35-7.51V1045.9l21.6-2.5,7.62-5,28,6.26L726,1022.13l12.71-11.26-21.6-6.26-6.35-1.25-12.71-23.78-10.17-5-3.81-16.27-14-8.77L680.28,942l-21.6-2.5,1.28-6.26v-7.51l10.16,7.51,11.44-8.76L696.81,932l11.44-5,7.62,12.52,10.17-5,10.17-2.5,3.81,6.26,6.36-18.77L757.81,937l-10.16,8.76,8.9,2.5,19.06,2.5,1.27,23.78,10.17-2.5,6.35,6.26h8.9l6.36-5H815l1.27,10v8.76l-2.54,7.51,11.44,32.54,5.08,5-5.08,2.5-21.6,10,8.9,15-3.81,13.76-11.44-10-3.82,6.26L789.6,1091l-8.9-2.5,5.09-15-11.44-6.26-6.36-7.51-19.06-3.75-7.63,11.26-1.27,6.26L738.76,1091l-6.35,7.51-8.9-5-1.27,10-3.82,6.26-12.7-6.26-1.28-11.26-3.81-12.51-10.18-6.27-21.6-7.5Z" transform="translate(0 0)"/>
				<path id="path5131" class="cls-2" d="M805.12,1281.46l-18,5.31-10.78,7.08-3.6,8.85-12.27-9.15-9.3-12.08,5.4-10.62,7.19-10.62L753,1249.62l-9-15.93-12.58-8.85-5.39-23,16.17-12.39,12.59-23,10.78-15.93,18,1.77,16.18,12.39,7.19,12.39h27l5.39,12.39,1.8,12.39,5.4,19.47-7.19,15.93-10.56,8,6.88,10.7-23.27,6-7.2,19.45Z" transform="translate(0 0)"/>
				<path id="path6102" class="cls-2" d="M701.89,1129.75l16.52,1.25,10.17,8.76,11.43,5,25.42,7.51-5.08,8.77-17.8,28.78L726,1201.08l3.82,22.52,15.25,11.26,7.62,17.53,12.71,8.76-14,18.77,10.17,8.76,3.81,7.51-6.35,5h-14l-15.25-3.76,1.27-16.27,1.27-15-6.35-2.5-3.82,6.26H705.7l-10.16-6.26v-5l6.35-2.5-11.44-7.51-10.16,8.76-12.71-10H660l-7.62,10-11.44-7.51,7.62-18.77,15.26,1.25-2.55-7.51,11.44-6.26,3.81-16.27-6.35-11.26,6.35-12.52,17.79,7.51,6.36-26.28-5.08-10,6.35-5v-15Z" transform="translate(0 0)"/>
				<path id="path2229" class="cls-2" d="M699.35,929.53,719.68,912l-2.54-10h5.08v-7.51l7.63,7.51,7.63-1.25-1.27-21.27L740,865.7l17.79-7.51-2.54-11.26,11.44-5-3.81-3.75,7.62-2.5,8.9-1.25,3.81-7.51,7.63,8.76,7.62-1.25,5.09,3.75,3.8-21.28,12.71-1.25,3.81,5,15.26,6.26v6.26l10.16,10h11.44l2.55-3.76h10.16l14,8.76,7.63,3.76-7.63,5,1.27,11.26,5.09,10L890,887l-1.27,7.51,7.63,7.5-14,2.5-5.09-5-3.81,3.75,5.09,2.5,2.54,23.78-6.36,15-6.35,1.25,3.81,6.26-7.62,12.51-10.17,7.52-6.36-5-12.71-15-1.27,6.26-7.62-1.26-10.17,21.28-6.35-5-5.09,3.75-10.16,2.5L787,972.08l-10.17,2.51v-25H759.08l-10.16-3.75,8.9-10-6.37-10-3.81-1.25L740,938.3l-3.82-7.51-10.16,5-8.9,5-17.8-11.28Z" transform="translate(0 0)"/>
				<path id="path2231" class="cls-2" d="M854.39,973.32l12.71-11.26,5.09-7.51-5.09-8.76h7.63L879.81,932V918.25l-2.54-12.52L870.92,902l5.08-3.76,6.35,7.51,11.44-2.5h3.81L890,894.47l3.81-16.28L890,869.43V856.92l5.08-5,7.63,1.25,8.9-7.52L923,864.42l8.9,3.76,6.35,10,12.71,5,1.27,3.75-7.63,3.76,6.36,7.51-8.9,2.5,14-1.25,7.62,8.76,11.44-3.76L977.67,917l7.63,3.75-2.54,3.76L975.13,937l3.81,11.27-6.35,2.5-7.63,20-5.08,3.76-2.54,6.26-1.27,2.5-16.52-1.25-8.9,3.75H923v-2.5l-8.9-1.25-3.81,2.5L909,1000.84l-7.63,12.52-11.44-10-1.27-6.26-2.54,8.76-10.17-2.5-3.8-3.76,7.62-3.75L876,987.08l-8.9,3.75-2.54,6.26-3.82-7.51,8.9-12.52-15.24-3.74Z" transform="translate(0 0)"/>
				<path id="path3206" class="cls-2" d="M811.19,1064.67l-11.44-17.52,29.23-10-15.25-36.29,3.81-8.76V980.82l8.9-23.77,7.62,2.5,1.28-6.26,15.25,18.77,17.79,7.51-8.9,8.77,2.54,7.51,14-8.77,5.08,6.26-8.9,8.76,12.71,3.76,15.25,5-1.27,5-3.81,11.27-8.9,7.51-2.54,11.26-8.9-2.5h-6.36l-2.54,8.76v12.52l-16.52,7.51-6.35,6.26-6.36,7.51-10.17-1.25v-7.51l-8.9,6.26-7.62-6.26,1.27-12.53Z" transform="translate(0 0)"/>
				<path id="path2235" class="cls-2" d="M717.05,1113.33l5.39-19.46,10.78,5.31,7.19-8.85v-15.94l9-19.46,18,5.31,18,12.39-5.4,17.7,10.78,1.77,5.4-19.47,21.57,14.16,18,3.53,3.6,8.85,7.19,5.32v12.39l-1.8,10.62-9,14.15-3.6,14.16-12.58-14.16H796.13l-18-5.31H763.77l-16.17-3.54Z" transform="translate(0 0)"/>
				<path id="path3207" class="cls-10" d="M787.14,1143.42l32.36,7.08-3.6,17.7Z" transform="translate(0 0)"/>
				<path id="path2237" class="cls-10" d="M842.41,1089.89l2.69,5.75,4.49,7.52,2.25,13.72,17.52-7.52,16.63-4.43-7.64-14.16-8.09-13.72-16.18.89-11.67,12Z" transform="translate(0 0)"/>
				<path id="path7073" class="cls-10" d="M826.44,1259.89l-10.17,1.47-6.36,11.75L815,1283.4l14-1.47,10.16,11.75,5.09-7.35-2.54-13.22-5.09-8.82-10.16-4.4Z" transform="translate(0 0)"/>
				<path id="path5143" class="cls-9" d="M893.79,853.19l-14-12.51L876,826.91l-2.54-7.51-1.27-10,8.9-5,1.27-16.27-25.42-17.52,3.81-5v-6.26l10.17,1.25,10.16,8.76,8.9-1.25,8.9-12.52,6.36,6.26,5.08-12.52,10.17,8.77,11.44-5,8.9-12.52,6.35-10,28-5L957.35,728l14-2.5h16.52l8.9,2.5,12.71-8.76,12.71,2.5,5.08,8.76,14-8.76,7.62-6.26h14l-2.54,10L1071.73,738v8.76l-3.81,6.26-1.27,3.76-17.8,10,10.17,2.5,2.54-3.75,8.9,2.5,5.09,10-1.28,6.26-8.9,5,12.71,8.76,2.54,7.51-8.9,1.25-3.81,5,6.36,5v7.51l-8.9,2.5-15.26,1.25-3.81,6.26,7.63,3.75,2.54,5-6.36,3.76-15.26,3.76-15.25,3.76-3.81,10-16.52-1.25-12.71,12.51v3.76l7.62,8.76,10.17,2.5,2.54,8.76-2.54,6.26-6.35,5s7.62,3.75-1.27,6.26-11.44,3.75-11.44,3.75l-6.36-6.26-3.81-8.76L963.68,907l-7.62-8.76H945.89l-1.27-10,7.63-6.26L937,878.22l-3.82-10-8.9-1.25-6.35-12.51-7.62-7.52-3.82,1.25L904,850.69l-10.16,2.5Z" transform="translate(0 0)"/>
				<path id="path2215" class="cls-9" d="M587.51,925.77l10.17-16.27-1.28-15-5.08-11.26-7.62-2.51v-5l3.81-3.76-3.81-5,2.54-15,1.27-22.52-17.8-18.77,8.9-11.26-17.79-16.28,11.43-12.51,2.55-15-8.91-7.51,8.91-6.26,3.81,2.5,6.35-10L596.4,738l1.27-6.25,5.08-8.77,3.82-6.25,2.54-6.26,5.08-3.76,6.36-8.76,6.35,1.25v-5l-8.9-7.51-1.27-6.26L618,674.2l3.81,5,12.71-7.51,1.27-7.51,7.63,3.75,10.17,13.77,15.25-22.52,12.71-5,7.63,3.76,1.27,11.27h11.44v21.28l10.16,15v6.26l-6.35,8.76-1.27,7.51,8.9,20L740,764.34l-6.36,2.5-3.81,8.76,11.44,20,1.27,8.76-3.81,6.26,8.9,22.52,8.9,3.76,6.35,2.5,2.54,3.75-10.17,5v11.27l-7.62,2.5-6.36,5-5.08,13.77,1.27,18.77-8.9,1.25-5.08-5L722.23,902h-3.82l1.27,8.76-14,13.77-10.17,6.26h-3.82l-11.43-7.51-7.64,7.52h-3.81l-7.63-5v8.77l-6.35,6.26-2.54-10-5.08-2.5L635.8,940.8l-7.63,2.5-6.35,6.26L618,942.05l-5.09,8.76H605.3l-7.63-6.25-2.54,3.75-5.08-7.51-2.54-15Z" transform="translate(0 0)"/>
			</g>
		</g>
	</g>
</svg>