<?xml version="1.0" encoding="UTF-8"?> <svg xmlns="http://www.w3.org/2000/svg" width="1544.654" height="2132.509" viewBox="0 0 1544.654 2132.509"><g id="e-map" transform="translate(-206.372 -228.588)"><g id="Group_9" data-name="Group 9"><g id="Rongpur" transform="translate(200.425 216.181)" opacity="0.999"><path id="path4167" d="M254.128,132.288l6.354-6.257,6.354,1.251,6.354,5-5.083,13.765,7.625,2.5,6.354,7.508,7.625-1.251-1.271-8.76-6.354-3.754,7.625-8.76,13.979,1.251,6.354,8.76,5.083,6.257,3.813,6.257,2.542-3.754H332.92l2.542,2.5,7.625-3.754v8.759l1.271,15.017,8.9,6.257,8.9,5.006,2.542,6.257-1.271,7.508-2.542,18.771,3.813,12.514,2.542,13.765,10.167,8.76,11.438,7.508,8.9,7.508L393.922,278.7l-3.813,8.76-3.813,5.005-7.625-8.759-12.709,11.262,1.271,13.769-10.167-10.011-6.354,12.513-20.334-5.005-13.98,3.754,5.083,12.514-6.354,7.509-3.813,6.257-11.438-1.252-10.167-8.76h-6.354V312.49l-10.167-2.5V279.954l-5.083-6.257-5.083-8.76-13.98-3.754,1.271-6.257-3.813-2.5v-10.01l-1.271-3.754,5.083-6.257-3.813,6.257,7.625-11.263,7.625-3.754V202.369l3.813-7.508v-5.006l-1.271-17.519,3.813-7.508-13.979-15.017v-17.52l0,0Z" fill="#268000" stroke="#fff" stroke-width="2"></path><path id="path2169" d="M115.6,78.479l-2.542-8.759-2.542-6.257,6.354-8.759,5.083-11.263,5.084-15.017L137.2,13.407l2.542,16.268,1.271,8.76,10.167,10.011,10.167-2.5,2.542,8.76,10.167,2.5,1.271,7.508L185.5,68.468l1.271,5,10.167,2.5,6.354-7.508L207.1,78.479l5.083,6.257,7.625,5,2.542,5,6.354-2.5L232.518,96l-3.813,8.76,3.813,3.754,5.083,3.754v2.5l10.167-1.251v5l2.542,5v6.257l6.354,5.006-1.271,11.262,5.083,8.76,6.354,8.76-2.542,8.76v23.776l-3.813,10.011,2.542,12.514-6.354,8.76-8.9,12.514L237.6,237.4l-13.98-1.251-5.083-10.011-6.354-5.005,7.625-13.765-5.083-10.011-6.354-7.508L198.2,186.1l-5.083-5.006-3.813-7.508-6.354,2.5a19.479,19.479,0,0,0-5.083-2.5c-3.495-1.251-8.9-2.5-8.9-2.5l-6.354-2.5-6.354,5.006-10.167-2.5-8.9-3.754-7.625,5.006-1.271,6.257a45.871,45.871,0,0,1-8.9-2.5,90.178,90.178,0,0,1-10.167-5.005l-2.542-3.754,8.9-5.005,5.084-6.257-3.813-7.508v-17.52l13.98-1.251,5.083-5,5.083-7.508,11.438-3.754,2.542-8.76,6.354,10.011,6.354-3.754,5.083-8.76L167.7,96l-5.083-7.508v-8.76l-8.9-7.508-11.438,2.5-6.354-10.011-6.354,5.006-7.625-1.251Z" fill="#268000" stroke="#fff" stroke-linecap="round" stroke-linejoin="round" stroke-width="2"></path><path id="path2192" d="M48.241,317.493,41.887,306.23l-7.625-10.011,5.083-11.263-12.709-2.5,3.813-20.022,8.9-6.257-1.271-7.508,5.084-10.011,15.25-10.011,5.083-13.765-11.438-6.257,6.354-11.263L60.949,186.1l13.979-5.006V168.578l19.063,2.5,13.98-3.754,19.063,12.514,3.813-10.011,12.973-2.683,11.174,3.935,10.167-1.251,25.418,6.257,10.167,11.263,8.9,3.754,12.709,15.017-8.9,12.514L216,227.4l-6.354,6.257L207.1,243.664h-8.9l-6.354-10.011-3.813,7.508h-7.625L176.6,254.927l5.083,5-6.354,1.251L167.7,273.7l-2.542,7.508-3.813,7.508,5.083,6.257-7.625,1.251h-5.083v-6.257L137.2,291.215v10.011h-6.354l-1.271,12.514L137.2,317.5,132.12,322.5v11.263l6.354,3.754,7.625,6.26-1.271,8.76-8.9,1.252-7.625-7.509-6.354-3.754v-5.009l-8.9-8.76h-7.625L102.89,320l-13.98-7.508,1.271-6.257-1.271-3.754-11.438,3.754-7.625,6.257-6.354-7.508Z" fill="#268000" stroke="#fff" stroke-width="2"></path><path id="path2175" d="M340.546,136.042l-3.813-10.011-10.167,7.508-5.083-7.508,7.625-6.257-3.813-6.257-6.354-1.251-3.813,3.754-12.709-6.257L299.877,98.5,312.586,79.73l11.438-3.754v7.508l3.813,2.5,11.438,3.754,7.625,7.508L363.421,96l3.813,8.76-7.625,1.251,6.354,7.508-6.354,7.508h15.25l5.083,8.759-1.271,3.754h-7.625l-7.625-7.508v11.262l6.354,7.508,10.167,11.263,1.271,7.508-3.813,3.754,11.438,22.525,20.334,3.754,10.167,10.011,1.271,7.508-5.084,2.5,1.271,2.5,8.9,1.251,10.168,5.005,8.9,10.011,16.521,3.754,7.626-13.765,5.083,1.251,1.271,6.257,6.354,2.5,5.083,5.005,5.084-3.754-2.542,23.776,10.167,1.251,13.979,15.017,2.541-1.251v7.508h11.438l1.271,3.754L517.2,298.722l-6.354,1.251,1.271,15.017L498.138,325l-3.813-1.251-1.271-11.263-3.813,1.251-2.542,6.257-10.167-1.251-7.625-2.5-1.271,2.5-25.418-15.017s6.355-7.508,0-8.76a47.144,47.144,0,0,1-12.708-5.005V281.2l-7.626,1.251-11.438-8.76-12.709-5.005-7.625-8.76-16.3-5.306-7.849-12.213-6.354-28.782,3.813-18.771v-7.508L343.09,174.834l1.271-25.027,10.167-3.754-6.354-8.759Z" fill="#268000" stroke="#fff" stroke-width="2"></path><path id="path2174" d="M216,224.888l-6.354,6.257L207.1,241.156l-8.9,2.5L190.582,232.4l-2.542,8.76h-8.9l-3.813,13.765,6.354,3.754v3.754l-7.625-1.251-11.438,25.028,3.813,6.257-2.542,3.754-10.167,1.251-1.271-7.508-3.813,2.5-13.98-2.5,2.542,12.514-6.354-2.5-1.271,11.263,6.354,3.754-3.813,8.76,1.271,8.76L146.1,342.519v10.015l5.084,3.754-1.271,11.263-5.083,2.5v10.015l7.625,5.005h11.438v10.012l8.9,6.257,3.813,8.76,15.251,1.251,8.9-2.5,2.542,6.259,11.438,1.253v5.005l17.792,2.5,5.083-5.005,6.354-3.757s15.251,6.259,11.438,1.254-3.813-13.769-3.813-13.769l7.625,7.509,7.625-7.509v12.515l6.354,2.505,5.083,11.263-5.083,12.514-6.354,3.754,7.625,3.756,1.271,10.013,16.521,16.268,3.813-6.257,3.813,5.006v5.006l31.772,2.5,3.813,5.007-1.271,8.761,13.98,7.508,12.709-2.5,6.354,10.011,17.793-2.5,38.127,8.761,10.167-5.007v-8.76l-10.167-11.262-1.271-11.266L407.9,468.924l2.542-5.005-3.813-2.5h-6.354l-1.271-7.509H387.568l-7.625-8.763,3.813-2.5-12.709-7.508-8.9-35.039-5.083-12.514-19.063-3.754-8.9-20.022-17.792-11.262-2.542-17.521L294.8,331.267l-5.084-5.006-7.625-1.252,3.813-13.765H273.19l-1.271-30.033-10.167-17.52-11.438-2.5L246.5,251.177V239.914l-21.6-3.754Z" fill="#ff5b5b" stroke="#fff" stroke-width="2"></path><path id="path2176" d="M423.156,490.181V480.17l-16.521-11.263,3.813-6.257-10.167-2.5v-5.008l-12.709-1.252-10.167-8.76,6.354-1.251-16.521-8.76-10.167-46.3-20.334-5.009-8.9-20.021-15.25-8.76L307.508,335l12.708-12.514L316.4,309.972l13.98-3.751,21.605,3.751,3.813-10.011,12.708,10.011-1.271-15.016,12.709-12.514,5.083,10.011,15.25-22.525,19.063,12.514h8.9V291.2l13.979,5.006L447.3,307.47l20.334,12.517,2.542-5.006,15.25,7.509,3.813,3.754L487.97,330l11.438,2.5,3.813,5.006-11.438,5.005,10.168,3.754,3.813,5.009v8.76l-3.813,2.5V368.8l7.625,3.754,1.271,3.754-5.083,3.755L495.6,387.571l3.813,6.257-6.354,3.755-3.813-6.258-7.626-2.5-1.271,3.754-10.167-1.252-5.084,6.258L477.8,408.845l-1.271,8.76,7.625,5.009-8.9,11.263-8.9,1.251-8.9,10.011-12.709,23.776v2.5l3.813,6.257-6.354,2.5L456.2,490.189H423.156v-.008Z" fill="#268000" stroke="#fff" stroke-width="2"></path><path id="path3151" d="M504.491,358.788v-8.76l-11.438-10.014,11.438-1.251-7.626-7.509h-8.9l-3.813-11.263,8.9-7.508v8.76l6.354,5.005,11.438-10.011,1.271-16.268L528.636,286.2l-1.271-5.005-11.438-1.251v-8.76l-5.083,3.754-12.709-17.52H487.97l3.813-22.525h17.792l2.542,5.006-1.271,6.257,7.625,7.508,2.542-5.006,6.354-2.5V239.9l-6.354-1.251-1.271-11.263,13.979-10.011h11.438v-6.257l-3.813-2.5-1.271-10.011-3.813,1.251-2.542,5.005-2.542,3.754-5.084-2.5,5.084-8.76-2.542-5.005-2.542-5.005v-6.257h5.084l7.625-8.759,2.542-6.257-1.271-7.508,3.813-3.754h11.438l7.625,6.257-5.084,5.006L556.6,172.33l-1.271,2.5,3.813,7.508,5.083-3.754H578.2l3.813,11.262,12.709,21.273-5.084,2.5v7.508l7.626,2.5,6.354,18.771h12.709l-12.709,11.263,12.709,3.754,8.9,3.754v3.754l-6.354,6.257L607.431,281.2l1.271,13.765-6.354,8.76,5.084,8.76,5.083,8.76-7.625,7.508v7.509l6.354,1.251L608.7,347.527l11.438,8.76v32.536l-6.354,12.514-1.271,20.022-2.542,11.263-3.813,3.754-1.271,13.766-6.354-3.755-8.9-5.005v7.508l5.084,3.754-11.438,8.763-5.083-1.251v-5.009l-2.542,2.506L565.493,456.4v-6.26l5.083-2.5-5.083-1.252V440.13l3.813-10.011-15.251-3.754,8.9-3.755-5.084-7.511v-5.006l-11.438-10.011h-8.9l-2.542,6.257-3.813-10.011-15.251-7.509-5.083-13.768-6.354-6.257V358.788Z" fill="#ff5b5b" stroke="#fff" stroke-width="2"></path><path id="path2177" d="M400.28,510.2l21.6,7.509,10.167-5.006,2.542-8.76L424.426,490.18l29.23,1.251-11.438-11.263,8.9-1.251-6.354-10.011,17.792-27.53,6.354-7.509,6.354,2.5L485.427,422.6l-8.9-5.008,1.271-11.263-11.438-8.76,3.813-6.257,10.167-3.754,10.167,2.5,1.271,10.011,10.168-5.006-6.354-8.761,15.25-8.762,10.168,13.769,8.9,6.257,5.084,11.263,3.813-7.509h7.625l10.168,8.76v5.006l6.354,6.257-12.709,6.26,19.063,3.754-3.813,3.755v11.262l2.542,2.5-3.813,1.252v6.257l10.167,1.251,5.084-5.006v6.257l3.813,2.505v20.021l6.354,13.766,1.271,8.762-8.9,12.515-6.354-1.252-8.9,7.509L565.5,533.984,556.6,546.5l-7.626,8.759v6.257l3.813,6.258,5.084,1.251-6.354,3.756-2.542,7.51-2.542-5.006-13.979-1.251-11.438,3.754-2.542,6.257H512.12l-2.542-5.006-19.063-3.754-5.084-6.258-3.813-1.251-3.813,5.006-6.354-3.755-3.813-1.251-2.542,5.006-10.167-1.251-3.813-12.517h-5.084l-3.813-3.755-13.979-1.251-5.084,6.257-7.625-6.257v-3.754l-10.167-13.766h-3.813l-5.083-6.259-2.542-6.258Z" fill="#ff5b5b" stroke="#fff" stroke-width="2"></path><path id="path3149" d="M503.223,367.547Z" fill="none" stroke="#000" stroke-width="1"></path></g><g id="Rajshahi" transform="translate(200.425 216.181)" opacity="0.999"><path id="path5240" d="M332.922,910.646v-8.763l5.083-8.76,6.354,6.257,25.417-5.006,12.709-10.013,2.542-10.015,7.625,2.506,11.438-6.261,7.625-22.521,7.625,3.755,1.271-10.012L430.778,831.8l26.688,6.258,8.9,3.757v12.516l3.813,7.509,8.9-5.006,7.626,2.5-5.084,3.754V873.1l5.084,3.755h11.438l5.084-6.26,5.083,8.762-7.625,6.259h6.354v7.509l-7.626,3.754,2.542,8.761,11.438,1.255,16.521,13.766,11.438-1.25,16.521,13.765,8.9,12.518-12.709,2.5v7.511l-5.083,1.25,1.271,11.264,6.354,7.509,10.167-2.5,5.084,15.021h-5.084l-10.167-11.264,3.813,15.02,15.251,2.5,11.438,7.509-11.438,3.755-6.354,3.757-15.251-1.252-15.25-6.26-17.793,5.007-11.438,5.007-30.5-18.774-5.084-12.515-15.25-16.271h-6.354l5.083,12.517-6.354,7.509L437.132,982l-8.9-12.518-12.709-13.765-5.087-2.505H392.65l-7.625-5.006h-13.98l-7.625-1.251-10.167,8.762v-6.259L343.086,945.7,338,935.686l2.542-16.269-7.623-8.771Z" fill="#ff5b5b" stroke="#fff" stroke-width="2"></path><path id="path2180" d="M170.249,690.4l-7.625-6.258-8.9-2.505L155,676.636l17.792,3.754-3.813-7.509H157.54L146.1,667.876l6.354-7.509-11.438-2.5-5.083,5.005-10.167-5.005,2.542-8.76,10.167,3.754,2.542-5.006L155,649.105l3.813-5.007,10.167-16.27L156.27,615.313l-3.813,11.263-7.625,1.252,2.542-12.515-7.625-8.762-7.625-1.25-3.813,8.761-15.251-1.251-2.542,10.011h-3.813l-1.271,5.006h8.9v6.257l-5.083,7.509-2.542-7.509h0l-6.354,6.257-2.542-6.257-7.625-5.006-3.813,7.508,3.813-12.514-12.709-8.76,1.271-7.509-8.9-1.252-1.271,3.756H58.41l-10.167,6.257-1.271,6.257,6.354,6.257L55.868,646.6,32.992,661.617l2.542,10.011-7.625-1.251L24.1,674.133l-1.271,10.012-1.271,8.76-1.271,6.257-6.354-1.251-6.354,3.754,3.813,3.755,6.354,5.008-1.271,5.006,13.98,8.759L29.18,731.7l7.625,7.509-3.813,11.262,5.084,10.015,6.354,7.508h8.9l7.625,7.508,5.083,6.258,8.9-1.252L106.7,790.52h12.709v-6.258H118.14l-6.354-10.011V756.73l-6.354-7.509V737.958l15.251-7.508L130.85,729.2h0l13.98-8.76-1.271-10.014h26.689l2.542-2.5-5.083-3.754-5.083,2.5-8.9-5.006Z" fill="#268000" stroke="#fff" stroke-width="2"></path><path id="path2184" d="M321.485,684.146l-1.271-26.277-5.083-3.755,10.167-8.761h7.625l3.813,8.761,1.271-8.761h3.813v7.51l8.9-11.266,6.354,6.26,15.251-12.517-12.709-12.514,6.354,2.5,1.271-18.771,7.625,3.757,1.271,7.508,13.98,1.252v5.005H400.28l-1.271-7.508-6.354-3.754v-7.512l6.354,1.251,7.625-20.021,8.9,5.005-3.813-7.508h8.9l-6.354-8.76,12.709-7.511,1.271-8.76-5.084-1.252,5.084-5.005,13.979,2.5,8.9,5.006,2.542,11.264,11.438,2.505,2.542-6.26,11.438,6.26,3.813-7.512,10.167,10.015,15.251,2.5,6.354,6.257h5.083l3.813-8.759,21.6-2.5,3.813,6.257,3.813,1.251-3.813,10.011h5.084l2.542,8.76-5.084,7.511,5.084,3.755-2.542,6.257,5.083,7.509,1.271,8.76-6.354,1.251V646.61l10.167,11.263h8.9l3.813,6.257-2.542,3.754H556.6l-2.542,3.754v7.512h-2.542v8.759l-12.709,17.52-8.9-8.76-6.354,3.755-5.083-5.006v6.257l-5.084,5.006L512.118,716.7l5.083,2.5-2.541,6.257,1.271,2.5,7.625-1.252,7.626,6.257-5.084,6.258,8.9,5.005-5.084,6.259h-7.625l-1.271,5.007-7.626-2.5L508.3,745.48l-1.271,6.258h-7.625l-3.813-5.007-10.168,5.007-8.9,1.251-10.167-6.258-25.418,1.251v-6.259l-6.354-8.76H430.78l-7.626-7.508L412.987,724.2l-5.084,3.755,2.542,10.011-1.271,3.754-13.98-11.262v-5.006l5.083-3.754-2.542-6.258L390.11,721.7l-3.813-3.756-6.354,13.767-8.9-17.521,6.354-7.51L376.13,687.91l-6.354,6.257-12.709-1.251,1.271-6.257L346.9,667.883,338,677.894l-3.813-5.006Z" fill="#268000" stroke="#fff" stroke-width="2"></path><path id="path3179" d="M288.439,908.146v-6.261l12.709-1.251-2.542-6.257-16.521-2.5,5.083-5.006-5.083-2.5,7.625-3.755-5.083-7.509,20.334-7.511-6.354-10.011v-7.508L285.9,849.323l-5.083-12.515,16.521-11.265L294.794,785.5l12.709-8.76-8.9-8.76h-7.625l11.438-7.51,12.709,2.5,5.083-10.013-1.271-5.006h8.9l-1.271,6.257,7.625,6.259,10.167,1.252,8.9,1.25,11.438-7.509,1.271-13.766H360.88V730.434l10.167-12.518,8.9,15.02,5.084-12.517,5.083,2.5,7.625-7.509,3.813,5.005-7.625,8.763,15.25,11.263,1.271-5.006-5.084-6.257,6.354-6.259,11.438,2.5,7.625,6.259,7.625,6.257,3.813,8.76,3.813,3.754-21.605,28.782-12.709,15.018,7.625,3.756,2.542,7.508,6.354,3.755,1.271,23.774-10.168,10.013v6.257l-6.354-1.251L401.546,870.59l-8.9,5.008h-7.625l-3.813,8.76-11.438,8.76L346.9,898.123l-5.083-5.005L338,891.866l-5.083,8.76v8.763l-15.25-1.251-12.709-3.756-5.083,6.258Z" fill="#268000" stroke="#fff" stroke-width="2"></path><path id="path3168" d="M115.6,791.764l3.813-8.76-8.9-11.262,1.271-16.271-7.625-8.76,1.271-10.011,25.418-7.508,15.25-7.512-1.271-10.011,24.147,1.251,3.813-3.754-3.813-6.257-6.354,3.754-8.9-5.006,16.521-8.759,19.063,6.257,1.271,10.011,7.625,2.5,7.625-8.76,6.354,5.006-1.271,13.765,11.438,5.007,27.959-15.018-1.271-2.5,13.98,5.006,7.625,6.257,10.167-1.252,8.9,8.763,10.167-3.757V736.7l1.271,6.257,10.167,5.006h6.354v7.508l-2.542,6.258-13.979,1.254-7.625,6.257H298.6l7.625,7.508-11.438,8.76,1.271,6.257h0l1.271,33.788-12.709,8.76-2.542,3.757h0l6.354,12.514,10.167-2.5,1.271,7.508,2.542,6.258,3.813,3.755-16.522,6.258-5.083,5.007,6.354,5.005-7.625,3.754,5.083,3.755-5.083,3.754,13.979,2.5,2.542,5.007-10.167,2.5-1.271,5.007H275.73l-17.792-7.509L246.5,890.623l-5.083-2.5-8.9-2.5v-5.005l10.167-2.5,1.271-26.279-8.9-18.771L224.9,831.808l-5.083,7.511-19.063-1.251-11.438-6.259-8.9,7.51-11.438-6.259L157.54,821.8l-5.083,1.252-1.271-6.257-11.438-2.5-12.708-6.257Z" fill="#268000" stroke="#fff" stroke-width="2"></path><path id="path4248" d="M428.237,829.308V810.537l-6.354-5.006v-5.005l-8.9-7.512L447.3,751.72l-2.542-5.006h22.876l8.9,7.508h8.9l11.438-6.257,10.168,5.006,2.541-8.76,5.084,10.011,8.9,2.5v-6.257h6.354l6.354-5.005-10.168-6.257,5.084-5.006-8.9-7.509-7.625,1.252-2.542-1.252,6.354-6.26-6.354-3.754,3.813-13.766v-8.76l6.354,6.258,7.626-2.5,7.625,7.508,16.521-17.521-2.542-7.508,2.542-12.514,15.251,1.251,5.084,6.257,3.813,3.755,2.541-5.006h3.813l6.354,6.257,3.813,1.251,1.271,7.512-7.625,1.251-1.271,3.754,7.626,6.258v18.771L592.181,729.2h-7.625l6.354,7.509,1.271,8.76-6.354,3.754-1.271,7.508-5.084-1.251-6.354,7.511,6.354,8.76v10.012l-8.9,6.257-3.813,6.259,17.793,18.771-7.626,7.509,1.271,5.005,8.9,6.26,6.354,10.012-2.541,36.29,3.813,5.005-3.813,3.754v5.006l3.813,1.252,5.083,5.005V901.9l3.813,3.757-1.271,15.017-8.9,17.521-16.521,6.259h-8.9l-10.167-12.518-15.25-11.262H531.18l-16.521-13.766-12.709-2.5-1.271-6.259,6.354-2.5,1.271-8.76-5.084-2.5,3.813-2.5V876.87l-5.084-6.257-3.813,2.5-11.438,2.5-3.813-2.5v-8.763l5.084-2.5s0-7.508-5.084-7.508h-6.354l-3.813,6.257h-2.542l-2.542-7.509V843.079L456.2,835.57l-10.167-2.5Z" fill="#ff5b5b" stroke="#fff" stroke-width="2"></path><path id="path2179" d="M322.753,646.606v-8.763l12.709-1.252L332.92,614.07,338,612.819l-1.271-26.279-7.625-12.514h-2.542l-5.083,6.257-6.354,1.251-6.354-11.263v-5.008h5.084l3.813-20.021h-13.98l7.625-2.5-7.625-10.011,5.083-6.26-10.167-1.252h-5.083L277,515.205l-3.813,8.76-8.9,6.26h-2.542l-6.354-7.511-6.354,3.755-15.25-8.761-8.9-2.5-2.542,5.006-24.147-1.252-6.354,12.518H185.5v-7.512l-3.813-3.754-3.813,5.005-5.083-6.257h-7.625l-6.354-5.005-2.542,5.005-8.9,3.755h0L146.1,532.728l10.167,5.006v3.754l-8.9,3.754v17.52l2.542,3.757-6.354-1.251-1.271,11.263,6.354,5.005-5.083,6.257-6.354,3.754v7.512l-6.354,1.251v5.006h8.9l7.625,7.509,1.271,13.765h3.813v-5.006l1.271-5.005h5.083l8.9,8.76v5.005l-8.9,15.02-6.354,2.5-10.167,1.252-1.271,3.754-11.438-2.5-3.813,7.509,8.9,5.005,5.083-2.5H155l-5.083,7.51,6.354,2.505,12.709,1.25,3.813,7.51-6.354,1.251-6.354-2.5H155l-1.271,3.754,8.9,2.5,7.625,3.754,1.271,3.755,6.354,3.754,13.98,3.755v8.762l6.354,2.5,7.625-10.013,6.354,8.762-1.271,13.765L216,727.964l1.271-2.5h6.354l7.625-3.754,17.792-12.514h5.083L255.4,714.2l8.9-1.251h0l6.354,7.508,2.542-2.5h8.9l7.625,8.76,1.271-2.5,7.625-1.251,3.813,5.006V740.48l6.354,5.007,6.354,1.251,13.98,1.251V755.5l2.542,2.5h5.084l1.271-3.755v5.006h7.625l2.542,7.509,5.083-6.257,3.813,1.251,8.9-7.509V741.73l-3.813-2.5v-8.761l10.167-15.017,3.813-6.258-1.271-11.265,2.542-10.012-6.354,5.006-13.98,1.251,1.271-11.262-8.9-15.019H346.9L336.733,677.9l-3.813-1.251-11.438,10.012-1.271-27.53-5.083-2.5Z" fill="#ff5b5b" stroke="#fff" stroke-width="2"></path><path id="path3152" d="M335.462,636.595l-1.271-22.521,2.542-2.5L338,584.041l-7.625-7.508h-6.354l-2.542,5.005H316.4l-5.083-10.011v-6.26l3.813-1.252,1.271-18.771-7.625-1.251,3.813-2.5-5.083-10.014,6.354-6.258-1.271-8.759,2.542-17.52,15.251-5.009,5.083,1.255,11.438,8.759,13.98-2.5,6.354,8.759,17.793-2.5,13.979,5.005-5.083,10.012,6.354,10.014,6.354,5.006,8.9,12.514L414.259,554l11.438,7.508v5.006l-7.625,6.26-5.084,2.5,5.084,7.509-7.625,2.5,2.541,5.006-7.625-3.754-6.354,17.52h-5.083v10.014l3.813,3.754-1.271,5.006-6.354-1.252v-3.754h-13.98l-1.271-8.76-8.9-3.756L364.7,622.837h-3.813l1.271,5.006,7.625,5.005V636.6l-11.438,7.51-3.813,2.505-6.354-5.009-6.354,7.512v-5.008h-6.354v5.008l-2.542-3.756h-8.9v-7.51Z" fill="#ff5b5b" stroke="#fff" stroke-width="2"></path></g><g id="Khulna" transform="translate(200.425 216.181)" opacity="0.999"><path id="path7082" d="M254.126,1170.933l15.25,3.755,7.625-5.005,5.083,6.257,10.167,1.252,1.271-13.767,8.9,1.252,16.521-10.012-1.271-6.26-10.167-6.257,5.083-2.5,2.542-17.521-3.813-6.26-6.354-3.754,7.625-3.756,15.251,6.258,1.271-6.258-5.083-6.26-1.271-3.754h7.625l10.167-17.521-1.271-20.021,8.9-3.754,3.813-8.762h6.354v-5.006l-6.354-7.512,1.271-5.006,7.625,3.755v6.261l7.625,2.5,1.271,7.511h5.084l5.083-7.511,8.9,3.756,6.354-8.763h11.438l3.813-7.511,15.251,10.669,10.167,1.846,1.271,5.009,17.793,15.019,1.271,7.51-2.542,3.755H449.84l-2.542,5.005,3.813,3.759,1.271,5-3.813,1.252v7.508l5.083,2.505-1.271,2.5h-6.354l-6.354,10.015,1.271,13.768-1.271,13.766-3.813,6.259-5.084,5.009-6.354-1.252-7.625,15.02-1.271,8.76,5.083,1.25-5.083,3.756v6.258l-6.355,6.259-5.083-5.007-2.542,3.755,3.813,10.013-8.9,3.756-21.6,3.755-6.354-15.02H358.338l-5.084-11.265,7.625-5.006-12.709-5.006-5.083-3.756-3.813,3.756,7.625,10.012H334.19l-10.167,5.006,7.625,7.511,7.625,3.754-10.167,1.252-16.521-5.006-3.813,1.252,7.625,5-3.813,8.762-3.813,6.259-1.271,6.256H285.894l-12.708-6.256v8.762l-12.709-1.252L257.935,1216l-10.167-1.252L241.414,1211v-6.26l-7.625-5.007v-6.256l2.542-5.007,10.167-2.5-1.271-6.258,8.9-8.774Z" fill="#ff5b5b" stroke="#fff" stroke-width="2"></path><path id="path8053" d="M421.884,1175.939l-6.354-3.757v-6.258l8.9-15.018,6.354,1.25,10.167-12.518v-15.016l-1.271-12.516,3.813-10.016h8.9l2.542-3.754-6.354-1.252v-8.76h3.813v-5.006l-5.084-5.009,1.271-5.006,6.354,2.5,2.541-5.006-1.271-7.509,1.271-3.754,16.522,1.252,2.541,6.257,12.709,10.011,3.813,12.52,5.083,6.256v8.76l5.084,6.258,5.083,2.5v5.007h-6.354l-5.083,3.758,1.271,3.755H517.2l10.167,6.258,2.542,8.76h3.813v13.77l8.9,13.768,2.542,7.508-11.438-7.508-5.083,5,6.354,2.5v16.271H519.742l-6.354,11.264-6.354,2.5-8.9-11.264-5.083,2.5-7.626,10.01-5.083,2.505H477.8l-6.354-7.509-3.813,1.25-7.626-8.76H458.74l-2.542,2.5h-6.354l-6.354-5.008-1.271-7.51-7.625,1.25-12.71-10.008Z" fill="#268000" stroke="#fff" stroke-width="2"></path><path id="path2204" d="M306.233,1218.487l10.167-17.521-10.167-8.76h7.625l12.709,6.258h13.979l-16.521-12.518,6.354-5,17.792,1.25-8.9-10.011,3.813-6.261,2.542,5.006,15.25,5.009-6.354,5.007,3.813,10.012,11.438,1.252,5.084,15.016,15.25-2.5,16.521-3.754-5.083-10.014,1.271-5.006,6.354,5.006,7.625-6.256-2.542-7.513,5.083-2.5,16.521,11.265,6.354-1.25,1.271,6.256,7.626,7.51,6.354,1.252,3.813-5.008,6.354,8.762,11.438,3.754-3.813,6.26,6.354,3.755-3.813,3.755,1.271,15.018-3.813,5.009,2.542,11.264-11.438,1.252v3.755l6.354,2.5,1.271,5.006-3.813,1.252,1.271,8.762,11.438-7.512H486.7l-1.271,12.517,7.626,2.5v2.5h11.438l2.542,3.755-2.542,8.762,7.625,12.516s6.354,8.761,1.271,8.761h-7.626l-8.9-2.5-3.813-3.754L486.7,1297.34l-3.813-3.755-8.9,6.259,2.541,8.76-7.625,11.265-16.521,7.511-1.271,6.258,5.083,6.256-1.271,16.271-1.271,5.005-13.979-6.257v-6.26l-5.084-1.25-1.271,3.755-11.438,10.012-7.625-1.25-11.438,6.256h-7.625l-8.9-6.256-1.271,1.25-5.083-3.755-1.271-6.257,7.625-1.252-8.9-11.264,7.625,1.25,1.271-3.756-5.083-8.76-10.167-6.256-1.271,7.508h-19.7l-8.261-6.258-6.354-3.755h0l5.083,11.89-5.083,5.006-19.063-2.5-5.084-5.631-6.354,3.754h-5.083l3.813-7.508-15.251-6.257,2.542-22.524,7.625-2.5-3.813-6.256v-6.261l-5.083-3.754,10.167-16.271,12.709-5.006-1.271-10.012,12.709-8.762,5.083,3.755,3.813-7.511-5.083-2.5-1.271-6.258-11.438,8.76-6.354-3.754-2.54-10.018Z" fill="#268000" stroke="#fff" stroke-width="2"></path><path id="path2205" d="M479.074,1218.487l-6.354-8.761,10.167-1.252,10.168-10.015,3.813-3.754,7.625,11.266,8.9-3.756,6.354-8.76h13.979l3.813,10.01H547.7l1.271,2.506-8.9,10.012,3.813,7.51h13.98l6.354,7.51v5.006l-3.813,6.257,3.813,1.252,8.9-6.259,10.167,1.252-1.271,8.761-3.813,8.763-5.084,10.014h-6.354l-10.166-2.506,16.521,13.768,5.084,7.511,5.084,12.515,13.979,8.762v6.259l-3.813,1.252-11.438,2.5-29.229-11.265-10.167,11.265-16.521-8.763-5.084,7.511H517.2l-13.979-16.271,5.082-7.508-3.813-7.51-12.709-1.252-6.354-6.26,2.541-10.012-5.084-1.252-11.438,11.264,2.542-10.012-1.271-7.51-7.625-2.5,13.979-2.5-2.542-11.267,5.084-5.007-2.542-18.772Z" fill="#268000" stroke="#fff" stroke-width="2"></path><path id="path2206" d="M332.922,1317.346l8.9,11.262-6.354,7.514-7.625-5.006-10.167,1.252-5.083-5.01-11.438,6.26,2.542,10.012,7.625,8.762,3.813-6.258,5.083,2.5-1.271,6.256,5.083,2.5-1.271,7.512-7.625,7.508,5.083,5.008-5.083,1.25-1.271,11.264-7.625-3.754,2.542,11.262,10.167,13.77-11.438,21.271,12.709,8.763-2.542,7.508-2.542,10.014,11.438,8.764-2.542,11.262,7.625,12.516,1.271,13.767,5.083,3.757-11.438,3.756,1.271,7.508,5.083,3.754-5.083,21.273,12.708,1.252,2.542,10.01-10.167-2.5v6.256l7.625,8.762,7.625,1.252v11.266l8.9,7.51,1.271,16.268,11.438-2.5-8.9,12.519H349.442l-1.271,10.013,3.813,12.514,11.438,20.021-3.813,2.5-1.271,30.032,8.9,11.263,1.271,16.271,1.271,8.762,15.251,7.512,11.438-5.01,7.625,15.02-2.542,6.26,7.625,7.508-5.083,11.268-11.438,12.514,15.25,6.258,15.251-3.756-2.542-6.256h8.9l1.271-7.51-6.354-3.754,5.084-7.513v-25.022l-5.084-2.5,10.8-8.762,8.265-23.773,7.626-7.51-3.813-11.267-10.166-18.771-10.168-20.022-3.813-8.761,8.9-8.758H410.45l12.709-17.521,6.354-13.767,5.084-31.285-12.709-20.021v-6.261l7.625-6.256-12.709-8.761,1.271-23.776,11.438-6.256-11.438-21.271,1.271-28.782,7.625-8.759,6.354,11.263,7.625-10.013-2.541-6.257-7.626-1.252L425.7,1420l5.083-10.012,2.542,5,6.354,2.506,2.543-8.762,6.354-3.755-1.271-6.258-11.438-18.771-12.709-6.259-6.354-11.265-2.542-3.757-10.166,7.512-8.9,1.25-7.625-7.51-3.813,2.505-5.084-11.266,7.625-2.5L374.865,1337.4l10.167,2.5-5.083-15.021-7.625-5-1.271,8.761H350.719l-17.8-11.289Z" fill="#268000" stroke="#fff" stroke-width="2"></path><path id="path3186" d="M446.667,1406.819l-4.448,1.877-1.9,9.387-6.354-3.129-2.542-6.884-6.99,11.263,5.085,5.633,8.266.625,3.177,7.51-7.625,10.013-6.354-10.638-8.263,7.509-.636,26.9,12.073,23.775-12.073,6.256-1.271,23.149,12.072,9.388-6.99,4.379-.635,6.885,13.344,21.271-5.719,30.029-17.792,31.91,20.97-.625-8.262,8.763,22.241,46.927,5.083,12.516,8.261,2.5.636,8.134-13.345,2.507-10.167,16.9,5.722,5.006,3.813,11.265h5.719l1.906,10.013,3.813,12.516,15.892,1.252,9.527-14.393,5.085-3.129,5.085-9.388-2.54-5.634-3.184-7.508-12.071-7.51,9.529-5.009,17.157-17.521,1.271-13.768.636-15.646h5.084l8.9-32.535.641-25.648-5.725-23.775,17.157-16.9,3.813-8.138,5.719-1.252,7.626-12.514v-15.646l-11.438-33.159-6.354-3.13v-15.019l-8.9-18.771-2.541-21.271,5.083-11.892,10.167-10.012,6.354-21.9,5.084-4.379,4.448,3.129,9.526-9.392,4.447-8.76-1.906-10.011-3.813-3.754v-8.136l13.345-.627,8.261-6.885,5.084-26.276L554.7,1305.437,541.993,1316.7l-14.615-8.762-6.354,8.137-6.354,3.754-14.614-1.877-5.72-3.754-10.167-19.4-9.532,3.754,3.184,10.013-9.532,11.266-15.887,7.51-1.9,5.005,5.083,5.634-1.271,24.4L439.7,1355.5l1.271-6.26-5.719-2.5-.636,4.379-11.438,10.015-8.261-1.252,8.9,15.019,12.709,5.633,9.531,16.271.614,10.011Z" fill="#268000" stroke="#fff" stroke-width="2"></path><path id="path3188" d="M228.708,886.871h13.979L255.4,898.134l17.792,10.013,13.98,1.25,13.98,2.505,5.083-8.762L316.4,909.4h16.521l7.625,13.767L338,934.427l3.813,11.264,5.083,1.252,6.354,1.252V955.7l11.438,5.006L368.5,970.72l5.083-6.257,6.354,3.754,7.625,8.76,17.792-1.25-12.709-11.264,15.251-3.754,13.979,10.011-10.167,3.755,1.271,7.509,11.438,8.761,7.625,5.006,7.626-1.252,5.083,2.5-1.271,11.263-1.271,17.521-8.9,10.011,2.542,6.257h-8.9l-15.251-10.011-3.813-1.252-2.542,7.509H393.918l-6.354,8.76-7.625-2.5-10.167,8.761-1.271-11.264h-7.625l1.271-7.508-8.9-2.5-1.271,5.005,6.354,8.76-8.9,2.5-.745,8.47-9.422,4.045v-16.27L338,1033.287l-5.083-6.257-5.083,3.754-6.354,8.76-6.354-15.017-10.167-2.5,6.354-7.509-11.438-2.5-8.9-6.257,5.083-5.006v-5.005l-7.625,1.251-5.083-3.754,8.9-5.006-3.813-10.013-5.083-6.257-8.9,5.005-3.813-12.514-3.813-5.005h-3.813v10.011l-13.98-15.017-5.083-6.257-1.271-7.511,8.9-2.5-11.438-6.257,7.625-3.754L232.518,916.9Z" fill="#268000" stroke="#fff" stroke-width="2"></path><path id="path5134" d="M247.773,955.7l15.25,16.269,1.271-12.514,7.625,7.508v7.509l3.813,5.005,7.625-7.508,8.9,13.767-11.438,7.509,7.625,6.257,7.625-2.5,2.542,5.006-8.9,3.754v2.5l-1.271,7.508-6.354-3.754L277,1019.521l1.271,11.265-11.438,1.252.318,23.774-10.485,10.949-9.849,1.564-6.672,5.005-5.083-1.251-16.521,13.766L216,1089.6l-18.428.938,1.906-13.452-8.9-2.5-2.542-5.006,6.354-3.755,2.542-8.761-6.354-2.5,1.271-13.766,6.354-6.256-8.9-12.517,6.354,2.5,7.625-7.508v-2.5l-3.813-3.754,1.271-13.766-2.542-2.5,7.625-3.756,6.354,2.505v7.508l4.387-5.521,7.687-.425L237.6,980.72l8.261-.938,2.86-7.509L246.5,961.949Z" fill="#ff5b5b" stroke="#fff" stroke-width="2"></path><path id="path6105" d="M213.459,1089.6l21.6-16.269,6.354,1.252,5.083-6.257,10.617-2.288,8.82-10.379.9-23.623,10.091-1.4-2.466-11.11,7.625-6.257,6.354,5.006,2.618-11.34,6.278,6.332L312,1014.51l-8.307,7.511,10.167,3.755,2.7,5.813,7.47,9.2,2.542-6.256,6.354-6.26,5.084,6.26,1.426,28.411-.155,16.638-3.813,13.766-3.281,4.354-8.157,1.906v3.754l5.083,3.754-1.271,6.259-13.979-2.5-7.625,2.5,5.95,1.437,4.217,8.577-1.271,17.521-6.354,2.5,7.4,4.188,2.766,5.821-13.685,10.529-11.733.44-1.271,11.556h-8.9l-7.252-5.664-8,3.16H256.666l-3.813-3.754v-15.019l3.813-11.262,7.625,2.5-.976-8.317,2.992-7.433-3.287-3.313-6.354-.962,5.534,5.37-9.346,7.146-5.083-5.005,1.271-5.005-4.417-4.045L235,1119.6l-16.458-12.476,3.813-8.761Z" fill="#268000" stroke="#fff" stroke-width="2"></path><path id="path7070" d="M582.8,1316.872l14.38-5.313-1.8,15.932,14.379,5.311-8.98,8.851,1.8,8.851,12.581,8.85,16.176-5.311,10.784,12.391,1.8,24.773-12.581,5.311-7.188,3.541-1.8,12.388h17.978l3.595,3.538v19.472l7.189,17.694-5.4,8.852,7.189,23.008-14.379-7.08-10.784-5.309-3.595,3.538,19.771,14.155v5.313h-5.392l-8.986,10.616v23.009l-10.784,17.7-3.595,10.614-1.8,21.236,10.781,15.928,3.6,19.467-14.378,19.471,5.392,12.391-1.8,23.006,7.189,19.468v10.618h-7.189v10.617l-25.163,15.928-8.985-7.077-21.563-1.771-12.581,3.539,23.364,17.7-5.4,10.614H546.862l-14.378-3.539,8.98,17.7-12.581,3.539-14.379-5.312,5.4-12.392-10.783-15.928V1718.6l-1.8-14.157,3.6-28.313-3.6-15.928,8.983-24.775,1.8-30.086-7.188-26.545,21.568-17.7,12.581-8.85,3.595-28.314-14.379-28.313-5.4-5.313v-12.389l-8.981-17.7-3.6-23.006,16.18-26.545,7.188-21.236h10.784l12.581-14.158v-12.389l-7.189-5.309v-10.619l19.771,1.771,5.393-14.154,1.793-17.709Z" fill="#268000" stroke="#fff" stroke-width="2"></path><path id="path4157" d="M434.593,1736.558l-2.541,22.523,13.979,8.762,3.813-13.768-15.251-17.517Z" fill="#2c8a04" stroke="#fff" stroke-width="0.75"></path><path id="path1921" d="M370.267,1793.1c0-2.467-7.859-2.563-6-10C364.645,1781.595,374.519,1782.476,370.267,1793.1Z" fill="#2c8a04" stroke="#fff" stroke-width="0.5"></path></g><g id="Barisal" transform="translate(200.425 216.181)" opacity="0.999"><path id="path2242" d="M631.581,1601.409l-2.541-18.771-7.626-10.012,1.271-18.771,10.166-17.521-2.541-11.266v-17.521l8.9-10.01h5.083l-6.354-6.258-15.25-23.775,17.791,10.011,11.438,10.015-1.271-11.265-5.084-13.767,6.354-8.762-6.354-17.521v-18.771l-5.084-5.006-17.791-2.507-1.271-13.765,20.335-7.51v-21.273l-1.271-5,2.546-3.756,1.271-8.76,19.063,2.5,6.354-8.762h1.271l8.9,11.264-1.271,12.515h6.354l7.625,11.267h7.626l2.542,7.51,19.063,3.754,8.9,2.5-1.271,6.261-5.084,1.252v6.257l-8.9,6.258-2.542,10.01-13.979,8.762,7.625,7.514v10.01l-12.709,2.5v25.027l20.334,3.754,2.543,2.5-2.543,6.258-12.71,12.516-7.625-6.259L687.5,1498.8l-7.626-3.756,1.271,15.021-7.625,11.262,1.271,10.012,7.625-3.754,2.542,15.018-3.813,7.514-3.813,17.52-8.9,16.271-8.9,1.25-15.251,16.27H631.583l0-.018Z" fill="#ffc641" stroke="#fff" stroke-width="2"></path><path id="path3218" d="M682.417,1527.579l-6.354,5.006-2.541-10.012,8.9-11.268-3.813-18.77,7.625,7.508,8.9-5.006,5.084,5.006,15.25-10.012,1.271-7.51-20.335-6.259-1.271-23.772,12.709-3.756v-8.763l-8.9-10.013,13.979-7.508,1.271-10.012,11.438-6.259-1.271-3.757,6.354-2.5,1.271-6.256-8.9-5.006,8.9-7.51,5.084-2.5,2.541,7.512h7.625l5.084-2.506,10.169,11.266-3.813,5-1.271,6.261,2.541,3.755h7.625l3.813,6.258,21.6,3.754,1.271,5.006L787.9,1426.2l-3.813,6.256,13.979,2.5,1.271,6.262-11.438,2.5s2.544,7.508-2.541,7.508-10.171-5-10.171-5l-3.813,5-7.626-1.25-3.813,7.508-2.541,7.51-8.9,3.757-13.979,8.761-8.9,6.258-1.271,8.76-2.543,15.021-10.166,6.258-5.084,11.262-6.354,7.513-17.787-5.015Z" fill="#268000" stroke="#fff" stroke-width="2"></path><path id="path4189" d="M725.628,1481.276l16.521-8.764L758.67,1465l5.083-13.768h7.626l2.542-3.754,15.25,3.754,2.542-8.763h8.9l-1.271-7.509-15.25-2.5,3.813-7.51,6.354,1.25-1.271-6.256-20.336-2.5-5.082-6.256-10.168-1.252,1.271-7.512,5.083-3.754L752.314,1384.9h-8.9l-5.083-6.258-16.521,10.012L701.48,1384.9l-1.271-5.006h-5.084l-7.625-12.518h-8.9l1.271-12.516-7.625-10.012v-15.02l11.438-12.516,1.271-6.259,11.438-6.261,2.541-6.256,11.438-1.252v-15.018l15.251,1.252,5.083-7.511,6.354,2.505-1.271,30.031,17.792,7.51,10.167-2.505,6.354-3.755,7.63,5.007,3.813-8.763,15.251-7.508,17.792,3.754,17.793,10.015,12.709,11.263,15.25,6.258,15.251,6.258,11.438,10.013,7.625,17.521-7.625,8.762-12.709,6.256-21.6,15.021-11.438,11.264-1.271,8.762-15.251,2.506,8.9,13.764-3.813,10.014,1.271,11.265,5.084,7.511-15.252,1.25-13.979,7.51v8.76l-2.542,8.766-8.9-2.505-7.625-1.252-16.521-7.513-8.9,5.008-1.271,6.262-15.251,6.256-1.271-11.266-19.065,1.264Z" fill="#268000" stroke="#fff" stroke-width="2"></path><path id="path2245" d="M728.387,1479.686l17.979,1.771-1.8,8.85L762.542,1485v-3.541l10.784-7.078,12.581,5.309-3.6,14.158-12.581,1.771L757.15,1513.31l5.392,14.158-3.595,10.619-17.978,3.539-7.188,12.387-1.8,14.158,5.393,7.078,16.178-15.93,8.984-3.541,7.189,3.541,30.555,1.771,1.8,12.387-17.974,17.7-5.4,10.619,12.581,7.076v10.619l-12.581,21.232-10.783,12.393v26.545l-17.974,21.233,1.8,19.47-16.176,5.313-14.378,8.85-16.176-3.537-12.581-10.619-23.365-5.312,5.392-8.849-7.188-8.854s-7.188-19.469,1.8-19.469,21.567-7.077,21.567-7.077l-12.581-5.312-12.581-1.771,1.8-17.695,8.986-10.616-5.4-8.852-5.392,12.391-8.986,1.771-1.8,12.391,5.393,5.313-8.981,10.617-14.378-23.008-3.6-17.695V1603.57h0l17.979-8.854,8.982-10.619,7.188,3.541,12.582-26.547,5.392-14.158-3.595-15.926,17.973,1.771,12.582-15.931,10.783-7.078,1.8-14.155,3.6-15.928Z" fill="#ffc641" stroke="#fff" stroke-width="2"></path><path id="path3216" d="M785.9,1626.573l3.595-17.695-12.581-7.078,19.771-21.232,5.4-5.313-3.595-14.158-26.96,1.771-8.986-5.313-25.162,14.156-3.595-8.848,1.8-17.7,23.365-5.313,3.595-10.614-7.188-15.931,14.384-15.929,10.778-1.771,5.4-14.158,16.176,1.771,5.4-15.931,25.159-7.078,1.8-12.391,12.58,12.391,10.782,14.156-1.8,17.7,14.379,5.311,8.986,28.314-12.581,7.078V1548.7l-10.784,21.234-7.188,19.469-3.6,10.619,3.6,24.771-32.354,10.617Z" fill="#ffc641" stroke="#fff" stroke-width="2"></path><path id="path4187" d="M791.292,1635.423l17.974,8.849,8.986,8.853,1.8,14.158-5.392,15.928-8.986,12.389-19.771-8.85-5.4,12.389-5.392,17.695-12.581,5.313,3.595-19.468,7.188-14.157v-15.929l7.188-14.157,10.79-23.013Z" fill="#ffc641" stroke="#fff" stroke-width="2"></path><path id="path4190" d="M827.238,1644.27l16.176-10.613,5.394,10.613-1.8,12.393-10.783,12.391-8.982,8.852v-19.471l-.007-14.165Z" fill="#ffc641" stroke="#fff" stroke-width="2"></path><path id="path4192" d="M847.009,1674.355l-16.176,15.929-5.392,15.928,14.378,7.078,10.78-12.39-3.6-12.392.007-14.153Z" fill="#ffc641" stroke="#fff" stroke-width="2"></path><path id="path5169" d="M852.4,1612.417l16.177-17.7,14.378-21.232,1.8-31.854-1.8-23.006-7.189-19.469-7.188-19.471v-19.467L856,1449.6l-12.582-14.152,1.8-15.932L856,1401.825l16.176-8.854,7.188-8.85,25.163-1.771,5.392,19.47,10.784,38.935,17.973,21.235,12.581,15.929,7.189,10.616-1.8,19.47-5.4,5.311v23.007l-7.188,15.931-3.6,12.391-3.6,15.927v28.32l-12.581,8.854L917.1,1631.9l-21.568,7.077-1.8,10.617-10.784,5.313-14.378,8.85s-5.4-1.771-5.4-8.85-5.4-15.932-5.4-15.932l8.986-12.389-14.366-14.17Z" fill="#ffc641" stroke="#fff" stroke-width="2"></path><path id="path5171" d="M863.184,1686.743l8.985-12.387,10.784,14.152-7.188,7.08Z" fill="#ffc641" stroke="#fff" stroke-width="2"></path><path id="path5173" d="M980.01,1529.239l-7.188,23.006-8.987,26.547v24.775l17.975,19.467v-46.015l8.985-23.009,1.8-12.389-12.583-12.382Z" fill="#ffc641" stroke="#fff" stroke-width="2"></path><path id="path5175" d="M890.145,1660.2l-5.394,14.157h17.974Z" fill="#ffc641" stroke="#fff" stroke-width="2"></path></g><g id="Chittagong" transform="translate(200.425 216.181)" opacity="0.999"><path id="path4177" d="M926.43,1059.563l-15.252-6.258v-3.754l-12.709-10.012,3.813-10.013,11.438-13.769,1.271-17.521,8.9-5.006,3.813,5.006h11.438l3.813-3.755,21.6,2.5v-8.763l7.625-2.5,5.084-21.271,10.166-2.5-6.354-11.266,11.438-16.27,13.98-6.258-1.271-5.006,7.627-7.512-2.543-12.515-7.625-1.251L995.057,888.1l10.167-12.513,17.793,2.5,6.354-10.012,21.6-7.509,21.6,6.257,11.438,7.51L1098,854.313l10.167,2.505v7.508l-16.521,11.264,10.166,6.259v6.26l-12.707-3.756-1.271,15.019,7.625,5.007-8.9,2.5,6.354,20.021,6.354,8.76v3.755l-5.084,2.5V955.69l-13.979,6.257,5.083,12.516-10.167,2.5-7.625,15.02,7.625,8.762,1.271,6.257-6.354,5.007-2.541,10.014,5.083,10.012-7.625,10.012-5.084-3.754h-8.9l-6.354,5.006,1.271,15.021,6.354,2.5,3.813-5.006,3.813,2.5V1074.6h-5.083l-8.9-7.51-2.544,3.754-10.166-10.012v-10.012H1028.1l-1.271-5.005-10.167-2.5,6.354-5.009-13.979-11.265-20.335-1.251-8.9,7.509h-15.25l-6.354,1.253,2.542,10.015-11.438,2.5-13.979-10.013-7.626,5.007,1.271,3.755,3.813,3.754-6.353,10Z" fill="#268000" stroke="#fff" stroke-width="2"></path><path id="path3208" d="M881.158,1074.863,879.8,1086.8l7.644,9.734,2.247,5.752,4.938-.887,6.74-10.18,7.64-12.832-3.6-9.291.449-10.614-7.271-8.545-7.563,14.3-12.132-3.1-.449,9.291Z" fill="#2c8a04" stroke="#fff" stroke-width="0.5"></path><path id="path4179" d="M900.029,1104.063l11.229-20.352,4.045-6.195-5.393-8.848,1.8-15.043,14.379,6.192,6.29-9.291-3.146-5.313-.9-3.979,5.842-3.54,14.828,9.73,11.232-3.1-1.354-9.291,6.74-1.771,14.827.44,8.088-7.521,19.321,1.327-3.146-.885,11.232,6.192,6.736,5.75-5.394,4.426,9.438,3.1,1.8,4.427h4.939l-.9,9.731,10.337,9.73,2.245,4.428-.448,11.5,3.146,7.521,10.336,10.617-.447,7.078,6.291,2.213-3.146,2.654.449,5.312,13.029,10.178,6.737,21.681,6.737,21.682,1.134,7.452-1.581,5.377.9,4.425,8.982,4.865-3.595,3.1-.448,3.979,3.146,6.638,2.7,3.538-.9,4.428,1.8,34.064,4.491,5.752,4.942,9.731-1.351,11.062-9.887,5.752-12.582-6.637-10.781.442-16.178-2.214-8.089-5.313-8.088-.442-9.438,5.313-3.146-2.214h-8.985l-11.684-5.752-5.841-10.176-.449.885-7.188-.44-4.938-7.08,8.537-2.211,5.392-7.521-.9-15.483,5.842-9.733-6.739-6.188-1.349-9.734-8.091-9.729-3.6-7.97-13.479-9.729-1.8-8.854-9.438-6.188-3.6-17.254-17.976-4.867-13.027,11.063-4.942-3.1-4.94,10.178h-5.4l-12.132-6.637v-8.4H902.7l-5.842-6.191-8.537-8.406,7.188-3.979-.448-8.4,4.968-7.977Z" fill="#268000" stroke="#fff" stroke-width="2"></path><path id="path5150" d="M866.7,1299.827l-12.709-21.271L848.9,1266.04l6.354-17.521,8.9-15.021,11.438-12.516,3.813-12.518-5.083-10.012v-8.762l-8.9-5-8.9-2.505v-8.763l-7.625-3.754,6.354-12.516,2.541-12.517,1.271-10.013,12.709-3.754,8.9-3.754,7.625-1.252,13.979,12.516,1.271,8.761,13.979,6.259,6.354-8.761,5.084,5.007,12.708-16.271,21.6,6.257,2.542,16.271,11.438,7.512,1.271,11.262,12.709,11.265,11.438,15.019-1.271,8.762,10.167,8.762-7.625,7.51,1.271,16.27-3.813,8.761h-8.9l-5.083,2.506-7.626-5.008-13.979,1.25-6.354-10.011h-6.354l-7.625,3.754-3.813,12.518-2.541,8.76-17.793,6.256H914.99l-12.709,7.512H899.74l-3.813-7.512h-3.813l-3.813,5.008-1.271,12.518v6.258l-7.626,8.76-12.708-3.762Z" fill="#268000" stroke="#fff" stroke-width="2"></path><path id="path6121" d="M876.863,1302.329l3.813,12.516L897.2,1321.1l2.542,10.013,5.083,10.012,16.521,13.768,6.354,23.773,11.438,26.279,5.083,20.021,22.878,22.521,7.625,13.768,17.791,6.258,20.336-15.02-3.813-17.521-13.979-22.521,1.271-7.513-20.335-30.03-1.271-20.021,12.709-6.258,3.813-15.018v-21.271l-12.709-8.762-15.251-6.258-1.271-5.007,10.166-3.757L967.1,1279.8l6.354,1.25,12.709-28.781-7.625-3.754h-12.71L960.74,1238.5l-13.979,2.5-7.625,25.025-20.336,6.258-2.541-2.5-16.521,8.762-5.084-7.51h-3.813l-3.813,3.756v23.772l-10.165,3.761Z" fill="#268000" stroke="#fff" stroke-width="2"></path><path id="path6152" d="M977.266,1352.385l10.166-12.516,5.084-20.021-10.169-12.514-17.791-12.516L967.1,1282.3l15.25-27.527,20.337,7.51,20.334,17.52,20.334-7.508,12.709,2.5,27.959,7.508,2.541,10.016-2.541,12.514v10.012l-7.625,22.523,22.875-2.5h12.709l-10.166,15.018v12.518l5.084,17.521-15.252-7.51-15.25,5.006-27.959-2.5-15.252-10.011-7.625,10.011s-7.625,7.51-17.793,2.5-27.959-22.536-30.5-25.038Z" fill="#268000" stroke="#fff" stroke-width="2"></path><path id="path6154" d="M1002.682,1407.446h27.959l12.709,15.018,10.168,17.521-7.625,15.02-17.793,7.508-12.709-2.5-2.541-22.521-10.168-30.042Z" fill="#268000" stroke="#fff" stroke-width="2"></path><path id="path6156" d="M1045.893,1392.43l33.043,2.5,15.25,12.518-2.541,15.02-22.877-10.012-22.875-20.028Z" fill="#268000" stroke="#fff" stroke-width="2"></path><path id="path6158" d="M1091.645,1467.512l-25.418-7.51v-32.535l20.334,10.012,7.627,12.518Z" fill="#268000" stroke="#fff" stroke-width="2"></path><path id="path6160" d="M997.6,1480.026l33.043,2.5,10.169,22.521,2.541,20.021,10.168,12.516-2.541,27.531-5.084,27.524L1028.1,1605.16l-15.25,17.52-7.627-2.5,2.543-25.023,2.541-27.529,2.543-25.027-2.543-25.023Z" fill="#268000" stroke="#fff" stroke-width="2"></path><path id="path7138" d="M1107.619,1375.271l-7.189-10.616,1.8-10.619,10.778-19.467-12.582,1.77-16.176-3.537-5.392,5.313,3.595-14.158-1.8-12.387,3.594-10.619-5.392-21.234,19.771,5.312,10.784-8.851,10.784,3.539,7.188-7.078L1122,1256.711l-3.595-10.619v-10.619L1122,1221.32l1.8-12.392,16.178,3.539,10.782,17.695,10.784,21.232,3.6,15.931v14.156l12.581,17.7-1.8,12.391,14.378,5.313-19.771,1.771,1.8,19.469h-14.379l-10.784,7.078-5.392,15.931-12.581,17.694v12.39l-7.189-3.539v-8.851l-14.378-3.553Z" fill="#268000" stroke="#fff" stroke-width="2"></path><path id="path2436" d="M1095.038,1387.661l16.176,5.311,3.595,12.393-5.392,1.771-14.379-19.475Z" fill="#268000" stroke="#fff" stroke-width="2"></path><path id="path2438" d="M1105.822,1423.055l10.783,19.471,7.188,10.615v7.078l-3.594,1.771-3.6,17.7,5.393,19.467,16.176,17.7,10.784,5.313v10.615l1.8,3.539h14.379l8.986-10.615,3.595-10.619v-10.617l-3.595-10.617-28.757-47.781-1.8-10.617Z" fill="#268000" stroke="#fff" stroke-width="2"></path><path id="path2440" d="M1260.391,1580.561l-10.779-7.074-3.6-21.236-1.8-19.469V1525.7l-12.582-19.467-8.983-24.775-14.379-12.389-10.78-15.932-7.189-14.155v-5.312l-7.188-8.852-8.986-7.076-26.96-19.471,5.4-8.852-12.58-12.387,1.8-10.619,5.392-21.235,17.973-7.077h7.189l1.8-17.695h14.378l12.582,3.537,7.188-8.852,21.563-5.311,10.783,5.311,3.6,10.619-7.188,12.391,8.983,12.391,8.984,17.693,8.986,15.932,7.188,12.389v-14.156h14.377l7.189,5.313v15.928l12.582,1.771,3.594,17.7,1.8,19.468,5.393,14.157-1.8,12.39,12.582,8.851,3.6-8.851,1.8-8.851-5.4-7.078,1.8-15.929,14.381-5.312,14.381,15.928,12.578,30.086,3.6,21.234-12.581,23.01,19.771,14.154-3.6,14.156-1.8,8.852,5.394,21.234,1.8,8.852v8.851l5.4,8.85-3.6,10.618,3.6,17.7,10.783,21.235-5.4,10.616-5.392,7.077,5.392,12.393-12.58,3.537-10.78-3.537,3.6-10.619h-16.178l-10.781,10.619-19.771,3.537-10.78,10.615-17.978,10.619-3.595-14.155,8.984-12.392-14.379-12.389v-15.929l-10.783-14.157-3.6-24.775-8.982-8.85-5.4-28.312Z" fill="#268000" stroke="#fff" stroke-width="2"></path><path id="path4391" d="M1307.7,1414.954l17.792-22.523V1374.91l7.626-25.025,35.585-25.023-10.167-47.557,25.417-12.516-5.083-22.523-12.709-32.531,5.084-20.021-17.793-17.52,25.418-30.033-30.5-67.575-15.251,2.5-17.793-30.034H1307.7l-10.167,10.016,10.167,42.547,5.083,27.529-7.625,10.012v15.018l-15.25-5.006-17.793,15.018-17.793,30.031-7.625,22.525,12.709,22.521,2.229,31.65-3.132,8.092-9.27.3v7.511l-20.335,25.023,15.251,12.52-5.083,10.012,2.541,10.01,15.251,32.537,15.251,20.021,2.542-10.016,17.792,2.5,2.542,15.021,12.715,12.5Z" fill="#268000" stroke="#fff" stroke-width="2"></path><path id="path7308" d="M1396.659,1712.782l-10.168,12.516-17.792-7.51-5.084-10.012-15.25-22.523,7.625-10.012H1368.7l5.083,10.012,17.793,2.5v-10.012l7.625-20.021-7.625-12.518-5.084-25.023-2.542-12.52-5.083-25.021-5.084-17.521,5.084-25.025,15.251,5.008,15.25-7.512h25.418l15.251,10.014,22.876,12.516,12.709,27.531,12.709,35.035-5.084,10.014,15.251,32.535,15.251,42.547,2.542,12.518-2.542,27.527v17.521l-2.542,20.021,2.542,25.026,7.625,27.528,2.542,27.529,2.542,22.521,12.709,22.523-12.709,5.006-12.709,15.018-7.625-5L1513.581,1913l-7.625-17.521,2.541-10.015-7.625-2.5-7.625,5.006-12.709,2.505-15.251-5.007-2.542-10.014-10.167-25.024-7.625-5.007-10.167,12.515-5.084,10.015-10.167-2.5-12.709,22.521-7.625,2.5-7.626,10.013,2.542,20.021-7.625,17.521-2.542-25.025-7.625-20.021-2.542-10.013,15.251-17.521,10.167,10.012,7.625-15.018-10.167-20.021-10.167-17.52,5.084-10.015-12.709-12.517-5.084-15.018-7.625-20.021,12.709-12.516H1399.2V1737.8h12.709v-7.51l-15.251-17.5Z" fill="#ff5b5b" stroke="#fff" stroke-width="2"></path><path id="path8281" d="M1310.238,1439.98l-5.084-25.026,12.709-15.021,10.167-17.52,2.542-30.033,38.127-27.529-2.542-15.018-5.083-27.529,22.876-17.521-5.084-20.021-7.625-32.534v-17.521l-17.793-25.025,22.876-30.029-10.167-25.027-17.792-45.05,5.083-7.513,20.335-20.021h12.709l7.625,12.515,5.084,20.021,5.083-17.521,5.084-10.011,12.709,5.006-7.626,17.521,5.084,17.521,5.084,12.518,5.083,45.049,12.709,17.521,7.625,15.021-5.083,10.014,7.625,7.508,2.542,10.013-17.793,12.517,2.542,20.021,2.542,17.521,2.542,12.516,10.167,12.518-7.626,40.043,10.168,20.021L1478,1349.907l-5.084,12.518,7.626,30.032,15.25,15.017,2.542,20.021,5.084,25.027-7.626,5.006,7.626,25.027,5.083,30.029,5.084,25.027v15.02l5.083,20.021,5.084,20.021v22.521l-12.709-5.008,7.625,27.529,10.168,40.045,7.625,25.024L1526.29,1720.3l-5.084-12.516-7.625-22.523-7.626-25.026-12.708-25.024,2.541-7.51-5.083-20.021-10.167-35.037-10.168-10.012-25.417-17.521-33.044-7.511-22.876,10.013-15.251-12.517-10.167-15.016,7.625-20.021-2.541-20.021-12.709-25.027-15.251-22.521-7.625,2.505-10.167,15.016,7.625,20.021-5.084,10.013-10.167-12.516-5.083-27.553Z" fill="#ff5b5b" stroke="#fff" stroke-width="2"></path><g id="Cox"><path id="path5362" d="M1259.4,1690.259l25.418-5.006,5.084,25.025-7.626,22.521-15.251,25.027,2.542-17.521,2.542-35.034Z" fill="#268000" stroke="#fff" stroke-width="2"></path><path id="path5364" d="M1294.987,1712.782l27.96-15.02,12.709-10.012,12.709-2.5,17.792,30.031,20.334,10.012,7.626-2.5,5.083-12.515,12.709,17.521v7.508H1399.2l-2.542,17.521h-22.876l-10.167,12.516,10.167,25.025,20.335,20.021-7.626,12.518,12.709,20.021,10.167,12.518-5.083,17.52h-10.167l-2.542-10.012-17.792,20.021,5.083,22.521,16.229,18.528,2.541,12.47-12.149,14.535,11.145,20.021,18.8,23.535-11.1,14.006,12.644,20.021,5.231,15.9-4.9,9.908,7.321,16.248,10.167,25.027-2.541,12.514-7.626-7.508-10.167-27.531-12.709-15.02-10.167-17.521-7.625-17.521V2008.1l-43.211-50.055L1335.66,1918v-17.521l-7.625-17.52-15.251-20.021-2.542-10.012,12.709-15.018,2.541-17.521,5.084-15.018,5.084-22.523-2.542-27.527-10.167,22.521-12.709-7.508,10.167,17.521,7.625,20.021-12.709,25.025,2.542,2.5-25.418-2.5,2.542,12.516H1279.74L1277.2,1832.9l7.626-22.523,5.083-20.021-12.709-10.016,17.789-67.557Z" fill="#268000" stroke="#fff" stroke-width="2"></path><path id="path3682" d="M1306.551,1761.346l25.418-5.006,5.082,25.025-7.625,22.521-15.25,25.027,2.541-17.521,2.543-35.037Z" fill="#268000" stroke="#fff" stroke-miterlimit="10" stroke-width="1"></path><path id="path1881" d="M1418.268,2144.1c-1.313-5.254.646-7.354-4-12-6.257-6.256,1.068-7,6-7C1422.1,2125.1,1418.415,2143.735,1418.268,2144.1Z" fill="#9d9d9d" stroke="#fff" stroke-width="0.5"></path></g></g><g id="Sylhet" transform="translate(200.425 216.181)" opacity="0.999"><path id="path2228" d="M1068.77,737.955V727.944l17.791-15.021-7.625-12.515-16.521-5.007-8.9-5.006,2.541-11.266,7.625-3.754,3.813-8.762-5.084-8.761-3.813-2.506-8.9,12.519-5.084-8.762,1.271-10.014-7.625-11.263-21.6-2.5-8.9-11.264-17.793-2.506v-16.27l-5.084-11.264V580.27l6.354-6.258-12.709-3.754,2.542-5.006L993.786,564l-6.354-7.511,2.541-23.774,2.541-6.257,20.339-3.754h13.979l17.792,3.754,34.313-6.258,31.771,16.27,5.083-6.257,15.251,5.005,16.521,10.016H1159l5.084-5.01,8.9,2.507,19.063-10.016v10.016l6.354,1.251,3.813,7.509,19.063-5.006,7.625,1.251-2.541,7.509,10.166,8.762,1.271,11.263-6.354,7.512v3.754l13.979,13.768-1.271,5.006-3.813,1.251v3.756l7.625,3.757v10.011l-7.625,15.019v3.756l7.625,10.013-12.709,2.5-6.354,7.509,7.625,16.271-7.625,2.5,7.625,11.265-11.438,22.521-19.063-2.5-1.271,6.258,3.813,3.757-5.082,3.754-5.084-6.258h-10.168l-16.521-3.755-5.084,5.007,5.084,5.006-8.9,7.508-17.793-13.767-1.271-7.509-10.167-1.253-11.438,10.015-11.438,6.257,1.271,10.013-2.541,6.259-7.627-5.009-11.438,10.015-10.167,2.5-11.433-13.79Z" fill="#268000" stroke="#fff" stroke-width="2"></path><path id="path2230" d="M1223.817,715.432,1237.8,691.66l-8.9-11.267,7.625-1.251-6.354-17.521,8.9-7.509h10.167l-10.167-12.518,8.9-15.017,1.271-12.52-10.167-6.258,6.354-6.257-12.709-15.019v-5.006l5.083-5.009V564l-10.167-8.76,1.271-6.259-7.625-6.259,3.813-6.259h3.813l11.438,3.755,7.626-8.761,38.126,1.251,22.876-3.754,8.9,7.509,7.626-10.012h20.334l13.979,5.006,11.438,13.767,5.083-1.252,5.084,3.758,5.084-2.506,8.9,5.008v6.257l6.354,1.253,15.251,7.509,10.167,2.5,3.813-3.754h5.084v10.011l13.979,3.755,12.709,7.512-2.541,7.508,5.083,11.265,11.438,3.755-5.084,6.258,11.438,1.25,5.083,7.512-1.271,18.771H1481.8l-5.083-2.5L1469.1,646.6l-15.25-1.251-21.6-3.754-12.709,3.754-10.167,6.259,8.9,10.013-1.271,8.762-11.438,21.271h-8.9l-19.063,2.5-5.084-10.015h-6.354l-1.271,8.763-5.083,16.271-12.709,10.012-6.354,2.5-15.251,3.756-6.354-5.006-7.625,5.006-8.9-1.251-3.813-6.259-8.9,5.008-6.354-6.259-7.625,8.761-10.167,13.767-20.335,1.252-3.813-8.76-12.709-1.252,5.084-7.51-10.168-7.515Z" fill="#268000" stroke="#fff" stroke-width="2"></path><path id="path3203" d="M1056.059,859.341l7.625-2.5-5.082-7.51-5.084-2.5,2.541-7.509,15.252,1.252,8.9-3.755v-8.764l-5.084-6.257,8.9-2.5-1.271-7.511-8.9-10.013,5.082-6.259,1.271-8.76-2.542-5.006-6.354-3.755-7.625,3.755-8.9-3.755,17.792-6.258,6.354-17.521,12.709-8.76,8.9-8.762,8.9,10.014,3.813-7.511-3.813-8.764,8.9-12.514,16.521-5.006h6.354l8.9,7.509,10.166,15.019,6.354-10.013v-3.755l6.354-5.005,5.084,2.5,20.334-2.5,5.084,11.262,6.354-2.5-5.084-6.257V712.9l16.521,2.5,15.25,3.755-7.625,11.263,12.709,1.252,2.541,6.261-8.9,10.012-8.9-6.258-7.625-1.252-3.813,2.5,7.626,12.515,7.625,5.006h-7.625l-8.9,6.259-2.541,20.021-2.543,36.29,7.627,21.271-7.627,21.273-5.082,3.754v3.755l6.354,5.005V883.1l-5.084,2.505v26.274l-16.521,10.014-17.793,2.505L1159,915.634h-13.98l-12.707-6.257h-11.438l-2.542,7.508,7.626,10.015-2.542,8.761-6.354,8.761-3.813,12.514-19.063-5.005v-8.76l3.813-2.5-2.542-10.012-10.167-21.272L1098,905.629l-10.167-5.005V885.6l13.979,3.756v-7.513l-11.438-5.005,17.792-12.514v-7.51l-11.438-2.5-11.438,20.021-10.167-7.509-19.06-7.485Z" fill="#268000" stroke="#fff" stroke-width="2"></path><path id="path4174" d="M1207.3,868.1l8.9-23.772-8.9-20.021,6.354-57.563,7.625-5.006,13.979,1.252-10.168-5.006-12.709-15.021,6.355-3.755,8.9,1.252,8.9,8.76,7.625-10.012,19.063,1.252,20.334-25.025,6.355,6.259,7.625-3.754,3.813,6.257,12.709,1.251,5.084-5.005,5.083,5.005,17.793-3.754L1359.8,711.68l6.354-26.275h6.354l3.813,10.011,17.793-3.754h12.709l-2.542,8.762-3.813,8.76-8.9,16.271-3.813,22.521L1368.7,760.494l-2.542,22.521,6.354,8.763v7.509l-8.9,17.521h-16.521l-25.418-3.754-10.166,2.5,10.166,8.763,2.543,10.014-6.354,2.5-2.542-6.257-1.271-5.006-7.625-1.253-8.9,8.762,5.083,5.006v27.53l-6.354,7.508-2.541,25.026h-8.9l-6.354-13.77-10.168-8.76,5.084-5.005-10.168,2.5h-11.438l-3.813-7.509-7.625,1.25h1.271v23.773l5.084,7.51-6.354,5.008-6.354-2.5-3.813-6.259-11.438-7.511L1207.3,868.1Z" fill="#268000" stroke="#fff" stroke-width="2"></path></g><g id="Mymensingh" transform="translate(200.425 216.181)" opacity="0.999"><path id="path8041" d="M548.973,555.255l17.793-18.771-1.271-11.267,8.9-10.011,8.9,1.251,7.626-10.013-1.271-12.518-6.354-11.263V461.392L596,452.629l-6.354-3.754v-8.76l13.979,10.011-3.813,20.021,7.625,7.509-1.271,10.012,8.9,6.257h8.9l6.354-8.759,11.438,2.5,7.625-1.251v18.771l-2.542,2.5-7.625-5.008L635.392,520.2l-7.627,7.509,3.813,8.761,10.167-1.253-1.271,6.261-5.082,6.257-1.271,10.014,11.438,8.759-1.271,7.512-8.9,5.007,1.271,5.005h-6.354v6.258l6.354,12.516,1.271,7.511,7.627-1.25,6.354,7.508-2.542,7.511,8.9,3.754,29.229,7.508,2.542,8.764,16.521-13.769,24.146,11.265-1.271,15.018L718,669.146l-8.9-1.251H688.768l-11.438,2.5L658.267,692.92l-6.354-8.759-2.542-3.756-8.9-3.756v7.512l-10.169,6.257-5.081-3.755-3.813,7.509,3.813,7.51,7.625,5.006-2.544,5.007-3.813-1.252L621.41,721.7h-6.354v8.76l-7.625,2.5v13.769l-6.354,2.5-10.167-1.251V736.721l-7.625-6.258,10.167-1.252,3.813-26.277L587.1,691.67l7.625-1.252,1.271-8.759-11.438-7.511-5.084-1.25L576.93,677.9l-7.627-8.763h3.813l2.541-6.258-1.271-6.259-8.9,1.252-10.167-11.263L554.052,636.6l6.354-1.252-1.271-11.265-5.082-6.258,1.271-6.257-5.084-5.006,5.084-5.008V590.29h-8.9l7.625-8.762-6.354-3.755,3.813-8.763-2.539-13.755Z" fill="#268000" stroke="#fff" stroke-width="3"></path><path id="path3201" d="M688.771,644.1l-1.271-8.76-20.335-5.006-17.792-6.258,2.542-7.51-6.354-7.508-6.354,1.25-1.271-7.511-6.354-8.76-3.813-10.013,8.9,1.251v-6.257l7.625-5.01,1.271-6.257-8.9-7.508-2.542-8.761,6.354-7.511,1.271-10.014-10.168,1.251-3.813-7.508,10.166-7.51,2.543-17.521,5.084,6.258,5.082-5.007v-18.76l8.9,7.508,12.709,7.511,6.354,3.756,16.521,6.257L709.1,513.95l19.063,2.5,13.979,6.258h8.9l3.813,6.257v11.267L756.123,554l-2.542,8.761,15.251,7.511-5.084,8.761-12.709-2.5-8.9,12.515,7.628,6.259-5.084,7.511L748.5,612.83l8.9,5.006-5.084,2.5-7.625-2.5,1.271,6.257,6.354,5.008-6.354,12.518-16.521-1.252-10.166-5.008L705.292,629.1l-16.521,15Z" fill="#268000" stroke="#fff" stroke-width="3"></path><path id="path4172" d="M765.025,850.58l-11.438-5.006L743.42,824.3,748.5,819.3V806.781L735.8,788.01l2.542-8.761,8.9-2.5L728.17,766.734l-7.625-7.508-10.167-17.521,1.271-7.51,7.626-8.76v-6.261L707.837,702.9l1.271-21.271-11.438-1.251-3.813-10.012,12.709-2.505L718,670.37,729.442,656.6V644.09l6.354-3.754,8.9,2.5,8.9-11.265-8.9-6.257V617.8l7.626,2.5,7.625-1.252-10.167-5.006-5.084-11.262,5.084-7.511-6.354-6.261,8.9-12.514,12.709,5.006L770.11,571.5l-10.167-3.754-5.083-6.258V530.2l-1.271-5.008,6.354-1.25,6.354,5.006h11.438l3.813,7.509,26.688,5.005,12.709-5.005L836.2,530.2l16.521,2.5,6.354-3.757,10.167,5.008,8.9-7.51,6.354,3.756-2.542,6.257-6.354,17.52-1.271,10.017L867.967,569l10.167,11.262-1.271,7.509-8.9,1.251-5.084,7.513-2.542,10.013-5.083,1.252-5.084-13.768-3.813,5.006-7.625-2.5-3.813,2.5,10.168,7.51,2.541,10.011-2.541,7.509h2.541l6.354,12.518h8.9l-1.271,13.768,6.354,5.005-3.813,5.007h8.9l8.9,7.51,12.709,2.5,5.084-3.755,11.438,3.755-2.542,7.511-6.354-1.253,2.542,8.761,5.084,2.5,2.542,2.5-6.354,7.509-1.271,12.516,10.167,8.761,8.9,5.008,2.542,16.27,7.625-5.005,1.271,5.005,10.167,6.258,2.541,5.007-7.625,12.516-8.9,8.762-8.9-3.754L917.53,760.5,909.9,775.518,904.821,765.5,897.2,779.272l-10.167,1.252-8.9-7.524H866.7l-3.813,10.012,11.438,8.762,12.709,7.511-1.271,16.269-6.354,5.007-1.271,11.267,6.354,13.766L888.3,853.1l-8.9-2.5-11.438,5.006H855.257L845.09,848.1l1.271-7.508-17.793-6.258-1.271-5.008-12.709-1.252-5.083,20.021-5.084-2.5-6.354,2.5-7.625-8.761-3.813,7.51-21.6,3.739Z" fill="#268000" stroke="#fff" stroke-width="3"></path><path id="path6116" d="M946.764,747.968,936.6,744.214l-1.271-8.762-8.9,3.755-2.543-12.515-11.438-6.261-6.354-8.76-1.271-12.516,8.9-8.764-11.438-6.257v-7.509l5.084,1.252,5.084-7.509-13.979-5.007-2.541,5.007H883.22l-8.9-8.762h-11.44l5.084-6.259-5.084-5.007v-12.5l-8.9-1.251L848.9,622.821h-3.813l1.271-5.005-1.271-11.267-11.438-7.508h13.979l2.541-6.259,5.084,15.018h6.354l2.542-11.262,3.813-6.258h6.354l5.084-10.014L867.966,569l7.625-3.755-2.542-7.509,5.084-8.761,6.354-15.021,10.167,1.251,3.813,3.755,21.6-13.767,7.625,11.264,33.044,1.251,3.813-3.754,10.168,5.006,16.521-13.767,1.271,6.258L988.7,532.7l-1.271,23.772,5.084,5.008-2.541,2.5-7.627,1.25L979.8,571.5l10.168,2.5-5.084,6.257-1.271,12.518,6.354,11.265v17.52l15.25,3.758,10.169,10.012,24.146,1.252,6.354,10.012V657.86l5.084,10.011,5.084-10.011,6.354-1.251,5.084,8.759-3.813,10.013-8.9,2.5v12.521l6.354,3.754,7.625,1.251,10.168,3.756,5.084,6.258,3.813,5.005-7.625,8.763-10.168,7.51-13.979,1.251-21.6,13.767-3.813-6.258-15.25-3.754-11.438,7.509-8.9-1.252-17.791,1.252h-15.25l-15.254,8.75Z" fill="#268000" stroke="#fff" stroke-width="3"></path></g><g id="Dhaka" transform="translate(200.425 216.181)" opacity="0.999"><path id="path4163" d="M442.22,1013.261V996.993l-6.354-5.006,7.625-3.754,17.793,1.252,10.167,1.251,6.354,7.508V1007l2.542,8.76,19.063,11.265-5.084-13.768,10.167-1.251,2.542,6.257,6.354,3.755,17.793-11.263,6.354,3.754-1.271,6.259,6.354,7.508v-10.012l27.96-1.252,13.979,2.5,8.9,11.263,1.271,13.766-11.438-8.76-8.9-11.263h-30.5l-1.271,5.006h25.418l12.709,8.76,16.521,12.515,6.354,5.007,5.084,2.5-6.354,2.5-1.271,6.257H588.371l-1.271,6.257-8.9-2.5v17.52l10.167,6.258-2.541,6.258h-8.9l-2.542-6.258-2.542,6.258-12.709-1.248L556.6,1084.6l-15.251,13.767h-6.354l-2.542-11.264h-5.084l-2.541,5.006-12.709-6.258-2.542,5.006,7.625,5-7.625,3.758-5.084-1.252v-6.258l-10.167-1.248-5.083-13.767-12.709-8.76-1.271-7.509-17.792-1.251-2.542,3.754-15.251-13.766-2.541-7.51-3.813-7.508,8.9-8.76v-12.522Z" fill="#ffc641" stroke="#fff" stroke-width="2"></path><path id="path5128" d="M494.735,1090.348l8.088,1.771.9,6.191,5.4,2.652,8.088-4.424-8.986-5.311,3.6-4.426,13.479,5.313,1.8-5.313,4.493.887,2.7,10.615,7.188.887,14.379-14.154,2.7,15.041,12.581,1.771,2.7-7.076,3.595,6.19,8.088.886,3.595-6.188-10.782-5.313v-20.354l8.984,3.538,1.8-6.19h12.581l.9-6.191h2.691l7.188,1.771,2.7,7.079,26.062,5.309,8.986,10.619h7.188l4.492,10.617,27.858,4.424,16.176,11.5L714,1126.631l.9,16.813h-7.189l-.9,13.271-7.188,6.192,9.886,6.19-4.492,11.5-5.394,16.813-6.29-2.653-9.886-6.192-4.493,12.389-4.493-.887-.9-6.188h-5.4l-6.29-9.732-8.088-.885,6.29,7.963-7.188.886-9.889,6.192-.9-9.731h-8.088l-5.4,4.426-4.491-7.077-8.089-.888-15.274,15.041-20.671.89-1.8,5.312,8.089,4.424-.9,4.424-2.7,4.428-11.684,9.73h-8.986l-4.492-5.312H544.162l-4.493-7.965,8.987-9.729-11.687-2.654-2.692-9.731v-16.813l-6.291-4.424,5.393-5.312,14.378,10.615-5.392-9.73-9.89-15.043.9-12.39h-2.694l-4.492-7.964L519,1126.643l-21.566-.888-.9-3.539,5.393-4.424h6.29l.9-3.539-9.889-8.852-4.493-15.053Z" fill="#ffc641" stroke="#fff" stroke-width="2"></path><path id="path6099" d="M597.182,1312.448l.9-5.313-12.581-7.078-6.291-15.928-17.973-17.7,12.581.889,7.188-17.7,1.8-9.73-8.98-3.537-10.784,7.965-1.8-1.771,2.689-7.965v-4.424h5.4l16.176-10.617,1.8-7.965-8.981-5.309,1.8-6.193,17.069.885,17.074-14.154,8.088.887,6.291,5.309,5.4-4.424,6.291.885,1.8,9.732,8.088-5.313,9.885-.887-5.392-9.729,5.392.885,7.189,10.617h4.493l2.69,7.078h3.6l3.595,13.271-4.493,15.043-11.683,6.193s3.595,7.965,0,7.965H653.8l-5.392,19.467,10.783,6.193,4.489-7.966,6.291-3.536,11.687,7.075,4.492,4.427,9.887-8.852,11.682,6.191-4.492,3.539-.9,8.852,11.683,3.537-4.489,1.771v11.5h-9.89l-3.594,7.965-10.784,4.424v7.963l-3.595.887v4.429l-7.189,5.31-3.595,14.158-3.595,5.311-.9,3.537-8.98,1.771H644.822l-1.8,9.729h-2.692l-9.886-6.19-14.381.886-12.579-7.078-1.8-6.191,8.092-7.078-13.479-8.852.888-15.054Z" fill="#ff5b5b" stroke="#fff" stroke-width="2"></path><path id="path3189" d="M592.184,939.429l-20.334,6.257-12.709,1.256,1.271,12.514,11.438,13.768,15.25,13.769,1.271,7.509,5.084,6.259-1.271,12.516,13.979,18.771,15.251,10.012,15.251,3.756,6.354,7.511H629.04l10.168,10.013,6.354-3.755,6.354,12.515,22.876,6.258,7.625-6.258v-13.766l16.521-2.505,11.438-5.007,29.229,5.007-7.625-21.271,12.709-13.766-25.418-5.006-8.9-11.267-6.354-13.767-8.9-5.005-6.354-16.271-12.709-6.259,10.168-8.76-24.146-1.251-2.542-10.013-6.354-2.505L640.478,953.2l-3.813-2.5-8.9,10.011-3.813-6.257-5.083,11.265-7.626-2.505-6.354-5.005-3.813,5.005L596,955.706l-3.812-16.277Z" fill="#ff5b5b" stroke="#fff" stroke-width="2"></path><path id="path4160" d="M674.792,1078.333l6.354-7.509v-12.518l21.6-2.5,7.625-5.006,27.96,6.258-6.354-22.521,12.709-11.265-21.6-6.259-6.354-1.251-12.709-23.772-10.167-5.008-3.813-16.27-13.979-8.762,10.167-7.509-21.6-2.506,1.271-6.257v-7.509l10.167,7.509,11.438-8.76,15.251,7.508,11.438-5.005,7.625,12.514,10.168-5.006,10.167-2.5,3.813,6.257,6.354-18.771,11.438,17.521-10.167,8.764,8.9,2.5,19.063,2.5,1.271,23.772,10.167-2.5,6.354,6.26h8.9l6.354-5.008h6.354l1.271,10.015v8.761l-2.541,7.51,11.438,32.533,5.084,5.008-5.084,2.5-21.6,10.014,8.9,15.017-3.813,13.768-11.438-10.012-3.813,6.258-3.813,16.271-8.9-2.5,5.084-15.021-11.438-6.256-6.354-7.51-19.063-3.755-7.626,11.263-1.271,6.258-1.271,17.521-6.354,7.51-8.9-5.006-1.271,10.01-3.813,6.259-12.709-6.259-1.271-11.262-3.813-12.515L696.4,1085.84l-21.605-7.507Z" fill="#268000" stroke="#fff" stroke-width="2"></path><path id="path5131" d="M811.063,1293.866l-17.975,5.311-10.784,7.078-3.595,8.851-12.271-9.149-9.3-12.084,5.4-10.617,7.188-10.617-10.781-10.616-8.986-15.931-12.581-8.85-5.393-23.008,16.176-12.391,12.582-23.008,10.783-15.928,17.974,1.771,16.176,12.391,7.188,12.389h26.96l5.393,12.391,1.8,12.391,5.4,19.467-7.188,15.93-10.563,8.025,6.881,10.707-23.274,6.043-7.2,19.454Z" fill="#ff5b5b" stroke="#fff" stroke-width="2"></path><path id="path6102" d="M707.835,1142.153l16.521,1.25,10.167,8.76,11.438,5.008,25.418,7.508-5.084,8.764L748.5,1202.222l-16.521,11.266,3.813,22.521,15.25,11.263,7.626,17.521,12.709,8.762L757.4,1292.326l10.167,8.76,3.813,7.51-6.354,5.006h-13.98l-15.25-3.754,1.271-16.27,1.271-15.021-6.354-2.5-3.813,6.256H711.651l-10.167-6.256v-5.006l6.354-2.506-11.438-7.508-10.167,8.76-12.709-10.01H665.9l-7.626,10.01-11.438-7.508,7.625-18.771,15.251,1.252-2.542-7.51L678.607,1231l3.813-16.271-6.354-11.264,6.354-12.518,17.792,7.512,6.355-26.279-5.084-10.012,6.354-5.006,0-15.009Z" fill="#ff5b5b" stroke="#fff" stroke-width="2"></path><path id="path2229" d="M705.293,941.932l20.335-17.521L723.086,914.4h5.083v-7.512L735.8,914.4l7.625-1.251-1.271-21.272,3.813-13.767,17.792-7.509-2.541-11.266,11.438-5.007-3.813-3.755,7.625-2.5,8.9-1.251,3.813-7.509,7.626,8.761,7.625-1.252,5.084,3.754L813.32,829.3l12.709-1.252,3.813,5.01,15.251,6.257v6.258l10.167,10.013H866.7l2.542-3.755h10.167l13.979,8.76,7.625,3.755-7.625,5.009,1.271,11.263,5.084,10.013-3.813,8.763-1.271,7.51,7.625,7.508-13.979,2.5-5.083-5.006-3.813,3.754,5.084,2.5,2.542,23.775-6.354,15.019-6.354,1.252,3.813,6.258-7.625,12.517L860.345,984.5l-6.354-5.005-12.709-15.02-1.271,6.259-7.625-1.252-10.167,21.271-6.354-5.005-5.084,3.754L800.614,992l-7.626-7.51L782.821,987v-25.03H765.029l-10.167-3.754,8.9-10.012L757.4,938.189l-3.813-1.255-7.625,13.77-3.813-7.51L731.986,948.2l-8.9,5.006-17.8-11.275Z" fill="#268000" stroke="#fff" stroke-width="2"></path><path id="path2231" d="M860.342,985.73l12.709-11.267,5.084-7.508-5.084-8.762h7.626l5.083-13.77V930.655l-2.542-12.517-6.354-3.755,5.083-3.754,6.354,7.508,11.438-2.5h3.813l-7.625-8.76L899.74,890.6l-3.813-8.763V869.327l5.083-5.005,7.625,1.251,8.9-7.513,11.438,18.771,8.9,3.754,6.354,10.013,12.709,5.009,1.271,3.754-7.626,3.756,6.354,7.508-8.9,2.5,13.979-1.252,7.625,8.761,11.438-3.755,2.542,12.518,7.625,3.754-2.542,3.757-7.625,12.514,3.813,11.264-6.354,2.505-7.625,20.021-5.084,3.754-2.542,6.259-1.271,2.5-16.521-1.25-8.9,3.755h-7.625v-2.5l-8.9-1.252-3.813,2.5-1.271,16.271-7.625,12.516-11.438-10.013-1.271-6.257-2.542,8.76-10.167-2.5L878.132,1012l7.625-3.754-3.813-8.762-8.9,3.756-2.541,6.258-3.813-7.51,8.9-12.519-15.248-3.742Z" fill="#268000" stroke="#fff" stroke-width="2"></path><path id="path3206" d="M817.132,1077.081l-11.438-17.521,29.229-10.014-15.25-36.29,3.813-8.76V993.231l8.9-23.774,7.625,2.5,1.271-6.257,15.25,18.771,17.793,7.511-8.9,8.76,2.542,7.51,13.979-8.762,5.084,6.259-8.9,8.76,12.709,3.756,15.251,5.008-1.271,5.006-3.813,11.265-8.9,7.509-2.542,11.266-8.9-2.5h-6.354l-2.542,8.761v12.514l-16.521,7.512-6.354,6.26-6.354,7.508-10.167-1.252v-7.508l-8.9,6.258-7.625-6.258,1.269-12.532Z" fill="#268000" stroke="#fff" stroke-width="2"></path><path id="path2235" d="M722.994,1125.741l5.393-19.468,10.783,5.312,7.189-8.85V1086.8l8.982-19.466,17.978,5.313,17.973,12.388-5.392,17.7,10.78,1.771,5.4-19.471,21.564,14.158,17.977,3.539,3.595,8.85,7.188,5.311v12.393l-1.8,10.619-8.984,14.152-3.6,14.158-12.58-14.158H802.076l-17.977-5.311H769.721l-16.179-3.539-30.548-19.466Z" fill="#ff5b5b" stroke="#fff" stroke-width="2"></path><path id="path3207" d="M793.09,1155.827l32.354,7.078-3.6,17.7Z" fill="#2c8a04" stroke="#fff" stroke-width="2"></path><path id="path2237" d="M848.357,1102.294l2.689,5.75,4.493,7.521,2.247,13.719,17.521-7.521,16.625-4.428-7.64-14.154-8.088-13.719-16.177.887-11.67,11.945Z" fill="#2c8a04" stroke="#fff" stroke-width="2"></path><path id="path7073" d="M832.383,1272.3l-10.168,1.469-6.354,11.752,5.083,10.283,13.979-1.471,10.168,11.752,5.083-7.346-2.542-13.225-5.083-8.813-10.166-4.4Z" fill="#2c8a04" stroke="#fff" stroke-width="2"></path><path id="path5143" d="M899.74,865.6l-13.98-12.516-3.813-13.766-2.542-7.512-1.271-10.012,8.9-5.006,1.271-16.271L862.883,783l3.813-5.007v-6.258l10.167,1.251,10.168,8.762,8.9-1.253,8.9-12.514,6.354,6.258,5.084-12.519,10.166,8.764,11.438-5.007,8.9-12.517,6.354-10.013,27.96-5.005-17.793,2.5,13.979-2.5h16.521l8.9,2.5,12.709-8.762,12.709,2.5,5.084,8.762,13.979-8.762,7.625-6.26h13.979l-2.541,10.017,11.438,12.515v8.76l-3.813,6.26-1.271,3.755-17.793,10.013,10.168,2.5,2.541-3.755,8.9,2.5,5.084,10.011-1.271,6.261-8.9,5.006,12.709,8.761,2.541,7.509-8.9,1.252-3.813,5.005,6.354,5.006v7.512l-8.9,2.5-15.252,1.252-3.813,6.258,7.625,3.754,2.542,5.007-6.354,3.754L1040.8,863.1l-15.252,3.755-3.813,10.012-16.521-1.252-12.709,12.516v3.755l7.625,8.764,10.168,2.5,2.541,8.76-2.541,6.258-6.354,5.007s7.625,3.755-1.271,6.259-11.438,3.756-11.438,3.756l-6.354-6.261-3.813-8.761-11.438,1.253-7.625-8.762H951.84l-1.271-10.012,7.626-6.261-15.251-3.754-3.813-10.013-8.9-1.252-6.354-12.514-7.625-7.512-3.813,1.251L909.9,863.1l-10.162,2.5Z" fill="#268000" stroke="#fff" stroke-width="3"></path><path id="path2215" d="M593.455,938.178l10.167-16.27-1.271-15.021-5.084-11.263-7.625-2.505v-5.006l3.813-3.754-3.813-5.009,2.541-15.018,1.271-22.523-17.793-18.771,8.9-11.265L566.764,795.5,578.2,782.986l2.542-15.021-8.9-7.508,8.9-6.257,3.813,2.5,6.354-10.014,11.438,3.755,1.271-6.258,5.083-8.763,3.813-6.257,2.541-6.257,5.084-3.755,6.354-8.764,6.354,1.253v-5.008l-8.9-7.509-1.271-6.257,1.271-6.257,3.813,5.005,12.709-7.508,1.271-7.513,7.626,3.756,10.167,13.768L674.79,671.6,687.5,666.59l7.625,3.756,1.271,11.267h11.438V702.9L718,717.924v6.258l-6.354,8.764-1.271,7.509,8.9,20.021,26.688,16.271-6.354,2.5-3.813,8.761,11.438,20.021,1.271,8.76-3.813,6.257,8.9,22.524,8.9,3.755,6.354,2.5,2.542,3.756-10.168,5v11.265l-7.625,2.505-6.354,5.008-5.084,13.765,1.271,18.771-8.9,1.252-5.084-5.007-1.271,6.259h-3.813l1.271,8.76-13.979,13.768-10.168,6.26h-3.813l-11.438-7.512L678.6,943.2h-3.813l-7.626-5.009v8.764l-6.354,6.257L658.264,943.2l-5.082-2.505-11.438,12.516-7.625,2.5-6.354,6.257-3.813-7.509-5.084,8.761h-7.625l-7.625-6.258-2.542,3.754-5.084-7.508-2.537-15.03Z" fill="#268000" stroke="#fff" stroke-width="3"></path></g><g id="Divisional_borders" transform="translate(200.425 216.181)"><path id="path5037" d="M547.7,577.067l-4.2-3.359-21.834,2.939-2.519,8.4h-6.3l-4.193-5.877L492.7,576.645l-9.657-10.493-4.2,7.138-10.077-5.878-3.772,5.458-10.917-1.26-2.939-12.6-9.656-3.355-13.017-2.521-5.879,4.2-1.259.841-7.142-5.038,2.1-2.938-10.917-13.854-6.028-3.586-4.889-9.432,4.2-11.757-12.6-3.779-19.313,2.1-6.718-9.653-12.6,3.355-12.6-9.234h0" fill="none" stroke="#fff" stroke-width="8"></path><path id="path14412" d="M848.065,1324.462l1.429-24.285-5.714-17.145L830.923,1271.6l10-2.856-7.143-11.428,10-7.146,10-14.285-5.715-17.145-7.146-28.57-2.854-21.43,4.282-15.715,15.718-24.285,30-11.428-7.146-30-1.427-27.145,10,1.431,8.57-10,1.43-14.284,15.714-21.432-1.429-12.854,11.429-10,14.286,7.143,22.854-4.285,8.569-12.854,8.573-22.857h8.567l-7.145-11.431,11.431-15.714,14.283-2.855v-7.145l5.717-5.714V905.886l-8.568-2.854-10-12.855,15.715-15.714,14.285,2.854,7.144-11.432,27.146-4.282h1.428" fill="none" stroke="#fff" stroke-width="8"></path><path id="path14125" d="M640.738,1361.665l3.026-12.121,20.2,2.021,8.081-10.1-1.011-11.109,12.121-12.123,2.021-11.107,12.123-3.029,1.013-7.072h11.107l-1.011-13.131,17.173-1.012,7.071-7.07,5.051,3.031-3.029,29.293,18.188,7.07,17.172-5.053,7.071,8.078,5.051-13.131,18.183-7.069,14.146,4.041,14.142,8.082,16.163,13.132,18.184,7.068,17.178,8.08,8.08,8.082,7.066,16.162,11.111,22.225,5.051,23.232,9.092,30.307,11.111,15.15,15.152,17.172,14.142,19.193-2.02,16.162,22.223,22.223,12.122,14.146v14.146l-10.1,16.162-1.011,16.16v37.377l3.03,21.215h0" fill="none" stroke="#fff" stroke-width="8"></path><path id="path13840" d="M441.738,985.889l2.02,32.325,2.021,6.063-14.146,10.1,4.04,10.1,20.96,19.98,15.716-5.716,5.719,7.146,12.854,12.854,5.714,24.285,12.858,12.854-5.714,1.432-5.715,2.854v7.146h18.566l14.285,11.428,1.431,14.287L543.78,1171.6l-10-5.716-5.717,5.716,7.145,7.144-2.854,15.715,4.283,12.854h12.857l-10,7.146,2.854,11.431,12.854-2.854,8.572,7.146-1.435,14.285,11.435-7.146,11.428,4.287-11.428,25.713H562.34l15.716,17.146,7.146,15.715,17.146,8.568-5.717,17.146,12.857,7.144-5.714,8.572,2.854,11.428,8.571,7.146,15.715-7.146,10,8.572,1.43,30-20,4.284v15.712H635.2l11.429,5.715-1.429,15.713,7.145,20-5.716,10,5.716,25.715L635.2,1473.039l-10-5.713,4.286,12.854,12.854,12.854,5.714,5.715h-7.145l-10,11.431v17.146l-12.854,24.285L612.34,1575.9l10,14.285,4.283,24.284-11.429,20,7.146,15.716-5.717,22.854,8.571,14.285-1.43,10,2.854,30v1.432" fill="none" stroke="#fff" stroke-width="8"></path><path id="path13557" d="M603.78,451.6l-14.286-11.428-2.857,8.57,7.146,5.716-12.857,5.714V483.03l8.57,11.431,1.429,10-7.143,11.429-8.572-1.429-8.572,7.143-1.429,12.856-15.714,22.857,4.286,11.428-5.715,8.572,7.143,7.145-7.143,5.714,7.143,1.433v7.145l-5.714,7.142,5.714,5.717,1.429,7.143,5.721,14.286-5.721,1.431v14.283l7.146,10,12.854-1.428V665.9l-2.854,4.281,4.285,7.146,2.854-5.714,17.146,10-1.435,7.143-7.143,1.43,7.143,11.431L595.2,718.759l-1.429,11.433-7.146-1.433,5.717,11.433-2.854,8.567-2.857,5.717h-5.714l-7.144,4.283,5.715,11.432v12.854L568.063,795.9l14.283,11.429,2.854,7.146-7.146,5.716,15.72,21.43v17.143l-2.856,17.146,4.285,10-5.714,4.284,11.429,8.566,2.856,14.286v14.286L595.2,940.187l-25.714,5.718-11.432-1.432-4.283,11.432-4.285,14.284,11.429,7.146,5.714-2.855,7.146,12.855-5.714,1.428-10-8.566v10l18.565,5.715,11.435,7.144-18.573,7.144-14.286-1.434-18.571-7.143-25.714,10L479.491,994.48l-5.715-14.286-17.146-20,2.859,17.145-7.146,5.714v1.433l-15.717-1.433-4.283-7.145L415.2,953.053l-21.429,1.433-7.144-7.146-20,1.429L355.2,954.487v-1.433l-4.286-7.145h-7.143l-5.714-10,2.856-15.715-8.572-10H316.63l-10-8.57-5.714,8.57-14.286-2.855-15.714,1.43-27.143-21.43-12.857-1.43h0" fill="none" stroke="#fff" stroke-width="8"></path><path id="path13274" d="M988.065,531.6V558.75l8.565,5.717H983.78l-4.286,5.713,12.854,4.286-5.717,5.714-2.854,14.286,7.143,10-1.429,15.714,20,4.286,5.714,11.43,20,2.854,10,10-1.429,8.571,4.285,10,10-11.433,8.567,8.57v8.57l-10,2.854-4.284,14.285,17.146,7.144,12.854,4.285,4.284,11.432-15.716,12.854v17.146l10,10-7.144,17.146-17.146,8.569,4.286,4.285,11.431-4.285,7.146,5.716,1.429,8.569-5.715,5.715,10,17.146v4.285l-10,1.43,5.715,7.146v8.569l-8.566,4.286-14.285-2.855-4.286,7.146,8.571,4.284,1.429,5.716-8.571,7.146,14.286,1.43,14.285,7.146,11.429-12.854,15.715-2.854-1.429,10-14.286,8.568,10,10-1.429,5.715-12.856-4.283-2.854,12.854,11.429,7.146-11.429,2.854,2.854,11.43,2.856,8.57,8.571,5.715-5.72,10,1.435,7.146h0v1.429" fill="none" stroke="#fff" stroke-width="8"></path></g></g></g></svg> 