<svg xmlns="http://www.w3.org/2000/svg" width="500" height="500" viewBox="0 0 1544.654 2132.509">
    <g id="e-map" transform="translate(-206.372 -228.588)">
        <g id="Group_9" data-name="Group 9">

            <g id="Chittagong" transform="translate(200.425 216.181)" opacity="0.999">
                <path id="path4177" d="M926.43,1059.563l-15.252-6.258v-3.754l-12.709-10.012,3.813-10.013,11.438-13.769,1.271-17.521,8.9-5.006,3.813,5.006h11.438l3.813-3.755,21.6,2.5v-8.763l7.625-2.5,5.084-21.271,10.166-2.5-6.354-11.266,11.438-16.27,13.98-6.258-1.271-5.006,7.627-7.512-2.543-12.515-7.625-1.251L995.057,888.1l10.167-12.513,17.793,2.5,6.354-10.012,21.6-7.509,21.6,6.257,11.438,7.51L1098,854.313l10.167,2.505v7.508l-16.521,11.264,10.166,6.259v6.26l-12.707-3.756-1.271,15.019,7.625,5.007-8.9,2.5,6.354,20.021,6.354,8.76v3.755l-5.084,2.5V955.69l-13.979,6.257,5.083,12.516-10.167,2.5-7.625,15.02,7.625,8.762,1.271,6.257-6.354,5.007-2.541,10.014,5.083,10.012-7.625,10.012-5.084-3.754h-8.9l-6.354,5.006,1.271,15.021,6.354,2.5,3.813-5.006,3.813,2.5V1074.6h-5.083l-8.9-7.51-2.544,3.754-10.166-10.012v-10.012H1028.1l-1.271-5.005-10.167-2.5,6.354-5.009-13.979-11.265-20.335-1.251-8.9,7.509h-15.25l-6.354,1.253,2.542,10.015-11.438,2.5-13.979-10.013-7.626,5.007,1.271,3.755,3.813,3.754-6.353,10Z" fill="#268000" stroke="#fff" stroke-width="2"/>
                <path id="path3208" d="M881.158,1074.863,879.8,1086.8l7.644,9.734,2.247,5.752,4.938-.887,6.74-10.18,7.64-12.832-3.6-9.291.449-10.614-7.271-8.545-7.563,14.3-12.132-3.1-.449,9.291Z" fill="#2c8a04" stroke="#fff" stroke-width="0.5"/>
                <path id="path4179" d="M900.029,1104.063l11.229-20.352,4.045-6.195-5.393-8.848,1.8-15.043,14.379,6.192,6.29-9.291-3.146-5.313-.9-3.979,5.842-3.54,14.828,9.73,11.232-3.1-1.354-9.291,6.74-1.771,14.827.44,8.088-7.521,19.321,1.327-3.146-.885,11.232,6.192,6.736,5.75-5.394,4.426,9.438,3.1,1.8,4.427h4.939l-.9,9.731,10.337,9.73,2.245,4.428-.448,11.5,3.146,7.521,10.336,10.617-.447,7.078,6.291,2.213-3.146,2.654.449,5.312,13.029,10.178,6.737,21.681,6.737,21.682,1.134,7.452-1.581,5.377.9,4.425,8.982,4.865-3.595,3.1-.448,3.979,3.146,6.638,2.7,3.538-.9,4.428,1.8,34.064,4.491,5.752,4.942,9.731-1.351,11.062-9.887,5.752-12.582-6.637-10.781.442-16.178-2.214-8.089-5.313-8.088-.442-9.438,5.313-3.146-2.214h-8.985l-11.684-5.752-5.841-10.176-.449.885-7.188-.44-4.938-7.08,8.537-2.211,5.392-7.521-.9-15.483,5.842-9.733-6.739-6.188-1.349-9.734-8.091-9.729-3.6-7.97-13.479-9.729-1.8-8.854-9.438-6.188-3.6-17.254-17.976-4.867-13.027,11.063-4.942-3.1-4.94,10.178h-5.4l-12.132-6.637v-8.4H902.7l-5.842-6.191-8.537-8.406,7.188-3.979-.448-8.4,4.968-7.977Z" fill="#268000" stroke="#fff" stroke-width="2"/>
                <path id="path5150" d="M866.7,1299.827l-12.709-21.271L848.9,1266.04l6.354-17.521,8.9-15.021,11.438-12.516,3.813-12.518-5.083-10.012v-8.762l-8.9-5-8.9-2.505v-8.763l-7.625-3.754,6.354-12.516,2.541-12.517,1.271-10.013,12.709-3.754,8.9-3.754,7.625-1.252,13.979,12.516,1.271,8.761,13.979,6.259,6.354-8.761,5.084,5.007,12.708-16.271,21.6,6.257,2.542,16.271,11.438,7.512,1.271,11.262,12.709,11.265,11.438,15.019-1.271,8.762,10.167,8.762-7.625,7.51,1.271,16.27-3.813,8.761h-8.9l-5.083,2.506-7.626-5.008-13.979,1.25-6.354-10.011h-6.354l-7.625,3.754-3.813,12.518-2.541,8.76-17.793,6.256H914.99l-12.709,7.512H899.74l-3.813-7.512h-3.813l-3.813,5.008-1.271,12.518v6.258l-7.626,8.76-12.708-3.762Z" fill="#268000" stroke="#fff" stroke-width="2"/>
                <path id="path6121" d="M876.863,1302.329l3.813,12.516L897.2,1321.1l2.542,10.013,5.083,10.012,16.521,13.768,6.354,23.773,11.438,26.279,5.083,20.021,22.878,22.521,7.625,13.768,17.791,6.258,20.336-15.02-3.813-17.521-13.979-22.521,1.271-7.513-20.335-30.03-1.271-20.021,12.709-6.258,3.813-15.018v-21.271l-12.709-8.762-15.251-6.258-1.271-5.007,10.166-3.757L967.1,1279.8l6.354,1.25,12.709-28.781-7.625-3.754h-12.71L960.74,1238.5l-13.979,2.5-7.625,25.025-20.336,6.258-2.541-2.5-16.521,8.762-5.084-7.51h-3.813l-3.813,3.756v23.772l-10.165,3.761Z" fill="#268000" stroke="#fff" stroke-width="2"/>
                <path id="path6152" d="M977.266,1352.385l10.166-12.516,5.084-20.021-10.169-12.514-17.791-12.516L967.1,1282.3l15.25-27.527,20.337,7.51,20.334,17.52,20.334-7.508,12.709,2.5,27.959,7.508,2.541,10.016-2.541,12.514v10.012l-7.625,22.523,22.875-2.5h12.709l-10.166,15.018v12.518l5.084,17.521-15.252-7.51-15.25,5.006-27.959-2.5-15.252-10.011-7.625,10.011s-7.625,7.51-17.793,2.5-27.959-22.536-30.5-25.038Z" fill="#268000" stroke="#fff" stroke-width="2"/>
                <path id="path6154" d="M1002.682,1407.446h27.959l12.709,15.018,10.168,17.521-7.625,15.02-17.793,7.508-12.709-2.5-2.541-22.521-10.168-30.042Z" fill="#268000" stroke="#fff" stroke-width="2"/>
                <path id="path6156" d="M1045.893,1392.43l33.043,2.5,15.25,12.518-2.541,15.02-22.877-10.012-22.875-20.028Z" fill="#268000" stroke="#fff" stroke-width="2"/>
                <path id="path6158" d="M1091.645,1467.512l-25.418-7.51v-32.535l20.334,10.012,7.627,12.518Z" fill="#268000" stroke="#fff" stroke-width="2"/>
                <path id="path6160" d="M997.6,1480.026l33.043,2.5,10.169,22.521,2.541,20.021,10.168,12.516-2.541,27.531-5.084,27.524L1028.1,1605.16l-15.25,17.52-7.627-2.5,2.543-25.023,2.541-27.529,2.543-25.027-2.543-25.023Z" fill="#268000" stroke="#fff" stroke-width="2"/>
                <path id="path7138" d="M1107.619,1375.271l-7.189-10.616,1.8-10.619,10.778-19.467-12.582,1.77-16.176-3.537-5.392,5.313,3.595-14.158-1.8-12.387,3.594-10.619-5.392-21.234,19.771,5.312,10.784-8.851,10.784,3.539,7.188-7.078L1122,1256.711l-3.595-10.619v-10.619L1122,1221.32l1.8-12.392,16.178,3.539,10.782,17.695,10.784,21.232,3.6,15.931v14.156l12.581,17.7-1.8,12.391,14.378,5.313-19.771,1.771,1.8,19.469h-14.379l-10.784,7.078-5.392,15.931-12.581,17.694v12.39l-7.189-3.539v-8.851l-14.378-3.553Z" fill="#268000" stroke="#fff" stroke-width="2"/>
                <path id="path2436" d="M1095.038,1387.661l16.176,5.311,3.595,12.393-5.392,1.771-14.379-19.475Z" fill="#268000" stroke="#fff" stroke-width="2"/>
                <path id="path2438" d="M1105.822,1423.055l10.783,19.471,7.188,10.615v7.078l-3.594,1.771-3.6,17.7,5.393,19.467,16.176,17.7,10.784,5.313v10.615l1.8,3.539h14.379l8.986-10.615,3.595-10.619v-10.617l-3.595-10.617-28.757-47.781-1.8-10.617Z" fill="#268000" stroke="#fff" stroke-width="2"/>
                <path id="path2440" d="M1260.391,1580.561l-10.779-7.074-3.6-21.236-1.8-19.469V1525.7l-12.582-19.467-8.983-24.775-14.379-12.389-10.78-15.932-7.189-14.155v-5.312l-7.188-8.852-8.986-7.076-26.96-19.471,5.4-8.852-12.58-12.387,1.8-10.619,5.392-21.235,17.973-7.077h7.189l1.8-17.695h14.378l12.582,3.537,7.188-8.852,21.563-5.311,10.783,5.311,3.6,10.619-7.188,12.391,8.983,12.391,8.984,17.693,8.986,15.932,7.188,12.389v-14.156h14.377l7.189,5.313v15.928l12.582,1.771,3.594,17.7,1.8,19.468,5.393,14.157-1.8,12.39,12.582,8.851,3.6-8.851,1.8-8.851-5.4-7.078,1.8-15.929,14.381-5.312,14.381,15.928,12.578,30.086,3.6,21.234-12.581,23.01,19.771,14.154-3.6,14.156-1.8,8.852,5.394,21.234,1.8,8.852v8.851l5.4,8.85-3.6,10.618,3.6,17.7,10.783,21.235-5.4,10.616-5.392,7.077,5.392,12.393-12.58,3.537-10.78-3.537,3.6-10.619h-16.178l-10.781,10.619-19.771,3.537-10.78,10.615-17.978,10.619-3.595-14.155,8.984-12.392-14.379-12.389v-15.929l-10.783-14.157-3.6-24.775-8.982-8.85-5.4-28.312Z" fill="#268000" stroke="#fff" stroke-width="2"/>
                <path id="path4391" d="M1307.7,1414.954l17.792-22.523V1374.91l7.626-25.025,35.585-25.023-10.167-47.557,25.417-12.516-5.083-22.523-12.709-32.531,5.084-20.021-17.793-17.52,25.418-30.033-30.5-67.575-15.251,2.5-17.793-30.034H1307.7l-10.167,10.016,10.167,42.547,5.083,27.529-7.625,10.012v15.018l-15.25-5.006-17.793,15.018-17.793,30.031-7.625,22.525,12.709,22.521,2.229,31.65-3.132,8.092-9.27.3v7.511l-20.335,25.023,15.251,12.52-5.083,10.012,2.541,10.01,15.251,32.537,15.251,20.021,2.542-10.016,17.792,2.5,2.542,15.021,12.715,12.5Z" fill="#268000" stroke="#fff" stroke-width="2"/>
                <path id="path7308" d="M1396.659,1712.782l-10.168,12.516-17.792-7.51-5.084-10.012-15.25-22.523,7.625-10.012H1368.7l5.083,10.012,17.793,2.5v-10.012l7.625-20.021-7.625-12.518-5.084-25.023-2.542-12.52-5.083-25.021-5.084-17.521,5.084-25.025,15.251,5.008,15.25-7.512h25.418l15.251,10.014,22.876,12.516,12.709,27.531,12.709,35.035-5.084,10.014,15.251,32.535,15.251,42.547,2.542,12.518-2.542,27.527v17.521l-2.542,20.021,2.542,25.026,7.625,27.528,2.542,27.529,2.542,22.521,12.709,22.523-12.709,5.006-12.709,15.018-7.625-5L1513.581,1913l-7.625-17.521,2.541-10.015-7.625-2.5-7.625,5.006-12.709,2.505-15.251-5.007-2.542-10.014-10.167-25.024-7.625-5.007-10.167,12.515-5.084,10.015-10.167-2.5-12.709,22.521-7.625,2.5-7.626,10.013,2.542,20.021-7.625,17.521-2.542-25.025-7.625-20.021-2.542-10.013,15.251-17.521,10.167,10.012,7.625-15.018-10.167-20.021-10.167-17.52,5.084-10.015-12.709-12.517-5.084-15.018-7.625-20.021,12.709-12.516H1399.2V1737.8h12.709v-7.51l-15.251-17.5Z" fill="#268000" stroke="#fff" stroke-width="2"/>
                <path id="path8281" d="M1310.238,1439.98l-5.084-25.026,12.709-15.021,10.167-17.52,2.542-30.033,38.127-27.529-2.542-15.018-5.083-27.529,22.876-17.521-5.084-20.021-7.625-32.534v-17.521l-17.793-25.025,22.876-30.029-10.167-25.027-17.792-45.05,5.083-7.513,20.335-20.021h12.709l7.625,12.515,5.084,20.021,5.083-17.521,5.084-10.011,12.709,5.006-7.626,17.521,5.084,17.521,5.084,12.518,5.083,45.049,12.709,17.521,7.625,15.021-5.083,10.014,7.625,7.508,2.542,10.013-17.793,12.517,2.542,20.021,2.542,17.521,2.542,12.516,10.167,12.518-7.626,40.043,10.168,20.021L1478,1349.907l-5.084,12.518,7.626,30.032,15.25,15.017,2.542,20.021,5.084,25.027-7.626,5.006,7.626,25.027,5.083,30.029,5.084,25.027v15.02l5.083,20.021,5.084,20.021v22.521l-12.709-5.008,7.625,27.529,10.168,40.045,7.625,25.024L1526.29,1720.3l-5.084-12.516-7.625-22.523-7.626-25.026-12.708-25.024,2.541-7.51-5.083-20.021-10.167-35.037-10.168-10.012-25.417-17.521-33.044-7.511-22.876,10.013-15.251-12.517-10.167-15.016,7.625-20.021-2.541-20.021-12.709-25.027-15.251-22.521-7.625,2.505-10.167,15.016,7.625,20.021-5.084,10.013-10.167-12.516-5.083-27.553Z" fill="#268000" stroke="#fff" stroke-width="2"/>
                <g id="Cox">
                    <path id="path5362" d="M1259.4,1690.259l25.418-5.006,5.084,25.025-7.626,22.521-15.251,25.027,2.542-17.521,2.542-35.034Z" fill="#268000" stroke="#fff" stroke-width="2"/>
                    <path id="path5364" d="M1294.987,1712.782l27.96-15.02,12.709-10.012,12.709-2.5,17.792,30.031,20.334,10.012,7.626-2.5,5.083-12.515,12.709,17.521v7.508H1399.2l-2.542,17.521h-22.876l-10.167,12.516,10.167,25.025,20.335,20.021-7.626,12.518,12.709,20.021,10.167,12.518-5.083,17.52h-10.167l-2.542-10.012-17.792,20.021,5.083,22.521,16.229,18.528,2.541,12.47-12.149,14.535,11.145,20.021,18.8,23.535-11.1,14.006,12.644,20.021,5.231,15.9-4.9,9.908,7.321,16.248,10.167,25.027-2.541,12.514-7.626-7.508-10.167-27.531-12.709-15.02-10.167-17.521-7.625-17.521V2008.1l-43.211-50.055L1335.66,1918v-17.521l-7.625-17.52-15.251-20.021-2.542-10.012,12.709-15.018,2.541-17.521,5.084-15.018,5.084-22.523-2.542-27.527-10.167,22.521-12.709-7.508,10.167,17.521,7.625,20.021-12.709,25.025,2.542,2.5-25.418-2.5,2.542,12.516H1279.74L1277.2,1832.9l7.626-22.523,5.083-20.021-12.709-10.016,17.789-67.557Z" fill="#268000" stroke="#fff" stroke-width="2"/>
                    <path id="path3682" d="M1306.551,1761.346l25.418-5.006,5.082,25.025-7.625,22.521-15.25,25.027,2.541-17.521,2.543-35.037Z" fill="#268000" stroke="#fff" stroke-miterlimit="10" stroke-width="1"/>
                    <path id="path1881" d="M1418.268,2144.1c-1.313-5.254.646-7.354-4-12-6.257-6.256,1.068-7,6-7C1422.1,2125.1,1418.415,2143.735,1418.268,2144.1Z" fill="#9d9d9d" stroke="#fff" stroke-width="0.5"/>
                </g>
            </g>
            <!-- <g id="Divisional_borders" transform="translate(200.425 216.181)">
                <path id="path5037" d="M547.7,577.067l-4.2-3.359-21.834,2.939-2.519,8.4h-6.3l-4.193-5.877L492.7,576.645l-9.657-10.493-4.2,7.138-10.077-5.878-3.772,5.458-10.917-1.26-2.939-12.6-9.656-3.355-13.017-2.521-5.879,4.2-1.259.841-7.142-5.038,2.1-2.938-10.917-13.854-6.028-3.586-4.889-9.432,4.2-11.757-12.6-3.779-19.313,2.1-6.718-9.653-12.6,3.355-12.6-9.234h0" fill="none" stroke="#fff" stroke-width="8"/>
                <path id="path14412" d="M848.065,1324.462l1.429-24.285-5.714-17.145L830.923,1271.6l10-2.856-7.143-11.428,10-7.146,10-14.285-5.715-17.145-7.146-28.57-2.854-21.43,4.282-15.715,15.718-24.285,30-11.428-7.146-30-1.427-27.145,10,1.431,8.57-10,1.43-14.284,15.714-21.432-1.429-12.854,11.429-10,14.286,7.143,22.854-4.285,8.569-12.854,8.573-22.857h8.567l-7.145-11.431,11.431-15.714,14.283-2.855v-7.145l5.717-5.714V905.886l-8.568-2.854-10-12.855,15.715-15.714,14.285,2.854,7.144-11.432,27.146-4.282h1.428" fill="none" stroke="#fff" stroke-width="8"/>
                <path id="path14125" d="M640.738,1361.665l3.026-12.121,20.2,2.021,8.081-10.1-1.011-11.109,12.121-12.123,2.021-11.107,12.123-3.029,1.013-7.072h11.107l-1.011-13.131,17.173-1.012,7.071-7.07,5.051,3.031-3.029,29.293,18.188,7.07,17.172-5.053,7.071,8.078,5.051-13.131,18.183-7.069,14.146,4.041,14.142,8.082,16.163,13.132,18.184,7.068,17.178,8.08,8.08,8.082,7.066,16.162,11.111,22.225,5.051,23.232,9.092,30.307,11.111,15.15,15.152,17.172,14.142,19.193-2.02,16.162,22.223,22.223,12.122,14.146v14.146l-10.1,16.162-1.011,16.16v37.377l3.03,21.215h0" fill="none" stroke="#fff" stroke-width="8"/>
                <path id="path13840" d="M441.738,985.889l2.02,32.325,2.021,6.063-14.146,10.1,4.04,10.1,20.96,19.98,15.716-5.716,5.719,7.146,12.854,12.854,5.714,24.285,12.858,12.854-5.714,1.432-5.715,2.854v7.146h18.566l14.285,11.428,1.431,14.287L543.78,1171.6l-10-5.716-5.717,5.716,7.145,7.144-2.854,15.715,4.283,12.854h12.857l-10,7.146,2.854,11.431,12.854-2.854,8.572,7.146-1.435,14.285,11.435-7.146,11.428,4.287-11.428,25.713H562.34l15.716,17.146,7.146,15.715,17.146,8.568-5.717,17.146,12.857,7.144-5.714,8.572,2.854,11.428,8.571,7.146,15.715-7.146,10,8.572,1.43,30-20,4.284v15.712H635.2l11.429,5.715-1.429,15.713,7.145,20-5.716,10,5.716,25.715L635.2,1473.039l-10-5.713,4.286,12.854,12.854,12.854,5.714,5.715h-7.145l-10,11.431v17.146l-12.854,24.285L612.34,1575.9l10,14.285,4.283,24.284-11.429,20,7.146,15.716-5.717,22.854,8.571,14.285-1.43,10,2.854,30v1.432" fill="none" stroke="#fff" stroke-width="8"/>
                <path id="path13557" d="M603.78,451.6l-14.286-11.428-2.857,8.57,7.146,5.716-12.857,5.714V483.03l8.57,11.431,1.429,10-7.143,11.429-8.572-1.429-8.572,7.143-1.429,12.856-15.714,22.857,4.286,11.428-5.715,8.572,7.143,7.145-7.143,5.714,7.143,1.433v7.145l-5.714,7.142,5.714,5.717,1.429,7.143,5.721,14.286-5.721,1.431v14.283l7.146,10,12.854-1.428V665.9l-2.854,4.281,4.285,7.146,2.854-5.714,17.146,10-1.435,7.143-7.143,1.43,7.143,11.431L595.2,718.759l-1.429,11.433-7.146-1.433,5.717,11.433-2.854,8.567-2.857,5.717h-5.714l-7.144,4.283,5.715,11.432v12.854L568.063,795.9l14.283,11.429,2.854,7.146-7.146,5.716,15.72,21.43v17.143l-2.856,17.146,4.285,10-5.714,4.284,11.429,8.566,2.856,14.286v14.286L595.2,940.187l-25.714,5.718-11.432-1.432-4.283,11.432-4.285,14.284,11.429,7.146,5.714-2.855,7.146,12.855-5.714,1.428-10-8.566v10l18.565,5.715,11.435,7.144-18.573,7.144-14.286-1.434-18.571-7.143-25.714,10L479.491,994.48l-5.715-14.286-17.146-20,2.859,17.145-7.146,5.714v1.433l-15.717-1.433-4.283-7.145L415.2,953.053l-21.429,1.433-7.144-7.146-20,1.429L355.2,954.487v-1.433l-4.286-7.145h-7.143l-5.714-10,2.856-15.715-8.572-10H316.63l-10-8.57-5.714,8.57-14.286-2.855-15.714,1.43-27.143-21.43-12.857-1.43h0" fill="none" stroke="#fff" stroke-width="8"/>
                <path id="path13274" d="M988.065,531.6V558.75l8.565,5.717H983.78l-4.286,5.713,12.854,4.286-5.717,5.714-2.854,14.286,7.143,10-1.429,15.714,20,4.286,5.714,11.43,20,2.854,10,10-1.429,8.571,4.285,10,10-11.433,8.567,8.57v8.57l-10,2.854-4.284,14.285,17.146,7.144,12.854,4.285,4.284,11.432-15.716,12.854v17.146l10,10-7.144,17.146-17.146,8.569,4.286,4.285,11.431-4.285,7.146,5.716,1.429,8.569-5.715,5.715,10,17.146v4.285l-10,1.43,5.715,7.146v8.569l-8.566,4.286-14.285-2.855-4.286,7.146,8.571,4.284,1.429,5.716-8.571,7.146,14.286,1.43,14.285,7.146,11.429-12.854,15.715-2.854-1.429,10-14.286,8.568,10,10-1.429,5.715-12.856-4.283-2.854,12.854,11.429,7.146-11.429,2.854,2.854,11.43,2.856,8.57,8.571,5.715-5.72,10,1.435,7.146h0v1.429" fill="none" stroke="#fff" stroke-width="8"/>
            </g> -->
        </g>
    </g>
</svg>