<svg xmlns="http://www.w3.org/2000/svg" id="Layer_1" data-name="Layer 1" viewBox="0 0 1544.65 2132.5">
	<defs>
		<style>.cls-1{opacity:1;}.cls-2,.cls-3,.cls-7,.cls-9{fill:#268000;}.cls-10,.cls-11,.cls-2,.cls-3,.cls-5,.cls-6,.cls-7,.cls-8,.cls-9{stroke:#fff;}.cls-10,.cls-2,.cls-3{stroke-width:2px;}.cls-3{stroke-linecap:round;stroke-linejoin:round;}.cls-11,.cls-4{fill:none;}.cls-4{stroke:#000;}.cls-10,.cls-5,.cls-6{fill:#2c8a04;}.cls-5{stroke-width:0.75px;}.cls-6,.cls-8{stroke-width:0.5px;}.cls-7{stroke-miterlimit:10;}.cls-8{fill:#9d9d9d;}.cls-9{stroke-width:3px;}.cls-11{stroke-width:8px;}</style>
	</defs>
	<title>atc-map-green</title>
	<g id="atc-map">
		<g id="Group_9" data-name="Group 9">
			<g id="Khulna" class="cls-1">
				<path id="path7082" class="cls-2" d="M248.18,1158.53l15.25,3.75,7.62-5,5.09,6.25,10.16,1.25,1.28-13.76,8.9,1.25,16.52-10-1.27-6.26-10.17-6.26,5.08-2.5,2.54-17.52-3.81-6.26-6.35-3.75,7.62-3.76,15.25,6.26,1.27-6.26-5.08-6.26-1.27-3.75h7.62l10.17-17.53-1.27-20,8.9-3.75,3.81-8.76h6.36v-5l-6.36-7.51,1.27-5,7.63,3.76v6.26l7.62,2.5,1.27,7.51h5.09l5.08-7.51,8.9,3.76,6.36-8.77h11.43l3.82-7.51L419.76,1029l10.16,1.85,1.28,5,17.79,15,1.27,7.51-2.54,3.75h-3.83l-2.54,5,3.81,3.75,1.27,5-3.81,1.26v7.5l5.09,2.51-1.28,2.5h-6.35l-6.35,10,1.27,13.77-1.27,13.77-3.82,6.26-5.08,5-6.35-1.26-7.63,15-1.27,8.76,5.08,1.25-5.08,3.76v6.26l-6.36,6.26-5.08-5-2.54,3.76,3.81,10-8.9,3.75-21.6,3.76-6.35-15H352.39l-5.08-11.27,7.62-5-12.71-5-5.08-3.75-3.81,3.75,7.62,10H328.24l-10.16,5,7.62,7.51,7.63,3.76-10.17,1.25-16.52-5-3.81,1.25,7.62,5-3.81,8.77-3.82,6.25-1.27,6.26H280l-12.71-6.26v8.77l-12.71-1.26-2.54-6.25-10.17-1.25-6.35-3.75v-6.26l-7.63-5v-6.26l2.54-5,10.17-2.5-1.27-6.25,8.9-8.78Z" transform="translate(0 0)"/>
				<path id="path8053" class="cls-2" d="M415.94,1163.53l-6.36-3.75v-6.26l8.9-15,6.36,1.25L435,1127.23v-15l-1.27-12.52,3.82-10h8.9l2.54-3.75-6.36-1.25v-8.76h3.82v-5l-5.09-5,1.27-5,6.36,2.5,2.54-5-1.27-7.51,1.27-3.75,16.52,1.25,2.54,6.26,12.71,10,3.81,12.52,5.09,6.25v8.76l5.08,6.26,5.08,2.5v5H496l-5.08,3.76,1.27,3.75h19.05l10.17,6.26,2.54,8.76h3.81v13.77l8.91,13.77,2.54,7.51L527.78,1156l-5.08,5,6.35,2.5v16.27H513.8l-6.36,11.26-6.35,2.5-8.9-11.26-5.09,2.5-7.62,10-5.09,2.5h-2.54l-6.35-7.51-3.81,1.25-7.63-8.76h-1.27l-2.54,2.5H443.9l-6.36-5-1.27-7.51-7.62,1.25-12.71-10Z" transform="translate(0 0)"/>
				<path id="path2204" class="cls-2" d="M300.29,1206.08l10.16-17.52-10.16-8.76h7.62l12.71,6.26h14l-16.52-12.52,6.35-5,17.79,1.25-8.9-10,3.82-6.26,2.54,5,15.25,5-6.35,5,3.81,10,11.44,1.25,5.08,15,15.25-2.5,16.52-3.75-5.08-10,1.27-5,6.35,5,7.63-6.25-2.54-7.52,5.08-2.5,16.52,11.27,6.35-1.25,1.28,6.25,7.62,7.51,6.36,1.26,3.81-5,6.35,8.76,11.44,3.75-3.81,6.26,6.35,3.76-3.81,3.75,1.27,15-3.81,5,2.54,11.26-11.44,1.26v3.75l6.35,2.5,1.28,5-3.82,1.25,1.27,8.76,11.44-7.51h3.82l-1.27,12.52,7.63,2.5v2.5h11.44l2.54,3.75-2.54,8.76,7.62,12.52s6.36,8.76,1.27,8.76h-7.62l-8.9-2.5L487.1,1300l-6.35-15-3.81-3.75-8.9,6.26,2.54,8.76L463,1307.46,446.44,1315l-1.28,6.26,5.09,6.26L449,1343.76l-1.27,5-14-6.25v-6.26l-5.09-1.25-1.27,3.75-11.44,10-7.62-1.25-11.44,6.26h-7.62l-8.9-6.26-1.28,1.25L374,1345l-1.27-6.26,7.63-1.25-8.9-11.26,7.62,1.25,1.27-3.76-5.08-8.76-10.17-6.26-1.27,7.51h-19.7l-8.26-6.26-6.35-3.75h0l5.08,11.89-5.08,5-19.07-2.5-5.08-5.63-6.36,3.76h-5.08l3.81-7.51L282.48,1305l2.55-22.52,7.62-2.5-3.81-6.26v-6.26l-5.09-3.75,10.17-16.27,12.71-5-1.27-10,12.71-8.76,5.08,3.75,3.81-7.51-5.08-2.5-1.27-6.26-11.44,8.76-6.35-3.75-2.54-10Z" transform="translate(0 0)"/>
				<path id="path2205" class="cls-2" d="M473.13,1206.08l-6.36-8.76,10.17-1.25,10.17-10,3.81-3.75,7.63,11.26,8.9-3.75,6.35-8.76h14l3.81,10h10.16l1.27,2.5-8.9,10,3.82,7.51h14l6.35,7.51v5l-3.81,6.26,3.81,1.25,8.9-6.26,10.17,1.25-1.27,8.76-3.82,8.77-5.08,10h-6.35l-10.17-2.5,16.52,13.76,5.08,7.51,5.09,12.52,14,8.76V1300l-3.82,1.25-11.43,2.5-29.23-11.26-10.17,11.26-16.52-8.76-5.08,7.51h-3.82l-14-16.27,5.09-7.51-3.82-7.51-12.71-1.25-6.35-6.26,2.54-10-5.08-1.25-11.44,11.26,2.54-10-1.27-7.51-7.63-2.5,14-2.5-2.54-11.27,5.09-5-2.55-18.77Z" transform="translate(0 0)"/>
				<path id="path2206" class="cls-2" d="M327,1304.94l8.9,11.26-6.36,7.51-7.62-5L311.73,1320l-5.08-5-11.44,6.26,2.54,10,7.63,8.76,3.81-6.25,5.08,2.5-1.27,6.25,5.08,2.5-1.27,7.51-7.62,7.51,5.08,5-5.08,1.25-1.27,11.26-7.63-3.75,2.54,11.26L313,1398.8l-11.44,21.27,12.71,8.77-2.54,7.5-2.54,10,11.44,8.76-2.55,11.26,7.63,12.52,1.27,13.77,5.08,3.75-11.44,3.76,1.28,7.51,5.08,3.75-5.08,21.28,12.7,1.25,2.55,10-10.17-2.5v6.25l7.62,8.77,7.63,1.25V1569l8.9,7.51,1.27,16.27,11.44-2.5-8.9,12.52H343.49l-1.27,10,3.82,12.52,11.43,20-3.81,2.5-1.27,30,8.9,11.26,1.27,16.27,1.27,8.77,15.25,7.51,11.44-5,7.63,15L395.6,1738l7.63,7.51-5.08,11.26-11.44,12.52,15.25,6.26,15.25-3.76-2.54-6.26h8.9l1.27-7.51-6.36-3.75,5.09-7.51v-25l-5.09-2.5,10.8-8.77,8.27-23.77,7.63-7.51-3.82-11.27-10.16-18.77-10.17-20-3.81-8.76,8.9-8.76H404.5l12.71-17.52,6.36-13.77,5.08-31.28-12.71-20v-6.26l7.63-6.26-12.71-8.76,1.27-23.78,11.44-6.25-11.44-21.27,1.27-28.79,7.62-8.75,6.36,11.26,7.62-10-2.54-6.26-7.62-1.25-5.09-5,5.09-10,2.54,5,6.35,2.51,2.55-8.76,6.35-3.76-1.27-6.26-11.44-18.77-12.71-6.26L410.86,1350l-2.54-3.76-10.17,7.51-8.9,1.25-7.63-7.51-3.81,2.51-5.08-11.27,7.62-2.5L368.92,1325l10.16,2.5-5.08-15-7.62-5-1.27,8.76H344.77L327,1304.94Z" transform="translate(0 0)"/>
				<path id="path3186" class="cls-2" d="M440.72,1394.41l-4.45,1.88-1.9,9.39-6.35-3.13-2.54-6.89-7,11.27,5.08,5.63,8.27.62,3.17,7.51-7.62,10L421,1420.07l-8.27,7.51-.63,26.9,12.07,23.77-12.07,6.26-1.27,23.15,12.07,9.39-7,4.37-.64,6.89,13.35,21.27-5.72,30-17.79,31.91,21-.62-8.27,8.76,22.24,46.92,5.09,12.52,8.26,2.5.63,8.13-13.34,2.51-10.17,16.9,5.72,5,3.82,11.26h5.72l1.9,10,3.82,12.51,15.89,1.25L477,1734.8l5.09-3.13,5.08-9.39-2.54-5.63-3.18-7.51-12.07-7.51,9.53-5L496,1679.1l1.28-13.77.63-15.64H503l8.9-32.54.64-25.65-5.73-23.77,17.16-16.9,3.81-8.14,5.72-1.25,7.63-12.51v-15.65l-11.44-33.16-6.36-3.13v-15l-8.9-18.77-2.54-21.27L517,1410l10.16-10,6.36-21.9,5.08-4.38,4.45,3.13,9.53-9.4,4.44-8.76-1.9-10-3.82-3.75v-8.14l13.35-.62,8.26-6.89L578,1303l-29.23-10-12.7,11.26-14.62-8.76-6.35,8.14-6.36,3.75-14.61-1.87-5.72-3.76-10.17-19.4-9.53,3.76,3.18,10-9.53,11.26-15.89,7.51-1.9,5,5.09,5.63-1.27,24.4-14.62-6.88,1.27-6.26-5.71-2.5-.64,4.38-11.44,10-8.26-1.25,8.9,15,12.71,5.64,9.53,16.27.61,10Z" transform="translate(0 0)"/>
				<path id="path3188" class="cls-2" d="M222.76,874.46h14l12.71,11.27,17.79,10,14,1.25,14,2.5,5.08-8.76L310.45,897H327l7.63,13.77L332.05,922l3.82,11.26,5.08,1.26,6.35,1.25v7.5l11.44,5,3.81,10,5.09-6.25,6.35,3.75,7.63,8.76,17.79-1.25L386.7,952.06,402,948.3l14,10-10.17,3.76,1.27,7.51,11.44,8.76,7.63,5,7.62-1.25,5.08,2.5-1.27,11.26-1.27,17.53-8.9,10,2.54,6.25H421l-15.25-10-3.81-1.25-2.54,7.51H388l-6.35,8.76-7.63-2.5-10.16,8.76-1.28-11.26h-7.62l1.27-7.51-8.9-2.5-1.27,5,6.35,8.76-8.9,2.5-.74,8.47-9.42,4.05v-16.27l-1.27-11.27-5.08-6.26-5.08,3.76-6.36,8.76-6.35-15-10.17-2.5,6.36-7.51-11.44-2.5-8.9-6.26,5.08-5v-5l-7.62,1.25-5.09-3.75,8.9-5-3.81-10-5.08-6.26-8.9,5-3.82-12.51-3.81-5h-3.81v10l-14-15L238,935.79l-1.28-7.51,8.9-2.5-11.43-6.26,7.62-3.76-15.25-11.27Z" transform="translate(0 0)"/>
				<path id="path5134" class="cls-2" d="M241.83,943.29l15.25,16.27,1.27-12.51,7.62,7.51v7.5l3.82,5,7.62-7.51,8.9,13.77-11.44,7.51,7.63,6.26,7.62-2.5,2.54,5-8.9,3.76v2.5l-1.27,7.5-6.35-3.75-5.09,7.5,1.27,11.27-11.43,1.25.31,23.78-10.48,10.94-9.85,1.57-6.67,5-5.08-1.25-16.53,13.77-2.54,3.75-18.42.94,1.9-13.45-8.9-2.5-2.54-5,6.35-3.75,2.55-8.76-6.36-2.5,1.27-13.77,6.36-6.26-8.9-12.51,6.35,2.5,7.63-7.51v-2.5l-3.82-3.75,1.27-13.77-2.54-2.5,7.63-3.76,6.35,2.51v7.51l4.39-5.52,7.68-.43,13.35-14.09,8.26-.94,2.86-7.5-2.22-10.33Z" transform="translate(0 0)"/>
				<path id="path6105" class="cls-2" d="M207.51,1077.19l21.6-16.27,6.36,1.26,5.08-6.26,10.62-2.29,8.82-10.38.9-23.62,10.09-1.4-2.47-11.11,7.63-6.26,6.35,5,2.62-11.34,6.28,6.33,14.66,1.24-8.3,7.51,10.16,3.76,2.7,5.81,7.47,9.2,2.55-6.25,6.35-6.26,5.08,6.26,1.43,28.41-.16,16.64-3.81,13.76-3.28,4.36-8.16,1.9V1091l5.09,3.75L321.9,1101l-14-2.5-7.63,2.5,5.95,1.44,4.22,8.57-1.27,17.52-6.36,2.5,7.4,4.19L313,1141l-13.69,10.53-11.73.44-1.27,11.56h-8.9l-7.25-5.67-8,3.16H250.72l-3.81-3.75v-15l3.81-11.26,7.62,2.5-1-8.32,3-7.43-3.29-3.31-6.35-1,5.53,5.37-9.34,7.15-5.09-5,1.28-5-4.42-4-9.63-4.74-16.45-12.47,3.81-8.76Z" transform="translate(0 0)"/>
				<path id="path7070" class="cls-2" d="M576.85,1304.46l14.38-5.31-1.8,15.93,14.38,5.32-9,8.85,1.8,8.85,12.58,8.85,16.18-5.31L636.17,1354l1.8,24.77-12.58,5.31-7.19,3.54L616.4,1400h18l3.6,3.54v19.47l7.19,17.69-5.4,8.86,7.19,23-14.38-7.08-10.79-5.31-3.59,3.54L638,1477.91v5.31h-5.39l-9,10.62v23l-10.78,17.7-3.6,10.61-1.8,21.24,10.78,15.92,3.6,19.47-14.38,19.47,5.4,12.39-1.8,23,7.19,19.47v10.61H611v10.62l-25.17,15.93-9-7.08-21.56-1.77L542.71,1708l23.37,17.7-5.4,10.61H540.92l-14.38-3.53,9,17.7L522.94,1754l-14.38-5.31,5.4-12.39-10.79-15.93v-14.17l-1.8-14.15,3.6-28.32-3.6-15.92,9-24.78,1.8-30.09L505,1566.39l21.57-17.7,12.58-8.85,3.59-28.31-14.38-28.32-5.4-5.31v-12.39l-9-17.7-3.6-23,16.18-26.54,7.19-21.24H544.5l12.59-14.15v-12.39l-7.19-5.31v-10.62l19.77,1.77,5.39-14.15,1.79-17.71Z" transform="translate(0 0)"/>
				<path id="path4157" class="cls-5" d="M428.65,1724.15l-2.54,22.52,14,8.77,3.82-13.77Z" transform="translate(0 0)"/>
				<path id="path1921" class="cls-6" d="M364.32,1780.69c0-2.46-7.86-2.56-6-10C358.7,1769.19,368.57,1770.07,364.32,1780.69Z" transform="translate(0 0)"/>
			</g>
		</g>
	</g>
</svg>