<svg xmlns="http://www.w3.org/2000/svg" id="Layer_1" data-name="Layer 1" viewBox="0 0 1544.65 2132.5">
	<defs>
		<style>.cls-1{opacity:1;}.cls-2,.cls-3,.cls-7,.cls-9{fill:#268000;}.cls-10,.cls-11,.cls-2,.cls-3,.cls-5,.cls-6,.cls-7,.cls-8,.cls-9{stroke:#fff;}.cls-10,.cls-2,.cls-3{stroke-width:2px;}.cls-3{stroke-linecap:round;stroke-linejoin:round;}.cls-11,.cls-4{fill:none;}.cls-4{stroke:#000;}.cls-10,.cls-5,.cls-6{fill:#2c8a04;}.cls-5{stroke-width:0.75px;}.cls-6,.cls-8{stroke-width:0.5px;}.cls-7{stroke-miterlimit:10;}.cls-8{fill:#9d9d9d;}.cls-9{stroke-width:3px;}.cls-11{stroke-width:8px;}</style>
	</defs>
	<title>atc-map-green</title>
	<g id="atc-map">
		<g id="Group_9" data-name="Group 9">
			<g id="Mymensingh" class="cls-1">
				<path id="path8041" class="cls-9" d="M543,542.85l17.79-18.77-1.27-11.27,8.9-10,8.9,1.25L585,494l-1.27-12.52-6.35-11.26V449l12.7-8.77-6.35-3.75v-8.76l14,10-3.81,20,7.62,7.51-1.27,10,8.9,6.26H618l6.35-8.76,11.44,2.5,7.63-1.25v18.77l-2.55,2.5-7.62-5-3.82,17.52-7.63,7.51,3.81,8.76,10.17-1.25-1.27,6.26-5.08,6.26-1.28,10,11.44,8.76-1.27,7.51-8.9,5,1.27,5h-6.35v6.26l6.35,12.52,1.27,7.51,7.63-1.25,6.35,7.51-2.54,7.51,8.9,3.75,29.23,7.51,2.54,8.76,16.52-13.76,24.15,11.26-1.27,15-11.44,12.52-8.9-1.25H682.82L671.38,658l-19.06,22.52L646,671.75,643.42,668l-8.9-3.76v7.51L624.36,678l-5.09-3.75-3.81,7.51,3.81,7.51,7.63,5-2.54,5L620.54,698l-5.08,11.25h-6.35v8.76l-7.63,2.5v13.77l-6.35,2.5L585,735.57V724.31l-7.62-6.25,10.16-1.26,3.82-26.27-10.17-11.27,7.63-1.25,1.27-8.76-11.44-7.51-5.08-1.25-2.55,5-7.62-8.76h3.81l2.54-6.26-1.27-6.26-8.9,1.26L549.37,634.2l-1.26-10,6.35-1.25-1.27-11.26-5.08-6.26,1.27-6.26-5.09-5,5.09-5V577.88h-8.9l7.62-8.76-6.35-3.75,3.81-8.77L543,542.85Z" transform="translate(0 0)"/>
				<path id="path3201" class="cls-9" d="M682.82,631.69l-1.27-8.76-20.33-5-17.79-6.26,2.54-7.51-6.36-7.51-6.35,1.25L632,590.39l-6.36-8.76-3.81-10,8.9,1.25v-6.26l7.63-5,1.27-6.26-8.9-7.5-2.54-8.77,6.35-7.51,1.27-10-10.17,1.25-3.81-7.51L632,507.78l2.54-17.52,5.08,6.26,5.08-5V472.75l8.91,7.51,12.7,7.51,6.36,3.76,16.52,6.25,14,3.76,19.07,2.5,14,6.26h8.91l3.81,6.26v11.27l1.27,13.76-2.55,8.76,15.25,7.51-5.08,8.77-12.71-2.5-8.9,12.51,7.63,6.26-5.08,7.51,3.81,10,8.9,5-5.08,2.5-7.63-2.5,1.28,6.26,6.35,5L740,629.21,723.49,628l-10.16-5-14-6.26Z" transform="translate(0 0)"/>
				<path id="path4172" class="cls-9" d="M759.08,838.17l-11.44-5-10.17-21.28,5.08-5V794.37l-12.7-18.77,2.54-8.76,8.91-2.5-19.08-10-7.62-7.51L704.43,729.3l1.27-7.51,7.63-8.76v-6.26l-11.44-16.28,1.27-21.27L691.72,668l-3.81-10,12.71-2.51L712.05,658l11.45-13.77V631.68l6.35-3.75,8.9,2.5,8.9-11.27-8.9-6.25v-7.52l7.63,2.5,7.62-1.25-10.17-5-5.08-11.26,5.08-7.51-6.35-6.26,8.9-12.51,12.71,5,5.07-10L754,555.34l-5.09-6.26V517.79l-1.27-5,6.36-1.25,6.35,5h11.44l3.81,7.51,26.69,5,12.71-5,15.25-6.26,16.52,2.5,6.36-3.75,10.17,5,8.9-7.51,6.35,3.76L876,524.05l-6.36,17.52-1.27,10-6.36,5,10.17,11.27-1.27,7.5-8.9,1.25-5.09,7.52-2.54,10-5.08,1.25-5.09-13.77-3.81,5-7.62-2.5-3.82,2.5,10.17,7.51,2.54,10-2.54,7.51h2.54L848,624.18h8.9L855.66,638l6.36,5-3.81,5h8.9l8.9,7.51,12.7,2.5,5.09-3.76L905.24,658l-2.55,7.51-6.35-1.25,2.54,8.76,5.09,2.5,2.54,2.5-6.36,7.51L898.88,698l10.17,8.76,8.9,5,2.54,16.27,7.63-5,1.27,5,10.17,6.26,2.54,5-7.63,12.51-8.9,8.76-8.9-3.75-5.09-8.75-7.63,15-5.08-10-7.62,13.77-10.16,1.26-8.9-7.53H860.75l-3.81,10,11.44,8.76,12.71,7.51-1.27,16.27-6.36,5-1.27,11.27,6.36,13.77,3.8,7.5-8.9-2.5-11.44,5h-12.7l-10.17-7.51,1.27-7.51-17.79-6.25-1.27-5-12.71-1.25-5.08,20-5.09-2.5-6.35,2.5-7.62-8.76-3.82,7.51-21.6,3.74Z" transform="translate(0 0)"/>
				<path id="path6116" class="cls-9" d="M940.82,735.56l-10.17-3.75L929.38,723l-8.9,3.76-2.54-12.52L906.5,708l-6.35-8.76-1.27-12.51,8.9-8.77-11.44-6.25v-7.51l5.08,1.25,5.09-7.51-14-5L890,658H877.27l-8.9-8.76H856.93l5.09-6.26-5.09-5v-12.5l-8.9-1.25L843,610.41h-3.81l1.27-5-1.27-11.27-11.44-7.51h14l2.54-6.26,5.09,15h6.35l2.54-11.26,3.82-6.26h6.35l5.08-10L862,556.59l7.62-3.75-2.54-7.51,5.09-8.76,6.35-15,10.17,1.25,3.81,3.75,21.6-13.76,7.62,11.26,33,1.25,3.81-3.75,10.17,5,16.52-13.76,1.27,6.25-3.81,1.25-1.27,23.77,5.09,5-2.55,2.5-7.62,1.25-2.55,6.27,10.17,2.5-5.08,6.26-1.27,12.52L984,591.63v17.52l15.25,3.76,10.17,10,24.15,1.26,6.35,10v11.26l5.08,10,5.09-10,6.35-1.25,5.09,8.76-3.82,10-8.9,2.5V678l6.36,3.76,7.62,1.25,10.17,3.76,5.08,6.25,3.82,5-7.63,8.76-10.17,7.51-14,1.25-21.6,13.77-3.81-6.26-15.25-3.75L998,726.81l-8.9-1.26-17.79,1.26H956.06l-15.25,8.75Z" transform="translate(0 0)"/>
			</g>
		</g>
	</g>
</svg>