<svg xmlns="http://www.w3.org/2000/svg" id="Layer_1" data-name="Layer 1" viewBox="0 0 1544.65 2132.5">
	<defs>
		<style>.cls-1{opacity:1;}.cls-2,.cls-3,.cls-7,.cls-9{fill:#268000;}.cls-10,.cls-11,.cls-2,.cls-3,.cls-5,.cls-6,.cls-7,.cls-8,.cls-9{stroke:#fff;}.cls-10,.cls-2,.cls-3{stroke-width:2px;}.cls-3{stroke-linecap:round;stroke-linejoin:round;}.cls-11,.cls-4{fill:none;}.cls-4{stroke:#000;}.cls-10,.cls-5,.cls-6{fill:#2c8a04;}.cls-5{stroke-width:0.75px;}.cls-6,.cls-8{stroke-width:0.5px;}.cls-7{stroke-miterlimit:10;}.cls-8{fill:#9d9d9d;}.cls-9{stroke-width:3px;}.cls-11{stroke-width:8px;}</style>
	</defs>
	<title>atc-map-green</title>
	<g id="atc-map">
		<g id="Group_9" data-name="Group 9">
			<g id="Rajshahi" class="cls-1">
				<path id="path5240" class="cls-2" d="M327,898.24v-8.76l5.08-8.76,6.35,6.25,25.42-5,12.71-10,2.54-10,7.62,2.5,11.44-6.26,7.63-22.52,7.62,3.76,1.27-10,10.17-10,26.69,6.26,8.9,3.76v12.51l3.81,7.51,8.9-5,7.63,2.5-5.09,3.75v10l5.09,3.76H492.2l5.08-6.26,5.08,8.76-7.62,6.26h6.35v7.51l-7.62,3.75,2.54,8.76,11.44,1.26L524,908.25,535.4,907l16.53,13.77,8.9,12.52-12.71,2.5v7.51L543,944.55l1.28,11.26,6.35,7.51,10.17-2.5,5.08,15h-5.08l-10.17-11.26,3.81,15,15.25,2.5,11.44,7.51-11.44,3.75-6.35,3.76-15.25-1.25-15.25-6.26-17.8,5-11.43,5-30.5-18.77-5.09-12.52L452.8,952.06h-6.35l5.08,12.52-6.35,7.51-14-2.5-8.89-12.52-12.71-13.76-5.09-2.51H386.7l-7.62-5h-14l-7.63-1.25-10.16,8.76v-6.26l-10.17-3.76-5.09-10L334.6,907,327,898.24Z" transform="translate(0 0)"/>
				<path id="path2180" class="cls-2" d="M164.3,678l-7.62-6.25-8.9-2.51,1.27-5,17.8,3.75L163,660.47H151.59l-11.44-5,6.36-7.51-11.44-2.5-5.08,5-10.17-5,2.54-8.76,10.17,3.75,2.54-5,14,1.25,3.82-5L163,615.42l-12.71-12.51-3.81,11.26-7.62,1.25,2.54-12.51-7.63-8.77-7.62-1.25-3.82,8.76-15.25-1.25-2.54,10h-3.81l-1.27,5h8.9v6.26l-5.09,7.51-2.54-7.51h0l-6.35,6.25-2.54-6.25-7.63-5-3.81,7.51,3.81-12.51-12.71-8.76,1.27-7.51-8.9-1.25-1.27,3.75H52.46L42.3,604.16,41,610.42l6.35,6.25,2.54,17.52-22.87,15,2.54,10L22,658l-3.81,3.76-1.27,10-1.27,8.76-1.27,6.26L8,685.5l-6.36,3.76L5.45,693l6.35,5-1.27,5,14,8.76-1.28,7.5,7.63,7.51-3.81,11.26,5.08,10,6.35,7.51h8.9L55,763.1l5.08,6.25L69,768.1l31.76,10h12.71v-6.25h-1.27l-6.35-10V744.32l-6.35-7.51V725.55L114.74,718l10.16-1.25h0l14-8.76-1.27-10H164.3l2.54-2.5-5.08-3.76-5.08,2.5-8.9-5Z" transform="translate(0 0)"/>
				<path id="path2184" class="cls-2" d="M315.54,671.74l-1.27-26.28-5.09-3.75L319.35,633H327l3.81,8.76,1.27-8.76h3.81v7.51l8.9-11.27,6.36,6.26,15.25-12.52-12.71-12.51,6.35,2.5,1.27-18.77,7.63,3.76,1.27,7.5,14,1.26v5h10.16l-1.27-7.51-6.35-3.75V592.9l6.35,1.25,7.63-20,8.9,5-3.82-7.51h8.9l-6.35-8.76L421,555.35l1.27-8.76-5.08-1.25,5.08-5,14,2.5,8.9,5,2.54,11.26,11.44,2.51,2.54-6.26,11.44,6.26L477,554.1l10.17,10,15.25,2.5,6.35,6.26h5.09l3.81-8.76,21.6-2.5,3.81,6.26,3.82,1.25-3.82,10h5.09l2.54,8.76-5.09,7.51,5.09,3.76-2.54,6.25,5.08,7.51,1.27,8.76-6.35,1.25V634.2l10.16,11.27h8.9l3.82,6.25-2.55,3.76h-17.8l-2.54,3.75v7.51h-2.54v8.76L532.86,693l-8.9-8.76L517.61,688l-5.09-5v6.26l-5.08,5-1.27,10,5.08,2.5-2.54,6.26,1.27,2.5,7.63-1.25,7.62,6.26-5.08,6.25,8.9,5L524,738.08h-7.63l-1.27,5-7.62-2.5-5.1-7.51-1.27,6.26h-7.62l-3.82-5-10.16,5-8.9,1.25-10.17-6.26L435,735.57v-6.25l-6.35-8.76h-3.81l-7.62-7.51L407,711.79,402,715.55l2.54,10-1.27,3.75-14-11.26v-5l5.08-3.76L391.79,703l-7.63,6.26-3.81-3.75L374,719.3l-8.9-17.52,6.35-7.51-1.27-18.77-6.35,6.26-12.71-1.25,1.27-6.26L341,655.48l-8.9,10-3.81-5Z" transform="translate(0 0)"/>
				<path id="path3179" class="cls-2" d="M282.49,895.74v-6.26l12.71-1.25L292.66,882l-16.52-2.5,5.08-5-5.08-2.5,7.62-3.75-5.08-7.51L299,853.19l-6.35-10v-7.51L280,836.92l-5.08-12.52,16.52-11.26-2.54-40,12.71-8.76-8.9-8.76H285l11.44-7.51,12.71,2.5,5.08-10-1.27-5h8.9l-1.27,6.26,7.62,6.26,10.17,1.25,8.9,1.25,11.44-7.51L360,729.29h-5.09V718l10.17-12.52,8.9,15L379.08,708l5.09,2.5,7.62-7.51,3.82,5L388,716.77,403.23,728l1.27-5-5.08-6.26,6.35-6.26,11.44,2.5,7.62,6.26,7.63,6.26,3.81,8.76,3.81,3.75-21.6,28.78-12.71,15,7.63,3.76,2.54,7.51,6.35,3.75,1.27,23.78-10.17,10v6.26L407,835.65,395.6,858.18l-8.9,5h-7.63L375.26,872l-11.44,8.76-22.87,5-5.08-5-3.82-1.25L327,888.22V897l-15.25-1.25L299,892l-5.08,6.25Z" transform="translate(0 0)"/>
				<path id="path3168" class="cls-2" d="M109.65,779.36l3.82-8.76-8.9-11.27,1.27-16.27-7.63-8.76,1.27-10,25.42-7.51,15.25-7.51-1.27-10L163,700.51l3.81-3.75L163,690.5l-6.36,3.76-8.9-5,16.52-8.76,19.07,6.26,1.27,10,7.62,2.5,7.63-8.76,6.35,5L205,709.27l11.44,5,28-15-1.27-2.5,14,5,7.62,6.26,10.17-1.25,8.9,8.76,10.17-3.75v12.51l1.27,6.26,10.16,5h6.36v7.5l-2.54,6.26-14,1.26-7.63,6.25h5.08l7.63,7.51-11.44,8.76,1.27,6.26h0l1.27,33.79-12.71,8.76-2.54,3.75h0l6.36,12.52,10.16-2.5,1.27,7.51,2.54,6.25,3.82,3.76-16.52,6.26-5.09,5,6.36,5-7.63,3.75,5.08,3.76-5.08,3.75,14,2.5,2.54,5-10.16,2.5-1.28,5h-12.7L252,888.24l-11.44-10-5.08-2.5-8.9-2.5v-5l10.17-2.5L238,839.43l-8.9-18.77L219,819.4l-5.08,7.51-19.06-1.25-11.44-6.26-8.9,7.51L163,820.65l-11.44-11.26-5.08,1.26-1.27-6.26-11.44-2.5-12.71-6.26Z" transform="translate(0 0)"/>
				<path id="path4248" class="cls-2" d="M422.29,816.9V798.13l-6.35-5v-5l-8.9-7.51,34.31-41.3-2.54-5h22.88l8.9,7.5h8.9l11.43-6.25,10.17,5,2.54-8.76,5.09,10,8.9,2.5v-6.25H524l6.36-5-10.17-6.25,5.08-5-8.9-7.51-7.62,1.25-2.55-1.25,6.36-6.26-6.36-3.75L510,690.5v-8.76l6.35,6.26,7.63-2.5,7.62,7.51,16.52-17.52L545.57,668l2.54-12.52,15.25,1.25,5.09,6.26,3.81,3.76,2.54-5h3.82L585,668l3.81,1.25,1.27,7.51L582.43,678l-1.27,3.76,7.62,6.25v18.77l-2.55,10h-7.62L585,724.3l1.27,8.76-6.35,3.76-1.27,7.5-5.08-1.25-6.36,7.51,6.36,8.76v10l-8.9,6.25-3.82,6.26,17.8,18.77L571,808.15l1.27,5,8.9,6.26,6.35,10L585,865.72l3.82,5L585,874.48v5l3.82,1.26,5.08,5v3.75l3.81,3.76-1.27,15-8.9,17.52L571,932.05h-8.9l-10.17-12.52-15.25-11.26H525.23L508.71,894.5,496,892l-1.27-6.26,6.36-2.5,1.27-8.76-5.09-2.5,3.82-2.5v-5L496,858.21l-3.81,2.5-11.44,2.5-3.81-2.5v-8.77l5.08-2.5s0-7.51-5.08-7.51h-6.36l-3.81,6.26h-2.54l-2.54-7.51v-10l-11.44-7.51-10.16-2.5Z" transform="translate(0 0)"/>
				<path id="path2179" class="cls-2" d="M316.81,634.2v-8.76l12.7-1.26L327,601.66l5.08-1.25-1.27-26.28-7.62-12.51h-2.54l-5.09,6.26-6.35,1.25-6.36-11.27v-5h5.09l3.81-20h-14l7.63-2.5-7.63-10,5.08-6.26-10.16-1.25h-5.09l-16.52-10-3.81,8.76-8.9,6.26H255.8l-6.36-7.51-6.35,3.75-15.25-8.76-8.9-2.5-2.54,5-24.15-1.25-6.35,12.51h-6.35v-7.51l-3.81-3.75-3.81,5-5.09-6.26h-7.62l-6.36-5-2.54,5-8.9,3.76h0l-1.27,10,10.17,5v3.75l-8.9,3.76v17.52l2.54,3.75-6.35-1.25-1.27,11.26,6.35,5-5.08,6.26-6.36,3.75v7.51l-6.35,1.25v5h8.9l7.63,7.51,1.27,13.76h3.81v-5l1.27-5h5.08l8.9,8.76v5l-8.9,15-6.35,2.5-10.17,1.25-1.27,3.75L123.63,638l-3.81,7.51,8.9,5,5.08-2.5h15.25L144,655.49l6.35,2.5L163,659.24l3.82,7.51L160.49,668l-6.35-2.5h-5.09l-1.27,3.76,8.9,2.5,7.63,3.75,1.27,3.76,6.35,3.75,14,3.76v8.76l6.36,2.5,7.62-10,6.36,8.77L205,710.55l5.08,5,1.27-2.5h6.36l7.62-3.76,17.8-12.51h5.08l1.27,5,8.9-1.25h0l6.36,7.51,2.54-2.5h8.9l7.62,8.76,1.27-2.5,7.63-1.25,3.81,5v12.5l6.36,5,6.35,1.25,14,1.25v7.51l2.54,2.5h5.09l1.27-3.75v5h7.62l2.54,7.51,5.09-6.25,3.81,1.25,8.9-7.51V729.32l-3.81-2.5v-8.76l10.16-15,3.82-6.25-1.27-11.27,2.54-10-6.36,5-14,1.25,1.28-11.27-8.9-15H341l-10.16,10L327,664.24l-11.43,10-1.28-27.53-5.08-2.5Z" transform="translate(0 0)"/>
				<path id="path3152" class="cls-2" d="M329.52,624.19l-1.28-22.52,2.55-2.5,1.26-27.54-7.62-7.5h-6.36l-2.54,5h-5.08l-5.08-10v-6.26l3.81-1.25,1.27-18.77-7.62-1.25,3.81-2.5-5.08-10,6.35-6.26-1.27-8.75,2.54-17.52,15.25-5,5.09,1.25L341,491.54l14-2.5,6.35,8.76,17.79-2.5,14,5-5.08,10,6.35,10,6.36,5,8.9,12.51-1.28,3.74,11.44,7.51v5l-7.62,6.26-5.09,2.5,5.09,7.51-7.63,2.5,2.54,5-7.62-3.75-6.36,17.52H388v10l3.81,3.76-1.27,5-6.35-1.25v-3.75h-14l-1.27-8.76L360,592.9l-1.27,17.53h-3.81l1.27,5,7.63,5v3.75L352.4,631.7l-3.81,2.51-6.36-5-6.35,7.51v-5h-6.36v5L327,633h-8.9v-7.51Z" transform="translate(0 0)"/>
			</g>
		</g>
	</g>
</svg>