<svg xmlns="http://www.w3.org/2000/svg" id="Layer_1" data-name="Layer 1" viewBox="0 0 1544.65 2132.5">
	<defs>
		<style>.cls-1{opacity:1;}.cls-2,.cls-3,.cls-7,.cls-9{fill:#268000;}.cls-10,.cls-11,.cls-2,.cls-3,.cls-5,.cls-6,.cls-7,.cls-8,.cls-9{stroke:#fff;}.cls-10,.cls-2,.cls-3{stroke-width:2px;}.cls-3{stroke-linecap:round;stroke-linejoin:round;}.cls-11,.cls-4{fill:none;}.cls-4{stroke:#000;}.cls-10,.cls-5,.cls-6{fill:#2c8a04;}.cls-5{stroke-width:0.75px;}.cls-6,.cls-8{stroke-width:0.5px;}.cls-7{stroke-miterlimit:10;}.cls-8{fill:#9d9d9d;}.cls-9{stroke-width:3px;}.cls-11{stroke-width:8px;}</style>
	</defs>
	<title>atc-map-green</title>
	<g id="atc-map">
		<g id="Group_9" data-name="Group 9">
			<g id="Rongpur" class="cls-1">
				<path id="path4167" class="cls-2" d="M248.18,119.88l6.36-6.26,6.35,1.25,6.35,5-5.08,13.77,7.63,2.5,6.35,7.51,7.62-1.25-1.27-8.76-6.35-3.76,7.62-8.76,14,1.25,6.36,8.76,5.08,6.26,3.81,6.26,2.55-3.76H327l2.55,2.5,7.62-3.75v8.76l1.27,15,8.9,6.25,8.9,5,2.54,6.26-1.27,7.5-2.54,18.77,3.81,12.52,2.54,13.76,10.17,8.76,11.44,7.51,8.9,7.51-3.82,10-3.82,8.76-3.81,5-7.63-8.76L360,282.56l1.27,13.77-10.17-10-6.35,12.51-20.34-5-14,3.75,5.08,12.52-6.35,7.5-3.81,6.26-11.44-1.25-10.17-8.76h-6.35V300.08l-10.17-2.5v-30l-5.08-6.26-5.08-8.76-14-3.75,1.27-6.26-3.82-2.5V230l-1.27-3.75,5.09-6.26-3.82,6.26L248.18,215l7.62-3.75V190l3.82-7.51v-5l-1.28-17.52,3.82-7.51-14-15V119.88Z" transform="translate(0 0)"/>
				<path id="path2169" class="cls-3" d="M109.65,66.07l-2.54-8.76-2.54-6.25,6.35-8.76L116,31l5.08-15L131.25,1l2.55,16.27L135.07,26l10.16,10,10.17-2.5,2.54,8.76,10.17,2.5,1.27,7.51,10.17,3.75,1.27,5L191,63.56l6.36-7.51,3.8,10,5.09,6.26,7.62,5,2.54,5,6.36-2.5,3.81,3.76-3.81,8.76,3.81,3.76,5.08,3.75v2.5l10.17-1.25v5l2.54,5v6.26l6.36,5-1.27,11.26,5.08,8.76,6.35,8.76-2.54,8.76v23.78l-3.81,10,2.54,12.52L250.72,215l-8.9,12.51L231.65,225l-14-1.25-5.08-10-6.35-5L213.86,195l-5.08-10-6.36-7.51-10.17-3.75-5.08-5-3.81-7.51-6.36,2.5a19.22,19.22,0,0,0-5.08-2.5c-3.49-1.25-8.9-2.5-8.9-2.5l-6.35-2.5-6.36,5-10.16-2.5-8.9-3.76-7.63,5-1.27,6.25a45.8,45.8,0,0,1-8.9-2.5,89.55,89.55,0,0,1-10.17-5l-2.54-3.75,8.9-5,5.08-6.26-3.81-7.5V118.65l14-1.26,5.08-5,5.09-7.5,11.44-3.76L149,92.37l6.35,10,6.36-3.75,5.08-8.76-5.08-6.28-5.08-7.51V67.32l-8.9-7.5-11.44,2.5-6.35-10-6.36,5L116,56.06Z" transform="translate(0 0)"/>
				<path id="path2192" class="cls-2" d="M42.29,305.09l-6.35-11.27-7.62-10,5.08-11.26-12.71-2.5,3.81-20,8.9-6.26-1.27-7.51,5.09-10,15.25-10,5.08-13.76-11.44-6.26L52.46,185,55,173.69l14-5V156.17L88,158.67l14-3.75,19.07,12.51,3.81-10,13-2.68,11.18,3.93,10.16-1.25,25.42,6.26,10.17,11.26,8.9,3.76,12.71,15-8.9,12.52,2.54,8.76-6.35,6.26-2.55,10h-8.9l-6.35-10-3.81,7.5h-7.63l-3.81,13.77,5.09,5-6.36,1.25-7.63,12.52-2.54,7.51-3.81,7.51,5.08,6.26-7.62,1.25h-5.09v-6.26l-16.52,1.25v10H124.9l-1.27,12.51,7.62,3.76-5.08,5v11.27l6.36,3.75,7.62,6.26-1.27,8.76-8.9,1.25-7.62-7.51L116,330.12v-5l-8.9-8.76H99.48l-2.54-8.76-14-7.5,1.27-6.26L83,290.07l-11.43,3.76-7.63,6.26-6.35-7.51Z" transform="translate(0 0)"/>
				<path id="path2175" class="cls-2" d="M334.6,123.64l-3.81-10-10.17,7.51-5.08-7.51,7.62-6.25-3.81-6.26L313,99.86l-3.81,3.75-12.71-6.25-2.54-11.27,12.71-18.77,11.44-3.75v7.51l3.81,2.5,11.44,3.75L341,84.84l16.52-1.25,3.82,8.76-7.63,1.25,6.36,7.51-6.36,7.51h15.25l5.08,8.76-1.27,3.75H365.1l-7.63-7.5v11.26l6.36,7.51L374,143.66l1.28,7.51-3.82,3.75,11.44,22.52,20.34,3.76,10.16,10,1.27,7.51-5.08,2.5,1.27,2.5,8.9,1.25,10.17,5,8.9,10,16.52,3.75L463,210l5.09,1.26,1.27,6.25,6.35,2.5,5.09,5,5.08-3.76L483.3,245l10.16,1.25,14,15L510,260v7.5h11.43l1.27,3.76-11.44,15-6.35,1.26,1.27,15-14,10-3.81-1.25-1.27-11.26-3.82,1.25-2.54,6.26-10.16-1.25-7.63-2.5-1.27,2.5-25.42-15s6.36-7.51,0-8.76a46.91,46.91,0,0,1-12.71-5v-8.76L415.94,270l-11.44-8.76-12.71-5-7.62-8.76-16.3-5.31L360,230l-6.36-28.78,3.82-18.77v-7.51l-20.34-12.51,1.27-25,10.17-3.75-6.35-8.76Z" transform="translate(0 0)"/>
				<path id="path2174" class="cls-2" d="M210.05,212.48l-6.35,6.26-2.55,10-8.9,2.5L184.64,220l-2.55,8.76h-8.9l-3.81,13.77,6.35,3.75V250l-7.62-1.26-11.44,25,3.81,6.26-2.54,3.75-10.17,1.25-1.27-7.5-3.81,2.5-14-2.5,2.54,12.51-6.35-2.5-1.27,11.26,6.35,3.76-3.81,8.76,1.27,8.76,12.71,10v10l5.09,3.75L144,355.14l-5.09,2.5v10l7.63,5H158v10l8.9,6.25,3.81,8.76,15.25,1.25,8.9-2.5,2.54,6.26L208.79,404v5l17.79,2.5,5.09-5L238,402.7S253.27,409,249.46,404s-3.82-13.77-3.82-13.77l7.63,7.51,7.62-7.51V402.7l6.36,2.5,5.08,11.27L267.25,429l-6.36,3.76,7.63,3.75,1.27,10,16.52,16.27,3.81-6.25,3.82,5v5l31.77,2.5,3.81,5-1.27,8.77,14,7.5,12.71-2.5,6.35,10,17.8-2.5,38.12,8.77,10.17-5v-8.76l-10.17-11.26-1.27-11.27-14-11.26,2.54-5-3.81-2.5h-6.35l-1.27-7.51H381.62L374,432.74l3.81-2.5-12.71-7.51-8.9-35-5.08-12.51-19.07-3.75-8.9-20-17.79-11.26-2.54-17.52-14-3.76-5.08-5-7.63-1.25L280,298.84H267.24l-1.27-30-10.16-17.52-11.44-2.5-3.82-10V227.51L219,223.75Z" transform="translate(0 0)"/>
				<path id="path2176" class="cls-2" d="M417.21,477.77v-10L400.69,456.5l3.81-6.26-10.17-2.5v-5l-12.7-1.26-10.17-8.76,6.35-1.25-16.52-8.76-10.17-46.3-20.33-5-8.9-20-15.25-8.76-5.08-20,12.71-12.51-3.82-12.52,14-3.75L346,297.56l3.81-10,12.71,10-1.27-15L374,270l5.08,10,15.25-22.53L413.39,270h8.9v8.76l14,5,5.08,11.26,20.34,12.52,2.54-5,15.25,7.51,3.81,3.76L482,317.59l11.44,2.5,3.81,5-11.43,5L496,333.86l3.82,5v8.76l-3.82,2.5v6.26l7.63,3.76,1.27,3.75-5.08,3.76-10.17,7.5,3.82,6.26-6.36,3.76-3.81-6.26-7.63-2.5-1.27,3.75-10.16-1.25-5.09,6.26,12.7,11.26-1.27,8.76,7.63,5-8.9,11.26-8.9,1.25-8.9,10L438.8,456.51V459l3.81,6.25-6.35,2.5,14,10h-33Z" transform="translate(0 0)"/>
				<path id="path3151" class="cls-2" d="M498.54,346.38v-8.76l-11.43-10,11.43-1.25-7.62-7.51H482l-3.81-11.27,8.9-7.5v8.76l6.35,5,11.44-10,1.27-16.27,16.52-13.77-1.27-5L510,267.54v-8.76l-5.08,3.75L492.19,245H482l3.82-22.52h17.79l2.54,5-1.27,6.26,7.62,7.51,2.55-5,6.35-2.5v-6.26l-6.35-1.25L513.8,215l14-10h11.44v-6.26l-3.81-2.5-1.27-10-3.81,1.25-2.55,5-2.54,3.75-5.08-2.5,5.08-8.76-2.54-5-2.54-5v-6.26h5.08l7.63-8.76,2.54-6.25-1.27-7.51,3.81-3.76h11.44l7.62,6.26-5.08,5-1.27,6.25-1.27,2.5,3.81,7.51,5.09-3.75h14l3.82,11.26,12.7,21.27-5.08,2.5v7.51l7.63,2.5L597.67,230h12.71l-12.71,11.26L610.38,245l8.9,3.75v3.76l-6.35,6.25-11.45,10,1.28,13.77-6.36,8.76,5.09,8.76,5.08,8.76-7.63,7.51v7.51l6.36,1.25-2.55,10,11.44,8.76v32.54l-6.35,12.51-1.27,20L604,420.22,600.21,424l-1.27,13.77L592.59,434l-8.9-5v7.5l5.08,3.76L577.33,449l-5.08-1.25v-5l-2.54,2.51L559.55,444v-6.26l5.08-2.5L559.55,434v-6.26l3.81-10L548.11,414l8.9-3.76-5.09-7.51v-5l-11.43-10h-8.9L529,393.93l-3.81-10L510,376.41l-5.08-13.77-6.36-6.25v-10Z" transform="translate(0 0)"/>
				<path id="path2177" class="cls-2" d="M394.33,497.79l21.6,7.51,10.17-5,2.54-8.76-10.16-13.77L447.71,479l-11.44-11.26,8.9-1.25-6.35-10L456.61,429l6.35-7.51,6.36,2.5,10.16-13.77-8.9-5,1.27-11.27-11.44-8.76,3.82-6.25,10.16-3.76,10.17,2.5,1.27,10,10.17-5-6.36-8.76,15.25-8.77,10.17,13.77,8.9,6.26,5.09,11.26,3.81-7.51h7.63l10.16,8.76v5l6.36,6.26L544.3,415.2,563.36,419l-3.81,3.76V434l2.54,2.5-3.81,1.25V444l10.16,1.25,5.09-5v6.26l3.81,2.5v20l6.36,13.77,1.27,8.76-8.9,12.52-6.36-1.26-8.9,7.51-1.26,11.28-8.9,12.51L543,542.85v6.26l3.81,6.26,5.08,1.25-6.35,3.75L543,567.88l-2.54-5-14-1.25-11.44,3.75-2.54,6.26h-6.36l-2.54-5-19.06-3.75-5.09-6.26-3.81-1.25-3.81,5-6.36-3.76-3.81-1.25-2.54,5L449,559.12l-3.81-12.51h-5.08l-3.82-3.76-14-1.25-5.08,6.26-7.63-6.26v-3.75l-10.16-13.77H395.6l-5.08-6.26L388,511.56Z" transform="translate(0 0)"/>
				<path id="path3149" class="cls-4" d="M497.28,355.14" transform="translate(0 0)"/>
			</g>
		</g>
	</g>
</svg>