<svg xmlns="http://www.w3.org/2000/svg" id="Layer_1" data-name="Layer 1" viewBox="0 0 1544.65 2132.5">
	<defs>
		<style>.cls-1{opacity:1;}.cls-2,.cls-3,.cls-7,.cls-9{fill:#268000;}.cls-10,.cls-11,.cls-2,.cls-3,.cls-5,.cls-6,.cls-7,.cls-8,.cls-9{stroke:#fff;}.cls-10,.cls-2,.cls-3{stroke-width:2px;}.cls-3{stroke-linecap:round;stroke-linejoin:round;}.cls-11,.cls-4{fill:none;}.cls-4{stroke:#000;}.cls-10,.cls-5,.cls-6{fill:#2c8a04;}.cls-5{stroke-width:0.75px;}.cls-6,.cls-8{stroke-width:0.5px;}.cls-7{stroke-miterlimit:10;}.cls-8{fill:#9d9d9d;}.cls-9{stroke-width:3px;}.cls-11{stroke-width:8px;}</style>
	</defs>
	<title>atc-map-green</title>
	<g id="atc-map">
		<g id="Group_9" data-name="Group 9">
			<g id="Sylhet" class="cls-1">
				<path id="path2228" class="cls-2" d="M1062.82,725.55v-10l17.79-15L1073,688l-16.52-5-8.9-5,2.54-11.27,7.62-3.75,3.82-8.76-5.09-8.77-3.81-2.5-8.9,12.52-5.08-8.76,1.27-10-7.63-11.26-21.6-2.5-8.9-11.27L984,609.15V592.88l-5.08-11.27V567.86l6.35-6.25-12.71-3.76,2.54-5,12.72-1.26-6.35-7.51L984,520.31l2.54-6.26,20.34-3.75h14l17.79,3.75,34.31-6.26,31.77,16.27,5.08-6.25,15.26,5,16.52,10h11.43l5.09-5,8.9,2.5,19.06-10v10l6.35,1.25,3.82,7.51,19.06-5,7.62,1.25-2.54,7.51,10.17,8.76,1.27,11.26-6.35,7.51v3.76l14,13.77-1.28,5-3.81,1.25v3.76l7.63,3.76v10l-7.63,15v3.75l7.63,10-12.71,2.5-6.36,7.5,7.63,16.28-7.63,2.5,7.63,11.26L1219.14,703l-19.06-2.5-1.27,6.26,3.81,3.76-5.08,3.75-5.09-6.26h-10.16l-16.52-3.75-5.09,5,5.09,5-8.9,7.51L1139.07,708l-1.27-7.51-10.17-1.25-11.43,10-11.44,6.26,1.27,10-2.54,6.26-7.63-5-11.44,10-10.16,2.5-11.44-13.79Z" transform="translate(0 0)"/>
				<path id="path2230" class="cls-2" d="M1217.87,703l14-23.78L1223,668l7.63-1.26-6.36-17.52,8.9-7.5h10.17l-10.17-12.52,8.9-15,1.28-12.52-10.17-6.26,6.35-6.26-12.71-15v-5l5.09-5V551.59l-10.17-8.76,1.27-6.26-7.62-6.25,3.81-6.26H1223l11.44,3.75,7.63-8.76,38.12,1.25,22.88-3.75,8.9,7.51,7.62-10h20.34l14,5,11.43,13.77,5.09-1.26,5.08,3.76,5.08-2.5,8.9,5v6.26l6.36,1.26,15.25,7.5,10.17,2.5,3.81-3.75h5.08v10l14,3.76,12.71,7.51-2.54,7.51,5.08,11.26,11.44,3.76-5.08,6.25,11.44,1.25,5.08,7.52L1481,629.19h-5.11l-5.08-2.5-7.62,7.5-15.25-1.25-21.6-3.75-12.71,3.75-10.16,6.26,8.9,10-1.27,8.77-11.44,21.27h-8.9l-19.06,2.5-5.09-10h-6.35l-1.27,8.76-5.09,16.28-12.71,10-6.35,2.5L1319.55,713l-6.35-5-7.63,5-8.9-1.25-3.81-6.26-8.9,5-6.36-6.26L1270,713l-10.17,13.77-20.33,1.25-3.82-8.76L1223,718l5.09-7.51L1217.87,703Z" transform="translate(0 0)"/>
				<path id="path3203" class="cls-2" d="M1050.11,846.93l7.63-2.5-5.09-7.51-5.08-2.5,2.54-7.5,15.25,1.25,8.9-3.76v-8.76l-5.08-6.26,8.9-2.5-1.27-7.51-8.9-10,5.08-6.26,1.27-8.76-2.54-5-6.35-3.75-7.63,3.75-8.9-3.75,17.79-6.26,6.36-17.52,12.71-8.76,8.9-8.76,8.9,10,3.81-7.51L1103.5,718l8.9-12.52,16.52-5h6.35l8.9,7.5,10.17,15,6.35-10v-3.75l6.36-5,5.08,2.5,20.33-2.5,5.09,11.26,6.35-2.5-5.08-6.25v-6.28l16.52,2.5,15.25,3.76L1223,718l12.71,1.25,2.54,6.26-8.9,10-8.9-6.26-7.62-1.25-3.81,2.5L1216.6,743l7.63,5h-7.63l-8.9,6.26-2.54,20-2.54,36.29,7.62,21.27-7.62,21.27-5.09,3.76v3.75l6.36,5v5l-5.09,2.51v26.27l-16.52,10-17.79,2.5-11.44-8.76h-14l-12.7-6.26h-11.44l-2.54,7.51,7.62,10-2.54,8.76-6.35,8.76-3.82,12.52-19.06-5v-8.76l3.81-2.5-2.54-10L1079.34,897l12.71-3.76-10.16-5v-15l14,3.76v-7.51l-11.44-5,17.79-12.51v-7.51l-11.44-2.5-11.44,20-10.16-7.51-19.06-7.49Z" transform="translate(0 0)"/>
				<path id="path4174" class="cls-2" d="M1201.35,855.69l8.9-23.77-8.9-20,6.36-57.56,7.62-5,14,1.25-10.17-5-12.71-15,6.36-3.76,8.9,1.25,8.9,8.76,7.62-10,19.07,1.25,20.33-25,6.36,6.26,7.62-3.76,3.81,6.26,12.71,1.25,5.09-5,5.08,5,17.79-3.75,17.78-10,6.36-26.27h6.35l3.81,10,17.8-3.76h12.71l-2.55,8.77-3.81,8.76-8.9,16.27-3.81,22.52-19.06,12.52-2.54,22.52,6.35,8.76v7.51l-8.9,17.52h-16.52l-25.41-3.75-10.17,2.5,10.17,8.76,2.54,10-6.36,2.5-2.54-6.25-1.27-5-7.62-1.25-8.9,8.76,5.08,5v27.53l-6.35,7.5-2.55,25h-8.9L1272.51,872l-10.17-8.76,5.09-5-10.17,2.5h-11.44l-3.81-7.5-7.63,1.25h1.27v23.77l5.09,7.51-6.36,5-6.35-2.5-3.81-6.26-11.44-7.51Z" transform="translate(0 0)"/>
			</g>
		</g>
	</g>
</svg>