<svg height="512" viewBox="0 0 512 512" width="512" xmlns="http://www.w3.org/2000/svg"><g id="BULINE" fill="#e4dbdb"><path d="m476.57 386a256.08 256.08 0 0 1 -441.14 0 256.21 256.21 0 0 1 24.7-34.84q4.07-4.83 8.35-9.44a257.39 257.39 0 0 1 50.63-42.08q9.74-6.18 20.06-11.48a256.4 256.4 0 0 1 234.81.6q10.51 5.46 20.45 11.86a257.28 257.28 0 0 1 50 42.06q4.25 4.6 8.26 9.43a256.3 256.3 0 0 1 23.88 33.89z"/><circle cx="256" cy="256" r="256"/></g><g id="Icons"><rect fill="#f7bb38" height="159.55" rx="8.7" width="17.4" x="241.16" y="25.72"/><path d="m306.57 451.76h-113.41l-13.5-240.61h140.41z" fill="#3586cb"/><path d="m318.76 234.34h-41a65 65 0 0 0 -64.85 68.66l8.35 148.81h-28.1l-13.5-240.61h140.41z" fill="#366fca"/><path d="m324.32 190.75h-10.25v-15.2a10 10 0 0 0 -10-10h-108.41a10 10 0 0 0 -10 10v15.2h-10.25a6.25 6.25 0 0 0 -6.25 6.25v7.9a6.25 6.25 0 0 0 6.25 6.25h148.91a6.25 6.25 0 0 0 6.25-6.25v-7.9a6.25 6.25 0 0 0 -6.25-6.25z" fill="#fff"/><path d="m185.66 183.8h128.41v6.95h-128.41z" fill="#dbdbdb"/><path d="m353.22 205.17a4.46 4.46 0 0 0 -4.37-4.54l-12.85-.24a4.52 4.52 0 0 0 -4.54 4.38l-2.85 151.38a4.49 4.49 0 0 0 4.38 4.54l12.81.24a4.49 4.49 0 0 0 4.55-4.37l1.32-70.05z" fill="#dda12a"/><path d="m380.55 201.71a4.47 4.47 0 0 0 -4.38-4.54l-12.82-.24a4.52 4.52 0 0 0 -4.54 4.38l-2.81 151.38a4.49 4.49 0 0 0 4.38 4.54l12.81.24a4.49 4.49 0 0 0 4.55-4.37l1.26-70.05z" fill="#dda12a"/><path d="m318.56 235.63a4.47 4.47 0 0 0 -4.69-4.22l-12.8.68a4.42 4.42 0 0 0 -3.37 1.91 4.48 4.48 0 0 0 -.85 2.83l8 151.2a4.51 4.51 0 0 0 4.69 4.22l12.8-.68a4.49 4.49 0 0 0 4.22-4.69l-3.68-70z" fill="#c98f27"/><path d="m415 223.42a4.45 4.45 0 0 0 -4.21-4.69l-12.79-.73a4.49 4.49 0 0 0 -3.56 1.5 4.44 4.44 0 0 0 -1.14 2.72l-8.16 151.19a4.48 4.48 0 0 0 4.21 4.69l12.8.69a4.5 4.5 0 0 0 4.7-4.21l3.78-70z" fill="#c98f27"/><rect fill="#f7bb38" height="160.33" rx="4.46" transform="matrix(.988 -.154 .154 .988 -42.85 50.52)" width="21.74" x="293.12" y="221.11"/><path d="m315.6 305.18 10.81 69.22a4.46 4.46 0 0 1 -3.72 5.09l-12.67 2a4.45 4.45 0 0 1 -5.09-3.72l-23.37-149.61a4.46 4.46 0 0 1 3.72-5.09l2.56-.4 12.55 80.33a4.46 4.46 0 0 0 5.1 3.71z" fill="#dda12a"/><rect fill="#f6c752" height="160.33" rx="4.46" transform="matrix(.986 .168 -.168 .986 54.77 -64.44)" width="21.74" x="396.12" y="210.23"/><path d="m416.76 297.79-11.76 69.06a4.47 4.47 0 0 1 -5.15 3.64l-12.64-2.16a4.46 4.46 0 0 1 -3.64-5.15l25.43-149.24a4.45 4.45 0 0 1 5.14-3.64l2.56.43-13.7 80.18a4.46 4.46 0 0 0 3.64 5.15z" fill="#dda12a"/><rect fill="#f7bb38" height="160.33" rx="4.46" transform="matrix(1 -.028 .028 1 -7.96 9.31)" width="21.74" x="313.83" y="205.44"/><path d="m335.73 290.94 2 70a4.46 4.46 0 0 1 -4.33 4.59l-12.82.36a4.46 4.46 0 0 1 -4.58-4.33l-4.29-151.35a4.45 4.45 0 0 1 4.33-4.58l2.59-.08 2.3 81.32a4.47 4.47 0 0 0 4.59 4.33z" fill="#dda12a"/><path d="m396.45 218.11a4.45 4.45 0 0 0 -4.37-4.54l-12.82-.24a4.5 4.5 0 0 0 -4.54 4.37l-2.85 151.38a4.49 4.49 0 0 0 4.37 4.55l12.82.24a4.5 4.5 0 0 0 4.54-4.38l1.32-70.05z" fill="#f7bb38"/><rect fill="#f6c752" height="160.33" rx="4.46" transform="matrix(1 .019 -.019 1 6.14 -6.79)" width="21.74" x="352.95" y="242.44"/><path d="m374.58 328.45-1.32 70.05a4.46 4.46 0 0 1 -4.54 4.37l-12.82-.24a4.46 4.46 0 0 1 -4.38-4.54l2.85-151.38a4.47 4.47 0 0 1 4.55-4.38h2.59l-1.51 81.38a4.45 4.45 0 0 0 4.37 4.54z" fill="#f7bb38"/><path d="m364.68 227a4.46 4.46 0 0 0 -4-4.86l-12.78-1.14a4.43 4.43 0 0 0 -3.65 1.39 4.38 4.38 0 0 0 -1.25 2.61l-14.34 150.7a4.42 4.42 0 0 0 .85 3.05 4.48 4.48 0 0 0 3.17 1.82l12.76 1.21a4.49 4.49 0 0 0 4.86-4l6.7-69.78z" fill="#f7bb38"/><path d="m422.61 298.43c4 0 7.15 3.81 6.89 8.3l-7.5 127.4c-.45 9.88-7.69 17.63-16.46 17.63h-99.15c-8.76 0-16-7.75-16.45-17.63l-7.52-127.4c-.27-4.49 2.89-8.3 6.89-8.3h17.93c3.36 0 6.24 2.74 6.8 6.48l2.14 14.14c3.29 21.88 20.1 37.88 39.78 37.88s36.48-16 39.78-37.88l2.13-14.14c.57-3.74 3.44-6.48 6.81-6.48z" fill="#db1b1b"/><path d="m319.91 451.76h-13.51c-8.77 0-16-7.75-16.45-17.63l-7.53-127.4c-.27-4.49 2.9-8.3 6.89-8.3h13.51c-4 0-7.15 3.81-6.88 8.3l7.52 127.4c.45 9.87 7.68 17.63 16.45 17.63z" fill="#bc1919"/><circle cx="355.96" cy="408.72" fill="#fab3a7" r="28.2"/><path d="m164.75 277.61h41.57a73.16 73.16 0 0 1 73.16 73.16 0 0 0 0 1 0 0h-187.9a0 0 0 0 1 0 0 73.16 73.16 0 0 1 73.17-73.16z" fill="#e88032"/><path d="m91.58 409.36h187.9a0 0 0 0 1 0 0v17.75a24.65 24.65 0 0 1 -24.65 24.65h-138.6a24.65 24.65 0 0 1 -24.65-24.65v-17.75a0 0 0 0 1 0 0z" fill="#e88032"/><rect fill="#9e4830" height="42.4" rx="21.2" width="212.84" x="79.11" y="348"/><rect fill="#bc1b1b" height="20.84" rx="10.42" width="210.11" x="80.48" y="388.52"/><ellipse cx="262.79" cy="363.71" fill="#843523" rx="10.43" ry="7.33"/><ellipse cx="174.04" cy="361.87" fill="#843523" rx="10.43" ry="7.33"/><ellipse cx="221.37" cy="373.29" fill="#843523" rx="10.43" ry="7.33"/><g fill="#fff"><ellipse cx="231.8" cy="305.99" rx="8.2" ry="5.35" transform="matrix(.707 -.707 .707 .707 -148.47 253.53)"/><ellipse cx="210.95" cy="289.58" rx="5.35" ry="8.2"/><ellipse cx="152.06" cy="292.43" rx="8.2" ry="5.35"/><ellipse cx="254.59" cy="318.09" rx="8.2" ry="5.35"/><ellipse cx="188.89" cy="305.99" rx="5.35" ry="8.2" transform="matrix(.707 -.707 .707 .707 -161.04 223.19)"/><ellipse cx="129.16" cy="305.99" rx="5.35" ry="8.2" transform="matrix(.707 -.707 .707 .707 -178.53 180.95)"/></g><path d="m142.46 281.1a120.1 120.1 0 0 0 -10.85 19.9q-2.21 5.16-3.94 10.55-1.2 3.71-2.14 7.51a118.94 118.94 0 0 0 -3.53 28.94v2.78h-30.31c0-.31 0-.6 0-.91a73.16 73.16 0 0 1 50.76-68.77z" fill="#cc6e2f"/><path d="m181.36 451.76h-65a24.65 24.65 0 0 1 -24.64-24.65v-17.75h47.25a123.67 123.67 0 0 0 42.39 42.4z" fill="#cc6e2f"/><path d="m129.05 388.52c.21.63.45 1.26.7 1.88h-29.34a20.9 20.9 0 0 1 -8.74-1.88 21.2 21.2 0 0 1 -6.25-34.31 20.88 20.88 0 0 1 5.91-4.21l.37-.17a21.06 21.06 0 0 1 8.71-1.87h21.59v2.78a118.26 118.26 0 0 0 7.05 37.78z" fill="#843523"/><path d="m133 398.12a119.37 119.37 0 0 0 6 11.24h-48a10.42 10.42 0 1 1 0-20.84h38.05c.21.63.45 1.26.7 1.88.98 2.6 2.07 5.2 3.25 7.72z" fill="#a51919"/><path d="m131.61 301q-2.21 5.16-3.94 10.55a11.75 11.75 0 0 1 -2.2-1.74c-3.2-3.21-4.1-7.49-2-9.59 1.78-1.82 5.18-1.42 8.14.78z" fill="#e2e2e2"/><path d="m91.58 350.77s-15-28.76 12.58-22c0 0 16.34-26.49 35.5 3.94 0 0 19.16-29.83 33.81 1.71 0 0 15.22-32.14 32.13-3.4 0 0 19.15-19.16 29.86 6.76 0 0 12.4-27 29.87-3.36 0 0 29.43-25.91 14.15 16.34z" fill="#b0d46c"/><path d="m125.53 319a118.94 118.94 0 0 0 -3.53 29v2.78h-30.31s-.14-.26-.36-.74c-1.81-3.77-9.29-21 4-22.22a27.14 27.14 0 0 1 8.9 1s8.94-14.47 21.3-9.82z" fill="#a0c159"/><path d="m110.36 388.52 70.64 30.09a11.88 11.88 0 0 0 9.46-.06l68.16-30z" fill="#f7bb38"/><path d="m133 398.12-18.1-7.72-4.42-1.88h18.59c.21.63.45 1.26.7 1.88.96 2.6 2.05 5.2 3.23 7.72z" fill="#dda12a"/></g></svg>