<svg id="Layer_1" data-name="Layer 1" xmlns="http://www.w3.org/2000/svg" viewBox="0 0 2825.23 1257.89"><defs><style>.cls-1{fill:#ebf3fa;}.cls-2{fill:#f8fbff;}.cls-3{fill:#c4d9ed;}.cls-4{fill:#d5e7f7;}.cls-5{fill:#dceaf9;}.cls-6{opacity:0.8;}.cls-7{fill:#adc9e0;}.cls-8{fill:#abc6dd;}.cls-10,.cls-9{fill:#a8302d;}.cls-10,.cls-16,.cls-24{opacity:0.3;}.cls-11{fill:#661717;}.cls-12{fill:#c94c43;}.cls-13{fill:#631818;}.cls-14{fill:#822121;}.cls-15{fill:#a2c2dd;}.cls-16{fill:#8e2323;}.cls-17{fill:#8e2525;}.cls-18{fill:#d10513;}.cls-19{fill:#699ff0;}.cls-20{fill:#a8d29f;}.cls-21{fill:#283250;}.cls-22{fill:#ffb27d;}.cls-23{fill:#ffc197;}.cls-24{fill:#e2915a;}.cls-25,.cls-27{fill:#d3671e;}.cls-26{fill:#f99746;}.cls-27,.cls-28{opacity:0.4;}.cls-28{fill:#d86713;}.cls-29{fill:#fbecdb;}.cls-30{fill:#fce6d2;}.cls-31{fill:#f1a34f;}.cls-32{fill:#ddb997;}.cls-33{fill:#ca5f00;}</style></defs><title>tracking</title><path class="cls-1" d="M1990.29,1003.56s-134,.22-338.28.66c-598.24,1.09-1800.07,3-2009.72,2.06C-639,1005-833.65,277-307.61,326.47c571.34,53.58,153.45-274.24,490-328.59,366.26-59.25,440.1,168.6,703.12,75.48C1245-54,1440.29-9.63,1565.43,83.27c137.23,101.94,189.83,262.36,282,318.45q3.11,2,6.21,3.6c179.05,98,260.07,192.88,286.54,277.06C2199.18,869.17,1990.29,1003.56,1990.29,1003.56Z" transform="translate(637.79 245.23)"/><path class="cls-2" d="M1847.43,401.75,490.3,632.51,389,511,1565.41,83.28C1702.66,185.22,1755.31,345.6,1847.43,401.75Z" transform="translate(637.79 245.23)"/><path class="cls-2" d="M1138.87,115l-1343,432.76c39.56-28.84-51.42-185.19,2-237.07Z" transform="translate(637.79 245.23)"/><path class="cls-2" d="M1304,42a32.37,32.37,0,1,0,32.37,32.37A32.37,32.37,0,0,0,1304,42Z" transform="translate(637.79 245.23)"/><rect class="cls-3" x="1522.85" y="392.89" width="153.23" height="745.13"/><rect class="cls-4" x="1557.27" y="392.89" width="153.23" height="745.13"/><rect class="cls-3" x="919.51" y="147.46" width="153.19" height="43.06" transform="translate(2630.01 583.2) rotate(180)"/><rect class="cls-3" x="919.51" y="240.84" width="153.19" height="43.06" transform="translate(2630.01 769.98) rotate(180)"/><rect class="cls-3" x="919.51" y="334.23" width="153.19" height="43.06" transform="translate(2630.01 956.75) rotate(180)"/><rect class="cls-3" x="919.51" y="427.62" width="153.19" height="43.06" transform="translate(2630.01 1143.52) rotate(180)"/><rect class="cls-3" x="919.51" y="521" width="153.19" height="43.06" transform="translate(2630.01 1330.29) rotate(180)"/><rect class="cls-3" x="919.51" y="614.39" width="153.19" height="43.06" transform="translate(2630.01 1517.06) rotate(180)"/><rect class="cls-3" x="919.51" y="707.77" width="153.19" height="43.06" transform="translate(2630.01 1703.84) rotate(180)"/><rect class="cls-3" x="919.51" y="801.16" width="153.19" height="43.06" transform="translate(2630.01 1890.61) rotate(180)"/><rect class="cls-3" x="1767.8" y="498.32" width="153.23" height="639.69"/><rect class="cls-4" x="1802.21" y="498.32" width="153.23" height="639.69"/><rect class="cls-3" x="1164.46" y="252.92" width="153.19" height="36.96" transform="translate(3119.9 788.04) rotate(180)"/><rect class="cls-3" x="1164.46" y="333.09" width="153.19" height="36.96" transform="translate(3119.9 948.39) rotate(180)"/><rect class="cls-3" x="1164.46" y="413.27" width="153.19" height="36.96" transform="translate(3119.9 1108.73) rotate(180)"/><rect class="cls-3" x="1164.46" y="493.44" width="153.19" height="36.96" transform="translate(3119.9 1269.07) rotate(180)"/><rect class="cls-3" x="1164.46" y="573.61" width="153.19" height="36.96" transform="translate(3119.9 1429.41) rotate(180)"/><rect class="cls-3" x="1164.46" y="653.78" width="153.19" height="36.96" transform="translate(3119.9 1589.76) rotate(180)"/><rect class="cls-3" x="1164.46" y="733.95" width="153.19" height="36.96" transform="translate(3119.9 1750.1) rotate(180)"/><rect class="cls-3" x="1164.46" y="814.13" width="153.19" height="36.96" transform="translate(3119.9 1910.45) rotate(180)"/><rect class="cls-5" x="802.13" y="869.93" width="64.17" height="93.57" transform="translate(2306.22 2078.66) rotate(180)"/><path class="cls-4" d="M821.73,742.29v259.77H142.05l-4.63,0L-36,1000.39c-.15-.26-.32-.56-.53-.91s-.62-1.09-1-1.76L-38,997c-.52-.92-1.1-2-1.75-3.15-.79-1.44-1.68-3.09-2.66-4.92h0c-3.65-6.84-8.49-16.32-14-28.1Q-59.1,955-62,948.44c-.77-1.74-1.54-3.5-2.32-5.31h0c-.76-1.74-1.52-3.53-2.28-5.35l-.08-.18c-.52-1.25-1.06-2.51-1.59-3.81s-1.1-2.65-1.66-4c-2.84-7-5.74-14.38-8.63-22.19-.08-.2-.15-.42-.23-.62h0q-2.83-7.66-5.64-15.82c-1-3-2-6-3.06-9.1l-.18-.58c-.45-1.37-.89-2.74-1.34-4.12-.37-1.17-.74-2.33-1.1-3.5q-1.14-3.63-2.27-7.33c-1-3.16-1.92-6.38-2.86-9.63q-1.91-6.63-3.72-13.48l-1.08-4.12c-1.06-4.13-2.11-8.31-3.12-12.54-.33-1.36-.65-2.72-1-4.09-.21-.84-.4-1.69-.59-2.53q-2.3-10.05-4.34-20.47-2.24-11.48-4.1-23.38-1.71-11-3.06-22.31-1.26-10.66-2.14-21.61c-1.39-17.05-2-34.55-1.75-52.38a487.05,487.05,0,0,1,10.72-95.5c.25-1.18.51-2.35.77-3.54q2.6-11.56,5.84-23.18,2.46-8.87,5.34-17.73,2.1-6.42,4.39-12.86Q-87.82,512.6-81.42,498h3.63v-8c23.19-50,57.37-99.6,106-146.48L31,340.88H33.8v99.37h88V278.33h97V383.44h22.13V258h97V493.23H460.67V630.42h45.85V665H611.85V605.47h60.48V443.74H747V742.29Z" transform="translate(637.79 245.23)"/><rect class="cls-3" x="240.91" y="273.84" width="97.09" height="23.97" transform="translate(1216.7 816.87) rotate(180)"/><rect class="cls-3" x="240.91" y="318.87" width="97.09" height="23.97" transform="translate(1216.7 906.94) rotate(180)"/><rect class="cls-3" x="240.91" y="359.39" width="97.09" height="23.97" transform="translate(1216.7 987.97) rotate(180)"/><rect class="cls-3" x="121.77" y="359.39" width="97.09" height="23.97" transform="translate(978.42 987.97) rotate(180)"/><rect class="cls-3" x="121.77" y="318.87" width="97.09" height="23.97" transform="translate(978.42 906.94) rotate(180)"/><rect class="cls-3" x="121.77" y="278.41" width="97.09" height="23.97" transform="translate(978.42 826.03) rotate(180)"/><rect class="cls-3" x="121.74" y="398.67" width="216.26" height="23.97" transform="translate(1097.53 1066.54) rotate(180)"/><rect class="cls-3" x="121.74" y="437.95" width="216.26" height="23.97" transform="translate(1097.53 1145.11) rotate(180)"/><rect class="cls-3" x="671.63" y="443.76" width="75.36" height="37" transform="translate(2056.42 1169.76) rotate(180)"/><rect class="cls-3" x="671.63" y="498.79" width="75.36" height="37" transform="translate(2056.42 1279.82) rotate(180)"/><rect class="cls-3" x="671.63" y="553.82" width="75.36" height="37" transform="translate(2056.42 1389.87) rotate(180)"/><rect class="cls-3" x="671.63" y="611.5" width="75.36" height="37" transform="translate(2056.42 1505.24) rotate(180)"/><rect class="cls-3" x="671.63" y="667.4" width="75.36" height="37" transform="translate(2056.42 1617.04) rotate(180)"/><rect class="cls-3" x="671.63" y="723.3" width="75.36" height="37" transform="translate(2056.42 1728.83) rotate(180)"/><rect class="cls-3" x="671.63" y="781.78" width="75.36" height="37" transform="translate(2056.42 1845.79) rotate(180)"/><rect class="cls-3" x="121.74" y="476.35" width="216.26" height="15.22" transform="translate(1097.53 1213.14) rotate(180)"/><rect class="cls-3" x="1282.68" y="688.99" width="27.79" height="161.71"/><rect class="cls-3" x="1193.75" y="850.7" width="55.89" height="59.52"/><path class="cls-3" d="M121.77,278.41v24l0,96.28v41.58H102.48V280.32l2.6-1.91Z" transform="translate(637.79 245.23)"/><rect class="cls-3" x="866.86" y="503.18" width="11.84" height="125.4"/><g class="cls-6"><rect class="cls-3" x="424.17" y="516.83" width="16.45" height="23.19" transform="translate(1502.57 1302.08) rotate(180)"/><rect class="cls-3" x="393.4" y="516.83" width="16.45" height="23.19" transform="translate(1441.05 1302.08) rotate(180)"/><rect class="cls-3" x="363.33" y="516.83" width="16.45" height="23.19" transform="translate(1380.9 1302.08) rotate(180)"/><rect class="cls-3" x="334.82" y="516.83" width="16.45" height="23.19" transform="translate(1323.87 1302.08) rotate(180)"/><rect class="cls-3" x="305.75" y="516.83" width="16.45" height="23.19" transform="translate(1265.75 1302.08) rotate(180)"/><rect class="cls-3" x="276.36" y="516.83" width="16.45" height="23.19" transform="translate(1206.96 1302.08) rotate(180)"/><rect class="cls-3" x="245.6" y="516.83" width="16.45" height="23.19" transform="translate(1145.44 1302.08) rotate(180)"/><rect class="cls-3" x="215.53" y="516.83" width="16.45" height="23.19" transform="translate(1085.29 1302.08) rotate(180)"/><rect class="cls-3" x="187.01" y="516.83" width="16.45" height="23.19" transform="translate(1028.26 1302.08) rotate(180)"/><rect class="cls-3" x="157.95" y="516.83" width="16.45" height="23.19" transform="translate(970.14 1302.08) rotate(180)"/><rect class="cls-3" x="127.66" y="516.83" width="16.45" height="23.19" transform="translate(909.57 1302.08) rotate(180)"/><rect class="cls-3" x="96.9" y="516.83" width="16.45" height="23.19" transform="translate(848.05 1302.08) rotate(180)"/><rect class="cls-3" x="66.83" y="516.83" width="16.45" height="23.19" transform="translate(787.9 1302.08) rotate(180)"/><rect class="cls-3" x="38.32" y="516.83" width="16.45" height="23.19" transform="translate(730.87 1302.08) rotate(180)"/><rect class="cls-3" x="9.25" y="516.83" width="16.45" height="23.19" transform="translate(672.75 1302.08) rotate(180)"/><rect class="cls-3" x="-20.14" y="516.83" width="16.45" height="23.19" transform="translate(613.96 1302.08) rotate(180)"/><rect class="cls-3" x="-50.9" y="516.83" width="16.45" height="23.19" transform="translate(552.44 1302.08) rotate(180)"/><rect class="cls-3" x="-80.98" y="516.83" width="16.45" height="23.19" transform="translate(492.29 1302.08) rotate(180)"/><path class="cls-3" d="M-93,527.16V540h-4.39Q-95.33,533.6-93,527.16Z" transform="translate(637.79 245.23)"/><rect class="cls-3" x="424.17" y="557.75" width="16.45" height="23.19" transform="translate(1502.57 1383.91) rotate(180)"/><rect class="cls-3" x="393.4" y="557.75" width="16.45" height="23.19" transform="translate(1441.05 1383.91) rotate(180)"/><rect class="cls-3" x="363.33" y="557.75" width="16.45" height="23.19" transform="translate(1380.9 1383.91) rotate(180)"/><rect class="cls-3" x="334.82" y="557.75" width="16.45" height="23.19" transform="translate(1323.87 1383.91) rotate(180)"/><rect class="cls-3" x="305.75" y="557.75" width="16.45" height="23.19" transform="translate(1265.75 1383.91) rotate(180)"/><rect class="cls-3" x="276.36" y="557.75" width="16.45" height="23.19" transform="translate(1206.96 1383.91) rotate(180)"/><rect class="cls-3" x="245.6" y="557.75" width="16.45" height="23.19" transform="translate(1145.44 1383.91) rotate(180)"/><rect class="cls-3" x="215.53" y="557.75" width="16.45" height="23.19" transform="translate(1085.29 1383.91) rotate(180)"/><rect class="cls-3" x="187.01" y="557.75" width="16.45" height="23.19" transform="translate(1028.26 1383.91) rotate(180)"/><rect class="cls-3" x="157.95" y="557.75" width="16.45" height="23.19" transform="translate(970.14 1383.91) rotate(180)"/><rect class="cls-3" x="127.66" y="557.75" width="16.45" height="23.19" transform="translate(909.57 1383.91) rotate(180)"/><rect class="cls-3" x="96.9" y="557.75" width="16.45" height="23.19" transform="translate(848.05 1383.91) rotate(180)"/><rect class="cls-3" x="66.83" y="557.75" width="16.45" height="23.19" transform="translate(787.9 1383.91) rotate(180)"/><rect class="cls-3" x="38.32" y="557.75" width="16.45" height="23.19" transform="translate(730.87 1383.91) rotate(180)"/><rect class="cls-3" x="9.25" y="557.75" width="16.45" height="23.19" transform="translate(672.75 1383.91) rotate(180)"/><rect class="cls-3" x="-20.14" y="557.75" width="16.45" height="23.19" transform="translate(613.96 1383.91) rotate(180)"/><rect class="cls-3" x="-50.9" y="557.75" width="16.45" height="23.19" transform="translate(552.44 1383.91) rotate(180)"/><rect class="cls-3" x="-80.98" y="557.75" width="16.45" height="23.19" transform="translate(492.29 1383.91) rotate(180)"/><path class="cls-3" d="M-93,557.75v23.18h-15.57q2.6-11.56,5.84-23.18Z" transform="translate(637.79 245.23)"/><rect class="cls-3" x="424.17" y="598.04" width="16.45" height="23.19" transform="translate(1502.57 1464.49) rotate(180)"/><rect class="cls-3" x="393.4" y="598.04" width="16.45" height="23.19" transform="translate(1441.05 1464.49) rotate(180)"/><rect class="cls-3" x="363.33" y="598.04" width="16.45" height="23.19" transform="translate(1380.9 1464.49) rotate(180)"/><rect class="cls-3" x="334.82" y="598.04" width="16.45" height="23.19" transform="translate(1323.87 1464.49) rotate(180)"/><rect class="cls-3" x="305.75" y="598.04" width="16.45" height="23.19" transform="translate(1265.75 1464.49) rotate(180)"/><rect class="cls-3" x="276.36" y="598.04" width="16.45" height="23.19" transform="translate(1206.96 1464.49) rotate(180)"/><rect class="cls-3" x="245.6" y="598.04" width="16.45" height="23.19" transform="translate(1145.44 1464.49) rotate(180)"/><rect class="cls-3" x="215.53" y="598.04" width="16.45" height="23.19" transform="translate(1085.29 1464.49) rotate(180)"/><rect class="cls-3" x="187.01" y="598.04" width="16.45" height="23.19" transform="translate(1028.26 1464.49) rotate(180)"/><rect class="cls-3" x="157.95" y="598.04" width="16.45" height="23.19" transform="translate(970.14 1464.49) rotate(180)"/><rect class="cls-3" x="127.66" y="598.04" width="16.45" height="23.19" transform="translate(909.57 1464.49) rotate(180)"/><rect class="cls-3" x="96.9" y="598.04" width="16.45" height="23.19" transform="translate(848.05 1464.49) rotate(180)"/><rect class="cls-3" x="66.83" y="598.04" width="16.45" height="23.19" transform="translate(787.9 1464.49) rotate(180)"/><rect class="cls-3" x="38.32" y="598.04" width="16.45" height="23.19" transform="translate(730.87 1464.49) rotate(180)"/><rect class="cls-3" x="9.25" y="598.04" width="16.45" height="23.19" transform="translate(672.75 1464.49) rotate(180)"/><rect class="cls-3" x="-20.14" y="598.04" width="16.45" height="23.19" transform="translate(613.96 1464.49) rotate(180)"/><rect class="cls-3" x="-50.9" y="598.04" width="16.45" height="23.19" transform="translate(552.44 1464.49) rotate(180)"/><rect class="cls-3" x="-80.98" y="598.04" width="16.45" height="23.19" transform="translate(492.29 1464.49) rotate(180)"/><rect class="cls-3" x="-109.49" y="598.04" width="16.45" height="23.19" transform="translate(435.26 1464.49) rotate(180)"/><rect class="cls-3" x="424.17" y="640.84" width="16.45" height="23.19" transform="translate(1502.57 1550.11) rotate(180)"/><rect class="cls-3" x="393.4" y="640.84" width="16.45" height="23.19" transform="translate(1441.05 1550.11) rotate(180)"/><rect class="cls-3" x="363.33" y="640.84" width="16.45" height="23.19" transform="translate(1380.9 1550.11) rotate(180)"/><rect class="cls-3" x="334.82" y="640.84" width="16.45" height="23.19" transform="translate(1323.87 1550.11) rotate(180)"/><rect class="cls-3" x="305.75" y="640.84" width="16.45" height="23.19" transform="translate(1265.75 1550.11) rotate(180)"/><rect class="cls-3" x="276.36" y="640.84" width="16.45" height="23.19" transform="translate(1206.96 1550.11) rotate(180)"/><rect class="cls-3" x="245.6" y="640.84" width="16.45" height="23.19" transform="translate(1145.44 1550.11) rotate(180)"/><rect class="cls-3" x="215.53" y="640.84" width="16.45" height="23.19" transform="translate(1085.29 1550.11) rotate(180)"/><rect class="cls-3" x="187.01" y="640.84" width="16.45" height="23.19" transform="translate(1028.26 1550.11) rotate(180)"/><rect class="cls-3" x="157.95" y="640.84" width="16.45" height="23.19" transform="translate(970.14 1550.11) rotate(180)"/><rect class="cls-3" x="127.66" y="640.84" width="16.45" height="23.19" transform="translate(909.57 1550.11) rotate(180)"/><rect class="cls-3" x="96.9" y="640.84" width="16.45" height="23.19" transform="translate(848.05 1550.11) rotate(180)"/><rect class="cls-3" x="66.83" y="640.84" width="16.45" height="23.19" transform="translate(787.9 1550.11) rotate(180)"/><rect class="cls-3" x="38.32" y="640.84" width="16.45" height="23.19" transform="translate(730.87 1550.11) rotate(180)"/><rect class="cls-3" x="9.25" y="640.84" width="16.45" height="23.19" transform="translate(672.75 1550.11) rotate(180)"/><rect class="cls-3" x="-20.14" y="640.84" width="16.45" height="23.19" transform="translate(613.96 1550.11) rotate(180)"/><rect class="cls-3" x="-50.9" y="640.84" width="16.45" height="23.19" transform="translate(552.44 1550.11) rotate(180)"/><rect class="cls-3" x="-80.98" y="640.84" width="16.45" height="23.19" transform="translate(492.29 1550.11) rotate(180)"/><rect class="cls-3" x="-109.49" y="640.84" width="16.45" height="23.19" transform="translate(435.26 1550.11) rotate(180)"/><rect class="cls-3" x="424.17" y="681.76" width="16.45" height="23.19" transform="translate(1502.57 1631.94) rotate(180)"/><rect class="cls-3" x="393.4" y="681.76" width="16.45" height="23.19" transform="translate(1441.05 1631.94) rotate(180)"/><rect class="cls-3" x="363.33" y="681.76" width="16.45" height="23.19" transform="translate(1380.9 1631.94) rotate(180)"/><rect class="cls-3" x="334.82" y="681.76" width="16.45" height="23.19" transform="translate(1323.87 1631.94) rotate(180)"/><rect class="cls-3" x="305.75" y="681.76" width="16.45" height="23.19" transform="translate(1265.75 1631.94) rotate(180)"/><rect class="cls-3" x="276.36" y="681.76" width="16.45" height="23.19" transform="translate(1206.96 1631.94) rotate(180)"/><rect class="cls-3" x="245.6" y="681.76" width="16.45" height="23.19" transform="translate(1145.44 1631.94) rotate(180)"/><rect class="cls-3" x="215.53" y="681.76" width="16.45" height="23.19" transform="translate(1085.29 1631.94) rotate(180)"/><rect class="cls-3" x="187.01" y="681.76" width="16.45" height="23.19" transform="translate(1028.26 1631.94) rotate(180)"/><rect class="cls-3" x="157.95" y="681.76" width="16.45" height="23.19" transform="translate(970.14 1631.94) rotate(180)"/><rect class="cls-3" x="127.66" y="681.76" width="16.45" height="23.19" transform="translate(909.57 1631.94) rotate(180)"/><rect class="cls-3" x="96.9" y="681.76" width="16.45" height="23.19" transform="translate(848.05 1631.94) rotate(180)"/><rect class="cls-3" x="66.83" y="681.76" width="16.45" height="23.19" transform="translate(787.9 1631.94) rotate(180)"/><rect class="cls-3" x="38.32" y="681.76" width="16.45" height="23.19" transform="translate(730.87 1631.94) rotate(180)"/><rect class="cls-3" x="9.25" y="681.76" width="16.45" height="23.19" transform="translate(672.75 1631.94) rotate(180)"/><rect class="cls-3" x="-20.14" y="681.76" width="16.45" height="23.19" transform="translate(613.96 1631.94) rotate(180)"/><rect class="cls-3" x="-50.9" y="681.76" width="16.45" height="23.19" transform="translate(552.44 1631.94) rotate(180)"/><rect class="cls-3" x="-80.98" y="681.76" width="16.45" height="23.19" transform="translate(492.29 1631.94) rotate(180)"/><rect class="cls-3" x="-109.49" y="681.76" width="16.45" height="23.19" transform="translate(435.26 1631.94) rotate(180)"/><rect class="cls-3" x="424.17" y="722.05" width="16.45" height="23.19" transform="translate(1502.57 1712.51) rotate(180)"/><rect class="cls-3" x="393.4" y="722.05" width="16.45" height="23.19" transform="translate(1441.05 1712.51) rotate(180)"/><rect class="cls-3" x="363.33" y="722.05" width="16.45" height="23.19" transform="translate(1380.9 1712.51) rotate(180)"/><rect class="cls-3" x="334.82" y="722.05" width="16.45" height="23.19" transform="translate(1323.87 1712.51) rotate(180)"/><rect class="cls-3" x="305.75" y="722.05" width="16.45" height="23.19" transform="translate(1265.75 1712.51) rotate(180)"/><rect class="cls-3" x="276.36" y="722.05" width="16.45" height="23.19" transform="translate(1206.96 1712.51) rotate(180)"/><rect class="cls-3" x="245.6" y="722.05" width="16.45" height="23.19" transform="translate(1145.44 1712.51) rotate(180)"/><rect class="cls-3" x="215.53" y="722.05" width="16.45" height="23.19" transform="translate(1085.29 1712.51) rotate(180)"/><rect class="cls-3" x="187.01" y="722.05" width="16.45" height="23.19" transform="translate(1028.26 1712.51) rotate(180)"/><rect class="cls-3" x="157.95" y="722.05" width="16.45" height="23.19" transform="translate(970.14 1712.51) rotate(180)"/><rect class="cls-3" x="127.66" y="722.05" width="16.45" height="23.19" transform="translate(909.57 1712.51) rotate(180)"/><rect class="cls-3" x="96.9" y="722.05" width="16.45" height="23.19" transform="translate(848.05 1712.51) rotate(180)"/><rect class="cls-3" x="66.83" y="722.05" width="16.45" height="23.19" transform="translate(787.9 1712.51) rotate(180)"/><rect class="cls-3" x="38.32" y="722.05" width="16.45" height="23.19" transform="translate(730.87 1712.51) rotate(180)"/><rect class="cls-3" x="9.25" y="722.05" width="16.45" height="23.19" transform="translate(672.75 1712.51) rotate(180)"/><rect class="cls-3" x="-20.14" y="722.05" width="16.45" height="23.19" transform="translate(613.96 1712.51) rotate(180)"/><rect class="cls-3" x="-50.9" y="722.05" width="16.45" height="23.19" transform="translate(552.44 1712.51) rotate(180)"/><rect class="cls-3" x="-80.98" y="722.05" width="16.45" height="23.19" transform="translate(492.29 1712.51) rotate(180)"/><rect class="cls-3" x="-109.49" y="722.05" width="16.45" height="23.19" transform="translate(435.26 1712.51) rotate(180)"/></g><rect class="cls-3" x="174.68" y="794.69" width="381.28" height="205.69" transform="translate(1368.43 2040.31) rotate(180)"/><rect class="cls-3" x="463.8" y="897.54" width="381.28" height="102.85" transform="translate(1946.66 2143.15) rotate(180)"/><path class="cls-3" d="M144.11,826.74v173.65H-36c-.15-.26-.32-.56-.53-.91s-.62-1.09-1-1.76L-38,997c-.52-.92-1.1-2-1.75-3.15-.79-1.44-1.68-3.09-2.66-4.92h0c-3.65-6.84-8.49-16.32-14-28.1Q-59.1,955-62,948.44c-.77-1.74-1.54-3.5-2.32-5.31h0c-.76-1.74-1.52-3.53-2.28-5.35l-.08-.18c-.52-1.25-1.06-2.51-1.59-3.81s-1.1-2.65-1.66-4c-2.84-7-5.74-14.38-8.63-22.19-.08-.2-.15-.42-.23-.62h0q-2.83-7.66-5.64-15.82c-1-3-2-6-3.06-9.1l-.18-.58c-.45-1.37-.89-2.74-1.34-4.12-.37-1.17-.74-2.33-1.1-3.5q-1.14-3.63-2.27-7.33c-1-3.16-1.92-6.38-2.86-9.63q-1.91-6.63-3.72-13.48l-1.08-4.12c-1.06-4.13-2.11-8.31-3.12-12.54Z" transform="translate(637.79 245.23)"/><rect class="cls-4" x="459.45" y="818.78" width="71.04" height="38.1" transform="translate(1627.73 1920.89) rotate(180)"/><rect class="cls-4" x="368.26" y="818.78" width="71.04" height="38.1" transform="translate(1445.36 1920.89) rotate(180)"/><rect class="cls-4" x="278.81" y="818.78" width="71.04" height="38.1" transform="translate(1266.45 1920.89) rotate(180)"/><rect class="cls-4" x="191.08" y="818.78" width="71.04" height="38.1" transform="translate(1090.99 1920.89) rotate(180)"/><rect class="cls-7" x="142.05" y="794.69" width="36.6" height="207.46" transform="translate(958.48 2042.08) rotate(180)"/><rect class="cls-5" x="730.01" y="427.66" width="1.98" height="16.1" transform="translate(2099.79 1116.65) rotate(180)"/><rect class="cls-5" x="658.81" y="427.66" width="1.98" height="16.1" transform="translate(1957.38 1116.65) rotate(180)"/><path class="cls-4" d="M-116.21,754q1.33,11.31,3.06,22.31,1.84,11.9,4.1,23.38,2,10.43,4.34,20.47c.19.84.38,1.69.59,2.53.31,1.37.63,2.73,1,4.09,1,4.23,2.06,8.41,3.12,12.54L-99,843.4q1.81,6.86,3.72,13.48c.94,3.25,1.89,6.47,2.86,9.63q1.13,3.71,2.27,7.33c.36,1.17.73,2.33,1.1,3.5.45,1.38.89,2.75,1.34,4.12l.18.58c1,3.08,2,6.11,3.06,9.1q2.81,8.16,5.64,15.82h0c.08.2.15.42.23.62,2.89,7.81,5.79,15.22,8.63,22.19.56,1.35,1.11,2.69,1.66,4s1.07,2.56,1.59,3.81l.08.18V754Z" transform="translate(637.79 245.23)"/><path class="cls-4" d="M-66.6,822.65V937.77l-.08-.18c-.52-1.25-1.06-2.51-1.59-3.81s-1.1-2.65-1.66-4c-2.84-7-5.74-14.38-8.63-22.19-.08-.2-.15-.42-.23-.62h0q-2.83-7.66-5.64-15.82c-1-3-2-6-3.06-9.1l-.18-.58c-.45-1.37-.89-2.74-1.34-4.12-.37-1.17-.74-2.33-1.1-3.5q-1.14-3.63-2.27-7.33c-1-3.16-1.92-6.38-2.86-9.63q-1.91-6.63-3.72-13.48l-1.08-4.12c-1.06-4.13-2.11-8.31-3.12-12.54-.33-1.36-.65-2.72-1-4.09Z" transform="translate(637.79 245.23)"/><path class="cls-3" d="M-66.6,799.65v57.23H-95.24q-1.91-6.63-3.72-13.48l-1.08-4.12c-1.06-4.13-2.11-8.31-3.12-12.54-.33-1.36-.65-2.72-1-4.09-.21-.84-.4-1.69-.59-2.53q-2.3-10.05-4.34-20.47Z" transform="translate(637.79 245.23)"/><path class="cls-3" d="M-84.43,873.84v17.3c-1-3-2-6-3.06-9.1l-.18-.58c-.45-1.37-.89-2.74-1.34-4.12-.37-1.17-.74-2.33-1.1-3.5Z" transform="translate(637.79 245.23)"/><rect class="cls-7" x="-97.87" y="815.73" width="11.3" height="19.55" transform="translate(453.34 1896.24) rotate(180)"/><rect class="cls-4" x="772.9" y="822.66" width="261.79" height="176.06" transform="translate(2445.38 2066.6) rotate(180)"/><rect class="cls-3" x="772.9" y="799.65" width="261.79" height="57.22" transform="translate(2445.38 1901.76) rotate(180)"/><rect class="cls-3" x="1003.42" y="873.83" width="13.45" height="18.95" transform="translate(2658.08 2011.85) rotate(180)"/><rect class="cls-3" x="978.28" y="873.83" width="13.45" height="18.95" transform="translate(2607.79 2011.85) rotate(180)"/><rect class="cls-3" x="953.7" y="873.83" width="13.45" height="18.95" transform="translate(2558.63 2011.85) rotate(180)"/><rect class="cls-3" x="930.39" y="873.83" width="13.44" height="18.95" transform="translate(2512.02 2011.85) rotate(180)"/><rect class="cls-3" x="906.64" y="873.83" width="13.45" height="18.95" transform="translate(2464.52 2011.85) rotate(180)"/><rect class="cls-3" x="882.62" y="873.83" width="13.45" height="18.95" transform="translate(2416.47 2011.85) rotate(180)"/><rect class="cls-3" x="857.47" y="873.83" width="13.45" height="18.95" transform="translate(2366.18 2011.85) rotate(180)"/><rect class="cls-3" x="832.89" y="873.83" width="13.45" height="18.95" transform="translate(2317.02 2011.85) rotate(180)"/><rect class="cls-3" x="809.59" y="873.83" width="13.45" height="18.95" transform="translate(2270.41 2011.85) rotate(180)"/><rect class="cls-3" x="785.84" y="873.83" width="13.44" height="18.95" transform="translate(2222.91 2011.85) rotate(180)"/><rect class="cls-3" x="1003.42" y="907.28" width="13.45" height="18.95" transform="translate(2658.08 2078.73) rotate(180)"/><rect class="cls-3" x="978.28" y="907.28" width="13.45" height="18.95" transform="translate(2607.79 2078.73) rotate(180)"/><rect class="cls-3" x="953.7" y="907.28" width="13.45" height="18.95" transform="translate(2558.63 2078.73) rotate(180)"/><rect class="cls-3" x="930.39" y="907.28" width="13.44" height="18.95" transform="translate(2512.02 2078.73) rotate(180)"/><rect class="cls-3" x="906.64" y="907.28" width="13.45" height="18.95" transform="translate(2464.52 2078.73) rotate(180)"/><rect class="cls-3" x="882.62" y="907.28" width="13.45" height="18.95" transform="translate(2416.47 2078.73) rotate(180)"/><rect class="cls-3" x="857.47" y="907.28" width="13.45" height="18.95" transform="translate(2366.18 2078.73) rotate(180)"/><rect class="cls-3" x="832.89" y="907.28" width="13.45" height="18.95" transform="translate(2317.02 2078.73) rotate(180)"/><rect class="cls-3" x="809.59" y="907.28" width="13.45" height="18.95" transform="translate(2270.41 2078.73) rotate(180)"/><rect class="cls-3" x="785.84" y="907.28" width="13.44" height="18.95" transform="translate(2222.91 2078.73) rotate(180)"/><rect class="cls-3" x="1003.42" y="940.21" width="13.45" height="18.95" transform="translate(2658.08 2144.59) rotate(180)"/><rect class="cls-3" x="978.28" y="940.21" width="13.45" height="18.95" transform="translate(2607.79 2144.59) rotate(180)"/><rect class="cls-3" x="953.7" y="940.21" width="13.45" height="18.95" transform="translate(2558.63 2144.59) rotate(180)"/><rect class="cls-3" x="930.39" y="940.21" width="13.44" height="18.95" transform="translate(2512.02 2144.59) rotate(180)"/><rect class="cls-3" x="906.64" y="940.21" width="13.45" height="18.95" transform="translate(2464.52 2144.59) rotate(180)"/><rect class="cls-3" x="882.62" y="940.21" width="13.45" height="18.95" transform="translate(2416.47 2144.59) rotate(180)"/><rect class="cls-3" x="857.47" y="940.21" width="13.45" height="18.95" transform="translate(2366.18 2144.59) rotate(180)"/><rect class="cls-3" x="832.89" y="940.21" width="13.45" height="18.95" transform="translate(2317.02 2144.59) rotate(180)"/><rect class="cls-3" x="809.59" y="940.21" width="13.45" height="18.95" transform="translate(2270.41 2144.59) rotate(180)"/><rect class="cls-3" x="785.84" y="940.21" width="13.44" height="18.95" transform="translate(2222.91 2144.59) rotate(180)"/><rect class="cls-7" x="1003.42" y="815.73" width="11.3" height="19.55" transform="translate(2655.93 1896.24) rotate(180)"/><rect class="cls-7" x="891.25" y="815.73" width="11.3" height="19.55" transform="translate(2431.6 1896.24) rotate(180)"/><rect class="cls-7" x="802.03" y="815.73" width="11.3" height="19.55" transform="translate(2253.14 1896.24) rotate(180)"/><rect class="cls-4" x="1051.13" y="822.66" width="261.79" height="176.06" transform="translate(3001.85 2066.6) rotate(180)"/><rect class="cls-3" x="1051.13" y="799.65" width="261.79" height="57.22" transform="translate(3001.85 1901.76) rotate(180)"/><rect class="cls-3" x="1281.65" y="873.83" width="13.45" height="18.95" transform="translate(3214.54 2011.85) rotate(180)"/><rect class="cls-3" x="1256.51" y="873.83" width="13.45" height="18.95" transform="translate(3164.26 2011.85) rotate(180)"/><rect class="cls-3" x="1231.93" y="873.83" width="13.44" height="18.95" transform="translate(3115.1 2011.85) rotate(180)"/><rect class="cls-3" x="1208.63" y="873.83" width="13.44" height="18.95" transform="translate(3068.49 2011.85) rotate(180)"/><rect class="cls-3" x="1184.87" y="873.83" width="13.45" height="18.95" transform="translate(3020.98 2011.85) rotate(180)"/><rect class="cls-3" x="1160.85" y="873.83" width="13.45" height="18.95" transform="translate(2972.93 2011.85) rotate(180)"/><rect class="cls-3" x="1135.71" y="873.83" width="13.44" height="18.95" transform="translate(2922.65 2011.85) rotate(180)"/><rect class="cls-3" x="1111.13" y="873.83" width="13.44" height="18.95" transform="translate(2873.49 2011.85) rotate(180)"/><rect class="cls-3" x="1087.82" y="873.83" width="13.45" height="18.95" transform="translate(2826.88 2011.85) rotate(180)"/><rect class="cls-3" x="1064.07" y="873.83" width="13.45" height="18.95" transform="translate(2779.37 2011.85) rotate(180)"/><rect class="cls-3" x="1281.65" y="907.28" width="13.45" height="18.95" transform="translate(3214.54 2078.73) rotate(180)"/><rect class="cls-3" x="1256.51" y="907.28" width="13.45" height="18.95" transform="translate(3164.26 2078.73) rotate(180)"/><rect class="cls-3" x="1231.93" y="907.28" width="13.44" height="18.95" transform="translate(3115.1 2078.73) rotate(180)"/><rect class="cls-3" x="1208.63" y="907.28" width="13.44" height="18.95" transform="translate(3068.49 2078.73) rotate(180)"/><rect class="cls-3" x="1184.87" y="907.28" width="13.45" height="18.95" transform="translate(3020.98 2078.73) rotate(180)"/><rect class="cls-3" x="1160.85" y="907.28" width="13.45" height="18.95" transform="translate(2972.93 2078.73) rotate(180)"/><rect class="cls-3" x="1135.71" y="907.28" width="13.44" height="18.95" transform="translate(2922.65 2078.73) rotate(180)"/><rect class="cls-3" x="1111.13" y="907.28" width="13.44" height="18.95" transform="translate(2873.49 2078.73) rotate(180)"/><rect class="cls-3" x="1087.82" y="907.28" width="13.45" height="18.95" transform="translate(2826.88 2078.73) rotate(180)"/><rect class="cls-3" x="1064.07" y="907.28" width="13.45" height="18.95" transform="translate(2779.37 2078.73) rotate(180)"/><rect class="cls-3" x="1281.65" y="940.21" width="13.45" height="18.95" transform="translate(3214.54 2144.59) rotate(180)"/><rect class="cls-3" x="1256.51" y="940.21" width="13.45" height="18.95" transform="translate(3164.26 2144.59) rotate(180)"/><rect class="cls-3" x="1231.93" y="940.21" width="13.44" height="18.95" transform="translate(3115.1 2144.59) rotate(180)"/><rect class="cls-3" x="1208.63" y="940.21" width="13.44" height="18.95" transform="translate(3068.49 2144.59) rotate(180)"/><rect class="cls-3" x="1184.87" y="940.21" width="13.45" height="18.95" transform="translate(3020.98 2144.59) rotate(180)"/><rect class="cls-3" x="1160.85" y="940.21" width="13.45" height="18.95" transform="translate(2972.93 2144.59) rotate(180)"/><rect class="cls-3" x="1135.71" y="940.21" width="13.44" height="18.95" transform="translate(2922.65 2144.59) rotate(180)"/><rect class="cls-3" x="1111.13" y="940.21" width="13.44" height="18.95" transform="translate(2873.49 2144.59) rotate(180)"/><rect class="cls-3" x="1087.82" y="940.21" width="13.45" height="18.95" transform="translate(2826.88 2144.59) rotate(180)"/><rect class="cls-3" x="1064.07" y="940.21" width="13.45" height="18.95" transform="translate(2779.37 2144.59) rotate(180)"/><rect class="cls-7" x="1281.65" y="815.73" width="11.3" height="19.55" transform="translate(3212.4 1896.24) rotate(180)"/><rect class="cls-7" x="1169.49" y="815.73" width="11.3" height="19.55" transform="translate(2988.06 1896.24) rotate(180)"/><rect class="cls-7" x="1080.26" y="815.73" width="11.3" height="19.55" transform="translate(2809.61 1896.24) rotate(180)"/><rect class="cls-4" x="1599.09" y="822.66" width="261.79" height="176.06" transform="translate(4097.76 2066.6) rotate(180)"/><rect class="cls-3" x="1599.09" y="799.65" width="261.79" height="57.22" transform="translate(4097.76 1901.76) rotate(180)"/><rect class="cls-3" x="1829.61" y="873.83" width="13.44" height="18.95" transform="translate(4310.45 2011.85) rotate(180)"/><rect class="cls-3" x="1804.46" y="873.83" width="13.45" height="18.95" transform="translate(4260.17 2011.85) rotate(180)"/><rect class="cls-3" x="1779.89" y="873.83" width="13.44" height="18.95" transform="translate(4211.01 2011.85) rotate(180)"/><rect class="cls-3" x="1756.58" y="873.83" width="13.45" height="18.95" transform="translate(4164.4 2011.85) rotate(180)"/><rect class="cls-3" x="1732.83" y="873.83" width="13.45" height="18.95" transform="translate(4116.89 2011.85) rotate(180)"/><rect class="cls-3" x="1708.8" y="873.83" width="13.45" height="18.95" transform="translate(4068.84 2011.85) rotate(180)"/><rect class="cls-3" x="1683.66" y="873.83" width="13.45" height="18.95" transform="translate(4018.56 2011.85) rotate(180)"/><rect class="cls-3" x="1659.08" y="873.83" width="13.45" height="18.95" transform="translate(3969.4 2011.85) rotate(180)"/><rect class="cls-3" x="1635.78" y="873.83" width="13.45" height="18.95" transform="translate(3922.79 2011.85) rotate(180)"/><rect class="cls-3" x="1612.02" y="873.83" width="13.45" height="18.95" transform="translate(3875.28 2011.85) rotate(180)"/><rect class="cls-3" x="1829.61" y="907.28" width="13.44" height="18.95" transform="translate(4310.45 2078.73) rotate(180)"/><rect class="cls-3" x="1804.46" y="907.28" width="13.45" height="18.95" transform="translate(4260.17 2078.73) rotate(180)"/><rect class="cls-3" x="1779.89" y="907.28" width="13.44" height="18.95" transform="translate(4211.01 2078.73) rotate(180)"/><rect class="cls-3" x="1756.58" y="907.28" width="13.45" height="18.95" transform="translate(4164.4 2078.73) rotate(180)"/><rect class="cls-3" x="1732.83" y="907.28" width="13.45" height="18.95" transform="translate(4116.89 2078.73) rotate(180)"/><rect class="cls-3" x="1708.8" y="907.28" width="13.45" height="18.95" transform="translate(4068.84 2078.73) rotate(180)"/><rect class="cls-3" x="1683.66" y="907.28" width="13.45" height="18.95" transform="translate(4018.56 2078.73) rotate(180)"/><rect class="cls-3" x="1659.08" y="907.28" width="13.45" height="18.95" transform="translate(3969.4 2078.73) rotate(180)"/><rect class="cls-3" x="1635.78" y="907.28" width="13.45" height="18.95" transform="translate(3922.79 2078.73) rotate(180)"/><rect class="cls-3" x="1612.02" y="907.28" width="13.45" height="18.95" transform="translate(3875.28 2078.73) rotate(180)"/><rect class="cls-3" x="1829.61" y="940.21" width="13.44" height="18.95" transform="translate(4310.45 2144.59) rotate(180)"/><rect class="cls-3" x="1804.46" y="940.21" width="13.45" height="18.95" transform="translate(4260.17 2144.59) rotate(180)"/><rect class="cls-3" x="1779.89" y="940.21" width="13.44" height="18.95" transform="translate(4211.01 2144.59) rotate(180)"/><rect class="cls-3" x="1756.58" y="940.21" width="13.45" height="18.95" transform="translate(4164.4 2144.59) rotate(180)"/><rect class="cls-3" x="1732.83" y="940.21" width="13.45" height="18.95" transform="translate(4116.89 2144.59) rotate(180)"/><rect class="cls-3" x="1708.8" y="940.21" width="13.45" height="18.95" transform="translate(4068.84 2144.59) rotate(180)"/><rect class="cls-3" x="1683.66" y="940.21" width="13.45" height="18.95" transform="translate(4018.56 2144.59) rotate(180)"/><rect class="cls-3" x="1659.08" y="940.21" width="13.45" height="18.95" transform="translate(3969.4 2144.59) rotate(180)"/><rect class="cls-3" x="1635.78" y="940.21" width="13.45" height="18.95" transform="translate(3922.79 2144.59) rotate(180)"/><rect class="cls-3" x="1612.02" y="940.21" width="13.45" height="18.95" transform="translate(3875.28 2144.59) rotate(180)"/><rect class="cls-7" x="1829.61" y="815.73" width="11.3" height="19.55" transform="translate(4308.3 1896.24) rotate(180)"/><rect class="cls-7" x="1717.44" y="815.73" width="11.3" height="19.55" transform="translate(4083.97 1896.24) rotate(180)"/><rect class="cls-7" x="1628.21" y="815.73" width="11.3" height="19.55" transform="translate(3905.51 1896.24) rotate(180)"/><path class="cls-8" d="M1571.22,960.38c0-1,0-2.09,0-3.14,0-6.39,0-12.91-.06-18.32-.06-8.69-3.05-16.65-6.4-22.83a65,65,0,0,0-9.29-13l-10.25-8.28-34.43-27.7-.2-.43a10.82,10.82,0,0,0,2-2.74,11.11,11.11,0,0,0,1.17-5V839.1A11.15,11.15,0,0,0,1502.62,828h-3.56a10.84,10.84,0,0,0-5.66,1.6l-23.64-51.05a124.14,124.14,0,0,0-5.45-18.55c-6.44-17-24.74-28.6-45.54-28.6h-178v.3H1006.11V984.35h29.19c2.58,13.06,10.48,22.64,20,22.64h13.15c9.46,0,17.37-9.58,19.95-22.64h60.86c2.58,13.06,10.49,22.64,20,22.64h13.15c9.47,0,17.37-9.58,20-22.64h136.68a47.26,47.26,0,0,1-.66-8.07c0-.2.06-.38.06-.58l.6,8.65h6.26c2.58,13.06,10.49,22.64,20,22.64h13.15c9.47,0,17.37-9.58,20-22.64h98.13c2.58,13.06,10.49,22.64,19.95,22.64h13.15c9.52,0,17.46-9.68,20-22.86A23.83,23.83,0,0,0,1571.22,960.38Z" transform="translate(637.79 245.23)"/><path class="cls-9" d="M1221.78,559.53v52.31a29.28,29.28,0,0,1-29.3,29.3h-9.38a29.39,29.39,0,0,1-29.3-29.3V559.53a28.88,28.88,0,0,1,4.25-15v-.07a29.39,29.39,0,0,1,25-14.19h9.38A29.4,29.4,0,0,1,1221.78,559.53Z" transform="translate(637.79 245.23)"/><path class="cls-10" d="M1218.71,624.91a29.38,29.38,0,0,1-26.23,16.23h-9.38a29.39,29.39,0,0,1-29.3-29.3V559.53a28.88,28.88,0,0,1,4.25-15C1158.6,547.71,1171.05,619.48,1218.71,624.91Z" transform="translate(637.79 245.23)"/><polygon class="cls-11" points="1394.99 1187.61 1539.85 1187.61 1539.85 1041.41 1388.72 1041.41 1394.99 1187.61"/><path class="cls-12" d="M1214,633.34,502.29,650.88V275.6H969.63a118.71,118.71,0,0,1,105.66,64.59l30.59,59.69Z" transform="translate(637.79 245.23)"/><path class="cls-13" d="M809.67,918.6c0,39.69,20.47,83.46,20.47,83.46H864.8c30.44,0,55.13-37.37,55.13-83.46s-59.34-83.46-89.79-83.46S809.67,872.5,809.67,918.6Z" transform="translate(637.79 245.23)"/><ellipse class="cls-14" cx="1467.93" cy="1163.83" rx="55.13" ry="83.46"/><ellipse class="cls-11" cx="1468.63" cy="1163.83" rx="41.53" ry="62.87"/><path class="cls-13" d="M1208.15,918.6c0,39.69,20.47,83.46,20.47,83.46h34.66c30.44,0,55.12-37.37,55.12-83.46s-59.33-83.46-89.78-83.46S1208.15,872.5,1208.15,918.6Z" transform="translate(637.79 245.23)"/><path class="cls-14" d="M1173.49,918.6c0,46.09,24.68,83.46,55.13,83.46s55.13-37.37,55.13-83.46-24.68-83.46-55.13-83.46S1173.49,872.5,1173.49,918.6Z" transform="translate(637.79 245.23)"/><path class="cls-11" d="M1187.79,918.6c0,34.72,18.59,62.86,41.52,62.86s41.53-28.14,41.53-62.86-18.59-62.87-41.53-62.87S1187.79,883.88,1187.79,918.6Z" transform="translate(637.79 245.23)"/><path class="cls-13" d="M293.08,918.6c0,39.69,20.47,83.46,20.47,83.46h34.66c30.44,0,55.13-37.37,55.13-83.46S344,835.14,313.55,835.14,293.08,872.5,293.08,918.6Z" transform="translate(637.79 245.23)"/><path class="cls-14" d="M258.42,918.6c0,46.09,24.68,83.46,55.13,83.46s55.13-37.37,55.13-83.46S344,835.14,313.55,835.14,258.42,872.5,258.42,918.6Z" transform="translate(637.79 245.23)"/><path class="cls-11" d="M272.72,918.6c0,34.72,18.59,62.86,41.53,62.86s41.52-28.14,41.52-62.86-18.59-62.87-41.52-62.87S272.72,883.88,272.72,918.6Z" transform="translate(637.79 245.23)"/><path class="cls-12" d="M1373.29,879.21a63,63,0,0,1-63,63.17H902.05a124.05,124.05,0,0,0,1.82-21.27c0-54-32.38-97.76-72.24-97.76s-72.32,43.8-72.32,97.76a124.12,124.12,0,0,0,1.74,21.27H522.51s-9.61-106.5-8.43-159.91c.95-46.48.95-137.55-1.81-159.76,0-3.31,230-3.7,288.08-3.94,7.88-.08,12.61-.08,13.08-.08l.79.55.86.63c10.72,7.49,70.75,49.55,108,74.21,32.85,21.66,275.32,30.49,370.41,33.17,23.63.63,38.2.86,38.2.86a171.39,171.39,0,0,1,24.5,34.35c8.82,16.31,16.7,37.26,16.86,60.18.08,14.26.16,31.44.16,48.29C1373.29,873.69,1373.29,876.45,1373.29,879.21Z" transform="translate(637.79 245.23)"/><path class="cls-15" d="M1156.58,618.69H836.75a18.89,18.89,0,0,1-17.17-11L740.4,431.52a8.74,8.74,0,0,1,8-12.29h337.4a18.76,18.76,0,0,1,17.17,11.27l56.72,129.58,14.18,32.38A18.78,18.78,0,0,1,1156.58,618.69Z" transform="translate(637.79 245.23)"/><path class="cls-9" d="M1007.62,870.93c-.08,5.52-.32,10.72-.64,15.37-2.28,30.64-33.08,56.08-33.08,56.08H902.05a127.22,127.22,0,0,0-8.42-71.45c-12.69-28.51-35.69-47.58-62-47.58s-49.39,19.07-62.08,47.58a128.87,128.87,0,0,0-8.5,71.45H502.26V275.62H710V408s62.31,146.37,90.35,210.81c6.94,16.07,11.82,27,13.08,29.38,6.23,11.9,151,85.16,175,106.75C1001.71,766.87,1008.32,829.1,1007.62,870.93Z" transform="translate(637.79 245.23)"/><path class="cls-15" d="M712.32,450.92l68.13,167.8H663.55s-24-4-27-53c-3.28-52.32-3.28-142.6-3.28-142.6l51.31-.25C704.09,425.81,707.15,436.55,712.32,450.92Z" transform="translate(637.79 245.23)"/><polygon class="cls-12" points="1969.49 973.34 1590.42 973.34 1452.01 864.47 1451.22 863.92 1833.6 863.92 1942.47 951.52 1969.49 973.34"/><path class="cls-3" d="M1356.2,762.46c-2.2,3.62-5,6-8.11,6.54l-53.18,9.84c-4.49.87-8-6.93-6.77-15l5.2-35.77.16-.86,1-7.33c.94-6.3,3.7-11.11,7.09-12.45l3.07-1.18,27,21.82A171.39,171.39,0,0,1,1356.2,762.46Z" transform="translate(637.79 245.23)"/><path class="cls-9" d="M1001.71,792.08l-34.27-3.39a26.84,26.84,0,0,1-23.79-22l-7.88-43.33a5.86,5.86,0,0,1-.16-2c24.43,14,45,26.55,52.78,33.56C994.07,760,998.55,774.2,1001.71,792.08Z" transform="translate(637.79 245.23)"/><path class="cls-3" d="M1066.78,798.54l-65-6.46h-.08l-34.27-3.39a26.84,26.84,0,0,1-23.79-22l-7.88-43.33a5.86,5.86,0,0,1-.16-2v-.08a14.42,14.42,0,0,1,17.33-14.65l101.23,20.56a17.43,17.43,0,0,1,13.31,12.44l11.9,44A11.86,11.86,0,0,1,1066.78,798.54Z" transform="translate(637.79 245.23)"/><path class="cls-12" d="M1105.9,399.87H711a228.52,228.52,0,0,0-11.44-54.13c-8.82-25.48-24.06-53.91-50.75-70.13H971.5c52.61,0,99.22,28.09,117.74,70.13a54.92,54.92,0,0,1,2.28,5.23A328.92,328.92,0,0,1,1105.9,399.87Z" transform="translate(637.79 245.23)"/><path class="cls-15" d="M1001.79,792.08l-34.35-3.39a26.84,26.84,0,0,1-23.79-22l-7.88-43.33a6.32,6.32,0,0,1-.16-2.12c24.43,14.1,45,26.63,52.78,33.64C994.07,760,998.55,774.2,1001.79,792.08Z" transform="translate(637.79 245.23)"/><path class="cls-16" d="M1373.29,879.21c.08,34.89-29.54,63.17-66.09,63.17H902.05a127.22,127.22,0,0,0-8.42-71.45h479.59C1373.29,873.69,1373.29,876.45,1373.29,879.21Z" transform="translate(637.79 245.23)"/><path class="cls-16" d="M759.31,921.11a124.12,124.12,0,0,0,1.74,21.27H502.26V870.93H769.55A124.89,124.89,0,0,0,759.31,921.11Z" transform="translate(637.79 245.23)"/><path class="cls-16" d="M1106.41,731.19h155c4.95,0,8.74,6.68,8,14.08l-5.5,53.87c-.81,7.93-5.32,13.77-10.62,13.77H1125.57c-8.19,0-15.41-8.1-17.79-19.95l-9.2-45.8C1097,739.21,1100.91,731.19,1106.41,731.19Z" transform="translate(637.79 245.23)"/><path class="cls-3" d="M1159.65,560.08c-182.84-9.37-306.52-107.21-343.86-140.85h270a18.76,18.76,0,0,1,17.17,11.27Z" transform="translate(637.79 245.23)"/><rect class="cls-17" x="521.61" y="520.83" width="691.58" height="666.83"/><path class="cls-13" d="M745.78,532.56s5.91,67.82-27.57,86.39h62.55Z" transform="translate(637.79 245.23)"/><path class="cls-13" d="M755,577.94s-14.13-10.05-15.34-18.38V607h18.48Z" transform="translate(637.79 245.23)"/><path class="cls-12" d="M739.62,559.53v52.31a29.31,29.31,0,0,1-29.31,29.3h-9.37a29.4,29.4,0,0,1-29.31-29.3V559.53a28.89,28.89,0,0,1,4.26-15v-.07a29.38,29.38,0,0,1,25.05-14.19h9.37A29.41,29.41,0,0,1,739.62,559.53Z" transform="translate(637.79 245.23)"/><path class="cls-16" d="M736.54,624.91a29.36,29.36,0,0,1-26.23,16.23h-9.37a29.4,29.4,0,0,1-29.31-29.3V559.53a28.89,28.89,0,0,1,4.26-15C676.44,547.71,688.89,619.48,736.54,624.91Z" transform="translate(637.79 245.23)"/><path class="cls-11" d="M109.7,942.43H-60.42c-3.6-15.36-14.42-124.7,80.92-124.7C107.14,817.72,113.51,917.49,109.7,942.43Z" transform="translate(637.79 245.23)"/><path class="cls-13" d="M-7.17,918.6c0,39.69,20.47,83.46,20.47,83.46H48c30.45,0,55.13-37.37,55.13-83.46S43.75,835.14,13.3,835.14-7.17,872.5-7.17,918.6Z" transform="translate(637.79 245.23)"/><path class="cls-14" d="M-41.83,918.6c0,46.09,24.69,83.46,55.13,83.46s55.13-37.37,55.13-83.46S43.75,835.14,13.3,835.14-41.83,872.5-41.83,918.6Z" transform="translate(637.79 245.23)"/><path class="cls-11" d="M-27.53,918.6c0,34.72,18.59,62.86,41.53,62.86s41.52-28.14,41.52-62.86S36.93,855.73,14,855.73-27.53,883.88-27.53,918.6Z" transform="translate(637.79 245.23)"/><path class="cls-16" d="M1105.9,399.87H711a228.52,228.52,0,0,0-11.44-54.13h389.69a54.92,54.92,0,0,1,2.28,5.23A328.92,328.92,0,0,1,1105.9,399.87Z" transform="translate(637.79 245.23)"/><path class="cls-18" d="M769.55-136.86A129.18,129.18,0,0,0,640.37-7.68c0,71.34,129.18,230,129.18,230S898.73,63.66,898.73-7.68A129.17,129.17,0,0,0,769.55-136.86Zm0,188.25A60.39,60.39,0,0,1,709.17-9a60.39,60.39,0,0,1,60.38-60.39A60.38,60.38,0,0,1,829.93-9,60.38,60.38,0,0,1,769.55,51.39Z" transform="translate(637.79 245.23)"/><path class="cls-19" d="M512.27,681.45a2.49,2.49,0,0,1-1.91-.9l-3.1-3.75a2.48,2.48,0,0,1,3.83-3.16l3.09,3.74a2.48,2.48,0,0,1-1.91,4.07Zm-7.3-8.86a2.49,2.49,0,0,1-1.92-.9l-4.19-5.13a2.48,2.48,0,0,1,3.84-3.14l4.19,5.12a2.48,2.48,0,0,1-.35,3.49A2.44,2.44,0,0,1,505,672.59Zm-8.36-10.25a2.5,2.5,0,0,1-1.93-.92l-4.16-5.17a2.48,2.48,0,1,1,3.87-3.1c1.39,1.74,2.77,3.45,4.14,5.15a2.47,2.47,0,0,1-.36,3.48A2.43,2.43,0,0,1,496.61,662.34ZM488.33,652a2.49,2.49,0,0,1-1.94-.94c-1.37-1.72-2.73-3.46-4.11-5.21a2.48,2.48,0,0,1,3.91-3.06l4.08,5.19a2.48,2.48,0,0,1-1.94,4Zm-8.16-10.42a2.47,2.47,0,0,1-2-1c-1.35-1.73-2.69-3.49-4-5.26a2.48,2.48,0,0,1,3.95-3c1.34,1.77,2.68,3.51,4,5.24a2.48,2.48,0,0,1-2,4Zm-8-10.53a2.47,2.47,0,0,1-2-1c-1.32-1.75-2.65-3.53-4-5.32a2.48,2.48,0,0,1,4-3c1.31,1.78,2.63,3.55,3.94,5.29a2.48,2.48,0,0,1-.49,3.48A2.51,2.51,0,0,1,472.14,631.06Zm-7.87-10.63a2.5,2.5,0,0,1-2-1c-1.29-1.78-2.59-3.58-3.88-5.39a2.48,2.48,0,1,1,4-2.88l3.86,5.35a2.48,2.48,0,0,1-2,3.94Zm-7.7-10.77a2.47,2.47,0,0,1-2-1.06c-1.26-1.8-2.53-3.62-3.79-5.45a2.48,2.48,0,0,1,4.09-2.81q1.88,2.73,3.76,5.41a2.48,2.48,0,0,1-.6,3.46A2.52,2.52,0,0,1,456.57,609.66Zm-7.5-10.9a2.49,2.49,0,0,1-2.06-1.09q-1.85-2.76-3.68-5.53a2.48,2.48,0,1,1,4.14-2.73q1.81,2.76,3.66,5.48a2.5,2.5,0,0,1-.67,3.45A2.54,2.54,0,0,1,449.07,598.76Zm-7.28-11a2.48,2.48,0,0,1-2.09-1.13q-1.8-2.79-3.57-5.61a2.48,2.48,0,1,1,4.2-2.64c1.17,1.86,2.35,3.72,3.54,5.56a2.49,2.49,0,0,1-.74,3.43A2.54,2.54,0,0,1,441.79,587.71Zm-7.05-11.2a2.47,2.47,0,0,1-2.11-1.18c-1.16-1.89-2.31-3.78-3.45-5.69a2.48,2.48,0,1,1,4.26-2.54q1.69,2.83,3.41,5.63a2.48,2.48,0,0,1-2.11,3.78ZM428,565.15a2.47,2.47,0,0,1-2.15-1.24q-1.67-2.86-3.3-5.77a2.48,2.48,0,1,1,4.32-2.43c1.08,1.91,2.17,3.82,3.27,5.71a2.47,2.47,0,0,1-.9,3.39A2.44,2.44,0,0,1,428,565.15Zm-6.5-11.53a2.47,2.47,0,0,1-2.18-1.29c-1.06-2-2.12-3.91-3.15-5.87a2.48,2.48,0,1,1,4.38-2.32q1.55,2.91,3.13,5.81a2.49,2.49,0,0,1-1,3.37A2.56,2.56,0,0,1,421.46,553.62Zm-6.2-11.73a2.48,2.48,0,0,1-2.21-1.35q-1.51-3-3-6a2.48,2.48,0,1,1,4.45-2.19c1,2,2,3.94,3,5.89a2.49,2.49,0,0,1-1.08,3.34A2.54,2.54,0,0,1,415.26,541.89ZM409.42,530a2.49,2.49,0,0,1-2.25-1.42c-.94-2-1.88-4-2.79-6.05a2.48,2.48,0,1,1,4.52-2q1.35,3,2.76,6a2.5,2.5,0,0,1-1.18,3.31A2.54,2.54,0,0,1,409.42,530ZM404,517.93a2.48,2.48,0,0,1-2.28-1.5c-.88-2-1.75-4.08-2.59-6.14a2.48,2.48,0,1,1,4.58-1.89q1.26,3,2.56,6.06a2.47,2.47,0,0,1-1.29,3.26A2.43,2.43,0,0,1,404,517.93Zm-5-12.25a2.47,2.47,0,0,1-2.31-1.57q-1.22-3.11-2.37-6.23a2.48,2.48,0,1,1,4.65-1.72q1.14,3.07,2.34,6.14a2.48,2.48,0,0,1-1.41,3.21A2.36,2.36,0,0,1,398.91,505.68Zm-4.59-12.4a2.48,2.48,0,0,1-2.34-1.67c-.74-2.1-1.45-4.2-2.13-6.32a2.48,2.48,0,1,1,4.71-1.53q1,3.12,2.1,6.22a2.48,2.48,0,0,1-1.53,3.16A2.56,2.56,0,0,1,394.32,493.28Zm-4.1-12.58a2.49,2.49,0,0,1-2.38-1.76c-.64-2.12-1.27-4.28-1.86-6.4a2.48,2.48,0,1,1,4.77-1.34c.59,2.09,1.21,4.21,1.84,6.3a2.47,2.47,0,0,1-1.65,3.09A2.57,2.57,0,0,1,390.22,480.7ZM386.65,468a2.47,2.47,0,0,1-2.4-1.86c-.56-2.16-1.09-4.35-1.59-6.48a2.49,2.49,0,0,1,4.84-1.13c.48,2.11,1,4.25,1.55,6.37a2.48,2.48,0,0,1-1.78,3A2.25,2.25,0,0,1,386.65,468Zm-3-12.88a2.48,2.48,0,0,1-2.43-2c-.45-2.18-.88-4.39-1.28-6.55a2.48,2.48,0,1,1,4.88-.89c.39,2.12.81,4.29,1.26,6.43a2.49,2.49,0,0,1-1.93,2.93A2.2,2.2,0,0,1,383.66,455.08Zm-2.38-13a2.47,2.47,0,0,1-2.44-2.1c-.35-2.2-.67-4.42-1-6.61a2.48,2.48,0,0,1,4.92-.64c.28,2.14.6,4.33.94,6.48a2.49,2.49,0,0,1-2.07,2.84A2.56,2.56,0,0,1,381.28,442.06Zm-1.71-13.13a2.47,2.47,0,0,1-2.46-2.22c-.23-2.22-.44-4.46-.61-6.66a2.48,2.48,0,1,1,4.95-.38c.17,2.15.36,4.35.59,6.53a2.48,2.48,0,0,1-2.21,2.72Zm-1-13.2a2.5,2.5,0,0,1-2.48-2.36c-.1-2.23-.18-4.48-.23-6.7a2.48,2.48,0,0,1,5-.1c.05,2.17.12,4.37.23,6.55a2.48,2.48,0,0,1-2.36,2.6Zm-.27-13.26h0a2.48,2.48,0,0,1-2.46-2.5c0-2.23.07-4.48.15-6.68a2.48,2.48,0,1,1,5,.18c-.08,2.16-.13,4.36-.15,6.54A2.48,2.48,0,0,1,378.29,402.47Zm.5-13.23h-.17a2.48,2.48,0,0,1-2.31-2.64c.15-2.22.33-4.47.54-6.68a2.48,2.48,0,1,1,4.94.48c-.21,2.16-.39,4.36-.53,6.53A2.48,2.48,0,0,1,378.79,389.24Zm1.27-13.18a1.77,1.77,0,0,1-.32,0,2.47,2.47,0,0,1-2.14-2.77c.28-2.2.6-4.43.94-6.62a2.48,2.48,0,0,1,4.9.77c-.34,2.14-.65,4.32-.92,6.48A2.48,2.48,0,0,1,380.06,376.06ZM382.13,363a2.46,2.46,0,0,1-2.44-2.94c.41-2.18.86-4.38,1.34-6.55a2.48,2.48,0,1,1,4.84,1.07c-.46,2.12-.91,4.27-1.31,6.4A2.48,2.48,0,0,1,382.13,363ZM385,350.09a2.54,2.54,0,0,1-.61-.07,2.49,2.49,0,0,1-1.8-3c.54-2.14,1.13-4.31,1.74-6.46a2.48,2.48,0,0,1,4.77,1.36c-.6,2.1-1.17,4.22-1.7,6.32A2.48,2.48,0,0,1,385,350.09Zm3.62-12.71a2.45,2.45,0,0,1-.75-.12,2.49,2.49,0,0,1-1.62-3.12c.67-2.1,1.38-4.23,2.12-6.34a2.48,2.48,0,1,1,4.68,1.64c-.72,2.06-1.42,4.15-2.07,6.2A2.48,2.48,0,0,1,388.6,337.38ZM393,324.89a2.47,2.47,0,0,1-2.32-3.36c.79-2.07,1.62-4.15,2.48-6.21a2.48,2.48,0,1,1,4.58,1.91c-.84,2-1.65,4-2.43,6.07A2.47,2.47,0,0,1,393,324.89Zm5.08-12.2a2.48,2.48,0,0,1-2.26-3.5c.9-2,1.85-4.05,2.82-6.05a2.48,2.48,0,1,1,4.47,2.15c-.95,2-1.88,4-2.77,5.93A2.48,2.48,0,0,1,398.05,312.69Zm5.75-11.91a2.48,2.48,0,0,1-2.2-3.62c1-2,2.07-3.94,3.14-5.89a2.48,2.48,0,0,1,4.35,2.4c-1.06,1.91-2.09,3.85-3.08,5.77A2.5,2.5,0,0,1,403.8,300.78Zm6.38-11.58a2.45,2.45,0,0,1-1.25-.34,2.48,2.48,0,0,1-.89-3.39c1.11-1.9,2.27-3.82,3.44-5.72a2.48,2.48,0,0,1,4.22,2.61c-1.15,1.86-2.29,3.75-3.38,5.61A2.47,2.47,0,0,1,410.18,289.2Zm7-11.24a2.43,2.43,0,0,1-1.36-.41,2.48,2.48,0,0,1-.72-3.43c1.21-1.84,2.46-3.71,3.72-5.54a2.48,2.48,0,0,1,4.09,2.81c-1.24,1.8-2.47,3.63-3.65,5.44A2.49,2.49,0,0,1,417.14,278Zm7.49-10.9a2.44,2.44,0,0,1-1.45-.47,2.48,2.48,0,0,1-.56-3.46c1.29-1.79,2.62-3.6,4-5.37a2.48,2.48,0,0,1,4,3c-1.32,1.75-2.63,3.52-3.9,5.28A2.47,2.47,0,0,1,424.63,267.06Zm8-10.55a2.48,2.48,0,0,1-1.94-4c1.35-1.72,2.76-3.46,4.18-5.19a2.48,2.48,0,0,1,3.83,3.16c-1.4,1.7-2.79,3.41-4.12,5.11A2.51,2.51,0,0,1,432.6,256.51ZM441,246.3a2.47,2.47,0,0,1-1.88-4.09q2.16-2.51,4.39-5a2.48,2.48,0,1,1,3.7,3.3c-1.47,1.65-2.91,3.29-4.32,4.94A2.49,2.49,0,0,1,441,246.3Zm8.81-9.86a2.48,2.48,0,0,1-1.81-4.17c1.49-1.61,3-3.22,4.57-4.84a2.48,2.48,0,0,1,3.57,3.44c-1.53,1.59-3,3.19-4.51,4.78A2.49,2.49,0,0,1,449.82,236.44Zm9.17-9.53a2.48,2.48,0,0,1-1.75-4.23q2.33-2.34,4.73-4.67a2.48,2.48,0,1,1,3.46,3.56q-2.39,2.3-4.68,4.61A2.47,2.47,0,0,1,459,226.91Zm9.5-9.21a2.45,2.45,0,0,1-1.81-.78,2.48,2.48,0,0,1,.11-3.51c1.6-1.5,3.23-3,4.88-4.51a2.48,2.48,0,1,1,3.34,3.67q-2.44,2.22-4.83,4.46A2.47,2.47,0,0,1,468.49,217.7Zm9.78-8.9a2.48,2.48,0,0,1-1.64-4.34c1.65-1.45,3.32-2.91,5-4.36a2.48,2.48,0,0,1,3.22,3.77c-1.67,1.44-3.33,2.87-5,4.31A2.45,2.45,0,0,1,478.27,208.8Zm10.05-8.6a2.46,2.46,0,0,1-1.91-.89,2.49,2.49,0,0,1,.32-3.5c1.69-1.4,3.4-2.81,5.14-4.21a2.48,2.48,0,0,1,3.12,3.86q-2.58,2.08-5.09,4.17A2.5,2.5,0,0,1,488.32,200.2Zm10.24-8.37a2.48,2.48,0,0,1-1.6-4.38c1.67-1.4,3.33-2.84,4.94-4.28a2.48,2.48,0,0,1,3.31,3.7c-1.65,1.47-3.35,2.94-5.06,4.38A2.48,2.48,0,0,1,498.56,191.83Zm9.85-8.82a2.48,2.48,0,0,1-1.71-4.27c1.57-1.5,3.13-3.05,4.64-4.59a2.48,2.48,0,0,1,3.55,3.47c-1.55,1.58-3.16,3.16-4.77,4.7A2.47,2.47,0,0,1,508.41,183Zm9.25-9.45a2.47,2.47,0,0,1-1.83-4.15c1.46-1.61,2.92-3.25,4.32-4.89a2.48,2.48,0,1,1,3.77,3.21c-1.44,1.69-2.93,3.38-4.43,5A2.46,2.46,0,0,1,517.66,173.56Zm8.57-10.06a2.48,2.48,0,0,1-1.94-4c1.34-1.7,2.68-3.44,4-5.19a2.48,2.48,0,0,1,4,2.94c-1.32,1.79-2.69,3.58-4.07,5.33A2.48,2.48,0,0,1,526.23,163.5Zm7.84-10.65A2.48,2.48,0,0,1,532,149c1.22-1.79,2.42-3.62,3.58-5.45a2.48,2.48,0,1,1,4.19,2.64c-1.18,1.88-2.42,3.77-3.67,5.61A2.49,2.49,0,0,1,534.07,152.85Zm7-11.19a2.53,2.53,0,0,1-1.24-.33,2.48,2.48,0,0,1-.9-3.39c1.08-1.87,2.15-3.79,3.17-5.71a2.48,2.48,0,0,1,4.38,2.33c-1,2-2.15,3.94-3.26,5.86A2.47,2.47,0,0,1,541.11,141.66ZM547.32,130a2.48,2.48,0,0,1-2.23-3.57c.94-2,1.86-3.94,2.73-5.91a2.48,2.48,0,1,1,4.54,2c-.89,2-1.84,4.06-2.81,6.07A2.49,2.49,0,0,1,547.32,130Zm5.33-12.09a2.46,2.46,0,0,1-2.3-3.39c.8-2,1.57-4.06,2.3-6.1a2.48,2.48,0,0,1,4.67,1.67c-.75,2.09-1.54,4.2-2.36,6.26A2.49,2.49,0,0,1,552.65,117.91Zm4.46-12.44a2.46,2.46,0,0,1-2.37-3.23c.66-2.06,1.29-4.16,1.87-6.25a2.48,2.48,0,1,1,4.78,1.34c-.6,2.14-1.25,4.3-1.92,6.42A2.48,2.48,0,0,1,557.11,105.47Zm3.57-12.72a2.39,2.39,0,0,1-.59-.08,2.47,2.47,0,0,1-1.82-3c.51-2.1,1-4.24,1.43-6.37a2.48,2.48,0,0,1,4.86,1c-.45,2.18-.95,4.38-1.47,6.53A2.49,2.49,0,0,1,560.68,92.75Zm2.7-13a2,2,0,0,1-.43,0,2.48,2.48,0,0,1-2-2.87c.37-2.13.71-4.3,1-6.45a2.48,2.48,0,0,1,4.92.69c-.31,2.2-.66,4.43-1,6.61A2.48,2.48,0,0,1,563.38,79.8Zm1.84-13.1-.27,0a2.48,2.48,0,0,1-2.2-2.73c.23-2.15.44-4.34.6-6.51a2.48,2.48,0,1,1,4.95.38c-.17,2.23-.38,4.47-.62,6.66A2.49,2.49,0,0,1,565.22,66.7Zm1-13.2h-.12a2.48,2.48,0,0,1-2.36-2.59c.1-2.16.17-4.36.21-6.55a2.48,2.48,0,0,1,5,.09c0,2.23-.11,4.48-.22,6.69A2.47,2.47,0,0,1,566.24,53.5Zm.22-13.23A2.49,2.49,0,0,1,564,37.81c0-2.17-.08-4.37-.17-6.54a2.48,2.48,0,1,1,5-.2c.09,2.22.15,4.47.17,6.69a2.48,2.48,0,0,1-2.45,2.51ZM565.93,27a2.48,2.48,0,0,1-2.47-2.31c-.15-2.15-.32-4.35-.53-6.53a2.48,2.48,0,0,1,4.94-.46c.21,2.22.39,4.46.54,6.66A2.49,2.49,0,0,1,566.1,27Zm-1.24-13.17a2.47,2.47,0,0,1-2.46-2.18c-.26-2.15-.55-4.34-.87-6.49a2.48,2.48,0,1,1,4.91-.72c.32,2.19.62,4.42.89,6.62A2.49,2.49,0,0,1,565,13.85ZM562.77.78a2.48,2.48,0,0,1-2.44-2.06c-.37-2.13-.77-4.29-1.19-6.45a2.47,2.47,0,0,1,2-2.91,2.48,2.48,0,0,1,2.91,2c.44,2.19.84,4.4,1.22,6.57a2.48,2.48,0,0,1-2,2.86A2,2,0,0,1,562.77.78Zm-2.56-13a2.49,2.49,0,0,1-2.42-1.94c-.47-2.13-1-4.27-1.5-6.38a2.49,2.49,0,0,1,1.81-3,2.49,2.49,0,0,1,3,1.81c.53,2.15,1,4.34,1.52,6.5a2.47,2.47,0,0,1-1.88,3A2.48,2.48,0,0,1,560.21-12.2ZM557-25a2.48,2.48,0,0,1-2.39-1.83c-.57-2.1-1.17-4.22-1.79-6.31a2.49,2.49,0,0,1,1.67-3.09,2.49,2.49,0,0,1,3.08,1.68c.63,2.13,1.25,4.29,1.82,6.42a2.48,2.48,0,0,1-1.74,3A2.48,2.48,0,0,1,557-25Zm-3.76-12.71a2.48,2.48,0,0,1-2.36-1.73c-.66-2.06-1.36-4.17-2.07-6.25a2.48,2.48,0,0,1,1.53-3.15,2.48,2.48,0,0,1,3.16,1.54c.72,2.11,1.43,4.25,2.1,6.35a2.48,2.48,0,0,1-1.6,3.12A2.51,2.51,0,0,1,553.28-37.75ZM549-50.3a2.48,2.48,0,0,1-2.33-1.63c-.76-2-1.54-4.12-2.34-6.15a2.48,2.48,0,0,1,1.4-3.21,2.48,2.48,0,0,1,3.22,1.4c.81,2.06,1.61,4.16,2.37,6.25a2.47,2.47,0,0,1-1.47,3.18A2.33,2.33,0,0,1,549-50.3Zm-4.85-12.35a2.49,2.49,0,0,1-2.29-1.53c-.83-2-1.71-4-2.59-6a2.49,2.49,0,0,1,1.27-3.27,2.49,2.49,0,0,1,3.27,1.27c.9,2,1.78,4.1,2.63,6.14a2.47,2.47,0,0,1-1.33,3.24A2.54,2.54,0,0,1,544.12-62.65Zm-5.34-12.14a2.48,2.48,0,0,1-2.25-1.43c-.92-2-1.87-4-2.84-5.94a2.47,2.47,0,0,1,1.14-3.31,2.47,2.47,0,0,1,3.32,1.13c1,2,1.94,4,2.88,6A2.48,2.48,0,0,1,539.82-75,2.42,2.42,0,0,1,538.78-74.79ZM-36.15-84.93a2.5,2.5,0,0,1-1.26-.35,2.48,2.48,0,0,1-.87-3.4c.05-.09,1.27-2.13,3.74-5.72A2.49,2.49,0,0,1-31.09-95a2.49,2.49,0,0,1,.64,3.45C-32.82-88.15-34-86.17-34-86.15A2.5,2.5,0,0,1-36.15-84.93ZM533-86.68A2.5,2.5,0,0,1,530.74-88q-1.5-2.93-3.06-5.81a2.48,2.48,0,0,1,1-3.36,2.47,2.47,0,0,1,3.36,1c1.06,2,2.1,3.92,3.11,5.9A2.48,2.48,0,0,1,534.08-87,2.42,2.42,0,0,1,533-86.68ZM-28.64-95.92a2.44,2.44,0,0,1-1.47-.48,2.49,2.49,0,0,1-.53-3.47c1.29-1.75,2.65-3.54,4.05-5.33a2.48,2.48,0,0,1,3.48-.44,2.48,2.48,0,0,1,.43,3.48c-1.36,1.76-2.7,3.52-4,5.23A2.49,2.49,0,0,1-28.64-95.92Zm555.3-2.41a2.48,2.48,0,0,1-2.16-1.26c-1.08-1.91-2.18-3.8-3.29-5.69a2.47,2.47,0,0,1,.87-3.39,2.48,2.48,0,0,1,3.4.87q1.69,2.86,3.34,5.76a2.5,2.5,0,0,1-.94,3.39A2.58,2.58,0,0,1,526.66-98.33Zm-547.16-8a2.46,2.46,0,0,1-1.57-.56,2.48,2.48,0,0,1-.35-3.49c1.39-1.69,2.83-3.41,4.29-5.12a2.48,2.48,0,0,1,3.5-.27,2.48,2.48,0,0,1,.27,3.5c-1.44,1.68-2.86,3.37-4.22,5A2.47,2.47,0,0,1-20.5-106.38Zm540.42-3.34a2.47,2.47,0,0,1-2.11-1.17q-1.72-2.79-3.51-5.55a2.49,2.49,0,0,1,.74-3.43,2.49,2.49,0,0,1,3.43.74q1.8,2.79,3.56,5.63a2.47,2.47,0,0,1-.81,3.41A2.44,2.44,0,0,1,519.92-109.72Zm-531.8-6.72a2.51,2.51,0,0,1-1.66-.63,2.47,2.47,0,0,1-.19-3.5c1.47-1.65,3-3.31,4.5-4.93a2.47,2.47,0,0,1,3.5-.12,2.48,2.48,0,0,1,.13,3.5c-1.49,1.6-3,3.23-4.43,4.85A2.47,2.47,0,0,1-11.88-116.44Zm524.62-4.38a2.49,2.49,0,0,1-2.06-1.09q-1.83-2.72-3.71-5.4a2.48,2.48,0,0,1,.6-3.46,2.47,2.47,0,0,1,3.45.61q1.92,2.72,3.78,5.47a2.5,2.5,0,0,1-.67,3.45A2.54,2.54,0,0,1,512.74-120.82Zm-515.6-5.31a2.49,2.49,0,0,1-1.73-.7,2.48,2.48,0,0,1,0-3.5q2.26-2.34,4.69-4.74a2.48,2.48,0,0,1,3.51,0,2.48,2.48,0,0,1,0,3.51q-2.39,2.37-4.62,4.67A2.46,2.46,0,0,1-2.86-126.13Zm508-5.49a2.49,2.49,0,0,1-2-1c-1.29-1.77-2.6-3.51-3.92-5.25a2.46,2.46,0,0,1,.46-3.47,2.48,2.48,0,0,1,3.48.46q2,2.64,4,5.32a2.49,2.49,0,0,1-.53,3.47A2.51,2.51,0,0,1,505.14-131.62ZM6.54-135.45a2.46,2.46,0,0,1-1.79-.77,2.47,2.47,0,0,1,.08-3.5Q7.2-142,9.7-144.28a2.48,2.48,0,0,1,3.5.15,2.48,2.48,0,0,1-.15,3.51c-1.64,1.51-3.24,3-4.8,4.49A2.49,2.49,0,0,1,6.54-135.45Zm490.59-6.65a2.46,2.46,0,0,1-1.94-.94c-1.36-1.7-2.75-3.4-4.13-5.08a2.48,2.48,0,0,1,.32-3.49,2.48,2.48,0,0,1,3.49.33c1.41,1.69,2.82,3.43,4.2,5.15a2.49,2.49,0,0,1-.4,3.49A2.49,2.49,0,0,1,497.13-142.1ZM16.29-144.4a2.45,2.45,0,0,1-1.86-.84,2.48,2.48,0,0,1,.21-3.5q2.46-2.17,5-4.37a2.47,2.47,0,0,1,3.49.28,2.48,2.48,0,0,1-.28,3.5q-2.54,2.16-5,4.31A2.5,2.5,0,0,1,16.29-144.4Zm472.41-7.85a2.48,2.48,0,0,1-1.87-.85c-1.43-1.65-2.89-3.3-4.35-4.92a2.48,2.48,0,0,1,.18-3.51,2.48,2.48,0,0,1,3.5.18c1.49,1.65,3,3.33,4.42,5a2.48,2.48,0,0,1-.25,3.5A2.51,2.51,0,0,1,488.7-152.25ZM26.36-153a2.46,2.46,0,0,1-1.92-.9,2.48,2.48,0,0,1,.35-3.49c1.69-1.39,3.42-2.79,5.19-4.18a2.47,2.47,0,0,1,3.48.41,2.47,2.47,0,0,1-.41,3.48q-2.61,2.07-5.12,4.12A2.46,2.46,0,0,1,26.36-153Zm10.38-8.2a2.46,2.46,0,0,1-2-1,2.48,2.48,0,0,1,.47-3.48q2.61-2,5.33-4a2.49,2.49,0,0,1,3.47.53,2.49,2.49,0,0,1-.53,3.47q-2.68,2-5.27,3.93A2.47,2.47,0,0,1,36.74-161.19Zm443.1-.88a2.48,2.48,0,0,1-1.81-.78c-1.49-1.59-3-3.18-4.54-4.73a2.48,2.48,0,0,1,0-3.51,2.47,2.47,0,0,1,3.5,0c1.55,1.58,3.11,3.2,4.63,4.81a2.48,2.48,0,0,1-.11,3.51A2.47,2.47,0,0,1,479.84-162.07ZM47.41-169a2.5,2.5,0,0,1-2-1.05,2.48,2.48,0,0,1,.6-3.46q2.69-1.9,5.48-3.79a2.47,2.47,0,0,1,3.44.66,2.47,2.47,0,0,1-.66,3.44c-1.83,1.25-3.63,2.49-5.4,3.74A2.44,2.44,0,0,1,47.41-169Zm423.16-2.5a2.45,2.45,0,0,1-1.73-.7c-1.56-1.52-3.16-3-4.75-4.53a2.48,2.48,0,0,1-.12-3.51,2.48,2.48,0,0,1,3.5-.12c1.62,1.51,3.24,3.06,4.83,4.61a2.47,2.47,0,0,1,0,3.5A2.45,2.45,0,0,1,470.57-171.51ZM58.36-176.45a2.46,2.46,0,0,1-2.08-1.12A2.47,2.47,0,0,1,57-181c1.84-1.21,3.71-2.4,5.6-3.6a2.49,2.49,0,0,1,3.42.79,2.48,2.48,0,0,1-.78,3.42q-2.8,1.75-5.53,3.54A2.5,2.5,0,0,1,58.36-176.45Zm402.53-4.08a2.47,2.47,0,0,1-1.65-.63c-1.64-1.46-3.3-2.91-4.95-4.31A2.48,2.48,0,0,1,454-189a2.48,2.48,0,0,1,3.5-.28c1.67,1.42,3.36,2.89,5,4.38a2.48,2.48,0,0,1,.2,3.5A2.47,2.47,0,0,1,460.89-180.53ZM69.56-183.48a2.5,2.5,0,0,1-2.13-1.2,2.49,2.49,0,0,1,.85-3.41q2.82-1.69,5.73-3.39a2.49,2.49,0,0,1,3.39.91,2.49,2.49,0,0,1-.91,3.39c-1.91,1.1-3.79,2.22-5.65,3.34A2.48,2.48,0,0,1,69.56-183.48Zm381.25-5.62a2.48,2.48,0,0,1-1.56-.55c-1.69-1.37-3.42-2.74-5.14-4.07a2.47,2.47,0,0,1-.45-3.48,2.49,2.49,0,0,1,3.48-.45c1.75,1.35,3.51,2.75,5.23,4.14a2.48,2.48,0,0,1,.37,3.49A2.47,2.47,0,0,1,450.81-189.1ZM81-190.11a2.48,2.48,0,0,1-2.17-1.28,2.48,2.48,0,0,1,1-3.37q2.88-1.61,5.84-3.19a2.48,2.48,0,0,1,3.36,1,2.48,2.48,0,0,1-1,3.35q-2.92,1.56-5.77,3.14A2.41,2.41,0,0,1,81-190.11Zm11.68-6.23a2.46,2.46,0,0,1-2.21-1.35A2.48,2.48,0,0,1,91.55-201q2.94-1.5,6-3a2.48,2.48,0,0,1,3.32,1.14,2.47,2.47,0,0,1-1.14,3.31q-3,1.45-5.88,2.94A2.37,2.37,0,0,1,92.68-196.34Zm347.65-.84a2.41,2.41,0,0,1-1.46-.48c-1.77-1.29-3.56-2.57-5.34-3.8a2.48,2.48,0,0,1-.62-3.45,2.48,2.48,0,0,1,3.45-.62c1.81,1.25,3.64,2.56,5.44,3.87a2.49,2.49,0,0,1,.54,3.47A2.49,2.49,0,0,1,440.33-197.18Zm-335.77-5a2.47,2.47,0,0,1-2.25-1.43,2.47,2.47,0,0,1,1.2-3.29q3-1.41,6-2.77a2.48,2.48,0,0,1,3.28,1.26,2.48,2.48,0,0,1-1.26,3.27q-3,1.35-6,2.73A2.46,2.46,0,0,1,104.56-202.15Zm324.9-2.56a2.43,2.43,0,0,1-1.36-.41c-1.83-1.19-3.69-2.38-5.52-3.51a2.47,2.47,0,0,1-.81-3.41,2.47,2.47,0,0,1,3.41-.81c1.88,1.15,3.77,2.36,5.64,3.58a2.48,2.48,0,0,1,.72,3.44A2.5,2.5,0,0,1,429.46-204.71Zm-312.82-2.83a2.47,2.47,0,0,1-2.29-1.51,2.48,2.48,0,0,1,1.31-3.25q3-1.29,6.15-2.55a2.47,2.47,0,0,1,3.23,1.36,2.47,2.47,0,0,1-1.37,3.23q-3.06,1.24-6.06,2.53A2.58,2.58,0,0,1,116.64-207.54Zm301.56-4.11A2.44,2.44,0,0,1,417-212c-1.88-1.09-3.81-2.16-5.71-3.19a2.48,2.48,0,0,1-1-3.36,2.48,2.48,0,0,1,3.36-1c1.95,1.06,3.91,2.15,5.83,3.27a2.48,2.48,0,0,1,.91,3.39A2.49,2.49,0,0,1,418.2-211.65Zm-289.31-.86a2.47,2.47,0,0,1-2.31-1.59,2.47,2.47,0,0,1,1.42-3.2q3.08-1.2,6.23-2.35a2.48,2.48,0,0,1,3.18,1.48,2.48,2.48,0,0,1-1.48,3.18q-3.1,1.14-6.15,2.32A2.5,2.5,0,0,1,128.89-212.51Zm12.42-4.55a2.47,2.47,0,0,1-2.34-1.66,2.48,2.48,0,0,1,1.53-3.16q3.12-1.08,6.3-2.13a2.48,2.48,0,0,1,3.13,1.58,2.48,2.48,0,0,1-1.58,3.13c-2.1.69-4.17,1.39-6.23,2.11A2.54,2.54,0,0,1,141.31-217.06Zm265.25-.88a2.49,2.49,0,0,1-1.11-.27c-1.95-1-3.93-1.93-5.88-2.84a2.47,2.47,0,0,1-1.21-3.29,2.48,2.48,0,0,1,3.3-1.21c2,.93,4,1.91,6,2.91a2.48,2.48,0,0,1,1.1,3.33A2.47,2.47,0,0,1,406.56-217.94Zm-252.69-3.25a2.48,2.48,0,0,1-2.37-1.74,2.49,2.49,0,0,1,1.64-3.11c2.1-.65,4.23-1.29,6.37-1.92a2.49,2.49,0,0,1,3.08,1.69,2.49,2.49,0,0,1-1.69,3.08c-2.12.61-4.21,1.25-6.29,1.89A2.37,2.37,0,0,1,153.87-221.19Zm240.7-2.32a2.34,2.34,0,0,1-1-.2c-2-.85-4-1.68-6.05-2.45a2.49,2.49,0,0,1-1.42-3.21,2.47,2.47,0,0,1,3.21-1.42c2.06.8,4.15,1.65,6.2,2.52a2.47,2.47,0,0,1,1.31,3.25A2.47,2.47,0,0,1,394.57-223.51Zm-228-1.39a2.5,2.5,0,0,1-2.4-1.82,2.49,2.49,0,0,1,1.74-3.05q3.19-.87,6.43-1.71a2.48,2.48,0,0,1,3,1.79,2.48,2.48,0,0,1-1.79,3q-3.19.82-6.35,1.68A2.48,2.48,0,0,1,166.57-224.9Zm12.8-3.29a2.48,2.48,0,0,1-2.41-1.9,2.48,2.48,0,0,1,1.84-3q3.21-.78,6.48-1.5a2.48,2.48,0,0,1,3,1.88,2.49,2.49,0,0,1-1.88,3q-3.23.72-6.41,1.48A2.3,2.3,0,0,1,179.37-228.19Zm202.87-.09a2.36,2.36,0,0,1-.82-.14c-2.06-.71-4.14-1.4-6.2-2a2.49,2.49,0,0,1-1.64-3.1,2.48,2.48,0,0,1,3.11-1.64c2.11.65,4.25,1.35,6.36,2.09a2.48,2.48,0,0,1,1.53,3.16A2.49,2.49,0,0,1,382.24-228.28Zm-190-2.79a2.49,2.49,0,0,1-2.43-2,2.48,2.48,0,0,1,1.93-2.93q3.24-.68,6.52-1.3a2.49,2.49,0,0,1,2.9,2,2.48,2.48,0,0,1-2,2.9q-3.24.61-6.45,1.28A2.92,2.92,0,0,1,192.28-231.07Zm177.32-1.11a2.34,2.34,0,0,1-.64-.08c-2.11-.57-4.24-1.1-6.33-1.57a2.48,2.48,0,0,1-1.86-3,2.48,2.48,0,0,1,3-1.87c2.15.49,4.34,1,6.51,1.62a2.48,2.48,0,0,1,1.75,3A2.49,2.49,0,0,1,369.6-232.18Zm-164.33-1.37a2.48,2.48,0,0,1-2.44-2,2.48,2.48,0,0,1,2-2.87q3.26-.57,6.55-1.09a2.47,2.47,0,0,1,2.84,2.06,2.48,2.48,0,0,1-2.06,2.84c-2.17.34-4.34.7-6.48,1.08Zm151.45-1.57a2.32,2.32,0,0,1-.46,0c-2.14-.4-4.31-.76-6.42-1.07a2.48,2.48,0,0,1-2.1-2.81,2.48,2.48,0,0,1,2.81-2.1c2.19.32,4.41.69,6.62,1.1a2.49,2.49,0,0,1,2,2.9A2.47,2.47,0,0,1,356.72-235.12Zm-138.39-.5a2.47,2.47,0,0,1-2.45-2.13,2.48,2.48,0,0,1,2.1-2.81q3.27-.47,6.59-.89a2.48,2.48,0,0,1,2.77,2.14,2.47,2.47,0,0,1-2.14,2.78q-3.28.42-6.52.88A2,2,0,0,1,218.33-235.62ZM343.64-237h-.27q-3.3-.36-6.55-.68a2.47,2.47,0,0,1-2.23-2.7,2.47,2.47,0,0,1,2.71-2.23q3.29.32,6.6.67a2.49,2.49,0,0,1,2.2,2.74A2.48,2.48,0,0,1,343.64-237Zm-112.19-.27a2.49,2.49,0,0,1-2.47-2.2,2.5,2.5,0,0,1,2.19-2.75c2.19-.24,4.39-.48,6.61-.7a2.48,2.48,0,0,1,2.71,2.23,2.47,2.47,0,0,1-2.22,2.71q-3.3.33-6.54.69Zm99-1h-.21c-2.2-.19-4.38-.36-6.56-.52a2.48,2.48,0,0,1-2.29-2.66,2.47,2.47,0,0,1,2.65-2.29c2.2.16,4.4.33,6.62.52a2.48,2.48,0,0,1,2.26,2.69A2.48,2.48,0,0,1,330.47-238.3Zm-85.86-.3a2.48,2.48,0,0,1-2.47-2.27,2.47,2.47,0,0,1,2.26-2.68q3.3-.27,6.63-.51a2.48,2.48,0,0,1,2.65,2.3,2.49,2.49,0,0,1-2.3,2.65c-2.21.15-4.39.32-6.56.5Zm72.68-.67h-.16l-6.57-.36a2.49,2.49,0,0,1-2.36-2.6,2.48,2.48,0,0,1,2.6-2.35c2.2.1,4.41.23,6.63.36a2.49,2.49,0,0,1,2.33,2.63A2.48,2.48,0,0,1,317.29-239.27Zm-59.49-.25a2.47,2.47,0,0,1-2.47-2.34,2.48,2.48,0,0,1,2.33-2.62c2.2-.12,4.42-.23,6.64-.32a2.5,2.5,0,0,1,2.59,2.38,2.49,2.49,0,0,1-2.38,2.58q-3.3.14-6.57.32Zm46.28-.4H304q-3.3-.12-6.57-.2a2.47,2.47,0,0,1-2.42-2.54,2.46,2.46,0,0,1,2.54-2.42q3.3.08,6.64.2a2.47,2.47,0,0,1,2.38,2.57A2.48,2.48,0,0,1,304.08-239.92ZM271-240.07a2.48,2.48,0,0,1-2.47-2.41A2.48,2.48,0,0,1,271-245q3.3-.09,6.64-.14h0a2.49,2.49,0,0,1,2.48,2.45,2.49,2.49,0,0,1-2.45,2.52q-3.3,0-6.57.14Zm19.84-.17h0l-5.73,0h-.86a2.48,2.48,0,0,1-2.48-2.48,2.48,2.48,0,0,1,2.48-2.48h.86l5.78,0a2.48,2.48,0,0,1,2.45,2.51A2.47,2.47,0,0,1,290.85-240.24Z" transform="translate(637.79 245.23)"/><path class="cls-20" d="M1990.29,1003.56s-134,.22-338.28.66c-3-1.31-4.68-2.07-4.68-2.07s23.09-126.34,142.89-153.46,121.22-142.89,196-166c61.53-19,116.53,6.1,153.89-.33C2199.18,869.17,1990.29,1003.56,1990.29,1003.56Z" transform="translate(637.79 245.23)"/><rect class="cls-21" x="109.95" y="1247.39" width="2715.29" height="10.5" rx="3.4"/><path class="cls-22" d="M212.07,543s-1.53,1.63-4.36,4.68c-10.35,11.22-38.44,41.72-69.37,76.79-7.3,8.27-14.82,16.88-22.33,25.48-11.22,13-22.22,25.92-32.46,38.45l-.1.1c-3.16,3.71-6.1,7.3-9,10.89-6.1,7.52-11.77,14.71-17,21.46-15.68,20.48-26.68,37-28.75,45.42-12.52,52.38,11.87,199.85,18.19,235.9h-342.2c10.35-74.93,24.73-180.79,26.58-196.91,2.83-25.38-85.71-134.29-87.24-213.8S-304.93,455.21-296.65,377c4-36.81-.55-84.73-6.43-125.57-3.05-21.68-6.64-41.06-9.47-55.77a20.42,20.42,0,0,1,5.44-18.4,17.9,17.9,0,0,1,3.92-3.16,20.05,20.05,0,0,1,19.28-1.52c19.6,8.38,41.39,30.6,47.05,86,0,0,16.44,10.35,43,27.23,10.78,6.75,23.2,14.6,36.92,23.31,10.56,6.64,21.89,13.83,33.76,21.35.76.43,1.53,1,2.29,1.41,4.79,3.05,9.47,6.1,14.48,9.26h.11c1.74,1.09,3.49,2.28,5.34,3.38q4.74,3.09,9.8,6.2a12.72,12.72,0,0,0,2.07,1.2C-67.5,365.68-45,380.06-22.2,394.55h.11c3.7,2.17,7.41,4.57,11.11,7,2.83,1.85,5.77,3.59,8.71,5.44,3.6,2.4,7.3,4.68,11,7h.11c25.81,16.34,51.08,32.45,74.71,47.38,3.71,2.39,7.41,4.68,11,7,2.94,1.85,5.78,3.7,8.61,5.44,3.81,2.4,7.29,4.68,10.89,7.08h.11c45.09,28.43,79.94,50.64,92.68,58.81C210.22,541.79,212.07,542.88,212.07,543Z" transform="translate(637.79 245.23)"/><path class="cls-23" d="M-285.64,232.29a17.77,17.77,0,0,1-15,18.74l-2.37.36c-3.11-21.58-6.65-41-9.48-55.74-1.4-7.19-3.55-14.1-2.94-21.46,14.89-7.28,20.62,10.33,22.45,17.47C-290,203.28-286.48,218.91-285.64,232.29Z" transform="translate(637.79 245.23)"/><path class="cls-24" d="M116,649.94c-11.22,13-22.22,25.92-32.46,38.45l-.1.1c-3.16,3.71-6.1,7.3-9,10.89-6.1,7.52-11.77,14.71-17,21.46-15.68,20.48-26.68,37-28.75,45.42-12.52,52.38,11.87,199.85,18.19,235.9H-175.76c41.28-61.54,46.61-169.9,46.94-219.68.11-12.52,4.14-27.55,10.67-43.45,12.42-30.72,33.76-65.13,53.37-93.56C-46.7,619.12-30,598-23.29,589.6v-.1c2.18-2.51,3.27-3.93,3.27-3.93l123.07-5.22h.11l1.63,8.71,1.31,7.4,5.66,30.72Z" transform="translate(637.79 245.23)"/><path class="cls-25" d="M202.85,705.81l-368.33,38.07a21.18,21.18,0,0,1-23.17-18.83L-264.77-11.52a21.16,21.16,0,0,1,18.83-23.16L122.38-72.75a21.17,21.17,0,0,1,23.17,18.83l76.12,736.57A21.16,21.16,0,0,1,202.85,705.81Z" transform="translate(637.79 245.23)"/><path class="cls-26" d="M242.62,701.7l-368.33,38.07a21.17,21.17,0,0,1-23.16-18.83L-225-15.63a21.15,21.15,0,0,1,18.82-23.16L162.16-76.86A21.18,21.18,0,0,1,185.33-58l76.12,736.57A21.17,21.17,0,0,1,242.62,701.7Z" transform="translate(637.79 245.23)"/><path class="cls-27" d="M45.75-30.85a4.18,4.18,0,0,0-4.58-3.72l-106.66,11A4.19,4.19,0,0,0-69.21-19a4.19,4.19,0,0,0,4.58,3.72L42-26.27A4.19,4.19,0,0,0,45.75-30.85Z" transform="translate(637.79 245.23)"/><path class="cls-27" d="M-84.43-21.59A4.19,4.19,0,0,0-88.15-17a4.17,4.17,0,0,0,4.57,3.72,4.19,4.19,0,0,0,3.73-4.58A4.19,4.19,0,0,0-84.43-21.59Z" transform="translate(637.79 245.23)"/><path class="cls-28" d="M85.86,674.43a26.91,26.91,0,1,0-24,29.53A26.9,26.9,0,0,0,85.86,674.43Z" transform="translate(637.79 245.23)"/><rect class="cls-29" x="-155" y="2.28" width="342.96" height="633.09" transform="matrix(0.99, -0.1, 0.1, 0.99, 605.1, 248.61)"/><rect class="cls-30" x="-126.23" y="560.44" width="342.96" height="73.49" transform="translate(576.64 253.05) rotate(-5.9)"/><path class="cls-31" d="M-19.25,593l176.07-18.19a3.72,3.72,0,0,0-.77-7.4L-20,585.56a3.73,3.73,0,0,0-3.32,4.09h0A3.73,3.73,0,0,0-19.25,593Z" transform="translate(637.79 245.23)"/><path class="cls-31" d="M161.81,586.9a3.73,3.73,0,0,0-4.08-3.32l-176.07,18.2a3.73,3.73,0,0,0-3.32,4.08,3.75,3.75,0,0,0,4.09,3.32L158.49,591A3.73,3.73,0,0,0,161.81,586.9Z" transform="translate(637.79 245.23)"/><path class="cls-25" d="M-46.92,577a21.31,21.31,0,0,0-1.85-7,24.79,24.79,0,0,0-25.7-15.46A25.12,25.12,0,0,0-96.59,574.9a27.33,27.33,0,0,0-.32,7.3C-95.5,595.92-67.29,624-67.29,624S-45.5,590.8-46.92,577Zm-23.85,14a11.73,11.73,0,0,1-12.85-10.46,12.24,12.24,0,0,1,1.52-7.18,11.89,11.89,0,0,1,8.93-5.78,11.42,11.42,0,0,1,9.91,3.81,11.8,11.8,0,0,1,3,6.65A11.77,11.77,0,0,1-70.77,591Z" transform="translate(637.79 245.23)"/><rect class="cls-25" x="-130.54" y="100.1" width="197.75" height="163.06" transform="translate(593.3 610.77) rotate(174.1)"/><rect class="cls-31" x="-32.11" y="91.54" width="166.46" height="163.06" transform="translate(620.27 251.4) rotate(-5.9)"/><polygon class="cls-28" points="775.83 449.71 780.08 490.84 614.5 507.95 597.74 345.76 775.83 449.71"/><polygon class="cls-31" points="512.02 476.97 543.19 473.75 539.53 465.26 541.63 458.71 510.46 461.93 512.02 476.97"/><polygon class="cls-31" points="505.27 411.64 536.44 408.42 532.78 399.94 534.88 393.38 503.71 396.61 505.27 411.64"/><polygon class="cls-28" points="769.08 384.38 737.91 387.6 739.75 378.55 736.36 372.56 767.52 369.34 769.08 384.38"/><path class="cls-32" d="M-92,319.07a21.88,21.88,0,0,0-3.27-1.74,22.34,22.34,0,0,0-10.13-1.42,20.91,20.91,0,0,0-17.75,14.6,19.5,19.5,0,0,0-.87,8.38,21,21,0,0,0,23,18.62,19.23,19.23,0,0,0,12-5.55,20.25,20.25,0,0,0,6.64-17.43A20.7,20.7,0,0,0-92,319.07Zm.87,31.69a18.24,18.24,0,0,1-10.13,4.36,18.46,18.46,0,0,1-20.25-16.45,17.67,17.67,0,0,1,.65-6.75,18.14,18.14,0,0,1,15.79-13.61,16.17,16.17,0,0,1,8.6,1.31,13.9,13.9,0,0,1,3.6,1.84,18.38,18.38,0,0,1,8.06,13.4A18.34,18.34,0,0,1-91.14,350.76Z" transform="translate(637.79 245.23)"/><polygon class="cls-25" points="522.49 572.46 535.74 593.07 553.49 542.05 534.19 578.06 522.49 572.46"/><path class="cls-32" d="M-74.47,411.32a21,21,0,0,0-9.59-15.58A32.7,32.7,0,0,0-87.33,394a22.55,22.55,0,0,0-10.13-1.42,21,21,0,0,0-18.62,23,20.92,20.92,0,0,0,23,18.62A20.83,20.83,0,0,0-74.47,411.32Zm-19,20.47a18.45,18.45,0,0,1-20.25-16.44,18.55,18.55,0,0,1,16.55-20.26,17.4,17.4,0,0,1,8.6,1.2,13.93,13.93,0,0,1,3.6,1.85,18.32,18.32,0,0,1,8.06,13.39A18.62,18.62,0,0,1-93.43,431.79Z" transform="translate(637.79 245.23)"/><polygon class="cls-25" points="530.41 649.15 543.66 669.76 561.41 618.74 542.11 654.75 530.41 649.15"/><path class="cls-32" d="M-66.53,488a21,21,0,0,0-23-18.73,21,21,0,0,0-18.63,23,21,21,0,0,0,23,18.73A21,21,0,0,0-66.53,488Zm-19,20.48A18.46,18.46,0,0,1-105.73,492a18.46,18.46,0,0,1,16.44-20.26A18.4,18.4,0,0,1-69,488.21,18.46,18.46,0,0,1-85.48,508.47Z" transform="translate(637.79 245.23)"/><path class="cls-32" d="M145.05,307.77l-197,20.35a3.65,3.65,0,0,1-4-3.25l-.08-.8a3.65,3.65,0,0,1,3.25-4l197-20.36a3.67,3.67,0,0,1,4,3.25l.08.81A3.66,3.66,0,0,1,145.05,307.77Z" transform="translate(637.79 245.23)"/><path class="cls-32" d="M146.53,322.11-50.42,342.46a3.64,3.64,0,0,1-4-3.25l-.09-.8a3.65,3.65,0,0,1,3.25-4l197-20.36a3.67,3.67,0,0,1,4,3.26l.08.8A3.65,3.65,0,0,1,146.53,322.11Z" transform="translate(637.79 245.23)"/><path class="cls-32" d="M153,384.59-44,404.94a3.66,3.66,0,0,1-4-3.25l-.08-.8a3.66,3.66,0,0,1,3.25-4l197-20.35a3.66,3.66,0,0,1,4,3.25l.08.8A3.67,3.67,0,0,1,153,384.59Z" transform="translate(637.79 245.23)"/><path class="cls-32" d="M154.47,398.93-42.48,419.28a3.66,3.66,0,0,1-4-3.25l-.08-.8a3.67,3.67,0,0,1,3.25-4l197-20.35a3.67,3.67,0,0,1,4,3.25l.08.8A3.66,3.66,0,0,1,154.47,398.93Z" transform="translate(637.79 245.23)"/><path class="cls-32" d="M160.93,461.4-36,481.76a3.67,3.67,0,0,1-4-3.25l-.08-.81a3.66,3.66,0,0,1,3.25-4l197-20.35a3.66,3.66,0,0,1,4,3.25l.08.8A3.65,3.65,0,0,1,160.93,461.4Z" transform="translate(637.79 245.23)"/><path class="cls-32" d="M162.41,475.74-34.54,496.1a3.67,3.67,0,0,1-4-3.25l-.08-.81a3.66,3.66,0,0,1,3.25-4l197-20.35a3.66,3.66,0,0,1,4,3.25l.08.8A3.65,3.65,0,0,1,162.41,475.74Z" transform="translate(637.79 245.23)"/><path class="cls-22" d="M195.84,44.4S249.3-3.1,284.37,23.85s-78.89,113.8-78.89,113.8Z" transform="translate(637.79 245.23)"/><path class="cls-22" d="M257.7,239.36l-62.13,34.36a37.52,37.52,0,0,1-50.86-14.63l-10.15-18.34a37.54,37.54,0,0,1,14.64-50.86l62.12-34.37a37.54,37.54,0,0,1,50.86,14.64l10.15,18.34A37.54,37.54,0,0,1,257.7,239.36Z" transform="translate(637.79 245.23)"/><path class="cls-22" d="M268.45,343.44l-62.12,34.37a37.53,37.53,0,0,1-50.86-14.63l-10.15-18.34A37.53,37.53,0,0,1,160,294l62.13-34.37a37.54,37.54,0,0,1,50.86,14.63l10.14,18.35A37.51,37.51,0,0,1,268.45,343.44Z" transform="translate(637.79 245.23)"/><path class="cls-22" d="M278.92,444.72l-62.13,34.37a37.53,37.53,0,0,1-50.85-14.63l-10.15-18.35a37.53,37.53,0,0,1,14.63-50.86l62.12-34.36a37.52,37.52,0,0,1,50.86,14.63l10.15,18.34A37.53,37.53,0,0,1,278.92,444.72Z" transform="translate(637.79 245.23)"/><path class="cls-23" d="M137.5,216.2c9.64-7.25,22.79-16.38,34.84-22.13a17.81,17.81,0,0,1,23,6.8L209,223.63a16.83,16.83,0,0,1-5.55,23,301.07,301.07,0,0,1-37,19.66,20.72,20.72,0,0,1-26.21-8.91L132,242.71A20.51,20.51,0,0,1,137.5,216.2Z" transform="translate(637.79 245.23)"/><path class="cls-23" d="M148.55,323.15c9.64-7.25,22.79-16.37,34.84-22.12a17.8,17.8,0,0,1,23,6.8l13.62,22.76a16.83,16.83,0,0,1-5.54,23,301.32,301.32,0,0,1-37,19.65,20.71,20.71,0,0,1-26.21-8.9L143,349.66A20.52,20.52,0,0,1,148.55,323.15Z" transform="translate(637.79 245.23)"/><path class="cls-23" d="M160.88,423.4c9.64-7.25,22.79-16.38,34.84-22.13a17.81,17.81,0,0,1,23,6.8l13.62,22.76a16.84,16.84,0,0,1-5.54,23,301.81,301.81,0,0,1-37,19.66,20.73,20.73,0,0,1-26.22-8.91l-8.27-14.65A20.52,20.52,0,0,1,160.88,423.4Z" transform="translate(637.79 245.23)"/><polygon class="cls-33" points="1134.66 1000.73 1278.28 1023.33 1183.72 956.87 1178.56 977.66 1143.47 983.5 1134.66 1000.73"/><polygon class="cls-31" points="1278.28 1023.33 1159.41 959.86 1042.12 952.27 1278.28 1023.33"/><polygon class="cls-31" points="1183.72 956.87 1278.28 1023.33 1205.81 920.54 1183.72 956.87"/><polygon class="cls-33" points="973.16 129.7 861.63 72.23 961.36 74.14 954.35 91.26 975.81 113.21 973.16 129.7"/><polygon class="cls-31" points="861.63 72.23 976.76 88.62 1062.31 143.12 861.63 72.23"/><polygon class="cls-31" points="961.36 74.14 861.63 72.23 964.49 37.58 961.36 74.14"/></svg>