<svg xmlns="http://www.w3.org/2000/svg" xmlns:xlink="http://www.w3.org/1999/xlink" viewBox="0 0 2011.52 1310.17"><defs><style>.cls-1{fill:#d10513;}.cls-2{fill:#daeaee;}.cls-3{fill:#fff;}.cls-4{fill:#5b71a8;}.cls-5{fill:url(#linear-gradient);}.cls-6{fill:url(#linear-gradient-2);}.cls-7{fill:url(#linear-gradient-3);}.cls-8{fill:url(#linear-gradient-4);}.cls-9{fill:url(#linear-gradient-5);}.cls-10{fill:url(#linear-gradient-6);}.cls-11{fill:url(#linear-gradient-7);}.cls-12{fill:#49bcbb;}.cls-13{fill:#7ea8af;}.cls-14{fill:#d63636;}.cls-15{fill:url(#linear-gradient-8);}.cls-16{fill:url(#linear-gradient-9);}.cls-17,.cls-36,.cls-38,.cls-47,.cls-50,.cls-51{fill:#191e4c;}.cls-17{opacity:0.15;}.cls-18{fill:url(#linear-gradient-10);}.cls-19{fill:url(#linear-gradient-11);}.cls-20{fill:#bad2d6;}.cls-21{fill:#8aa5aa;}.cls-22{fill:url(#linear-gradient-12);}.cls-23{fill:url(#linear-gradient-13);}.cls-24{fill:url(#linear-gradient-14);}.cls-25{fill:url(#linear-gradient-15);}.cls-26{fill:url(#linear-gradient-16);}.cls-27{fill:url(#linear-gradient-17);}.cls-28{fill:url(#linear-gradient-18);}.cls-29{fill:url(#linear-gradient-19);}.cls-30{fill:url(#linear-gradient-20);}.cls-31{fill:url(#linear-gradient-21);}.cls-32{opacity:0.35;fill:url(#linear-gradient-22);}.cls-33{fill:url(#linear-gradient-23);}.cls-34{fill:url(#linear-gradient-24);}.cls-35{fill:url(#linear-gradient-25);}.cls-36{opacity:0.11;}.cls-37{fill:url(#linear-gradient-26);}.cls-38{opacity:0.23;}.cls-39{fill:url(#linear-gradient-27);}.cls-40{fill:url(#linear-gradient-28);}.cls-41{fill:url(#linear-gradient-29);}.cls-42{fill:url(#linear-gradient-30);}.cls-43{fill:url(#linear-gradient-31);}.cls-44{fill:url(#linear-gradient-32);}.cls-45{fill:url(#linear-gradient-33);}.cls-46{fill:url(#linear-gradient-34);}.cls-48{fill:url(#linear-gradient-35);}.cls-49{fill:url(#linear-gradient-36);}.cls-50{opacity:0.1;}.cls-51{opacity:0.16;}.cls-52{fill:url(#linear-gradient-37);}.cls-53{fill:url(#linear-gradient-38);}.cls-54{opacity:0.37;fill:url(#linear-gradient-39);}.cls-55{fill:url(#linear-gradient-40);}.cls-56{fill:url(#linear-gradient-41);}.cls-57{opacity:0.22;fill:url(#linear-gradient-42);}</style><linearGradient id="linear-gradient" x1="271.18" y1="764.23" x2="273.82" y2="764.23" gradientTransform="translate(744.64 104.39) rotate(55.21)" gradientUnits="userSpaceOnUse"><stop offset="0" stop-color="#304598"/><stop offset="1" stop-color="#4abbba"/></linearGradient><linearGradient id="linear-gradient-2" x1="288.89" y1="869.8" x2="560" y2="869.8" gradientTransform="matrix(1, 0, 0, 1, 0, 0)" xlink:href="#linear-gradient"/><linearGradient id="linear-gradient-3" x1="575.08" y1="975.83" x2="578.17" y2="975.83" gradientTransform="matrix(1, 0, 0, 1, 0, 0)" xlink:href="#linear-gradient"/><linearGradient id="linear-gradient-4" x1="576.06" y1="1140.05" x2="578.17" y2="1140.05" gradientTransform="matrix(1, 0, 0, 1, 0, 0)" xlink:href="#linear-gradient"/><linearGradient id="linear-gradient-5" x1="576.06" y1="1303.33" x2="578.17" y2="1303.33" gradientTransform="matrix(1, 0, 0, 1, 0, 0)" xlink:href="#linear-gradient"/><linearGradient id="linear-gradient-6" x1="1426.86" y1="2236.55" x2="1256.92" y2="1195.66" gradientTransform="matrix(-0.97, -0.25, -0.25, 0.97, 3199.99, -118.82)" gradientUnits="userSpaceOnUse"><stop offset="0" stop-color="#31439a"/><stop offset="1" stop-color="#49bcbb"/></linearGradient><linearGradient id="linear-gradient-7" x1="705.69" y1="851.27" x2="2537.77" y2="3077.81" xlink:href="#linear-gradient-6"/><linearGradient id="linear-gradient-8" x1="832.3" y1="1173.52" x2="1102.93" y2="1173.52" gradientUnits="userSpaceOnUse"><stop offset="0" stop-color="#d66827"/><stop offset="1" stop-color="#c32727"/></linearGradient><linearGradient id="linear-gradient-9" x1="903.16" y1="970.19" x2="1363.23" y2="1587.58" xlink:href="#linear-gradient-8"/><linearGradient id="linear-gradient-10" x1="683.98" y1="1232.35" x2="881.86" y2="1232.35" xlink:href="#linear-gradient-8"/><linearGradient id="linear-gradient-11" x1="737.31" y1="1105.21" x2="1062.82" y2="1542.02" xlink:href="#linear-gradient-8"/><linearGradient id="linear-gradient-12" x1="1305.93" y1="754.29" x2="1243.61" y2="841.69" gradientUnits="userSpaceOnUse"><stop offset="0" stop-color="#b53c7e"/><stop offset="0.58" stop-color="#e77172"/><stop offset="1" stop-color="#f3e4cd"/></linearGradient><linearGradient id="linear-gradient-13" x1="1274.96" y1="723.97" x2="1320.71" y2="797.93" gradientUnits="userSpaceOnUse"><stop offset="0" stop-color="#fff4de"/><stop offset="1" stop-color="#d26666"/></linearGradient><linearGradient id="linear-gradient-14" x1="796.21" y1="1225.2" x2="816.43" y2="1258.6" gradientTransform="matrix(-1, 0, 0, 1, 2025.99, 0)" gradientUnits="userSpaceOnUse"><stop offset="0" stop-color="#231e5d"/><stop offset="1" stop-color="#2c327e"/></linearGradient><linearGradient id="linear-gradient-15" x1="841.39" y1="1307.9" x2="553.12" y2="1197.96" gradientTransform="matrix(1, 0, 0, -1, 356.64, 2610.67)" xlink:href="#linear-gradient-14"/><linearGradient id="linear-gradient-16" x1="6102.82" y1="1225.2" x2="6123.03" y2="1258.6" gradientTransform="translate(-5048.15)" xlink:href="#linear-gradient-14"/><linearGradient id="linear-gradient-17" x1="6147.99" y1="1307.9" x2="5859.73" y2="1197.96" gradientTransform="translate(-5048.15)" xlink:href="#linear-gradient-14"/><linearGradient id="linear-gradient-18" x1="911.21" y1="431.94" x2="2571.69" y2="1320.89" gradientTransform="matrix(1, 0, 0, 1, 0, 0)" xlink:href="#linear-gradient"/><linearGradient id="linear-gradient-19" x1="1161.19" y1="953.67" x2="886.73" y2="822.54" gradientTransform="matrix(1, 0, 0, 1, 0, 0)" xlink:href="#linear-gradient-14"/><linearGradient id="linear-gradient-20" x1="-3659.1" y1="991.74" x2="-3945.17" y2="912.95" gradientTransform="matrix(-1, 0, 0, 1, -2702.96, 0)" xlink:href="#linear-gradient-14"/><linearGradient id="linear-gradient-21" x1="1385.44" y1="533.04" x2="967.65" y2="477.38" gradientTransform="matrix(1, 0, 0, 1, 0, 0)" xlink:href="#linear-gradient"/><linearGradient id="linear-gradient-22" x1="1295.49" y1="567.17" x2="1151.01" y2="498.14" gradientTransform="matrix(1, 0, 0, 1, 0, 0)" xlink:href="#linear-gradient-14"/><linearGradient id="linear-gradient-23" x1="-3972.96" y1="199.91" x2="-3957.41" y2="240.93" gradientTransform="matrix(-1, 0, 0, 1, -2794.27, 0)" gradientUnits="userSpaceOnUse"><stop offset="0" stop-color="#60a69e"/><stop offset="1" stop-color="#4f8688"/></linearGradient><linearGradient id="linear-gradient-24" x1="1103.75" y1="199.91" x2="1119.31" y2="240.93" gradientTransform="matrix(1, 0, 0, 1, 0, 0)" xlink:href="#linear-gradient-23"/><linearGradient id="linear-gradient-25" x1="1219.84" y1="124.95" x2="1151.99" y2="222.53" xlink:href="#linear-gradient-13"/><linearGradient id="linear-gradient-26" x1="1220.25" y1="195.47" x2="1103.73" y2="162.36" xlink:href="#linear-gradient-13"/><linearGradient id="linear-gradient-27" x1="1125.47" y1="497.75" x2="964.6" y2="485.55" gradientTransform="matrix(1, 0, 0, 1, 0, 0)" xlink:href="#linear-gradient"/><linearGradient id="linear-gradient-28" x1="1088.59" y1="400.35" x2="919.34" y2="446.86" gradientTransform="matrix(1, 0, 0, 1, 0, 0)" xlink:href="#linear-gradient"/><linearGradient id="linear-gradient-29" x1="1049.69" y1="478.32" x2="1386.67" y2="496.62" gradientTransform="matrix(1, 0, 0, 1, 0, 0)" xlink:href="#linear-gradient"/><linearGradient id="linear-gradient-30" x1="1100.16" y1="254.16" x2="1121.17" y2="254.16" gradientTransform="matrix(1, 0, 0, 1, 0, 0)" xlink:href="#linear-gradient-23"/><linearGradient id="linear-gradient-31" x1="-3976.55" y1="254.16" x2="-3955.54" y2="254.16" xlink:href="#linear-gradient-23"/><linearGradient id="linear-gradient-32" x1="1105.61" y1="545.91" x2="905.87" y2="572.85" gradientTransform="translate(172.64 -231.74) rotate(14.54)" xlink:href="#linear-gradient-8"/><linearGradient id="linear-gradient-33" x1="840.88" y1="331.03" x2="1121.44" y2="538.4" gradientTransform="matrix(1, 0, 0, 1, 0, 0)" xlink:href="#linear-gradient"/><linearGradient id="linear-gradient-34" x1="889.12" y1="513.06" x2="954.69" y2="642.67" xlink:href="#linear-gradient-13"/><linearGradient id="linear-gradient-35" x1="1133.23" y1="190.39" x2="1097.66" y2="158.89" xlink:href="#linear-gradient-12"/><linearGradient id="linear-gradient-36" x1="-4093.43" y1="190.39" x2="-4129.01" y2="158.89" gradientTransform="matrix(-1, 0, 0, 1, -2945.38, 0)" xlink:href="#linear-gradient-12"/><linearGradient id="linear-gradient-37" x1="1146.88" y1="227.94" x2="1142.81" y2="181.18" xlink:href="#linear-gradient-13"/><linearGradient id="linear-gradient-38" x1="1143.43" y1="205.82" x2="1143.04" y2="201.37" xlink:href="#linear-gradient-13"/><linearGradient id="linear-gradient-39" x1="1155.7" y1="228.19" x2="1147.31" y2="212.94" xlink:href="#linear-gradient-13"/><linearGradient id="linear-gradient-40" x1="958.7" y1="446.17" x2="1293.64" y2="689.62" xlink:href="#linear-gradient-8"/><linearGradient id="linear-gradient-41" x1="1004.6" y1="555.01" x2="1070.16" y2="625.92" gradientTransform="translate(187.08 -245.52) rotate(14.54)" xlink:href="#linear-gradient-8"/><linearGradient id="linear-gradient-42" x1="1111.94" y1="83.01" x2="1162.8" y2="138.01" gradientTransform="matrix(1, 0, 0, 1, 0, 0)" xlink:href="#linear-gradient"/></defs><title>about</title><g id="Layer_2" data-name="Layer 2"><g id="Layer_1-2" data-name="Layer 1"><path class="cls-1" d="M1393.46,1306h617.21s-71.8-128.14-146.86-82-50.12-132.6-207.82-111.78-101.25,192.5-213.35,151.37S1322.85,1306,1322.85,1306Z"/><path class="cls-2" d="M2011.52,1306.47H1322.3l0-.55c0-.29,2.93-28.94,27.4-44.41,21.64-13.68,53-13.15,93.06,1.56,54.07,19.84,68.74-10.47,87.33-48.84,19.82-40.9,44.48-91.81,125.79-102.55,39.51-5.22,71,1.47,96.4,20.45,21.82,16.35,35.29,38.78,47.18,58.58,11.65,19.41,21.71,36.17,36.1,39.68,8.06,2,17.21-.27,27.94-6.87,16-9.85,33.18-12.49,51-7.86,53.37,13.88,96.16,89.3,96.58,90.06Zm-688.11-1H2009.8c-4.6-7.9-45.42-75.81-95.53-88.85-17.52-4.56-34.41-1.95-50.2,7.76-11,6.73-20.36,9-28.7,7-14.79-3.61-24.95-20.54-36.72-40.14s-25.25-42.06-46.92-58.29c-25.14-18.81-56.43-25.44-95.67-20.26-80.78,10.67-105.31,61.31-125,102-14.7,30.35-27,55.71-57.89,55.71-8.62,0-18.7-2-30.68-6.37-39.8-14.6-70.81-15.16-92.18-1.66C1328.1,1276.37,1323.94,1301.45,1323.41,1305.47Z"/><polygon class="cls-3" points="271.78 798.47 0.5 985.38 0.5 1302.73 271.78 1302.73 543.05 1302.73 543.05 985.38 271.78 798.47"/><path class="cls-4" d="M543.55,1303.23H0V985.12L.22,985,271.78,797.86l.28.2L543.55,985.12ZM1,1302.23H542.55V985.64L271.78,799.08,1,985.64Z"/><rect class="cls-5" x="271.44" y="763.35" width="2.1" height="1.75" transform="translate(-510.6 551.97) rotate(-55.21)"/><path class="cls-6" d="M558.8,964.44l-2.8-2,1.2-1.73,2.8,2Zm-19.08-13.26-2.8-1.95,1.2-1.73,2.8,2Zm-19.07-13.25L517.84,936l1.2-1.73,2.81,2Zm-19.08-13.26-2.81-1.95L500,921l2.81,2Zm-19.08-13.26-2.81-1.95,1.2-1.72,2.81,1.94Zm-19.08-13.25-2.81-1.95,1.2-1.73,2.81,1.95ZM444.33,884.9,441.52,883l1.2-1.73,2.81,1.95Zm-19.08-13.26-2.81-1.95,1.2-1.72,2.81,1.94Zm-19.08-13.25-2.8-1.95,1.2-1.73,2.8,1.95Zm-19.08-13.26-2.8-2,1.2-1.73,2.8,1.95ZM368,831.87l-2.8-2,1.2-1.72,2.8,1.95Zm-19.08-13.25-2.8-2,1.2-1.73,2.8,1.95Zm-19.08-13.26-2.8-2,1.2-1.73,2.8,2ZM310.77,792.1l-2.8-2,1.2-1.72,2.8,2ZM291.7,778.85l-2.81-2,1.2-1.73,2.81,2Z"/><polygon class="cls-7" points="578.17 977.64 576.07 977.64 576.07 976.43 575.08 975.75 576.28 974.02 578.17 975.33 578.17 977.64"/><path class="cls-8" d="M578.17,1282.46h-2.11V1279h2.11Zm0-23.45h-2.11v-3.45h2.11Zm0-23.45h-2.11v-3.45h2.11Zm0-23.45h-2.11v-3.44h2.11Zm0-23.44h-2.11v-3.45h2.11Zm0-23.45h-2.11v-3.45h2.11Zm0-23.45h-2.11v-3.45h2.11Zm0-23.45h-2.11v-3.45h2.11Zm0-23.45h-2.11v-3.44h2.11Zm0-23.44h-2.11V1068h2.11Zm0-23.45h-2.11v-3.45h2.11Zm0-23.45h-2.11v-3.45h2.11Zm0-23.45h-2.11v-3.45h2.11Z"/><rect class="cls-9" x="576.06" y="1302.46" width="2.1" height="1.75"/><path class="cls-10" d="M1826.74,628.58S1706.32,659.9,1669.25,794s-69.39-82.27-131.61,5.21,26.06,297.5-75,286.64-77,202.88-77,202.88S1734.38,1091,1826.74,628.58Z"/><path class="cls-11" d="M1385.58,1288.77s259.66-254.24,343-509.81,186.46-135.05,96.82-10.58,80.48,22.45,32.9,116.12S1670.6,1024,1754.91,1032.13s129.26,97.33,28.78,140.66-250.15,54.72-211.61,93.4S1438.18,1317.08,1385.58,1288.77Z"/><path class="cls-2" d="M805.59,1306H1615s-4.6-171.77-133-133-173.78-172.06-173.21-261.67-112-195.33-250.47-115.47-80.43,291.83-252.77,237.26-159.7,197-288.39,145.34-176.94,130.4-176.94,130.4Z"/><path class="cls-3" d="M1580.32,511.94v728.55a69.18,69.18,0,0,1-69.18,69.18H1220.43a69.18,69.18,0,0,1-69.18-69.18V511.94a69.18,69.18,0,0,1,69.18-69.18h290.71A69.18,69.18,0,0,1,1580.32,511.94Z"/><path class="cls-4" d="M1511.14,1310.17H1220.43a69.75,69.75,0,0,1-69.68-69.68V511.94a69.76,69.76,0,0,1,69.68-69.68h290.71a69.76,69.76,0,0,1,69.68,69.68v728.55A69.75,69.75,0,0,1,1511.14,1310.17ZM1220.43,443.26a68.76,68.76,0,0,0-68.68,68.68v728.55a68.76,68.76,0,0,0,68.68,68.68h290.71a68.76,68.76,0,0,0,68.68-68.68V511.94a68.76,68.76,0,0,0-68.68-68.68Z"/><rect class="cls-1" x="1165.44" y="456.95" width="400.7" height="838.54" rx="51.86"/><path class="cls-2" d="M1514.27,1296h-297a52.42,52.42,0,0,1-52.36-52.37V508.81a52.42,52.42,0,0,1,52.36-52.36h297a52.42,52.42,0,0,1,52.37,52.36v734.81A52.43,52.43,0,0,1,1514.27,1296Zm-297-838.54a51.42,51.42,0,0,0-51.36,51.36v734.81A51.43,51.43,0,0,0,1217.3,1295h297a51.44,51.44,0,0,0,51.37-51.37V508.81a51.43,51.43,0,0,0-51.37-51.36Z"/><path class="cls-12" d="M613,1102.66l-1.83-.81s1.89-4.23,5.42-10.87l1.77.94C614.84,1098.49,613,1102.62,613,1102.66Zm15.37-28-1.69-1.06c2.13-3.41,4.35-6.81,6.6-10.09l1.65,1.13C632.68,1067.87,630.47,1071.24,628.35,1074.63Zm18.42-26.07-1.56-1.25c2.53-3.17,5.14-6.28,7.75-9.24l1.5,1.32C651.87,1042.33,649.29,1045.41,646.77,1048.56Zm21.54-23.48-1.37-1.46c3-2.8,6-5.48,9.06-8l1.27,1.55C674.27,1019.66,671.25,1022.31,668.31,1025.08Zm25.05-19.54-1.07-1.69c3.46-2.17,7-4.18,10.5-6l.91,1.78C700.24,1001.42,696.76,1003.4,693.36,1005.54Zm124.79-10.72h-1.54l0-2c4.09.05,8.07-.08,11.88-.38l.16,2C825.28,994.69,821.74,994.82,818.15,994.82Zm-21.6-1.42c-3.85-.48-7.86-1.09-11.91-1.82l.35-2c4,.72,8,1.33,11.81,1.81ZM722,992.14l-.6-1.91a108.67,108.67,0,0,1,11.72-3l.38,2A109.38,109.38,0,0,0,722,992.14ZM848.51,991l-.53-1.92a84.89,84.89,0,0,0,11.15-3.94l.8,1.83A85.58,85.58,0,0,1,848.51,991Zm-83.48-3a105.23,105.23,0,0,0-11.86-.7v-2a109.2,109.2,0,0,1,12.09.71Zm112.25-11.38-1.22-1.58a87.47,87.47,0,0,0,8.82-7.89l1.43,1.4A89.23,89.23,0,0,1,877.28,976.68ZM899,953l-1.65-1.14c2.13-3.11,4.22-6.41,6.37-10.08l1.72,1C903.28,946.48,901.17,949.82,899,953Zm15.92-27.89-1.8-.9c1.53-3.06,3.15-6.38,5.25-10.78l1.8.87C918.08,918.68,916.46,922,914.93,925.09Z"/><path class="cls-2" d="M1589.63,496.2l3.62,8.09h-71l-22.33-61.53h7.33A90.25,90.25,0,0,1,1589.63,496.2Z"/><path class="cls-13" d="M1594,504.79h-72.14l-.12-.33-22.57-62.2h8A90.87,90.87,0,0,1,1590.09,496Zm-71.43-1h69.88l-3.3-7.39a89.84,89.84,0,0,0-81.94-53.14h-6.62Z"/><path class="cls-2" d="M1593.25,504.29s-24.63,51.51-71,0Z"/><path class="cls-13" d="M1561.24,527.68c-12.36,0-25.58-7.73-39.38-23.06l-.75-.83H1594l-.34.71c-.1.21-9.87,20.22-28.3,22.88A28.9,28.9,0,0,1,1561.24,527.68Zm-37.88-22.89c14.85,16.21,28.93,23.47,41.89,21.61,15.94-2.3,25.25-18,27.17-21.61Z"/><polygon class="cls-14" points="1499.9 442.76 1436.91 442.76 1454.09 504.29 1522.23 504.29 1499.9 442.76"/><path class="cls-13" d="M1523,504.79h-69.24l-.1-.37-17.36-62.16h64l.12.33Zm-68.48-1h67l-22-60.53h-62Z"/><path class="cls-14" d="M1522.23,504.29s-25.19,47.22-68.14,0Z"/><path class="cls-13" d="M1490.82,525.77c-11.86,0-24.32-7.09-37.1-21.15l-.76-.83h70.11l-.39.73c-.1.19-10.22,18.79-28.22,21A29.51,29.51,0,0,1,1490.82,525.77Zm-35.6-21c13.6,14.66,26.75,21.31,39.12,19.77,15.46-1.93,25-16.33,27-19.77Z"/><polygon class="cls-2" points="1436.91 442.76 1454.09 504.29 1383.08 504.29 1383.08 442.76 1436.91 442.76"/><path class="cls-13" d="M1454.75,504.79h-72.17V442.26h54.71l.1.37Zm-71.17-1h69.85l-16.9-60.53h-53Z"/><path class="cls-2" d="M1454.09,504.29s-24.63,51.51-71,0Z"/><path class="cls-13" d="M1422.08,527.68c-12.36,0-25.58-7.73-39.38-23.06l-.75-.83h72.93l-.34.71c-.1.21-9.87,20.22-28.3,22.88A28.79,28.79,0,0,1,1422.08,527.68Zm-37.87-22.89c14.84,16.21,28.94,23.48,41.89,21.6,15.94-2.3,25.25-18,27.17-21.6Z"/><rect class="cls-14" x="1324.09" y="442.76" width="58.99" height="61.53" transform="translate(2707.17 947.05) rotate(180)"/><path class="cls-13" d="M1383.58,504.79h-60V442.26h60Zm-59-1h58V443.26h-58Z"/><path class="cls-14" d="M1383.08,504.29s-30.36,45.78-59,0Z"/><path class="cls-13" d="M1352.1,525.14h-.3c-10.21-.14-19.68-7.06-28.13-20.59l-.48-.76H1384l-.52.77C1383.35,504.77,1369.65,525.14,1352.1,525.14ZM1325,504.79c8.14,12.71,17.15,19.22,26.81,19.35h.3c15.07,0,27.32-15.65,30-19.35Z"/><path class="cls-2" d="M1119.69,491.38l-5.77,12.91h71l22.34-61.53h-12.61A82.1,82.1,0,0,0,1119.69,491.38Z"/><path class="cls-13" d="M1185.28,504.79h-72.13l6.08-13.62a82.71,82.71,0,0,1,75.43-48.91H1208l-.24.67Zm-70.59-1h69.89l22-60.53h-11.89a81.73,81.73,0,0,0-74.52,48.32Z"/><path class="cls-2" d="M1113.92,504.29s24.63,51.51,71,0Z"/><path class="cls-13" d="M1145.93,527.68a29,29,0,0,1-4.17-.3c-18.43-2.66-28.19-22.67-28.29-22.88l-.34-.71h72.92l-.75.83C1171.51,519.94,1158.28,527.68,1145.93,527.68Zm-31.19-22.89c1.92,3.56,11.24,19.31,27.17,21.61,13,1.87,27-5.4,41.89-21.61Z"/><polygon class="cls-14" points="1207.27 442.76 1270.26 442.76 1253.08 504.29 1184.93 504.29 1207.27 442.76"/><path class="cls-13" d="M1253.46,504.79h-69.24l.24-.67,22.46-61.86h64l-.18.64Zm-67.81-1h67l16.9-60.53h-62Z"/><path class="cls-14" d="M1184.93,504.29s25.2,47.22,68.15,0Z"/><path class="cls-13" d="M1216.34,525.77a29.51,29.51,0,0,1-3.64-.22c-18-2.24-28.11-20.84-28.21-21l-.39-.73h70.11l-.76.83C1240.67,518.68,1228.2,525.77,1216.34,525.77Zm-30.54-21c2.07,3.44,11.58,17.85,27,19.77,12.36,1.54,25.51-5.12,39.1-19.77Z"/><polygon class="cls-2" points="1270.26 442.76 1253.08 504.29 1324.09 504.29 1324.09 442.76 1270.26 442.76"/><path class="cls-13" d="M1324.59,504.79h-72.17l.18-.64,17.28-61.89h54.71Zm-70.85-1h69.85V443.26h-52.95Z"/><path class="cls-2" d="M1253.08,504.29s24.62,51.51,71,0Z"/><path class="cls-13" d="M1285.09,527.68a29,29,0,0,1-4.17-.3c-18.43-2.66-28.2-22.67-28.29-22.88l-.34-.71h72.92l-.75.83C1310.66,519.94,1297.44,527.68,1285.09,527.68Zm-31.19-22.89c1.92,3.56,11.24,19.31,27.17,21.61,13,1.86,27-5.4,41.89-21.61Z"/><path class="cls-2" d="M896.66,245.62c57,0,78.1-1.78,73.31-16s-12.13-23.73-26.55-19-9.08-32.64-31.1-36.8-30.41,26.71-39.53,20.77-34.86-9.28-38.07,14.94-25.84-1.29-36.13,9.39S779.91,245.62,896.66,245.62Z"/><path class="cls-2" d="M1360.33,363.45c26,0,35.59-.81,33.4-7.3s-5.52-10.82-12.1-8.66-4.13-14.87-14.17-16.76-13.85,12.17-18,9.46S1333.57,336,1332.1,347s-11.77-.59-16.46,4.28S1307.12,363.45,1360.33,363.45Z"/><path class="cls-3" d="M1345.38,92.91c72.91,0,100-2.27,93.84-20.51s-15.53-30.38-34-24.3S1393.61,6.32,1365.43,1s-38.93,34.18-50.6,26.59-44.62-11.89-48.73,19.12-33.08-1.65-46.25,12S1195.93,92.91,1345.38,92.91Z"/><path class="cls-4" d="M1345.38,93.41c-83.58,0-126.89-6.33-132.43-19.35-2.31-5.43,2-11,6.54-15.67,5.81-6,14.43-3.43,22.76-.9,6.83,2.07,13.29,4,17.73,1.17,3-1.91,4.81-5.84,5.62-12,1.43-10.76,6.57-18.46,14.88-22.28,12.12-5.58,27.82-1.63,34.62,2.8,4.64,3,9.34-2.22,15.28-8.85,8.35-9.31,18.75-20.9,35.14-17.81,15.25,2.88,20.48,18.11,24.68,30.34,3.74,10.88,6.69,19.47,14.87,16.77,21.25-7,29.93,10.71,34.62,24.63,1.38,4.1,1.12,7.41-.81,10.09C1432.07,91.81,1404.53,93.41,1345.38,93.41Zm-116.53-37.7a11.36,11.36,0,0,0-8.64,3.37c-4.3,4.47-8.42,9.69-6.34,14.59,5.29,12.44,49.53,18.74,131.51,18.74,58.8,0,86.13-1.54,92.69-10.65,1.72-2.41,1.94-5.41.67-9.2-7.33-21.77-17.61-29.17-33.35-24-9.12,3-12.37-6.45-16.13-17.39-4.34-12.62-9.25-26.92-23.93-29.69-15.83-3-26,8.37-34.2,17.5-6.27,7-11.22,12.5-16.58,9-6.61-4.31-21.88-8.15-33.65-2.74-8.1,3.73-12.91,11-14.3,21.51-.86,6.48-2.85,10.64-6.08,12.72-4.83,3.11-11.5,1.09-18.56-1C1237.49,57.09,1232.93,55.71,1228.85,55.71Z"/><path class="cls-3" d="M919.41,254.16c20.31,0,27.85-.64,26.14-5.72s-4.33-8.46-9.47-6.77S932.84,230,925,228.55s-10.84,9.52-14.1,7.41-12.43-3.32-13.57,5.32-9.22-.46-12.89,3.35S877.77,254.16,919.41,254.16Z"/><path class="cls-4" d="M919.41,254.66c-31.23,0-36.21-3.21-37.23-5.62-.73-1.71.63-3.44,1.89-4.75,1.78-1.85,4.4-1,6.71-.35,1.82.55,3.54,1.08,4.64.37.73-.47,1.19-1.48,1.4-3.09.42-3.13,1.92-5.37,4.35-6.49,3.54-1.63,8-.51,10,.81,1,.64,2-.44,3.79-2.41,2.26-2.52,5.35-6,10.12-5.07,4.46.84,5.95,5.19,7.15,8.69,1.12,3.25,1.83,5.05,3.69,4.44,6.22-2.05,8.75,3.07,10.1,7.09a3.33,3.33,0,0,1-.27,3.14C943.75,254.21,936.34,254.66,919.41,254.66Zm-32.47-10.51a2.84,2.84,0,0,0-2.15.83c-1.11,1.16-2.19,2.5-1.69,3.67,1,2.28,8.06,5,36.31,5,15.92,0,23.8-.43,25.52-2.82a2.32,2.32,0,0,0,.14-2.24c-2-5.83-4.68-7.82-8.83-6.46-2.88,1-3.89-2-5-5.07-1.18-3.42-2.51-7.3-6.39-8-4.22-.8-7,2.29-9.2,4.76-1.78,2-3.32,3.72-5.08,2.58a10.5,10.5,0,0,0-9-.74c-2.13,1-3.4,2.9-3.77,5.71-.26,1.92-.86,3.16-1.86,3.8-1.48,1-3.51.34-5.47-.25A13.22,13.22,0,0,0,886.94,244.15Z"/><rect class="cls-15" x="832.3" y="1038.21" width="270.63" height="270.63"/><rect class="cls-16" x="823.04" y="1038.21" width="288.21" height="35.7"/><polygon class="cls-17" points="832.3 1073.9 1102.93 1073.9 1102.93 1140.88 832.3 1093.73 832.3 1073.9"/><rect class="cls-17" x="832.3" y="1140.88" width="74.92" height="167.95"/><rect class="cls-18" x="683.98" y="1155.87" width="197.87" height="152.97"/><rect class="cls-19" x="677.22" y="1155.87" width="210.73" height="20.18"/><polygon class="cls-17" points="683.99 1176.04 881.86 1176.04 881.86 1213.9 683.99 1187.25 683.99 1176.04"/><polygon class="cls-20" points="1561.76 279.34 1584.47 324.18 1735.21 157.18 1561.76 279.34"/><path class="cls-13" d="M1584.35,325.05l-23.23-45.87,177.46-125Zm-21.94-45.55,22.17,43.8,147.27-163.14Z"/><polygon class="cls-2" points="1587.19 293.44 1735.21 157.18 1676.33 327.49 1587.19 293.44"/><path class="cls-13" d="M1676.64,328.14l-90.38-34.52.59-.55,149.49-137.6Zm-88.52-34.88L1676,326.83l58.06-167.94Z"/><polygon class="cls-21" points="1587.19 293.44 1584.47 324.18 1606.04 300.64 1587.19 293.44"/><path class="cls-13" d="M1583.84,325.6l2.91-32.86,20.15,7.69Zm3.79-31.46-2.54,28.61,20.08-21.91Z"/><polygon class="cls-2" points="1735.21 157.18 1561.76 279.34 1494.85 248.62 1735.21 157.18"/><path class="cls-13" d="M1561.82,279.92l-.27-.12-68-31.22,1.12-.43,244.08-92.85Zm-65.68-31.26,65.57,30.11,170-119.71Z"/><path class="cls-22" d="M1296,792.75s-11.86,8.08-9.43,4,6.46-9.7,6.46-9.7-8.24,7.39-10.85,5.31,10-9.08,10-9.08-11.27,7-10.48,4.31,9.68-8.08,9.68-8.08,8.62-9.32,0-21.36,14.54-6.92,14.54-6.92Z"/><path class="cls-23" d="M1293.67,732.29s-23.8,43.49-17.34,43,6.66-19.93,17.34-16.7-3.68,43.1,0,44.18,17.68-30.17,20.37-60.34l-5.38-14Z"/><path class="cls-24" d="M1180.49,1274.93s20.79,13.82,34.66,9.21,19.06,18.43,19.06,18.43h-85.78v-27.64Z"/><rect class="cls-25" x="1148.43" y="1302.57" width="85.78" height="5.53" transform="translate(2382.64 2610.67) rotate(180)"/><path class="cls-26" d="M1104,1274.93s-20.79,13.82-34.66,9.21-19.06,18.43-19.06,18.43H1136v-27.64Z"/><rect class="cls-27" x="1050.24" y="1302.57" width="85.78" height="5.53"/><path class="cls-28" d="M1030.66,714.09s26.67-31.11,63-37.17,92.93,24.24,92.93,24.24L1267,666s-17.69-195.61-18.51-198.71-81.23-116.46-81.23-116.46l-84.51,87.28L1040,486.31S964,621.56,1030.66,714.09Z"/><path class="cls-29" d="M1072.69,592.88s-21.2,80.4-15.85,207.68S1100.16,1277,1100.16,1277h40.44s34.92-348.32,3.1-556V592.88Z"/><path class="cls-30" d="M1211.71,592.88s21.19,80.4,15.85,207.68S1184.23,1277,1184.23,1277h-40.44s-34.91-348.32-3.09-556V592.88Z"/><path class="cls-31" d="M1249.66,297.1s61,90.11,71.93,268.3,0,177,0,177l-33.54-12.12-51-301.84Z"/><path class="cls-32" d="M1248.5,378.09s58.49,163,39.55,352.17L1260,565.64l-18.38-123.88Z"/><path class="cls-33" d="M1182.29,240.48s-1.22-8-38.59-5.8l3.64,24.44,30.1,1.62Z"/><path class="cls-34" d="M1100.16,240.48s1.21-8,38.59-5.8l-3.64,24.44-30.1,1.62Z"/><path class="cls-35" d="M1113.41,199l5.29,80.64s23.81,11.86,48.6,0l.75-84.74Z"/><path class="cls-36" d="M1114,207.61l2.41,37.6,6.87-18.8s28.37,30.47,44.43-18.33Z"/><path class="cls-37" d="M1109.2,137.27l4.75,70.34s26.62,48.47,53.71.47l4.27-70.81S1137.72,90.22,1109.2,137.27Z"/><path class="cls-1" d="M1118.7,264s-71.07,20.2-74.3,63,28.29,265.88,28.29,265.88h139s16.69-204.27,25-267.49c5.66-42.76-69.43-61.42-69.43-61.42S1133.2,276.9,1118.7,264Z"/><path class="cls-38" d="M1167.3,264s93.36,388.16,0,450.12c0,0,35.63,15.8,60.33,6.86,0,0-6.28-103.88-16-128.07l12.82-148.46Z"/><path class="cls-39" d="M1118.7,264s-122,340.22-88,450.12c0,0-54.14,21-67.88-10.5s71.92-270.68,71.92-270.68-11.31-115.6-1.61-135.81S1118.7,264,1118.7,264Z"/><polygon class="cls-40" points="1048.93 379.42 1044.17 438.12 1023.46 465.13 1034.7 432.91 1029.71 383.42 1048.93 364.36 1048.93 379.42"/><path class="cls-41" d="M1167.3,264s58.93,181,64.58,254.56-10.5,161.62-45.25,182.63c0,0,65.46,24.25,89.7-14.54s-34.75-244.86-34.75-244.86,16.16-126.07,8.08-144.66S1167.3,264,1167.3,264Z"/><path class="cls-42" d="M1118.7,264l2.47-19.39s-11.85,3.11-21-4.1v27.25A34.87,34.87,0,0,0,1118.7,264Z"/><path class="cls-43" d="M1163.75,264l-2.47-19.39s11.85,3.11,21-4.1v27.25A34.87,34.87,0,0,1,1163.75,264Z"/><rect class="cls-44" x="924" y="475.4" width="141.48" height="170.92" transform="translate(-108.94 267.66) rotate(-14.54)"/><path class="cls-45" d="M1048.94,379.42,932.57,432.47c6.27,9.67,10.4,21.95,13,35.2,1.09,5.53,1.92,11.24,2.55,17,4.56,42.63-2.65,88.07-2.65,88.07l-23.42,18.12s-54.15-102.62-40.42-174.14,167.29-131.32,167.29-131.32C1066.71,291,1048.94,379.42,1048.94,379.42Z"/><path class="cls-46" d="M922.06,590.86l11.19,43.23s13.74,21.82,25.46,21-9.29-7.68-9.29-7.68l-4-19.8s8.48-4,12.12,2.43,10.1,4,6.46-2.83-24.24-26.67-24.24-26.67l-2.06-21.76Z"/><path class="cls-47" d="M1109.2,137.27s84,28.18,72.51-31.21c0,0-17.42,9.38-36.28,3.59S1102.7,116.36,1109.2,137.27Z"/><path class="cls-47" d="M1109.2,137.27s7.68-.91,7.14,7.78-4.3,34.21-4.3,34.21S1092,136,1109.2,137.27Z"/><path class="cls-47" d="M1170.93,136s-6.52,4.19-6.52,7,5.22,32.45,5.22,32.45,7-21.59,7.54-31.5S1170.93,136,1170.93,136Z"/><path class="cls-48" d="M1112,179.26l-1.37-19s-9-1.08-8.44,5.16S1105.84,179.53,1112,179.26Z"/><path class="cls-49" d="M1169.25,179.26l1.37-19s9-1.08,8.43,5.16S1175.45,179.53,1169.25,179.26Z"/><polygon class="cls-47" points="1149.92 160.18 1164.41 160.18 1167.3 164.62 1148.39 164.62 1149.92 160.18"/><path class="cls-50" d="M1148.39,164.62s-2,11.78,9.45,13.21,9.46-13.21,9.46-13.21Z"/><path class="cls-47" d="M1159.57,171.23a3,3,0,1,1-3-3A3,3,0,0,1,1159.57,171.23Z"/><polygon class="cls-47" points="1132.82 160.18 1118.34 160.18 1115.45 164.62 1134.35 164.62 1132.82 160.18"/><path class="cls-50" d="M1134.35,164.62s2,11.78-9.45,13.21-9.45-13.21-9.45-13.21Z"/><path class="cls-47" d="M1123.17,171.23a3,3,0,1,0,3-3A3,3,0,0,0,1123.17,171.23Z"/><path class="cls-51" d="M1134.35,164.62l2.86,27.95h9.66s-.64,4.3-12.52,2.28Z"/><path class="cls-52" d="M1134.35,164.62l2.86,27.95h9.66l1.52-27.95S1142.48,155,1134.35,164.62Z"/><path class="cls-53" d="M1126.22,200.83s23.13,4.58,33.35-2.29C1159.57,198.54,1148.77,203.5,1126.22,200.83Z"/><path class="cls-54" d="M1133.33,205.48s11,1.91,19.13-1.14C1152.46,204.34,1148,218.25,1133.33,205.48Z"/><path class="cls-55" d="M1041.76,460.38l-93.62,24.28c-.63-5.75-1.46-11.46-2.55-17l57.68-11.31Z"/><rect class="cls-56" x="1041.45" y="596.05" width="29.03" height="29.03" transform="translate(-119.46 284.62) rotate(-14.54)"/><path class="cls-57" d="M1115.32,139.06s55.61-6.16,66.39-33c0,0-4.54,32.52-38.81,37.72A79.84,79.84,0,0,1,1115.32,139.06Z"/></g></g></svg>