<svg xmlns="http://www.w3.org/2000/svg" xmlns:xlink="http://www.w3.org/1999/xlink" viewBox="0 0 464.55 504.02"><defs><style>.cls-1{fill:#ecf2fb;}.cls-2,.cls-4,.cls-5,.cls-7{fill:none;stroke-miterlimit:10;}.cls-2{stroke:#a7b1dd;stroke-dasharray:2 2;}.cls-3{fill:url(#linear-gradient);}.cls-4,.cls-5{stroke:#fff;}.cls-4,.cls-7{stroke-width:0.5px;}.cls-6{fill:url(#linear-gradient-2);}.cls-7{stroke:#e9edf1;}.cls-8{fill:url(#linear-gradient-3);}.cls-9{fill:url(#linear-gradient-4);}.cls-10{fill:url(#linear-gradient-5);}.cls-11{fill:url(#linear-gradient-6);}.cls-12{fill:url(#linear-gradient-7);}.cls-13{fill:url(#linear-gradient-8);}.cls-14{fill:url(#linear-gradient-9);}.cls-15{fill:url(#linear-gradient-10);}.cls-16{fill:url(#linear-gradient-11);}.cls-17{fill:url(#linear-gradient-12);}.cls-18{fill:url(#linear-gradient-13);}.cls-19{fill:url(#linear-gradient-14);}.cls-20{fill:#260089;}.cls-21{fill:#fff;}.cls-22{fill:#d10513;}.cls-23{fill:url(#linear-gradient-15);}.cls-24{fill:url(#linear-gradient-16);}.cls-25{fill:url(#linear-gradient-17);}.cls-26{fill:url(#linear-gradient-18);}.cls-27{fill:url(#linear-gradient-19);}.cls-28{fill:url(#linear-gradient-20);}.cls-29{fill:url(#linear-gradient-21);}.cls-30{fill:url(#linear-gradient-22);}.cls-31{fill:url(#linear-gradient-23);}.cls-32{fill:url(#linear-gradient-24);}.cls-33{fill:#847dfb;}</style><linearGradient id="linear-gradient" x1="30.48" y1="368.73" x2="254.08" y2="368.73" gradientTransform="translate(-182.79 496.7) rotate(-103.78)" gradientUnits="userSpaceOnUse"><stop offset="0.23" stop-color="#5c52cf"/><stop offset="0.43" stop-color="#5f55d6"/><stop offset="0.92" stop-color="#655ae2"/></linearGradient><linearGradient id="linear-gradient-2" x1="352.77" y1="294.27" x2="512.21" y2="294.27" gradientTransform="matrix(-0.85, 0.53, 0.53, 0.85, 355.41, -284.51)" gradientUnits="userSpaceOnUse"><stop offset="0.22" stop-color="#cfdce5"/><stop offset="0.44" stop-color="#cbd8e4"/><stop offset="0.64" stop-color="#c1cde2"/><stop offset="0.84" stop-color="#afbadf"/><stop offset="0.92" stop-color="#a7b1dd"/></linearGradient><linearGradient id="linear-gradient-3" x1="268.01" y1="185.36" x2="464.55" y2="185.36" gradientUnits="userSpaceOnUse"><stop offset="0.08" stop-color="#a7b1dd"/><stop offset="0.16" stop-color="#afbadf"/><stop offset="0.36" stop-color="#c1cde2"/><stop offset="0.56" stop-color="#cbd8e4"/><stop offset="0.78" stop-color="#cfdce5"/></linearGradient><linearGradient id="linear-gradient-4" x1="268.01" y1="93.52" x2="357.42" y2="93.52" gradientTransform="matrix(1, 0, 0, 1, 0, 0)" xlink:href="#linear-gradient"/><linearGradient id="linear-gradient-5" x1="362.28" y1="138.26" x2="447.8" y2="138.26" gradientUnits="userSpaceOnUse"><stop offset="0.22" stop-color="#a7b1dd"/><stop offset="0.42" stop-color="#a5addf"/><stop offset="0.61" stop-color="#9da2e6"/><stop offset="0.79" stop-color="#908ff0"/><stop offset="0.92" stop-color="#847dfb"/></linearGradient><linearGradient id="linear-gradient-6" x1="362.28" y1="152.95" x2="447.8" y2="152.95" xlink:href="#linear-gradient-5"/><linearGradient id="linear-gradient-7" x1="362.28" y1="167.63" x2="447.8" y2="167.63" xlink:href="#linear-gradient-5"/><linearGradient id="linear-gradient-8" x1="283.79" y1="230.43" x2="447.8" y2="230.43" xlink:href="#linear-gradient-5"/><linearGradient id="linear-gradient-9" x1="283.79" y1="239.48" x2="447.8" y2="239.48" xlink:href="#linear-gradient-5"/><linearGradient id="linear-gradient-10" x1="283.79" y1="248.53" x2="447.8" y2="248.53" xlink:href="#linear-gradient-5"/><linearGradient id="linear-gradient-11" x1="283.79" y1="200.2" x2="447.8" y2="200.2" xlink:href="#linear-gradient-5"/><linearGradient id="linear-gradient-12" x1="283.79" y1="209.24" x2="447.8" y2="209.24" xlink:href="#linear-gradient-5"/><linearGradient id="linear-gradient-13" x1="283.79" y1="218.29" x2="447.8" y2="218.29" xlink:href="#linear-gradient-5"/><linearGradient id="linear-gradient-14" x1="281.93" y1="151.19" x2="343.83" y2="151.19" gradientTransform="matrix(1, 0, 0, 1, 0, 0)" xlink:href="#linear-gradient"/><linearGradient id="linear-gradient-15" x1="263.62" y1="231.87" x2="352.03" y2="231.87" xlink:href="#linear-gradient-3"/><linearGradient id="linear-gradient-16" x1="263.62" y1="247.05" x2="352.03" y2="247.05" xlink:href="#linear-gradient-3"/><linearGradient id="linear-gradient-17" x1="263.62" y1="262.24" x2="352.03" y2="262.24" xlink:href="#linear-gradient-3"/><linearGradient id="linear-gradient-18" x1="182.47" y1="327.16" x2="352.03" y2="327.16" xlink:href="#linear-gradient-3"/><linearGradient id="linear-gradient-19" x1="182.47" y1="336.52" x2="352.03" y2="336.52" xlink:href="#linear-gradient-3"/><linearGradient id="linear-gradient-20" x1="182.47" y1="345.87" x2="352.03" y2="345.87" xlink:href="#linear-gradient-3"/><linearGradient id="linear-gradient-21" x1="182.47" y1="295.9" x2="352.03" y2="295.9" xlink:href="#linear-gradient-3"/><linearGradient id="linear-gradient-22" x1="182.47" y1="305.25" x2="352.03" y2="305.25" xlink:href="#linear-gradient-3"/><linearGradient id="linear-gradient-23" x1="182.47" y1="314.61" x2="352.03" y2="314.61" xlink:href="#linear-gradient-3"/><linearGradient id="linear-gradient-24" x1="180.73" y1="245.24" x2="244.72" y2="245.24" xlink:href="#linear-gradient-5"/></defs><title>Asset 1</title><g id="Layer_2" data-name="Layer 2"><g id="Layer_1-2" data-name="Layer 1"><path class="cls-1" d="M421.72,168.76c5.23,19.33,2.23,48.68-.56,68-4,27.22-6.58,44.45-16.81,77.88C378.45,399.2,295,466.43,203.86,438.38c-61.16-18.8-108.24-71.76-142.33-126C11.43,232.74-25.36,63.19,103,39.65,172,27,237,78.66,300,101.57c36.91,13.42,69.17,5.94,95.76,26.7C413.15,141.8,416,147.62,421.72,168.76Z"/><path class="cls-2" d="M435.86,114.9c7.51,19.07,11,41.18,11,62.8-.12,30.46-6.17,61.26-13.39,91.45-23.3,97.56-83,197.78-172.79,196.81-60.23-.65-111.71-42.42-151.1-89.7-57.89-69.47-72.4-237.89,45.62-304.14,63.44-35.62,69-34,131.49-29.53,36.63,2.61,86.08,15.56,113.94,29.34C418.77,80.92,427.66,94,435.86,114.9Z"/><path class="cls-3" d="M282.8,351.13s-152.65-.61-206.38-53.59S.12,190.21.12,190.21s77.75-7.06,131,22.39S282.8,351.13,282.8,351.13Z"/><line class="cls-4" x1="282.8" y1="351.13" x2="0.12" y2="190.21"/><line class="cls-5" x1="63.99" y1="284.68" x2="138.87" y2="270.3"/><line class="cls-5" x1="146.83" y1="333.09" x2="207.67" y2="308.36"/><line class="cls-5" x1="16.59" y1="221.47" x2="55.04" y2="221.47"/><line class="cls-5" x1="116.71" y1="205.59" x2="138.87" y2="270.3"/><line class="cls-5" x1="43.43" y1="190.21" x2="55.04" y2="221.47"/><path class="cls-6" d="M109.11,81.31c11.4,10.91,18.44,24.21,30.82,33.15,7,5.07,11.37,3.87,19.43,3.78,10.25-.12,24.12,2.44,32.7,8.78,12.87,9.5,21.64,27.61,24.18,44,3.15,20.33-6.8,41.4-2.65,62,2.88,14.22,17.22,24.77,19,39.27,1.84,14.83-9.31,41.15-26.32,38.27-19.25-3.26-26.58-26.58-43.91-32.52-9.9-3.4-21.73-2-32.14-5-13.63-3.91-29.24-11.3-39.9-21.39C70.17,232.6,54.44,204.25,62,175.52c1.75-6.69,5.41-13.3,5.55-20.43.17-9.09-4.83-12.77-9.05-20-5.72-9.79-5.77-26.65-3.41-38.12,1.88-9.11,6.86-11.31,14.2-16.64C69.25,80.36,94.46,67.3,109.11,81.31Z"/><line class="cls-7" x1="69.25" y1="80.36" x2="219.73" y2="306.66"/><line class="cls-7" x1="187.68" y1="124.33" x2="163.94" y2="222.97"/><line class="cls-7" x1="60.3" y1="195.84" x2="163.94" y2="222.97"/><line class="cls-7" x1="109.11" y1="81.31" x2="107.39" y2="138.14"/><line class="cls-7" x1="53.58" y1="112.73" x2="107.39" y2="138.14"/><line class="cls-7" x1="202.71" y1="242.28" x2="204.36" y2="283.6"/><path class="cls-8" d="M457.68,103.79H268V256c0,6,4.61,10.88,10.3,10.88H454.24c5.7,0,10.31-4.87,10.31-10.88V114A10.86,10.86,0,0,0,457.68,103.79Z"/><path class="cls-9" d="M357.42,104.54V96.71c0-7.85-6-14.21-13.46-14.21H281.47C274,82.5,268,88.86,268,96.71v7.83Z"/><rect class="cls-10" x="362.28" y="133.82" width="85.51" height="8.87"/><rect class="cls-11" x="362.28" y="148.51" width="85.51" height="8.87"/><rect class="cls-12" x="362.28" y="163.2" width="85.51" height="8.87"/><rect class="cls-13" x="283.79" y="227.7" width="164.01" height="5.47"/><rect class="cls-14" x="283.79" y="236.75" width="164.01" height="5.46"/><rect class="cls-15" x="283.79" y="245.8" width="164.01" height="5.47"/><rect class="cls-16" x="283.79" y="197.46" width="164.01" height="5.47"/><rect class="cls-17" x="283.79" y="206.51" width="164.01" height="5.47"/><rect class="cls-18" x="283.79" y="215.56" width="164.01" height="5.47"/><rect class="cls-19" x="281.93" y="118.52" width="61.9" height="65.35"/><path class="cls-20" d="M323,153.16a14.07,14.07,0,0,0,2.83-8.53c0-7.56-5.8-13.69-13-13.69s-13,6.13-13,13.69a14.12,14.12,0,0,0,2.83,8.53c-8.89,4.26-15.61,14-17.54,25.86h55.35C338.62,167.13,331.9,157.42,323,153.16Z"/><path class="cls-21" d="M362.25,196.23H166.16V353.64c0,6.21,4.77,11.24,10.65,11.24H358.7c5.89,0,10.65-5,10.65-11.24V206.83A11.22,11.22,0,0,0,362.25,196.23Z"/><path class="cls-22" d="M258.6,197v-8.08c0-8.12-6.23-14.7-13.92-14.7h-64.6c-7.69,0-13.92,6.58-13.92,14.7V197Z"/><rect class="cls-23" x="263.62" y="227.28" width="88.41" height="9.17"/><rect class="cls-24" x="263.62" y="242.46" width="88.41" height="9.18"/><rect class="cls-25" x="263.62" y="257.65" width="88.41" height="9.18"/><rect class="cls-26" x="182.47" y="324.34" width="169.57" height="5.65"/><rect class="cls-27" x="182.47" y="333.69" width="169.57" height="5.65"/><rect class="cls-28" x="182.47" y="343.04" width="169.57" height="5.65"/><rect class="cls-29" x="182.47" y="293.08" width="169.57" height="5.65"/><rect class="cls-30" x="182.47" y="302.43" width="169.57" height="5.66"/><rect class="cls-31" x="182.47" y="311.78" width="169.57" height="5.65"/><rect class="cls-32" x="180.73" y="211.45" width="63.99" height="67.57"/><path class="cls-20" d="M233.88,254.47c-2-12.31-10.72-26.41-21.16-26.41s-19.16,14.1-21.16,26.41Z"/><path class="cls-20" d="M222,255.31a12.84,12.84,0,0,0,2.6-7.81c0-6.93-5.32-12.54-11.88-12.54s-11.88,5.61-11.88,12.54a12.9,12.9,0,0,0,2.6,7.81c-8.14,3.92-14.31,12.82-16.08,23.71h50.73C236.31,268.13,230.15,259.23,222,255.31Z"/><path class="cls-33" d="M185.52,409.44c0,24.68-19,44.68-42.33,44.68s-42.31-20-42.31-44.68,18.94-44.67,42.31-44.67S185.52,384.76,185.52,409.44Z"/><path class="cls-21" d="M155.83,387.71H130.56a8.18,8.18,0,0,0-8,8.4v26.68a8.19,8.19,0,0,0,8,8.4h25.27a8.21,8.21,0,0,0,8-8.4V396.11A8.21,8.21,0,0,0,155.83,387.71Zm2.28,5H159v7.37l-7,0,0-7.37ZM137.32,405a7,7,0,0,1,11.75,0,7.93,7.93,0,0,1,1.38,4.46,7.27,7.27,0,1,1-14.51,0A7.93,7.93,0,0,1,137.32,405Zm22.46,17.81a4.06,4.06,0,0,1-3.95,4.16H130.56a4.06,4.06,0,0,1-4-4.16V405h6.14a12.65,12.65,0,0,0-.81,4.46c0,6.56,5.05,11.89,11.25,11.89s11.27-5.33,11.27-11.89a12.24,12.24,0,0,0-.84-4.46h6.16Z"/><path class="cls-22" d="M427.32,73.16c0,24.67-18.94,44.68-42.32,44.68s-42.31-20-42.31-44.68S361.63,28.48,385,28.48,427.32,48.48,427.32,73.16Z"/><polygon class="cls-21" points="404.96 57.67 364.56 57.67 384.77 70.88 404.96 57.67"/><polygon class="cls-21" points="384.77 77.26 359.68 60.86 359.68 90.45 409.85 90.45 409.85 60.86 384.77 77.26"/><path class="cls-33" d="M275.25,41.69c0,23-17.68,41.69-39.5,41.69s-39.48-18.66-39.48-41.69S214,0,235.75,0,275.25,18.66,275.25,41.69Z"/><path class="cls-21" d="M244.09,49.39a3.76,3.76,0,0,0-4.31,1.9c-.41.93-.47,2.2-1.36,2.62a2.25,2.25,0,0,1-2-.39c-3-1.79-9-14.44-8.59-18a2.58,2.58,0,0,1,.89-1.93c.85-.5,1.85.21,2.8.41,1.66.37,3.33-.9,4-2.53a9.84,9.84,0,0,0,.38-5.23,11.37,11.37,0,0,0-2.09-5.74c-3.7-4.43-9.14,0-11.31,3.77a21.05,21.05,0,0,0-2.53,8c-.8,5.9,9.27,27.07,14.25,30a18.82,18.82,0,0,0,7.54,2.58c4.14.39,10.78-1.55,9.63-7.32a10.93,10.93,0,0,0-3.11-5.19A8.93,8.93,0,0,0,244.09,49.39Z"/><path class="cls-22" d="M450.91,349c0,24.68-18.94,44.68-42.31,44.68s-42.32-20-42.32-44.68,18.94-44.67,42.32-44.67S450.91,324.29,450.91,349Z"/><path class="cls-21" d="M432.19,332.38c0-4.38-3.72-8.31-7.87-8.31H392.87c-4.14,0-7.87,3.93-7.87,8.31v33.2c0,4.37,3.73,8.3,7.87,8.3H408.6V355.06h-5.77v-8.3h5.77v-3.21c0-5.59,4-10.63,8.86-10.63h6.34v8.31h-6.34c-.68,0-1.52.88-1.52,2.21v3.32h7.86v8.3h-7.86v18.82h8.38c4.15,0,7.87-3.93,7.87-8.3Z"/><path class="cls-33" d="M315.56,459.34c0,24.68-18.94,44.68-42.32,44.68s-42.31-20-42.31-44.68,18.94-44.67,42.31-44.67S315.56,434.67,315.56,459.34Z"/><path class="cls-21" d="M286.15,434.62H260.33c-5.8,0-10.5,5-10.5,11.1V473c0,6.12,4.7,11.09,10.5,11.09h25.82c5.81,0,10.51-4.95,10.51-11.09V445.72C296.66,439.59,292,434.62,286.15,434.62Zm.17,17.11a11,11,0,0,1-1.93,1.93.22.22,0,0,0-.1.18,15.1,15.1,0,0,1-.1,2.51,17.68,17.68,0,0,1-1.37,5,16.77,16.77,0,0,1-2.87,4.43,14.2,14.2,0,0,1-7.34,4.3,14,14,0,0,1-3,.38,14.47,14.47,0,0,1-8.53-2.41L261,468a10.18,10.18,0,0,0,5.32-.77,10.06,10.06,0,0,0,2.54-1.55,5.43,5.43,0,0,1-4.95-3.9,4.93,4.93,0,0,0,2.29-.09l.06,0a5.36,5.36,0,0,1-3.45-2.57,5.81,5.81,0,0,1-.78-3,5.28,5.28,0,0,0,2.37.69,5.79,5.79,0,0,1-2.2-3.42,5.9,5.9,0,0,1,.57-4.08,15,15,0,0,0,11,5.88c0-.23-.06-.42-.07-.62a5.61,5.61,0,0,1,.77-3.68,5.11,5.11,0,0,1,3.61-2.54,5,5,0,0,1,4.66,1.56.27.27,0,0,0,.29.09,10.07,10.07,0,0,0,3.1-1.26s0,0,.08,0h0A5.72,5.72,0,0,1,284,451.7a9.9,9.9,0,0,0,3-.84l0,0Z"/></g></g></svg>