<svg id="Layer_1" data-name="Layer 1" xmlns="http://www.w3.org/2000/svg" xmlns:xlink="http://www.w3.org/1999/xlink" viewBox="0 0 2338.16 1310.17"><defs><style>.cls-1{fill:url(#linear-gradient);}.cls-2{fill:#daeaee;}.cls-3{fill:#5b71a8;}.cls-4{fill:url(#linear-gradient-2);}.cls-5{fill:url(#linear-gradient-3);}.cls-6{fill:url(#linear-gradient-4);}.cls-7{fill:url(#linear-gradient-5);}.cls-8{fill:url(#linear-gradient-6);}.cls-9{fill:url(#linear-gradient-7);}.cls-10{fill:url(#linear-gradient-8);}.cls-11{fill:#fff;}.cls-12{fill:#42abbc;}.cls-13{fill:#49bcbb;}.cls-14{fill:#7ea8af;}.cls-15{fill:#d63636;}.cls-16{fill:url(#linear-gradient-9);}.cls-17{fill:url(#linear-gradient-10);}.cls-18,.cls-37,.cls-40,.cls-48,.cls-51,.cls-52{fill:#191e4c;}.cls-18{opacity:0.15;}.cls-19{fill:url(#linear-gradient-11);}.cls-20{fill:url(#linear-gradient-12);}.cls-21{fill:#bad2d6;}.cls-22{fill:#8aa5aa;}.cls-23{fill:url(#linear-gradient-13);}.cls-24{fill:url(#linear-gradient-14);}.cls-25{fill:url(#linear-gradient-15);}.cls-26{fill:url(#linear-gradient-16);}.cls-27{fill:url(#linear-gradient-17);}.cls-28{fill:url(#linear-gradient-18);}.cls-29{fill:url(#linear-gradient-19);}.cls-30{fill:url(#linear-gradient-20);}.cls-31{fill:url(#linear-gradient-21);}.cls-32{fill:url(#linear-gradient-22);}.cls-33{opacity:0.35;fill:url(#linear-gradient-23);}.cls-34{fill:url(#linear-gradient-24);}.cls-35{fill:url(#linear-gradient-25);}.cls-36{fill:url(#linear-gradient-26);}.cls-37{opacity:0.11;}.cls-38{fill:url(#linear-gradient-27);}.cls-39{fill:#d10513;}.cls-40{opacity:0.23;}.cls-41{fill:url(#linear-gradient-28);}.cls-42{fill:url(#linear-gradient-29);}.cls-43{fill:url(#linear-gradient-30);}.cls-44{fill:url(#linear-gradient-31);}.cls-45{fill:url(#linear-gradient-32);}.cls-46{fill:url(#linear-gradient-33);}.cls-47{fill:url(#linear-gradient-34);}.cls-49{fill:url(#linear-gradient-35);}.cls-50{fill:url(#linear-gradient-36);}.cls-51{opacity:0.1;}.cls-52{opacity:0.16;}.cls-53{fill:url(#linear-gradient-37);}.cls-54{fill:url(#linear-gradient-38);}.cls-55{opacity:0.37;fill:url(#linear-gradient-39);}.cls-56{fill:url(#linear-gradient-40);}.cls-57{opacity:0.22;fill:url(#linear-gradient-41);}.cls-58{fill:url(#linear-gradient-42);}</style><linearGradient id="linear-gradient" x1="984.87" y1="991.34" x2="1672.69" y2="991.34" gradientUnits="userSpaceOnUse"><stop offset="0" stop-color="#ad2d24"/><stop offset="1" stop-color="#fbb037"/></linearGradient><linearGradient id="linear-gradient-2" x1="-66.8" y1="547.35" x2="-64.16" y2="547.35" gradientTransform="translate(421.39 288.82) rotate(55.21)" gradientUnits="userSpaceOnUse"><stop offset="0" stop-color="#304598"/><stop offset="1" stop-color="#4abbba"/></linearGradient><linearGradient id="linear-gradient-3" x1="-49.08" y1="652.93" x2="222.03" y2="652.93" gradientTransform="matrix(1, 0, 0, 1, 0, 0)" xlink:href="#linear-gradient-2"/><linearGradient id="linear-gradient-4" x1="860.82" y1="975.83" x2="863.91" y2="975.83" gradientTransform="matrix(1, 0, 0, 1, 0, 0)" xlink:href="#linear-gradient-2"/><linearGradient id="linear-gradient-5" x1="238.09" y1="923.17" x2="240.2" y2="923.17" gradientTransform="matrix(1, 0, 0, 1, 0, 0)" xlink:href="#linear-gradient-2"/><linearGradient id="linear-gradient-6" x1="861.8" y1="1303.33" x2="863.91" y2="1303.33" gradientTransform="matrix(1, 0, 0, 1, 0, 0)" xlink:href="#linear-gradient-2"/><linearGradient id="linear-gradient-7" x1="1449.98" y1="2064.85" x2="1280.04" y2="1023.97" gradientTransform="matrix(-0.97, -0.25, -0.25, 0.97, 2842.12, -163.59)" gradientUnits="userSpaceOnUse"><stop offset="0" stop-color="#31439a"/><stop offset="1" stop-color="#49bcbb"/></linearGradient><linearGradient id="linear-gradient-8" x1="728.81" y1="679.58" x2="2560.9" y2="2906.11" xlink:href="#linear-gradient-7"/><linearGradient id="linear-gradient-9" x1="1118.04" y1="1173.52" x2="1388.67" y2="1173.52" gradientUnits="userSpaceOnUse"><stop offset="0" stop-color="#d66827"/><stop offset="1" stop-color="#c32727"/></linearGradient><linearGradient id="linear-gradient-10" x1="1188.9" y1="970.19" x2="1648.97" y2="1587.58" xlink:href="#linear-gradient-9"/><linearGradient id="linear-gradient-11" x1="969.72" y1="1232.35" x2="1167.6" y2="1232.35" xlink:href="#linear-gradient-9"/><linearGradient id="linear-gradient-12" x1="1023.05" y1="1105.21" x2="1348.56" y2="1542.02" xlink:href="#linear-gradient-9"/><linearGradient id="linear-gradient-13" x1="972.96" y1="539.41" x2="910.64" y2="626.81" gradientUnits="userSpaceOnUse"><stop offset="0" stop-color="#b53c7e"/><stop offset="0.58" stop-color="#e77172"/><stop offset="1" stop-color="#f3e4cd"/></linearGradient><linearGradient id="linear-gradient-14" x1="941.98" y1="509.09" x2="987.74" y2="583.05" gradientUnits="userSpaceOnUse"><stop offset="0" stop-color="#fff4de"/><stop offset="1" stop-color="#d26666"/></linearGradient><linearGradient id="linear-gradient-15" x1="817.24" y1="1010.33" x2="837.46" y2="1043.73" gradientTransform="matrix(-1, 0, 0, 1, 1714.05, 0)" gradientUnits="userSpaceOnUse"><stop offset="0" stop-color="#231e5d"/><stop offset="1" stop-color="#2c327e"/></linearGradient><linearGradient id="linear-gradient-16" x1="862.42" y1="1093.02" x2="574.15" y2="983.08" gradientTransform="matrix(1, 0, 0, -1, 2.64, 2180.92)" xlink:href="#linear-gradient-15"/><linearGradient id="linear-gradient-17" x1="5769.85" y1="1010.33" x2="5790.06" y2="1043.73" gradientTransform="translate(-5048.15)" xlink:href="#linear-gradient-15"/><linearGradient id="linear-gradient-18" x1="5815.02" y1="1093.02" x2="5526.76" y2="983.08" gradientTransform="translate(-4424.44 216.88)" xlink:href="#linear-gradient-15"/><linearGradient id="linear-gradient-19" x1="578.23" y1="217.07" x2="2238.72" y2="1106.01" gradientTransform="matrix(1, 0, 0, 1, 0, 0)" xlink:href="#linear-gradient-2"/><linearGradient id="linear-gradient-20" x1="828.22" y1="738.79" x2="553.76" y2="607.66" gradientTransform="matrix(1, 0, 0, 1, 0, 0)" xlink:href="#linear-gradient-15"/><linearGradient id="linear-gradient-21" x1="-3638.07" y1="776.86" x2="-3924.14" y2="698.07" gradientTransform="matrix(-1, 0, 0, 1, -3014.9, 0)" xlink:href="#linear-gradient-15"/><linearGradient id="linear-gradient-22" x1="1052.46" y1="318.16" x2="634.67" y2="262.5" gradientTransform="matrix(1, 0, 0, 1, 0, 0)" xlink:href="#linear-gradient-2"/><linearGradient id="linear-gradient-23" x1="962.52" y1="352.3" x2="818.04" y2="283.27" gradientTransform="matrix(1, 0, 0, 1, 0, 0)" xlink:href="#linear-gradient-15"/><linearGradient id="linear-gradient-24" x1="-3951.93" y1="-14.96" x2="-3936.38" y2="26.05" gradientTransform="matrix(-1, 0, 0, 1, -3106.21, 0)" gradientUnits="userSpaceOnUse"><stop offset="0" stop-color="#60a69e"/><stop offset="1" stop-color="#4f8688"/></linearGradient><linearGradient id="linear-gradient-25" x1="770.78" y1="-14.96" x2="786.34" y2="26.05" gradientTransform="matrix(1, 0, 0, 1, 0, 0)" xlink:href="#linear-gradient-24"/><linearGradient id="linear-gradient-26" x1="886.87" y1="-89.93" x2="819.02" y2="7.65" xlink:href="#linear-gradient-14"/><linearGradient id="linear-gradient-27" x1="887.28" y1="-19.41" x2="770.75" y2="-52.51" xlink:href="#linear-gradient-14"/><linearGradient id="linear-gradient-28" x1="792.5" y1="282.87" x2="631.63" y2="270.67" gradientTransform="matrix(1, 0, 0, 1, 0, 0)" xlink:href="#linear-gradient-2"/><linearGradient id="linear-gradient-29" x1="1379.33" y1="402.35" x2="1210.08" y2="448.86" gradientTransform="matrix(1, 0, 0, 1, 0, 0)" xlink:href="#linear-gradient-2"/><linearGradient id="linear-gradient-30" x1="716.72" y1="263.45" x2="1053.69" y2="281.74" gradientTransform="matrix(1, 0, 0, 1, 0, 0)" xlink:href="#linear-gradient-2"/><linearGradient id="linear-gradient-31" x1="767.19" y1="39.28" x2="788.2" y2="39.28" gradientTransform="matrix(1, 0, 0, 1, 0, 0)" xlink:href="#linear-gradient-24"/><linearGradient id="linear-gradient-32" x1="-3955.52" y1="39.28" x2="-3934.51" y2="39.28" xlink:href="#linear-gradient-24"/><linearGradient id="linear-gradient-33" x1="507.91" y1="116.15" x2="788.46" y2="323.52" gradientTransform="matrix(1, 0, 0, 1, 0, 0)" xlink:href="#linear-gradient-2"/><linearGradient id="linear-gradient-34" x1="556.15" y1="298.19" x2="621.72" y2="427.79" xlink:href="#linear-gradient-14"/><linearGradient id="linear-gradient-35" x1="800.26" y1="-24.48" x2="764.69" y2="-55.99" xlink:href="#linear-gradient-13"/><linearGradient id="linear-gradient-36" x1="-4072.4" y1="-24.48" x2="-4107.98" y2="-55.99" gradientTransform="matrix(-1, 0, 0, 1, -3257.32, 0)" xlink:href="#linear-gradient-13"/><linearGradient id="linear-gradient-37" x1="813.91" y1="13.06" x2="809.84" y2="-33.7" xlink:href="#linear-gradient-14"/><linearGradient id="linear-gradient-38" x1="810.46" y1="-9.06" x2="810.07" y2="-13.51" xlink:href="#linear-gradient-14"/><linearGradient id="linear-gradient-39" x1="822.73" y1="13.31" x2="814.34" y2="-1.94" xlink:href="#linear-gradient-14"/><linearGradient id="linear-gradient-40" x1="671.62" y1="340.14" x2="737.19" y2="411.04" gradientTransform="translate(122.48 -168.82) rotate(14.54)" xlink:href="#linear-gradient-9"/><linearGradient id="linear-gradient-41" x1="778.96" y1="-131.87" x2="829.82" y2="-76.87" gradientTransform="matrix(1, 0, 0, 1, 0, 0)" xlink:href="#linear-gradient-2"/><linearGradient id="linear-gradient-42" x1="-623.71" y1="1025.63" x2="-156.03" y2="1025.63" gradientTransform="matrix(1, 0, 0, 1, 0, 0)" xlink:href="#linear-gradient-2"/></defs><title>Untitled-1</title><path class="cls-1" d="M1055.49,1089.09h617.2s-71.79-128.14-146.85-82S1475.71,874.47,1318,895.3s-101.25,192.49-213.35,151.36-119.8,42.43-119.8,42.43Z" transform="translate(623.71 216.88)"/><path class="cls-2" d="M1673.55,1089.59H984.33l0-.55c0-.29,2.93-28.94,27.4-44.41,21.64-13.68,53-13.15,93.06,1.56,54.06,19.84,68.74-10.47,87.33-48.84,19.81-40.9,44.48-91.81,125.79-102.55,39.5-5.21,71,1.47,96.39,20.46,21.83,16.34,35.3,38.77,47.19,58.57,11.65,19.41,21.71,36.17,36.09,39.68,8.07,2,17.21-.27,27.95-6.86,16-9.85,33.18-12.5,51-7.87,53.37,13.89,96.16,89.3,96.58,90.06Zm-688.11-1h686.39c-4.6-7.9-45.42-75.81-95.53-88.84-17.52-4.56-34.41-2-50.2,7.75-11,6.74-20.36,9-28.7,7-14.79-3.61-25-20.54-36.72-40.15s-25.26-42.06-46.93-58.28c-25.13-18.82-56.42-25.45-95.66-20.27-80.78,10.67-105.31,61.31-125,102-14.7,30.35-27,55.71-57.89,55.72-8.63,0-18.7-2-30.68-6.38-39.8-14.6-70.81-15.16-92.18-1.66C990.13,1059.49,986,1084.58,985.44,1088.59Z" transform="translate(623.71 216.88)"/><path class="cls-3" d="M205.58,1086.36H-338V768.24l.21-.15L-66.2,581l.29.19L205.58,768.24Zm-542.55-1H204.58V768.77L-66.2,582.2-337,768.77Z" transform="translate(623.71 216.88)"/><rect class="cls-4" x="-66.53" y="546.47" width="2.1" height="1.75" transform="translate(146.08 398.15) rotate(-55.21)"/><path class="cls-5" d="M220.83,747.56l-2.8-1.95,1.2-1.73,2.8,2ZM201.75,734.3l-2.8-1.95,1.2-1.72,2.8,2Zm-19.08-13.25-2.8-1.95,1.2-1.73,2.8,2Zm-19.08-13.26-2.8-1.95,1.2-1.73,2.8,1.95Zm-19.07-13.26-2.81-1.94,1.2-1.73,2.81,1.95Zm-19.08-13.25-2.81-1.95,1.2-1.73,2.81,1.95ZM106.36,668l-2.81-1.95,1.2-1.73,2.81,1.95ZM87.28,654.76l-2.81-1.94,1.2-1.73L88.48,653ZM68.2,641.51l-2.81-2,1.2-1.73,2.81,1.95ZM49.12,628.25l-2.81-2,1.2-1.73,2.81,1.95ZM30,615l-2.81-2,1.21-1.73,2.8,1.95ZM11,601.74l-2.8-2,1.2-1.73,2.8,2ZM-8.12,588.48l-2.8-2,1.2-1.73,2.8,2ZM-27.2,575.23l-2.8-2,1.2-1.73,2.8,2ZM-46.28,562l-2.8-2,1.2-1.73,2.8,2Z" transform="translate(623.71 216.88)"/><polygon class="cls-6" points="863.91 977.64 861.8 977.64 861.8 976.43 860.82 975.75 862.02 974.02 863.91 975.33 863.91 977.64"/><path class="cls-7" d="M240.2,1065.58h-2.11v-3.45h2.11Zm0-23.45h-2.11v-3.45h2.11Zm0-23.45h-2.11v-3.44h2.11Zm0-23.44h-2.11v-3.45h2.11Zm0-23.45h-2.11v-3.45h2.11Zm0-23.45h-2.11v-3.45h2.11Zm0-23.45h-2.11v-3.45h2.11Zm0-23.45h-2.11V898h2.11Zm0-23.44h-2.11v-3.45h2.11Zm0-23.45h-2.11V851.1h2.11Zm0-23.45h-2.11v-3.45h2.11Zm0-23.45h-2.11v-3.44h2.11Zm0-23.44h-2.11v-3.45h2.11Z" transform="translate(623.71 216.88)"/><rect class="cls-8" x="861.8" y="1302.46" width="2.1" height="1.75"/><path class="cls-9" d="M1488.77,411.7S1368.34,443,1331.28,577.16s-69.4-82.26-131.61,5.21,26,297.51-75,286.64-77,202.89-77,202.89S1396.41,874.08,1488.77,411.7Z" transform="translate(623.71 216.88)"/><path class="cls-10" d="M1047.61,1071.9s259.65-254.24,343-509.81S1577,427,1487.39,551.51s80.47,22.44,32.89,116.12-187.65,139.53-103.34,147.62,129.26,97.33,28.78,140.66-250.16,54.72-211.61,93.4S1100.21,1100.2,1047.61,1071.9Z" transform="translate(623.71 216.88)"/><path class="cls-2" d="M467.62,1089.08h809.44s-4.6-171.76-133-133S970.29,784,970.86,694.42,858.84,499.1,720.39,579,640,870.78,467.62,816.21s-159.71,197-288.39,145.34S2.29,1092,2.29,1092Z" transform="translate(623.71 216.88)"/><path class="cls-11" d="M1242.35,295.07v728.55a69.18,69.18,0,0,1-69.18,69.18H882.46a69.18,69.18,0,0,1-69.18-69.18V295.07a69.17,69.17,0,0,1,69.18-69.18h290.71A69.17,69.17,0,0,1,1242.35,295.07Z" transform="translate(623.71 216.88)"/><path class="cls-3" d="M1173.17,1093.3H882.46a69.76,69.76,0,0,1-69.68-69.68V295.06a69.75,69.75,0,0,1,69.68-69.67h290.71a69.75,69.75,0,0,1,69.68,69.67v728.56A69.76,69.76,0,0,1,1173.17,1093.3ZM882.46,226.39a68.75,68.75,0,0,0-68.68,68.67v728.56a68.76,68.76,0,0,0,68.68,68.68h290.71a68.76,68.76,0,0,0,68.68-68.68V295.06a68.75,68.75,0,0,0-68.68-68.67Z" transform="translate(623.71 216.88)"/><rect class="cls-12" x="1451.18" y="456.95" width="400.7" height="838.54" rx="51.86"/><path class="cls-2" d="M1176.3,1079.11h-297A52.42,52.42,0,0,1,827,1026.75V291.93a52.42,52.42,0,0,1,52.37-52.36h297a52.42,52.42,0,0,1,52.36,52.36v734.82A52.42,52.42,0,0,1,1176.3,1079.11Zm-297-838.54A51.43,51.43,0,0,0,828,291.93v734.82a51.43,51.43,0,0,0,51.37,51.36h297a51.42,51.42,0,0,0,51.36-51.36V291.93a51.42,51.42,0,0,0-51.36-51.36Z" transform="translate(623.71 216.88)"/><path class="cls-13" d="M275,885.79l-1.83-.82s1.88-4.22,5.42-10.87l1.77.94C276.87,881.61,275,885.74,275,885.79Zm15.37-28-1.7-1.06c2.14-3.42,4.36-6.81,6.61-10.1l1.65,1.13C294.71,851,292.5,854.37,290.38,857.76Zm18.42-26.08-1.56-1.24c2.53-3.18,5.14-6.29,7.75-9.25l1.5,1.33C313.9,825.45,311.31,828.53,308.8,831.68Zm21.54-23.48L329,806.74c3-2.79,6-5.48,9.06-8l1.27,1.55C336.3,802.78,333.28,805.44,330.34,808.2Zm25-19.53-1.06-1.7c3.46-2.17,7-4.18,10.49-6l.91,1.78C362.27,784.55,358.79,786.53,355.38,788.67ZM480.18,778h-1.54l0-2c4.09,0,8.07-.09,11.88-.39l.16,2C487.31,777.81,483.77,778,480.18,778Zm-21.6-1.43c-3.85-.48-7.86-1.09-11.91-1.81l.35-2c4,.71,8,1.32,11.81,1.8ZM384,775.26l-.6-1.9a108.14,108.14,0,0,1,11.72-3l.38,2A106.92,106.92,0,0,0,384,775.26Zm126.5-1.12-.53-1.93a84.89,84.89,0,0,0,11.15-3.94l.8,1.83A87,87,0,0,1,510.54,774.14Zm-83.49-3a105,105,0,0,0-11.86-.7v-2a109,109,0,0,1,12.08.71ZM539.31,759.8l-1.22-1.58a87.34,87.34,0,0,0,8.82-7.89l1.43,1.4A89.23,89.23,0,0,1,539.31,759.8ZM561,736.1,559.38,735c2.14-3.12,4.23-6.42,6.38-10.09l1.72,1C565.31,729.6,563.2,732.94,561,736.1ZM577,708.21l-1.79-.89c1.53-3.07,3.15-6.39,5.25-10.78l1.8.86C580.11,701.8,578.48,705.14,577,708.21Z" transform="translate(623.71 216.88)"/><path class="cls-2" d="M1251.66,279.32l3.61,8.09h-71l-22.33-61.52h7.33A90.25,90.25,0,0,1,1251.66,279.32Z" transform="translate(623.71 216.88)"/><path class="cls-14" d="M1256,287.91h-72.13l-.12-.33-22.58-62.19h8a90.87,90.87,0,0,1,82.86,53.73Zm-71.43-1h69.89l-3.3-7.39a89.83,89.83,0,0,0-81.94-53.13h-6.62Z" transform="translate(623.71 216.88)"/><path class="cls-2" d="M1255.27,287.41s-24.62,51.51-71,0Z" transform="translate(623.71 216.88)"/><path class="cls-14" d="M1223.26,310.81c-12.35,0-25.57-7.74-39.37-23.06l-.75-.84h72.93l-.35.72c-.09.2-9.86,20.21-28.29,22.88A29,29,0,0,1,1223.26,310.81Zm-37.87-22.9c14.85,16.21,28.93,23.48,41.89,21.61,15.94-2.3,25.25-18,27.17-21.61Z" transform="translate(623.71 216.88)"/><polygon class="cls-15" points="1785.64 442.76 1722.65 442.76 1739.83 504.29 1807.97 504.29 1785.64 442.76"/><path class="cls-14" d="M1185,287.91h-69.24l-.11-.37-17.35-62.15h64l.12.32Zm-68.48-1h67l-22-60.52h-62Z" transform="translate(623.71 216.88)"/><path class="cls-15" d="M1184.26,287.41s-25.19,47.22-68.15,0Z" transform="translate(623.71 216.88)"/><path class="cls-14" d="M1152.85,308.9c-11.86,0-24.32-7.1-37.1-21.15l-.77-.84h70.12l-.4.74c-.1.18-10.21,18.78-28.21,21A29.52,29.52,0,0,1,1152.85,308.9Zm-35.6-21c13.6,14.66,26.75,21.31,39.12,19.77,15.46-1.93,25-16.33,27-19.77Z" transform="translate(623.71 216.88)"/><polygon class="cls-2" points="1722.65 442.76 1739.83 504.29 1668.82 504.29 1668.82 442.76 1722.65 442.76"/><path class="cls-14" d="M1116.77,287.91H1044.6V225.39h54.71l.11.36Zm-71.17-1h69.86l-16.91-60.52h-53Z" transform="translate(623.71 216.88)"/><path class="cls-2" d="M1116.11,287.41s-24.62,51.51-71,0Z" transform="translate(623.71 216.88)"/><path class="cls-14" d="M1084.1,310.81c-12.35,0-25.57-7.74-39.37-23.06l-.75-.84h72.93l-.34.72c-.1.2-9.87,20.21-28.3,22.88A29,29,0,0,1,1084.1,310.81Zm-37.87-22.9c14.85,16.21,29,23.48,41.9,21.61,15.94-2.31,25.25-18,27.16-21.61Z" transform="translate(623.71 216.88)"/><rect class="cls-15" x="986.12" y="225.89" width="58.99" height="61.53" transform="translate(2654.93 730.17) rotate(180)"/><path class="cls-14" d="M1045.6,287.91h-60V225.39h60Zm-59-1h58V226.39h-58Z" transform="translate(623.71 216.88)"/><path class="cls-15" d="M1045.1,287.41s-30.35,45.79-59,0Z" transform="translate(623.71 216.88)"/><path class="cls-14" d="M1014.13,308.26h-.3c-10.21-.14-19.68-7.06-28.13-20.58l-.48-.77H1046l-.52.78C1045.38,287.89,1031.68,308.26,1014.13,308.26ZM987,287.91c8.14,12.71,17.15,19.22,26.81,19.35h.29c15.08,0,27.32-15.65,30-19.35Z" transform="translate(623.71 216.88)"/><path class="cls-2" d="M781.72,274.5,776,287.41h71l22.33-61.52H856.68A82.1,82.1,0,0,0,781.72,274.5Z" transform="translate(623.71 216.88)"/><path class="cls-14" d="M847.31,287.91H775.18l6.08-13.61a82.69,82.69,0,0,1,75.42-48.91H870l-.25.67Zm-70.59-1h69.89l22-60.52h-11.9a81.71,81.71,0,0,0-74.51,48.32Z" transform="translate(623.71 216.88)"/><path class="cls-2" d="M776,287.41s24.62,51.51,71,0Z" transform="translate(623.71 216.88)"/><path class="cls-14" d="M808,310.81a29,29,0,0,1-4.17-.3c-18.43-2.67-28.2-22.68-28.29-22.88l-.34-.72h72.92l-.75.84C833.53,303.07,820.31,310.81,808,310.81Zm-31.19-22.9c1.92,3.57,11.24,19.31,27.17,21.61,13,1.87,27-5.4,41.89-21.61Z" transform="translate(623.71 216.88)"/><polygon class="cls-15" points="1493.01 442.76 1556 442.76 1538.82 504.29 1470.67 504.29 1493.01 442.76"/><path class="cls-14" d="M915.49,287.91H846.25l.24-.67,22.45-61.85h64l-.18.63Zm-67.82-1h67.06l16.9-60.52h-62Z" transform="translate(623.71 216.88)"/><path class="cls-15" d="M847,287.41s25.2,47.22,68.15,0Z" transform="translate(623.71 216.88)"/><path class="cls-14" d="M878.37,308.9a29.52,29.52,0,0,1-3.64-.23c-18-2.24-28.11-20.84-28.21-21l-.39-.74h70.11l-.76.84C902.7,301.8,890.23,308.9,878.37,308.9Zm-30.54-21c2.06,3.44,11.58,17.85,27,19.77,12.36,1.54,25.52-5.11,39.11-19.77Z" transform="translate(623.71 216.88)"/><polygon class="cls-2" points="1556 442.76 1538.82 504.29 1609.83 504.29 1609.83 442.76 1556 442.76"/><path class="cls-14" d="M986.62,287.91H914.45l.18-.63,17.28-61.89h54.71Zm-70.85-1h69.85V226.39h-53Z" transform="translate(623.71 216.88)"/><path class="cls-2" d="M915.11,287.41s24.62,51.51,71,0Z" transform="translate(623.71 216.88)"/><path class="cls-14" d="M947.12,310.81a29,29,0,0,1-4.17-.3c-18.43-2.67-28.2-22.68-28.29-22.88l-.35-.72h72.93l-.75.84C972.69,303.07,959.47,310.81,947.12,310.81Zm-31.19-22.9c1.92,3.57,11.23,19.31,27.17,21.61,12.95,1.87,27-5.4,41.89-21.61Z" transform="translate(623.71 216.88)"/><path class="cls-2" d="M558.69,28.74c56.95,0,78.1-1.78,73.3-16S619.86-11,605.44-6.27s-9.08-32.64-31.09-36.79-30.41,26.7-39.53,20.77S500-31.58,496.75-7.36,470.91-8.65,460.62,2,441.93,28.74,558.69,28.74Z" transform="translate(623.71 216.88)"/><path class="cls-2" d="M1022.36,146.57c25.95,0,35.58-.81,33.4-7.3s-5.53-10.82-12.1-8.65-4.14-14.88-14.17-16.77-13.86,12.17-18,9.47-15.89-4.24-17.35,6.8-11.77-.58-16.46,4.28S969.15,146.57,1022.36,146.57Z" transform="translate(623.71 216.88)"/><path class="cls-11" d="M1007.41-124c72.91,0,100-2.28,93.83-20.51s-15.52-30.39-34-24.31-11.62-41.78-39.81-47.1-38.92,34.19-50.59,26.59-44.62-11.89-48.73,19.12-33.08-1.65-46.25,12S858-124,1007.41-124Z" transform="translate(623.71 216.88)"/><path class="cls-3" d="M1007.41-123.46c-83.58,0-126.9-6.33-132.43-19.35-2.31-5.44,2-11,6.54-15.68,5.81-6,14.42-3.42,22.75-.9,6.84,2.08,13.29,4,17.74,1.17,3-1.91,4.8-5.84,5.62-12,1.43-10.76,6.57-18.46,14.88-22.28,12.12-5.57,27.82-1.62,34.62,2.8,4.64,3,9.33-2.22,15.28-8.85,8.35-9.31,18.75-20.9,35.14-17.81,15.25,2.88,20.48,18.11,24.68,30.35,3.74,10.87,6.69,19.46,14.87,16.76,21.25-7,29.93,10.71,34.62,24.63,1.38,4.11,1.11,7.41-.81,10.09C1094.1-125.06,1066.56-123.46,1007.41-123.46ZM890.87-161.17a11.33,11.33,0,0,0-8.63,3.37c-4.31,4.47-8.42,9.7-6.34,14.59,5.29,12.44,49.53,18.75,131.51,18.75,58.79,0,86.13-1.54,92.68-10.66,1.73-2.41,2-5.41.68-9.19-7.33-21.78-17.61-29.18-33.36-24-9.11,3-12.37-6.44-16.12-17.39-4.34-12.61-9.25-26.91-23.93-29.68-15.83-3-26,8.37-34.2,17.49-6.27,7-11.22,12.51-16.58,9-6.61-4.3-21.88-8.15-33.65-2.73-8.1,3.72-12.91,10.95-14.31,21.5-.86,6.48-2.84,10.64-6.07,12.72-4.83,3.12-11.51,1.09-18.57-1.05C899.51-159.79,895-161.17,890.87-161.17Z" transform="translate(623.71 216.88)"/><path class="cls-11" d="M581.43,37.28c20.32,0,27.85-.64,26.15-5.72s-4.33-8.46-9.47-6.77S594.87,13.15,587,11.67s-10.85,9.52-14.1,7.41-12.43-3.31-13.57,5.33-9.22-.46-12.89,3.35S539.8,37.28,581.43,37.28Z" transform="translate(623.71 216.88)"/><path class="cls-3" d="M581.43,37.78c-31.22,0-36.2-3.2-37.22-5.61-.73-1.72.63-3.45,1.89-4.76,1.78-1.84,4.4-1.05,6.71-.35,1.82.56,3.54,1.08,4.64.37.73-.47,1.19-1.48,1.4-3.09.42-3.12,1.92-5.37,4.35-6.49,3.54-1.62,8-.5,10,.81,1,.64,2-.44,3.79-2.4,2.26-2.53,5.35-6,10.12-5.08,4.46.84,5.95,5.19,7.15,8.69,1.12,3.25,1.83,5.06,3.69,4.45,6.22-2.05,8.75,3.06,10.1,7.08a3.33,3.33,0,0,1-.27,3.14C605.77,37.33,598.37,37.78,581.43,37.78ZM549,27.27a2.84,2.84,0,0,0-2.15.83c-1.11,1.16-2.19,2.5-1.69,3.68,1,2.28,8,5,36.3,5,15.93,0,23.81-.42,25.53-2.82a2.32,2.32,0,0,0,.14-2.24c-2-5.83-4.69-7.82-8.84-6.45-2.87.94-3.88-2-4.94-5.07-1.18-3.43-2.51-7.3-6.39-8-4.22-.79-7,2.29-9.2,4.76-1.79,2-3.33,3.72-5.08,2.58s-5.87-2.19-9-.74c-2.13,1-3.41,2.9-3.78,5.71-.25,1.92-.86,3.16-1.85,3.8-1.49,1-3.51.35-5.47-.25A13.22,13.22,0,0,0,549,27.27Z" transform="translate(623.71 216.88)"/><rect class="cls-16" x="1118.04" y="1038.21" width="270.63" height="270.63"/><rect class="cls-17" x="1108.78" y="1038.21" width="288.21" height="35.7"/><polygon class="cls-18" points="1118.04 1073.9 1388.67 1073.9 1388.67 1140.88 1118.04 1093.73 1118.04 1073.9"/><rect class="cls-18" x="1118.04" y="1140.88" width="74.92" height="167.95"/><rect class="cls-19" x="969.72" y="1155.87" width="197.87" height="152.97"/><rect class="cls-20" x="962.96" y="1155.87" width="210.73" height="20.18"/><polygon class="cls-18" points="969.72 1176.04 1167.6 1176.04 1167.6 1213.9 969.72 1187.25 969.72 1176.04"/><polygon class="cls-21" points="1847.5 279.34 1870.21 324.18 2020.95 157.18 1847.5 279.34"/><path class="cls-14" d="M1246.38,108.17l-23.23-45.86,177.46-125Zm-22-45.54,22.18,43.79L1393.88-56.72Z" transform="translate(623.71 216.88)"/><polygon class="cls-2" points="1872.93 293.44 2020.95 157.18 1962.07 327.49 1872.93 293.44"/><path class="cls-14" d="M1338.67,111.26l-90.38-34.52.59-.55,149.48-137.6Zm-88.52-34.88L1338.06,110,1396.12-58Z" transform="translate(623.71 216.88)"/><polygon class="cls-22" points="1872.93 293.44 1870.21 324.18 1891.78 300.64 1872.93 293.44"/><path class="cls-14" d="M1245.87,108.72l2.91-32.86,20.15,7.69Zm3.79-31.46-2.54,28.61L1267.2,84Z" transform="translate(623.71 216.88)"/><polygon class="cls-2" points="2020.95 157.18 1847.5 279.34 1780.59 248.62 2020.95 157.18"/><path class="cls-14" d="M1223.84,63l-.26-.12-68-31.22,1.12-.42,244.08-92.86Zm-65.67-31.25,65.57,30.1,170-119.71Z" transform="translate(623.71 216.88)"/><path class="cls-23" d="M963,577.87s-11.85,8.08-9.42,4,6.46-9.69,6.46-9.69-8.24,7.38-10.85,5.3,10-9.08,10-9.08-11.28,7-10.49,4.31,9.68-8.08,9.68-8.08,8.63-9.31,0-21.36S973,536.39,973,536.39Z" transform="translate(623.71 216.88)"/><path class="cls-24" d="M960.7,517.41s-23.81,43.49-17.34,43,6.66-19.93,17.34-16.7-3.68,43.1,0,44.18,17.68-30.17,20.37-60.34l-5.39-14Z" transform="translate(623.71 216.88)"/><path class="cls-25" d="M847.51,1060.05s20.8,13.82,34.66,9.21,19.07,18.43,19.07,18.43H815.45v-27.64Z" transform="translate(623.71 216.88)"/><rect class="cls-26" x="815.45" y="1087.69" width="85.78" height="5.53" transform="translate(2340.4 2397.79) rotate(180)"/><path class="cls-27" d="M771,1060.05s-20.8,13.82-34.66,9.21-19.06,18.43-19.06,18.43h85.78v-27.64Z" transform="translate(623.71 216.88)"/><rect class="cls-28" x="1340.98" y="1304.57" width="85.78" height="5.53"/><path class="cls-29" d="M697.69,499.22s26.67-31.12,63-37.18,92.94,24.25,92.94,24.25l80.41-35.16s-17.7-195.61-18.51-198.71S834.32,136,834.32,136l-84.51,87.27L707,271.43S631,406.69,697.69,499.22Z" transform="translate(623.71 216.88)"/><path class="cls-30" d="M739.71,378s-21.19,80.41-15.85,207.68,43.33,476.39,43.33,476.39h40.44s34.92-348.32,3.1-556V378Z" transform="translate(623.71 216.88)"/><path class="cls-31" d="M878.74,378s21.19,80.41,15.85,207.68-43.33,476.39-43.33,476.39H810.82s-34.92-348.32-3.1-556V378Z" transform="translate(623.71 216.88)"/><path class="cls-32" d="M916.69,82.23s61,90.1,71.92,268.29,0,177,0,177l-33.53-12.12-51-301.83Z" transform="translate(623.71 216.88)"/><path class="cls-33" d="M915.53,163.21s58.49,163,39.55,352.17L927,350.76,908.61,226.88Z" transform="translate(623.71 216.88)"/><path class="cls-34" d="M849.31,25.6s-1.21-8-38.58-5.8l3.63,24.45,30.11,1.61Z" transform="translate(623.71 216.88)"/><path class="cls-35" d="M767.19,25.6s1.21-8,38.59-5.8l-3.64,24.45L772,45.86Z" transform="translate(623.71 216.88)"/><path class="cls-36" d="M780.44-15.93l5.29,80.65s23.81,11.85,48.59,0L835.08-20Z" transform="translate(623.71 216.88)"/><path class="cls-37" d="M781-7.27l2.41,37.6,6.87-18.8S818.63,42,834.69-6.8Z" transform="translate(623.71 216.88)"/><path class="cls-38" d="M776.23-77.61,781-7.27s26.62,48.48,53.71.47L839-77.61S804.74-124.66,776.23-77.61Z" transform="translate(623.71 216.88)"/><path class="cls-39" d="M785.73,49.09s-71.07,20.21-74.3,63S739.71,378,739.71,378h139s16.69-204.27,25-267.49c5.66-42.76-69.44-61.42-69.44-61.42S800.22,62,785.73,49.09Z" transform="translate(623.71 216.88)"/><path class="cls-40" d="M834.32,49.09s93.37,388.16,0,450.13c0,0,35.63,15.8,60.34,6.86,0,0-6.28-103.89-15.95-128.08l12.82-148.46Z" transform="translate(623.71 216.88)"/><path class="cls-41" d="M785.73,49.09s-122,340.22-88,450.13c0,0-54.14,21-67.88-10.51S701.73,218,701.73,218s-11.31-115.6-1.61-135.8S785.73,49.09,785.73,49.09Z" transform="translate(623.71 216.88)"/><polygon class="cls-42" points="1339.67 381.42 1334.91 440.12 1314.2 467.13 1325.44 434.91 1320.45 385.42 1339.67 366.36 1339.67 381.42"/><path class="cls-43" d="M834.32,49.09s58.94,181,64.59,254.56-10.5,161.62-45.25,182.64c0,0,65.46,24.24,89.7-14.55s-34.75-244.86-34.75-244.86,16.16-126.07,8.08-144.65S834.32,49.09,834.32,49.09Z" transform="translate(623.71 216.88)"/><path class="cls-44" d="M785.73,49.09,788.2,29.7s-11.85,3.11-21-4.1V52.85A34.87,34.87,0,0,0,785.73,49.09Z" transform="translate(623.71 216.88)"/><path class="cls-45" d="M830.78,49.09,828.3,29.7s11.86,3.11,21-4.1V52.85A34.84,34.84,0,0,1,830.78,49.09Z" transform="translate(623.71 216.88)"/><rect class="cls-39" x="591.03" y="260.53" width="141.48" height="170.92" transform="translate(558.05 394.07) rotate(-14.54)"/><path class="cls-46" d="M716,164.54,599.6,217.59c6.27,9.67,10.39,21.95,13,35.2,1.09,5.54,1.92,11.25,2.55,17,4.56,42.63-2.65,88.06-2.65,88.06L589.09,376S535,273.35,548.68,201.83,716,70.51,716,70.51C733.74,76.16,716,164.54,716,164.54Z" transform="translate(623.71 216.88)"/><path class="cls-47" d="M589.09,376l11.19,43.23s13.74,21.82,25.46,21-9.29-7.67-9.29-7.67l-4-19.8s8.48-4,12.12,2.42,10.1,4,6.46-2.83-24.24-26.66-24.24-26.66l-2.07-21.76Z" transform="translate(623.71 216.88)"/><path class="cls-48" d="M776.23-77.61s84,28.18,72.5-31.2c0,0-17.41,9.38-36.27,3.58S769.72-98.52,776.23-77.61Z" transform="translate(623.71 216.88)"/><path class="cls-48" d="M776.23-77.61s7.68-.91,7.13,7.78-4.29,34.21-4.29,34.21S759-78.87,776.23-77.61Z" transform="translate(623.71 216.88)"/><path class="cls-48" d="M838-78.91s-6.52,4.19-6.52,7,5.23,32.45,5.23,32.45,7-21.59,7.54-31.5S838-78.91,838-78.91Z" transform="translate(623.71 216.88)"/><path class="cls-49" d="M779.07-35.62l-1.38-19s-9-1.09-8.43,5.16S772.86-35.35,779.07-35.62Z" transform="translate(623.71 216.88)"/><path class="cls-50" d="M836.28-35.62l1.37-19s9-1.09,8.43,5.16S842.48-35.35,836.28-35.62Z" transform="translate(623.71 216.88)"/><polygon class="cls-48" points="1440.66 162.18 1455.15 162.18 1458.04 166.62 1439.13 166.62 1440.66 162.18"/><path class="cls-51" d="M815.42-50.26S813.47-38.47,824.87-37s9.45-13.22,9.45-13.22Z" transform="translate(623.71 216.88)"/><path class="cls-48" d="M826.6-43.65a3,3,0,0,1-3.05,3,3.06,3.06,0,0,1-3-3,3,3,0,0,1,3-3.05A3,3,0,0,1,826.6-43.65Z" transform="translate(623.71 216.88)"/><polygon class="cls-48" points="1423.56 162.18 1409.08 162.18 1406.18 166.62 1425.09 166.62 1423.56 162.18"/><path class="cls-51" d="M801.38-50.26s2,11.79-9.45,13.22-9.46-13.22-9.46-13.22Z" transform="translate(623.71 216.88)"/><path class="cls-48" d="M790.2-43.65a3,3,0,0,0,3,3,3,3,0,0,0,3-3,3,3,0,0,0-3-3.05A3,3,0,0,0,790.2-43.65Z" transform="translate(623.71 216.88)"/><path class="cls-52" d="M801.38-50.26l2.86,28h9.66S813.25-18,801.38-20Z" transform="translate(623.71 216.88)"/><path class="cls-53" d="M801.38-50.26l2.86,28h9.66l1.52-28S809.51-59.92,801.38-50.26Z" transform="translate(623.71 216.88)"/><path class="cls-54" d="M793.24-14s23.13,4.58,33.36-2.28C826.6-16.33,815.8-11.38,793.24-14Z" transform="translate(623.71 216.88)"/><path class="cls-55" d="M800.36-9.4s11,1.91,19.13-1.14C819.49-10.54,815,3.37,800.36-9.4Z" transform="translate(623.71 216.88)"/><path class="cls-39" d="M708.79,245.5l-93.62,24.29c-.63-5.75-1.46-11.46-2.55-17l57.68-11.31Z" transform="translate(623.71 216.88)"/><rect class="cls-56" x="708.48" y="381.18" width="29.03" height="29.03" transform="translate(547.53 411.03) rotate(-14.54)"/><path class="cls-57" d="M782.35-75.81s55.61-6.17,66.38-33c0,0-4.53,32.51-38.81,37.72A80.09,80.09,0,0,1,782.35-75.81Z" transform="translate(623.71 216.88)"/><path class="cls-58" d="M-575.7,1092.09H-156s-48.82-87.13-99.85-55.77-34.08-90.16-141.31-76S-466,1091.21-542.26,1063.24s-81.45,28.85-81.45,28.85Z" transform="translate(623.71 216.88)"/><path class="cls-13" d="M1712.58,1089.44s-1.6-4.26-4.72-11l1.82-.83c3.15,6.86,4.76,11.14,4.77,11.18Zm-13.68-28.91c-1.9-3.49-3.9-7-5.93-10.41l1.71-1c2,3.44,4.06,7,6,10.49Zm-16.74-27.2c-2.29-3.3-4.67-6.56-7.05-9.67l1.59-1.22c2.4,3.14,4.79,6.42,7.11,9.75Zm-19.81-25c-2.71-3-5.5-5.87-8.29-8.6l1.4-1.43c2.82,2.75,5.63,5.68,8.37,8.68Zm-23.25-21.71c-3.17-2.47-6.43-4.82-9.67-7l1.1-1.67c3.29,2.18,6.59,4.56,9.8,7.06Zm-26.93-16.74c-3.61-1.7-7.31-3.24-11-4.56l.68-1.88c3.73,1.34,7.48,2.9,11.15,4.63Zm-30.09-9.66a113.6,113.6,0,0,0-11.77-1.46l.14-2a117.69,117.69,0,0,1,12,1.49Zm-40.31-.09-.32-2c3-.49,5.94-.87,8.86-1.15l.19,2C1547.62,959.29,1544.69,959.67,1541.77,960.15Z" transform="translate(623.71 216.88)"/></svg>