<svg xmlns="http://www.w3.org/2000/svg" viewBox="0 0 85.68 59.89">
	<defs>
		<style>
			#broom{
			opacity: 0;
			-webkit-animation : broom-fly 3s forwards 1s;
			-moz-animation: broom-fly 3s forwards 1s;
			animation: broom-fly 3s forwards 1s;

			}

			@-webkit-keyframes broom-fly {
			0%   {opacity: 1; transform: translate(-60px, 30px) }

			100% {opacity: 1; transform: translate(120px, -60px); }
			}

			@-moz-keyframes broom-fly {
			0%   {opacity: 1; transform: translate(-60px, 30px) }

			100% {opacity: 1; transform: translate(120px, -60px); }
			}

			@keyframes broom-fly {
			0%   {opacity: 1; transform: translate(-60px, 30px) }

			100% {opacity: 1; transform: translate(120px, -60px); }
			}
		</style>
		<style>
			.cls-1{isolation:isolate;}.cls-2{fill:#85421c;}.cls-3,.cls-4{fill:#eea551;}.cls-20,.cls-3,.cls-8{mix-blend-mode:screen;}.cls-12,.cls-21,.cls-4,.cls-9{mix-blend-mode:multiply;}.cls-5{fill:#1b1184;}.cls-6{fill:#5d361d;}.cls-7,.cls-8,.cls-9{fill:#995830;}.cls-9{opacity:0.5;}.cls-10{fill:#aca69d;}.cls-11{fill:#efe7da;}.cls-12{fill:#bdbdbd;}.cls-13{fill:#001b42;}.cls-14{fill:#003075;}.cls-15{fill:#0068ff;}.cls-16{fill:#ffb89c;}.cls-17{fill:#fa0;}.cls-18,.cls-21{fill:#25303e;}.cls-19{fill:#0a111b;}.cls-20{fill:#fff;opacity:0.3;}.cls-21{opacity:0.4;}
		</style>
	</defs>
	<title>
		broom_1
	</title>
	<g class="cls-1">
		<g id="Layer_2" data-name="Layer 2">
			<g id="Layer_1-2" data-name="Layer 1">
				<g id="broom">
					<path class="cls-2" d="M84.62,18.26c.17.07.51.24.68.32l.21.22a1.25,1.25,0,0,1,.17.49,1.41,1.41,0,0,1-.05.35l-.14.09-.08,0h0c-.47.17-1,.33-1.41.54-1,.44-2.09.81-3.13,1.16s-2.18.73-3.27,1.12-2.3.75-3.43,1.16-2.18.71-3.26,1.06-2.18.73-3.27,1.09-2.29.72-3.36,1.16-2.15.76-3.23,1.15c-.65.24-1.28.52-1.93.75s-1.3.41-1.94.64L55,30.4c-2.7,1-5.39,2-8.12,2.91-1.45.47-2.91,1-4.34,1.5s-2.74.93-4.1,1.42-2.74,1-4.12,1.46c-.59.21-1.16.45-1.75.65s-1.48.49-2.19.76c-.53.21-1.08.35-1.62.52l-1.25.44c-.44.15-.7,0-.73-.27s-.11-.58.29-.83a2.31,2.31,0,0,1,.72-.31l.43-.12,0,0c2.86-1.11,5.81-2,8.71-3.07s5.87-2,8.8-3,5.94-2.07,8.88-3.16l5.44-2,0,0c1.14-.44,2.28-.86,3.44-1.26l1.55-.56c.56-.22,1.14-.38,1.71-.59l3.11-1.13c1.1-.4,2.18-.84,3.28-1.23,2.17-.77,4.31-1.64,6.46-2.46,1.11-.42,2.2-.83,3.33-1.22.37-.12.73-.27,1.1-.42h0C84.3,18.28,84.38,18.17,84.62,18.26Z" />
					<path class="cls-3" d="M82.93,18.9c-1.12.4-2.22.82-3.33,1.24-2.15.83-4.3,1.66-6.46,2.47L66.74,25c-1.57.57-3.16,1.11-4.75,1.65-4.94,1.88-9.88,3.79-14.9,5.49-5.85,2-11.7,4-17.53,6l-.67.23s0,0-.06,0a9.44,9.44,0,0,1-1.17.39c-.48.12-.76.35-.73.68a.75.75,0,0,0,.07.36c.15.26.9-.05,1.23-.15h.05a0,0,0,0,1,0,0c.63-.26,1.29-.41,1.92-.65s1.35-.49,2-.72c1.32-.46,2.62-.95,4-1.4s2.82-1,4.23-1.5,2.72-.93,4.08-1.41C47.29,33,50.08,32,52.86,31c1.4-.49,2.79-1,4.19-1.52.6-.22,1.2-.41,1.81-.6s1.38-.5,2.07-.75c0,0,0,0,0,0,1.1-.46,2.28-.79,3.37-1.26a15.26,15.26,0,0,1,1.48-.52l1.61-.56c1.09-.35,2.17-.73,3.26-1.08S73,24,74.21,23.59s2.29-.78,3.43-1.16,2.09-.72,3.14-1.06S83,20.6,84,20.18c.48-.19,1-.36,1.46-.53.35-.59-.55-1.21-1.16-1.32Z" />
					<path class="cls-3" d="M77.09,22.49c1.6-.64,3.18-1.31,4.82-1.86,1.23-.42,2.46-.85,3.65-1.38a.57.57,0,0,1-.06.4c-.49.17-1,.34-1.46.53-1.06.42-2.17.83-3.26,1.19s-2.09.71-3.14,1.06-2.29.76-3.43,1.16c-.72.25-1.44.49-2.17.71C73.73,23.71,75.43,23.15,77.09,22.49Z" />
					<path class="cls-4" d="M85.49,19.63l-.34.12a.08.08,0,0,0,0-.12c-1.71-.87-3.64.12-5.18.9a54.58,54.58,0,0,1-7.11,2.73c-9.37,3.2-18.66,6.62-27.77,10.5L44.5,34c-1.35.48-2.72.94-4.08,1.41s-2.82,1-4.23,1.5-2.63,1-3.95,1.41c-.68.23-1.36.46-2,.72s-1.29.39-1.93.65h-.06c-.34.1-1.08.42-1.24.16a.77.77,0,0,1-.07-.37c0-.32.25-.56.74-.67a9.3,9.3,0,0,0,1.16-.39.1.1,0,0,0,.06,0l.67-.24c5.83-2,11.68-4,17.53-6,5-1.7,10-3.61,14.9-5.49,1.59-.54,3.18-1.08,4.75-1.66l6.4-2.36c2.16-.8,4.31-1.63,6.46-2.46,1.11-.43,2.21-.84,3.33-1.25.13,0,.77-.3,1.41-.56C85,18.42,85.84,19,85.49,19.63Z" />
					<path class="cls-4" d="M36.75,36.68l-.74.26c-1.32.45-2.63.94-3.95,1.4-.68.24-1.35.47-2,.72s-1.29.4-1.93.65l0,0h0c-.34.1-1.08.41-1.24.16a.79.79,0,0,1-.07-.37c0-.33.25-.56.74-.68a10,10,0,0,0,1.17-.38.15.15,0,0,0,.05-.06l.67-.23c3.73-1.31,7.47-2.59,11.21-3.87C39.29,35.07,38,35.85,36.75,36.68Z" />
					<path class="cls-5" d="M35.68,36,34,36.58a8,8,0,0,1,.87-.36A7.23,7.23,0,0,1,35.68,36Z" />
					<path class="cls-6" d="M1.18,36.41A16.4,16.4,0,0,0,3,36.18c.55-.09,1.08-.25,1.63-.37h0c.3,0,.6-.1.9-.12.72.13,1.43.31,2.12.49a5.24,5.24,0,0,0,1.79.32c.67-.06,1.35-.08,2-.1,1.27,0,2.54-.06,3.8-.12a24,24,0,0,1,3.49-.11,15,15,0,0,1,3.52,1.06,6.53,6.53,0,0,0,1.48.47,2.2,2.2,0,0,0,.79-.17c.39-.11.78-.22,1.16-.35s.7-.24,1.05-.37a.05.05,0,0,1,0,0,8.66,8.66,0,0,0,1.7-.91v0a9.54,9.54,0,0,0,.7-.72,1,1,0,0,1,.42-.33.33.33,0,0,1,.1-.06c.15-.08.53.05.57.24v0c.14-.13.3-.25.42-.23s.49.46.57.66-.16.36-.26.45l-.4.37c.15-.11.42-.28.5-.14s-.19.46-.55.68l.64-.23c.26-.1.4,0,.47.29s.13.44-.07.61a2.81,2.81,0,0,1-.51.29l.9-.23c.29-.08.34.18.38.4a.45.45,0,0,1-.17.36c-.33.17-.7.31-1.05.45a5,5,0,0,1,.94-.06c.19,0,.16.14.15.31,0,.48-.49.5-.9.59.34,0,.67-.08,1,0,.11,0,.22.06.17.19-.23.59-.24,1.14-.92,1.31l-.32.08c-.18,0-.22,0-.11,0a2.6,2.6,0,0,1,.56-.07c.12,0,0,.19,0,.25-.22.52-.69.43-1.15.4-1.11.06-2.22.12-3.33.21a5.35,5.35,0,0,0-1.82.3A7.93,7.93,0,0,0,24,43.29c-.9.7-1.81,1.38-2.76,2a8.94,8.94,0,0,1-3.07,1.24c-1.15.26-2.28.54-3.44.76s-2.39.45-3.58.7a13.26,13.26,0,0,0-3.33,1,15.07,15.07,0,0,1-3,1.17,1.42,1.42,0,0,1-.61.13A1.68,1.68,0,0,1,4,50a1.09,1.09,0,0,1-.08-.15.3.3,0,0,1,.1-.09,4.3,4.3,0,0,1,.73-.16,9.09,9.09,0,0,0,1.52-.52,9.94,9.94,0,0,0,2-1.25,19.94,19.94,0,0,1-2.74,1c-.46.11-.93.09-1.39.17a12,12,0,0,1-1.33.24c-.56,0-.21-.41.07-.54a7.28,7.28,0,0,1,1.47-.33,6.36,6.36,0,0,0,.85-.25c-.47.06-.95.13-1.43.18-.31,0-1.1.28-1.32-.09-.33-.53.08-.77.61-.89a1.09,1.09,0,0,1-.64-.06.52.52,0,0,1-.24-.68c.18-.25.57-.23.85-.25A15.62,15.62,0,0,0,5.46,46L6,45.89l.21,0-1,.07c-.83.07-1.66.13-2.49.16A.91.91,0,0,1,2,45.84a1.52,1.52,0,0,0,.06-.42l.09,0a1.38,1.38,0,0,1,.41,0c.33,0,.67,0,1,0l.36,0-.66,0a3.71,3.71,0,0,1-1.41-.13,2.39,2.39,0,0,0-.13-.28.17.17,0,0,1,0-.1.76.76,0,0,1,.49-.19l-.41,0a.51.51,0,0,1-.38-.12,2.44,2.44,0,0,0-.14-.34.89.89,0,0,1,.26-.59A3.15,3.15,0,0,1,3,42.83l-.77.1c-.16,0-1.14.43-1.11,0,0-.3,1-.43,1.18-.48l1.1-.34c-.57,0-1.13.08-1.7.14-.33,0-.49.06-.7-.25a.4.4,0,0,1,.05-.44,2.75,2.75,0,0,1,.84-.5c.46-.24.93-.46,1.4-.67l.32-.14c-.43.1-.87.21-1.3.33-.16.05-1.07.51-1,0,0-.29.62-.42.81-.49l.45-.2c-.45.11-.9.21-1.34.34a2.72,2.72,0,0,1-.58.11,3.91,3.91,0,0,1-.1-.58,5.19,5.19,0,0,1,1.68-1c.31-.16.62-.31.94-.45-.68.16-1.35.33-2,.53a3,3,0,0,1-.93.24,1.9,1.9,0,0,1-.2-.37,1.2,1.2,0,0,1,.15-.4,1.2,1.2,0,0,1,.66-.36,12.74,12.74,0,0,0,1.74-.76,9,9,0,0,1,1.06-.41l-.28,0c-.65.1-1.3.27-1.95.4-.26.05-.88.24-1.13.05a.31.31,0,0,1,0-.5A1.47,1.47,0,0,1,1.18,36.41Z" />
					<path class="cls-7" d="M.47,37.1a1.79,1.79,0,0,0,.4,0c.47,0,.93-.17,1.38-.26a15.65,15.65,0,0,1,2.14-.35l-.78.46-.48.16c-.79.28-1.53.76-2.33,1a2.83,2.83,0,0,0-.41.14c-.32.19-.35.41-.11.66l.29-.09c.47-.15,1-.26,1.42-.4a13.53,13.53,0,0,1,1.88-.45,1.94,1.94,0,0,1,.64.06l-.73.15a21.8,21.8,0,0,0-2.65,1.32l-.39.23,0,.47L1,40.09l.73-.2.73-.21h0L4,39.5,2.67,40,2,40.24l-.33.14h0c-.24,0-.22.1.06.22A11.53,11.53,0,0,1,4,40.06l.57-.17L4,40.24a14,14,0,0,0-2,.87c-.2.1-1.2.47-.74.9.16.14.46,0,.64,0l.74,0,1.18-.05.16,0,.59.07L4.1,42c-.92.26-1.84.51-2.75.79-.06.18,0,.23.19.16a4.23,4.23,0,0,0,.51-.13,8.85,8.85,0,0,1,.9-.12l.6,0,.87-.2c-.38.16-.77.29-1.16.43l-.68.19c-.5.18-1.42.42-1.15,1.15.08.2,1,.19,1.24.24s0,.13,0,.14a2.27,2.27,0,0,1-.53.12c-.31,0-.17.33.08.35h.54c.46,0,.91,0,1.37,0,.21.07.42.16.62.25-.47,0-1,.1-1.43.13l-.49,0H2.61a3.27,3.27,0,0,0-.44,0c-.32,0,.12.44.34.43.47,0,.94,0,1.41-.06.9,0,1.79-.15,2.69-.19,0,0,0,.08,0,.09a14.47,14.47,0,0,1-3.51.64,4.36,4.36,0,0,0-.51,0c-.53,0-.4.6.06.68a.81.81,0,0,0,.27,0,2.88,2.88,0,0,0,.59.06,2.89,2.89,0,0,1,.83.08l0,0c-.41.06-.82.08-1.23.12s-.9.27-.51.67c.16.17.53.07.73,0,.61-.09,1.22-.17,1.84-.23l.7.09a18,18,0,0,1-2.29.62,3.27,3.27,0,0,0-.62.14c-.23.08-.43.27-.06.26a6.14,6.14,0,0,0,.93-.19c.73-.19,1.47-.17,2.2-.36s1.67-.67,2.52-.94c.09,0,.05.09,0,.12a12.06,12.06,0,0,1-2.86,1.66c-.53.19-1.07.32-1.61.48,0,.22.14.31.35.25a.43.43,0,0,0,.21,0s0,0,0,0a22.7,22.7,0,0,0,3.07-1.25,13.68,13.68,0,0,1,3.2-.94c2.34-.5,4.71-.82,7-1.45a17.07,17.07,0,0,0,1.73-.49,8.22,8.22,0,0,0,1.72-.94c1-.67,1.93-1.4,2.88-2.12A6.39,6.39,0,0,1,25.57,42a4.23,4.23,0,0,1,1.54-.22c1-.06,2-.07,3.06-.08a3.85,3.85,0,0,1,.83,0,.73.73,0,0,0,.42-.14l0-.11a.91.91,0,0,0,.09-.17.25.25,0,0,0-.31,0,1.68,1.68,0,0,1-.5,0c-.05,0,0-.09,0-.1.21-.07.43-.12.64-.17.59-.14.76-.56.91-1s-.35-.29-.59-.26a1.83,1.83,0,0,1-.7,0s0-.09,0-.1l.29-.1a1.56,1.56,0,0,0,.45-.11h0c.19-.1.28-.21.26-.3a.85.85,0,0,0,0-.17.12.12,0,0,0-.12-.11c-.24,0-.48.05-.72.05l-.5,0a.19.19,0,0,1,0-.09c.3-.13,1.39-.44,1.32-.85s-1.18,0-1.43,0h0c-.13.07-.26.12-.4.18l.08-.09c.27-.13.52-.27.78-.42s.5-.35.32-.76-.48-.12-.71,0a7.66,7.66,0,0,0-.93.4c.31-.33.8-.51,1.12-.84a.12.12,0,0,0-.12-.19,2.71,2.71,0,0,0-.49.22l-.09,0a.2.2,0,0,0,0-.08,7.6,7.6,0,0,0,.61-.52c.39-.35,0-.65-.27-.9-.06,0-.29.1-.55.31l-.17.13c-.39.31-.8.68-.88.74S29,36,29,36a9.32,9.32,0,0,1,.76-.65l.19-.19c.17-.15.07-.28-.07-.32a.67.67,0,0,0-.34.07c-.21.21-.43.41-.66.62l-.24.29a10.91,10.91,0,0,1-1.19.7l-.43.25c-.46.21-.92.39-1.4.57s-1.07.36-1.61.5a2.34,2.34,0,0,1-1.42-.22c-1.16-.41-2.31-.83-3.5-1.16a12.83,12.83,0,0,0-4,0c-1.27.08-2.54.09-3.81.12-.67,0-1.36,0-2,.1a4.53,4.53,0,0,1-1.67-.26A21.39,21.39,0,0,0,5.4,36H5.16a6.27,6.27,0,0,0-1.55.31,15.66,15.66,0,0,1-2.55.36,3.32,3.32,0,0,0-.44.06C.29,37,.24,37.1.47,37.1Z" />
					<path class="cls-8" d="M9.24,44.35a19.24,19.24,0,0,1-3.48.17,4.94,4.94,0,0,1,2.57-.38Z" />
					<path class="cls-8" d="M14.55,41.3a17.62,17.62,0,0,1-2.61.18c-1.25,0-2.54,0-3.8-.11A19.77,19.77,0,0,1,12.27,41C13,41.07,13.79,41.24,14.55,41.3Z" />
					<path class="cls-8" d="M15,39.37l.1,0c-1,.11-2,.12-3,.14A7,7,0,0,1,14,39.12,2.28,2.28,0,0,1,15,39.37Z" />
					<path class="cls-8" d="M10.3,43.15a9.15,9.15,0,0,1-3.17.15,6.17,6.17,0,0,1,2.06-.36A6.8,6.8,0,0,1,10.3,43.15Z" />
					<path class="cls-9" d="M1.06,36.61a15.66,15.66,0,0,0,2.55-.36,6.27,6.27,0,0,1,1.55-.31H5.4a21.39,21.39,0,0,1,2.24.52,4.53,4.53,0,0,0,1.67.26c.67-.07,1.36-.08,2-.1,1.27,0,2.54,0,3.81-.12a12.83,12.83,0,0,1,4,0c1.19.33,2.34.75,3.5,1.16a2.34,2.34,0,0,0,1.42.22c.54-.14,1.09-.32,1.61-.5s.94-.36,1.4-.57l.43-.25a10.91,10.91,0,0,0,1.19-.7l.24-.29c.23-.21.45-.41.66-.62a.67.67,0,0,1,.34-.07c.14,0,.24.17.07.32l-.19.19A9.32,9.32,0,0,0,29,36s0,.09,0,.06.49-.43.88-.74l.17-.13c.26-.21.49-.36.55-.31.26.25.66.55.27.9a7.6,7.6,0,0,1-.61.52.2.2,0,0,1,0,.08l.09,0a2.71,2.71,0,0,1,.49-.22.12.12,0,0,1,.12.19c-.32.33-.81.51-1.12.84a7.66,7.66,0,0,1,.93-.4c.23-.09.57-.29.71,0,0,0,0,0,0,0a5.1,5.1,0,0,0-.86.29,4.54,4.54,0,0,0-1.58.8.1.1,0,0,0,.08.16,6,6,0,0,0,2.41-1c0,.18-.17.29-.39.42s-.51.29-.78.42l-.08.09c.14-.06.27-.11.4-.18h0c.25,0,1.34-.44,1.43,0a4.1,4.1,0,0,0-1.34.27,10.71,10.71,0,0,1-1.63.62.1.1,0,0,0,0,.19,4.69,4.69,0,0,0,1.58-.14h0l.5,0c.24,0,.48-.06.72-.05a.12.12,0,0,1,.12.11l0,.15-.49-.08a3.36,3.36,0,0,0-.84.05,4.65,4.65,0,0,0-1.55.47.1.1,0,0,0,0,.18,5.6,5.6,0,0,0,1.78,0,0,0,0,0,0,0,0,1.83,1.83,0,0,0,.7,0c.21,0,.61-.09.61.15a5.76,5.76,0,0,0-2.89.67.1.1,0,0,0,0,.17,1.92,1.92,0,0,0,1.06.3,7.49,7.49,0,0,1-1.14.25c-.1,0-.14.13-.05.19a2.12,2.12,0,0,0,.73.27c-1,0-2,0-2.95.08a4.23,4.23,0,0,0-1.54.22,6.39,6.39,0,0,0-1.29.85c-1,.72-1.9,1.45-2.88,2.12-.33.22-.66.43-1,.62.12-.08.24-.16.35-.25.7-.51,1.39-1.06,2-1.64.35-.3.69-.62,1-.92s.63-.45.9-.73c.05-.06,0-.17-.07-.16a5.63,5.63,0,0,0-2.16,1c-1,.55-1.92,1.25-2.9,1.84a14,14,0,0,1-5.69,1.67,24.77,24.77,0,0,0,4.59-1.54c1.73-.88,3.22-2.13,4.93-3,.08,0,.05-.19-.05-.18a9.54,9.54,0,0,0-1.17.2,7.69,7.69,0,0,1-1,.23,16.27,16.27,0,0,1,2.1-1,.09.09,0,0,0,0-.17,4,4,0,0,0-2.15.14c-1.16.21-2.2.75-3.33,1a14.12,14.12,0,0,1-3.37.26c-.59,0-1.18,0-1.77,0l1-.17c.84-.16,1.69-.22,2.53-.34A13.7,13.7,0,0,0,18.77,41c.79-.28,1.6-.48,2.4-.73a.1.1,0,0,0,0-.19A5.41,5.41,0,0,0,19.84,40c-.5,0-1-.09-1.49-.14a18.62,18.62,0,0,0-3.08-.09c.49-.08,1-.14,1.48-.19,1.84-.2,3.72-.36,5.57-.42a.1.1,0,0,0,.05-.18,6.42,6.42,0,0,0-2.62-.52,18.84,18.84,0,0,0-3.52-.17c-1.24.07-2.47.32-3.71.46h0a31.47,31.47,0,0,0-4.12,0,9,9,0,0,0-2,.27c-.64.19-1.26.44-1.9.64a.1.1,0,0,0,0,.19c.74.09,1.49.17,2.24.19a5.12,5.12,0,0,0-1.07.28,30.77,30.77,0,0,1-3,1.16c-.11,0-.09.2,0,.19a38.43,38.43,0,0,1,5.68.17c-.41,0-.82.11-1.24.15a6.38,6.38,0,0,0-1.57.21.1.1,0,0,0,0,.18,3.78,3.78,0,0,0,1.2.35H6.64c-.47,0-.94,0-1.41.07a4.81,4.81,0,0,0-1.33.43c-.54.24-1.1.37-1.65.58a.1.1,0,0,0,0,.19,6.37,6.37,0,0,0,2,.05q1,0,2-.06c-.85.22-1.74.25-2.58.51a.1.1,0,0,0,0,.19,7.45,7.45,0,0,0,2.82.27c1,0,2-.08,2.94,0A11.63,11.63,0,0,0,7,45.48a.1.1,0,0,0,0,.18,5.41,5.41,0,0,0,1.75,0c.55,0,1.09-.14,1.64-.13a15.29,15.29,0,0,1-2,.43c-.88.15-1.75.37-2.64.48s-1.69.18-2.53.22c-.32,0-.64,0-1,0a.36.36,0,0,1,.32-.17,4.36,4.36,0,0,1,.51,0,14.47,14.47,0,0,0,3.51-.64s.06-.09,0-.09c-.9,0-1.79.15-2.69.19C3.45,46,3,46,2.51,46c-.22,0-.66-.43-.34-.43a3.27,3.27,0,0,1,.44,0h.18l.49,0c.47,0,1-.14,1.43-.13-.2-.09-.41-.18-.62-.25-.46,0-.91,0-1.37,0H2.18c-.25,0-.39-.32-.08-.35a2.27,2.27,0,0,0,.53-.12s.11-.12,0-.14-1.16,0-1.24-.24c-.27-.73.65-1,1.15-1.15l.68-.19c.39-.14.78-.27,1.16-.43l-.87.2-.6,0a8.85,8.85,0,0,0-.9.12,4.23,4.23,0,0,1-.51.13c-.19.07-.25,0-.19-.16.91-.28,1.83-.53,2.75-.79L4.56,42,4,41.9l-.16,0L2.63,42l-.74,0c-.18,0-.48.12-.64,0-.46-.43.54-.8.74-.9a14,14,0,0,1,2-.87l.59-.35L4,40.06a11.53,11.53,0,0,0-2.25.54c-.28-.12-.3-.19-.06-.22h0L2,40.24,2.67,40,4,39.5l-1.53.18h0l-.73.21-.73.2-.24.07,0-.47.39-.23a21.8,21.8,0,0,1,2.65-1.32L4.51,38a1.94,1.94,0,0,0-.64-.06A13.53,13.53,0,0,0,2,38.38c-.47.14-.95.25-1.42.4l-.29.09c-.24-.25-.21-.47.11-.66a2.83,2.83,0,0,1,.41-.14c.8-.22,1.54-.7,2.33-1l.48-.16.78-.46a15.65,15.65,0,0,0-2.14.35c-.45.09-.91.21-1.38.26a1.79,1.79,0,0,1-.4,0c-.23,0-.18-.15.15-.43A3.32,3.32,0,0,1,1.06,36.61Z" />
					<path class="cls-9" d="M28.48,36.74q.33.91.57,1.86a7.6,7.6,0,0,1,.16.83h0a.1.1,0,0,0,0,.18h0a5.25,5.25,0,0,1,0,1,4.3,4.3,0,0,1-.2,1.08c-.66,0-1.31,0-2,.07h-.3a8.78,8.78,0,0,0-.37-1c-.05-.08-.19,0-.18,0,0,.32,0,.64,0,1a2.44,2.44,0,0,0-.73.18l-.33.16c-.09-.4-.15-.81-.24-1.22a11,11,0,0,1-.33-1.82,9.21,9.21,0,0,1,0-1.39l1-.32.63-.24c.3.59.67,1.15,1,1.74.06.1.19,0,.17-.08a14.23,14.23,0,0,0-.28-2.05h0l.32-.18c.27-.15.54-.29.79-.44C28.34,36.31,28.41,36.53,28.48,36.74Z" />
					<path class="cls-9" d="M1.06,36.61a15.66,15.66,0,0,0,2.55-.36,6.27,6.27,0,0,1,1.55-.31H5.4a21.39,21.39,0,0,1,2.24.52,4.53,4.53,0,0,0,1.67.26c.67-.07,1.36-.08,2-.1,1.27,0,2.54,0,3.81-.12a12.83,12.83,0,0,1,4,0c1.19.33,2.34.75,3.5,1.16.24.08.46.17.68.22a4.16,4.16,0,0,1-1.61-.06c-.83-.21-1.58-.6-2.42-.76a16.12,16.12,0,0,0-5,.09c-.94.1-1.88.21-2.82.25a7.48,7.48,0,0,1-2.67-.19,7.37,7.37,0,0,0-2-.58,6.83,6.83,0,0,0-2.3.5.1.1,0,0,0,0,.19,12.65,12.65,0,0,1,2.12.34c-.61.15-1.2.42-1.78.62-1.27.45-2.55.85-3.83,1.23l0,0a21.8,21.8,0,0,1,2.65-1.32L4.51,38a1.94,1.94,0,0,0-.64-.06A13.53,13.53,0,0,0,2,38.38c-.47.14-.95.25-1.42.4l-.29.09c-.24-.25-.21-.47.11-.66a2.83,2.83,0,0,1,.41-.14c.8-.22,1.54-.7,2.33-1l.48-.16.78-.46a15.65,15.65,0,0,0-2.14.35c-.45.09-.91.21-1.38.26a1.79,1.79,0,0,1-.4,0c-.23,0-.18-.15.15-.43A3.32,3.32,0,0,1,1.06,36.61Z" />
					<path class="cls-10" d="M27.68,36.06c.84.19.87,1.52,1,2.2A15.45,15.45,0,0,1,29,40.51a11.18,11.18,0,0,1-.1,1.19.06.06,0,0,1,0,.07h0a.85.85,0,0,1-.61.23l0,0,0,0h-.06a.92.92,0,0,1-.43.08.1.1,0,0,0-.08,0,.18.18,0,0,1-.09-.1c-.58.28-.72-.5-.93-1s-.49-1.31-.76-2c-.06-.15-.13-.3-.2-.45,0,.5.11,1,.17,1.49a5.78,5.78,0,0,1,0,.58c0,.44.11.87.18,1.3a.56.56,0,0,1,0,.28s0,0,0,0a.36.36,0,0,1-.24.19c-.56.17-.59-.15-.64-.66s-.08-1.31-.12-2h0a1.79,1.79,0,0,0,0-.61c0-.26,0-.52,0-.78,0-.43-.16-.87.18-1.19h0a.17.17,0,0,1,0-.07.1.1,0,0,1,0-.1c.67-.45.88.43,1.09.92a16.3,16.3,0,0,1,1.26,3c0-.05,0-.09,0-.14a12.74,12.74,0,0,0-.14-2.39,6.07,6.07,0,0,0-.5-1.67.32.32,0,0,1,.05-.28c.15-.22.33-.22.47-.11a.54.54,0,0,1,.07-.33S27.65,36.05,27.68,36.06Z" />
					<path class="cls-11" d="M25.28,40c0,.36,0,.73.06,1.09s0,.64.05.95.36.45.61.29-.15-.94-.17-1.13c0-.35,0-.7,0-1.06s-.09-.68-.13-1a8.3,8.3,0,0,1-.14-1,3.52,3.52,0,0,1-.24-.78C24.89,37.78,25.25,39.49,25.28,40Z" />
					<path class="cls-11" d="M26.67,39c-.14-.28-.27-.57-.4-.85L26,37.52c-.07-.28-.28-.35-.64-.19a2.57,2.57,0,0,0,.21.63s0,0,0,0h0c.1.23.21.45.28.61.17.43.35.87.51,1.31s.53,2.13,1.19,2a1.54,1.54,0,0,1,0-.43h0A8,8,0,0,0,26.67,39Z" />
					<path class="cls-11" d="M27.36,37.21c0,.08.05.16.08.25A8.3,8.3,0,0,1,27.72,39a9.91,9.91,0,0,1,.06,1.44c0,.3-.25,1.55.43,1.48l.07,0a3,3,0,0,1-.1-1.13,9.31,9.31,0,0,0-.29-3.28c-.05-.21-.2-.5-.29-.79Q27.06,36.85,27.36,37.21Z" />
					<path class="cls-11" d="M27.82,36.76a9.68,9.68,0,0,1,.55,2.71,6.48,6.48,0,0,1,0,1c0,.21-.08,1.88.49,1.3a9.58,9.58,0,0,0-.24-3.41c-.09-.43-.19-.86-.3-1.28S27.48,35.82,27.82,36.76Z" />
					<path class="cls-12" d="M27.61,36.1a.54.54,0,0,0-.07.33c-.14-.11-.32-.11-.47.11a.32.32,0,0,0-.05.28,6.07,6.07,0,0,1,.5,1.67,12.74,12.74,0,0,1,.14,2.39s0,.09,0,.14a16.3,16.3,0,0,0-1.26-3c-.21-.49-.42-1.37-1.09-.92a.1.1,0,0,0,0,.1.17.17,0,0,0,0,.07h0c-.34.32-.21.76-.18,1.19,0,.26,0,.52,0,.78a1.79,1.79,0,0,1,0,.61h0c0,.66.07,1.32.12,2,0,.38.06.66.31.7a.6.6,0,0,1,0-.4,12.49,12.49,0,0,0-.26-3.66.1.1,0,0,1,.18-.08,4.81,4.81,0,0,1,.32.82c0-.19,0-.39-.05-.58.07.15.14.3.2.45.27.65.5,1.3.76,2s.35,1.31.93,1a.18.18,0,0,0,.09.1.1.1,0,0,1,.08,0,.92.92,0,0,0,.43-.08h.06l0,0,0,0a.76.76,0,0,0,.38-.08.31.31,0,0,1-.18-.09c-.22-.21-.17-.71-.17-1,0-.65.06-1.29,0-1.94a7.18,7.18,0,0,0-.32-1.53c0-.21-.2-1,.21-.81a.93.93,0,0,0-.61-.52S27.62,36.08,27.61,36.1Zm-.11,5.26a.24.24,0,0,1,0,.08c0,.08-.09.17-.16.09a1.64,1.64,0,0,1-.31-.8.11.11,0,0,1,0-.08c-.22-.49-.51-1-.73-1.42a3.3,3.3,0,0,1-.5-1.77c0-.08.14-.09.18,0,.34.62.54,1.31.83,2A7.11,7.11,0,0,1,27.5,41.36Zm.13-4.29c.38.28.4.84.51,1.26a5.9,5.9,0,0,1,.18,1.19,5.14,5.14,0,0,1-.09.87.1.1,0,0,1,0,0,1.29,1.29,0,0,1,0,.48c0,.21,0,.44-.09.65s-.16.09-.19,0a1.36,1.36,0,0,1-.08-.69,1.34,1.34,0,0,1,0-.49,7.1,7.1,0,0,0,0-1,8.19,8.19,0,0,0-.21-1.3,3.46,3.46,0,0,1-.15-.9A.1.1,0,0,1,27.63,37.07Z" />
					<path class="cls-13" d="M54.74,57.07a4.51,4.51,0,0,0-.23,1.82c.16.62.24,1,.24,1l6.73-.47s.72-.76.24-1.18a28.47,28.47,0,0,0-4.26-1.52l-2.72.35" />
					<path class="cls-14" d="M44,27.49S52.86,36.17,54.93,40,58.24,57,58.24,57l-2.68.18S52.64,41.46,39.85,34.46C30.33,29.25,44,27.49,44,27.49Z" />
					<path class="cls-14" d="M30.73,18.79s-.67-1.85-.22-2.31,5.93-4.41,6.21-4.44a4,4,0,0,1,1.08.27Z" />
					<path class="cls-15" d="M35.83,24.76s-3.32.16-4.57-.79-1.15-3.74-.53-5.18,6.9-6.92,8.21-7.08a35,35,0,0,1,5.27.44L35.83,24.76" />
					<path class="cls-14" d="M35.83,24.76c-.34,0-1.4,7.32,1.56,9.09s16-4.23,16-4.23-1,3.17.26,8.59c1.23,5.16,1.6,5.63,1.6,5.63l2.09-.42s3.08-17.54,1.07-19.15S42,25.48,42,25.48l.43-1.77Z" />
					<path class="cls-15" d="M55,0l-4.56,2a.29.29,0,0,0-.14.37h0a.28.28,0,0,0,.37.14l4.55-2a.27.27,0,0,0,.14-.37h0A.27.27,0,0,0,55,0Z" />
					<path class="cls-13" d="M44.49,3.6c-.09.09-.73,2.9.2,4.13a5.87,5.87,0,0,0,2.63,1.74s6-5.71,5.67-7.65Z" />
					<path class="cls-15" d="M44.22,5.44A3.62,3.62,0,0,1,44,2.75C44.56,1.29,46.5.06,49,.18c1.33.06,2.87,1.87,2.79,1.89Z" />
					<path class="cls-16" d="M50,12.16l1-1.64a2.52,2.52,0,0,0,2.73-1.3C54.87,6.85,52.44,1.85,50,2.88S47.74,7,47.74,7s-.73-1.33-1.5-.69.11,1.78.84,1.88.76,1.7-.58,2.9C46.5,11.11,48.16,13.77,50,12.16Z" />
					<path class="cls-17" d="M44.08,14.82s2.64,3.26,9.6,6.51,12.38,1.74,12.38,1.74L67.15,21s-6.32,0-10-3.6C52.54,12.93,50.06,9.6,48,9.64S43.93,13.7,44.08,14.82Z" />
					<path class="cls-13" d="M47.74,7s.49.16.54-.73a4.65,4.65,0,0,1,.46-2.55h0L46.89,5.13S47.74,7,47.74,7" />
					<path class="cls-13" d="M47.9,4.37A4.91,4.91,0,0,0,51,4.25l-.47-.42s2.85.93,3.24-2.66L47.48,4l.42.39" />
					<path class="cls-16" d="M65.24,23.89l.88-3.17s3.56-.21,4.33.46a4.29,4.29,0,0,1,.9,3.16,8.34,8.34,0,0,1-2.09.63l-2.1-1.34-1.92.26.88-3.17" />
					<path class="cls-13" d="M54.75,42.85a4.34,4.34,0,0,0-.23,1.82c.16.62.24,1,.24,1l6.73-.47s.71-.76.24-1.18a28.54,28.54,0,0,0-4.27-1.52l-2.71.35" />
					<path class="cls-17" d="M34.1,26.31s2,4.44,12-1.54c0,0,5.7-9.34,4.82-11.78s-3.88-4.27-8-1.09S34.1,26.31,34.1,26.31Z" />
					<path class="cls-15" d="M34.68,22.53s8.65,2,13.58-1.38a.51.51,0,0,0,.17-.22l.72-1.77s-9.44,2.71-13.34.29Z" />
					<path class="cls-15" d="M41,13.6c0-.19,5.43-4.76,9.23-1.87l.87.78S50.49,9.75,45.13,10s-7.48,5.26-7.48,5.26Z" />
					<path class="cls-14" d="M35.21,23.8s-2.75-1.67-2.3-3.13,3-5.36,6.21-4.47Z" />
					<path class="cls-18" d="M50.79,32.81a16.13,16.13,0,0,0-1.6.62c-.09.09-5.77,1.64-7.48,2.18-2.6.49-1.77-1.33-.72-1.76.43-.18,1.69-.6,1.72-.59s5.58-3.36,8-3.14C51.68,30.26,53.56,31.79,50.79,32.81Z" />
					<path class="cls-19" d="M39.93,35.14a1.67,1.67,0,0,1,1-1.35c.36-.15,1.55-.55,1.73-.58l.21-.12c3.7-2.11,6.4-3.15,7.81-3,.6.08,1.53.69,1.57,1.4,0,.38-.23.93-1.49,1.39a16.47,16.47,0,0,0-1.58.61c0,.05-.77.26-3.26,1-1.6.45-3.4,1-4.25,1.23a3.72,3.72,0,0,1-1.06.07h0C40.08,35.66,40,35.37,39.93,35.14Zm3-2c-.19.11-.22.13-.24.13h0c-.08,0-1.28.4-1.71.58a1.55,1.55,0,0,0-1,1.23c0,.27.24.44.63.49a3.23,3.23,0,0,0,1-.06c.83-.27,2.64-.78,4.24-1.23s3.14-.89,3.22-.95,1.37-.54,1.62-.63c.94-.34,1.43-.79,1.41-1.27,0-.64-.91-1.22-1.49-1.3C49.73,30.09,47.6,30.54,43,33.19Z" />
					<path d="M40,35.09c0-.51.66-1.15,1-1.3l.11-.07a.64.64,0,0,1,.16-.11l.07,0v.09a3.76,3.76,0,0,0,.49,1.9l0,.07-.13,0a5.26,5.26,0,0,1-.9,0h0C40.29,35.59,40,35.4,40,35.09Zm1.22-1.34-.08.06a.47.47,0,0,1-.12.09c-.33.15-.95.76-.92,1.17s.41.43.74.47h0a4.58,4.58,0,0,0,.85,0A3.86,3.86,0,0,1,41.21,33.75Z" />
					<path d="M47.21,31c.45-.18.9-.35,1.33-.49a4.56,4.56,0,0,0,.65,2.93h0s-.56.18-1.34.41A6.17,6.17,0,0,1,47.21,31Z" />
					<path d="M44.3,32.38c.37-.2.8-.42,1.25-.64a4.12,4.12,0,0,0,.92,2.49L45,34.64A5.73,5.73,0,0,1,44.3,32.38Z" />
					<path d="M41.26,33.66a5.2,5.2,0,0,1,1.32-.38,2.14,2.14,0,0,0,.62,1.89c-.58.16-1.09.32-1.44.43A3.82,3.82,0,0,1,41.26,33.66Z" />
					<path class="cls-20" d="M48.62,30.66s-2.72,1.2-3.53,1.67a16.24,16.24,0,0,1-2.46,1.07c-.79.29.5-.38,1.26-.75S47.78,30.62,48.62,30.66Z" />
					<path class="cls-21" d="M41,33.85l.51-.19c-.28.44-.82.87-.59,1.14s.7.42,2.46-.2a15.61,15.61,0,0,0,3.74-2.15c.83-.54,2.59-.69,1.9-.77s-.84-.05-.37-.59a2.26,2.26,0,0,0,.47-.77,4.82,4.82,0,0,1,1.6-.2c1,.14,2.85,1.67.08,2.69a16.13,16.13,0,0,0-1.6.62c-.09.09-5.77,1.64-7.48,2.18C39.11,36.1,39.94,34.28,41,33.85Z" />
				</g>
			</g>
		</g>
	</g>
</svg>
