<?xml version="1.0" encoding="utf-8"?>
<!-- Generator: Adobe Illustrator 23.0.1, SVG Export Plug-In . SVG Version: 6.00 Build 0)  -->
<svg version="1.1" id="Layer_1" xmlns="http://www.w3.org/2000/svg" xmlns:xlink="http://www.w3.org/1999/xlink" x="0px" y="0px"
	 viewBox="0 0 444.53 303.01" style="enable-background:new 0 0 444.53 303.01;" xml:space="preserve">
<style type="text/css">
	.st0{opacity:0.61;}
	.st1{fill:#9DCE70;}
	.st2{opacity:0.8;}
	.st3{fill:#00AD6A;}
	.st4{opacity:0.6;}
	.st5{opacity:0.6;fill:#00AD6A;enable-background:new    ;}
	.st6{fill:#E9F7FE;enable-background:new    ;}
	.st7{fill:#E9F7FE;}
	.st8{fill:#CBCCCE;}
	.st9{clip-path:url(#SVGID_2_);}
	.st10{fill:none;stroke:#263238;stroke-width:0.8351;stroke-linecap:round;stroke-linejoin:round;}
	.st11{fill:#FFFFFF;}
	.st12{fill:#263238;stroke:#263238;stroke-width:0.8351;stroke-linecap:round;stroke-linejoin:round;}
	.st13{fill:none;stroke:#FFFFFF;stroke-width:1.6702;stroke-linecap:round;stroke-linejoin:round;}
	.st14{fill:none;stroke:#FFFFFF;stroke-width:0.8351;stroke-linecap:round;stroke-linejoin:round;}
	.st15{fill:#D10513;}
	.st16{fill:#263238;}
	.st17{fill:none;stroke:#263238;stroke-width:3.3403;stroke-linecap:round;stroke-linejoin:round;}
	.st18{fill:#ED1C24;}
	.st19{fill:#D10513;stroke:#263238;stroke-width:0.4175;stroke-linecap:round;stroke-linejoin:round;}
	.st20{fill:none;stroke:#263238;stroke-width:0.4175;stroke-linecap:round;stroke-linejoin:round;}
	.st21{fill:#FFCB05;stroke:#263238;stroke-width:0.8351;stroke-linecap:round;stroke-linejoin:round;}
	.st22{clip-path:url(#SVGID_4_);}
	.st23{opacity:0.3;fill:#FFFF54;enable-background:new    ;}
	.st24{fill:#EC1D24;}
	.st25{clip-path:url(#SVGID_6_);}
	.st26{fill:none;stroke:#263238;stroke-width:0.6263;stroke-linecap:round;stroke-linejoin:round;}
	.st27{fill:#FFFFFF;stroke:#263238;stroke-width:0.4175;stroke-linecap:round;stroke-linejoin:round;}
	.st28{clip-path:url(#SVGID_8_);}
	.st29{fill:#EC1D24;stroke:#263238;stroke-miterlimit:10;}
	.st30{fill:#FFFFFF;stroke:#C4161C;stroke-width:0.8351;stroke-linecap:round;stroke-linejoin:round;}
	.st31{fill:#EC1D24;stroke:#C4161C;stroke-miterlimit:10;}
	.st32{fill:#EC1D24;stroke:#C4161C;stroke-linecap:round;stroke-linejoin:bevel;stroke-miterlimit:10;}
	.st33{clip-path:url(#SVGID_12_);}
	.st34{fill:none;stroke:#231F20;stroke-miterlimit:10;}

	<style>
        @-webkit-keyframes dourani {
            0% {
                transform: rotate(0deg)
            }
            50% {
                transform: rotate(-2deg);
            }
            100% {
                transform: rotate(0deg);
            }
        }
		
		 @-moz-keyframes dourani {
            0% {
                transform: rotate(0deg)
            }
            50% {
                transform: rotate(-2deg);
            }
            100% {
                transform: rotate(0deg);
            }
        }
		
		 @keyframes dourani {
            0% {
                transform: rotate(0deg)
            }
            50% {
                transform: rotate(-2deg);
            }
            100% {
                transform: rotate(0deg);
            }
        }

        @-webkit-keyframes timing {
            0% {
                transform: rotate(0deg)
            }
            100% {
                transform: rotate(360deg);
            }
        }
		
		  @-moz-keyframes timing {
            0% {
                transform: rotate(0deg)
            }
            100% {
                transform: rotate(360deg);
            }
        }
		
		 @keyframes timing {
            0% {
                transform: rotate(0deg)
            }
            100% {
                transform: rotate(360deg);
            }
        }
        #Character {
		    -webkit-animation : dourani 1s infinite linear;
			-moz-animation: dourani 1s infinite linear;
            animation: dourani 1s infinite linear;
        }
        #clock-indicator {
			 -webkit-animation : timing 2s infinite linear;
			-moz-animation: timing 2s infinite linear;
            animation: timing 2s infinite linear;
        }
    </style>
</style>
<g>
	<g id="Background_simple" class="st0">
		<path class="st1" d="M386.99,246.33c-15.38-3.47-25.3,5.95-32.75,0s-12.41-27.29-33.25-29.27c-20.84-1.98-22.82,0.5-33.74-4.46
			c-10.92-4.96-8.82-12.02-20.35-12.4c-11.53-0.38-22.82,9.61-39.19,3.47s-15.84-26.8-33.75-24.32
			c-17.9,2.48-22.87,24.32-39.24,25.31c-16.37,0.99-35.23-12.92-53.09-0.5s-14.38,33.25-30.27,42.18s-22.83-3.97-35.73,2.48
			s-22.83,26.3-22.83,26.3h411.35C424.16,275.13,402.38,249.81,386.99,246.33z"/>
		<g class="st2">
			<path class="st1" d="M386.99,246.33c-15.38-3.47-25.3,5.95-32.75,0s-12.41-27.29-33.25-29.27c-20.84-1.98-22.82,0.5-33.74-4.46
				c-10.92-4.96-8.82-12.02-20.35-12.4c-11.53-0.38-22.82,9.61-39.19,3.47s-15.84-26.8-33.75-24.32
				c-17.9,2.48-22.87,24.32-39.24,25.31c-16.37,0.99-35.23-12.92-53.09-0.5s-14.38,33.25-30.27,42.18s-22.83-3.97-35.73,2.48
				s-22.83,26.3-22.83,26.3h411.35C424.16,275.13,402.38,249.81,386.99,246.33z"/>
		</g>
	</g>
	<g id="Plants">
		<path class="st3" d="M71.2,209.89c-2.17,4.96-4.02,10.05-5.54,15.25c-0.33,0.43-0.62,0.84-0.88,1.24
			c-0.63,0.85-1.62,2.3-2.94,4.17c3.13-6.36,5.28-14.17,4.11-15.36c-1.69-1.71-2.94,1.67-3.92,8.1c-0.79,5.06-3.35,10.92-4.4,13.19
			c-1.58,2.19-3.34,4.6-5.21,7.14c2.29-4.58,4.25-11.39,5.89-16.45c2.38-7.39,2.25-9.82-0.78-6.57s-3.41,8.59-3.84,15.14
			c-0.45,4.16-1.84,8.16-4.07,11.69c-2.4,3.25-4.92,6.57-7.46,9.81c2.25-3.38,3.92-7.12,4.95-11.05c2.25-8.62,2.37-16.82,0-14.86
			c-2.37,1.96-2.14,8.23-3.52,15.6c-0.85,4.46-2.06,8.85-3.61,13.12l-0.78,0.98c1.81-4.28,2.26-9.06,2.55-13.65
			c0.1-1.62,0.81-4.5,0.26-6.02c-1.28-3.43-3.88,0.52-4.16,2.19c-0.89,5.44,0.35,11.12-0.89,16.46c-0.47,2.01-1.11,3.98-1.9,5.89
			c-0.96,1.05-1.87,2-2.76,2.87c0.24-1.84,0.24-5.24,0.24-5.46c-0.37-5.06,1.15-9.37,2.13-14.23c0.28-1.48,0.33-3.63-0.57-4.91
			c-1.26-1.77-3.52-0.88-4.57,0.73c-4.35,6.64,1.31,14.39,1.73,21.26c0.11,1.22,0.09,2.44-0.06,3.65
			c-6.47,6.12-10.33,7.18-10.33,7.18l1.86,1.26c0,0,4.42-3.44,9.2-7.95l4.02,0.76c0,0,13.92,2.81,19.51,0.84
			c5.59-1.96,1.42-5.35-3.73-4.71c-5.15,0.64-15.53,3.51-17.66,3.11l-1.81-0.33c1.21-1.14,2.42-2.34,3.59-3.57
			c4.02-0.35,8-0.97,11.94-1.85c4.29-0.95,9.12-1.52,13.05-3.67c0.74-0.33,1.35-0.9,1.74-1.61c0.04-0.08,0.07-0.17,0.1-0.26
			c0.33-1.03-0.23-2.14-1.26-2.47c-3.52-1.57-7.52,0.38-10.47,2.23c-2.58,1.56-5.27,2.92-8.05,4.06c-2.49,1.07-4.74,2.05-6.26,2.74
			c1.25-1.35,2.47-2.73,3.45-4.07l2.58-3.43c3.61-3.24,8.01-5.47,12.75-6.47c9-1.93,13.83-2.08,12.25-4.34
			c-1.58-2.26-7.51-2.77-13.22,0.98c-3.52,2.21-6.85,4.71-9.96,7.47c1.95-2.65,3.77-5.18,5.6-7.78c2.21-2.64,5.06-4.66,8.28-5.89
			c5.58-1.96,16.94-3.65,14.48-5.51c-2.46-1.86-9.22-1.13-14.28,2.34c-2.6,1.89-4.92,4.14-6.87,6.7c1.23-1.83,2.54-3.74,3.92-5.76
			c0.59-0.86,1.22-1.72,1.87-2.7l0.38-0.41c2.24-2.27,5.12-3.81,8.26-4.39c5.8-0.92,12.54,0.54,11.54-2.66
			c-1-3.2-10.51-1.77-13.96,0.6c-1.28,0.93-2.46,2.01-3.49,3.22c0.18-0.29,0.35-0.59,0.53-0.9c1.46-2.01,2.92-3.97,4.22-5.72
			c2.35-2.01,5.16-3.42,8.18-4.11c6.75-1.75,14.71-3.47,11.01-5.16c-2.99-1.4-11.72,1.46-17.07,6.45l1.52-2.01
			c2.99-2.94,10.17-9.71,15.61-12.25c3.63-1.67,7.44-2.8,10.88-4.91c0.37-0.2,0.69-0.48,0.93-0.82c1.3-2.26-4.3-1.83-5.28-1.77
			c-3.64,0.38-7.09,1.82-9.93,4.13c-2.45,1.93-4.67,4.14-6.61,6.58c-1.27,1.54-2.43,3.16-3.54,4.82c-0.72,1.07-1.35,2.46-2.07,3.71
			c-0.91,1.07-1.83,2.23-2.63,3.21c3.43-7.53,12.74-20.93,13.52-25.04C80.35,195.16,75,201.21,71.2,209.89z"/>
		<g class="st4">
			<path class="st3" d="M71.2,209.89c-2.17,4.96-4.02,10.05-5.54,15.25c-0.33,0.43-0.62,0.84-0.88,1.24
				c-0.63,0.85-1.62,2.3-2.94,4.17c3.13-6.36,5.28-14.17,4.11-15.36c-1.69-1.71-2.94,1.67-3.92,8.1c-0.79,5.06-3.35,10.92-4.4,13.19
				c-1.58,2.19-3.34,4.6-5.21,7.14c2.29-4.58,4.25-11.39,5.89-16.45c2.38-7.39,2.25-9.82-0.78-6.57s-3.41,8.59-3.84,15.14
				c-0.45,4.16-1.84,8.16-4.07,11.69c-2.4,3.25-4.92,6.57-7.46,9.81c2.25-3.38,3.92-7.12,4.95-11.05c2.25-8.62,2.37-16.82,0-14.86
				c-2.37,1.96-2.14,8.23-3.52,15.6c-0.85,4.46-2.06,8.85-3.61,13.12l-0.78,0.98c1.81-4.28,2.26-9.06,2.55-13.65
				c0.1-1.62,0.81-4.5,0.26-6.02c-1.28-3.43-3.88,0.52-4.16,2.19c-0.89,5.44,0.35,11.12-0.89,16.46c-0.47,2.01-1.11,3.98-1.9,5.89
				c-0.96,1.05-1.87,2-2.76,2.87c0.24-1.84,0.24-5.24,0.24-5.46c-0.37-5.06,1.15-9.37,2.13-14.23c0.28-1.48,0.33-3.63-0.57-4.91
				c-1.26-1.77-3.52-0.88-4.57,0.73c-4.35,6.64,1.31,14.39,1.73,21.26c0.11,1.22,0.09,2.44-0.06,3.65
				c-6.47,6.12-10.33,7.18-10.33,7.18l1.86,1.26c0,0,4.42-3.44,9.2-7.95l4.02,0.76c0,0,13.92,2.81,19.51,0.84
				c5.59-1.96,1.42-5.35-3.73-4.71c-5.15,0.64-15.53,3.51-17.66,3.11l-1.81-0.33c1.21-1.14,2.42-2.34,3.59-3.57
				c4.02-0.35,8-0.97,11.94-1.85c4.29-0.95,9.12-1.52,13.05-3.67c0.74-0.33,1.35-0.9,1.74-1.61c0.04-0.08,0.07-0.17,0.1-0.26
				c0.33-1.03-0.23-2.14-1.26-2.47c-3.52-1.57-7.52,0.38-10.47,2.23c-2.58,1.56-5.27,2.92-8.05,4.06c-2.49,1.07-4.74,2.05-6.26,2.74
				c1.25-1.35,2.47-2.73,3.45-4.07l2.58-3.43c3.61-3.24,8.01-5.47,12.75-6.47c9-1.93,13.83-2.08,12.25-4.34
				c-1.58-2.26-7.51-2.77-13.22,0.98c-3.52,2.21-6.85,4.71-9.96,7.47c1.95-2.65,3.77-5.18,5.6-7.78c2.21-2.64,5.06-4.66,8.28-5.89
				c5.58-1.96,16.94-3.65,14.48-5.51c-2.46-1.86-9.22-1.13-14.28,2.34c-2.6,1.89-4.92,4.14-6.87,6.7c1.23-1.83,2.54-3.74,3.92-5.76
				c0.59-0.86,1.22-1.72,1.87-2.7l0.38-0.41c2.24-2.27,5.12-3.81,8.26-4.39c5.8-0.92,12.54,0.54,11.54-2.66
				c-1-3.2-10.51-1.77-13.96,0.6c-1.28,0.93-2.46,2.01-3.49,3.22c0.18-0.29,0.35-0.59,0.53-0.9c1.46-2.01,2.92-3.97,4.22-5.72
				c2.35-2.01,5.16-3.42,8.18-4.11c6.75-1.75,14.71-3.47,11.01-5.16c-2.99-1.4-11.72,1.46-17.07,6.45l1.52-2.01
				c2.99-2.94,10.17-9.71,15.61-12.25c3.63-1.67,7.44-2.8,10.88-4.91c0.37-0.2,0.69-0.48,0.93-0.82c1.3-2.26-4.3-1.83-5.28-1.77
				c-3.64,0.38-7.09,1.82-9.93,4.13c-2.45,1.93-4.67,4.14-6.61,6.58c-1.27,1.54-2.43,3.16-3.54,4.82c-0.72,1.07-1.35,2.46-2.07,3.71
				c-0.91,1.07-1.83,2.23-2.63,3.21c3.43-7.53,12.74-20.93,13.52-25.04C80.35,195.16,75,201.21,71.2,209.89z"/>
		</g>
		<path class="st3" d="M11.05,193.72c1.83,5.11,3.99,10.11,6.46,14.95c0.06,0.54,0.13,1.04,0.21,1.5c0.18,1.02,0.45,2.75,0.78,5.01
			c-2.08-6.79-5.95-13.89-7.61-13.95c-2.4-0.09-0.97,3.22,2.74,8.57c2.94,4.21,5.09,10.21,5.89,12.58c0.37,2.67,0.77,5.63,1.17,8.76
			c-1.53-4.88-4.8-11.16-7.1-15.96c-3.36-6.99-5.14-8.65-5.09-4.22c0.05,4.43,3.45,8.57,7.65,13.61c2.55,3.31,4.3,7.17,5.12,11.27
			c0.47,3.98,0.93,8.12,1.33,12.22c-0.7-4-2.06-7.86-4.02-11.42c-4.39-7.85-9.91-13.85-10.27-10.79s4.12,7.45,8.2,13.73
			c2.46,3.82,4.61,7.83,6.44,11.99c0.03,0.41,0.11,0.82,0.11,1.24c-1.69-4.34-4.63-8.12-7.57-11.64c-0.98-1.24-2.46-3.82-3.92-4.53
			c-3.29-1.61-2.48,3.04-1.5,4.44c3.1,4.57,7.92,7.81,10.7,12.54c1.04,1.79,1.94,3.66,2.69,5.59c0.05,1.42,0,2.75,0,3.98
			c-1.11-1.49-3.43-3.96-3.6-4.12c-3.75-3.41-5.6-7.6-8.26-11.77c-0.82-1.25-2.24-2.85-3.77-3.14c-2.14-0.41-3.16,1.79-2.82,3.67
			c1.43,7.82,10.88,9.53,15.9,14.22c0.92,0.8,1.76,1.7,2.48,2.69c-0.47,8.89-2.53,12.31-2.53,12.31l2.22-0.37
			c0,0,0.82-5.54,1.19-12.1l3.43-2.24c0,0,12.03-7.56,14.72-12.84c2.69-5.28-2.67-4.84-5.95-0.83s-8.81,13.24-10.63,14.42
			l-1.54,0.98c0.09-1.66,0.14-3.36,0.14-5.06c2.66-3.03,5.13-6.23,7.38-9.57c2.44-3.65,5.58-7.42,6.92-11.65
			c0.3-0.75,0.35-1.58,0.14-2.36c-0.03-0.09-0.06-0.17-0.1-0.25c-0.47-0.98-1.64-1.39-2.62-0.92c-3.63,1.29-5.16,5.44-6.04,8.83
			c-0.79,2.91-1.8,5.75-3.03,8.5c-1.07,2.48-2.01,4.75-2.65,6.3c-0.02-1.84-0.12-3.66-0.3-5.34c-0.17-1.47-0.33-2.88-0.5-4.26
			c0.38-4.82,2.02-9.46,4.75-13.46c5.18-7.6,8.61-11.02,5.89-11.59c-2.73-0.57-7.38,3.16-8.94,9.81c-1.01,4.03-1.7,8.14-2.06,12.28
			c-0.41-3.27-0.84-6.36-1.3-9.5c-0.21-3.43,0.47-6.85,1.96-9.95c2.7-5.28,9.76-14.32,6.69-13.98c-3.07,0.34-7.46,5.54-8.74,11.55
			c-0.57,3.16-0.68,6.38-0.33,9.57c-0.34-2.18-0.7-4.45-1.09-6.87c-0.17-1.03-0.33-2.12-0.5-3.25c0-0.19,0-0.37,0-0.56
			c0.04-3.19,1.07-6.29,2.94-8.88c3.58-4.66,9.46-8.25,6.52-9.88c-2.93-1.63-8.83,5.96-9.7,10.06c-0.29,1.57-0.39,3.16-0.31,4.75
			c-0.07-0.34-0.15-0.68-0.24-1.03c-0.32-2.46-0.63-4.89-0.89-7.05c0.32-3.08,1.38-6.03,3.09-8.61c3.69-5.92,8.26-12.65,4.41-11.33
			c-3.11,1.07-7.49,9.15-7.92,16.44c-0.11-0.97-0.21-1.82-0.28-2.5c0.14-4.18,0.67-14.03,2.85-19.62c1.46-3.74,3.44-7.16,4.47-11.09
			c0.14-0.4,0.18-0.82,0.11-1.24c-0.61-2.54-4.41,1.67-5.03,2.36c-2.37,2.78-3.88,6.19-4.35,9.81c-0.45,3.09-0.54,6.22-0.26,9.33
			c0.16,1.96,0.42,3.92,0.76,5.89c0.23,1.29,0.73,2.73,1.07,4.12c0.07,1.4,0.17,2.84,0.3,4.13c-2.71-7.85-5.2-23.97-7.48-27.47
			C7.51,176.72,7.79,184.76,11.05,193.72z"/>
		<g class="st4">
			<path class="st3" d="M11.05,193.72c1.83,5.11,3.99,10.11,6.46,14.95c0.06,0.54,0.13,1.04,0.21,1.5c0.18,1.02,0.45,2.75,0.78,5.01
				c-2.08-6.79-5.95-13.89-7.61-13.95c-2.4-0.09-0.97,3.22,2.74,8.57c2.94,4.21,5.09,10.21,5.89,12.58
				c0.37,2.67,0.77,5.63,1.17,8.76c-1.53-4.88-4.8-11.16-7.1-15.96c-3.36-6.99-5.14-8.65-5.09-4.22c0.05,4.43,3.45,8.57,7.65,13.61
				c2.55,3.31,4.3,7.17,5.12,11.27c0.47,3.98,0.93,8.12,1.33,12.22c-0.7-4-2.06-7.86-4.02-11.42c-4.39-7.85-9.91-13.85-10.27-10.79
				s4.12,7.45,8.2,13.73c2.46,3.82,4.61,7.83,6.44,11.99c0.03,0.41,0.11,0.82,0.11,1.24c-1.69-4.34-4.63-8.12-7.57-11.64
				c-0.98-1.24-2.46-3.82-3.92-4.53c-3.29-1.61-2.48,3.04-1.5,4.44c3.1,4.57,7.92,7.81,10.7,12.54c1.04,1.79,1.94,3.66,2.69,5.59
				c0.05,1.42,0,2.75,0,3.98c-1.11-1.49-3.43-3.96-3.6-4.12c-3.75-3.41-5.6-7.6-8.26-11.77c-0.82-1.25-2.24-2.85-3.77-3.14
				c-2.14-0.41-3.16,1.79-2.82,3.67c1.43,7.82,10.88,9.53,15.9,14.22c0.92,0.8,1.76,1.7,2.48,2.69c-0.47,8.89-2.53,12.31-2.53,12.31
				l2.22-0.37c0,0,0.82-5.54,1.19-12.1l3.43-2.24c0,0,12.03-7.56,14.72-12.84c2.69-5.28-2.67-4.84-5.95-0.83
				s-8.81,13.24-10.63,14.42l-1.54,0.98c0.09-1.66,0.14-3.36,0.14-5.06c2.66-3.03,5.13-6.23,7.38-9.57
				c2.44-3.65,5.58-7.42,6.92-11.65c0.3-0.75,0.35-1.58,0.14-2.36c-0.03-0.09-0.06-0.17-0.1-0.25c-0.47-0.98-1.64-1.39-2.62-0.92
				c-3.63,1.29-5.16,5.44-6.04,8.83c-0.79,2.91-1.8,5.75-3.03,8.5c-1.07,2.48-2.01,4.75-2.65,6.3c-0.02-1.84-0.12-3.66-0.3-5.34
				c-0.17-1.47-0.33-2.88-0.5-4.26c0.38-4.82,2.02-9.46,4.75-13.46c5.18-7.6,8.61-11.02,5.89-11.59c-2.73-0.57-7.38,3.16-8.94,9.81
				c-1.01,4.03-1.7,8.14-2.06,12.28c-0.41-3.27-0.84-6.36-1.3-9.5c-0.21-3.43,0.47-6.85,1.96-9.95c2.7-5.28,9.76-14.32,6.69-13.98
				c-3.07,0.34-7.46,5.54-8.74,11.55c-0.57,3.16-0.68,6.38-0.33,9.57c-0.34-2.18-0.7-4.45-1.09-6.87c-0.17-1.03-0.33-2.12-0.5-3.25
				c0-0.19,0-0.37,0-0.56c0.04-3.19,1.07-6.29,2.94-8.88c3.58-4.66,9.46-8.25,6.52-9.88c-2.93-1.63-8.83,5.96-9.7,10.06
				c-0.29,1.57-0.39,3.16-0.31,4.75c-0.07-0.34-0.15-0.68-0.24-1.03c-0.32-2.46-0.63-4.89-0.89-7.05c0.32-3.08,1.38-6.03,3.09-8.61
				c3.69-5.92,8.26-12.65,4.41-11.33c-3.11,1.07-7.49,9.15-7.92,16.44c-0.11-0.97-0.21-1.82-0.28-2.5
				c0.14-4.18,0.67-14.03,2.85-19.62c1.46-3.74,3.44-7.16,4.47-11.09c0.14-0.4,0.18-0.82,0.11-1.24c-0.61-2.54-4.41,1.67-5.03,2.36
				c-2.37,2.78-3.88,6.19-4.35,9.81c-0.45,3.09-0.54,6.22-0.26,9.33c0.16,1.96,0.42,3.92,0.76,5.89c0.23,1.29,0.73,2.73,1.07,4.12
				c0.07,1.4,0.17,2.84,0.3,4.13c-2.71-7.85-5.2-23.97-7.48-27.47C7.51,176.72,7.79,184.76,11.05,193.72z"/>
		</g>
		<path class="st3" d="M422.47,223.61c-1.47,3.77-2.7,7.64-3.69,11.57c-0.23,0.36-0.43,0.69-0.62,0.98c-0.4,0.66-1.06,1.76-2.04,3.2
			c2.19-4.84,3.53-10.72,2.63-11.58c-1.31-1.24-2.14,1.32-2.7,6.15c-0.56,3.43-1.55,6.78-2.94,9.97c-1.11,1.68-2.35,3.52-3.67,5.48
			c1.58-3.49,2.85-8.62,3.92-12.45c1.57-5.61,1.39-7.42-0.77-4.91c-2.16,2.51-2.31,6.49-2.43,11.4c-0.21,3.11-1.13,6.13-2.7,8.83
			c-1.7,2.47-3.48,5.01-5.28,7.51c1.58-2.6,2.72-5.43,3.38-8.4c1.4-6.48,1.27-12.66-0.45-11.09s-1.36,6.24-2.18,11.77
			c-0.5,3.34-1.26,6.63-2.28,9.84c-0.18,0.26-0.36,0.5-0.55,0.75c1.07-3.31,1.58-6.77,1.51-10.25c0-1.21,0.46-3.38,0-4.5
			c-1.08-2.52-2.87,0.5-3.04,1.76c-0.52,4.08,0.58,8.28-0.19,12.3c-0.3,1.52-0.72,3.01-1.26,4.46c-0.68,0.81-1.33,1.55-1.96,2.22
			c0.1-1.37,0-3.9,0-4.08c-0.41-3.8,0.62-7.01,1.19-10.66c0.26-1.23,0.06-2.52-0.56-3.62c-1-1.29-2.66-0.56-3.39,0.67
			c-3.01,5.08,1.39,10.7,1.89,15.81c0.12,0.9,0.14,1.82,0.07,2.73c-4.66,4.75-7.5,5.65-7.5,5.65l1.42,0.88c0,0,3.2-2.7,6.63-6.19
			l3.03,0.44c0,0,10.49,1.7,14.58,0.07s0.87-4.05-2.94-3.41c-3.82,0.64-11.47,3.08-13.08,2.85l-1.35-0.21
			c0.86-0.88,1.74-1.79,2.58-2.77c2.98-0.38,5.93-0.96,8.83-1.73c3.18-0.83,6.79-1.39,9.63-3.11c0.58-0.28,1.04-0.75,1.32-1.32
			c0.03-0.07,0.05-0.14,0.07-0.22c0.19-0.77-0.28-1.56-1.05-1.75c-2.68-1.07-5.58,0.5-7.75,1.96c-1.88,1.24-3.84,2.33-5.89,3.27
			c-1.83,0.86-3.47,1.67-4.59,2.22c0.87-1,1.69-2.05,2.45-3.13c0.64-0.91,1.25-1.79,1.82-2.64c2.6-2.52,5.81-4.31,9.31-5.2
			c6.65-1.7,10.23-1.92,9.02-3.59c-1.22-1.67-5.65-1.85-9.81,1.09c-2.56,1.76-4.98,3.73-7.22,5.89c1.35-2.04,2.64-4,3.92-5.96
			c1.58-2.02,3.65-3.6,6.01-4.6c4.11-1.59,12.53-3.21,10.64-4.53s-6.92-0.58-10.6,2.16c-1.87,1.49-3.52,3.24-4.91,5.19
			c0.91-1.4,1.82-2.85,2.81-4.4c0.41-0.66,0.85-1.35,1.31-2.06c0.1-0.11,0.19-0.21,0.27-0.32c1.61-1.76,3.72-2.99,6.04-3.51
			c4.3-0.85,9.38,0.04,8.54-2.32c-0.84-2.35-7.9-1.01-10.41,0.85c-0.93,0.73-1.78,1.57-2.51,2.5c0.13-0.23,0.26-0.45,0.37-0.69
			c0.98-1.54,2.02-3.06,2.94-4.4c1.69-1.57,3.75-2.7,5.98-3.3c4.98-1.5,10.87-3.02,8.06-4.18c-2.28-0.93-8.71,1.43-12.55,5.31
			l1.07-1.54c2.16-2.25,7.31-7.54,11.29-9.55c2.67-1.38,5.46-2.33,7.98-4.01c0.28-0.15,0.51-0.37,0.68-0.64
			c0.91-1.72-3.3-1.24-3.99-1.16c-2.7,0.39-5.23,1.56-7.28,3.36c-1.78,1.51-3.38,3.22-4.76,5.1c-0.89,1.19-1.72,2.42-2.49,3.69
			c-0.51,0.82-0.94,1.85-1.44,2.84c-0.66,0.82-1.3,1.67-1.86,2.46c2.33-5.71,8.9-15.98,9.36-19.06
			C428.89,212.36,425.05,217.01,422.47,223.61z"/>
		<path class="st5" d="M422.47,223.61c-1.47,3.77-2.7,7.64-3.69,11.57c-0.23,0.36-0.43,0.69-0.62,0.98c-0.4,0.66-1.06,1.76-2.04,3.2
			c2.19-4.84,3.53-10.72,2.63-11.58c-1.31-1.24-2.14,1.32-2.7,6.15c-0.56,3.43-1.55,6.78-2.94,9.97c-1.11,1.68-2.35,3.52-3.67,5.48
			c1.58-3.49,2.85-8.62,3.92-12.45c1.57-5.61,1.39-7.42-0.77-4.91c-2.16,2.51-2.31,6.49-2.43,11.4c-0.21,3.11-1.13,6.13-2.7,8.83
			c-1.7,2.47-3.48,5.01-5.28,7.51c1.58-2.6,2.72-5.43,3.38-8.4c1.4-6.48,1.27-12.66-0.45-11.09s-1.36,6.24-2.18,11.77
			c-0.5,3.34-1.26,6.63-2.28,9.84c-0.18,0.26-0.36,0.5-0.55,0.75c1.07-3.31,1.58-6.77,1.51-10.25c0-1.21,0.46-3.38,0-4.5
			c-1.08-2.52-2.87,0.5-3.04,1.76c-0.52,4.08,0.58,8.28-0.19,12.3c-0.3,1.52-0.72,3.01-1.26,4.46c-0.68,0.81-1.33,1.55-1.96,2.22
			c0.1-1.37,0-3.9,0-4.08c-0.41-3.8,0.62-7.01,1.19-10.66c0.26-1.23,0.06-2.52-0.56-3.62c-1-1.29-2.66-0.56-3.39,0.67
			c-3.01,5.08,1.39,10.7,1.89,15.81c0.12,0.9,0.14,1.82,0.07,2.73c-4.66,4.75-7.5,5.65-7.5,5.65l1.42,0.88c0,0,3.2-2.7,6.63-6.19
			l3.03,0.44c0,0,10.49,1.7,14.58,0.07s0.87-4.05-2.94-3.41c-3.82,0.64-11.47,3.08-13.08,2.85l-1.35-0.21
			c0.86-0.88,1.74-1.79,2.58-2.77c2.98-0.38,5.93-0.96,8.83-1.73c3.18-0.83,6.79-1.39,9.63-3.11c0.58-0.28,1.04-0.75,1.32-1.32
			c0.03-0.07,0.05-0.14,0.07-0.22c0.19-0.77-0.28-1.56-1.05-1.75c-2.68-1.07-5.58,0.5-7.75,1.96c-1.88,1.24-3.84,2.33-5.89,3.27
			c-1.83,0.86-3.47,1.67-4.59,2.22c0.87-1,1.69-2.05,2.45-3.13c0.64-0.91,1.25-1.79,1.82-2.64c2.6-2.52,5.81-4.31,9.31-5.2
			c6.65-1.7,10.23-1.92,9.02-3.59c-1.22-1.67-5.65-1.85-9.81,1.09c-2.56,1.76-4.98,3.73-7.22,5.89c1.35-2.04,2.64-4,3.92-5.96
			c1.58-2.02,3.65-3.6,6.01-4.6c4.11-1.59,12.53-3.21,10.64-4.53s-6.92-0.58-10.6,2.16c-1.87,1.49-3.52,3.24-4.91,5.19
			c0.91-1.4,1.82-2.85,2.81-4.4c0.41-0.66,0.85-1.35,1.31-2.06c0.1-0.11,0.19-0.21,0.27-0.32c1.61-1.76,3.72-2.99,6.04-3.51
			c4.3-0.85,9.38,0.04,8.54-2.32c-0.84-2.35-7.9-1.01-10.41,0.85c-0.93,0.73-1.78,1.57-2.51,2.5c0.13-0.23,0.26-0.45,0.37-0.69
			c0.98-1.54,2.02-3.06,2.94-4.4c1.69-1.57,3.75-2.7,5.98-3.3c4.98-1.5,10.87-3.02,8.06-4.18c-2.28-0.93-8.71,1.43-12.55,5.31
			l1.07-1.54c2.16-2.25,7.31-7.54,11.29-9.55c2.67-1.38,5.46-2.33,7.98-4.01c0.28-0.15,0.51-0.37,0.68-0.64
			c0.91-1.72-3.3-1.24-3.99-1.16c-2.7,0.39-5.23,1.56-7.28,3.36c-1.78,1.51-3.38,3.22-4.76,5.1c-0.89,1.19-1.72,2.42-2.49,3.69
			c-0.51,0.82-0.94,1.85-1.44,2.84c-0.66,0.82-1.3,1.67-1.86,2.46c2.33-5.71,8.9-15.98,9.36-19.06
			C428.89,212.36,425.05,217.01,422.47,223.61z"/>
		<path class="st3" d="M362.1,222.01c2.82,2.9,5.82,5.61,8.98,8.13c0.21,0.36,0.41,0.69,0.61,0.98l2.07,3.17
			c-3.5-3.98-8.31-7.63-9.47-7.16c-1.67,0.68,0.32,2.49,4.49,4.99c2.89,1.91,5.53,4.18,7.85,6.76c1.07,1.68,2.25,3.64,3.48,5.6
			c-2.54-2.85-6.69-6.12-9.73-8.68c-4.43-3.73-6.15-4.26-4.76-1.31c1.39,2.94,4.97,4.73,9.39,6.87c2.76,1.46,5.14,3.54,6.97,6.07
			c1.54,2.56,3.13,5.24,4.66,7.91c-1.71-2.51-3.82-4.72-6.25-6.54c-5.38-3.96-10.99-6.41-10.28-4.17c0.71,2.24,5.1,3.85,9.81,6.87
			c2.83,1.86,5.51,3.95,8.02,6.24c0.16,0.26,0.3,0.54,0.45,0.8c-2.58-2.34-5.52-4.23-8.72-5.6c-1.08-0.53-2.87-1.87-4.09-1.87
			c-2.73-0.09-0.73,2.83,0.34,3.48c3.51,2.17,7.79,2.89,11.13,5.26c1.26,0.88,2.44,1.87,3.54,2.94c0.46,0.95,0.86,1.86,1.22,2.71
			c-1.22-0.67-3.55-1.64-3.72-1.7c-3.6-1.17-6.14-3.45-9.23-5.47c-1.02-0.75-2.27-1.1-3.53-0.98c-1.58,0.42-1.6,2.19-0.78,3.36
			c3.41,4.88,10.28,3.15,15.19,4.8c0.9,0.29,1.76,0.68,2.57,1.17c2.4,6.21,2.06,9.15,2.06,9.15l1.38-0.93c0,0-1.18-4.03-2.94-8.59
			l1.66-2.57c0,0,5.87-8.85,6.08-13.26c0.22-4.41-3.32-2.48-4.32,1.26s-1.93,11.72-2.81,13.09l-0.75,1.15
			c-0.48-1.15-0.94-2.33-1.46-3.48c0.89-2.89,1.58-5.84,2.09-8.83c0.54-3.2,1.52-6.76,1.13-10.07c-0.02-0.6-0.24-1.18-0.63-1.65
			c-0.06-0.07-0.12-0.13-0.19-0.19c-0.61-0.5-1.51-0.42-2.02,0.19c-2.08,1.96-1.84,5.28-1.4,7.85c0.35,2.22,0.53,4.47,0.54,6.72
			c0.03,2.02,0.13,3.85,0.13,5.1c-0.59-1.26-1.28-2.59-1.84-3.54c-0.57-0.95-1.11-1.86-1.65-2.75c-1.22-3.4-1.53-7.07-0.89-10.62
			c1.2-6.75,2.49-10.13,0.45-9.69c-2.04,0.44-4.06,4.4-3.08,9.41c0.53,3.06,1.31,6.07,2.33,9.01c-1.29-2.14-2.52-4.1-3.8-6.06
			c-1.19-2.27-1.78-4.81-1.72-7.38c0.26-4.41,2.25-12.74,0.26-11.57c-1.98,1.18-3.38,6.06-2.4,10.55c0.58,2.32,1.49,4.55,2.71,6.61
			c-0.9-1.42-1.88-2.84-2.86-4.37c-0.43-0.65-0.87-1.33-1.33-2.05l-0.18-0.38c-0.95-2.19-1.2-4.62-0.71-6.96
			c0.99-4.27,3.95-8.51,1.41-8.72c-2.54-0.22-4.18,6.76-3.52,9.81c0.31,1.16,0.77,2.27,1.34,3.33l-0.48-0.63
			c-0.97-1.58-1.92-3.14-2.77-4.52c-0.73-2.2-0.91-4.54-0.54-6.82c0.7-5.14,1.75-11.14-0.47-9.06c-1.79,1.69-2.31,8.53-0.34,13.62
			c-0.4-0.63-0.73-1.18-0.98-1.61c-1.2-2.9-3.86-9.77-4.08-14.24c-0.16-3.03,0.14-5.97-0.36-8.92c-0.02-0.31-0.13-0.61-0.3-0.87
			c-1.19-1.55-2.49,2.48-2.7,3.15c-0.77,2.62-0.75,5.41,0.06,8.02c0.64,2.24,1.54,4.4,2.68,6.43c0.72,1.3,1.5,2.57,2.33,3.81
			c0.52,0.8,1.3,1.63,1.96,2.48c0.49,0.93,0.98,1.87,1.47,2.72c-4.24-4.49-10.88-14.71-13.5-16.39
			C354.49,211.5,357.15,216.88,362.1,222.01z"/>
		<path class="st5" d="M362.1,222.01c2.82,2.9,5.82,5.61,8.98,8.13c0.21,0.36,0.41,0.69,0.61,0.98l2.07,3.17
			c-3.5-3.98-8.31-7.63-9.47-7.16c-1.67,0.68,0.32,2.49,4.49,4.99c2.89,1.91,5.53,4.18,7.85,6.76c1.07,1.68,2.25,3.64,3.48,5.6
			c-2.54-2.85-6.69-6.12-9.73-8.68c-4.43-3.73-6.15-4.26-4.76-1.31c1.39,2.94,4.97,4.73,9.39,6.87c2.76,1.46,5.14,3.54,6.97,6.07
			c1.54,2.56,3.13,5.24,4.66,7.91c-1.71-2.51-3.82-4.72-6.25-6.54c-5.38-3.96-10.99-6.41-10.28-4.17c0.71,2.24,5.1,3.85,9.81,6.87
			c2.83,1.86,5.51,3.95,8.02,6.24c0.16,0.26,0.3,0.54,0.45,0.8c-2.58-2.34-5.52-4.23-8.72-5.6c-1.08-0.53-2.87-1.87-4.09-1.87
			c-2.73-0.09-0.73,2.83,0.34,3.48c3.51,2.17,7.79,2.89,11.13,5.26c1.26,0.88,2.44,1.87,3.54,2.94c0.46,0.95,0.86,1.86,1.22,2.71
			c-1.22-0.67-3.55-1.64-3.72-1.7c-3.6-1.17-6.14-3.45-9.23-5.47c-1.02-0.75-2.27-1.1-3.53-0.98c-1.58,0.42-1.6,2.19-0.78,3.36
			c3.41,4.88,10.28,3.15,15.19,4.8c0.9,0.29,1.76,0.68,2.57,1.17c2.4,6.21,2.06,9.15,2.06,9.15l1.38-0.93c0,0-1.18-4.03-2.94-8.59
			l1.66-2.57c0,0,5.87-8.85,6.08-13.26c0.22-4.41-3.32-2.48-4.32,1.26s-1.93,11.72-2.81,13.09l-0.75,1.15
			c-0.48-1.15-0.94-2.33-1.46-3.48c0.89-2.89,1.58-5.84,2.09-8.83c0.54-3.2,1.52-6.76,1.13-10.07c-0.02-0.6-0.24-1.18-0.63-1.65
			c-0.06-0.07-0.12-0.13-0.19-0.19c-0.61-0.5-1.51-0.42-2.02,0.19c-2.08,1.96-1.84,5.28-1.4,7.85c0.35,2.22,0.53,4.47,0.54,6.72
			c0.03,2.02,0.13,3.85,0.13,5.1c-0.59-1.26-1.28-2.59-1.84-3.54c-0.57-0.95-1.11-1.86-1.65-2.75c-1.22-3.4-1.53-7.07-0.89-10.62
			c1.2-6.75,2.49-10.13,0.45-9.69c-2.04,0.44-4.06,4.4-3.08,9.41c0.53,3.06,1.31,6.07,2.33,9.01c-1.29-2.14-2.52-4.1-3.8-6.06
			c-1.19-2.27-1.78-4.81-1.72-7.38c0.26-4.41,2.25-12.74,0.26-11.57c-1.98,1.18-3.38,6.06-2.4,10.55c0.58,2.32,1.49,4.55,2.71,6.61
			c-0.9-1.42-1.88-2.84-2.86-4.37c-0.43-0.65-0.87-1.33-1.33-2.05l-0.18-0.38c-0.95-2.19-1.2-4.62-0.71-6.96
			c0.99-4.27,3.95-8.51,1.41-8.72c-2.54-0.22-4.18,6.76-3.52,9.81c0.31,1.16,0.77,2.27,1.34,3.33l-0.48-0.63
			c-0.97-1.58-1.92-3.14-2.77-4.52c-0.73-2.2-0.91-4.54-0.54-6.82c0.7-5.14,1.75-11.14-0.47-9.06c-1.79,1.69-2.31,8.53-0.34,13.62
			c-0.4-0.63-0.73-1.18-0.98-1.61c-1.2-2.9-3.86-9.77-4.08-14.24c-0.16-3.03,0.14-5.97-0.36-8.92c-0.02-0.31-0.13-0.61-0.3-0.87
			c-1.19-1.55-2.49,2.48-2.7,3.15c-0.77,2.62-0.75,5.41,0.06,8.02c0.64,2.24,1.54,4.4,2.68,6.43c0.72,1.3,1.5,2.57,2.33,3.81
			c0.52,0.8,1.3,1.63,1.96,2.48c0.49,0.93,0.98,1.87,1.47,2.72c-4.24-4.49-10.88-14.71-13.5-16.39
			C354.49,211.5,357.15,216.88,362.1,222.01z"/>
		<path class="st3" d="M333.45,222.3c2.82,2.89,5.82,5.6,8.99,8.12c0.21,0.36,0.41,0.69,0.61,0.98c0.42,0.64,1.09,1.73,2.07,3.17
			c-3.5-3.98-8.31-7.63-9.47-7.16c-1.67,0.68,0.32,2.48,4.49,4.99c2.89,1.91,5.52,4.18,7.85,6.75c1.07,1.69,2.25,3.6,3.48,5.61
			c-2.54-2.85-6.69-6.13-9.73-8.68c-4.43-3.74-6.15-4.31-4.76-1.31s4.97,4.78,9.39,6.92c2.75,1.48,5.12,3.57,6.94,6.1
			c1.54,2.57,3.13,5.25,4.66,7.92c-1.71-2.51-3.82-4.72-6.25-6.54c-5.38-3.96-10.99-6.41-10.28-4.17c0.71,2.24,5.1,3.84,9.81,6.87
			c2.84,1.85,5.54,3.92,8.05,6.19l0.45,0.81c-2.58-2.34-5.52-4.24-8.72-5.61c-1.08-0.52-2.87-1.87-4.09-1.87
			c-2.73-0.08-0.74,2.84,0.34,3.49c3.51,2.17,7.78,2.89,11.13,5.26c1.26,0.88,2.44,1.87,3.54,2.94c0.46,0.96,0.86,1.86,1.22,2.72
			c-1.22-0.67-3.55-1.65-3.72-1.7c-3.6-1.17-6.14-3.45-9.23-5.47c-1.02-0.75-2.27-1.1-3.53-0.98c-1.58,0.37-1.6,2.18-0.78,3.36
			c3.41,4.88,10.28,3.14,15.19,4.79c0.87,0.27,1.72,0.63,2.51,1.08c2.4,6.21,2.06,9.15,2.06,9.15l1.38-0.93c0,0-1.18-4.03-2.94-8.6
			l1.66-2.57c0,0,5.87-8.84,6.08-13.25s-3.32-2.48-4.32,1.26c-1,3.74-1.93,11.71-2.81,13.08l-0.75,1.16
			c-0.48-1.16-0.94-2.33-1.46-3.49c0.89-2.88,1.58-5.8,2.09-8.77c0.54-3.2,1.52-6.77,1.13-10.07c-0.02-0.6-0.24-1.18-0.63-1.65
			c-0.06-0.07-0.12-0.13-0.19-0.19c-0.61-0.5-1.51-0.42-2.02,0.19c-2.08,1.96-1.84,5.28-1.4,7.85c0.35,2.22,0.53,4.46,0.54,6.71
			c0.03,2.03,0.13,3.86,0.13,5.1c-0.59-1.25-1.28-2.58-1.84-3.53s-1.11-1.86-1.65-2.75c-1.22-3.4-1.53-7.06-0.9-10.62
			c1.21-6.75,2.5-10.13,0.46-9.69c-2.04,0.44-4.06,4.4-3.08,9.41c0.55,3.06,1.34,6.07,2.36,9c-1.29-2.14-2.52-4.1-3.8-6.06
			c-1.19-2.27-1.78-4.81-1.72-7.38c0.22-4.41,2.25-12.74,0.26-11.57c-1.98,1.18-3.38,6.06-2.4,10.54c0.58,2.33,1.49,4.56,2.71,6.62
			c-0.9-1.42-1.88-2.85-2.86-4.37c-0.43-0.65-0.87-1.34-1.33-2.05l-0.18-0.39c-0.95-2.19-1.2-4.61-0.71-6.95
			c0.99-4.27,3.95-8.51,1.41-8.72c-2.54-0.22-4.19,6.76-3.52,9.81c0.28,1.15,0.7,2.27,1.25,3.33c-0.16-0.21-0.31-0.42-0.48-0.63
			c-0.97-1.59-1.92-3.14-2.77-4.53c-0.73-2.19-0.92-4.53-0.54-6.81c0.7-5.14,1.75-11.14-0.47-9.06c-1.8,1.68-2.31,8.52-0.34,13.62
			c-0.4-0.63-0.73-1.18-0.98-1.61c-1.2-2.9-3.86-9.77-4.08-14.25c-0.16-3.02,0.13-5.96-0.36-8.91c-0.02-0.32-0.13-0.62-0.3-0.88
			c-1.19-1.54-2.49,2.49-2.71,3.16c-0.76,2.62-0.74,5.41,0.07,8.02c0.64,2.24,1.54,4.4,2.68,6.43c0.72,1.3,1.5,2.57,2.33,3.81
			c0.52,0.79,1.3,1.63,1.96,2.47c0.49,0.94,0.98,1.88,1.47,2.72c-4.24-4.48-10.88-14.7-13.51-16.39
			C325.75,211.77,328.4,217.16,333.45,222.3z"/>
		<path class="st5" d="M333.45,222.3c2.82,2.89,5.82,5.6,8.99,8.12c0.21,0.36,0.41,0.69,0.61,0.98c0.42,0.64,1.09,1.73,2.07,3.17
			c-3.5-3.98-8.31-7.63-9.47-7.16c-1.67,0.68,0.32,2.48,4.49,4.99c2.89,1.91,5.52,4.18,7.85,6.75c1.07,1.69,2.25,3.6,3.48,5.61
			c-2.54-2.85-6.69-6.13-9.73-8.68c-4.43-3.74-6.15-4.31-4.76-1.31s4.97,4.78,9.39,6.92c2.75,1.48,5.12,3.57,6.94,6.1
			c1.54,2.57,3.13,5.25,4.66,7.92c-1.71-2.51-3.82-4.72-6.25-6.54c-5.38-3.96-10.99-6.41-10.28-4.17c0.71,2.24,5.1,3.84,9.81,6.87
			c2.84,1.85,5.54,3.92,8.05,6.19l0.45,0.81c-2.58-2.34-5.52-4.24-8.72-5.61c-1.08-0.52-2.87-1.87-4.09-1.87
			c-2.73-0.08-0.74,2.84,0.34,3.49c3.51,2.17,7.78,2.89,11.13,5.26c1.26,0.88,2.44,1.87,3.54,2.94c0.46,0.96,0.86,1.86,1.22,2.72
			c-1.22-0.67-3.55-1.65-3.72-1.7c-3.6-1.17-6.14-3.45-9.23-5.47c-1.02-0.75-2.27-1.1-3.53-0.98c-1.58,0.37-1.6,2.18-0.78,3.36
			c3.41,4.88,10.28,3.14,15.19,4.79c0.87,0.27,1.72,0.63,2.51,1.08c2.4,6.21,2.06,9.15,2.06,9.15l1.38-0.93c0,0-1.18-4.03-2.94-8.6
			l1.66-2.57c0,0,5.87-8.84,6.08-13.25s-3.32-2.48-4.32,1.26c-1,3.74-1.93,11.71-2.81,13.08l-0.75,1.16
			c-0.48-1.16-0.94-2.33-1.46-3.49c0.89-2.88,1.58-5.8,2.09-8.77c0.54-3.2,1.52-6.77,1.13-10.07c-0.02-0.6-0.24-1.18-0.63-1.65
			c-0.06-0.07-0.12-0.13-0.19-0.19c-0.61-0.5-1.51-0.42-2.02,0.19c-2.08,1.96-1.84,5.28-1.4,7.85c0.35,2.22,0.53,4.46,0.54,6.71
			c0.03,2.03,0.13,3.86,0.13,5.1c-0.59-1.25-1.28-2.58-1.84-3.53s-1.11-1.86-1.65-2.75c-1.22-3.4-1.53-7.06-0.9-10.62
			c1.21-6.75,2.5-10.13,0.46-9.69c-2.04,0.44-4.06,4.4-3.08,9.41c0.55,3.06,1.34,6.07,2.36,9c-1.29-2.14-2.52-4.1-3.8-6.06
			c-1.19-2.27-1.78-4.81-1.72-7.38c0.22-4.41,2.25-12.74,0.26-11.57c-1.98,1.18-3.38,6.06-2.4,10.54c0.58,2.33,1.49,4.56,2.71,6.62
			c-0.9-1.42-1.88-2.85-2.86-4.37c-0.43-0.65-0.87-1.34-1.33-2.05l-0.18-0.39c-0.95-2.19-1.2-4.61-0.71-6.95
			c0.99-4.27,3.95-8.51,1.41-8.72c-2.54-0.22-4.19,6.76-3.52,9.81c0.28,1.15,0.7,2.27,1.25,3.33c-0.16-0.21-0.31-0.42-0.48-0.63
			c-0.97-1.59-1.92-3.14-2.77-4.53c-0.73-2.19-0.92-4.53-0.54-6.81c0.7-5.14,1.75-11.14-0.47-9.06c-1.8,1.68-2.31,8.52-0.34,13.62
			c-0.4-0.63-0.73-1.18-0.98-1.61c-1.2-2.9-3.86-9.77-4.08-14.25c-0.16-3.02,0.13-5.96-0.36-8.91c-0.02-0.32-0.13-0.62-0.3-0.88
			c-1.19-1.54-2.49,2.49-2.71,3.16c-0.76,2.62-0.74,5.41,0.07,8.02c0.64,2.24,1.54,4.4,2.68,6.43c0.72,1.3,1.5,2.57,2.33,3.81
			c0.52,0.79,1.3,1.63,1.96,2.47c0.49,0.94,0.98,1.88,1.47,2.72c-4.24-4.48-10.88-14.7-13.51-16.39
			C325.75,211.77,328.4,217.16,333.45,222.3z"/>
	</g>
	<path class="st6" d="M10.19,30.65c-6.58,4.23-3.29,14.57-3.29,14.57h117.02c0,0-16.91-2.82-18.8-3.29
		c-1.88-0.47-3.77-1.84-12.22-6.11c-8.46-4.27-7.99,0.9-13.63-0.98s-1.4-7.04-7.99-8.93c-6.58-1.88-9.41,6.1-16.92,3.29
		s-5.63-13.17-16.44-12.68S23.36,27.79,23.36,27.79C16.31,31.55,16.78,26.42,10.19,30.65z"/>
	<path class="st6" d="M230.37,12.01c-3.92,2.56-1.96,8.83-1.96,8.83h70.94c0,0-10.24-1.68-11.39-1.96s-2.28-1.18-7.41-3.71
		c-5.13-2.53-4.86,0.57-8.27-0.57s-0.84-4.24-4.84-5.42c-3.99-1.18-5.7,3.68-10.26,1.96c-4.56-1.72-3.42-8.01-9.97-7.69
		c-6.54,0.31-8.83,6.87-8.83,6.87C234.12,12.6,234.29,9.45,230.37,12.01z"/>
	<g>
		<path class="st7" d="M346.98,127.81c-5.37,3.45-2.69,11.89-2.69,11.89h95.53c0,0-13.8-2.29-15.34-2.68
			c-1.54-0.39-3.07-1.54-9.98-4.99c-6.91-3.45-6.56,0.78-11.13-0.77c-4.56-1.54-1.16-5.75-6.52-7.29s-7.68,4.99-13.81,2.69
			s-4.61-10.73-13.43-10.36s-11.89,9.2-11.89,9.2C351.97,128.6,352.34,124.36,346.98,127.81z"/>
	</g>
	<g id="Shadow">
		<ellipse class="st8" cx="244.23" cy="293.26" rx="104.05" ry="7.38"/>
		<ellipse class="st8" cx="146.74" cy="284.65" rx="58.99" ry="3.69"/>
		<g class="st4">
			<ellipse class="st8" cx="244.23" cy="293.26" rx="104.05" ry="7.38"/>
			<ellipse class="st8" cx="146.74" cy="284.65" rx="58.99" ry="3.69"/>
		</g>
	</g>
	<g>
		<defs>
			<path id="SVGID_1_" d="M243.85,77.71V3.37H42.24v267.31h121.18l65.73-39.9l5.03-7.17l2.09-36.5c0,0-0.82-0.77-2.02-4.69
				c-0.72-2.21-0.97-4.55-0.73-6.87l-4.59-2.94c0,0,1.39-0.11-0.34,1.2c-0.69,0.52-3.04-0.66-3.04-0.66
				c-11.35-2.01-11.61-6.81-11.4-6.87l0.29-3.64l-7.65-5.74l4.39-36.83l-2.74-20.54c0,0-1.35-8.73,0.15-11.13
				c1.5-2.39,5.77-4.64,5.77-4.64l26.17-4.79l1.83-0.71L243.85,77.71z"/>
		</defs>
		<clipPath id="SVGID_2_">
			<use xlink:href="#SVGID_1_"  style="overflow:visible;"/>
		</clipPath>
		<g id="clock" class="st9">
			<polygon class="st10" points="214.71,54.1 221.92,58.26 217.84,65.36 210.64,61.2 			"/>
			<polygon class="st10" points="219.83,40.59 231.18,47.14 224.42,59.66 213.07,53.11 			"/>
			<circle class="st11" cx="634.23" cy="86.82" r="87.27"/>
			<path class="st12" d="M64.02,148.94c0,0.01,0,0.02,0,0.03c0.02,55.64,45.13,100.73,100.77,100.71s100.73-45.13,100.71-100.77
				C265.49,93.28,220.38,48.18,164.74,48.2C109.11,48.22,64.02,93.32,64.02,148.94z M164.74,236.22L164.74,236.22
				c-48.22,0-87.31-39.09-87.31-87.31l0,0c0-48.22,39.09-87.31,87.31-87.31s87.31,39.09,87.31,87.31S212.96,236.22,164.74,236.22
				L164.74,236.22z"/>
			<path class="st13" d="M136.94,54.99c-12.42,3.68-23.98,9.78-34.02,17.96"/>
			<path class="st13" d="M157.03,51.29c-3.62,0.28-7.22,0.77-10.79,1.44"/>
			<path class="st14" d="M93.22,92.51c-25.35,32.15-26.15,77.26-1.96,110.29"/>
			<path class="st14" d="M95.93,208.63c2.51,2.9,5.2,5.64,8.06,8.19"/>
			<path class="st14" d="M107.59,219.93c26.62,21.39,62.97,26.13,94.18,12.26"/>
			<path class="st14" d="M206.32,229.99c2.9-1.48,5.72-3.12,8.45-4.91"/>
			<path class="st14" d="M217.36,223.31c2.49-1.76,4.88-3.64,7.18-5.64"/>
			<path class="st14" d="M226.95,215.49c12.02-11.24,20.77-25.52,25.32-41.34c13.93-48.36-13.99-98.85-62.35-112.78"/>
			<path class="st14" d="M182.98,59.68c-29.98-6.1-61.02,3.23-82.66,24.85"/>
			<rect x="151.68" y="181.22" class="st15" width="26.21" height="7.1"/>
			<path class="st13" d="M102.92,72.95"/>
			<g id="clock-indicator" style="transform: rotate(10deg); transform-origin: 164.8px 148.8px">
				<path class="st16" d="M163.2,156.1l-0.27,17.01h3.63l-0.27-17.01c2.91-0.62,5.15-2.93,5.68-5.86c0.71-3.97-1.93-7.77-5.9-8.49
					l-0.77-47.94h-1.09l-0.78,47.94c-3.48,0.63-6,3.66-6,7.19C157.42,152.39,159.83,155.37,163.2,156.1z M160.81,148.94
					c0-2.17,1.76-3.92,3.92-3.92c2.17,0,3.92,1.76,3.92,3.92c0,2.17-1.76,3.92-3.92,3.92C162.57,152.87,160.81,151.11,160.81,148.94
					z"/>
			</g>
			<circle class="st15" cx="164.74" cy="148.94" r="4.03"/>
			<line class="st17" x1="164.74" y1="81.1" x2="164.74" y2="66.57"/>
			<line class="st17" x1="164.74" y1="231.82" x2="164.74" y2="217.29"/>
			<line class="st17" x1="198.78" y1="90.22" x2="206.05" y2="77.64"/>
			<line class="st17" x1="123.42" y1="220.76" x2="130.69" y2="208.17"/>
			<line class="st17" x1="223.71" y1="115.15" x2="236.29" y2="107.89"/>
			<line class="st17" x1="93.18" y1="190.51" x2="105.76" y2="183.25"/>
			<line class="st17" x1="96.63" y1="149.2" x2="82.1" y2="149.2"/>
			<line class="st17" x1="247.36" y1="149.2" x2="232.83" y2="149.2"/>
			<line class="st17" x1="96.63" y1="149.2" x2="82.1" y2="149.2"/>
			<line class="st17" x1="247.36" y1="149.2" x2="232.83" y2="149.2"/>
			<line class="st17" x1="105.76" y1="115.15" x2="93.18" y2="107.89"/>
			<line class="st17" x1="236.29" y1="190.51" x2="223.71" y2="183.25"/>
			<line class="st17" x1="130.69" y1="90.22" x2="123.42" y2="77.64"/>
			<line class="st17" x1="206.05" y1="220.76" x2="198.78" y2="208.17"/>
			<rect x="160.58" y="45.03" class="st10" width="8.32" height="7.36"/>
			<rect x="158.18" y="25.37" class="st10" width="13.11" height="19.24"/>
			<rect x="155.45" y="11.84" class="st15" width="18.97" height="13.11"/>
			<rect x="155.25" y="11.84" class="st10" width="18.97" height="13.11"/>
			<line class="st10" x1="172.11" y1="12.14" x2="172.11" y2="19.99"/>
			<line class="st10" x1="172.11" y1="21.8" x2="172.11" y2="25.19"/>
			<line class="st10" x1="169.7" y1="12.14" x2="169.7" y2="25.19"/>
			<line class="st10" x1="167.28" y1="12.14" x2="167.28" y2="15.39"/>
			<line class="st10" x1="167.28" y1="16.96" x2="167.28" y2="25.19"/>
			<line class="st10" x1="163.29" y1="12.14" x2="163.29" y2="25.19"/>
		</g>
	</g>
	<g style="transform: rotate(0);transform-origin: 474px 398px;" id="Character">
	<polygon class="st18" points="282.66,136.54 281.04,142.01 253.52,121.45 256.53,117.36 	"/>
	<path class="st18" d="M316.54,122.29l-5.5,20.81l-2.25,19.1l-28.81-12.51l2.16-11.87l-26.79-18.47l9.27-26.78l5.09-2.59l31.11,5.12
		l3.55,2.4l-1.68,15.44c0,0-0.92,2.09-0.33,3.76l3.18,3.59l5.76,2.09L316.54,122.29z"/>
	<line class="st10" x1="226.7" y1="170.13" x2="245" y2="183.24"/>
	<path class="st15" d="M180.33,271.28c0,0-4.83,0.2-6.24,1.81c-0.82,1.02-1.05,2.39-0.6,3.62c0,0,9.05,10.06,9.05,11.26
		s1.38,2.82,5.63,2.82c4.25,0,5.22-1.05,5.23-1.81c0.01-0.77-5.2-3.05-5.2-3.05l-1.03-11.63L180.33,271.28z"/>
	<path class="st19" d="M174.7,273.89c0,0.75,0.19,1.49,0.54,2.16c0.54,0.81,7.28,11.08,9.17,12.16c1.89,1.08,8.97,1.54,8.97,1.54"/>
	<path class="st10" d="M186.56,276.08l1.64,9.81c0,0,4.93,2.46,5.19,3.83c0.26,1.36-8.19,1.33-9.56,0s-10.37-12.25-10.92-14.72
		c-0.55-2.46,5.19-3.55,5.19-3.55"/>
	<path class="st15" d="M281.87,289.37c-0.61,0.61-0.18,1.86,0.8,3.83c0.6,1.21,3.22,0.6,3.22,0.6s23.32-0.2,27.74-0.2
		s2.22-1.61,2.22-1.61l-16.89-8.25C298.96,283.74,282.48,288.76,281.87,289.37z"/>
	<path class="st20" d="M284.3,291.71h29.97"/>
	<path class="st10" d="M281.8,292.44c0,1.64,4.65,1.36,11.2,1.36s23.75-0.01,24.03-0.82c0.27-0.81-16.93-8.19-16.93-8.19"/>
	<path class="st16" d="M186.6,276.09c0,0,68.82-34.4,70.46-37.13c1.64-2.74,10.65-34.69,10.65-34.69s-20.35-10.28-23.86-11.63
		c-2.55-1.13-4.91-2.64-7-4.48l-1.96,41.78l-56.79,41.51L186.6,276.09z"/>
	<path class="st16" d="M282.63,286.4l29.22-63.83l-1.08-0.07c0,0-64.94-28.87-72.04-34.34s-5.19-12.56-5.19-12.56l11.47,7.64
		l28.68-10.1l4.38-1.36c0,0,3.49,1.35,1.64,3.55c0,0,48.27,29.46,55.64,35.19c7.38,5.73,8.19,8.47,7.1,10.1
		c-1.09,1.64-43.7,58.44-43.7,58.44c0.98,0.7,1.58,1.8,1.64,3c0.04,0.92-0.05,1.84-0.27,2.73c0,0-11.2,4.36-13.66,4.91
		s-4.64,1.1-4.64,1.1C280.67,289.89,282.63,286.4,282.63,286.4z"/>
	<polyline class="st14" points="314.8,213.15 312.64,222.06 318.04,215.32 	"/>
	<path class="st14" d="M249.74,225.57c4.05-3.51,15.12-20.79,15.12-20.79"/>
	<path class="st14" d="M253.53,211.53c3.42-2.18,6.66-4.62,9.71-7.29"/>
	<polygon class="st21" points="211.97,121.19 207.38,155.93 245.34,182.97 273.78,173.43 282.15,138.9 243.84,112.79 	"/>
	<line class="st10" x1="279.52" y1="149.69" x2="281.94" y2="138.9"/>
	<polyline class="st21" points="248.55,157.58 245,183.24 273.67,173.14 277.5,157.58 	"/>
	<line class="st10" x1="249.91" y1="148.84" x2="248.82" y2="155.39"/>
	<polyline class="st21" points="211.13,123.71 207.31,156.21 214.96,161.94 	"/>
	<line class="st10" x1="225.34" y1="131.35" x2="246.09" y2="146.92"/>
	<polyline class="st21" points="281.31,138.46 243.63,112.79 226.42,117.43 	"/>
	<line class="st10" x1="275.31" y1="141.19" x2="281.04" y2="139.56"/>
	<line class="st10" x1="249.91" y1="147.75" x2="265.48" y2="143.37"/>
	<line class="st20" x1="252.64" y1="134.91" x2="229.15" y2="116.88"/>
	<line class="st20" x1="263.02" y1="143.1" x2="254.55" y2="136.54"/>
	<path class="st11" d="M212.78,85.76c-2.72,1.18-4.45,3.9-4.38,6.87c0,5.19,7.93,60.63,7.93,60.63s-1.92,11.75-1.37,14.21
		c0.55,2.45,10.66,6.28,12.84,6s-1.1-3.28-1.1-3.28l-1.09-1.09c-0.17-1.84-0.44-3.66-0.81-5.46c0,0,0.54,3.01,2.18,3.83
		c1.64,0.81,3.55,1.13,3.55,0.26c0-0.86-1.09-1.96-1.09-1.96c-0.75-2.11-1.21-4.32-1.36-6.55c0-2.73-5.46-3.82-5.46-6
		c0-2.19,5.96-51.39,5.96-51.39"/>
	<g>
		<defs>
			<path id="SVGID_3_" d="M212.78,85.76c-2.72,1.18-4.45,3.9-4.38,6.87c0,5.19,7.93,60.63,7.93,60.63s-1.92,11.75-1.37,14.21
				c0.55,2.45,10.66,6.28,12.84,6s-1.1-3.28-1.1-3.28l-1.09-1.09c-0.17-1.84-0.44-3.66-0.81-5.46c0,0,0.54,3.01,2.18,3.83
				c1.64,0.81,3.55,1.13,3.55,0.26c0-0.86-1.09-1.96-1.09-1.96c-0.75-2.11-1.21-4.32-1.36-6.55c0-2.73-5.46-3.82-5.46-6
				c0-2.19,5.96-51.39,5.96-51.39"/>
		</defs>
		<clipPath id="SVGID_4_">
			<use xlink:href="#SVGID_3_"  style="overflow:visible;"/>
		</clipPath>
		<g class="st22">
			<path class="st23" d="M214.98,140.19c2.5,15.84,0.83,14.59-0.56,22.44c-1.39,7.85,7.23,9.66,7.23,9.66s-4.17-12.92-4.17-16.26
				V90.57l5.43,3.34l-6.87-8.25l-5.2,1.58c0,0-1.25,7.93-2.39,12.29C207.26,103.92,212.47,124.35,214.98,140.19z"/>
		</g>
	</g>
	<path class="st10" d="M212.78,85.76c-2.72,1.18-4.45,3.9-4.38,6.87c0,5.19,7.93,60.63,7.93,60.63s-1.92,11.75-1.37,14.21
		c0.55,2.45,10.66,6.28,12.84,6s-1.1-3.28-1.1-3.28l-1.09-1.09c-0.17-1.84-0.44-3.66-0.81-5.46c0,0,0.54,3.01,2.18,3.83
		c1.64,0.81,3.55,1.13,3.55,0.26c0-0.86-1.09-1.96-1.09-1.96c-0.75-2.11-1.21-4.32-1.36-6.55c0-2.73-5.46-3.82-5.46-6
		c0-2.19,5.96-51.39,5.96-51.39"/>
	<path class="st20" d="M224.13,172.93c-0.72-0.74-1.35-1.56-1.88-2.43c-0.48-1.11-0.57-2.34-0.27-3.5"/>
	<path class="st20" d="M219.52,170.23c-0.38-1.05-0.65-2.13-0.81-3.24"/>
	<path class="st20" d="M217.09,169.42c-0.38-1.05-0.65-2.13-0.81-3.24"/>
	<path class="st15" d="M307.2,78.28l34.34-2.62c2.64,2.22,5.95,3.5,9.4,3.64c5.34,0,14.77-5.89,14.77-5.89L347.17,74l-5.34-0.98
		l-0.63-4.08c0,0,0-0.3,0-0.8c-0.11,1-0.31,1.98-0.59,2.94c1.92,6.75-11.24,2.89-11.24,2.89s-1.29-11.49-0.32-15.7
		c0.96-4.21,2.57-7.06,8.35-2.25c1.17,0.97,2.3,3.39,2.85,4.59c-0.51-2.33-1.29-4.5-2.47-5.43c-3.14-2.55-11.63-2.55-19.47-0.98
		c-7.85,1.57-13.5,6.91-13.81,9.73C304.18,66.76,307.2,78.28,307.2,78.28z"/>
	<path class="st24" d="M341.85,71.78c-0.39-2.38-0.61-4.78-0.66-7.19c0-3.27-0.47-9.25-7.55-10.97c-5.73-1.38-26.33,1.14-28.62,8.64
		c-2.29,7.5,2.2,16.05,2.2,16.05l34.34-2.62c0,0,2.61,3.27,10.46,3.27c7.85,0,13.73-5.55,13.73-5.55l-21.23,0.32"/>
	<g>
		<defs>
			<path id="SVGID_5_" d="M312.19,91.69c0,0-4.57,4.28-4.57,5.89s-2.65,16.32-1.96,20.25s21.89-17.3,21.89-17.3
				s10.46,3.27,12.09,1.3c1.63-1.96,2.61-13.39,2.61-13.39s0.97-0.65,2.61-1.96c1.64-1.31-1.96-9.81-1.96-9.81"/>
		</defs>
		<clipPath id="SVGID_6_">
			<use xlink:href="#SVGID_5_"  style="overflow:visible;"/>
		</clipPath>
		<g class="st25">
			<path class="st23" d="M340.47,75.7l2.68,2.67l2.43,6.57l-3.38,3.52c0,0-0.25,7.69-0.98,10.37s-2.19,3.65-6.81,3.17
				c-2.49-0.17-4.91-0.93-7.06-2.2c0,0,9.72,1.23,10.95-1.45c1.23-2.68,0.25-10.47,0.25-10.47c1.18-0.76,2.18-1.76,2.94-2.94
				c0.98-1.71-2.94-7.54-2.94-7.54l-13.86-0.25L340.47,75.7z"/>
		</g>
	</g>
	<path class="st10" d="M312.19,91.69c0,0-4.57,4.28-4.57,5.89s-2.65,16.32-1.96,20.25s21.89-17.3,21.89-17.3s10.46,3.27,12.09,1.3
		c1.63-1.96,2.61-13.39,2.61-13.39s0.97-0.65,2.61-1.96c1.64-1.31-1.96-9.81-1.96-9.81"/>
	<path class="st16" d="M317.74,77.32c0,0,1.63,3.27,3.59,2.94s2.61-3.27,2.61-3.27L317.74,77.32z"/>
	<path class="st16" d="M313.59,77.58c0,0-1.37,3.82-0.39,6.43c0.98,2.61,4.91,2.79,4.91,2.79s-5.23,7.19-7.19,3.92
		c0,0-0.96-0.01-3.26-3.27c-2.3-3.26-0.33-9.14-0.33-9.14L313.59,77.58z"/>
	<path class="st10" d="M320.08,91.71l-1.96-4.91c0,0-3.92,0.67-4.91-1.63c-0.98-2.3,0-6.87,0-6.87"/>
	<path class="st26" d="M333.7,86.81c2.42,4.33,6.21,3.51,6.21,3.51"/>
	
		<rect x="267.85" y="114.94" transform="matrix(0.3456 -0.9384 0.9384 0.3456 67.6965 335.5141)" class="st16" width="13.12" height="8.55"/>
	
		<rect x="271.91" y="115.85" transform="matrix(0.3456 -0.9384 0.9384 0.3456 69.2934 335.1479)" class="st11" width="6.08" height="4.09"/>
	
		<rect x="275.07" y="110.98" transform="matrix(0.3456 -0.9384 0.9384 0.3456 76.316 333.205)" class="st27" width="3.99" height="1.81"/>
	<line class="st10" x1="278.04" y1="171.77" x2="285.32" y2="163.49"/>
	<g>
		<defs>
			<path id="SVGID_7_" d="M310.49,142.01l-2.19,19.93c0,0,21.62,15.04,22.17,13.95c0.55-1.09-0.27-47.22-0.27-49.7
				s-11.47-11.77-11.47-11.77"/>
		</defs>
		<clipPath id="SVGID_8_">
			<use xlink:href="#SVGID_7_"  style="overflow:visible;"/>
		</clipPath>
		<g class="st28">
			<path class="st23" d="M322.94,171.03l7.49,4.82l-0.27-49.7c0,0-4.71-5.98-5.95-7.24l-5.51-4.5l-0.55-4.91l1.26-1.21h-0.12
				c-5.19,4.85-8.56,7.23-10.65,8.41l1.81-0.69c1.75-0.65,3.68-0.65,5.43,0c2.55,1.15,2.08,4.17,2.08,4.17s7.92,5.43,9.17,8.34
				c1.26,2.91-0.41,40.44-0.41,40.44l-18.39-7.01l14.4,9.55L322.94,171.03z"/>
		</g>
	</g>
	<path class="st29" d="M310.49,142.01l-2.19,19.93c0,0,21.62,15.04,22.17,13.95c0.55-1.09-0.27-47.22-0.27-49.7
		s-11.47-11.77-11.47-11.77"/>
	<line class="st10" x1="293.33" y1="155.66" x2="316.54" y2="137.09"/>
	<g>
		<defs>
			<path id="SVGID_9_" d="M270.39,90.63l-36.87,16.92c0,0-1.63-2.46-4.91-6.55c-3.28-4.09-12.83-16.11-12.83-16.11
				s5.46-1.09,8.74-1.64c3.28-0.55,48.34-9.56,51.06-9.56s25.24,21.4,25.24,21.4"/>
		</defs>
		<use xlink:href="#SVGID_9_"  style="overflow:visible;fill:#EC1D24;"/>
		<clipPath id="SVGID_10_">
			<use xlink:href="#SVGID_9_"  style="overflow:visible;"/>
		</clipPath>
	</g>
	<line class="st10" x1="254.83" y1="119.35" x2="264.12" y2="94.76"/>
	<polygon class="st30" points="305.35,120.16 294.7,133.82 292.52,131.63 303.53,117.36 	"/>
	<polyline class="st20" points="272.96,100.32 263.78,93.84 274.57,95.73 	"/>
	<line class="st20" x1="324.24" y1="140" x2="310.54" y2="142.01"/>
	<path class="st31" d="M306.45,119.89l6,8.47c0,0,4.64-7.1,6-11.19c0.81-2.5,0.71-5.21-0.27-7.65"/>
	<path class="st32" d="M307.81,94.76c0,0-5.19-3.01-9.02,2.73c-3.83,5.74-4.64,16.39-4.64,16.39h4.64c2.73,0,5.74,2.73,5.74,2.73"/>
	<path class="st11" d="M321.73,172.62c0,0-5.46,15.57-8.19,13.93c-2.73-1.64-39.59-32.49-39.59-32.49s-4.92-2.19-6.28-4.1
		c-1.36-1.91-1.37-6.28-2.46-8.47c-1.09-2.19-4.09-3-4.37-5.19c-0.27-2.19,1.91,0,1.91,0l11.19,2.43l2.73,9.56l32.78,15.29"/>
	<g>
		<defs>
			<path id="SVGID_11_" d="M321.73,172.62c0,0-5.46,15.57-8.19,13.93c-2.73-1.64-39.59-32.49-39.59-32.49s-4.92-2.19-6.28-4.1
				c-1.36-1.91-1.37-6.28-2.46-8.47c-1.09-2.19-4.09-3-4.37-5.19c-0.27-2.19,1.91,0,1.91,0l11.19,2.43l2.73,9.56l32.78,15.29"/>
		</defs>
		<clipPath id="SVGID_12_">
			<use xlink:href="#SVGID_11_"  style="overflow:visible;"/>
		</clipPath>
		<g class="st33">
			<path class="st23" d="M308.3,161.94l8.83,9.1c0,0-0.49,6.25-2.94,7.08s-32.06-17.91-32.06-17.91l30.02,25.01
				c0,0,3.34,3.76,3.76,0c0.36-3.3,5.53-11.7,6.8-13.73L308.3,161.94z"/>
		</g>
	</g>
	<path class="st10" d="M321.73,172.62c0,0-5.46,15.57-8.19,13.93c-2.73-1.64-39.59-32.49-39.59-32.49s-4.92-2.19-6.28-4.1
		c-1.36-1.91-1.37-6.28-2.46-8.47c-1.09-2.19-4.09-3-4.37-5.19c-0.27-2.19,1.91,0,1.91,0l11.19,2.43l2.73,9.56l32.78,15.29"/>
	<path class="st20" d="M267.56,140.57c0.54-1.08-4.81-4.27-4.81-4.27"/>
	<line class="st20" x1="271.07" y1="139.46" x2="267.02" y2="137.3"/>
	<path class="st34" d="M300.83,95.09c0,0-22.51-21.4-25.24-21.4s-47.79,9.01-51.06,9.56c-3.28,0.55-8.74,1.64-8.74,1.64
		s9.56,12.02,12.83,16.11c3.28,4.09,4.91,6.55,4.91,6.55l36.87-16.92"/>
	<circle class="st18" cx="303.04" cy="120.71" r="0.74"/>
	<circle class="st18" cx="295.59" cy="130.38" r="0.74"/>
	<circle class="st18" cx="298.92" cy="126.08" r="0.74"/>
	</g>
</g>
</svg>
