<svg xmlns="http://www.w3.org/2000/svg" xmlns:xlink="http://www.w3.org/1999/xlink" viewBox="0 0 287.46 263.35">
	<defs>
		<style>
			.cls-1{isolation:isolate;}.cls-2{fill:#f58d5b;}.cls-27,.cls-3{fill:#f37032;}.cls-4{fill:#59453d;}.cls-5{fill:#6c5952;}.cls-6{fill:#fdbc9a;}.cls-7{fill:#757576;}.cls-8{fill:#99999a;}.cls-25,.cls-9{fill:#9a6b47;}.cls-10{fill:#8d7f79;}.cls-11{fill:#fff;}.cls-12,.cls-22,.cls-24{fill:#fac021;}.cls-13{fill:#bd9f87;}.cls-14{fill:#a98163;}.cls-15{fill:#efeae5;}.cls-16{fill:#c2c2c3;}.cls-17{fill:#91837d;}.cls-18{fill:#a0a0a1;}.cls-19{fill:#fbd058;}.cls-20{fill:url(#radial-gradient);}.cls-21{fill:#fbc942;}.cls-22,.cls-25{opacity:0.5;}.cls-22,.cls-25,.cls-27{mix-blend-mode:multiply;}.cls-23,.cls-24{mix-blend-mode:overlay;}.cls-26{fill:#565252;}.cls-28{fill:#473027;}


			.cls-1{
			opacity: 0;
			-webkit-animation : gari-cole .5s forwards .5s;
			-moz-animation: gari-cole .5s forwards .5s;
			animation: gari-cole .5s forwards .5s;
			}

			#dhoya4{
			-webkit-animation : asbe-jabe4 .5s forwards ;
			-moz-animation: asbe-jabe4 .5s forwards ;
			animation: asbe-jabe4 .5s forwards ;
			}
			#dhoya3{
			opacity: 0;
			-webkit-animation : asbe-jabe3 .5s forwards .3s ;
			-moz-animation: asbe-jabe3 .5s forwards .3s ;
			animation: asbe-jabe3 .5s forwards .3s ;
			}
			#dhoya2{
			opacity: 0;
			-webkit-animation : asbe-jabe2 .5s forwards .6s;
			-moz-animation: asbe-jabe2 .5s forwards .6s;
			animation: asbe-jabe2 .5s forwards .6s;
			}
			#dhoya1{
			opacity: 0;
			-webkit-animation : asbe-jabe1 .5s forwards .9s;
			-moz-animation: asbe-jabe1 .5s forwards .9s;
			animation: asbe-jabe1 .5s forwards .9s;
			}


			@-webkit-keyframes gari-cole {

			0% {
			opacity: 1;
			transform: translateX(-200px)
			}
			100%{
			transform: translateX(200px)
			}
			}

			@-moz-keyframes gari-cole {

			0% {
			opacity: 1;
			transform: translateX(-200px)
			}
			100%{
			transform: translateX(200px)
			}
			}

			@keyframes gari-cole {

			0% {
			opacity: 1;
			transform: translateX(-200px)
			}
			100%{
			transform: translateX(200px)
			}
			}

			@-webkit-keyframes asbe-jabe4 {
			0% {
			opacity: 1;
			}
			100%{
			opacity: 0;
			}
			}

			@-moz-keyframes asbe-jabe4 {
			0% {
			opacity: 1;
			}
			100%{
			opacity: 0;
			}
			}

			@keyframes asbe-jabe4 {
			0% {
			opacity: 1;
			}
			100%{
			opacity: 0;
			}
			}

			@-webkit-keyframes asbe-jabe3 {
			0% {
			opacity: 1;
			}
			100%{
			opacity: 0;
			}
			}

			@-moz-keyframes asbe-jabe3 {
			0% {
			opacity: 1;
			}
			100%{
			opacity: 0;
			}
			}

			@keyframes asbe-jabe3 {
			0% {
			opacity: 1;
			}
			100%{
			opacity: 0;
			}
			}


			@-webkit-keyframes asbe-jabe2 {
			0% {
			opacity: 1;
			}
			100%{
			opacity: 0;
			}
			}

			@-moz-keyframes asbe-jabe2 {
			0% {
			opacity: 1;
			}
			100%{
			opacity: 0;
			}
			}

			@keyframes asbe-jabe2 {
			0% {
			opacity: 1;
			}
			100%{
			opacity: 0;
			}
			}


			@-webkit-keyframes asbe-jabe1 {
			0% {
			opacity: 1;
			}
			100%{
			opacity: 0;
			}
			}


			@-moz-keyframes asbe-jabe1 {
			0% {
			opacity: 1;
			}
			100%{
			opacity: 0;
			}
			}


			@keyframes asbe-jabe1 {
			0% {
			opacity: 1;
			}
			100%{
			opacity: 0;
			}
			}
		</style>
		<radialGradient id="radial-gradient" cx="57.11" cy="160.89" r="18.82" gradientTransform="matrix(-1, 0, 0, 1, 296.52, 0.36)" gradientUnits="userSpaceOnUse">
			<stop offset="0.7" stop-color="#fff" />
			<stop offset="0.87" stop-color="#f8f7f7" />
			<stop offset="1" stop-color="#f0edec" />
		</radialGradient>
	</defs>
	<title>
		fast-delivery
	</title>
	<g class="cls-1">
		<g id="Layer_2" data-name="Layer 2">
			<g id="OBJECTS">
				<path class="cls-2" d="M113.87,102.52q0-3.51-.23-7c1.66.59,3.57.3,5.33.31a45.18,45.18,0,0,0,5.7-.07,22.74,22.74,0,0,0,1.77,6.8A81.15,81.15,0,0,0,113.87,102.52Z" />
				<path class="cls-3" d="M204,219.88v0a8.48,8.48,0,0,0-1-1.33,6,6,0,0,1,1.72-1.05,5.83,5.83,0,0,0,2,.55.23.23,0,0,0,.21-.14c-.1.4-.21.8-.33,1.19A5.57,5.57,0,0,0,204,219.88Z" />
				<path class="cls-3" d="M200.81,230a33.28,33.28,0,0,0-7.22-.61c.28-1.92.49-3.51,1.89-5.14a5.73,5.73,0,0,1,3-1.91,9.73,9.73,0,0,0,1.6-.56,12.05,12.05,0,0,1,3.57,4.28,17.17,17.17,0,0,1-2.57,3.43A1,1,0,0,0,200.81,230Z" />
				<path class="cls-3" d="M126.78,103.18a7.39,7.39,0,0,0,.74,1,2.48,2.48,0,0,0,.49.6l.27.19a115.44,115.44,0,0,0,1.16,20.18c.79,5.95,3.9,19.36,4.11,19.61a3.91,3.91,0,0,0,.7.66,8.52,8.52,0,0,0,2,5.29,63.79,63.79,0,0,0-16.45,1.79c-2.1.5-4.39,1-6.64,1.7.24-9.85.3-19.73.37-29.59,0-7,.39-14,.36-21Q120.34,103.33,126.78,103.18Z" />
				<path class="cls-3" d="M192.55,221.49l.2-.28a6.39,6.39,0,0,1,2.95-2,26.08,26.08,0,0,1,3.45,1.91,8.74,8.74,0,0,0-2.61.63,7.6,7.6,0,0,0-2.32,1.87A7.23,7.23,0,0,0,192.55,221.49Z" />
				<path class="cls-3" d="M202.92,222.64c.2-.27.36-.58.58-.85a4.46,4.46,0,0,1,1-.9,17.21,17.21,0,0,1,1.67-.82,32.34,32.34,0,0,1-1.92,4.79A7.33,7.33,0,0,0,202.92,222.64Z" />
				<path class="cls-4" d="M208,177.58c-.39,4.85-.7,9.69-1.28,14.51-.42,3.47-.94,6.93-1.6,10.36a44.71,44.71,0,0,0-1.2,7c-1.8.07-3.59.17-5.39.19-1.36,0-2.83-.12-4.25-.08,5.19-17.56,8.19-36.77,7.19-55.11-.17-3.07-.69-6.32-2.77-8.72-2.27-2.62-5.88-4.09-9.06-5.28a51.77,51.77,0,0,0-16.21-3.05c1.58-.22,3.16-.48,4.68-.85l.33.09.22.44a.45.45,0,0,0,.82-.11.29.29,0,0,1,0-.09c3.87.85,7.85,1.2,11.74,2a45.88,45.88,0,0,1,7,1.9c1.86.73,3.3,2.08,5.06,2.89-1.62,4-1.22,8.63-.27,12.86C204.63,163.6,206.76,170.45,208,177.58Z" />
				<path class="cls-5" d="M189.65,117.7l.93-.16.46-.13a3.35,3.35,0,0,1,1.15,3.29,2.36,2.36,0,0,1-1.49,2l-.11,0c-.12,0-.23,0-.36,0l-.49,0a10.6,10.6,0,0,0,.07-4.45C189.76,118.11,189.7,117.91,189.65,117.7Z" />
				<path class="cls-6" d="M131.61,99.09a13.38,13.38,0,0,1,3.13-1.22c1.23-.36,2.47-.64,3.72-.94.5,3.81,1.76,7.75,4.63,10.43,3.26,3,7.92,3.63,12.18,3.67,6.1,0,12.1-.69,18.21-.31,3.65.22,7.48.54,10.67,2.5a7.86,7.86,0,0,1,3.68,4.07c.59,1.7,1.6,6.65-1.71,6.92a2.09,2.09,0,0,0,.14-.17c1.44-2,.87-4.7-.56-6.5a.2.2,0,0,0-.33.14c.25,2,1.51,5.13-1,6.29a3.87,3.87,0,0,1-1.84.33l0,0a4,4,0,0,0,.86-1c.88-1.5,1-4.77-.87-5.62a.05.05,0,0,0-.07,0c-.3,1.46.64,2.79.09,4.3a2.89,2.89,0,0,1-1.89,1.84,2.64,2.64,0,0,1-1,0,5.07,5.07,0,0,0-1.35-7.63c-4.43-2.65-10.44.76-14.86,1.68-6.67,1.39-15.77,2.68-22.09-.63a20.54,20.54,0,0,1-7.78-7.59c-1.74-2.83-2.49-6.09-4.07-8.94a2.31,2.31,0,0,1,.42-.4A7.07,7.07,0,0,1,131.61,99.09Z" />
				<path class="cls-7" d="M201.55,124.46a32.71,32.71,0,0,0-3.43.2c-.92.1-2,.14-2.94.29a6,6,0,0,0,.62-3c0-1.63-.09-4.5-1.4-5.88.93-.07,1.88-.22,2.81-.37a16.35,16.35,0,0,1,2.76,4.5.32.32,0,0,0,.62-.08,7.13,7.13,0,0,0-1.29-4.75c2-.28,3.92-.56,5.85-1a17.92,17.92,0,0,0-3.6,10.07Z" />
				<path class="cls-8" d="M192.08,117a3.28,3.28,0,0,0,.47-.86c1.39-.22,2,2.8,2.1,3.52a17.5,17.5,0,0,1,0,2.61c-.06.87-.17,2.81-1.51,2.69-.78-.07-1-.91-1.14-1.65l.2-.15a3.86,3.86,0,0,0,1.12-2.56A4.5,4.5,0,0,0,192.08,117Z" />
				<path class="cls-9" d="M184.06,24.48a.63.63,0,0,0-.1-.12,40.89,40.89,0,0,0,4.71-.54,13,13,0,0,1,1.7,1.46,3.78,3.78,0,0,1,1,1.79c.17,1.76-1.21,1.59-2.22,1.35l-.38-.14a.38.38,0,0,0-.41-.14C186.52,27.36,185.56,25.67,184.06,24.48Z" />
				<path class="cls-9" d="M164.12,29.43a5.9,5.9,0,0,1-2.86-1.28,8.73,8.73,0,0,1,1.36-1.08,12.06,12.06,0,0,1,2.94-1.36C166.12,27.31,166.56,29.57,164.12,29.43Z" />
				<path class="cls-7" d="M189.8,23c-5.79-1-12.39-.34-18.2,0-4.33.26-8.93,1.12-12,4.41-6.57,6.93-.9,22-8.81,27.37a17.85,17.85,0,0,0,2.14-6.22c1-5.48,1-11.17,2.31-16.58C159,16.87,179,21,190.34,19.86a9.8,9.8,0,0,1,0,1.53,3.48,3.48,0,0,1-.21,1.2A1.23,1.23,0,0,1,189.8,23Z" />
				<path class="cls-9" d="M172.21,29.16a10.22,10.22,0,0,1-3.91-2.46,18,18,0,0,0-1.46-1.35,30.44,30.44,0,0,1,4.76-.65c1-.08,2-.12,3.05-.14a14,14,0,0,1,1,2.9C175.93,29.7,173.84,29.69,172.21,29.16Z" />
				<path class="cls-10" d="M171,123.49a3.94,3.94,0,0,1-.38-3.06,1.77,1.77,0,0,1,1.63-1.46.55.55,0,0,0,.25.14l.14,0a4.41,4.41,0,0,1,1,3,3.39,3.39,0,0,1-.34,1.6C172.57,124.86,171.5,124.28,171,123.49Z" />
				<path class="cls-11" d="M170.3,43.82c-1.46.56-3-.6-3.39-2.31a3,3,0,0,1,.9-2.84,2.14,2.14,0,0,1,2.45-.38,2.08,2.08,0,0,0-.86,1,4.36,4.36,0,0,0-.16,2.74A3.15,3.15,0,0,0,170.3,43.82Z" />
				<path class="cls-12" d="M187.88,18.73c-5.15-9.27-14.07-16.34-25-16.94a32.23,32.23,0,0,0-19.25,4.93,28.5,28.5,0,0,0-12.38,25.56,31.49,31.49,0,0,0,4.95,15.43,19.68,19.68,0,0,0,5.57,5.78,27.29,27.29,0,0,0,5.64,2.33c4.44-2.6,4.68-10.9,5.16-15.25.53-4.76.56-10.29,3.6-14.25C162.82,17.65,177.39,17.24,187.88,18.73ZM144,46.29c-3.64-.66-5.19-4.3-4-7.6A4.82,4.82,0,0,1,145.52,36a5.32,5.32,0,0,1,4.16,4.56C150,44,147.48,46.92,144,46.29Zm15.49-24.5c-.76.87-2.07,2-3.3,1.26s-.38-2,.2-2.68,2.12-1.7,2.94-.74a.22.22,0,0,1,.06.13A1.37,1.37,0,0,1,159.48,21.79Zm18.17-5.87a1.64,1.64,0,0,1,2.22-1.26c.85-.11,1.83.09,2.12.88a1.48,1.48,0,0,1-.15,1.48,2.3,2.3,0,0,1-1.58.53C179.24,17.63,177.58,17.26,177.65,15.92Z" />
				<path class="cls-9" d="M182.85,24.41a13,13,0,0,1,1.62,3.08c.67,2.73-2.81,1.9-4.2,1.18a10.1,10.1,0,0,1-2.77-2.13,14.27,14.27,0,0,0-1.87-2C178,24.49,180.45,24.51,182.85,24.41Z" />
				<path class="cls-6" d="M149.57,60.64c2.56,4.78,8.13,8,13.79,9.16-.29,1.37-.34,2.77-.63,4.14-.26,1.21-.8,2.4-1,3.63-.55,1.07-.44,2.43-.63,3.6-.16,1-.3,2-.45,3-.16-1-.44-2-.65-3a14.84,14.84,0,0,0-1-3.8.53.53,0,0,0,0-.12.42.42,0,0,0-.12-.37c-1.8-1.9-4.4-3.13-6.37-4.91a34.2,34.2,0,0,1-3-3,5,5,0,0,1-1-1.82,9.47,9.47,0,0,0,.92-3.57A16.9,16.9,0,0,0,149.57,60.64Z" />
				<path class="cls-12" d="M179.83,15.26a2,2,0,0,1,1.16.3c.5.38.17.87-.29,1a2.5,2.5,0,0,1-.67.05c-.37,0-1.86-.22-1.26-1A1.89,1.89,0,0,1,179.83,15.26Z" />
				<path class="cls-12" d="M168.67,70.2a.28.28,0,0,0,.07.16c-.17,2.41,0,4.72-.67,7.15a31.83,31.83,0,0,1-2.26,5.25,7.23,7.23,0,0,0-1.16-3.37A5.18,5.18,0,0,0,163,77.7,10.65,10.65,0,0,0,164.34,70,22,22,0,0,0,168.67,70.2Z" />
				<path class="cls-12" d="M157.87,77.41a10.12,10.12,0,0,0-3.26,3.25,7.32,7.32,0,0,0-1.55,3.74c-1.93-2.66-4.18-5.08-5.94-7.88a21.93,21.93,0,0,1-2.76-5.19,6.09,6.09,0,0,1,2.47-6.8c.51-.3,1-.55,1.58-.81,0,.25-.1.51-.16.77V64.4a.33.33,0,0,0-.61-.17c-1.39,2.88.19,4.75,2.16,6.86S154.88,76.35,157.87,77.41Z" />
				<path class="cls-9" d="M150.14,57.21a6.58,6.58,0,0,0,1.75-.84A23,23,0,0,0,165,68.48a20.65,20.65,0,0,1-7.25-2.55C154,63.71,152.15,60.74,150.14,57.21Z" />
				<path class="cls-12" d="M158.21,21.64c-.33.3-1.57,1.11-1.71.28-.1-.61.68-1.36,1.16-1.63a2.26,2.26,0,0,1,.92-.19.18.18,0,0,0,.07,0C159.54,20.53,158.59,21.27,158.21,21.64Z" />
				<path class="cls-7" d="M148.11,39.68a4,4,0,0,0-2-2.16c-1.1-.46-3.74-.53-4.64,1.85a3.9,3.9,0,0,0,3.49,5.47C147.55,44.9,148.84,41.92,148.11,39.68Zm-3.8,2.87A1.83,1.83,0,0,1,143,40a1.62,1.62,0,0,1,1.84-.9,1.8,1.8,0,0,1,1.4,1.53A1.66,1.66,0,0,1,144.31,42.55Z" />
				<path class="cls-3" d="M201.17,216.87a4.21,4.21,0,0,1,1.34-.73l.45.33a8.93,8.93,0,0,0-1.09,1Z" />
				<path class="cls-3" d="M188,229.44l-13.28-.05c-1.18,0-2.36,0-3.55,0-2.05-3.17-1.23-7.55-.05-11.73,2.71,1.59,6.49,1,9.45.61a17.72,17.72,0,0,0,3.35-.72,16.93,16.93,0,0,0,1.48,1.08c-.67.83-1.2,1.78-.91,2.47.55,1.28,1.75-.39,2.13-.93l.39-.56.92.54a2.14,2.14,0,0,0-.3,2.2.35.35,0,0,0,.31.18c.78-.07,1.19-.75,1.53-1.44.35.23.68.47,1,.72a2.69,2.69,0,0,0-.37,1.75.35.35,0,0,0,.44.25,2.2,2.2,0,0,0,1.18-.9c.08.08.16.15.23.23.51.56.87,1.21,1.32,1.79a6.32,6.32,0,0,0-1.16,4.5C190.68,229.41,189.3,229.44,188,229.44Z" />
				<path class="cls-12" d="M161.67,173.6a39.17,39.17,0,0,0,6.67-.77c2.61-.34,5.28-.61,7.86-1.21-.74,3-1.31,6.1-1.87,9.09-1.7,9.17-3.37,18.43-3.41,27.78l-.09.2a.94.94,0,0,0,.33,1.27c.4.18.81.35,1.23.5-1.52,3.29-5.84,15.11-3.62,18.83-2.05,0-4.1-.1-6.16-.12-2-2.5-3.69-4.89-4.42-8a29.81,29.81,0,0,1-.16-9.84,27.49,27.49,0,0,1,2.62-9.94c1.15-2.29,2.4-4.51,3.38-6.88C166.38,188.78,167.83,177.62,161.67,173.6Z" />
				<path class="cls-3" d="M188.68,98.23a4.89,4.89,0,0,1,.11-1.27,11.31,11.31,0,0,0,1.36,2.33C189.71,99.88,189.22,99.53,188.68,98.23Z" />
				<path class="cls-13" d="M119.06,154.22a106.86,106.86,0,0,1,18.1-2.52,15.81,15.81,0,0,0,5,3C134.45,154.41,126.75,154.44,119.06,154.22Z" />
				<path class="cls-5" d="M140.3,144.84l.81-.31c1.87,2,4.41,1.76,7,1.78,4.55,0,9.1.2,13.64.55q7.44.55,14.81,1.74c5.19.83,10.64,1.16,12.33,7,1.21,4.21.37,8.92-.17,13.17q-1,7.66-2.37,15.25c-1.61,8.64-4.54,17.14-5.8,25.83a27.17,27.17,0,0,1-8-1.36,196.38,196.38,0,0,1,6.1-37.57.51.51,0,0,0,.19-.69c1.23-4.5,2.66-8.94,4.29-13.27.44-.11.41-.7.1-.92-2.95-2.1-7.34-1.22-10.75-1.11q-7,.24-13.92,0c-8.78-.34-18.72-.15-23-8.94C137,146.26,138.71,145.5,140.3,144.84Z" />
				<path class="cls-14" d="M145.19,155.62a37.29,37.29,0,0,0,5.55,1c3.32.35,6.66.53,10,.62,1.15,2,1.43,6.16,1.34,7.29a12.6,12.6,0,0,1-3.13,7.32c0,.06-.08.12-.12.17-8.64-.46-17.36.07-26,.11-8.83,0-17.69-.44-26.51-.27-2.34-2.3-4.54-4.57-3.61-8.33,1.1-4.4,6.28-6.16,10.07-7.46.32-.11.65-.2,1-.3C123.44,156.13,135.65,156.6,145.19,155.62Z" />
				<path class="cls-2" d="M88,101.54c-8.88-.06-17.79.08-26.65.69,0-2,0-3.92.1-5.88,8.82-.13,17.64-.69,26.47-.81,8.27-.11,16.63.24,24.9-.18q-.49,3.56-.76,7.17C104.21,101.33,95.92,101.59,88,101.54Z" />
				<path class="cls-7" d="M246.82,100.56a11,11,0,0,1-1.66,3.81,6.52,6.52,0,0,1-4.24-2.86c-1.5-2.44-1.1-5.82,1.38-7.2,1,.06,2,0,3.06.06A7.66,7.66,0,0,1,246.82,100.56Z" />
				<path class="cls-2" d="M59.29,133.8c.17,12.23-.06,24.59.83,36.79v0a22.5,22.5,0,0,1-4-.67c-.17-12.32-.29-24.64-.28-37,0-11.94.47-23.91.18-35.85,1.45-.25,2.92-.4,4.38-.65C59,108.89,59.12,121.34,59.29,133.8Z" />
				<path class="cls-3" d="M55.07,169.64a16.15,16.15,0,0,1-11.34-12.22c-1.66-7.8-1.26-16.5-1.28-24.44,0-8.48,0-17.63,2-25.91a12.62,12.62,0,0,1,7.84-8.95,17.54,17.54,0,0,1,2.78-.8c-.71,11.85-.48,23.81-.47,35.67Q54.66,151.32,55.07,169.64Z" />
				<path class="cls-7" d="M247.85,100.63a7.64,7.64,0,0,0-1.63-6.22,9.54,9.54,0,0,1,2,.34c1.33.84,2.5,3.91,2.58,5.32a5,5,0,0,1-.65,2.55,5.7,5.7,0,0,0-.58-3.59.26.26,0,0,0-.47.06c-.68,1.9-.58,3.77-1.55,5.46a9.91,9.91,0,0,1-1.09,0A7.34,7.34,0,0,0,247.85,100.63Z" />
				<path class="cls-5" d="M250.13,112.68c.8,1.55-.15,2.29-1.43,2.68a7.14,7.14,0,0,0-.87-3.7l.45,0A1.62,1.62,0,0,1,250.13,112.68Z" />
				<path class="cls-9" d="M168.05,157.28c2.82,0,5.64-.18,8.46-.23.26,0,.51,0,.77,0a9.28,9.28,0,0,1,1.26,3c.25,1.37-.36,2.77,0,4.06a55.69,55.69,0,0,0-1.9,5.91c-3,.13-6.09.68-9.11,1-1.85.22-3.81.21-5.63.61a13.42,13.42,0,0,0,2.29-7.7,13.64,13.64,0,0,0-1.91-6.7C164.18,157.28,166.12,157.29,168.05,157.28Z" />
				<path class="cls-7" d="M251.6,99.3A14.58,14.58,0,0,0,250,95.77l-.18-.32,0,0a5.39,5.39,0,0,1,2.52,5.4,4,4,0,0,1-1.45,2.5A5.91,5.91,0,0,0,251.6,99.3Z" />
				<path class="cls-5" d="M178.6,119a4.46,4.46,0,0,1-.69,4.56.59.59,0,0,0-.09.2l-2.34.19-1.09.07a5.41,5.41,0,0,0-.27-4.71A38.88,38.88,0,0,0,178.6,119Z" />
				<path class="cls-3" d="M191.32,220.47c-.35-.28-.72-.53-1.09-.78a5.86,5.86,0,0,1,2.36-1.92l1.49.66a5.28,5.28,0,0,0-2,1.2A11.13,11.13,0,0,0,191.32,220.47Z" />
				<path class="cls-3" d="M188.83,218.8l-.86-.5a9.67,9.67,0,0,1,1.95-1.72l1,.45a5.41,5.41,0,0,0-1.51,1.16C189.22,218.35,189,218.56,188.83,218.8Z" />
				<path class="cls-3" d="M183.2,215.71a.38.38,0,0,0-.37,0c-.57-1.54-1.49-3.25.36-4,.69,0,1.38-.06,2.07-.12a3.21,3.21,0,0,1,1.42,1.22c.33.46.64.94,1,1.4a24.38,24.38,0,0,1-4.21,1.65Z" />
				<path class="cls-3" d="M131.1,125.55c-1-6.73-1.37-13.44-1.78-20.21h.18c2.36,7.12,9,13.73,16,15,5.11.91,10.67.42,15.76-.41,3.13-.5,6.08-1.42,9.14-2.21,1.76-.46,3.7-1.06,5.53-.63a5.15,5.15,0,0,1,1,.33,17.17,17.17,0,0,0-3.78.42c-1.25-1-3.25.62-3.69,1.9-.61,1.81-.32,4.32,1.39,5.44a2.35,2.35,0,0,0,2.23.39,17.62,17.62,0,0,0,4.69-.11c0,2.07.06,4.15.11,6.22a21.32,21.32,0,0,0,.2,3.57c-7-.36-14.71,1.13-21.42,2.43a98.21,98.21,0,0,0-11.72,3c-3.52,1.15-6.56,2.75-10.2,3C134.3,137.64,132,131.45,131.1,125.55Z" />
				<path class="cls-15" d="M171.47,216.27c.6-2,1.23-3.93,1.59-5.6a27.07,27.07,0,0,0,7.77,1.06,4,4,0,0,0-.19,2,8,8,0,0,0,.69,2.58A23.57,23.57,0,0,1,171.47,216.27Z" />
				<path class="cls-5" d="M187.81,181.51c.83-4.69,1.59-9.4,2.21-14.13.53-4,1.16-8.15.11-12.12-2.08-7.92-10.86-7.73-17.67-8.66q-7.85-1.08-15.74-1.47c-2.64-.13-5.27-.19-7.91-.19-2.23,0-4.59.25-6.56-.85a84.28,84.28,0,0,1,11-3.37c4.37-1,8.8-1.82,13.24-2.5l.8-.11a65.3,65.3,0,0,1,20.59,3.75c4.25,1.6,9.31,3.64,10.82,8.3,1.11,3.39.74,7.42.73,10.94a191.26,191.26,0,0,1-6.77,48.28,1.37,1.37,0,0,0,0,.28h0c-3.7,0-7.73.33-11.66.22C184.76,201.08,186.14,190.85,187.81,181.51Z" />
				<path class="cls-3" d="M186.4,217.44l-1-.54a8.88,8.88,0,0,0,2.28-1.49c.27.15.55.31.83.45a7.12,7.12,0,0,0-1.67,1.19C186.7,217.15,186.56,217.29,186.4,217.44Z" />
				<path class="cls-15" d="M191.48,215.54c0-.23-.08-.46-.37-.43s-.6.09-.89.15l-1.36-.53a10.74,10.74,0,0,0-1.76-3.34c1.77-.19,3.48-.44,5.08-.7a8.33,8.33,0,0,0,1.13.19,3.42,3.42,0,0,0-.11.93,4.73,4.73,0,0,0,.9,2.78A11,11,0,0,1,191.48,215.54Z" />
				<path class="cls-3" d="M199.14,213.09a8.29,8.29,0,0,0-1.22.79,5.27,5.27,0,0,0-.9.86c-.2-.06-.4-.1-.59-.14a10.83,10.83,0,0,1,2.58-1.68Z" />
				<path class="cls-3" d="M202,221.71a16.16,16.16,0,0,0-2.5-1.83c-1.66-1-3.45-2-5.29-2.87a.37.37,0,0,0-.33-.42,4.62,4.62,0,0,0-.73-.07l-.11-.05A6.39,6.39,0,0,0,195.9,215c.22.16.43.32.66.46a3,3,0,0,0-.27,1.32.33.33,0,0,0,.61.17,5.24,5.24,0,0,1,.66-.87c.57.33,1.13.67,1.67,1a5.57,5.57,0,0,0-.31.87c-.06.24.23.51.45.35l.72-.57c.31.25.61.51.91.77a4,4,0,0,0-.44,1,.26.26,0,0,0,.31.32,4.79,4.79,0,0,0,1-.51c.41.37.83.73,1.27,1.07A3.91,3.91,0,0,0,202,221.71Z" />
				<path class="cls-11" d="M181.27,38.17a2.14,2.14,0,0,1,2.46-.38,1.94,1.94,0,0,0-.86,1,4.35,4.35,0,0,0-.16,2.74,3.15,3.15,0,0,0,1.06,1.8c-1.46.56-3.05-.6-3.39-2.31A3,3,0,0,1,181.27,38.17Z" />
				<path class="cls-3" d="M195.16,214a5.4,5.4,0,0,1-.83-3,32.34,32.34,0,0,0,3.69-.06,3.56,3.56,0,0,0,.46,1.23,7.29,7.29,0,0,0-2.9,1.51Q195.37,213.82,195.16,214Z" />
				<path class="cls-3" d="M200.35,214.35c.16.15.32.29.47.41l.25.22-.48.36a5.3,5.3,0,0,0-.67.67c-.46-.27-.93-.52-1.4-.74a9.47,9.47,0,0,1,1.12-.67A6.28,6.28,0,0,1,200.35,214.35Z" />
				<path class="cls-7" d="M170.47,101a10.08,10.08,0,0,1-2.69.58,8.72,8.72,0,0,0,.54-1.54c.56.27,1.16.51,1.74.78Z" />
				<path class="cls-12" d="M243.61,215.55a6.31,6.31,0,0,0-.58.44l-.12-.26Z" />
				<path class="cls-16" d="M240.43,213.47c.68,2.35,1.74,4.61,2.59,6.89s1.68,4.91,2.62,7.32l-3.58.92-.2.05-.37.09a3.47,3.47,0,0,0-.74.13,18.41,18.41,0,0,0-2-4.48c-.91-1.87-1.8-3.74-2.84-5.54a35.09,35.09,0,0,1,2.41-3.19C239,214.9,239.71,214.18,240.43,213.47Z" />
				<path class="cls-7" d="M108.43,238.53c-1.44-.32-2.83-.44-4.07-1.58a5.93,5.93,0,0,1-1.73-5.5l12.83,0c3.94,0,8.06.3,12-.27a14.56,14.56,0,0,0,3.35,5.54.66.66,0,0,0,.7.07c13.44,1,27,.77,40.47.81,4.2,0,8.42.06,12.64.08a3.38,3.38,0,0,1-.38.51,7.46,7.46,0,0,1-1.08.79c-12.81-.77-25.78-.35-38.61-.4l-20-.09C119.4,238.42,113.6,237.65,108.43,238.53Z" />
				<path class="cls-17" d="M240.12,244A18.53,18.53,0,0,1,236,221.77c.39.83.79,1.66,1.19,2.49.27.55.53,1.16.79,1.77,0,0,0,0,0,0a24.73,24.73,0,0,0,.41,7.13.59.59,0,0,0,.14.31,6.87,6.87,0,0,0,.56,1.86.75.75,0,0,0,0,.53,20,20,0,0,0,14.05,12.17A16.83,16.83,0,0,1,240.12,244Z" />
				<path class="cls-12" d="M215.34,225.06c-1.13,3.42-2.23,6.5-2.38,10.1,1.26-.17,2.55,0,3.82-.09a14.73,14.73,0,0,0,4.31-1.16c-.13-.81-.24-1.62-.32-2.44a.86.86,0,0,1,0-.17c-3.52-6.12-2.82-15.17-1.18-21.61,1.88-7.36,5.48-13.87,12-18,.59-.37,1.19-.71,1.79-1a9,9,0,0,1,1.5-1.44c-2.83-8.65-5.62-17.18-9.11-25.62a218.3,218.3,0,0,0-12.62-24.88c-2.2.49-4.34,1.16-6.51,1.79h0c8,14.36,11.92,32.12,12.81,48.41a106.42,106.42,0,0,1-1.42,24A85.22,85.22,0,0,1,215.34,225.06ZM219.62,167a.44.44,0,0,1,.42-.26c1.05-1.18,3-.41,4,.88,2.28,3,5.06,9.67,3.57,13.38-1.27,3.16-4.22,1.83-5.55-.36C219.75,176.77,217.56,171.29,219.62,167Z" />
				<path class="cls-3" d="M220.63,167c1.48-1.45,3.34,2.29,3.66,3a22.82,22.82,0,0,1,1.3,4,15.52,15.52,0,0,1,.69,4.13c-.14,1.38-1,3.31-2.43,2.12s-2.36-4.57-2.8-6.16a18.66,18.66,0,0,1-.4-6.94A.39.39,0,0,0,220.63,167Z" />
				<path class="cls-5" d="M230.16,229.73c1.51-1.92,2.21-4.25,3.24-6.43a32.77,32.77,0,0,1,1.83-3.34l.15.34a.7.7,0,0,0-.3.27c-4.81,8.1-2.52,19.38,4.76,25.29,6.69,5.43,16.51,5.54,22.91-.4,13.75-12.75-3.25-40-20.2-30.43a26.29,26.29,0,0,0-1.32-2.34,39.49,39.49,0,0,1,11.06-7.25,28.77,28.77,0,0,1,4-1.39.31.31,0,0,0,.1,0c6,2.13,10.72,4.72,14.57,9.94a36.29,36.29,0,0,1,6.2,13.52c2.34,10.33-.53,21.28-9.22,27.76s-20.13,6.77-29.47,1.75c-8.93-4.8-14.51-13.78-16-23.62C224.85,235.38,228.59,231.72,230.16,229.73Z" />
				<path class="cls-7" d="M88.66,174.89a3.15,3.15,0,0,1-1.5-.77c1.33,0,2.67,0,4,0A2.64,2.64,0,0,1,88.66,174.89Z" />
				<path class="cls-7" d="M241.11,230.07l1.3-.2a3.17,3.17,0,0,1,2.88,1.68c1.07,1.67,1.22,4.14-.87,5s-4-.64-4.54-2.75a3.82,3.82,0,0,1-.12-.66.72.72,0,0,0,0-.33l0-.18a3.64,3.64,0,0,1,1.15-2.52Z" />
				<path class="cls-16" d="M257.7,220.53a25.19,25.19,0,0,0,.95,3.78,37.67,37.67,0,0,0-4.17,1.11,41.73,41.73,0,0,0-2.32-6.45,39,39,0,0,0-1.44-3.9,16.54,16.54,0,0,1,6,1.86C256.94,218.15,257.37,219.34,257.7,220.53Z" />
				<path class="cls-3" d="M79.75,198.73a4,4,0,0,0-1.06.29,3.85,3.85,0,0,0-1.33,1,12.43,12.43,0,0,1-.74-6.49c.56-3.49,2.75-8.11,7-6.2C81.31,190.92,79.53,195,79.75,198.73Z" />
				<path class="cls-3" d="M80.83,200c3.73.44,7.57.12,11.22.88h0c1.57.52,1.78,2.43,1.06,3.8-1.72,1-5.14.51-7,.49-2,0-4.09-.09-6.13-.26a2.16,2.16,0,0,1-1.36-3.23C79.18,200.75,80.05,200.46,80.83,200Z" />
				<path class="cls-12" d="M88.25,207.35c2,0,4.54.25,6.22-1l0,0a1.22,1.22,0,0,0,.34-.34,6.18,6.18,0,0,0,.6-4.46,3.83,3.83,0,0,0-2.56-2.54l0,0-.19-.07a1.23,1.23,0,0,0-.36-.06,21.91,21.91,0,0,0-3.57-.4c5.72-5.49,11.2-10.21,19.12-12.45a31.45,31.45,0,0,1,22.6,1.91,30.33,30.33,0,0,1,15.15,16.21c3.1,8.37,1.56,17,1.89,25.7a.48.48,0,0,0,.28.42.35.35,0,0,0,.24.44c8.72,1.36,17.85.66,26.66.67l14,0c4.07,0,8.4.36,12.39-.54a1,1,0,0,0,1.36,0c5.2-4.71,6.7-13.37,7.8-20a95.78,95.78,0,0,0,.89-22.57,129.39,129.39,0,0,0-4-23.12c-2.18-8.26-5.23-16.35-1.16-24.42,5.52,16.55,11.29,32.57,11.92,50.24a107.81,107.81,0,0,1-2.23,25.4c-1.31,6.46-4.37,12.93-4.07,19.59,0,0,0,0,0,.06-13.14-1.11-26.48-.81-39.65-.83-13.41,0-26.92-.28-40.3.61-1.33-8.73-8.31-17-15.32-21.85-8.47-5.83-20.67-8.68-30.5-4.74l0,0a8.05,8.05,0,0,1-2.09-1.58c-.08-.09-.14-.19-.22-.28C85.1,207.41,86.68,207.4,88.25,207.35Z" />
				<path class="cls-12" d="M106,173.71c9.1.8,18.45.58,27.58.52,8.39,0,16.91,0,25.24-1.14a1.3,1.3,0,0,0,.74.68c4.15,4.76,5.48,9.79,3.49,16.24-1.69,5.47-5.52,10.14-6.65,15.79-1.31,6.51-2.13,18.85,4.32,23.35a84.77,84.77,0,0,0-12.27.72c2.43-9,2.82-19.61-1-28.29a33.24,33.24,0,0,0-16.59-16.48,34.82,34.82,0,0,0-24.28-1.68c-7.7,2.24-16.11,7.32-20.22,14.42a1,1,0,0,0-.14.55c-1.61.07-3.22.24-4.78.46,1-2.31,1.36-4.86,2.38-7.18a29.74,29.74,0,0,1,5.4-8.33C93.87,178.29,99.6,175.85,106,173.71Z" />
				<path class="cls-7" d="M89.63,176.23a4.52,4.52,0,0,0,.75-.1,18.75,18.75,0,0,0,1.06,1.57c.17.21.34.51.56.74l-.42.32a7.18,7.18,0,0,0-.64-1.11A6.1,6.1,0,0,0,89.63,176.23Z" />
				<path class="cls-5" d="M90.46,231.43c.83,8.11,6.09,15.45,14.16,17.61a16.83,16.83,0,0,0,19.47-8.71l1.19,0h9.9a26.09,26.09,0,0,1-31.24,19.25,29.75,29.75,0,0,1-23.23-28c2.37,0,4.76-.15,7-.14Z" />
				<path class="cls-5" d="M89.37,209.76c7.48-.22,14.57.47,21.25,3.7-5.78-1.4-12.21-.86-14.83,4.33H94.62c-4,0-8.05,0-12.07-.1.88-1.13,1.5-2.56,2.34-3.65A23.31,23.31,0,0,1,89.37,209.76Z" />
				<path class="cls-17" d="M105.08,247.41c-7.43-1.82-12.42-8.58-13.18-16H96a19.53,19.53,0,0,0,15.1,16.27A16.11,16.11,0,0,1,105.08,247.41Z" />
				<path class="cls-17" d="M136.92,240.32h5.41c-3.57,11.67-13.4,18.88-24.58,20.48A27.63,27.63,0,0,0,136.92,240.32Z" />
				<path class="cls-18" d="M94.62,219.44c8.09,0,16.31.34,24.39-.28a36.17,36.17,0,0,1,6.53,7.9,23.92,23.92,0,0,1,1.48,3.05c-3.79-.5-7.77-.22-11.55-.25l-13.87-.11c-4.62,0-9.24,0-13.86,0-3.82,0-8-.48-11.81.12h0a10.44,10.44,0,0,1-2.71-2,6.43,6.43,0,0,1-1.3-3.21,8,8,0,0,1,1.2-5.54c3,1.05,6.66.39,9.77.35C86.8,219.44,90.71,219.45,94.62,219.44Z" />
				<path class="cls-7" d="M246.76,229a84.37,84.37,0,0,0,8.45-2.47c2.9-.81,6.41-2,7.69,1.73,1,2.88-.79,3.64-3,4.46q-2.4.89-4.86,1.62c-2.7.59-5.39,1.15-8.07,1.79a5.45,5.45,0,0,0-.3-5.08,5.71,5.71,0,0,0-1.43-1.71c.49-.1,1-.22,1.47-.33Z" />
				<path class="cls-7" d="M161.3,90.86l1.2-.08a23.82,23.82,0,0,1,1,5,14.32,14.32,0,0,1-1.06,5.3l-.78-.19a5.4,5.4,0,0,1-4.38-4.48C156.91,93.9,159.21,92,161.3,90.86Z" />
				<path class="cls-7" d="M166.33,90.71A36.88,36.88,0,0,1,167.71,97,17.55,17.55,0,0,1,166,95.72a.71.71,0,0,0-1.18.68,4.75,4.75,0,0,0,2.79,3.28,6.5,6.5,0,0,1-.75,1.94,18.6,18.6,0,0,1-3.59-.37c1.29-3.06,1.67-7.54,0-10.52A25,25,0,0,1,166.33,90.71Z" />
				<path class="cls-3" d="M193.52,89.11c-3.11,2-6.43,5.37-6.16,9.12l0,.28a52.72,52.72,0,0,0-7.68-8.37c.06-2.44.11-4.89.12-7.33,0-.37-.58-.47-.65-.09-.45,2.22-.78,4.48-1,6.77a.37.37,0,0,0,0,.34c-.42,3.94-.58,8-.63,11.94l-1.1-.49-2-.86c2.1-2.35,2.83-5.75.29-8.38s-9-4.21-12.86-2.54a4.22,4.22,0,0,0-3.55,1.16c-4.73-.67-10-.28-14.78,0a.35.35,0,0,0-.33.44.17.17,0,0,0-.09.13,16.44,16.44,0,0,0-.16,4.95.4.4,0,0,0,.1.15.17.17,0,0,0,0,.3c2.13.64,4.51.36,6.72.36a36.56,36.56,0,0,0,5.73-.11,5.2,5.2,0,0,0,.33,2.08c1.94,4.88,10.95,5.35,15.1,3.87a8.46,8.46,0,0,0,1.65-.82l4.86,2.16c0,1.78,0,3.55,0,5.3-7.24-1-14.37-.15-21.62,0-4.14.07-9-.29-12.15-3.37-2.56-2.51-3.45-6-4.21-9.34.51-.13,1-.28,1.54-.43a.52.52,0,0,0,.67-.46c.31-2.53-1.1-5.34-1.55-7.86-.52-2.92-.48-5.92-1.11-8.81a.29.29,0,0,0-.56,0c-.88,2.79-.59,5.87-.2,8.73.32,2.4.54,5.59,2,7.64-4.31,0-10.45,1.19-12.62,5.08l-.06.13c-.56-2-.88-4.24-1.24-6.17a34.3,34.3,0,0,1-.56-11.29c.63-4.41,2.22-8,6.18-10.35,3.23-1.91,6.92-2.73,10.49-3.76.48,6,7.11,13.93,10.91,16.48a.2.2,0,0,0,.29-.2,3.2,3.2,0,0,0,.79-1.58,11.88,11.88,0,0,1,1.22-2.51,29.25,29.25,0,0,1,2.63-2.92,26.21,26.21,0,0,0,.55,2.72,20.46,20.46,0,0,0,1.14,4.61c.18.37.71.17.72-.19a.57.57,0,0,0,0-.13,16.93,16.93,0,0,0,1.45-4.23,14,14,0,0,0,.31-2.34,6.58,6.58,0,0,1,1,1.38,13.88,13.88,0,0,1,.91,3.64.65.65,0,0,0,.47.48.63.63,0,0,0,.36,0,1,1,0,0,0,.21-.11l0,0c3.22-2.81,5.21-9.2,4.36-13.64,3.36.35,6.73.53,9.76,2.21a20.45,20.45,0,0,1,5.7,5.15c3,3.59,5.8,7.31,9.08,10.61l-.34.2A.38.38,0,0,0,193.52,89.11Z" />
				<path class="cls-12" d="M143.52,91.31c4.56.19,9.63.51,14.23-.09a9.3,9.3,0,0,0-2.17,4.84,36,36,0,0,0-5.78-.14,27.58,27.58,0,0,0-6.23.21h0a16.06,16.06,0,0,0-.12-4.84Z" />
				<path class="cls-12" d="M215,113.11c-4.8,6.39-4.26,16.78,2.13,22a11.61,11.61,0,0,0,2.77,1.67,29.16,29.16,0,0,0-10.37,1.34c-2.85-2.9-5.36-5.55-6.24-9.76a16.28,16.28,0,0,1,3.39-13.31c4.38-5.5,11.09-8.32,17.93-9.43l.23,0A24,24,0,0,0,215,113.11Z" />
				<path class="cls-6" d="M198.85,104.74a31.09,31.09,0,0,1-6.11-5.22,33.56,33.56,0,0,0-3.45-3.94,14.12,14.12,0,0,1,1.76-2.6,23.84,23.84,0,0,1,3.07-3,44.45,44.45,0,0,0,14.43,11.18A49.18,49.18,0,0,0,221,105a28.71,28.71,0,0,0-10.55,4.33C206.57,107.77,202.56,107.14,198.85,104.74Z" />
				<path class="cls-7" d="M172.62,92.55c2.8,2.13,2.22,5.21.07,7.12a39.71,39.71,0,0,1-4.07-2A12.76,12.76,0,0,0,167,90.76a14.61,14.61,0,0,1,2.45.47A9.47,9.47,0,0,1,172.62,92.55Z" />
				<path class="cls-3" d="M61.79,170.54a20.64,20.64,0,0,1,5.82.25c.63-2.94,5.14-2.07,8.89-2,8.4.2,16.82.32,25.21.79a10,10,0,0,1-.85-2.48,8.81,8.81,0,0,1,3.42-8.68,22.75,22.75,0,0,1,6.64-3.5,1.19,1.19,0,0,1-.2-.68c-.15-10.11.07-20.28.46-30.38.26-6.8.34-13.73.84-20.57-8.2.36-16.55-.45-24.76-.44-8.65,0-17.28.33-25.92.64-.13,10.1-.06,20.2.11,30.3C61.66,146,62.29,158.33,61.79,170.54Zm28.78-31.27c-3-2.34-6.62-4.84-8.7-8a0,0,0,0,1,0,0,.23.23,0,0,1,0-.3c2.11-3.19,5.75-5.68,8.75-8,3.29-2.55,6.92-5.7,10.86-7.12a.17.17,0,0,1,.17,0,.29.29,0,0,1,.33.24c.1,1.08.16,2.16.2,3.24,0,.81.25,1.78-.32,2.42a.15.15,0,0,1-.12,0c-2,1.58-3.94,3.23-5.85,4.93a31.14,31.14,0,0,1-5.49,4.41,31.47,31.47,0,0,1,5.53,4.42c1.91,1.68,3.83,3.32,5.82,4.9a.18.18,0,0,1,.12.05c.57.65.34,1.61.31,2.43-.05,1.08-.11,2.16-.22,3.24a.3.3,0,0,1-.33.24.16.16,0,0,1-.16,0C97.46,145,93.85,141.84,90.57,139.27Zm-23.11-8.84c2.1-3.19,5.75-5.67,8.74-8,3.29-2.55,6.93-5.7,10.87-7.11a.15.15,0,0,1,.17,0,.27.27,0,0,1,.32.24c.1,1.08.16,2.16.2,3.24,0,.81.26,1.78-.31,2.42a.16.16,0,0,1-.12,0c-2,1.58-3.94,3.23-5.86,4.93A30.43,30.43,0,0,1,76,130.65a31.54,31.54,0,0,1,5.54,4.42c1.9,1.69,3.83,3.32,5.81,4.91a.13.13,0,0,1,.12,0c.57.65.35,1.62.31,2.43q-.06,1.62-.21,3.24a.31.31,0,0,1-.33.24.17.17,0,0,1-.17,0c-3.94-1.44-7.55-4.6-10.83-7.17-3-2.34-6.62-4.84-8.71-8v0A.22.22,0,0,1,67.46,130.43Z" />
				<path class="cls-17" d="M278.92,227.71a37.52,37.52,0,0,0-7.37-15.66c-3.5-4.39-7.47-6.77-12.36-8.69,3.85-.76,7.82-1,11.74-1.39a1.17,1.17,0,0,0,.49.19l0,0c12.23,9.86,18.51,28.54,11.26,43.21-4.56,9.23-13.41,14.55-23,15.81a27.81,27.81,0,0,0,9.24-4.53C278,249.9,281.17,238.56,278.92,227.71Z" />
				<path class="cls-12" d="M87,115.89a21.77,21.77,0,0,0-.27,2.79,4.55,4.55,0,0,0,.23,2.26,45,45,0,0,0-5.61,4c-2.12,1.69-4.7,3.33-6.46,5.36a.4.4,0,0,0,0,.57.54.54,0,0,0,.1.18c1.76,2,4.31,3.66,6.41,5.33a46.06,46.06,0,0,0,5.56,4,4.5,4.5,0,0,0-.24,2.25,21.74,21.74,0,0,0,.25,2.79c-3-2.81-6.88-4.86-10.11-7.43-2.93-2.35-5.59-5.39-8.76-7.38,3.15-2,5.82-5,8.75-7.3C80.09,120.72,84,118.69,87,115.89Z" />
				<path class="cls-6" d="M170.5,68.46c3.18-.66,6-1.06,8.95-2.94a16.55,16.55,0,0,0,7.46-10.21c2-8.51.7-17.56,1-26.19-.33-.15-.65-.3-.91-.45a10.6,10.6,0,0,1-1.28-.82c.26,1.47-.23,2.76-2.18,3s-4.76-1-6.61-2.7a2.28,2.28,0,0,1-2.1,2.79c-2.39.48-5.69-.93-7.67-3a2.69,2.69,0,0,1-1.86,2.69c-1.47.39-3.93-.1-4.95-1.47-1.7,2.23-2.17,5.06-2.48,8-.48,4.6-.8,14-4.86,18.26,2.24,2.57,3.84,5.62,6.48,7.91A21.6,21.6,0,0,0,170.5,68.46Zm1.08-33.74a2.75,2.75,0,0,0-3-.54,3.47,3.47,0,0,0-2,1.6.73.73,0,0,1-1.31-.52c.37-2.93,5.76-3.7,7.08-1.15C172.64,34.6,172,35.16,171.58,34.72Zm.75,9.08c-1.92,2.29-5,1.35-6-1.19-.45-1.17-.58-3.74,1.15-4.93a3.45,3.45,0,0,1,4.9.72A4.33,4.33,0,0,1,172.33,43.8Zm5.91-1.2c.6,2.09,2.78,4.72,2.66,7-.19,3.44-5.84,2.9-8.07,2.22a.42.42,0,0,1,0-.81,7.35,7.35,0,0,1,2-.29c1.45-.11,3.83-.59,4.27-2.44.19-.81-1.83-4.28-2.09-5.35a24.14,24.14,0,0,1,.27-10.66.36.36,0,0,1,.71.1C177.87,35.8,177.27,39.23,178.24,42.6Zm8.12-7.23a.27.27,0,0,1-.4.16c-.93-.57-1.56-1.65-2.75-1.7a4,4,0,0,0-3,1.24c-.26.31-.78,0-.67-.39a3.67,3.67,0,0,1,3.86-2.44C184.72,32.35,186.75,33.9,186.36,35.37Zm-6.57,6.73c-.44-1.16-.57-3.74,1.16-4.93a3.44,3.44,0,0,1,4.89.72,4.33,4.33,0,0,1,0,5.4C183.88,45.58,180.76,44.65,179.79,42.1ZM166.26,55.55c-.28-.19-.22-.77.2-.72,2.5.31,4.77,1.4,7.33,1.6a16.64,16.64,0,0,0,7.3-1c.35-.14.58.43.25.61C176.93,58.37,170.49,58.4,166.26,55.55Z" />
				<path class="cls-12" d="M91.21,123.75c3.24-2.56,7.13-4.59,10.14-7.39a21.77,21.77,0,0,0-.27,2.79,4.44,4.44,0,0,0,.24,2.26,45.1,45.1,0,0,0-5.62,4c-2.12,1.69-4.7,3.33-6.46,5.36a.39.39,0,0,0,0,.57.38.38,0,0,0,.09.18c1.76,2,4.31,3.66,6.42,5.33a46,46,0,0,0,5.55,4,4.62,4.62,0,0,0-.24,2.25,21.76,21.76,0,0,0,.26,2.79c-3-2.81-6.89-4.86-10.11-7.43-2.94-2.35-5.59-5.4-8.77-7.38C85.62,129.08,88.29,126.06,91.21,123.75Z" />
				<path class="cls-7" d="M70.57,170.22c1.16-.42,3.19,0,4.44,0,3,0,5.93,0,8.9,0,6,0,12.1.11,18.15,0a7.28,7.28,0,0,0,2.59,2.69c-11.28-.56-24.37-.48-35.51-.56A2,2,0,0,1,70.57,170.22Z" />
				<path class="cls-7" d="M81.77,180.71c1.4,1.17,2.84,2.3,4.27,3.45l-.71.88a37.68,37.68,0,0,0-4-4,24.88,24.88,0,0,0-3.5-3.27,3.8,3.8,0,0,0,.47-.18A25,25,0,0,0,81.77,180.71Z" />
				<path class="cls-6" d="M242.77,116.51a16.44,16.44,0,0,0-1.12-3.13,10.88,10.88,0,0,1,2-2.8,6,6,0,0,1,2.15.92c1.26,1.07,2.31,4.56.73,5.91.32-1.69.05-4.28-1.34-5-.17-.1-.44.06-.36.27a9.78,9.78,0,0,1,.66,3.67,2.77,2.77,0,0,1-1,2.4,2.57,2.57,0,0,1-1.16.35,5.34,5.34,0,0,0,.2-.86,9.7,9.7,0,0,0-.65-4.79.27.27,0,0,0-.52.14A14.57,14.57,0,0,1,242.77,116.51Z" />
				<path class="cls-15" d="M222.57,118.71c.83-4.57,3.36-8.58,7.75-8.74,10.27-.38,9.12,20.59-.77,20.35C223.66,130.18,221.71,123.52,222.57,118.71Z" />
				<path class="cls-3" d="M247.6,171.12c-2.27-3-4.11-7.11-4.07-10.86Q245.72,165.63,247.6,171.12Z" />
				<path class="cls-19" d="M240,128.12a14.57,14.57,0,0,0,1.92-8,.3.3,0,0,1,0-.16v0a18.47,18.47,0,0,0-5.33-11.66c-7.39-3.14-14.46-1.12-19.73,5.09-5,5.87-5.16,16.74,2,21.2S236.09,134.8,240,128.12Zm-9.81,3.8c-14,.61-11.12-23.4.28-23.45,5.25,0,8.74,5.79,8.73,10.4C239.15,124.2,236.41,131.65,230.14,131.92Z" />
				<path class="cls-7" d="M79.05,175.55a2.54,2.54,0,0,1-2.76,1,3.15,3.15,0,0,1-2.09-2,3.52,3.52,0,0,1-.16-.45l5.44,0A3,3,0,0,1,79.05,175.55Z" />
				<path class="cls-20" d="M238.43,159.28q-2.84-6.56-6.15-12.9c-1.51-2.89-3-6.76-5.86-8.59.36,0,.72-.07,1.07-.12,8.5,1.58,12,12.5,15,20.06-1.47,2.37.08,6.58,1,8.84.84,2.09,2.3,5.68,4.73,6.38,1.17,3.66,2.07,7.47,3.42,11.07a35.5,35.5,0,0,0-4.36.51A192.66,192.66,0,0,0,238.43,159.28Z" />
				<path class="cls-21" d="M238.43,159.28q-2.84-6.56-6.15-12.9c-1.51-2.89-3-6.76-5.86-8.59.36,0,.72-.07,1.07-.12,8.5,1.58,12,12.5,15,20.06-1.47,2.37.08,6.58,1,8.84.84,2.09,2.3,5.68,4.73,6.38,1.17,3.66,2.07,7.47,3.42,11.07a35.5,35.5,0,0,0-4.36.51A192.66,192.66,0,0,0,238.43,159.28Z" />
				<path class="cls-12" d="M225.76,137.83c5.55,6.59,9.05,15.91,12.32,23.81A198.4,198.4,0,0,1,246,184.79a32.48,32.48,0,0,0-9.8,3.54c-1.43-8.82-5.75-17.69-9.15-25.83-3.49-8.37-7.48-16.82-13.25-23.89l.8-.17c2.69-.47,5.39-.4,8.07-.83A15.5,15.5,0,0,0,225.76,137.83Z" />
				<path class="cls-6" d="M238.54,108.89,242,110.1a6.83,6.83,0,0,0-1,2.07A15.86,15.86,0,0,0,238.54,108.89Z" />
				<path class="cls-22" d="M161.67,173.6a39.17,39.17,0,0,0,6.67-.77c2.61-.34,5.28-.61,7.86-1.21-.74,3-1.31,6.1-1.87,9.09-1.7,9.17-3.37,18.43-3.41,27.78l-.09.2a.94.94,0,0,0,.33,1.27c.4.18.81.35,1.23.5-1.52,3.29-5.84,15.11-3.62,18.83-2.05,0-4.1-.1-6.16-.12-2-2.5-3.69-4.89-4.42-8a29.81,29.81,0,0,1-.16-9.84,27.49,27.49,0,0,1,2.62-9.94c1.15-2.29,2.4-4.51,3.38-6.88C166.38,188.78,167.83,177.62,161.67,173.6Z" />
				<path class="cls-12" d="M233.2,193.43c5.87-3.68,13.39-5.47,20.19-3.67,7.18,1.9,12.08,6.79,17.49,11.46-10.15-.3-19.27.82-27.86,6.81a37,37,0,0,0-9.16,9.09c-2.72,3.9-5,15.33-11.18,14.67C218.41,219,221,201.11,233.2,193.43Z" />
				<path class="cls-21" d="M271.55,201C265,191.56,254,186.39,243.23,187.6c1-.32,1.94-.61,2.93-.85l.7-.16a.77.77,0,0,0,.47-.1A34.5,34.5,0,0,1,258.2,186a38.73,38.73,0,0,1,13,3.9c3.59,1.78,6.4,4.23,9.38,6.77-1.74.58-3.49,1.89-5.11,2.66-.79.39-2.49.86-3.63,1.53A1.11,1.11,0,0,0,271.55,201Z" />
				<g class="cls-23">
					<path class="cls-12" d="M264.24,200c-7.32-5.05-17.22-6.64-25.38-2.57a20,20,0,0,0-7.4,6.71c-1.75,2.57-4.73-1-2.6-3.77a22.3,22.3,0,0,1,8.8-7c9.55-4,19.72-.49,27.38,5.58.58.46-.19,1.46-.8,1Z" />
				</g>
				<path class="cls-24" d="M254.63,185.75a35.59,35.59,0,0,1,3.57.2,38.73,38.73,0,0,1,13,3.9c3.59,1.78,6.4,4.23,9.38,6.77a28.13,28.13,0,0,0-4.31,2.25C271.39,192,263.25,187.32,254.63,185.75Z" />
				<path class="cls-24" d="M248.21,173c1.17,3.66,2.07,7.47,3.42,11.07-1.07.06-2.14.18-3.2.34a136.14,136.14,0,0,0-3.67-14.94C245.6,171,246.72,172.52,248.21,173Z" />
				<path class="cls-24" d="M242.5,157.73a5.69,5.69,0,0,0-.52,3.71A87.7,87.7,0,0,0,228.61,138C236.3,140.23,239.65,150.51,242.5,157.73Z" />
				<path class="cls-24" d="M224.41,168a153.42,153.42,0,0,0-14.78-28.39c1.17-.34,2.33-.66,3.52-.92a218.3,218.3,0,0,1,12.62,24.88c3.49,8.44,6.28,17,9.11,25.62a9,9,0,0,0-1.5,1.44c-.6.32-1.2.66-1.79,1l-.9.61A97.44,97.44,0,0,0,228,179C228.25,175.47,226.25,170.67,224.41,168Z" />
				<path class="cls-24" d="M204,119.76c2.66.94,5.25,1.87,7.8,3a17.93,17.93,0,0,0,.32,3.66,66.91,66.91,0,0,0-9.1-2.38A16.35,16.35,0,0,1,204,119.76Z" />
				<path class="cls-24" d="M224.59,105.63l.23,0a24,24,0,0,0-9.84,7.44,11.21,11.21,0,0,0-.73,1.07,49.13,49.13,0,0,0-4.93-1.9C213.53,108.58,219,106.53,224.59,105.63Z" />
				<path class="cls-11" d="M227.72,117.36c.42-2.31,1.7-4.33,3.92-4.41,5.19-.2,4.6,10.41-.39,10.29C228.27,123.16,227.28,119.79,227.72,117.36Z" />
				<g class="cls-23">
					<path class="cls-12" d="M142.73,225.59c.54-10.93-4.18-22.41-13-29A21.72,21.72,0,0,0,117,192a35,35,0,0,0-7.5.77c-2.2.44-3.61,1.48-5.66.37-.62-.34-1.17-1.59-.78-2.18,2.2-3.24,11.17-3.8,15.33-3.5a26.14,26.14,0,0,1,14.43,5.94c9.8,7.71,14.45,20.25,10.92,32.33-.17.55-1.07.47-1-.14Z" />
				</g>
				<path class="cls-24" d="M85.74,201.05c1.88.21,3.81,0,5.65.44h0a1.29,1.29,0,0,1,.53,1.91c-.86.5-2.58.26-3.5.25s-2.06,0-3.09-.13a1.08,1.08,0,0,1-.68-1.62C84.9,201.42,85.34,201.28,85.74,201.05Z" />
				<path class="cls-25" d="M126.78,103.18a7.39,7.39,0,0,0,.74,1,2.48,2.48,0,0,0,.49.6l.27.19a115.44,115.44,0,0,0,1.16,20.18c.79,5.95,3.9,19.36,4.11,19.61a3.91,3.91,0,0,0,.7.66,8.52,8.52,0,0,0,2,5.29,63.79,63.79,0,0,0-16.45,1.79c-2.1.5-4.39,1-6.64,1.7.24-9.85.3-19.73.37-29.59,0-7,.39-14,.36-21Q120.34,103.33,126.78,103.18Z" />
				<path class="cls-16" d="M125,226.29l-52.74-.12a7.83,7.83,0,0,1-.37-1.5,8,8,0,0,1,0-2.49l50.1.12A35.16,35.16,0,0,1,125,226.29Z" />
				<path id="dhoya4" class="cls-26" d="M70.93,216.58s.76-4.26-1.14-5.88a4.85,4.85,0,0,0-4.26-.89s-.11-4.55-3.16-6.09-4.79,1.67-5.14,2.41-1,2.78-1,2.78-1.55-3.52-4.9-3.09-2.66,5.71-2.66,5.71-2.71-.37-3.76,4,1.25,7.41,2.63,7.71S51,221.74,51,221.74s-.47,4.32,2.46,5.87,4.84.16,5.6-1.08a13,13,0,0,0,1.16-2.64s1.37,5.06,4.89,3.68,4-3.15,4-4.84a20.47,20.47,0,0,0-.05-2.78s1.15.44,1.74-1.25S70.93,216.58,70.93,216.58Z" />
				<path class="cls-27" d="M79.75,198.73a4,4,0,0,0-1.06.29,3.85,3.85,0,0,0-1.33,1,12.43,12.43,0,0,1-.74-6.49c.56-3.49,2.75-8.11,7-6.2C81.31,190.92,79.53,195,79.75,198.73Z" />
				<path class="cls-28" d="M149.68,40.58A5.32,5.32,0,0,0,145.52,36,4.82,4.82,0,0,0,140,38.69c-1.21,3.3.34,6.94,4,7.6C147.48,46.92,150,44,149.68,40.58Zm-4.74,4.26a3.9,3.9,0,0,1-3.49-5.47c.9-2.38,3.54-2.31,4.64-1.85a4,4,0,0,1,2,2.16C148.84,41.92,147.55,44.9,144.94,44.84Z" />
				<path class="cls-28" d="M144.31,42.55A1.83,1.83,0,0,1,143,40a1.62,1.62,0,0,1,1.84-.9,1.8,1.8,0,0,1,1.4,1.53A1.66,1.66,0,0,1,144.31,42.55Z" />
				<path class="cls-28" d="M180.26,17.55a2.3,2.3,0,0,0,1.58-.53,1.48,1.48,0,0,0,.15-1.48c-.29-.79-1.27-1-2.12-.88a1.64,1.64,0,0,0-2.22,1.26C177.58,17.26,179.24,17.63,180.26,17.55Zm-1.49-1.9a1.89,1.89,0,0,1,1.06-.39,2,2,0,0,1,1.16.3c.5.38.17.87-.29,1a2.5,2.5,0,0,1-.67.05C179.66,16.61,178.17,16.39,178.77,15.65Z" />
				<path class="cls-28" d="M159.48,21.79a1.37,1.37,0,0,0-.1-2,.22.22,0,0,0-.06-.13c-.82-1-2.32,0-2.94.74s-1.28,2.06-.2,2.68S158.72,22.66,159.48,21.79Zm-.9-1.69a.18.18,0,0,0,.07,0c.89.38-.06,1.12-.44,1.49s-1.57,1.11-1.71.28c-.1-.61.68-1.36,1.16-1.63A2.26,2.26,0,0,1,158.58,20.1Z" />
				<path class="cls-28" d="M180.9,49.61c-.19,3.44-5.84,2.9-8.07,2.22a.42.42,0,0,1,0-.81,7.35,7.35,0,0,1,2-.29c1.45-.11,3.83-.59,4.27-2.44.19-.81-1.83-4.28-2.09-5.35a24.14,24.14,0,0,1,.27-10.66.36.36,0,0,1,.71.1c-.09,3.42-.69,6.85.28,10.22C178.84,44.69,181,47.32,180.9,49.61Z" />
				<path class="cls-28" d="M186,35.53c-.93-.57-1.56-1.65-2.75-1.7a4,4,0,0,0-3,1.24c-.26.31-.78,0-.67-.39a3.67,3.67,0,0,1,3.86-2.44c1.31.11,3.34,1.66,3,3.13A.27.27,0,0,1,186,35.53Z" />
				<path class="cls-28" d="M171.58,34.72a2.75,2.75,0,0,0-3-.54,3.47,3.47,0,0,0-2,1.6.72.72,0,0,1-1.31-.55c.41-2.91,5.77-3.66,7.08-1.12C172.64,34.6,172,35.16,171.58,34.72Z" />
				<path class="cls-28" d="M185.31,43.79a4.37,4.37,0,0,0,.35-6.11,3.43,3.43,0,0,0-4.71-.51c-1.73,1.19-1.6,3.77-1.16,4.93A3.48,3.48,0,0,0,185.31,43.79ZM180.38,41a3,3,0,0,1,.89-2.84,2.14,2.14,0,0,1,2.46-.38,1.94,1.94,0,0,0-.86,1,4.35,4.35,0,0,0-.16,2.74,3.15,3.15,0,0,0,1.06,1.8C182.31,43.88,180.72,42.72,180.38,41Z" />
				<path class="cls-28" d="M171.84,44.29a4.37,4.37,0,0,0,.36-6.11,3.44,3.44,0,0,0-4.72-.5c-1.73,1.19-1.6,3.76-1.15,4.93A3.47,3.47,0,0,0,171.84,44.29Zm-1.58-6a2.08,2.08,0,0,0-.86,1,4.36,4.36,0,0,0-.16,2.74,3.15,3.15,0,0,0,1.06,1.8c-1.46.56-3-.6-3.39-2.31a3,3,0,0,1,.9-2.84A2.14,2.14,0,0,1,170.26,38.29Z" />
				<path class="cls-28" d="M166.26,55.55c-.28-.19-.22-.77.2-.72,2.5.31,4.77,1.4,7.33,1.6a16.64,16.64,0,0,0,7.3-1c.35-.14.58.43.25.61C176.93,58.37,170.49,58.4,166.26,55.55Z" />
				<path class="cls-28" d="M230.14,131.92c6.27-.27,9-7.72,9-13,0-4.61-3.48-10.42-8.73-10.4C219,108.52,216.13,132.53,230.14,131.92Zm-7.57-13.21c.83-4.57,3.36-8.58,7.75-8.74,10.27-.38,9.12,20.59-.77,20.35C223.66,130.18,221.71,123.52,222.57,118.71Z" />
				<path class="cls-28" d="M222.08,180.59c1.33,2.19,4.28,3.52,5.55.36,1.49-3.71-1.29-10.43-3.57-13.38-1-1.29-3-2.06-4-.88a.44.44,0,0,0-.42.26C217.56,171.29,219.75,176.77,222.08,180.59Zm-1.43-13.36a.39.39,0,0,0,0-.19c1.48-1.45,3.34,2.29,3.66,3a22.82,22.82,0,0,1,1.3,4,15.52,15.52,0,0,1,.69,4.13c-.14,1.38-1,3.31-2.43,2.12s-2.36-4.57-2.8-6.16A18.66,18.66,0,0,1,220.65,167.23Z" />
				<path class="cls-28" d="M40.28,133.7c0,5.76.22,11.54.55,17.3.23,4,.68,8.05,2.6,11.61,3.26,6,10.36,10,17.18,8.7a.89.89,0,0,0,.32.08.58.58,0,0,0,.54.37,22.84,22.84,0,0,0,6.06-.19,8.2,8.2,0,0,0,.51,2.57.51.51,0,0,0,1-.06h3.65a3.84,3.84,0,0,0,1,2.3,4.28,4.28,0,0,0,2.58,1.48c.61,1.73,2.7,3,4,4.2a32.13,32.13,0,0,0,4.5,3.66c-.2.27-.4.54-.59.82-3.08-3.25-7.34.2-8.69,3.39-1.15,2.73-2.58,10.21.89,12a4.1,4.1,0,0,0,3.16,5.24h0a.76.76,0,0,0,.27.05c.71.05,1.43.09,2.14.12a7.31,7.31,0,0,0,.88,1.14A4.83,4.83,0,0,0,86.25,210a.22.22,0,0,0,.22-.15l.3,0a14.06,14.06,0,0,0-3.19,2.61c-1.21,1.3-2.82,3.22-2.89,5.15-2.78-.16-5.73-.49-8.23.63,0,0,0,0,0,.05-2.62.82-2.81,5.2-2.33,7.43.39,1.78,2.31,5.26,4.48,5.25a22.9,22.9,0,0,0,4.71.57,31.55,31.55,0,0,0,23.51,29.51.74.74,0,0,0,.46.38c16.93,5.61,35.9-4,40.86-21.12h.44c13.05,0,26.24.52,39.27-.24a.56.56,0,0,0,.5-.35,3.51,3.51,0,0,0,.95-.89,2.58,2.58,0,0,0,.52-1.19c9.05,0,18.11-.05,27.09-.82a.33.33,0,0,0,.28-.17,10.38,10.38,0,0,0,8.14-1.66c1.94,10.15,7.89,19.36,17.37,24.07a30.49,30.49,0,0,0,6.23,2.28.76.76,0,0,0,.49.43c14.51,4.77,31.88-1.59,38.79-15.51,7.4-14.92,1.65-33.92-10.54-44.48.82-.31,1.6-.71,2.1-.92,1.82-.78,4.69-1.71,6-3.27a.68.68,0,0,0,.18-.66.9.9,0,0,0-.17-.3.52.52,0,0,0-.22-.14C277,189.32,267,185.45,259,184.31a36.81,36.81,0,0,0-5.93-.35c-.81-5.09-2.78-10.2-4.47-15q-2.64-7.55-5.9-14.87c-2.1-4.72-5.84-15.32-12.06-17.12a19.33,19.33,0,0,0,10-7.17,16.25,16.25,0,0,0,2.67-9.68c.8.35,1.91-.37,2.57-1.15a2.68,2.68,0,0,0,2.68-2.36c1.81-.39,3.77-1.65,3-3.78a3.81,3.81,0,0,0-1.82-2.24,3.49,3.49,0,0,0-2.52.27,6.59,6.59,0,0,0-2.43-1.28,42.5,42.5,0,0,0,3.91-3.92c4.11-.76,6.25-4.49,4.35-8.49-1.6-3.37-5.89-4.32-9.47-3.86a.31.31,0,0,0-.26-.2c-4-.6-5.19,4.68-4.16,7.64a8,8,0,0,0,7.46,5.06c-.93.93-2,1.69-3,2.59-.22.21-.43.41-.63.62l-.36-.11c-2.05-.69-4.08-1.42-6.14-2.08a9.29,9.29,0,0,0-6.53-2.24.32.32,0,0,0-.21-.1,30.12,30.12,0,0,0-4.56,0c-5.48-1-10.84-2-15.93-4.38-5.59-2.66-9.86-6.61-14.36-10.7l.47-.39a.32.32,0,0,0,.11-.34.31.31,0,0,0,0-.16,21.79,21.79,0,0,0-4.5-6.49c-2-2.26-3.71-4.78-5.79-7A16.52,16.52,0,0,0,173,69.68c6-.69,12-5.76,14.26-10.89,1.88-4.34,1.83-9.51,2-14.14a85.43,85.43,0,0,0-.35-15.17,3.26,3.26,0,0,0,2.61-.16c2.15-1.37.42-4.08-1.52-5.51.93,0,1.29-1.16,1.43-1.89a2.66,2.66,0,0,0-.57-2.46.28.28,0,0,0-.24-.28c-.59-.11-1.21-.21-1.84-.31-1.25-5.07-5.51-9.16-9.42-12.33A28.66,28.66,0,0,0,164.09.18a34,34,0,0,0-23.47,6.21C131.84,13,128,24.27,129.35,35a32.22,32.22,0,0,0,6.44,15.92c2.73,3.4,7.66,7.47,12.34,6.59h.26a12.33,12.33,0,0,0,.51,1.7c-.05,1.08-.15,2.18-.29,3.26h-.14c-4.35.79-6,3.09-6,6-8.12.46-15.92,4.24-18,12.54a31.88,31.88,0,0,0-.17,12.76c0,.3.09.61.14.93a51.29,51.29,0,0,0-5.54-.31c-1.83-.08-3.79-.46-5.53.14-8.41-.91-17.07-.7-25.5-.64-8.86.08-17.82.07-26.65.8a.61.61,0,0,0-.13,0c-6.64-1.36-14.76,2.77-17.62,8.78-1.95,4.1-2.09,9.3-2.53,13.75C40.48,122.69,40.27,128.2,40.28,133.7Zm206.54-33.14a11,11,0,0,1-1.66,3.81,6.52,6.52,0,0,1-4.24-2.86c-1.5-2.44-1.1-5.82,1.38-7.2,1,.06,2,0,3.06.06A7.66,7.66,0,0,1,246.82,100.56Zm4.11,2.81a5.91,5.91,0,0,0,.67-4.07A14.58,14.58,0,0,0,250,95.77l-.18-.32,0,0a5.39,5.39,0,0,1,2.52,5.4A4,4,0,0,1,250.93,103.37Zm-4.49,1.18a7.34,7.34,0,0,0,1.41-3.92,7.64,7.64,0,0,0-1.63-6.22,9.54,9.54,0,0,1,2,.34c1.33.84,2.5,3.91,2.58,5.32a5,5,0,0,1-.65,2.55,5.7,5.7,0,0,0-.58-3.59.26.26,0,0,0-.47.06c-.68,1.9-.58,3.77-1.55,5.46A9.91,9.91,0,0,1,246.44,104.55Zm1.39,7.11.45,0a1.62,1.62,0,0,1,1.85,1.07c.8,1.55-.15,2.29-1.43,2.68A7.14,7.14,0,0,0,247.83,111.66Zm-135-16.3q-.49,3.56-.76,7.17c-7.86-1.2-16.15-.94-24.06-1-8.88-.06-17.79.08-26.65.69,0-2,0-3.92.1-5.88,8.82-.13,17.64-.69,26.47-.81C96.2,95.43,104.56,95.78,112.83,95.36ZM112.77,156c.32-.11.65-.2,1-.3,9.7.39,21.91.86,31.45-.12a37.29,37.29,0,0,0,5.55,1c3.32.35,6.66.53,10,.62,1.15,2,1.43,6.16,1.34,7.29a12.6,12.6,0,0,1-3.13,7.32c0,.06-.08.12-.12.17-8.64-.46-17.36.07-26,.11-8.83,0-17.69-.44-26.51-.27-2.34-2.3-4.54-4.57-3.61-8.33C103.8,159.1,109,157.34,112.77,156Zm48.9,17.56a39.17,39.17,0,0,0,6.67-.77c2.61-.34,5.28-.61,7.86-1.21-.74,3-1.31,6.1-1.87,9.09-1.7,9.17-3.37,18.43-3.41,27.78l-.09.2a.94.94,0,0,0,.33,1.27c.4.18.81.35,1.23.5-1.52,3.29-5.84,15.11-3.62,18.83-2.05,0-4.1-.1-6.16-.12-2-2.5-3.69-4.89-4.42-8a29.81,29.81,0,0,1-.16-9.84,27.49,27.49,0,0,1,2.62-9.94c1.15-2.29,2.4-4.51,3.38-6.88C166.38,188.78,167.83,177.62,161.67,173.6Zm30.39,55.78c-1.38,0-2.76.06-4.11.06l-13.28-.05c-1.18,0-2.36,0-3.55,0-2.05-3.17-1.23-7.55-.05-11.73,2.71,1.59,6.49,1,9.45.61a17.72,17.72,0,0,0,3.35-.72,16.93,16.93,0,0,0,1.48,1.08c-.66.83-1.2,1.78-.91,2.47.55,1.28,1.76-.39,2.13-.93l.39-.56.92.54a2.14,2.14,0,0,0-.3,2.2.35.35,0,0,0,.31.18c.78-.07,1.19-.75,1.53-1.44.35.23.68.47,1,.72a2.69,2.69,0,0,0-.37,1.75.35.35,0,0,0,.44.25,2.2,2.2,0,0,0,1.18-.9c.08.08.16.15.23.23.51.56.87,1.21,1.32,1.79A6.32,6.32,0,0,0,192.06,229.38Zm-1.2-129.2a32.6,32.6,0,0,0,7.23,5.86c3.07,1.93,7.26,4,11.15,4.17a21.64,21.64,0,0,0-3.47,3.36c-2,.11-4,.37-6,.65l-1.22.15c-2.78-3.4-7.71-6-10.72-7.64-2.76-1.51-5.61-2.83-8.48-4.12.09-3.69.2-7.37.3-11.06,1.23,1.26,2.51,2.47,3.7,3.75,1.68,1.8,3.24,3.74,5,5.46a.25.25,0,0,0,.34,0,1.81,1.81,0,0,0,.48.16A1.53,1.53,0,0,0,190.86,100.18Zm-2.18-2a4.89,4.89,0,0,1,.11-1.27,11.31,11.31,0,0,0,1.36,2.33C189.71,99.88,189.22,99.53,188.68,98.23ZM135.51,146c1.51.3,3.2-.46,4.79-1.12l.81-.31c1.87,2,4.41,1.76,7,1.78,4.55,0,9.1.2,13.64.55q7.44.55,14.81,1.74c5.19.83,10.64,1.16,12.33,7,1.21,4.21.37,8.92-.17,13.17q-1,7.66-2.37,15.25c-1.61,8.64-4.54,17.14-5.8,25.83a27.17,27.17,0,0,1-8-1.36,196.38,196.38,0,0,1,6.1-37.57.5.5,0,0,0,.19-.69c1.23-4.5,2.66-8.94,4.29-13.27.44-.11.41-.7.1-.92-2.95-2.1-7.34-1.22-10.75-1.11q-7,.24-13.92,0C149.75,154.56,139.81,154.75,135.51,146Zm6.62,8.7c-7.68-.25-15.38-.22-23.07-.44a106.86,106.86,0,0,1,18.1-2.52A15.81,15.81,0,0,0,142.13,154.66Zm22,9.29a13.64,13.64,0,0,0-1.91-6.7c1.94,0,3.88,0,5.81,0,2.82,0,5.64-.18,8.46-.23.26,0,.51,0,.77,0a9.28,9.28,0,0,1,1.26,3c.25,1.37-.36,2.77,0,4.06a55.69,55.69,0,0,0-1.9,5.91c-3,.13-6.09.68-9.11,1-1.85.22-3.81.21-5.63.61A13.42,13.42,0,0,0,164.15,164Zm14.4-6.86a27.42,27.42,0,0,0,3.51,0,32.29,32.29,0,0,0-2,3.51,9.06,9.06,0,0,0-.18-.93A6.85,6.85,0,0,0,178.55,157.09Zm24.6,63.32a3.91,3.91,0,0,0-1.16,1.3,16.16,16.16,0,0,0-2.5-1.83c-1.66-1-3.45-2-5.29-2.87a.37.37,0,0,0-.33-.42,4.62,4.62,0,0,0-.73-.07l-.11-.05A6.39,6.39,0,0,0,195.9,215c.22.16.43.32.66.46a3,3,0,0,0-.27,1.32.33.33,0,0,0,.61.17,5.24,5.24,0,0,1,.66-.87c.57.33,1.13.67,1.67,1a5.57,5.57,0,0,0-.31.87c-.06.24.23.51.45.35l.72-.57c.31.25.61.51.91.77a4,4,0,0,0-.44,1,.26.26,0,0,0,.31.32,4.79,4.79,0,0,0,1-.51C202.29,219.71,202.71,220.07,203.15,220.41Zm-1.28-3-.7-.58a4.21,4.21,0,0,1,1.34-.73l.45.33A8.93,8.93,0,0,0,201.87,217.45ZM199,212.92l.13.17a8.29,8.29,0,0,0-1.22.79,5.27,5.27,0,0,0-.9.86c-.2-.06-.4-.1-.59-.14A10.83,10.83,0,0,1,199,212.92Zm-3.43.73q-.21.16-.42.3a5.4,5.4,0,0,1-.83-3,32.34,32.34,0,0,0,3.69-.06,3.56,3.56,0,0,0,.46,1.23A7.29,7.29,0,0,0,195.58,213.65Zm4.06.95a6.28,6.28,0,0,1,.71-.25c.16.15.32.29.47.41l.25.22-.48.36a5.3,5.3,0,0,0-.67.67c-.46-.27-.93-.52-1.4-.74A9.47,9.47,0,0,1,199.64,214.6Zm-6.44-2.79a4.73,4.73,0,0,0,.9,2.78,11,11,0,0,1-2.62.95c0-.23-.08-.46-.37-.43s-.6.09-.89.15l-1.36-.53a10.74,10.74,0,0,0-1.76-3.34c1.77-.19,3.48-.44,5.08-.7a8.33,8.33,0,0,0,1.13.19A3.42,3.42,0,0,0,193.2,211.81Zm.88,6.62a5.28,5.28,0,0,0-2,1.2,11.13,11.13,0,0,0-.78.84c-.35-.28-.72-.53-1.09-.78a5.86,5.86,0,0,1,2.36-1.92Zm-4.7-.24c-.16.16-.35.37-.55.61l-.86-.5a9.67,9.67,0,0,1,1.95-1.72l1,.45A5.41,5.41,0,0,0,189.38,218.19Zm-2.56-1.14c-.12.1-.26.24-.42.39l-1-.54a8.88,8.88,0,0,0,2.28-1.49c.27.15.55.31.83.45A7.12,7.12,0,0,0,186.82,217.05Zm-3.39-1.22-.23-.12a.38.38,0,0,0-.37,0c-.57-1.54-1.49-3.25.36-4,.69,0,1.38-.06,2.07-.12a3.21,3.21,0,0,1,1.42,1.22c.33.46.64.94,1,1.4A24.38,24.38,0,0,1,183.43,215.83Zm-2.44-6c3.77-8.8,5.15-19,6.82-28.37.83-4.69,1.59-9.4,2.21-14.13.53-4,1.16-8.15.11-12.12-2.08-7.92-10.86-7.73-17.67-8.66q-7.85-1.08-15.74-1.47c-2.64-.13-5.27-.19-7.91-.19-2.23,0-4.59.25-6.56-.85a84.28,84.28,0,0,1,11-3.37c4.37-1,8.8-1.82,13.24-2.5l.8-.11a65.3,65.3,0,0,1,20.59,3.75c4.25,1.6,9.31,3.64,10.82,8.3,1.11,3.39.74,7.42.73,10.94a191.26,191.26,0,0,1-6.77,48.28,1.37,1.37,0,0,0,0,.28h0C189,209.65,184.92,210,181,209.88Zm.34,6.47a23.57,23.57,0,0,1-9.86-.08c.6-2,1.23-3.93,1.59-5.6a27.07,27.07,0,0,0,7.77,1.06,4,4,0,0,0-.19,2A8,8,0,0,0,181.33,216.35Zm-46.64-72.73c-.39-6-2.69-12.17-3.59-18.07-1-6.73-1.37-13.44-1.78-20.21h.18c2.36,7.12,9,13.73,16,15,5.11.91,10.67.42,15.76-.41,3.13-.5,6.08-1.42,9.14-2.21,1.76-.46,3.7-1.06,5.53-.63a5.15,5.15,0,0,1,1,.33,17.17,17.17,0,0,0-3.78.42c-1.25-1-3.25.62-3.69,1.9-.61,1.81-.32,4.32,1.39,5.44a2.35,2.35,0,0,0,2.23.39,17.62,17.62,0,0,0,4.69-.11c0,2.07.06,4.15.11,6.22a21.32,21.32,0,0,0,.2,3.57c-7-.36-14.71,1.13-21.42,2.43a98.21,98.21,0,0,0-11.72,3C141.37,141.82,138.33,143.42,134.69,143.62Zm39.43-24.3a38.88,38.88,0,0,0,4.48-.31,4.46,4.46,0,0,1-.69,4.56.59.59,0,0,0-.09.2l-2.34.19-1.09.07A5.41,5.41,0,0,0,174.12,119.32Zm-.84,4.47c-.71,1.07-1.78.49-2.3-.3a3.94,3.94,0,0,1-.38-3.06,1.77,1.77,0,0,1,1.63-1.46.55.55,0,0,0,.25.14l.14,0a4.41,4.41,0,0,1,1,3A3.39,3.39,0,0,1,173.28,123.79Zm-43.77-23.05a2.31,2.31,0,0,1,.42-.4,7.07,7.07,0,0,1,1.68-1.25,13.38,13.38,0,0,1,3.13-1.22c1.23-.36,2.47-.64,3.72-.94.5,3.81,1.76,7.75,4.63,10.43,3.26,3,7.92,3.63,12.18,3.67,6.1,0,12.1-.69,18.21-.31,3.65.22,7.48.54,10.67,2.5a7.86,7.86,0,0,1,3.68,4.07c.59,1.7,1.6,6.65-1.71,6.92a2.09,2.09,0,0,0,.14-.17c1.44-2,.87-4.7-.56-6.5a.2.2,0,0,0-.33.14c.25,2,1.51,5.13-1,6.29a3.87,3.87,0,0,1-1.84.33l0,0a4,4,0,0,0,.86-1c.88-1.5,1-4.77-.87-5.62a.05.05,0,0,0-.07,0c-.3,1.46.64,2.79.09,4.3a2.89,2.89,0,0,1-1.89,1.84,2.64,2.64,0,0,1-1,0,5.07,5.07,0,0,0-1.35-7.63c-4.43-2.65-10.44.76-14.86,1.68-6.67,1.39-15.77,2.68-22.09-.63a20.54,20.54,0,0,1-7.78-7.59C131.84,106.85,131.09,103.59,129.51,100.74Zm49.74,9c0-1.6,0-3.2.07-4.8l1.21.53c5.39,2.38,11.54,4.91,15.72,9.18a19,19,0,0,0-3.47.75,1.5,1.5,0,0,0-.9.35,1.79,1.79,0,0,0-.64.67,6.26,6.26,0,0,0-.88,0l-1.14,0C187.55,112.49,183.47,110.59,179.25,109.73Zm10.56,8.59c-.05-.21-.11-.41-.16-.62l.93-.16.46-.13a3.35,3.35,0,0,1,1.15,3.29,2.36,2.36,0,0,1-1.49,2l-.11,0c-.12,0-.23,0-.36,0l-.49,0A10.6,10.6,0,0,0,189.81,118.32Zm2.27-1.32a3.28,3.28,0,0,0,.47-.86c1.39-.22,2,2.8,2.1,3.52a17.5,17.5,0,0,1,0,2.61c-.06.87-.17,2.81-1.51,2.69-.78-.07-1-.91-1.14-1.65l.2-.15a3.86,3.86,0,0,0,1.12-2.56A4.5,4.5,0,0,0,192.08,117Zm13.07-2.61a17.92,17.92,0,0,0-3.6,10.07,32.71,32.71,0,0,0-3.43.2c-.92.1-2,.14-2.94.29a6,6,0,0,0,.62-3c0-1.63-.09-4.5-1.4-5.88.93-.07,1.88-.22,2.81-.37a16.35,16.35,0,0,1,2.76,4.5.32.32,0,0,0,.62-.08,7.13,7.13,0,0,0-1.29-4.75C201.26,115.09,203.22,114.81,205.15,114.39Zm3.09,24.15c-.72.25-1.43.52-2.09.81a.52.52,0,0,0-.32.5,11.9,11.9,0,0,0-1.87,2.5c-2.17-3.21-6.88-4.17-10.42-5A63,63,0,0,0,180,135.66a.36.36,0,0,0-.3-.3c.06-1.36-.13-2.78-.16-4.12l-.09-6.07a2.57,2.57,0,0,0,1.64-.07,3.08,3.08,0,0,0,3.12.31.7.7,0,0,0,.32.2c2.39.81,3.86,0,4.66-1.45l1.19-.23.06,0a1.76,1.76,0,0,0,.63-.1c.32,1.14.73,2.16,1.84,2.24l.08,0c1.72.37,3.72-.21,5.47-.4a25.75,25.75,0,0,0,3-.44C201.35,130.69,203.32,136.21,208.24,138.54Zm-5.18,18c1.57,7.07,3.7,13.92,4.94,21.05-.39,4.85-.7,9.69-1.28,14.51-.42,3.47-.94,6.93-1.6,10.36a44.71,44.71,0,0,0-1.2,7c-1.8.07-3.59.17-5.39.19-1.36,0-2.83-.12-4.25-.08,5.19-17.56,8.19-36.77,7.19-55.11-.17-3.07-.69-6.32-2.77-8.72-2.27-2.62-5.88-4.09-9.06-5.28a51.77,51.77,0,0,0-16.21-3.05c1.58-.22,3.16-.48,4.68-.85l.33.09.22.44a.45.45,0,0,0,.82-.11.29.29,0,0,1,0-.09c3.87.85,7.85,1.2,11.74,2a45.88,45.88,0,0,1,7,1.9c1.86.73,3.3,2.08,5.06,2.89C201.71,147.62,202.11,152.3,203.06,156.53Zm5.07,37c.38-3,.66-6.09.8-9.16a95.18,95.18,0,0,1,0,20.87,93.83,93.83,0,0,1-2.1,12.51.23.23,0,0,0-.11-.21l-.76-.39c.41-.15.71-.41.42-.89-.48-.82-1.67-.67-2.53-.32l-.33-.22a.64.64,0,0,0-.08-1,1.66,1.66,0,0,0-1.5-.13l-.49-.43c-.07-.06-.13-.14-.2-.2a.9.9,0,0,0,.21-.27.56.56,0,0,0-.25-.62,1.47,1.47,0,0,0-1-.25,7.14,7.14,0,0,1-.73-1.17c-.12-.26-.21-.51-.3-.75h.17a14.67,14.67,0,0,0,4.86-.69.45.45,0,0,0,.58-.23C207.17,205.07,207.48,198.8,208.13,193.51Zm-1.3,24.38c-.1.4-.21.8-.33,1.19a5.57,5.57,0,0,0-2.55.8v0a8.48,8.48,0,0,0-1-1.33,6,6,0,0,1,1.72-1.05,5.83,5.83,0,0,0,2,.55A.23.23,0,0,0,206.83,217.89Zm-.62,2.18a32.34,32.34,0,0,1-1.92,4.79,7.33,7.33,0,0,0-1.37-2.22c.2-.27.36-.58.58-.85a4.46,4.46,0,0,1,1-.9A17.21,17.21,0,0,1,206.21,220.07Zm-2.56,6a17.17,17.17,0,0,1-2.57,3.43,1,1,0,0,0-.27.51,33.28,33.28,0,0,0-7.22-.61c.28-1.92.49-3.51,1.89-5.14a5.73,5.73,0,0,1,3-1.91,9.73,9.73,0,0,0,1.6-.56A12.05,12.05,0,0,1,203.65,226Zm-11.1-4.55.2-.28a6.39,6.39,0,0,1,2.95-2,26.08,26.08,0,0,1,3.45,1.91,8.74,8.74,0,0,0-2.61.63,7.6,7.6,0,0,0-2.32,1.87A7.23,7.23,0,0,0,192.55,221.49Zm-79-96.88c0-7,.39-14,.36-21q6.47-.24,12.91-.39a7.39,7.39,0,0,0,.74,1,2.48,2.48,0,0,0,.49.6l.27.19a115.44,115.44,0,0,0,1.16,20.18c.79,5.95,3.9,19.36,4.11,19.61a3.91,3.91,0,0,0,.7.66,8.52,8.52,0,0,0,2,5.29,63.79,63.79,0,0,0-16.45,1.79c-2.1.5-4.39,1-6.64,1.7C113.38,144.35,113.44,134.47,113.51,124.61Zm11.16-28.86a22.74,22.74,0,0,0,1.77,6.8,81.15,81.15,0,0,0-12.57,0q0-3.51-.23-7c1.66.59,3.57.3,5.33.31A45.18,45.18,0,0,0,124.67,95.75ZM149.8,71.09c2,2.17,5.08,5.26,8.07,6.32a10.12,10.12,0,0,0-3.26,3.25,7.32,7.32,0,0,0-1.55,3.74c-1.93-2.66-4.18-5.08-5.94-7.88a21.93,21.93,0,0,1-2.76-5.19,6.09,6.09,0,0,1,2.47-6.8c.51-.3,1-.55,1.59-.81,0,.25-.11.51-.17.77V64.4a.33.33,0,0,0-.61-.17C146.25,67.11,147.83,69,149.8,71.09Zm-.37-7.53a16.9,16.9,0,0,0,.14-2.92c2.56,4.78,8.13,8,13.79,9.16-.29,1.37-.34,2.77-.63,4.14-.26,1.21-.8,2.4-1,3.63-.55,1.07-.44,2.43-.63,3.6-.16,1-.3,2-.45,3-.16-1-.44-2-.65-3a14.84,14.84,0,0,0-1-3.8.53.53,0,0,0,0-.12.42.42,0,0,0-.12-.37c-1.8-1.9-4.4-3.13-6.37-4.91a34.2,34.2,0,0,1-3-3,5,5,0,0,1-1-1.82A9.47,9.47,0,0,0,149.43,63.56Zm19.24,6.64a.28.28,0,0,0,.07.16c-.17,2.41,0,4.72-.67,7.15a31.83,31.83,0,0,1-2.26,5.25,7.23,7.23,0,0,0-1.16-3.37A5.18,5.18,0,0,0,163,77.7,10.65,10.65,0,0,0,164.34,70,22,22,0,0,0,168.67,70.2Zm-10.89-4.27c-3.79-2.22-5.63-5.19-7.64-8.72a6.58,6.58,0,0,0,1.75-.84A23,23,0,0,0,165,68.48,20.65,20.65,0,0,1,157.78,65.93Zm30.1-47.2c-10.49-1.49-25.06-1.08-31.72,7.59-3,4-3.07,9.49-3.6,14.25-.48,4.35-.72,12.65-5.16,15.25a27.29,27.29,0,0,1-5.64-2.33,19.68,19.68,0,0,1-5.57-5.78,31.49,31.49,0,0,1-4.95-15.43A28.5,28.5,0,0,1,143.62,6.72a32.23,32.23,0,0,1,19.25-4.93C173.81,2.39,182.73,9.46,187.88,18.73ZM189.8,23c-5.79-1-12.39-.34-18.2,0-4.33.26-8.93,1.12-12,4.41-6.57,6.93-.9,22-8.81,27.37a17.85,17.85,0,0,0,2.14-6.22c1-5.48,1-11.17,2.31-16.58C159,16.87,179,21,190.34,19.86a9.8,9.8,0,0,1,0,1.53,3.48,3.48,0,0,1-.21,1.2A1.23,1.23,0,0,1,189.8,23Zm-27.18,4.12a12.06,12.06,0,0,1,2.94-1.36c.56,1.6,1,3.86-1.44,3.72a5.9,5.9,0,0,1-2.86-1.28A8.73,8.73,0,0,1,162.62,27.07Zm9.59,2.09a10.22,10.22,0,0,1-3.91-2.46,18,18,0,0,0-1.46-1.35,30.44,30.44,0,0,1,4.76-.65c1-.08,2-.12,3.05-.14a14,14,0,0,1,1,2.9C175.93,29.7,173.84,29.69,172.21,29.16Zm3.42-4.63c2.39,0,4.82,0,7.22-.12a13,13,0,0,1,1.62,3.08c.67,2.73-2.81,1.9-4.2,1.18a10.1,10.1,0,0,1-2.77-2.13A14.27,14.27,0,0,0,175.63,24.53Zm12.69,3.61c-1.8-.78-2.76-2.47-4.26-3.66a.63.63,0,0,0-.1-.12,40.89,40.89,0,0,0,4.71-.54,13,13,0,0,1,1.7,1.46,3.78,3.78,0,0,1,1,1.79c.17,1.76-1.21,1.59-2.22,1.35l-.38-.14A.38.38,0,0,0,188.32,28.14ZM170.5,68.46a21.6,21.6,0,0,1-11-5.15C156.87,61,155.27,58,153,55.4c4.06-4.22,4.38-13.66,4.86-18.26.31-3,.78-5.78,2.48-8,1,1.37,3.48,1.86,4.95,1.47a2.69,2.69,0,0,0,1.86-2.69c2,2.06,5.28,3.47,7.67,3a2.28,2.28,0,0,0,2.1-2.79c1.85,1.73,4.69,2.89,6.61,2.7s2.44-1.49,2.18-3a10.6,10.6,0,0,0,1.28.82c.26.15.58.3.91.45-.32,8.63,1,17.68-1,26.19a16.55,16.55,0,0,1-7.46,10.21C176.54,67.4,173.68,67.8,170.5,68.46Zm24,20.08-.34.2a.38.38,0,0,0-.61.37c-3.11,2-6.43,5.37-6.16,9.12l0,.28a52.72,52.72,0,0,0-7.68-8.37c.06-2.44.11-4.89.12-7.33,0-.37-.58-.47-.65-.09-.45,2.22-.78,4.48-1,6.77a.37.37,0,0,0,0,.34c-.42,3.94-.58,8-.63,11.94l-1.1-.49-2-.86c2.1-2.35,2.83-5.75.29-8.38s-9-4.21-12.86-2.54a4.22,4.22,0,0,0-3.55,1.16c-4.73-.67-10-.28-14.78,0a.35.35,0,0,0-.33.44.17.17,0,0,0-.09.13,16.44,16.44,0,0,0-.16,4.95.4.4,0,0,0,.1.15.17.17,0,0,0,0,.3c2.13.64,4.51.36,6.72.36a36.56,36.56,0,0,0,5.73-.11,5.2,5.2,0,0,0,.33,2.08c1.94,4.88,10.95,5.35,15.1,3.87a8.46,8.46,0,0,0,1.65-.82l4.86,2.16c0,1.78,0,3.55,0,5.3-7.24-1-14.37-.15-21.62,0-4.14.07-9-.29-12.15-3.37-2.56-2.51-3.45-6-4.21-9.34.51-.13,1-.28,1.54-.43a.52.52,0,0,0,.67-.46c.31-2.53-1.1-5.34-1.55-7.86-.52-2.92-.48-5.92-1.11-8.81a.29.29,0,0,0-.56,0c-.88,2.79-.59,5.87-.2,8.73.32,2.4.54,5.59,2,7.64-4.31,0-10.45,1.19-12.62,5.08l-.06.13c-.56-2-.88-4.24-1.24-6.17a34.3,34.3,0,0,1-.56-11.29c.63-4.41,2.22-8,6.18-10.35,3.23-1.91,6.92-2.73,10.49-3.76.48,6,7.11,13.93,10.91,16.48a.2.2,0,0,0,.29-.2,3.2,3.2,0,0,0,.79-1.58,11.88,11.88,0,0,1,1.22-2.51,29.25,29.25,0,0,1,2.63-2.92,26.21,26.21,0,0,0,.55,2.72,20.46,20.46,0,0,0,1.14,4.61c.18.37.71.17.72-.19a.57.57,0,0,0,0-.13,16.93,16.93,0,0,0,1.45-4.23,14,14,0,0,0,.31-2.34,6.58,6.58,0,0,1,1,1.38,13.88,13.88,0,0,1,.91,3.64.65.65,0,0,0,.47.48.63.63,0,0,0,.36,0,1,1,0,0,0,.21-.11l0,0c3.22-2.81,5.21-9.2,4.36-13.64,3.36.35,6.73.53,9.76,2.21a20.45,20.45,0,0,1,5.7,5.15C188.34,81.52,191.19,85.24,194.47,88.54Zm-51,2.75.07,0c4.56.19,9.63.51,14.23-.09a9.3,9.3,0,0,0-2.17,4.84,36,36,0,0,0-5.78-.14,27.58,27.58,0,0,0-6.23.21h0A16.06,16.06,0,0,0,143.45,91.29Zm17.85-.43,1.2-.08a23.82,23.82,0,0,1,1,5,14.32,14.32,0,0,1-1.06,5.3l-.78-.19a5.4,5.4,0,0,1-4.38-4.48C156.91,93.9,159.21,92,161.3,90.86Zm1.91-.13a25,25,0,0,1,3.12,0A36.88,36.88,0,0,1,167.71,97,17.55,17.55,0,0,1,166,95.72a.71.71,0,0,0-1.18.68,4.75,4.75,0,0,0,2.79,3.28,6.5,6.5,0,0,1-.75,1.94,18.6,18.6,0,0,1-3.59-.37C164.51,98.19,164.89,93.71,163.21,90.73Zm3.76,0a14.61,14.61,0,0,1,2.45.47,9.47,9.47,0,0,1,3.2,1.32c2.8,2.13,2.22,5.21.07,7.12a39.71,39.71,0,0,1-4.07-2A12.76,12.76,0,0,0,167,90.76Zm1.35,9.28c.56.27,1.16.51,1.74.78l.41.18a10.08,10.08,0,0,1-2.69.58A8.72,8.72,0,0,0,168.32,100ZM221,105a28.71,28.71,0,0,0-10.55,4.33c-3.92-1.52-7.93-2.15-11.64-4.55a31.09,31.09,0,0,1-6.11-5.22,33.56,33.56,0,0,0-3.45-3.94,14.12,14.12,0,0,1,1.76-2.6,23.84,23.84,0,0,1,3.07-3,44.45,44.45,0,0,0,14.43,11.18A49.18,49.18,0,0,0,221,105Zm3.78.71a24,24,0,0,0-9.84,7.44c-4.8,6.39-4.26,16.78,2.13,22a11.61,11.61,0,0,0,2.77,1.67,29.16,29.16,0,0,0-10.37,1.34c-2.85-2.9-5.36-5.55-6.24-9.76a16.28,16.28,0,0,1,3.39-13.31c4.38-5.5,11.09-8.32,17.93-9.43Zm-10.26,32.77c2.69-.47,5.39-.4,8.07-.83a15.5,15.5,0,0,0,3.13.22c5.55,6.59,9.05,15.91,12.32,23.81A198.4,198.4,0,0,1,246,184.79a32.48,32.48,0,0,0-9.8,3.54c-1.43-8.82-5.75-17.69-9.15-25.83-3.49-8.37-7.48-16.82-13.25-23.89ZM242,110.1a6.83,6.83,0,0,0-1,2.07,15.86,15.86,0,0,0-2.49-3.28Zm.41,3.46a14.57,14.57,0,0,1,.33,3,16.44,16.44,0,0,0-1.12-3.13,10.88,10.88,0,0,1,2-2.8,6,6,0,0,1,2.15.92c1.26,1.07,2.31,4.56.73,5.91.32-1.69.05-4.28-1.34-5-.17-.1-.44.06-.36.27a9.78,9.78,0,0,1,.66,3.67,2.77,2.77,0,0,1-1,2.4,2.57,2.57,0,0,1-1.16.35,5.34,5.34,0,0,0,.2-.86,9.7,9.7,0,0,0-.65-4.79A.27.27,0,0,0,242.44,113.56Zm-23.69,21c-7.12-4.46-6.95-15.33-2-21.2,5.27-6.21,12.34-8.23,19.73-5.09a18.47,18.47,0,0,1,5.33,11.66v0a.3.3,0,0,0,0,.16,14.57,14.57,0,0,1-1.92,8C236.09,134.8,225.74,139,218.75,134.57Zm28.85,36.55c-2.27-3-4.11-7.11-4.07-10.86Q245.72,165.63,247.6,171.12Zm4,12.9a35.5,35.5,0,0,0-4.36.51,192.66,192.66,0,0,0-8.84-25.25q-2.84-6.56-6.15-12.9c-1.51-2.89-3-6.76-5.86-8.59.36,0,.72-.07,1.07-.12,8.5,1.58,12,12.5,15,20.06-1.47,2.37.08,6.58,1,8.84.84,2.09,2.3,5.68,4.73,6.38C249.38,176.61,250.28,180.42,251.63,184Zm20.21,16.79a1.11,1.11,0,0,0-.29.14C265,191.56,254,186.39,243.23,187.6c1-.32,1.94-.61,2.93-.85l.7-.16a.77.77,0,0,0,.47-.1A34.5,34.5,0,0,1,258.2,186a38.73,38.73,0,0,1,13,3.9c3.59,1.78,6.4,4.23,9.38,6.77-1.74.58-3.49,1.89-5.11,2.66C274.68,199.67,273,200.14,271.84,200.81Zm-12.13,60.4a27.81,27.81,0,0,0,9.24-4.53c9.07-6.78,12.22-18.12,10-29a37.52,37.52,0,0,0-7.37-15.66c-3.5-4.39-7.47-6.77-12.36-8.69,3.85-.76,7.82-1,11.74-1.39a1.17,1.17,0,0,0,.49.19l0,0c12.23,9.86,18.51,28.54,11.26,43.21C278.14,254.63,269.29,260,259.71,261.21Zm-37.26-27.76c2.4,1.93,6.14-1.73,7.71-3.72s2.21-4.25,3.24-6.43a32.77,32.77,0,0,1,1.83-3.34l.15.34a.7.7,0,0,0-.3.27c-4.81,8.1-2.52,19.38,4.76,25.29,6.69,5.43,16.51,5.54,22.91-.4,13.75-12.75-3.25-40-20.2-30.43a26.29,26.29,0,0,0-1.32-2.34,39.49,39.49,0,0,1,11.06-7.25,28.77,28.77,0,0,1,4-1.39.31.31,0,0,0,.1,0c6,2.13,10.72,4.72,14.57,9.94a36.29,36.29,0,0,1,6.2,13.52c2.34,10.33-.53,21.28-9.22,27.76s-20.13,6.77-29.47,1.75C229.51,252.27,223.93,243.29,222.45,233.45Zm18.45-3.32.21-.06,1.3-.2a3.17,3.17,0,0,1,2.88,1.68c1.07,1.67,1.22,4.14-.87,5s-4-.64-4.54-2.75a3.82,3.82,0,0,1-.12-.66.72.72,0,0,0,0-.33l0-.18A3.64,3.64,0,0,1,240.9,230.13Zm-1.52-.39c0-.39,0-.77,0-1.16a7.72,7.72,0,0,0,.55.7A3.1,3.1,0,0,0,239.38,229.74Zm5.87-.4c.49-.1,1-.22,1.47-.33h0a84.37,84.37,0,0,0,8.45-2.47c2.9-.81,6.41-2,7.69,1.73,1,2.88-.79,3.64-3,4.46q-2.4.89-4.86,1.62c-2.7.59-5.39,1.15-8.07,1.79a5.45,5.45,0,0,0-.3-5.08A5.71,5.71,0,0,0,245.25,229.34Zm-1.62-12a16.25,16.25,0,0,1,2.56-2.2,21.08,21.08,0,0,1,3.54-.11,29.65,29.65,0,0,0,1.61,5.07,34.29,34.29,0,0,0,2.13,5.73l-6.55,1.58A64.54,64.54,0,0,0,243.63,217.3Zm7.09-2.23a16.54,16.54,0,0,1,6,1.86c.23,1.22.66,2.41,1,3.6a25.19,25.19,0,0,0,.95,3.78,37.67,37.67,0,0,0-4.17,1.11,41.73,41.73,0,0,0-2.32-6.45A39,39,0,0,0,250.72,215.07Zm7.29,2.64a16.79,16.79,0,0,1,4.68,4.71c4.28,6.37,5,15.74-.75,21.48a14.47,14.47,0,0,1-4.27,2.93,18.49,18.49,0,0,1-15.74-8.76,4.18,4.18,0,0,0,2.57,0,81.21,81.21,0,0,0,13.87-3.28c.47-.15.93-.32,1.39-.48,1-.36,2-.72,3-1.1a.38.38,0,0,0,.22-.28c1.66-1.06,1.93-3.18,1.31-5s-2.33-3.74-4.44-3.74a14.5,14.5,0,0,0-1-3.92C258.54,219.4,258.3,218.54,258,217.71Zm-4.83,30.36A16.83,16.83,0,0,1,240.12,244,18.53,18.53,0,0,1,236,221.77c.39.83.79,1.66,1.19,2.49.27.55.53,1.16.79,1.77,0,0,0,0,0,0a24.73,24.73,0,0,0,.41,7.13.59.59,0,0,0,.14.31,6.87,6.87,0,0,0,.56,1.86.75.75,0,0,0,0,.53A20,20,0,0,0,253.18,248.07Zm-17.24-29.22a33.45,33.45,0,0,1,2.42-3.19c.65-.76,1.35-1.48,2.07-2.19.68,2.35,1.74,4.61,2.59,6.89s1.68,4.91,2.62,7.32l-3.58.92-.2.05-.37.09a3.47,3.47,0,0,0-.74.13,18.41,18.41,0,0,0-2-4.48C237.87,222.52,237,220.65,235.94,218.85ZM243,216l-.12-.26.7-.18A6.31,6.31,0,0,0,243,216Zm-9.83-22.56c5.87-3.68,13.39-5.47,20.19-3.67,7.18,1.9,12.08,6.79,17.49,11.46-10.15-.3-19.27.82-27.86,6.81a37,37,0,0,0-9.16,9.09c-2.72,3.9-5,15.33-11.18,14.67C218.41,219,221,201.11,233.2,193.43ZM213,235.16c.15-3.6,1.25-6.68,2.38-10.1A85.22,85.22,0,0,0,218,212.91a106.42,106.42,0,0,0,1.42-24c-.89-16.29-4.77-34.05-12.81-48.41h0c2.17-.63,4.31-1.3,6.51-1.79a218.3,218.3,0,0,1,12.62,24.88c3.49,8.44,6.28,17,9.11,25.62a9,9,0,0,0-1.5,1.44c-.6.32-1.2.66-1.79,1-6.51,4.12-10.11,10.63-12,18-1.64,6.44-2.34,15.49,1.18,21.61a.86.86,0,0,0,0,.17c.08.82.19,1.63.32,2.44a14.73,14.73,0,0,1-4.31,1.16C215.51,235.2,214.22,235,213,235.16Zm-88.42,3.29c-5.14,0-10.94-.8-16.11.08-1.44-.32-2.83-.44-4.07-1.58a5.93,5.93,0,0,1-1.73-5.5l12.83,0c3.94,0,8.06.3,12-.27a14.56,14.56,0,0,0,3.35,5.54.66.66,0,0,0,.7.07c13.44,1,27,.77,40.47.81,4.2,0,8.42.06,12.64.08a3.38,3.38,0,0,1-.38.51,7.46,7.46,0,0,1-1.08.79c-12.81-.77-25.78-.35-38.61-.4ZM103,238.29a7.43,7.43,0,0,0,4.73,1.74c4.52.94,9.63.54,14.39.36a14.85,14.85,0,0,1-6.72,6.09,18.25,18.25,0,0,1-18-15h3.2A7.32,7.32,0,0,0,103,238.29Zm8.07,9.43a16.11,16.11,0,0,1-6-.31c-7.43-1.82-12.42-8.58-13.18-16H96A19.53,19.53,0,0,0,111.09,247.72Zm6.66,13.08a27.63,27.63,0,0,0,19.17-20.48h5.41C138.76,252,128.93,259.2,117.75,260.8Zm-37-29.23c2.37,0,4.76-.15,7-.14h2.72c.83,8.11,6.09,15.45,14.16,17.61a16.83,16.83,0,0,0,19.47-8.71l1.19,0h9.9a26.09,26.09,0,0,1-31.24,19.25A29.75,29.75,0,0,1,80.71,231.57Zm2.18-12.09c3.91,0,7.82,0,11.73,0,8.09,0,16.31.34,24.39-.28a36.17,36.17,0,0,1,6.53,7.9,23.92,23.92,0,0,1,1.48,3.05c-3.79-.5-7.77-.22-11.55-.25l-13.87-.11c-4.62,0-9.24,0-13.86,0-3.82,0-8-.48-11.81.12h0a10.44,10.44,0,0,1-2.71-2,6.43,6.43,0,0,1-1.3-3.21,8,8,0,0,1,1.2-5.54C76.12,220.18,79.78,219.52,82.89,219.48Zm14.18-1.69c5.89-4.66,14.06-3.84,20.21.27C110.58,217.63,103.79,217.78,97.07,217.79Zm-7.7-8c7.48-.22,14.57.47,21.25,3.7-5.78-1.4-12.21-.86-14.83,4.33H94.62c-4,0-8.05,0-12.07-.1.88-1.13,1.5-2.56,2.34-3.65A23.31,23.31,0,0,1,89.37,209.76Zm-5.85-2.38c1.58,0,3.16,0,4.73,0,2,0,4.54.25,6.22-1l0,0a1.22,1.22,0,0,0,.34-.34,6.18,6.18,0,0,0,.6-4.46,3.83,3.83,0,0,0-2.56-2.54l0,0-.19-.07a1.23,1.23,0,0,0-.36-.06,21.91,21.91,0,0,0-3.57-.4c5.72-5.49,11.2-10.21,19.12-12.45a31.45,31.45,0,0,1,22.6,1.91,30.33,30.33,0,0,1,15.15,16.21c3.1,8.37,1.56,17,1.89,25.7a.48.48,0,0,0,.28.42.35.35,0,0,0,.24.44c8.72,1.36,17.85.66,26.66.67l14,0c4.07,0,8.4.36,12.39-.54a1,1,0,0,0,1.36,0c5.2-4.71,6.7-13.37,7.8-20a95.78,95.78,0,0,0,.89-22.57,129.39,129.39,0,0,0-4-23.12c-2.18-8.26-5.23-16.35-1.16-24.42,5.52,16.55,11.29,32.57,11.92,50.24a107.81,107.81,0,0,1-2.23,25.4c-1.31,6.46-4.37,12.93-4.07,19.59,0,0,0,0,0,.06-13.14-1.11-26.48-.81-39.65-.83-13.41,0-26.92-.28-40.3.61-1.33-8.73-8.31-17-15.32-21.85-8.47-5.83-20.67-8.68-30.5-4.74l0,0a8.05,8.05,0,0,1-2.09-1.58C83.66,207.57,83.6,207.47,83.52,207.38Zm-4.81-5.69c.47-.94,1.34-1.23,2.12-1.69,3.73.44,7.57.12,11.22.88h0c1.57.52,1.78,2.43,1.06,3.8-1.72,1-5.14.51-7,.49-2,0-4.09-.09-6.13-.26A2.16,2.16,0,0,1,78.71,201.69Zm4.94-14.31c-2.34,3.54-4.12,7.64-3.9,11.35a4,4,0,0,0-1.06.29,3.85,3.85,0,0,0-1.33,1,12.43,12.43,0,0,1-.74-6.49C77.18,190.09,79.37,185.47,83.65,187.38Zm5.55-4c4.67-5.05,10.4-7.49,16.77-9.63,9.1.8,18.45.58,27.58.52,8.39,0,16.91,0,25.24-1.14a1.3,1.3,0,0,0,.74.68c4.15,4.76,5.48,9.79,3.49,16.24-1.69,5.47-5.52,10.14-6.65,15.79-1.31,6.51-2.13,18.85,4.32,23.35a84.77,84.77,0,0,0-12.27.72c2.43-9,2.82-19.61-1-28.29a33.24,33.24,0,0,0-16.59-16.48,34.82,34.82,0,0,0-24.28-1.68c-7.7,2.24-16.11,7.32-20.22,14.42a1,1,0,0,0-.14.55c-1.61.07-3.22.24-4.78.46,1-2.31,1.36-4.86,2.38-7.18A29.74,29.74,0,0,1,89.2,183.34Zm-8.65-9.23h4.73a4,4,0,0,0,3.49,2.1,9.84,9.84,0,0,1,1.69,2.55c.06.14.15.42.27.67a31,31,0,0,0-2.39,2.17c-.44.44-.9.93-1.35,1.44-1.29-1-2.57-2-3.87-3a31,31,0,0,0-4-2.92A3.08,3.08,0,0,0,80.55,174.11Zm9.08,2.12a4.52,4.52,0,0,0,.75-.1,18.75,18.75,0,0,0,1.06,1.57c.17.21.34.51.56.74l-.42.32a7.18,7.18,0,0,0-.64-1.11A6.1,6.1,0,0,0,89.63,176.23Zm-2.47-2.11c1.33,0,2.67,0,4,0a2.64,2.64,0,0,1-2.5.8A3.15,3.15,0,0,1,87.16,174.12Zm5.47-.05q4.23,0,8.45-.21a28.37,28.37,0,0,0-8.25,4,6.83,6.83,0,0,0-.61-.75c-.35-.41-.7-.81-1.08-1.2A2.15,2.15,0,0,0,92.63,174.07Zm-14.81,3.72a3.8,3.8,0,0,0,.47-.18,25,25,0,0,0,3.48,3.1c1.4,1.17,2.84,2.3,4.27,3.45l-.71.88a37.68,37.68,0,0,0-4-4A24.88,24.88,0,0,0,77.82,177.79ZM74,174.09l5.44,0a3,3,0,0,1-.43,1.44,2.54,2.54,0,0,1-2.76,1,3.15,3.15,0,0,1-2.09-2A3.52,3.52,0,0,1,74,174.09Zm-4.9-1.71a2,2,0,0,1,1.43-2.16c1.16-.42,3.19,0,4.44,0,3,0,5.93,0,8.9,0,6,0,12.1.11,18.15,0a7.28,7.28,0,0,0,2.59,2.69C93.37,172.38,80.28,172.46,69.14,172.38Zm-7.8-68.88c8.64-.31,17.27-.63,25.92-.64,8.21,0,16.56.8,24.76.44-.5,6.84-.58,13.77-.84,20.57-.39,10.1-.61,20.27-.46,30.38a1.19,1.19,0,0,0,.2.68,22.75,22.75,0,0,0-6.64,3.5,8.81,8.81,0,0,0-3.42,8.68,10,10,0,0,0,.85,2.48c-8.39-.47-16.81-.59-25.21-.79-3.75-.08-8.26-1-8.89,2a20.64,20.64,0,0,0-5.82-.25c.5-12.21-.13-24.53-.34-36.74C61.28,123.7,61.21,113.6,61.34,103.5ZM55.87,133c0-11.94.47-23.91.18-35.85,1.45-.25,2.92-.4,4.38-.65-1.43,12.4-1.31,24.85-1.14,37.31.17,12.23-.06,24.59.83,36.79v0a22.5,22.5,0,0,1-4-.67C56,157.63,55.86,145.31,55.87,133Zm-13.42,0c0-8.48,0-17.63,2-25.91a12.62,12.62,0,0,1,7.84-8.95,17.54,17.54,0,0,1,2.78-.8c-.71,11.85-.48,23.81-.47,35.67q0,18.33.43,36.65a16.15,16.15,0,0,1-11.34-12.22C42.07,149.62,42.47,140.92,42.45,133Z" />
				<path class="cls-28" d="M90.57,139.27c3.28,2.57,6.89,5.73,10.84,7.17a.16.16,0,0,0,.16,0,.3.3,0,0,0,.33-.24c.11-1.08.17-2.16.22-3.24,0-.82.26-1.78-.31-2.43a.18.18,0,0,0-.12-.05c-2-1.58-3.91-3.22-5.82-4.9a31.47,31.47,0,0,0-5.53-4.42,31.14,31.14,0,0,0,5.49-4.41c1.91-1.7,3.84-3.35,5.85-4.93a.15.15,0,0,0,.12,0c.57-.64.35-1.61.32-2.42,0-1.08-.1-2.16-.2-3.24a.29.29,0,0,0-.33-.24.17.17,0,0,0-.17,0c-3.94,1.42-7.57,4.57-10.86,7.12-3,2.32-6.64,4.81-8.75,8a.23.23,0,0,0,0,.3,0,0,0,0,0,0,0C84,134.43,87.59,136.93,90.57,139.27Zm-8.11-8.22c3.16-2,5.83-5,8.75-7.3,3.24-2.56,7.13-4.59,10.14-7.39a21.77,21.77,0,0,0-.27,2.79,4.44,4.44,0,0,0,.24,2.26,45.1,45.1,0,0,0-5.62,4c-2.12,1.69-4.7,3.33-6.46,5.36a.39.39,0,0,0,0,.57.38.38,0,0,0,.09.18c1.76,2,4.31,3.66,6.42,5.33a46,46,0,0,0,5.55,4,4.62,4.62,0,0,0-.24,2.25,21.76,21.76,0,0,0,.26,2.79c-3-2.81-6.89-4.86-10.11-7.43C88.29,136.08,85.64,133,82.46,131.05Z" />
				<path class="cls-28" d="M67.46,130.43a.22.22,0,0,0,.05.31v0c2.09,3.2,5.73,5.7,8.71,8,3.28,2.57,6.89,5.73,10.83,7.17a.17.17,0,0,0,.17,0,.31.31,0,0,0,.33-.24q.15-1.62.21-3.24c0-.81.26-1.78-.31-2.43a.13.13,0,0,0-.12,0c-2-1.59-3.91-3.22-5.81-4.91A31.54,31.54,0,0,0,76,130.65a30.43,30.43,0,0,0,5.49-4.41c1.92-1.7,3.85-3.35,5.86-4.93a.16.16,0,0,0,.12,0c.57-.64.35-1.61.31-2.42,0-1.08-.1-2.16-.2-3.24a.27.27,0,0,0-.32-.24.15.15,0,0,0-.17,0c-3.94,1.41-7.58,4.56-10.87,7.11C73.21,124.76,69.56,127.24,67.46,130.43Zm.65.15c3.15-2,5.82-5,8.75-7.3,3.23-2.56,7.12-4.59,10.14-7.39a21.77,21.77,0,0,0-.27,2.79,4.55,4.55,0,0,0,.23,2.26,45,45,0,0,0-5.61,4c-2.12,1.69-4.7,3.33-6.46,5.36a.4.4,0,0,0,0,.57.54.54,0,0,0,.1.18c1.76,2,4.31,3.66,6.41,5.33a46.06,46.06,0,0,0,5.56,4,4.5,4.5,0,0,0-.24,2.25,21.74,21.74,0,0,0,.25,2.79c-3-2.81-6.88-4.86-10.11-7.43C73.94,135.61,71.28,132.57,68.11,130.58Z" />
				<path id="dhoya3" class="cls-26" d="M46.43,203s.53-3.71-.79-5.12a2.84,2.84,0,0,0-3-.77s-.07-4-2.19-5.31-3.34,1.47-3.58,2.1-.69,2.43-.69,2.43-1.07-3.07-3.4-2.69-1.86,5-1.86,5-1.88-.33-2.61,3.44.87,6.45,1.83,6.71,2.41-1.27,2.41-1.27-.33,3.76,1.71,5.11,3.37.14,3.89-1a12.18,12.18,0,0,0,.81-2.3s.95,4.41,3.4,3.21a4.3,4.3,0,0,0,2.82-4.21c0-1.47,0-2.43,0-2.43s.8.39,1.2-1.08S46.43,203,46.43,203Z" />
				<path id="dhoya2" class="cls-26" d="M28.05,190.54s.49-2.86-.73-3.95a3,3,0,0,0-2.73-.6s-.07-3.06-2-4.1-3.06,1.13-3.29,1.62-.63,1.88-.63,1.88-1-2.37-3.14-2.08-1.7,3.84-1.7,3.84-1.74-.25-2.41,2.66.8,5,1.69,5.19,2.21-1,2.21-1-.3,2.91,1.58,3.95,3.11.11,3.59-.73a8.86,8.86,0,0,0,.74-1.78s.88,3.41,3.14,2.48,2.55-2.12,2.59-3.25a16.09,16.09,0,0,0,0-1.88s.74.3,1.11-.83S28.05,190.54,28.05,190.54Z" />
				<path id="dhoya1" class="cls-26" d="M12.78,178.67s.37-2.11-.55-2.92a2.33,2.33,0,0,0-2.08-.44s-.05-2.26-1.54-3-2.33.84-2.49,1.2-.48,1.38-.48,1.38a2.49,2.49,0,0,0-2.39-1.53c-1.62.21-1.29,2.84-1.29,2.84s-1.32-.19-1.83,2,.61,3.68,1.28,3.83,1.69-.73,1.69-.73-.23,2.15,1.19,2.92A1.89,1.89,0,0,0,7,183.61a6.68,6.68,0,0,0,.56-1.31s.67,2.52,2.38,1.83,1.94-1.56,2-2.4a12.18,12.18,0,0,0,0-1.39s.56.22.84-.61S12.78,178.67,12.78,178.67Z" />
			</g>
		</g>
	</g>
</svg>
