<svg xmlns="http://www.w3.org/2000/svg" xmlns:xlink="http://www.w3.org/1999/xlink" viewBox="0 0 750 500">
    <style>
		#delivery_boy_with_box {
		-webkit-animation : delivery_coming 2s forwards;
		-moz-animation: delivery_coming 2s forwards;
		animation: delivery_coming 2s forwards;
		}
		#box_delivering {
		-webkit-animation : box_move 1500ms forwards 2500ms;
		-moz-animation : box_move 1500ms forwards 2500ms;
		animation: box_move 1500ms forwards 2500ms;
		}
		#girl_full_body {
		opacity: 0;
		transform: translateX(100px);
		-webkit-animation : girl_move 2s forwards 1s;
		-moz-animation : girl_move 2s forwards 1s;
		animation: girl_move 2s forwards 1s;
		}
		#girl_left_hand_full {
		transform-origin: 495px 257px;
		-webkit-animation : full_hand_rotate 1s forwards 2s;
		-moz-animation : full_hand_rotate 1s forwards 2s;
		animation: full_hand_rotate 1s forwards 2s;
		}
		#girl_left_hand_open {
		transform-origin: 425px 368px;
		-webkit-animation : empty_hand_rotate 1s forwards 2500s;
		-moz-animation : empty_hand_rotate 1s forwards 2500s;
		animation: empty_hand_rotate 1s forwards 2500s;
		}
		#tick-mark {
		transform: scale(0.001);
		transform-origin: 385px 149px;
		-webkit-animation : zoomInout 1s forwards 3500ms;
		-moz-animation : zoomInout 1s forwards 3500ms;
		animation: zoomInout 1s forwards 3500ms;
		}

		@-webkit-keyframes delivery_coming {
		0% {
		opacity: 0;
		transform: translateX(-100px);
		}
		100% {
		opacity: 1;
		transform: translateX(0px);
		}
		/*99.9999% {
		opacity: 1;
		transform: translateX(0px);
		}
		100% {
		opacity: 0;
		transform: translateX(-40px);
		}*/
		}

		@-moz-keyframes delivery_coming {
		0% {
		opacity: 0;
		transform: translateX(-100px);
		}
		100% {
		opacity: 1;
		transform: translateX(0px);
		}
		/*99.9999% {
		opacity: 1;
		transform: translateX(0px);
		}
		100% {
		opacity: 0;
		transform: translateX(-40px);
		}*/
		}

		@keyframes delivery_coming {
		0% {
		opacity: 0;
		transform: translateX(-100px);
		}
		100% {
		opacity: 1;
		transform: translateX(0px);
		}
		/*99.9999% {
		opacity: 1;
		transform: translateX(0px);
		}
		100% {
		opacity: 0;
		transform: translateX(-40px);
		}*/
		}

		@-webkit-keyframes box_move {
		0% {
		transform: translateX(0px)
		}
		100% {
		transform: translateX(12px)
		}
		/*99% {
		transform: translateX(12px)
		}
		100% {
		transform: translateX(0px)
		}*/
		}

		@-moz-keyframes box_move {
		0% {
		transform: translateX(0px)
		}
		100% {
		transform: translateX(12px)
		}
		/*99% {
		transform: translateX(12px)
		}
		100% {
		transform: translateX(0px)
		}*/
		}

		@keyframes box_move {
		0% {
		transform: translateX(0px)
		}
		100% {
		transform: translateX(12px)
		}
		/*99% {
		transform: translateX(12px)
		}
		100% {
		transform: translateX(0px)
		}*/
		}

		@-webkit-keyframes girl_move {
		0% {
		opacity: 0;
		transform: translateX(100px);
		}
		100% {
		opacity: 1;
		transform: translateX(0);
		}
		}

		@-moz-keyframes  girl_move {
		0% {
		opacity: 0;
		transform: translateX(100px);
		}
		100% {
		opacity: 1;
		transform: translateX(0);
		}
		}

		@keyframes girl_move {
		0% {
		opacity: 0;
		transform: translateX(100px);
		}
		100% {
		opacity: 1;
		transform: translateX(0);
		}
		}


		@-webkit-keyframes full_hand_rotate {
		0% {
		transform: rotateZ(0deg);
		}
		100% {
		transform: rotateZ(5deg);
		}
		/*100% {
		transform: rotateZ(0deg);
		}*/
		}

		@-moz-keyframes full_hand_rotate {
		0% {
		transform: rotateZ(0deg);
		}
		100% {
		transform: rotateZ(5deg);
		}
		/*100% {
		transform: rotateZ(0deg);
		}*/
		}

		@keyframes full_hand_rotate {
		0% {
		transform: rotateZ(0deg);
		}
		100% {
		transform: rotateZ(5deg);
		}
		/*100% {
		transform: rotateZ(0deg);
		}*/
		}




		@-webkit-keyframes empty_hand_rotate {
		0% {
		transform: rotateZ(0deg);
		}
		100% {
		transform: rotateZ(10deg);
		}
		/*100% {
		transform: rotateZ(0deg);
		}*/
		}


		@-moz-keyframes empty_hand_rotate {
		0% {
		transform: rotateZ(0deg);
		}
		100% {
		transform: rotateZ(10deg);
		}
		/*100% {
		transform: rotateZ(0deg);
		}*/
		}


		@keyframes empty_hand_rotate {
		0% {
		transform: rotateZ(0deg);
		}
		100% {
		transform: rotateZ(10deg);
		}
		/*100% {
		transform: rotateZ(0deg);
		}*/
		}



		@-webkit-keyframes zoomInout {
		0% {
		transform: scale(0.001)
		}
		100% {
		transform: scale(1)
		}
		/*99% {
		transform: scale(1)
		}
		100% {
		transform: scale(0.02)
		}*/
		}

		@-moz-keyframes zoomInout {
		0% {
		transform: scale(0.001)
		}
		100% {
		transform: scale(1)
		}
		/*99% {
		transform: scale(1)
		}
		100% {
		transform: scale(0.02)
		}*/
		}

		@keyframes zoomInout {
		0% {
		transform: scale(0.001)
		}
		100% {
		transform: scale(1)
		}
		/*99% {
		transform: scale(1)
		}
		100% {
		transform: scale(0.02)
		}*/
		}
	</style>

    <defs>
        <linearGradient id="linear-gradient" x1="344.84" y1="143.27" x2="404.26" y2="460.4" gradientUnits="userSpaceOnUse">
            <stop offset="0" stop-color="#e4f2ff"/>
            <stop offset="1" stop-color="#deb5ff"/>
        </linearGradient>
        <linearGradient id="linear-gradient-2" x1="301.17" y1="457.22" x2="583.93" y2="97.86" xlink:href="#linear-gradient"/>
        <clipPath id="clip-path">
            <path d="M636.23,284.21C625.49,242,568.05,197.9,532.33,177.48a75.62,75.62,0,0,1-17.7-14.7c-26.7-28.89-48.35-81.17-80.25-108.37C395.76,21.49,312.66,40.81,274,95.94s-63.49,51.16-121,76.88-62.27,94.2-25.46,183c7.11,17.16,20.55,33,38.64,46.94q4.91,3.76,10.25,7.35a257.58,257.58,0,0,0,46.2,24.16,357.13,357.13,0,0,0,59.76,18.26c61.32,13.24,131.36,13.1,193.25-6.43,4.38-1.39,8.72-2.86,13-4.44q11.28-4.12,22.08-9.19a286.07,286.07,0,0,0,37-21q5.44-3.65,10.69-7.51a.33.33,0,0,0,.11-.08c1-.69,1.9-1.4,2.85-2.11q7.27-5.47,14.09-11.27C616.55,355.47,643.55,313,636.23,284.21Z"
                  style="fill:none"/>
        </clipPath>
        <linearGradient id="linear-gradient-3" x1="437.68" y1="349.44" x2="435.53" y2="455.21" gradientUnits="userSpaceOnUse">
            <stop offset="0" stop-color="#0c45ad"/>
            <stop offset="1" stop-color="#a1c7ff"/>
        </linearGradient>
        <linearGradient id="linear-gradient-4" x1="325.64" y1="384.86" x2="325.12" y2="474.84" xlink:href="#linear-gradient-3"/>
        <linearGradient id="delivering_img_6" x1="578.78" y1="152.69" x2="527.76" y2="278.84" gradientTransform="matrix(-0.34, -0.94, -0.94, 0.34, 1010.44, 725.86)" gradientUnits="userSpaceOnUse">
            <stop offset="0" stop-color="#5a86d7"/>
            <stop offset="1" stop-color="#825dd6"/>
        </linearGradient>
        <linearGradient id="linear-gradient-5" x1="526.03" y1="285.91" x2="572.64" y2="168.07" gradientTransform="matrix(-0.34, -0.94, -0.94, 0.34, 1010.44, 725.86)" gradientUnits="userSpaceOnUse">
            <stop offset="0.01" stop-color="#fff"/>
            <stop offset="1" stop-color="#fff" stop-opacity="0"/>
        </linearGradient>
        <linearGradient id="delivering_img_302" x1="564.12" y1="149.08" x2="559.29" y2="290.82" gradientUnits="userSpaceOnUse">
            <stop offset="0" stop-color="#699dfb"/>
            <stop offset="1" stop-color="#986dfa"/>
        </linearGradient>
        <linearGradient id="linear-gradient-6" x1="534.61" y1="312.04" x2="575.65" y2="208.27" gradientTransform="translate(-42.65 135.08) rotate(-15.02)" xlink:href="#linear-gradient-5"/>
        <linearGradient id="delivering_img_302-2" x1="626.74" y1="195.5" x2="558.55" y2="364.09" xlink:href="#delivering_img_302"/>
        <linearGradient id="linear-gradient-7" x1="556.24" y1="373.54" x2="618.52" y2="216.05" gradientTransform="matrix(1, 0, 0, 1, 0, 0)" xlink:href="#linear-gradient-5"/>
        <linearGradient id="delivering_img_31" x1="181.75" y1="222.22" x2="141.92" y2="103.87" gradientUnits="userSpaceOnUse">
            <stop offset="0" stop-color="#adffcf"/>
            <stop offset="1" stop-color="#8ec8f1"/>
        </linearGradient>
        <linearGradient id="delivering_img_31-2" x1="145.27" y1="309.53" x2="95.87" y2="162.78" xlink:href="#delivering_img_31"/>
        <linearGradient id="linear-gradient-8" x1="365.04" y1="143.76" x2="435.26" y2="143.76" gradientTransform="translate(6.78 -11.44) rotate(1.87)" gradientUnits="userSpaceOnUse">
            <stop offset="0" stop-color="#912785"/>
            <stop offset="1" stop-color="#ee3c97"/>
        </linearGradient>
        <linearGradient id="delivering_img_71" x1="235.07" y1="251.56" x2="239.63" y2="210.49" gradientUnits="userSpaceOnUse">
            <stop offset="0.02" stop-color="#eec0a8"/>
            <stop offset="1" stop-color="#e59393"/>
        </linearGradient>
        <linearGradient id="linear-gradient-9" x1="255.41" y1="231.51" x2="237.16" y2="203.05" gradientUnits="userSpaceOnUse">
            <stop offset="0" stop-color="#feb3a3"/>
            <stop offset="1" stop-color="#b66073"/>
        </linearGradient>
        <linearGradient id="delivering_img_45" x1="283.55" y1="179.69" x2="287.86" y2="179.69" gradientUnits="userSpaceOnUse">
            <stop offset="0" stop-color="#e2807e"/>
            <stop offset="1" stop-color="#b66073"/>
        </linearGradient>
        <linearGradient id="delivering_img_5" x1="211.53" y1="147.2" x2="207.06" y2="195.52" gradientUnits="userSpaceOnUse">
            <stop offset="0" stop-color="#421f5a"/>
            <stop offset="1" stop-color="#342d7a"/>
        </linearGradient>
        <linearGradient id="delivering_img_71-2" x1="248.46" y1="195.53" x2="248.46" y2="143.99" xlink:href="#delivering_img_71"/>
        <linearGradient id="linear-gradient-10" x1="267.27" y1="172.87" x2="252.62" y2="140.96" xlink:href="#linear-gradient-9"/>
        <linearGradient id="delivering_img_71-3" x1="210.35" y1="185.61" x2="200.51" y2="150.91" xlink:href="#delivering_img_71"/>
        <linearGradient id="delivering_img_5-2" x1="217.75" y1="145.43" x2="213.28" y2="170.66" xlink:href="#delivering_img_5"/>
        <linearGradient id="delivering_img_264" x1="205.94" y1="134.99" x2="291.22" y2="134.99" gradientUnits="userSpaceOnUse">
            <stop offset="0" stop-color="#b3a9f0"/>
            <stop offset="1" stop-color="#dbcff2"/>
        </linearGradient>
        <linearGradient id="delivering_img_3" x1="260.69" y1="152.28" x2="317.85" y2="152.28" gradientUnits="userSpaceOnUse">
            <stop offset="0" stop-color="#4b2366"/>
            <stop offset="1" stop-color="#393286"/>
        </linearGradient>
        <linearGradient id="delivering_img_25" x1="228.94" y1="148.14" x2="317.85" y2="148.14" gradientUnits="userSpaceOnUse">
            <stop offset="0" stop-color="#77449b"/>
            <stop offset="1" stop-color="#6057bb"/>
        </linearGradient>
        <linearGradient id="linear-gradient-11" x1="242.54" y1="119.23" x2="219.76" y2="140.51" gradientUnits="userSpaceOnUse">
            <stop offset="0" stop-color="#b3a9f0"/>
            <stop offset="1" stop-color="#dbcff2" stop-opacity="0"/>
        </linearGradient>
        <linearGradient id="linear-gradient-12" x1="277.07" y1="182.9" x2="243.25" y2="217.62" gradientTransform="translate(-0.53 0.71) rotate(-0.18)" xlink:href="#linear-gradient-11"/>
        <linearGradient id="delivering_img_25-2" x1="303.49" y1="323.73" x2="287.38" y2="242.12" xlink:href="#delivering_img_25"/>
        <linearGradient id="linear-gradient-13" x1="312.07" y1="291" x2="298.38" y2="252.62" gradientUnits="userSpaceOnUse">
            <stop offset="0" stop-color="#77449b" stop-opacity="0"/>
            <stop offset="1" stop-color="#6057bb"/>
        </linearGradient>
        <linearGradient id="linear-gradient-14" x1="300.43" y1="296.72" x2="292.38" y2="252.15" gradientUnits="userSpaceOnUse">
            <stop offset="0" stop-color="#92a1e1" stop-opacity="0"/>
            <stop offset="1" stop-color="#6e5cb6"/>
        </linearGradient>
        <linearGradient id="delivering_img_25-3" x1="237.16" y1="444.85" x2="225.34" y2="241.36" xlink:href="#delivering_img_25"/>
        <linearGradient id="linear-gradient-15" x1="213.06" y1="450.84" x2="209.84" y2="321.27" xlink:href="#linear-gradient-14"/>
        <linearGradient id="delivering_img_264-2" x1="213.34" y1="223.79" x2="237.33" y2="258.51" xlink:href="#delivering_img_264"/>
        <linearGradient id="delivering_img_264-3" x1="253.78" y1="260.94" x2="253.78" y2="231.49" xlink:href="#delivering_img_264"/>
        <linearGradient id="linear-gradient-16" x1="360.11" y1="413.34" x2="327.36" y2="283.41" gradientUnits="userSpaceOnUse">
            <stop offset="0" stop-color="#518334"/>
            <stop offset="1" stop-color="#bfce4e"/>
        </linearGradient>
        <linearGradient id="linear-gradient-17" x1="420.73" y1="413.6" x2="422.34" y2="263.8" gradientUnits="userSpaceOnUse">
            <stop offset="0" stop-color="#275923"/>
            <stop offset="1" stop-color="#9aa450"/>
        </linearGradient>
        <linearGradient id="linear-gradient-18" x1="486.76" y1="355.78" x2="381.53" y2="281.69" gradientUnits="userSpaceOnUse">
            <stop offset="0" stop-color="#6ba543"/>
            <stop offset="1" stop-color="#c5d359"/>
        </linearGradient>
        <linearGradient id="delivering_img_3-2" x1="260.26" y1="409.62" x2="269.83" y2="409.62" xlink:href="#delivering_img_3"/>
        <linearGradient id="delivering_img_25-4" x1="206.42" y1="413.86" x2="165.61" y2="251.36" xlink:href="#delivering_img_25"/>
        <linearGradient id="linear-gradient-19" x1="169.54" y1="389.83" x2="268.28" y2="389.83" xlink:href="#linear-gradient-13"/>
        <linearGradient id="delivering_img_71-4" x1="260.92" y1="402.56" x2="330.21" y2="402.56" xlink:href="#delivering_img_71"/>
        <linearGradient id="linear-gradient-20" x1="299.18" y1="385.61" x2="293.79" y2="419.69" xlink:href="#linear-gradient-9"/>
        <linearGradient id="linear-gradient-21" x1="307.88" y1="384.14" x2="288.46" y2="400.24" xlink:href="#linear-gradient-9"/>
        <linearGradient id="delivering_img_71-5" x1="471.73" y1="208.99" x2="517.1" y2="201.21" xlink:href="#delivering_img_71"/>
        <linearGradient id="linear-gradient-22" x1="486.15" y1="238.9" x2="489.5" y2="219.17" xlink:href="#linear-gradient-9"/>
        <linearGradient id="linear-gradient-23" x1="499.43" y1="223.06" x2="498.36" y2="210.45" xlink:href="#linear-gradient-9"/>
        <linearGradient id="linear-gradient-24" x1="503.83" y1="253.52" x2="529.24" y2="232.31" xlink:href="#linear-gradient-9"/>
        <linearGradient id="delivering_img_71-6" x1="515.37" y1="277.17" x2="538.02" y2="240.51" xlink:href="#delivering_img_71"/>
        <linearGradient id="linear-gradient-25" x1="536.83" y1="261.47" x2="537.77" y2="233.97" xlink:href="#linear-gradient-9"/>
        <linearGradient id="linear-gradient-26" x1="511.41" y1="261.92" x2="526.35" y2="228.54" xlink:href="#linear-gradient-9"/>
        <linearGradient id="linear-gradient-27" x1="487.25" y1="229.97" x2="484.53" y2="237.81" xlink:href="#linear-gradient-11"/>
        <linearGradient id="delivering_img_71-7" x1="494.27" y1="209.44" x2="505.97" y2="216.74" xlink:href="#delivering_img_71"/>
        <linearGradient id="delivering_img_322" x1="545.53" y1="314.43" x2="481.84" y2="399.95" gradientUnits="userSpaceOnUse">
            <stop offset="0" stop-color="#98208a"/>
            <stop offset="1" stop-color="#d9187b"/>
        </linearGradient>
        <linearGradient id="linear-gradient-28" x1="545.97" y1="335.63" x2="519.03" y2="413" gradientUnits="userSpaceOnUse">
            <stop offset="0" stop-color="#8e1e81"/>
            <stop offset="1" stop-color="#cf1775" stop-opacity="0"/>
        </linearGradient>
        <linearGradient id="linear-gradient-29" x1="489.62" y1="324.86" x2="476.74" y2="397.88" xlink:href="#linear-gradient-28"/>
        <linearGradient id="delivering_img_71-8" x1="304.35" y1="360.31" x2="459.63" y2="360.31" xlink:href="#delivering_img_71"/>
        <linearGradient id="linear-gradient-30" x1="336.56" y1="322.64" x2="436.95" y2="398.07" xlink:href="#linear-gradient-9"/>
        <linearGradient id="delivering_img_322-2" x1="505.65" y1="265.54" x2="453.75" y2="362.54" xlink:href="#delivering_img_322"/>
        <linearGradient id="linear-gradient-31" x1="429.66" y1="306.55" x2="522.81" y2="306.55" xlink:href="#linear-gradient-13"/>
        <linearGradient id="delivering_img_5-3" x1="552.29" y1="248.77" x2="513.1" y2="153.74" xlink:href="#delivering_img_5"/>
        <linearGradient id="linear-gradient-32" x1="546.54" y1="259.27" x2="534.73" y2="200.75" gradientUnits="userSpaceOnUse">
            <stop offset="0" stop-color="#421f5a"/>
            <stop offset="1" stop-color="#342d7a" stop-opacity="0"/>
        </linearGradient>
        <linearGradient id="linear-gradient-33" x1="533.32" y1="152.91" x2="562.8" y2="152.91" xlink:href="#linear-gradient-32"/>
        <linearGradient id="delivering_img_5-4" x1="453.26" y1="180.55" x2="499.79" y2="248.02" xlink:href="#delivering_img_5"/>
        <linearGradient id="delivering_img_264-4" x1="548.74" y1="260.47" x2="563.77" y2="260.47" xlink:href="#delivering_img_264"/>
        <linearGradient id="linear-gradient-34" x1="554.58" y1="263.11" x2="562.81" y2="258.51" xlink:href="#linear-gradient-11"/>
        <linearGradient id="delivering_img_5-5" x1="560.68" y1="266.94" x2="577.6" y2="343.98" xlink:href="#delivering_img_5"/>
        <linearGradient id="linear-gradient-35" x1="561.22" y1="256.69" x2="566.59" y2="356.73" xlink:href="#linear-gradient-32"/>
        <linearGradient id="linear-gradient-36" x1="568.54" y1="256.3" x2="573.91" y2="356.34" xlink:href="#linear-gradient-32"/>
    </defs>
    <title>parcel-delivery</title>
    <g style="isolation:isolate">
        <g id="BACKGROUND">
            <rect width="750" height="500" style="fill:#fefefe"/>
        </g>
        <g id="OBJECTS">
            <path d="M575.44,390.48q-6.81,5.77-14.09,11.27c-1,.71-1.89,1.42-2.85,2.11a.33.33,0,0,1-.11.08q-5.24,3.85-10.69,7.51a286.07,286.07,0,0,1-37,21q-10.8,5.07-22.08,9.19c-4.29,1.58-8.63,3.05-13,4.44-61.89,19.53-131.93,19.67-193.25,6.43a357.13,357.13,0,0,1-59.76-18.26,257.58,257.58,0,0,1-46.2-24.16q-5.35-3.58-10.25-7.35c-18.09-13.93-31.53-29.78-38.64-46.94C90.75,267,95.49,198.53,153,172.82s82.39-21.75,121-76.88S395.76,21.49,434.38,54.41c31.9,27.2,53.55,79.48,80.25,108.37a75.62,75.62,0,0,0,17.7,14.7c35.72,20.42,93.16,64.51,103.9,106.73C643.55,313,616.55,355.47,575.44,390.48Z"
                  style="fill:url(#linear-gradient)"/>
            <path d="M575.44,390.48q-6.81,5.77-14.09,11.27c-1,.71-1.89,1.42-2.85,2.11a.33.33,0,0,1-.11.08q-5.24,3.85-10.69,7.51a286.07,286.07,0,0,1-37,21q-10.8,5.07-22.08,9.19c-4.29,1.58-8.63,3.05-13,4.44-61.89,19.53-131.93,19.67-193.25,6.43a357.13,357.13,0,0,1-59.76-18.26,257.58,257.58,0,0,1-46.2-24.16c-6.73-27.63-8.07-63,11.3-97.26,40.78-72.13,144.11-55.67,214.33-70.43,50.43-10.59,83.59-50.21,112.55-79.62a75.62,75.62,0,0,0,17.7,14.7c35.72,20.42,93.16,64.51,103.9,106.73C643.55,313,616.55,355.47,575.44,390.48Z"
                  style="fill:url(#linear-gradient-2)"/>
            <g style="clip-path:url(#clip-path)">
                <path d="M504.08,395.77c-4.22,35.44-21.94,61.09-21.94,61.09l-28.35,1-2,.07-17.84.64-1.38,0-6.62.23-1.46.06-55.56,2s-8.24-89.83,35.76-113.44S508.3,360.34,504.08,395.77Z"
                      style="fill:url(#linear-gradient-3)"/>
                <path d="M489.09,392.49,434,450.81v7.77l-1.38,0V423.76L419,392.29a.69.69,0,0,1,.36-.91.67.67,0,0,1,.9.36l12.35,28.53V360.88a.69.69,0,0,1,.69-.7.7.7,0,0,1,.69.7V448.8L449.79,432l7-45.23a.69.69,0,0,1,1.37.22l-6.66,43.25,36.6-38.73a.71.71,0,0,1,1,0A.68.68,0,0,1,489.09,392.49Z"
                      style="fill:#c7f2ff"/>
                <path d="M476.85,433.91l-23.06,24-2,.07,24.06-25a.72.72,0,0,1,1,0A.68.68,0,0,1,476.85,433.91Z" style="fill:#c7f2ff"/>
                <path d="M426,458.85l-1.46.06-8.07-22.61-30.22-19a.7.7,0,0,1-.21-1,.71.71,0,0,1,1-.22l28.71,18.06-15-41.93a.7.7,0,0,1,1.32-.47Z" style="fill:#c7f2ff"/>
                <path d="M387.08,479.06l-56.62-8.4-2.53-.38-4.88-.73-1.37-.19-6.34-.94-1.92-.29-16.28-2.42h0l-3-.44-32.83-4.86s-16.7-50.29,21.7-66.89,99.82,10.74,107.23,36.23S387.08,479.06,387.08,479.06Z"
                      style="fill:url(#linear-gradient-4)"/>
                <path d="M315.34,468.42l-1.92-.29-39.76-53.27a.69.69,0,0,1,1.11-.82l31.39,42.09-1.53-51.35a.68.68,0,0,1,.66-.69.7.7,0,0,1,.71.65L307.58,458Z" style="fill:#c7f2ff"/>
                <path d="M384.93,446.87,352.35,461.1l23.22,2.6a.68.68,0,0,1,.6.75.69.69,0,0,1-.69.62.13.13,0,0,1-.08,0l-25.57-2.85-19.37,8.46-2.53-.38,8.28-3.63,22.25-34.29a.69.69,0,0,1,1.15.75L338.5,465.66l45.88-20.05a.69.69,0,0,1,.91.36A.69.69,0,0,1,384.93,446.87Z"
                      style="fill:#c7f2ff"/>
                <path d="M343.54,408.08l-20.49,61.47-1.37-.19,9.16-27.51-7.92-22.68a.7.7,0,0,1,.43-.88.68.68,0,0,1,.86.41l7.34,21,10.69-32.08a.67.67,0,0,1,.87-.43A.69.69,0,0,1,343.54,408.08Z"
                      style="fill:#c7f2ff"/>
                <path d="M297.12,465.71l-3-.44-26-18.48a.68.68,0,0,1-.15-1,.68.68,0,0,1,.95-.16Z" style="fill:#c7f2ff"/>
            </g>
            <path d="M425.69,302.88l-.64-.27c13.3-31.46,18.66-59.72,15.92-84l.69-.07C444.41,242.93,439,271.31,425.69,302.88Z" style="fill:#fff"/>
            <path d="M441.46,220s-10.81-7.26-7.22-12.7c3.91-5.91,8.81-4,10.39.87S441.46,220,441.46,220Z" style="fill:#fff"/>
            <path d="M441.91,235.84s-12.63,3.16-14.25-3.15c-1.77-6.85,2.9-9.24,7.6-7.13S441.91,235.84,441.91,235.84Z" style="fill:#fff"/>
            <path d="M441.91,235.84s2.47-12.78,8.87-11.59c7,1.29,7.16,6.53,3.26,9.9S441.91,235.84,441.91,235.84Z" style="fill:#fff"/>
            <path d="M439.72,255.88s-13,1.11-13.58-5.38c-.65-7.05,4.34-8.66,8.65-5.83S439.72,255.88,439.72,255.88Z" style="fill:#fff"/>
            <path d="M439.72,255.88s4.47-12.23,10.6-10c6.67,2.38,6,7.59,1.64,10.3S439.72,255.88,439.72,255.88Z" style="fill:#fff"/>
            <path d="M435.86,272.87s-13-.32-12.9-6.84c.12-7.08,5.26-8.13,9.23-4.84S435.86,272.87,435.86,272.87Z" style="fill:#fff"/>
            <path d="M435.86,272.87s5.78-11.66,11.64-8.82c6.37,3.1,5.15,8.21.5,10.42S435.86,272.87,435.86,272.87Z" style="fill:#fff"/>
            <path d="M430.72,289.05s-13-1.31-12.34-7.8c.66-7.05,5.87-7.7,9.57-4.12S430.72,289.05,430.72,289.05Z" style="fill:#fff"/>
            <path d="M430.72,289.05s6.66-11.19,12.28-7.9c6.12,3.57,4.51,8.57-.3,10.42S430.72,289.05,430.72,289.05Z" style="fill:#fff"/>
            <path d="M340.2,310.43c-10.3-24.38-14.45-46.29-12.33-65.14l.69.08c-2.11,18.72,2,40.52,12.28,64.79Z" style="fill:#fff"/>
            <path d="M328.1,246.41s8.35-5.6,5.58-9.8c-3-4.56-6.8-3.11-8,.67S328.1,246.41,328.1,246.41Z" style="fill:#fff"/>
            <path d="M327.75,258.67s9.75,2.43,11-2.44c1.37-5.29-2.24-7.13-5.87-5.5S327.75,258.67,327.75,258.67Z" style="fill:#fff"/>
            <path d="M327.75,258.67s-1.9-9.87-6.84-9c-5.38,1-5.52,5-2.52,7.65S327.75,258.67,327.75,258.67Z" style="fill:#fff"/>
            <path d="M329.45,274.13s10,.85,10.48-4.15c.5-5.45-3.35-6.69-6.68-4.5S329.45,274.13,329.45,274.13Z" style="fill:#fff"/>
            <path d="M329.45,274.13s-3.45-9.44-8.18-7.75c-5.15,1.84-4.65,5.86-1.27,7.95S329.45,274.13,329.45,274.13Z" style="fill:#fff"/>
            <path d="M332.43,287.24s10-.25,10-5.27c-.1-5.47-4.07-6.28-7.13-3.74S332.43,287.24,332.43,287.24Z" style="fill:#fff"/>
            <path d="M332.43,287.24s-4.47-9-9-6.8c-4.91,2.39-4,6.33-.38,8S332.43,287.24,332.43,287.24Z" style="fill:#fff"/>
            <path d="M336.39,299.73s10-1,9.53-6c-.51-5.45-4.53-6-7.39-3.19S336.39,299.73,336.39,299.73Z" style="fill:#fff"/>
            <path d="M336.39,299.73s-5.13-8.63-9.47-6.1c-4.72,2.76-3.49,6.62.22,8.05S336.39,299.73,336.39,299.73Z" style="fill:#fff"/>
            <circle cx="334.67" cy="84.18" r="9.37" transform="translate(-10.41 80.76) rotate(-13.55)" style="fill:#fff"/>
            <circle cx="385.01" cy="54.49" r="3.88" style="fill:#fff"/>
            <path d="M472.88,145.52a2,2,0,1,1-2-2A2,2,0,0,1,472.88,145.52Z" style="fill:#fff"/>
            <path d="M371.94,229.08a2,2,0,1,1-2-2A2,2,0,0,1,371.94,229.08Z" style="fill:#fff"/>
            <path d="M308.23,217.63a4.66,4.66,0,1,1-4.66-4.65A4.66,4.66,0,0,1,308.23,217.63Z" style="fill:none;stroke:#fff;stroke-miterlimit:10;stroke-width:0.668982px"/>
            <path d="M433.64,94.14a3.58,3.58,0,1,1-3.58-3.58A3.58,3.58,0,0,1,433.64,94.14Z" style="fill:none;stroke:#fff;stroke-miterlimit:10;stroke-width:0.668982px"/>
            <path d="M466.93,195.8a2.51,2.51,0,1,1-2.51-2.51A2.5,2.5,0,0,1,466.93,195.8Z" style="fill:none;stroke:#fff;stroke-miterlimit:10;stroke-width:0.668982px"/>
            <circle cx="398.92" cy="240.76" r="6.08" style="fill:#fff"/>
            <path d="M417.89,218.21a3.94,3.94,0,1,1-3.94-3.94A3.93,3.93,0,0,1,417.89,218.21Z" style="fill:#fff"/>
            <path d="M551.5,358.08c1,.45,91.45-44,113.34-88.76s15.82-65.18,15.82-65.18-99.21,50-130.46,108.57C550.2,312.71,527.67,347.36,551.5,358.08Z" style="fill:url(#delivering_img_6)"/>
            <path d="M549,348q15.13-14,30-28.14t29.49-28.63q14.63-14.43,28.79-29.33c9.4-10,18.71-20,27.13-30.85-8.65,10.62-18.15,20.5-27.76,30.24S617.19,280.57,607.24,290s-20,18.74-30.06,28-20.28,18.4-30.53,27.45Z"
                  style="fill:url(#linear-gradient-5)"/>
            <path d="M538.87,320.65c-.84-.5-14.33-88.21,6.92-126.57s39.08-44.29,39.08-44.29,13.93,96.83-12.59,148.91C572.28,298.7,558.62,332.44,538.87,320.65Z" style="fill:url(#delivering_img_302)"/>
            <path d="M547.42,317.38q2.43-18,5.19-35.83t5.79-35.73q3-17.83,6.66-35.57c2.45-11.81,5-23.61,8.59-35.14-3.31,11.6-5.64,23.44-7.83,35.29s-4.12,23.75-5.9,35.67-3.47,23.85-5,35.81-3,23.91-4.42,35.87Z"
                  style="fill:url(#linear-gradient-6)"/>
            <path d="M524.29,400.62c-1-1.06,13.67-134.94,59.91-182.81s74.69-49.55,74.69-49.55-17.65,147.41-77,213.33C581.88,381.59,548.6,425.68,524.29,400.62Z" style="fill:url(#delivering_img_302-2)"/>
            <path d="M538.1,399.19q10.62-25.35,21.69-50.48t22.55-50.09q11.48-24.94,23.74-49.53c8.23-16.35,16.67-32.63,26.41-48.14-9.41,15.71-17.49,32.15-25.36,48.65s-15.37,33.2-22.66,50S570,333.18,563,350.09s-13.88,33.85-20.58,50.85Z"
                  style="fill:url(#linear-gradient-7)"/>
            <path d="M195.23,269.16c-6.27.69-14.95-1.4-23.59-4.65l-1.39-.53c-13.19-5.13-26-12.76-29.86-17,0,0-33.28-32.89-19-52.58s21.84-9.29,31.15-14.66,3.22-49.59,3.93-69,22.91-44.12,37.58-26.58-7.88,85.33-1.79,96.53,31.25.12,31.74,29.82S211.42,267.37,195.23,269.16Z"
                  style="fill:url(#delivering_img_31)"/>
            <path d="M202.79,207.3c-6.21,18.06-28.87,44.58-31,47-.1,3.61-.15,7-.18,10.21l-1.39-.53c0-3.09.1-6.4.18-9.9.2-7.42.49-15.63.88-24.28-13.61-9.16-25.13-30-25.62-30.93a.69.69,0,0,1,.28-.93.68.68,0,0,1,.94.26c.11.22,11.44,20.74,24.47,30,2.4-53.4,7.71-122.5,7.78-123.43a.7.7,0,0,1,1.39.11c-.09,1.07-7.2,93.68-8.67,147.26,5.09-6,24.06-29.13,29.61-45.26a.68.68,0,0,1,.87-.43A.7.7,0,0,1,202.79,207.3Z"
                  style="fill:#fff"/>
            <path d="M185,297.73c-1.78,11.84-7.51,32.83-14.07,49.21-.23.58-.47,1.16-.7,1.73-5.14,12.42-10.71,21.76-15.3,21.68-10.74-.18-27.38-14.55-27.38-14.55-1.72-2.45-8.06-24-31.68-42.93s-37.49-48.54-18.21-52.53,33.24,17.93,36.46.8S76,200.1,82.45,169.41c4.3-20.35,17.73-33.61,37.05-14.94s15,61.18,25.24,67.84,12.89-19.91,30.06-6.09S188.22,276.3,185,297.73Z"
                  style="fill:url(#delivering_img_31-2)"/>
            <path d="M170.94,346.94c-.23.58-.47,1.16-.7,1.73-4.43-9.29-9-20-13.65-31.43-31-10.62-66.44-36.86-66.8-37.14a.69.69,0,0,1,.83-1.11c.35.26,34.73,25.74,65.27,36.53-.55-1.38-1.11-2.78-1.66-4.2a.47.47,0,0,1-.11-.26c-22.35-56.45-44.07-126.4-44.36-127.31a.73.73,0,0,1,.46-.88.7.7,0,0,1,.87.46c.28.9,21.47,69.14,43.5,125.15,2.23-11.08,11.6-59,10.9-77a.7.7,0,0,1,.67-.73.71.71,0,0,1,.72.67c.76,19.86-10.53,75.35-11.35,79.39C160.72,324,166,336.36,170.94,346.94Z"
                  style="fill:#fff"/>
            <path d="M426.51,159.69a39.57,39.57,0,1,0-74.11,20.09c-3.68,5.11-10.93,12.95-21.22,13.74,0,0,17.83,4.69,31.5-1.8a39.57,39.57,0,0,0,63.83-32Z" style="fill:#fff"/>


            <path
                    id="tick-mark"
                    d="M366.61,154.71s14.09,6.92,20,21.39c0,0,23.26-36.66,51-42l-6-19.19s-35.76,22.86-44.94,46.69c0,0-10.43-15.92-18.43-16.62Z" style="fill:url(#linear-gradient-8)"/>


            <g id="delivery_boy_with_box">
                <g id="delivery_boy">
                    <path d="M259.9,226.69a33.28,33.28,0,0,0-1.11,10.18S257.73,251.1,242.41,250s-29.3-15.62-30.08-24.72c0,0,4.67-7.6,8.32-15.2,2-4.12,3.68-8.22,4.16-11.15L265,212.82A73.13,73.13,0,0,0,259.9,226.69Z"
                          style="fill:url(#delivering_img_71)"/>
                    <path d="M265,212.82a73.13,73.13,0,0,0-5.13,13.87c-5.06,2.7-10.65,5.16-15.6,6.16-9.43,1.88-18.86-13.46-23.65-22.75,2-4.12,3.68-8.22,4.16-11.15Z" style="fill:url(#linear-gradient-9)"/>
                    <path d="M284.55,171.64s2.58-.56,3.23,1.68-2.66,14.49-2.66,14.49S282,176.54,284.55,171.64Z" style="fill:url(#delivering_img_45)"/>
                    <path d="M205.93,149.83S204.61,166,204.68,171s3.44,23.06,4.35,24.1,3.1,3.49,3.1,3.49L216,149.83l-5.45-2.72Z" style="fill:url(#delivering_img_5)"/>
                    <path d="M289.69,150c.19,6.74-2,13.67-3.63,21.11-.11.48-.21,1-.29,1.41a60.67,60.67,0,0,0-.78,15.88,56.88,56.88,0,0,1-.27,10.77c-1.34,9.34-28.06,30.73-37.41,28.05s-32.08-20-34.74-26.72-5.36-42.76-5.36-42.76c0-14.69,6.69-26.73,21.39-37.41s50.78,6.67,57.46,17.36A23.49,23.49,0,0,1,289.69,150Z"
                          style="fill:url(#delivering_img_71-2)"/>
                    <path d="M289.69,150c.19,6.74-2,13.67-3.63,21.11-.11.48-.21,1-.29,1.41-8.6-.15-24-5.09-30.19-6.89-7.12-2.1-30.6-13.21-30.6-13.21a58.16,58.16,0,0,1,13.7-12.62c7.81-4.82,30.53-.26,30.53-.26S282,145.33,289.69,150Z"
                          style="opacity:0.5700000000000001;fill:url(#linear-gradient-10)"/>
                    <path d="M211.21,176a31.26,31.26,0,0,1-.23,4.67,19.26,19.26,0,0,1-2.85-.8c-.42-.15-.89-.32-1.37-.54-3.43-1.48-7.7-4.43-7.64-9.9,0-6.18,3.33-9,6.73-9.39a8.07,8.07,0,0,1,1.63,0,7.27,7.27,0,0,1,1.79.41h0a7.44,7.44,0,0,1,1.14.52s0,0,0,.06.15,1.73.31,3.93h0C211,168.11,211.21,172.5,211.21,176Z"
                          style="fill:url(#delivering_img_71-3)"/>
                    <path d="M227.7,148.44l-3.95,7.63s-5,6-6.22,10.22-5.29,12.28-5.29,12.28a11.12,11.12,0,0,1-1-2.54c-1.15-4.49-.57-10.67-.53-11h0c-.19-2.34-.34-4-.34-4a7.35,7.35,0,0,0-4.62-.91l-.07-.06.74-9.9Z"
                          style="fill:url(#delivering_img_5-2)"/>
                    <path d="M259.41,182.38c-.1-.21-.2-.42-.29-.63a12.85,12.85,0,0,1-.4-1.34c-.1-.45-.19-.89-.3-1.34-.05-.25-.12-.5-.18-.74a1.8,1.8,0,0,0-.32-.75.38.38,0,0,0-.63.17,2.09,2.09,0,0,0,.08.82c.05.25.09.5.13.76.07.48.13,1,.21,1.44a10.46,10.46,0,0,0,.31,1.37,7.15,7.15,0,0,0,.29.77,1.73,1.73,0,0,0,.49.78.58.58,0,0,0,1-.56A2.24,2.24,0,0,0,259.41,182.38Z"
                          style="fill:#e3837f"/>
                    <path d="M274,169.8a4.11,4.11,0,0,0-2.09-2.23,9.61,9.61,0,0,0-3-1.07,5.12,5.12,0,0,0-3.27.37,5.89,5.89,0,0,0-1.29.88,5.08,5.08,0,0,0-1.16,1.33.2.2,0,0,0,.22.29,14.06,14.06,0,0,0,2.4-1.45,4.16,4.16,0,0,1,2.8-.31,6.12,6.12,0,0,1,4.31,2.66A.61.61,0,0,0,274,169.8Z"
                          style="fill:#55379f"/>
                    <path d="M273.63,159.15a4.33,4.33,0,0,0-2-1.22,8.43,8.43,0,0,0-2.54-.45A6,6,0,0,0,264.7,159c-.08.07,0,.21.11.15a6.53,6.53,0,0,1,4.3-.76,8.8,8.8,0,0,1,2.16.49,8.64,8.64,0,0,1,1.79,1C273.55,160.2,273.93,159.54,273.63,159.15Z"
                          style="fill:#55379f"/>
                    <path d="M250.14,167.49a14.39,14.39,0,0,0-1.41-.94,7,7,0,0,0-3.19-.9c-1.87-.06-4.52.49-5.56,2.23-.11.19.13.45.32.32a8.35,8.35,0,0,1,5.33-1.46,6.41,6.41,0,0,1,2.72.91c.42.25.82.53,1.22.82s.82.76,1.35.69a.4.4,0,0,0,.37-.49C251.2,168.12,250.55,167.79,250.14,167.49Z"
                          style="fill:#55379f"/>
                    <path d="M250.34,158.08a8.81,8.81,0,0,0-2.13-1,8.43,8.43,0,0,0-2.22-.57,4.8,4.8,0,0,0-2.13.26,3.92,3.92,0,0,0-1.86,1.45c-.08.11.08.26.19.19a5.4,5.4,0,0,1,4-1A9.85,9.85,0,0,1,248,158a13.9,13.9,0,0,0,2,.84A.41.41,0,0,0,250.34,158.08Z"
                          style="fill:#55379f"/>
                    <path d="M291.18,147.1a54,54,0,0,1-1.93,9.39s-19.79-12.44-26.68-12.09S236.88,151,236.88,151L229,152.76c-1.25-.07-2.6-.18-4-.32h0c-8.7-.83-19-2.62-19-2.62s2.48-11.8,6.63-18.35c1.92-3.05,6.38-7.61,12.56-11.37h0c7.11-4.34,16.51-7.63,26.94-6.31,12.92,1.62,26.19,9.57,30.78,14.78S291.71,142.22,291.18,147.1Z"
                          style="fill:url(#delivering_img_264)"/>
                    <path d="M317.85,161l-57.16-8.64c4.69-2.81,13.08-6.74,25.57-8.56,16.57-2.42,26.88,9.33,30.32,14.08,0,0,0,0,0,0A25.5,25.5,0,0,1,317.85,161Z" style="fill:url(#delivering_img_3)"/>
                    <path d="M317.85,161s-1.27-3.11-1.27-3.12c-3.44-4.75-13.75-16.5-30.32-14.08-12.49,1.82-20.88,5.75-25.57,8.56a28.78,28.78,0,0,0-4.55,3.22l-27.2-2.86s16.61-15.45,31.75-17.2,40.72,3.82,48.53,11S317.85,161,317.85,161Z"
                          style="fill:url(#delivering_img_25)"/>
                    <path d="M225,152.44h0c-8.7-.83-19-2.62-19-2.62s2.48-11.8,6.63-18.35c1.92-3.05,6.38-7.61,12.56-11.37h0c6.32-.94,13.77-1.33,14.81,1.79C241.79,127.44,225,152.44,225,152.44Z"
                          style="opacity:0.56;mix-blend-mode:multiply;fill:url(#linear-gradient-11)"/>
                    <path d="M284.72,199.19c-1.34,9.34-28.06,30.73-37.41,28.05-3.76-1.06-9.64-4.49-15.52-8.65l0,0c-8.81-6.21-17.59-14-19.18-18,0,0,4.49-2.47,6-4.57,5.38-7.49,3.48-13.44,3.48-13.44s27.33-3.12,35.59-1.81S285,188.42,285,188.42c0,.88.07,1.76.09,2.64A46.24,46.24,0,0,1,284.72,199.19Z"
                          style="fill:#3b2569"/>
                    <path d="M212.56,200.53v0c-.14-.33-4.68-10.76-5.8-21.14.48.22,1,.39,1.37.54a67.93,67.93,0,0,0,5.78,19.8c.08.19.16.35.23.51Z" style="fill:#fff"/>
                    <path d="M223.68,182.86l-1.42.77c-2.69-7.35-8.35-19.85-11.8-22.57,0,0,0-.06,0-.06a2.15,2.15,0,0,0-1.07-.52h-.08a7.27,7.27,0,0,0-1.79-.41,2.27,2.27,0,0,1,2-.91c4.8.41,12.43,19.38,14,23.2C223.56,182.58,223.63,182.76,223.68,182.86Z"
                          style="fill:#fff"/>
                    <path d="M284.69,199.1c-1.3,9.36-28,30.83-37.32,28.18-3.76-1.06-9.65-4.47-15.54-8.61.69.12,10.31,1.9,16,2.66,5.91.78,18.65-9.05,21.38-15.63s3.1-14.17,0-15.88c-2.67-1.44-14-4.8-20.56-5.43,5,.08,14.8.41,19.62,1.57,5,1.22,13.23,3.83,16.81,5A45.08,45.08,0,0,1,284.69,199.1Z"
                          style="opacity:0.41000000000000003;fill:url(#linear-gradient-12)"/>
                    <path d="M317.85,298.08l-3.52.34-6.45.64-10.42,1-17.72,1.74v-62a72.24,72.24,0,0,1,8.5,5.91s0,0,0,0c.88.69,1.81,1.46,2.74,2.28h0c1.22,1.07,2.47,2.23,3.69,3.47a53.09,53.09,0,0,1,5.68,6.78C308.28,269.62,317.85,298.08,317.85,298.08Z"
                          style="fill:#d10513"/>
                    <path d="M317.85,298.08l-3.52.34c-1.92-7.13-9.86-35.3-19.61-46.86a53.09,53.09,0,0,1,5.68,6.78C308.28,269.62,317.85,298.08,317.85,298.08Z"
                          style="opacity:0.58;mix-blend-mode:screen;fill:url(#linear-gradient-13)"/>
                    <path d="M307.88,299.06l-10.42,1c-.41-12.22-1.43-22.85-3-29.13A90.74,90.74,0,0,0,284,246.23C284.81,246.76,303.13,259.45,307.88,299.06Z"
                          style="opacity:0.72;mix-blend-mode:multiply;fill:#d10513"/>
                    <path d="M297.27,330.78c-.65,13.73-2,26.84-4.29,36.1-4.91,20.24-9.12,68-10.57,85.63a357.13,357.13,0,0,1-59.76-18.26c-21.57-8.78-40.75-19.43-56.45-31.51-.22-21.92-1.75-52.33-3.87-65.57a106.69,106.69,0,0,1-.79-15c-.07-28.74,4.48-80.88,9.74-83.81,6.44-3.59,32.94-9,32.94-9s16,17.47,40.08,17.91c14.9.26,19-13.25,19-13.25l16.47,5.77a69.92,69.92,0,0,1,4.27,6.36h0A90.74,90.74,0,0,1,294.49,271C297.24,282.22,298.34,307.41,297.27,330.78Z"
                          style="fill:#d10513"/>
                    <path d="M260.76,423.43A110.18,110.18,0,0,1,242.84,431c-2.74.8-10.69,2-20.19,3.3-21.57-8.78-40.75-19.43-56.45-31.51-.22-21.92-1.75-52.33-3.87-65.57a106.69,106.69,0,0,1-.79-15l1.87-15.8L190,250.07s7.32,16.59,5.17,34.84c0,0-4.35,34.61-5.17,45.94s0,68.25,0,68.25Z"
                          style="opacity:0.72;mix-blend-mode:multiply;fill:url(#linear-gradient-15)"/>
                    <path d="M212.33,225.3s8.34,15.59,32,22l-6.8,16.46S211,249.13,204.21,229.44Z" style="fill:url(#delivering_img_264-2)"/>
                    <path d="M244.3,247.34A23,23,0,0,0,259,231.49l4.29,2.6a95.13,95.13,0,0,1-6.45,26.85Z" style="fill:url(#delivering_img_264-3)"/>

                    <path d="M269.25,414.57c-.17.93-.36,1.86-.61,2.79-2.87,10.73-7.88,6.07-7.88,6.07a32.44,32.44,0,0,1,.16-12.15,41.71,41.71,0,0,1,7.36-16.48A51.62,51.62,0,0,1,269.25,414.57Z"
                          style="fill:url(#delivering_img_3-2)"/>
                    <path d="M260.35,415.61a30.73,30.73,0,0,0,.41,7.82s-89.12-20-107.38-27.56-24.7-19.68-25.77-32.93S143,271.68,152,257.35s16.83-19,19.33-19c0,0,15.75-2.51,19.69,15S173.45,350.06,169.49,364h0s0,0,0,0h0c1.46.38,35.12,9.41,54.72,15,20,5.73,44,15.75,44,15.75a41.71,41.71,0,0,0-7.36,16.48A33,33,0,0,0,260.35,415.61Z"
                          style="fill: #d10513"/>
                    <path d="M268.28,394.8a41.71,41.71,0,0,0-7.36,16.48,33,33,0,0,0-.57,4.33s-.84-10.43,2.92-19c0,0-59.23-20.22-66.41-22.55-6.93-2.26-26.13-9.54-27.32-10,1.46.38,35.12,9.41,54.72,15C244.3,384.78,268.28,394.8,268.28,394.8Z"
                          style="opacity:0.58;mix-blend-mode:screen;fill:url(#linear-gradient-19)"/>
                    <path d="M330.21,405.7S321.07,413,316,414s-16.38,8.59-25.51,6.45c-6.66-1.57-15.8-4.12-21.22-5.92a30,30,0,0,1-4.2-1.6,33.27,33.27,0,0,0-4.13-1.69,38.39,38.39,0,0,1,1.63-5.82,40.7,40.7,0,0,1,5.73-10.66s7.7-.18,11.64-3,15.56-2,19.86-7.52a5.39,5.39,0,0,1,3.78,3.48,6.1,6.1,0,0,1,.16,2.95c-.9,5.37-5.19,6.45-9.13,7a13,13,0,0,0-6.81,3.58Z"
                          style="fill:url(#delivering_img_71-4)"/>
                    <path d="M330.21,405.7S321.07,413,316,414s-16.38,8.59-25.51,6.45c-6.66-1.57-15.8-4.12-21.22-5.92a30,30,0,0,1-4.2-1.6,33.27,33.27,0,0,0-4.13-1.69,38.39,38.39,0,0,1,1.63-5.82c8.66,2.21,23.55,6.43,30.47,9.38,10,4.26,17.45-2.95,21.07-4a19.37,19.37,0,0,0,6.85-4.3l-33.16-5.28Z"
                          style="fill:url(#linear-gradient-20)"/>
                    <path d="M303.72,390.68c-.9,5.37-5.19,6.45-9.13,7a13,13,0,0,0-6.81,3.58s-5.89,1-6.17,0,3.09-4.25,6.45-4.38,9.25-1.88,11.27-3.76a51.79,51.79,0,0,0,4.23-5.37A6.1,6.1,0,0,1,303.72,390.68Z"
                          style="fill:url(#linear-gradient-21)"/>
                </g>

                <g id="box_delivering">
                    <polygon points="394.31 412.42 274.34 399.84 289.24 267.47 409.11 280.96 394.31 412.42" style="fill:url(#linear-gradient-16)"/>
                    <polygon points="409.11 280.96 448.62 278.16 433.82 409.62 394.31 412.42 409.11 280.96" style="fill:url(#linear-gradient-17)"/>
                    <polygon points="289.24 267.47 330.21 264.83 448.62 278.16 409.11 280.96 289.24 267.47" style="fill:url(#linear-gradient-18)"/>
                </g>
            </g>

            <g id="girl_full_body">
                <path d="M552.83,224.06a17.4,17.4,0,0,1-4,6.76c-9.76,10.91-32,16.6-32,16.6a106.68,106.68,0,0,1-14.61,5.89c-2.25.61-4.18.91-5.26.55s-2.34-1.81-4-4a85.63,85.63,0,0,1-6.7-11.47q-.75-1.46-1.41-3c-2.26-4.93-4-9.88-4.45-13.46a11.82,11.82,0,0,1-.12-1.63c0-9.12,4.56-16.1,4.56-25s-1.34-32.31,19.6-40.6,40-.48,47.78,17.24S557.4,208.77,552.83,224.06Z"
                      style="fill:url(#delivering_img_71-5)"/>
                <path d="M490,215.84c-.28,1.51-.58,3-.93,4.52a3.78,3.78,0,0,1-2.47,2.9c-.4,4.05-1,8.23-1.67,12.14.45,1,.92,2,1.4,3a86.18,86.18,0,0,0,5.84-22.5A4.55,4.55,0,0,1,490,215.84Z"
                      style="fill:url(#linear-gradient-22)"/>
                <path d="M493.83,219.22s2.19,2.12,4.43,2.21,5.81-5.81,5.81-5.81l-3.13-7-5.62-.95Z" style="fill:url(#linear-gradient-23)"/>
                <path d="M548.83,230.82c-9.76,10.92-32,16.6-32,16.6a105.81,105.81,0,0,1-14.61,5.88c-2.31-.33-4.53-.77-5-1.45-1.06-1.47,1-7.91,5.53-12.61s15.56-8.46,21.87-10.07,18.26-.4,18.26-.4S547.19,228.45,548.83,230.82Z"
                      style="fill:url(#linear-gradient-24)"/>
                <path d="M549.36,225.36a77.67,77.67,0,0,0-1.78,12.19c-.91,10.82-.91,23-.91,23l-4.28.61-27.94,3.95-5.7,1c3.49-7,5.17-20.62,5.17-20.62s7.07-5.64,14.91-11.22v0C539.19,226.88,550.88,219.56,549.36,225.36Z"
                      style="fill:url(#delivering_img_71-6)"/>
                <path d="M547.58,237.55c-.91,10.82-.91,23-.91,23l-4.28.61-.32-.23c-5.1-3.87-14.38-22.54-14.38-22.54l7.66-5Z" style="fill:url(#linear-gradient-25)"/>
                <path d="M528.83,234.05s-3.63,7.74-5.38,11.64c-1.4,3.13-6.91,14.62-9,19.18l-5.7,1.25c3.5-7,5.17-20.85,5.17-20.85S521,239.64,528.83,234.05Z" style="fill:url(#linear-gradient-26)"/>
                <path d="M493,249.83a85.63,85.63,0,0,1-6.7-11.47q-.75-1.46-1.41-3c-2.26-4.93-4-9.88-4.45-13.46l3.78-.79a22.43,22.43,0,0,0,1.94,5.66,8,8,0,0,0,3,3.4,3.42,3.42,0,0,0,.62.27S493.21,244.91,493,249.83Z"
                      style="fill:#fff"/>
                <path d="M497.11,212.79a24.36,24.36,0,0,1-1.27,7.87,39,39,0,0,1-5.9,11.16l-.93-1.24a62.42,62.42,0,0,0,5.58-10.72l.08-.2c1.3.13,2.08-2.77,2.4-6.38Z" style="fill:#fff"/>
                <path d="M489.21,230.2a76.2,76.2,0,0,1-2.87,8.16q-.75-1.46-1.41-3c.51-2.77.94-5.68,1.27-8.59A8,8,0,0,0,489.21,230.2Z" style="opacity:0.41000000000000003;fill:url(#linear-gradient-27)"/>
                <path d="M493.88,202.63c-.13.65-.24,1.41-.32,2.24-4.45,5.18-9,17.12-9.06,17.25l-1.25-.48C483.49,221,488.83,207,493.88,202.63Z" style="fill:#fff"/>
                <path d="M497.07,213.28c-.32,3.61-1.1,6.51-2.4,6.38a1.43,1.43,0,0,1-.84-.44,101.83,101.83,0,0,1-.27-14.35c.08-.83.19-1.59.32-2.24.28-1.34.69-2.25,1.29-2.48C496.88,199.54,497.6,207.35,497.07,213.28Z"
                      style="fill:url(#delivering_img_71-7)"/>
                <path d="M562.66,387.4a.56.56,0,0,0,0,.07c-.26,1.33-.5,12.44-.72,13.52-1.14,1-2.28,1.93-3.43,2.87a.33.33,0,0,1-.11.08q-5.24,3.85-10.69,7.51a286.07,286.07,0,0,1-37,21q-10.8,5.07-22.08,9.19c-4.29,1.58-8.63,3.05-13,4.44.43-6.59.86-15.76,1.25-19.5.28-2.68.53-5.35.76-8s.4-5.18.54-7.61c0-.24,0-.49,0-.72,0-.72.07-1.43.1-2.12a90.5,90.5,0,0,0,0-10c-.07-.79-.15-1.53-.25-2.18a10.54,10.54,0,0,0-.5-2.06c-.08-.24-.18-.48-.28-.71l-.12-.32c-.21-.54-.45-1.05-.68-1.55s-.4-.86-.61-1.27c-.36-.7-.74-1.37-1.13-2-.27-.48-.55-.95-.83-1.44l-.46-.76c-.15-.25-.3-.5-.44-.76a54.72,54.72,0,0,1-3.09-5.83c-.27-.57-.5-1.16-.74-1.79-.12-.33-.25-.66-.36-1s-.14-.41-.21-.62-.09-.28-.12-.43a4,4,0,0,1-.14-.46c0-.1,0-.18-.07-.28s-.1-.33-.14-.51-.11-.41-.16-.62-.07-.25-.1-.38c-.08-.34-.17-.7-.25-1.07-.18-.86-.33-1.77-.46-2.73-.07-.44-.12-.9-.18-1.36-.11-1-.19-2-.22-3.06a.57.57,0,0,1,0-.13c0-.48-.06-1-.06-1.51,0-.14,0-.28,0-.41v-.12c0-.37,0-.74,0-1.13v-1c.07-5,1.36-12.58,3.47-21.21.68-2.87,1.47-5.88,2.33-8.95.68-2.45,1.41-4.95,2.19-7.47s1.57-5.06,2.4-7.59c.42-1.26.85-2.52,1.28-3.79s.86-2.51,1.3-3.75c4.52-12.76,9.61-24.64,14.15-32.11a37.62,37.62,0,0,1,3.62-5.15l.14-.05c1.48-.61,14.66-6,25.25-9.61l.1-.05c2.55-.87,5-1.65,7-2.23a28,28,0,0,1,4.46-.9c6.91-.86,14.87.36,23.18,2.88,2.75,3.19,21.68,25.59,24,37.91C584.07,311.81,566.52,374,562.66,387.4Z"
                      style="fill:url(#delivering_img_322)"/>
                <path d="M562.66,387.4a.56.56,0,0,0,0,.07c-.26,1.33-.5,12.44-.72,13.52-1.14,1-2.28,1.93-3.43,2.87a.33.33,0,0,1-.11.08q-5.24,3.85-10.69,7.51c.21-7.9.61-19.89,1-21.61,2.08-8.59,2.76-36.51,2.76-51.26V274.94c0-13.15-17.12-17.2-17.12-17.2h0c6.91-.86,14.87.36,23.18,2.88,2.75,3.19,21.68,25.59,24,37.91C584.07,311.81,566.52,374,562.66,387.4Z"
                      style="fill:url(#linear-gradient-28)"/>
                <path d="M509.83,308.49s-13.09,46.19-15.51,54.77-8.06,47-11.54,54.76a43.28,43.28,0,0,1-5.86,8.56c1.44-13.93,2.31-28.06.65-32.67-3.62-10-11.15-13.73-10.89-33.33.14-10.77,5.88-32.84,13-52.76L501,293.26Z"
                      style="fill:url(#linear-gradient-29)"/>

                <g id="girl_left_hand_full">
                    <g id="girl_left_hand_open">
                        <path d="M444.68,336.28,429.56,354v0l-5.46,6.39s-43.43,3.2-73.61-2.51a.21.21,0,0,1-.05.07c-.49-.64-4.15-5.41-7.59-6.52-3.7-1.19-10.69-11.26-12.15-12.86,0,0-3.33,3.83-2.55,7.22s4.74,4.59,4.77,5.82-16.81-8.28-20.22-8.57c-3.08-.26-6.37,4-7.73,6.44-.14.24-.26.48-.36.69-.77,1.61.24,8.32,2,13.84a28.2,28.2,0,0,0,2.08,5.06,2.84,2.84,0,0,0,1,1c6.17,4.11,33.52,2.73,33.52,2.73l.06-.12c2,.53,59.74,15.42,98.94,10.73l17.38-18.32Z"
                              style="fill:url(#delivering_img_71-8)"/>
                        <path d="M444.68,336.28,429.56,354v0S428.27,365,431,374.54c0,0-32.74,4.3-49.38,1.61s-37.25-5.57-37.25-5.57l-.61-.08c-3.22-.43-18.52-2.53-27.76-4.29,0,0-.95-3.49,1.22-4.82s10.23-1.08,10.23-1.08a63.47,63.47,0,0,0-6.1-2c-2.29-.54-5.51-2-7-2.5a43.76,43.76,0,0,1-6.57-2.87,15.09,15.09,0,0,1-2.78-3.45c-.14.24-.26.48-.36.69-.77,1.61.24,8.32,2,13.84a28.2,28.2,0,0,0,2.08,5.06,2.31,2.31,0,0,0,.39.51l.13.11c5,4.56,34,3.11,34,3.11l.06-.12c2,.53,59.74,15.42,98.94,10.73l17.38-18.32Z"
                              style="fill:url(#linear-gradient-30)"/>
                    </g>
                    <g id="girl_left_hand_sleeve">
                        <path d="M508.19,314.58c-5,16.63-26.49,38.64-41.29,52.34-8.32,7.71-14.55,12.79-14.55,12.79s-19.21-1.75-22.79-27.39a.47.47,0,0,0,.1-.13c2.22-3.38,49.14-74.48,67.75-81.62a.59.59,0,0,0,.14-.06,9.49,9.49,0,0,1,7-.2c2.69,1.11,4.67,3.77,5.93,7.54a26.23,26.23,0,0,1,1,4.15,0,0,0,0,1,0,0C513,290.43,511.94,302.23,508.19,314.58Z"
                              style="fill:url(#delivering_img_322-2)"/>
                        <path d="M510.49,277.85a13.09,13.09,0,0,1,1,4.18,0,0,0,0,0,0,0c-.28-.64-5.45-12.07-14.55-9.11,0,0-1.16,1-3.18,2.83a261.93,261.93,0,0,0-31.41,34.57c-16.21,21.49-31.33,40.2-32.72,41.9,2.22-3.38,49.14-74.48,67.75-81.62a.59.59,0,0,0,.14-.06c1.49-.61,14.66-6,25.26-9.61l-18.25,9.41-.49.25A16.46,16.46,0,0,1,510.49,277.85Z"
                              style="opacity:0.58;mix-blend-mode:color-dodge;fill:url(#linear-gradient-31)"/>
                    </g>
                </g>

                <path d="M572.44,190.51a49.08,49.08,0,0,0-2.58-13.34,58.35,58.35,0,0,0-7-14.08h0c-4.66-6.84-10.68-12.47-17.2-15.8-5.61-2.85-9.55-4.1-12.27-4.55h0s-15.83-8.15-29.26-3.5-22.9,23.09-24.87,36.16,9.48,30.9,9.48,30.9c1.2,1.52,3.74,2.34,7.06,2.4.17.4.33.8.52,1.2l0,0a36.7,36.7,0,0,0,5.84,8.49h0A73,73,0,0,0,511.3,227c1.23,1,2.51,2,3.8,2.88.36.29,14.94,11.61,18.67,14.94s14.77,11.58,15.06,12.63,12.69-1.22,12.69-1.22l3.94-15a213.62,213.62,0,0,0,4.87-23.56C571.74,208.57,572.8,198.5,572.44,190.51Z"
                      style="fill:url(#delivering_img_5-3)"/>
                <path d="M565.81,240c.07-.22.13-.47.2-.72l0-.08.2-.8,0-.14c.06-.26.13-.53.19-.8,0-.11.06-.22.08-.33l.18-.73c0-.19.08-.37.13-.56s.09-.4.14-.61.13-.59.2-.89c0-.13,0-.26.08-.39.64-2.88,1.35-6.36,2-10.18,0-.08,0-.16,0-.24.09-.49.18-1,.26-1.49.06-.31.11-.62.17-.94l.12-.76.27-1.61h0c.05-.36.11-.71.17-1.06h0c1.42-9.12,2.48-19.18,2.12-27.18a49.08,49.08,0,0,0-2.58-13.34c0,3-.09,6.05-.28,8.38-.63,7.31-5.2,17.89-7.7,22.14s-5.91-3.71-7.34-9.8c-1.4-5.93-15.92-23.73-16.63-24.59.28.9,7.69,24.41,7.51,33.19-.18,8.95-12.89,17.53-17.73,14.94s-31.77-21-31.77-21l.34,9.42,0,0a36.7,36.7,0,0,0,5.84,8.49h0A73,73,0,0,0,511.3,227h0l.09.07c1.25,1,2.52,2,3.83,2.9,1.4,1.1,15,11.65,18.55,14.85,3.77,3.35,14.77,11.58,15.06,12.63s12.69-1.22,12.69-1.22l3.94-15c0-.16.1-.34.16-.55s.12-.39.18-.61Z"
                      style="opacity:0.64;mix-blend-mode:multiply;fill:url(#linear-gradient-32)"/>
                <path d="M562.8,163.08c-.46-.33-7.95-5.67-9.68-7.06s-7.18-3.94-12.36-6.62a19.05,19.05,0,0,1-7.44-6.67c2.72.45,6.66,1.7,12.28,4.55C552.12,150.61,558.14,156.24,562.8,163.08Z"
                      style="opacity:0.64;mix-blend-mode:multiply;fill:url(#linear-gradient-33)"/>
                <path d="M494.06,201.92C492.45,233.47,476,251.27,476,251.27c8.59-11.82,13.06-47.61,13.06-47.61Z" style="fill:url(#delivering_img_5-4)"/>
                <path d="M563.72,262.71a1.6,1.6,0,0,1-.74.82,14,14,0,0,1-3.33,1.47c-3.17,1-7.28,1.58-8.87.66-2.69-1.54-1.95-8.19-1.95-8.19a10.91,10.91,0,0,1,6.78-2.65,10.66,10.66,0,0,1,5.91,1.42S564.14,260.93,563.72,262.71Z"
                      style="fill:url(#delivering_img_264-4)"/>
                <path d="M563,263.53a14,14,0,0,1-3.33,1.47l-5.11.38-3.17-.65s-1.63-.91,0-2.3,7.06-2.34,7.06-2.34-1.68-3.9-.34-4,3.94,1.88,4.33,3A28.33,28.33,0,0,1,563,263.53Z"
                      style="opacity:0.56;mix-blend-mode:multiply;fill:url(#linear-gradient-34)"/>
                <path d="M589.11,315.56c-.85,15.3-24.77,52.14-25.66,53.47.29-1.15,6.07-23.54,3.47-35.56-1.34-6.09-4.4-11.3-7.52-17l0,0c-3.21-5.85-6.5-12.22-8-20.57a90.33,90.33,0,0,1,0-31.13l0,0c3.41-3.2,10.89-2.13,10.89-2.13C581.41,270.47,590,300,589.11,315.56Z"
                      style="fill:url(#delivering_img_5-5)"/>
                <path d="M555.26,266.71s10.38,5.55,14.32,24.7C569.58,291.41,561.16,273.78,555.26,266.71Z" style="opacity:0.64;mix-blend-mode:multiply;fill:url(#linear-gradient-35)"/>
                <path d="M589.11,315.56c-.85,15.3-24.77,52.14-25.66,53.47.29-1.15,6.07-23.54,3.47-35.56-1.34-6.09-4.4-11.3-7.52-17,7.88,8.12,11.79,19.81,11.79,19.81,3.9-11,1.32-24.38,1.32-24.38,4.91,9.31,1.72,29,1.72,29,4.66-8.22,7.69-19.5,7.58-25.15s-10.1-36.94-18-45.18c-7.59-7.85-12-6-12.4-5.83,3.41-3.2,10.89-2.13,10.89-2.13C581.41,270.47,590,300,589.11,315.56Z"
                      style="opacity:0.64;mix-blend-mode:multiply;fill:url(#linear-gradient-36)"/>
            </g>
        </g>
    </g>
</svg>
