<?xml version="1.0" standalone="no"?><svg xmlns="http://www.w3.org/2000/svg" viewBox="0 0 1440 320"><path fill="#fff" fill-opacity="1" d="M0,32L30,80C60,128,120,224,180,224C240,224,300,128,360,128C420,128,480,224,540,261.3C600,299,660,277,720,272C780,267,840,277,900,261.3C960,245,1020,203,1080,186.7C1140,171,1200,181,1260,192C1320,203,1380,213,1410,218.7L1440,224L1440,320L1410,320C1380,320,1320,320,1260,320C1200,320,1140,320,1080,320C1020,320,960,320,900,320C840,320,780,320,720,320C660,320,600,320,540,320C480,320,420,320,360,320C300,320,240,320,180,320C120,320,60,320,30,320L0,320Z"></path></svg>