<?xml version="1.0" standalone="no"?><svg xmlns="http://www.w3.org/2000/svg" viewBox="0 0 1440 320"><path fill="#f3f4f5" fill-opacity="1" d="M0,224L30,213.3C60,203,120,181,180,192C240,203,300,245,360,266.7C420,288,480,288,540,245.3C600,203,660,117,720,74.7C780,32,840,32,900,69.3C960,107,1020,181,1080,176C1140,171,1200,85,1260,53.3C1320,21,1380,43,1410,53.3L1440,64L1440,0L1410,0C1380,0,1320,0,1260,0C1200,0,1140,0,1080,0C1020,0,960,0,900,0C840,0,780,0,720,0C660,0,600,0,540,0C480,0,420,0,360,0C300,0,240,0,180,0C120,0,60,0,30,0L0,0Z"></path></svg>