<?xml version="1.0" standalone="no"?><svg xmlns="http://www.w3.org/2000/svg" viewBox="0 0 1440 320"><path fill="#ececf8" fill-opacity="1" d="M0,0L12.6,10.7C25.3,21,51,43,76,85.3C101.1,128,126,192,152,186.7C176.8,181,202,107,227,101.3C252.6,96,278,160,303,192C328.4,224,354,224,379,234.7C404.2,245,429,267,455,240C480,213,505,139,531,96C555.8,53,581,43,606,74.7C631.6,107,657,181,682,186.7C707.4,192,733,128,758,106.7C783.2,85,808,107,834,101.3C858.9,96,884,64,909,58.7C934.7,53,960,75,985,74.7C1010.5,75,1036,53,1061,69.3C1086.3,85,1112,139,1137,181.3C1162.1,224,1187,256,1213,240C1237.9,224,1263,160,1288,117.3C1313.7,75,1339,53,1364,74.7C1389.5,96,1415,160,1427,192L1440,224L1440,0L1427.4,0C1414.7,0,1389,0,1364,0C1338.9,0,1314,0,1288,0C1263.2,0,1238,0,1213,0C1187.4,0,1162,0,1137,0C1111.6,0,1086,0,1061,0C1035.8,0,1011,0,985,0C960,0,935,0,909,0C884.2,0,859,0,834,0C808.4,0,783,0,758,0C732.6,0,707,0,682,0C656.8,0,632,0,606,0C581.1,0,556,0,531,0C505.3,0,480,0,455,0C429.5,0,404,0,379,0C353.7,0,328,0,303,0C277.9,0,253,0,227,0C202.1,0,177,0,152,0C126.3,0,101,0,76,0C50.5,0,25,0,13,0L0,0Z"></path></svg>