<svg xmlns="http://www.w3.org/2000/svg" viewBox="0 0 272.05 398.98">
	<defs>
		<style>
			#db-with-box{
			animation:  db-hand-move 3.5s forwards;
			
			}
			
			@keyframes db-hand-move{
			0%   { transform: translate(28px, 18px) }
			
			100% { transform: translate(-1px , -2px); }
			}
		</style>
		<style>
			.cls-1{fill:#ffdba7;}.cls-1,.cls-10,.cls-11,.cls-12,.cls-13,.cls-14,.cls-15,.cls-16,.cls-17,.cls-18,.cls-19,.cls-7,.cls-8,.cls-9{fill-rule:evenodd;}.cls-2{fill:#d8bd76;}.cls-3{fill:#c4aa68;}.cls-4{fill:#e7d691;}.cls-5{fill:#dfe9f2;}.cls-6{fill:#818286;}.cls-7{fill:#d10513;}.cls-8{fill:#f0c17d;}.cls-10{fill:#632404;}.cls-11{fill:#fecd1b;}.cls-12{fill:#feac1a;}.cls-13{fill:#f0c07d;}.cls-14{fill:#141313;}.cls-15{fill:#072c5e;}.cls-16{fill:#1f1c1d;}.cls-17{fill:#0f4283;}.cls-18{fill:#5782bc;}.cls-19{fill:#8bb7f0;}
		</style>
	</defs>
	<title>
		choose_us_2
	</title>
	<g id="Layer_2" data-name="Layer 2">
		<g id="db-with-box">
			<g id="db-box">
				<path class="cls-1" d="M181.23,132.83c-8.33-.42-13.9,2-25-.33l-2.16,9.44c13.78,4.35,30,12.4,51.2,14.75C205,139.5,200.44,133.8,181.23,132.83Z" />
				<polygon class="cls-1" points="149.58 145.05 135.55 143 120.34 140.75 120.02 133.72 136.79 131.18 137.38 128.98 148.99 126.89 159.72 130.69 160.16 140.28 149.58 145.05" />
				<rect class="cls-2" x="74.39" y="63.48" width="80.2" height="68.8" />
				<rect class="cls-3" x="74.39" y="63.48" width="80.34" height="15.17" />
				<rect class="cls-4" x="72.41" y="62.4" width="84.16" height="12.19" />
				<rect class="cls-5" x="122.65" y="80.21" width="27.32" height="12.53" />
				<rect class="cls-6" x="124.65" y="81.82" width="2.9" height="9.32" />
				<rect class="cls-6" x="129.83" y="81.82" width="2.9" height="9.32" />
				<rect class="cls-6" x="135.19" y="81.82" width="2.9" height="9.32" />
				<rect class="cls-6" x="140.1" y="81.82" width="2.9" height="9.32" />
				<rect class="cls-6" x="145.07" y="81.82" width="2.9" height="9.32" />
				<path class="cls-1" d="M194.7,110.17C194,122,193.22,144,200.43,152.33c2.56,2.3,16.31,4.86,15.17-17-.76-2-1.8-1.38,5.31-27.32,6.43-23.48,7.65-36.19-9.46-37.6C190.73,69.11,194.46,100.25,194.7,110.17Z" />
				<path class="cls-7" d="M194,110.31c8.86-3.12,18.34,1.65,24.39,7,.7-2.66,1.52-5.74,2.51-9.33,6.43-23.48,7.65-36.19-9.46-37.6C190.73,69.11,193.23,100.12,194,110.31Z" />
			</g>
		</g>
		<g id="Layer_1-2" data-name="Layer 1">
			<path class="cls-8" d="M58.5,92.71c1.38,7.69,1.43,13.19,3,21l2.56,26.86c-1.83,2.66-11.34,13.86-14.19,3.68-2.19-7.79-5.78-20.33-8.49-30.58C36.06,93.52,38,84.2,42.65,81.28,48,77.94,56.78,83.1,58.5,92.71Z" />
			<path class="cls-9" d="M185.3,14.31c-.57,13.63,10.57,14.91,23.86,13.74l.74-7.83-3.2-4.29L201.23,14Z" />
			<path class="cls-8" d="M238,45.63l2.83,16.12L221.83,77,218,73.32c-4.65-13.73-.68-12.34-5.16-28.95l20.33-11.31C234.32,42.79,236.33,38.72,238,45.63Z" />
			<path class="cls-1" d="M200.37,41.69a2.44,2.44,0,0,1-.94,2.88,2,2,0,0,0,1.43,2.13c3.9-.49,2.55,2.14,2.25,2.19-2.83.42-2.43,1.46-1.89,2.35.8.15,1.17.47,1.27.87.32,1.24-1.84,3.81,0,5.91,2.23,2.52,13.64-3.43,18.95-6.18,4.41-2.27,2.89-5.33,2.32-10.16,2.54.29,4.47-.51,4.52-4.5,3.22-4.77,4.27-8.61,6.28-14,0,0-8.63-21.13-9.15-21.25s-16.86,2.33-16.86,2.33c-1.93,3.22-5.09,6.23-7.09,10-2.77,5.2-2.79,8.31-3.42,10.79a5.32,5.32,0,0,0,.26,4.12,4.8,4.8,0,0,1,.6,1.57c.09,4.07-3.76,7.7-3.52,8.82C195.57,40.49,197.47,42.06,200.37,41.69Z" />
			<path class="cls-10" d="M216.28,28.88c.06,1.54,1.46,4.37,1.43,7.47,1.93-2,2.4-3.56,4-5.22,2.23-2.11,5.07-4.16,7.2-3.31,2.45,1,1.2,5.55-.77,8.7a5.71,5.71,0,0,0-.75,4.67c.89,2.6,3.51,1.4,5.85,4,1.92,2.1,4.78,4.72,5.66,6.16.45-4.11.31-8,2.88-11.93a24.76,24.76,0,0,0,3.1-8.06A23.6,23.6,0,0,0,231.05,4.18c-12-4.95-26,.42-29.41,9.72,2-.1,5.82.95,9.63,2.66A15.57,15.57,0,0,1,215,30.42Z" />
			<path class="cls-7" d="M244.77,32.79a32.67,32.67,0,0,0,1.3-6c1.46-11.91-7-23.31-16.8-25.72C216.15-2.17,208,2.37,203.08,9.45a29.45,29.45,0,0,0-3,5.39c8.15,3.15,15.8,6.25,24.08,9.32C231.45,26.84,238.89,28.12,244.77,32.79Z" />
			<path class="cls-8" d="M43,65.55a31.42,31.42,0,0,0-.79,10.91A99,99,0,0,0,44.8,91.35l1.8,23.23-24.51-32,3.79-3.84-.13-16.1L22.2,50.59,37.8,61Z" />
			<path class="cls-11" d="M57.47,130l-8.22,21.1-.52,16.52-37.64,5.52.2-1.92c.37-3.38,2.27-5.45,2.71-8.07.65-3.84-.25-8.16-.69-13.78C11.42,125,5.37,98.16,10.66,88.88c2.07-3.65,5.7-5.16,7-9.35.46-1.56,3.43-1.86,7.79.94,2.3,1.47,15.26,25.82,18.38,26,4.27.2-2.25-29.65-1.59-29,3,3.08,7,3.19,9.48,6,3.61,4.15,5.21,12.8,8.1,18.86,4,8.49,5.87,9,6.34,13.43C66.94,123.37,63.32,125.3,57.47,130Z" />
			<path class="cls-12" d="M55.62,130l-9.29,1.74-15,4-6.49,23.06-8.18,18.1-5.55-3.78,1.15-2.89c1.4-8.36,1.81-11.45,1.07-20.88C11.42,125,5.37,98.16,10.66,88.88l11.23-1.53c.47-1.56,3.93,37.4,8.29,40.2,2.3,1.47,11.51.73,16.51,1.33Z" />
			<path class="cls-1" d="M44.68,67.57c2.75.82,5,1.09,5.87-.3,1.19-1.79.85-4.18.9-4.93,0-.4.52-.7,1.22-1.55,1.39-2-1.1-2.57-2.59-3.22,2.65.06,4,.22,4.11-2.24l-.83-.62a5,5,0,0,1,.08-2.87c.4-1.36,3.24-1.9,2.76-4.42a14.56,14.56,0,0,1-4.81-6.85c-.9-3,1.14-5.18-.81-11a15.8,15.8,0,0,0-10-10.12C32,16.54,18.32,17.07,13.4,23.17-.14,40,24.06,60.07,24.43,60.32,29.75,63.9,37.42,65.41,44.68,67.57Z" />
			<path class="cls-10" d="M47.47,23.84c-2.95-5.83-25.74-13.46-36,2C1.81,42.61,3.77,66.45,10.15,77.68c3.06,5.38,26,7.9,33.74,9.37-3.09-2.36-5.77-4.32-7.94-7.33a20.62,20.62,0,0,0,2.2,1.38c-6.44-12.17-10.25-16.83-6.25-28C38.58,46,63.11,31.35,47.47,23.84Z" />
			<path class="cls-8" d="M48.07,175.12l-2.92,86.79c-1.36,25.7-11.57,89.72-9.4,105.64,1.84,13.43,34.51,23.09,35.44,29.13-2.77,1.3-17.84,1.78-23.73.73-7.74-1.37-11.88-4.61-18.46-5l0,3.76-7.91-.08-.83-7.61c-1.6-14.43,2.65-14.09,2.93-21C24,347.62,18.07,313.14,15.7,292l9.92-33.23L17.25,176Z" />
			<path class="cls-12" d="M59.63,388.12c6.17,3.39,11.21,6.24,11.56,8.56-2.77,1.3-17.84,1.78-23.73.73-7.74-1.37-11.88-4.61-18.46-5l0,3.76-7.91-.08-.69-7.6c-.82-5-1.36-8.17.47-13C26.24,382.94,48.8,391.09,59.63,388.12Z" />
			<path class="cls-1" d="M39.6,175.62,32,262.9c-1.36,25.7-11.58,89.73-9.4,105.64,1.84,13.43,34.51,23.09,35.44,29.14-2.78,1.29-17.84,1.77-23.73.72-7.75-1.37-11.89-4.61-18.47-4.95l0,3.76L7,397.13l-.83-7.61c-1.6-14.43,2.65-14.1,2.93-21C9.91,348.61,4,314.13,1.65,293l9.92-33.23L4.43,176.52Z" />
			<path class="cls-11" d="M46.51,389.11c6.17,3.39,11.2,6.25,11.56,8.57-2.78,1.29-17.84,1.77-23.73.72-7.75-1.37-11.89-4.61-18.47-4.95l0,3.76L7,397.13l-.69-7.6c-.82-5-1.36-8.17.47-13C12.19,383.93,35.67,392.08,46.51,389.11Z" />
			<path class="cls-11" d="M48.76,164.75c-1-6.45-28.22-7.33-34.61-4.63-3,5.27-11.8,12.09-11.59,19.2l2.25,79.8,8.19.21,39.79-.67C52.13,246.54,49.6,203.09,48.76,164.75Z" />
			<path class="cls-12" d="M24.87,158.73c-2.37.23-7.15-2.39-11.2,1.51-1.51,4.08-7.83,9-10.25,14.45-7.23,16.17-1,64.71.68,84.27l15.37.36-.83-55C18.13,165,23,167,24.87,158.73Z" />
			<path class="cls-13" d="M94.65,137.54l-5.32,3c-.51.29-6.69-5.16-4.12-5.58l3.8-.62,4.08-3.95c.46-.45,4.41-.76,5-.43h0a1.18,1.18,0,0,1,.4,1.6C97.79,132.73,95.74,136.91,94.65,137.54Z" />
			<path class="cls-14" d="M194.18,395.59c8.74,5.36,22.6.89,31.35.05,3,2,7.74.62,9.54.24,4-.81,3.19-10.67,2-16.62-.93-4.78,0-8.5.06-13.75l-16.64-4.3c.76,8.63,1.61,11.65-.56,15.32-4.48,7.59-14.21,8.13-20.7,8.4C189,385.35,188.38,392,194.18,395.59Z" />
			<path class="cls-15" d="M250.64,222c3.11-12.55,3.82-17.35,2.37-25.57-1.81-10.29-5.2-16.52-9.81-25.54l-33.71,7.3-3.34,30,7.69,64.94,3.41,103.73,23.07,2.43,5-73-6.57-33.71C240.19,255.37,247.18,236,250.64,222Z" />
			<path class="cls-16" d="M214.82,396.63c8.74,5.15,22.6.36,31.35-.69,3,1.9,7.74.43,9.54,0,4-.92,3.18-10.76,2-16.68-.93-4.76-.05-8.5,0-13.75l-16.64-3.9c.77,8.61,1.62,11.61-.55,15.33-4.48,7.69-14.21,8.47-20.7,8.89C209.68,386.52,209,393.21,214.82,396.63Z" />
			<path class="cls-17" d="M262.28,223.56c5.72-27.13-5.09-32.51-7.78-52.68l-34.44,9.32L219,209.9l3.71,11.2,5.74,51.15.37,3,8.51,104.51,23.16,2.43,1.45-75.93L258,271.64C258.88,254.46,259.33,237.55,262.28,223.56Z" />
			<path class="cls-7" d="M241.94,59.19c1.64,1.34,3.74,2,7.84,3.81,11.94,5.44,14.94,9.32,18.31,15.26,7.48,13.23-7.67,55.51-13.21,94.24-11.75,14.28-43.64,11.76-45.8,10.94-5-28-11.3-41.36-12.6-64.14-.66-11.77-.42-22.7,1-30.94,1.6-9.56,1.61-14,9.19-19.15a33.53,33.53,0,0,0,8.68-8.66C215.26,83.62,239.37,57.08,241.94,59.19Z" />
			<path class="cls-7" d="M219.37,184.14a49.27,49.27,0,0,1-10.29-.7c-5-28-11.3-41.36-12.6-64.14-.66-11.77-.42-22.7,1-30.94,1.6-9.56,1.61-14,9.19-19.15a33.53,33.53,0,0,0,8.68-8.66,24,24,0,0,0,.18,3.22c-5.83,19.44-10.27,37-8.33,54.22C211.94,160.28,218.32,169.89,219.37,184.14Z" />
			<path class="cls-1" d="M269.46,113.17c-.55,7.36-.79,26.17-2.87,34.59-.13.51-15.77,19.34-21.42-2.14-1.39-1.8.74-13.78-2.76-41.23-2.89-22.67,9-31.32,17.19-28.21C267.17,79.05,271.05,92,269.46,113.17Z" />
			<path class="cls-7" d="M270.88,113.15c-8.22-5.14-21.86-2.89-28.46,1.1-.32-2.8-.72-6.06-1.21-9.86C238,79.54,239.74,66.6,256.59,69.12,276.94,72.54,271.61,103.4,270.88,113.15Z" />
			<path class="cls-1" d="M267.52,146.23c-5.75,21.24-19,37.16-27.59,57.94-6.5-2.56-7.54-3.39-11.13-3.63,0,0,12.28-41.3,15.88-59.76C247.33,127.19,271.19,131.69,267.52,146.23Z" />
			<path class="cls-1" d="M216.68,214.78c-1.57,2.69-1.38,2.87-1.66,5.81-.21,2.34-.93,5.7-1,6.09,0,.56,1.87,5.81,1.87,5.81,2.82,2.91,3.78,4.84,5.41,3.65,1-.73.25-2.53-1.67-6.08l-.42-2.09c.82,1.8,1.38,3.22,2.82,4.2,1.27.86,3.3,1.5,4.84-1,.37-.6-.2-.8-.73-1.32l-1.4-1.4c.26-2.25.4-4.26.52-6.52.05,3.11.19,5,.72,6.11.73,1.54,2.16,1.11,3.57.66,2-.61.27-3.49.85-8.08,0,1.61-.13,3.93.81,5.32s2.3,0,2.88-1.09a81.6,81.6,0,0,0,6-15.92c.49-2.11.34-3.87.81-5.19,1.32-3.15,2.72-7.67,4.26-10.72l-12.42-5.73-5.51,12.88C225.81,201.31,217.58,213.23,216.68,214.78Z" />
			<path class="cls-7" d="M200.47,14c-6.79-.21-9.05,0-15.17.2,7.26,8.58,21.29,7.08,31.76,7.07C213.91,18.71,205.36,14.14,200.47,14Z" />
			<path class="cls-18" d="M218.88,70.17a188.35,188.35,0,0,0-4.06,21.73c-.32,2.71-.32,3,2.56,3.35.45,0,1,.11,1.53.19l-.27,1.16-1.5-.18c-4.14-.5-4.28-.51-3.59-4.63a166.91,166.91,0,0,1,4.29-21.73Z" />
			<path class="cls-19" d="M217.28,91.45a.93.93,0,0,1,.8,1.2,1.33,1.33,0,0,1-1.38,1,.92.92,0,0,1-.79-1.2A1.32,1.32,0,0,1,217.28,91.45Z" />
			<path class="cls-19" d="M218.42,84.26a.91.91,0,0,1,.8,1.19,1.34,1.34,0,0,1-1.38,1,.93.93,0,0,1-.8-1.2A1.33,1.33,0,0,1,218.42,84.26Z" />
			<path class="cls-19" d="M219.61,77.27a.91.91,0,0,1,.8,1.19,1.34,1.34,0,0,1-1.38,1,.93.93,0,0,1-.8-1.2A1.33,1.33,0,0,1,219.61,77.27Z" />
			<path class="cls-7" d="M240.53,56c-4.54,6.28-13.42,12.19-20.89,14a.69.69,0,0,0,.11.44,28.66,28.66,0,0,1,6.3,11.12c5.8-6.05,14.63-13,16.31-22Z" />
			<path class="cls-7" d="M215.39,60.35c.05,4.06.76,6.51,4.27,9.62,0,0,.23.21,0,.3-2.59,1.36-4.84,2.55-7.48,7.92-1.09-6.07-.85-11.47-.06-14.15Z" />
			<path class="cls-1" d="M97.58,129.13h0a1.62,1.62,0,0,1-1.18,1.94c-2.79.68-5.87,1-8.62,1.81l-2.51.89a1.54,1.54,0,0,1-1.92-1.19h0c-.21-.86.92-1.1,1.18-1.94l.53-1.75,10.6-.95A1.69,1.69,0,0,1,97.58,129.13Z" />
			<path class="cls-1" d="M88.19,129.59l.31,2.76c0,.43-3.83,3.74,1.31,4.89.88.2,1.36,4.06.48,4.27a20.24,20.24,0,0,1-5.23.77c-2.32-.13-4.51-1.71-6.43-2.69l-7.88,1.33.73-6.71L76,131.79c.8-.43,1.71-2.28,3-2.44l6.51-.82C86.4,128.42,88.09,128.68,88.19,129.59Z" />
		</g>
		<g id="girl">
			<path class="cls-1" d="M23.2,143.15,75,132.2c.64,4.5,1,4.22,3.52,7.29,0,0-47.39,18.75-48.34,19C23,160.58,13.55,145.75,23.2,143.15Z" />
			<path class="cls-1" d="M100.39,131.45l-3.49,6-.12.18a2.1,2.1,0,0,1-.78.7l-6.13,3.52a1.16,1.16,0,0,1-1.59-.88c-.31-1.3-2.42-2.33.77-3.3l5.63-1.72,3.42-5.84A1.34,1.34,0,0,1,100.39,131.45Z" />
			<path class="cls-1" d="M28.36,99.24c1.38,7.69,1.42,13.19,3,21l2.56,26.86c-1.83,2.66-11.35,13.86-14.2,3.68C17.54,143,14,130.44,11.24,120.2,5.92,100.06,7.81,90.73,12.5,87.81,17.86,84.47,26.64,89.63,28.36,99.24Z" />
		</g>
	</g>
</svg>
